G04 #@! TF.GenerationSoftware,KiCad,Pcbnew,(5.1.5)-3*
G04 #@! TF.CreationDate,2021-10-09T13:10:46+03:00*
G04 #@! TF.ProjectId,OPL2,4f504c32-2e6b-4696-9361-645f70636258,rev?*
G04 #@! TF.SameCoordinates,Original*
G04 #@! TF.FileFunction,Paste,Top*
G04 #@! TF.FilePolarity,Positive*
%FSLAX46Y46*%
G04 Gerber Fmt 4.6, Leading zero omitted, Abs format (unit mm)*
G04 Created by KiCad (PCBNEW (5.1.5)-3) date 2021-10-09 13:10:46*
%MOMM*%
%LPD*%
G04 APERTURE LIST*
%ADD10C,0.100000*%
G04 APERTURE END LIST*
D10*
G36*
X133572054Y-80201083D02*
G01*
X133593895Y-80204323D01*
X133615314Y-80209688D01*
X133636104Y-80217127D01*
X133656064Y-80226568D01*
X133675003Y-80237919D01*
X133692738Y-80251073D01*
X133709099Y-80265901D01*
X133723927Y-80282262D01*
X133737081Y-80299997D01*
X133748432Y-80318936D01*
X133757873Y-80338896D01*
X133765312Y-80359686D01*
X133770677Y-80381105D01*
X133773917Y-80402946D01*
X133775000Y-80425000D01*
X133775000Y-80875000D01*
X133773917Y-80897054D01*
X133770677Y-80918895D01*
X133765312Y-80940314D01*
X133757873Y-80961104D01*
X133748432Y-80981064D01*
X133737081Y-81000003D01*
X133723927Y-81017738D01*
X133709099Y-81034099D01*
X133692738Y-81048927D01*
X133675003Y-81062081D01*
X133656064Y-81073432D01*
X133636104Y-81082873D01*
X133615314Y-81090312D01*
X133593895Y-81095677D01*
X133572054Y-81098917D01*
X133550000Y-81100000D01*
X133050000Y-81100000D01*
X133027946Y-81098917D01*
X133006105Y-81095677D01*
X132984686Y-81090312D01*
X132963896Y-81082873D01*
X132943936Y-81073432D01*
X132924997Y-81062081D01*
X132907262Y-81048927D01*
X132890901Y-81034099D01*
X132876073Y-81017738D01*
X132862919Y-81000003D01*
X132851568Y-80981064D01*
X132842127Y-80961104D01*
X132834688Y-80940314D01*
X132829323Y-80918895D01*
X132826083Y-80897054D01*
X132825000Y-80875000D01*
X132825000Y-80425000D01*
X132826083Y-80402946D01*
X132829323Y-80381105D01*
X132834688Y-80359686D01*
X132842127Y-80338896D01*
X132851568Y-80318936D01*
X132862919Y-80299997D01*
X132876073Y-80282262D01*
X132890901Y-80265901D01*
X132907262Y-80251073D01*
X132924997Y-80237919D01*
X132943936Y-80226568D01*
X132963896Y-80217127D01*
X132984686Y-80209688D01*
X133006105Y-80204323D01*
X133027946Y-80201083D01*
X133050000Y-80200000D01*
X133550000Y-80200000D01*
X133572054Y-80201083D01*
G37*
G36*
X133572054Y-81751083D02*
G01*
X133593895Y-81754323D01*
X133615314Y-81759688D01*
X133636104Y-81767127D01*
X133656064Y-81776568D01*
X133675003Y-81787919D01*
X133692738Y-81801073D01*
X133709099Y-81815901D01*
X133723927Y-81832262D01*
X133737081Y-81849997D01*
X133748432Y-81868936D01*
X133757873Y-81888896D01*
X133765312Y-81909686D01*
X133770677Y-81931105D01*
X133773917Y-81952946D01*
X133775000Y-81975000D01*
X133775000Y-82425000D01*
X133773917Y-82447054D01*
X133770677Y-82468895D01*
X133765312Y-82490314D01*
X133757873Y-82511104D01*
X133748432Y-82531064D01*
X133737081Y-82550003D01*
X133723927Y-82567738D01*
X133709099Y-82584099D01*
X133692738Y-82598927D01*
X133675003Y-82612081D01*
X133656064Y-82623432D01*
X133636104Y-82632873D01*
X133615314Y-82640312D01*
X133593895Y-82645677D01*
X133572054Y-82648917D01*
X133550000Y-82650000D01*
X133050000Y-82650000D01*
X133027946Y-82648917D01*
X133006105Y-82645677D01*
X132984686Y-82640312D01*
X132963896Y-82632873D01*
X132943936Y-82623432D01*
X132924997Y-82612081D01*
X132907262Y-82598927D01*
X132890901Y-82584099D01*
X132876073Y-82567738D01*
X132862919Y-82550003D01*
X132851568Y-82531064D01*
X132842127Y-82511104D01*
X132834688Y-82490314D01*
X132829323Y-82468895D01*
X132826083Y-82447054D01*
X132825000Y-82425000D01*
X132825000Y-81975000D01*
X132826083Y-81952946D01*
X132829323Y-81931105D01*
X132834688Y-81909686D01*
X132842127Y-81888896D01*
X132851568Y-81868936D01*
X132862919Y-81849997D01*
X132876073Y-81832262D01*
X132890901Y-81815901D01*
X132907262Y-81801073D01*
X132924997Y-81787919D01*
X132943936Y-81776568D01*
X132963896Y-81767127D01*
X132984686Y-81759688D01*
X133006105Y-81754323D01*
X133027946Y-81751083D01*
X133050000Y-81750000D01*
X133550000Y-81750000D01*
X133572054Y-81751083D01*
G37*
G36*
X140397054Y-79026083D02*
G01*
X140418895Y-79029323D01*
X140440314Y-79034688D01*
X140461104Y-79042127D01*
X140481064Y-79051568D01*
X140500003Y-79062919D01*
X140517738Y-79076073D01*
X140534099Y-79090901D01*
X140548927Y-79107262D01*
X140562081Y-79124997D01*
X140573432Y-79143936D01*
X140582873Y-79163896D01*
X140590312Y-79184686D01*
X140595677Y-79206105D01*
X140598917Y-79227946D01*
X140600000Y-79250000D01*
X140600000Y-79750000D01*
X140598917Y-79772054D01*
X140595677Y-79793895D01*
X140590312Y-79815314D01*
X140582873Y-79836104D01*
X140573432Y-79856064D01*
X140562081Y-79875003D01*
X140548927Y-79892738D01*
X140534099Y-79909099D01*
X140517738Y-79923927D01*
X140500003Y-79937081D01*
X140481064Y-79948432D01*
X140461104Y-79957873D01*
X140440314Y-79965312D01*
X140418895Y-79970677D01*
X140397054Y-79973917D01*
X140375000Y-79975000D01*
X139925000Y-79975000D01*
X139902946Y-79973917D01*
X139881105Y-79970677D01*
X139859686Y-79965312D01*
X139838896Y-79957873D01*
X139818936Y-79948432D01*
X139799997Y-79937081D01*
X139782262Y-79923927D01*
X139765901Y-79909099D01*
X139751073Y-79892738D01*
X139737919Y-79875003D01*
X139726568Y-79856064D01*
X139717127Y-79836104D01*
X139709688Y-79815314D01*
X139704323Y-79793895D01*
X139701083Y-79772054D01*
X139700000Y-79750000D01*
X139700000Y-79250000D01*
X139701083Y-79227946D01*
X139704323Y-79206105D01*
X139709688Y-79184686D01*
X139717127Y-79163896D01*
X139726568Y-79143936D01*
X139737919Y-79124997D01*
X139751073Y-79107262D01*
X139765901Y-79090901D01*
X139782262Y-79076073D01*
X139799997Y-79062919D01*
X139818936Y-79051568D01*
X139838896Y-79042127D01*
X139859686Y-79034688D01*
X139881105Y-79029323D01*
X139902946Y-79026083D01*
X139925000Y-79025000D01*
X140375000Y-79025000D01*
X140397054Y-79026083D01*
G37*
G36*
X138847054Y-79026083D02*
G01*
X138868895Y-79029323D01*
X138890314Y-79034688D01*
X138911104Y-79042127D01*
X138931064Y-79051568D01*
X138950003Y-79062919D01*
X138967738Y-79076073D01*
X138984099Y-79090901D01*
X138998927Y-79107262D01*
X139012081Y-79124997D01*
X139023432Y-79143936D01*
X139032873Y-79163896D01*
X139040312Y-79184686D01*
X139045677Y-79206105D01*
X139048917Y-79227946D01*
X139050000Y-79250000D01*
X139050000Y-79750000D01*
X139048917Y-79772054D01*
X139045677Y-79793895D01*
X139040312Y-79815314D01*
X139032873Y-79836104D01*
X139023432Y-79856064D01*
X139012081Y-79875003D01*
X138998927Y-79892738D01*
X138984099Y-79909099D01*
X138967738Y-79923927D01*
X138950003Y-79937081D01*
X138931064Y-79948432D01*
X138911104Y-79957873D01*
X138890314Y-79965312D01*
X138868895Y-79970677D01*
X138847054Y-79973917D01*
X138825000Y-79975000D01*
X138375000Y-79975000D01*
X138352946Y-79973917D01*
X138331105Y-79970677D01*
X138309686Y-79965312D01*
X138288896Y-79957873D01*
X138268936Y-79948432D01*
X138249997Y-79937081D01*
X138232262Y-79923927D01*
X138215901Y-79909099D01*
X138201073Y-79892738D01*
X138187919Y-79875003D01*
X138176568Y-79856064D01*
X138167127Y-79836104D01*
X138159688Y-79815314D01*
X138154323Y-79793895D01*
X138151083Y-79772054D01*
X138150000Y-79750000D01*
X138150000Y-79250000D01*
X138151083Y-79227946D01*
X138154323Y-79206105D01*
X138159688Y-79184686D01*
X138167127Y-79163896D01*
X138176568Y-79143936D01*
X138187919Y-79124997D01*
X138201073Y-79107262D01*
X138215901Y-79090901D01*
X138232262Y-79076073D01*
X138249997Y-79062919D01*
X138268936Y-79051568D01*
X138288896Y-79042127D01*
X138309686Y-79034688D01*
X138331105Y-79029323D01*
X138352946Y-79026083D01*
X138375000Y-79025000D01*
X138825000Y-79025000D01*
X138847054Y-79026083D01*
G37*
G36*
X158182054Y-79026083D02*
G01*
X158203895Y-79029323D01*
X158225314Y-79034688D01*
X158246104Y-79042127D01*
X158266064Y-79051568D01*
X158285003Y-79062919D01*
X158302738Y-79076073D01*
X158319099Y-79090901D01*
X158333927Y-79107262D01*
X158347081Y-79124997D01*
X158358432Y-79143936D01*
X158367873Y-79163896D01*
X158375312Y-79184686D01*
X158380677Y-79206105D01*
X158383917Y-79227946D01*
X158385000Y-79250000D01*
X158385000Y-79750000D01*
X158383917Y-79772054D01*
X158380677Y-79793895D01*
X158375312Y-79815314D01*
X158367873Y-79836104D01*
X158358432Y-79856064D01*
X158347081Y-79875003D01*
X158333927Y-79892738D01*
X158319099Y-79909099D01*
X158302738Y-79923927D01*
X158285003Y-79937081D01*
X158266064Y-79948432D01*
X158246104Y-79957873D01*
X158225314Y-79965312D01*
X158203895Y-79970677D01*
X158182054Y-79973917D01*
X158160000Y-79975000D01*
X157710000Y-79975000D01*
X157687946Y-79973917D01*
X157666105Y-79970677D01*
X157644686Y-79965312D01*
X157623896Y-79957873D01*
X157603936Y-79948432D01*
X157584997Y-79937081D01*
X157567262Y-79923927D01*
X157550901Y-79909099D01*
X157536073Y-79892738D01*
X157522919Y-79875003D01*
X157511568Y-79856064D01*
X157502127Y-79836104D01*
X157494688Y-79815314D01*
X157489323Y-79793895D01*
X157486083Y-79772054D01*
X157485000Y-79750000D01*
X157485000Y-79250000D01*
X157486083Y-79227946D01*
X157489323Y-79206105D01*
X157494688Y-79184686D01*
X157502127Y-79163896D01*
X157511568Y-79143936D01*
X157522919Y-79124997D01*
X157536073Y-79107262D01*
X157550901Y-79090901D01*
X157567262Y-79076073D01*
X157584997Y-79062919D01*
X157603936Y-79051568D01*
X157623896Y-79042127D01*
X157644686Y-79034688D01*
X157666105Y-79029323D01*
X157687946Y-79026083D01*
X157710000Y-79025000D01*
X158160000Y-79025000D01*
X158182054Y-79026083D01*
G37*
G36*
X156632054Y-79026083D02*
G01*
X156653895Y-79029323D01*
X156675314Y-79034688D01*
X156696104Y-79042127D01*
X156716064Y-79051568D01*
X156735003Y-79062919D01*
X156752738Y-79076073D01*
X156769099Y-79090901D01*
X156783927Y-79107262D01*
X156797081Y-79124997D01*
X156808432Y-79143936D01*
X156817873Y-79163896D01*
X156825312Y-79184686D01*
X156830677Y-79206105D01*
X156833917Y-79227946D01*
X156835000Y-79250000D01*
X156835000Y-79750000D01*
X156833917Y-79772054D01*
X156830677Y-79793895D01*
X156825312Y-79815314D01*
X156817873Y-79836104D01*
X156808432Y-79856064D01*
X156797081Y-79875003D01*
X156783927Y-79892738D01*
X156769099Y-79909099D01*
X156752738Y-79923927D01*
X156735003Y-79937081D01*
X156716064Y-79948432D01*
X156696104Y-79957873D01*
X156675314Y-79965312D01*
X156653895Y-79970677D01*
X156632054Y-79973917D01*
X156610000Y-79975000D01*
X156160000Y-79975000D01*
X156137946Y-79973917D01*
X156116105Y-79970677D01*
X156094686Y-79965312D01*
X156073896Y-79957873D01*
X156053936Y-79948432D01*
X156034997Y-79937081D01*
X156017262Y-79923927D01*
X156000901Y-79909099D01*
X155986073Y-79892738D01*
X155972919Y-79875003D01*
X155961568Y-79856064D01*
X155952127Y-79836104D01*
X155944688Y-79815314D01*
X155939323Y-79793895D01*
X155936083Y-79772054D01*
X155935000Y-79750000D01*
X155935000Y-79250000D01*
X155936083Y-79227946D01*
X155939323Y-79206105D01*
X155944688Y-79184686D01*
X155952127Y-79163896D01*
X155961568Y-79143936D01*
X155972919Y-79124997D01*
X155986073Y-79107262D01*
X156000901Y-79090901D01*
X156017262Y-79076073D01*
X156034997Y-79062919D01*
X156053936Y-79051568D01*
X156073896Y-79042127D01*
X156094686Y-79034688D01*
X156116105Y-79029323D01*
X156137946Y-79026083D01*
X156160000Y-79025000D01*
X156610000Y-79025000D01*
X156632054Y-79026083D01*
G37*
M02*
