M48
; DRILL file {KiCad (5.1.5)-3} date 9.10.2021 13.10.47
; FORMAT={-:-/ absolute / inch / decimal}
; #@! TF.CreationDate,2021-10-09T13:10:47+03:00
; #@! TF.GenerationSoftware,Kicad,Pcbnew,(5.1.5)-3
; #@! TF.FileFunction,Plated,1,2,PTH
FMAT,2
INCH
T1C0.0157
T2C0.0197
T3C0.0315
T4C0.0512
T5C0.0630
%
G90
G05
T1
X4.0354Y-3.1496
X4.1339Y-3.4449
X4.2323Y-3.3465
X4.2323Y-3.5433
X4.2323Y-4.0354
X4.2323Y-4.2323
X4.3307Y-3.248
X4.4291Y-3.3465
X4.626Y-3.3465
X4.7244Y-3.248
X4.7244Y-3.4449
X4.7244Y-3.6417
X4.7244Y-3.8386
X4.7244Y-4.0354
X4.7244Y-4.2323
X4.8228Y-3.3465
X4.9213Y-3.6417
X4.9213Y-4.4291
X5.0197Y-3.1496
X5.0197Y-3.3465
X5.0197Y-3.5433
X5.0197Y-3.7402
X5.0197Y-3.937
X5.0197Y-4.1339
X5.0197Y-4.3307
X5.0197Y-4.5276
X5.1181Y-3.248
X5.1181Y-3.4449
X5.1181Y-3.6417
X5.1181Y-3.8386
X5.1181Y-4.0354
X5.1181Y-4.4291
X5.2165Y-3.3465
X5.2165Y-3.5433
X5.2165Y-3.7402
X5.2165Y-3.8976
X5.2165Y-3.937
X5.2165Y-4.3307
X5.2165Y-4.5276
X5.2362Y-4.1378
X5.2362Y-4.1929
X5.2362Y-4.248
X5.315Y-3.6417
X5.3543Y-3.8976
X5.3543Y-4.1929
X5.3543Y-4.248
X5.4134Y-3.937
X5.4134Y-4.1339
X5.4563Y-3.3665
X5.5118Y-3.8386
X5.5118Y-4.0354
X5.5118Y-4.2323
X5.6102Y-3.1496
X5.6102Y-3.937
X5.6102Y-4.1339
X5.6577Y-3.4409
X5.7087Y-3.8386
X5.7118Y-4.2118
X5.748Y-3.8976
X5.8071Y-3.1496
X5.8118Y-4.2134
X5.9055Y-3.4449
X5.9055Y-4.0354
X5.9055Y-4.2323
X6.0039Y-4.1339
X6.0567Y-3.3213
X6.1024Y-3.4449
X6.1024Y-4.0354
X6.1024Y-4.2323
X6.2008Y-3.3465
X6.2124Y-4.2561
X6.2992Y-3.1496
X6.2992Y-4.0354
X6.2992Y-4.2323
X6.3031Y-3.8228
X6.3976Y-3.1496
X6.3976Y-3.3465
X6.4961Y-3.4449
X6.4961Y-3.6417
X6.4961Y-4.2323
X6.5945Y-3.1496
X6.5945Y-3.3465
X6.5945Y-3.5433
X6.5945Y-3.7402
X6.5945Y-3.937
X6.5945Y-4.1339
X6.5945Y-4.3307
X6.6929Y-3.248
X6.6929Y-4.0354
X6.6929Y-4.2323
X6.7913Y-3.1496
X6.7913Y-3.3465
X6.7913Y-3.5433
X6.7913Y-3.7402
X6.7913Y-3.937
X6.7913Y-4.1339
X6.7913Y-4.3307
X6.8118Y-4.4398
X6.8898Y-3.248
X6.8898Y-4.0354
X6.8898Y-4.2323
X6.8898Y-4.4291
X6.9118Y-4.526
X6.9882Y-3.1496
X6.9882Y-3.3465
X6.9882Y-3.5433
X6.9882Y-3.7402
X6.9882Y-3.937
X6.9882Y-4.1339
X6.9882Y-4.3307
T2
X5.1575Y-3.1496
X5.3543Y-3.1496
T3
X4.0307Y-3.5094
X4.0307Y-3.6094
X4.0307Y-3.7094
X4.0307Y-3.8094
X4.0307Y-3.9094
X4.0307Y-4.0094
X4.0307Y-4.1094
X4.0307Y-4.2094
X4.0307Y-4.3094
X4.0307Y-4.4094
X4.3307Y-3.5094
X4.3307Y-3.6094
X4.3307Y-3.7094
X4.3307Y-3.8094
X4.3307Y-3.9094
X4.3307Y-4.0094
X4.3307Y-4.1094
X4.3307Y-4.2094
X4.3307Y-4.3094
X4.3307Y-4.4094
X5.3563Y-3.2276
X5.3563Y-3.5276
X5.4563Y-3.2276
X5.4563Y-3.5276
X5.5563Y-3.2276
X5.5563Y-3.5276
X5.6563Y-3.2276
X5.6563Y-3.5276
X5.8567Y-3.2283
X5.8567Y-3.5283
X5.9567Y-3.2283
X5.9567Y-3.5283
X6.0567Y-3.2283
X6.0567Y-3.5283
X6.1567Y-3.2283
X6.1567Y-3.5283
X6.2567Y-3.2283
X6.2567Y-3.5283
X6.3567Y-3.2283
X6.3567Y-3.5283
X6.4567Y-3.2283
X6.4567Y-3.5283
X4.5669Y-3.2039
X4.5669Y-3.5039
X4.8669Y-3.2039
X4.8669Y-3.5039
X5.3567Y-3.7402
X5.3567Y-4.3402
X5.4567Y-3.7402
X5.4567Y-4.3402
X5.5567Y-3.7402
X5.5567Y-4.3402
X5.6567Y-3.7402
X5.6567Y-4.3402
X5.7567Y-3.7402
X5.7567Y-4.3402
X5.8567Y-3.7402
X5.8567Y-4.3402
X5.9567Y-3.7402
X5.9567Y-4.3402
X6.0567Y-3.7402
X6.0567Y-4.3402
X6.1567Y-3.7402
X6.1567Y-4.3402
X6.2567Y-3.7402
X6.2567Y-4.3402
X6.3567Y-3.7402
X6.3567Y-4.3402
X6.4567Y-3.7402
X6.4567Y-4.3402
X4.5622Y-3.7098
X4.5622Y-3.8098
X4.5622Y-3.9098
X4.5622Y-4.0098
X4.5622Y-4.1098
X4.5622Y-4.2098
X4.5622Y-4.3098
X4.8622Y-3.7098
X4.8622Y-3.8098
X4.8622Y-3.9098
X4.8622Y-4.0098
X4.8622Y-4.1098
X4.8622Y-4.2098
X4.8622Y-4.3098
T4
X6.6929Y-3.4646
X6.6929Y-3.8583
X6.8898Y-3.6614
T5
X6.6929Y-3.6614
X6.8898Y-3.4646
X6.8898Y-3.8583
T0
M30
