G04 #@! TF.GenerationSoftware,KiCad,Pcbnew,(5.1.5)-3*
G04 #@! TF.CreationDate,2021-10-09T13:10:46+03:00*
G04 #@! TF.ProjectId,OPL2,4f504c32-2e6b-4696-9361-645f70636258,rev?*
G04 #@! TF.SameCoordinates,Original*
G04 #@! TF.FileFunction,Copper,L1,Top*
G04 #@! TF.FilePolarity,Positive*
%FSLAX46Y46*%
G04 Gerber Fmt 4.6, Leading zero omitted, Abs format (unit mm)*
G04 Created by KiCad (PCBNEW (5.1.5)-3) date 2021-10-09 13:10:46*
%MOMM*%
%LPD*%
G04 APERTURE LIST*
%ADD10O,1.600000X1.600000*%
%ADD11R,1.600000X1.600000*%
%ADD12C,0.100000*%
%ADD13C,1.600000*%
%ADD14C,2.400000*%
%ADD15C,1.950000*%
%ADD16R,1.524000X6.858000*%
%ADD17C,0.800000*%
%ADD18C,1.000000*%
%ADD19C,0.250000*%
%ADD20C,0.500000*%
%ADD21C,1.000000*%
%ADD22C,0.254000*%
G04 APERTURE END LIST*
D10*
X102380000Y-112000000D03*
X110000000Y-89140000D03*
X102380000Y-109460000D03*
X110000000Y-91680000D03*
X102380000Y-106920000D03*
X110000000Y-94220000D03*
X102380000Y-104380000D03*
X110000000Y-96760000D03*
X102380000Y-101840000D03*
X110000000Y-99300000D03*
X102380000Y-99300000D03*
X110000000Y-101840000D03*
X102380000Y-96760000D03*
X110000000Y-104380000D03*
X102380000Y-94220000D03*
X110000000Y-106920000D03*
X102380000Y-91680000D03*
X110000000Y-109460000D03*
X102380000Y-89140000D03*
D11*
X110000000Y-112000000D03*
G04 #@! TA.AperFunction,SMDPad,CuDef*
D12*
G36*
X133572054Y-80201083D02*
G01*
X133593895Y-80204323D01*
X133615314Y-80209688D01*
X133636104Y-80217127D01*
X133656064Y-80226568D01*
X133675003Y-80237919D01*
X133692738Y-80251073D01*
X133709099Y-80265901D01*
X133723927Y-80282262D01*
X133737081Y-80299997D01*
X133748432Y-80318936D01*
X133757873Y-80338896D01*
X133765312Y-80359686D01*
X133770677Y-80381105D01*
X133773917Y-80402946D01*
X133775000Y-80425000D01*
X133775000Y-80875000D01*
X133773917Y-80897054D01*
X133770677Y-80918895D01*
X133765312Y-80940314D01*
X133757873Y-80961104D01*
X133748432Y-80981064D01*
X133737081Y-81000003D01*
X133723927Y-81017738D01*
X133709099Y-81034099D01*
X133692738Y-81048927D01*
X133675003Y-81062081D01*
X133656064Y-81073432D01*
X133636104Y-81082873D01*
X133615314Y-81090312D01*
X133593895Y-81095677D01*
X133572054Y-81098917D01*
X133550000Y-81100000D01*
X133050000Y-81100000D01*
X133027946Y-81098917D01*
X133006105Y-81095677D01*
X132984686Y-81090312D01*
X132963896Y-81082873D01*
X132943936Y-81073432D01*
X132924997Y-81062081D01*
X132907262Y-81048927D01*
X132890901Y-81034099D01*
X132876073Y-81017738D01*
X132862919Y-81000003D01*
X132851568Y-80981064D01*
X132842127Y-80961104D01*
X132834688Y-80940314D01*
X132829323Y-80918895D01*
X132826083Y-80897054D01*
X132825000Y-80875000D01*
X132825000Y-80425000D01*
X132826083Y-80402946D01*
X132829323Y-80381105D01*
X132834688Y-80359686D01*
X132842127Y-80338896D01*
X132851568Y-80318936D01*
X132862919Y-80299997D01*
X132876073Y-80282262D01*
X132890901Y-80265901D01*
X132907262Y-80251073D01*
X132924997Y-80237919D01*
X132943936Y-80226568D01*
X132963896Y-80217127D01*
X132984686Y-80209688D01*
X133006105Y-80204323D01*
X133027946Y-80201083D01*
X133050000Y-80200000D01*
X133550000Y-80200000D01*
X133572054Y-80201083D01*
G37*
G04 #@! TD.AperFunction*
G04 #@! TA.AperFunction,SMDPad,CuDef*
G36*
X133572054Y-81751083D02*
G01*
X133593895Y-81754323D01*
X133615314Y-81759688D01*
X133636104Y-81767127D01*
X133656064Y-81776568D01*
X133675003Y-81787919D01*
X133692738Y-81801073D01*
X133709099Y-81815901D01*
X133723927Y-81832262D01*
X133737081Y-81849997D01*
X133748432Y-81868936D01*
X133757873Y-81888896D01*
X133765312Y-81909686D01*
X133770677Y-81931105D01*
X133773917Y-81952946D01*
X133775000Y-81975000D01*
X133775000Y-82425000D01*
X133773917Y-82447054D01*
X133770677Y-82468895D01*
X133765312Y-82490314D01*
X133757873Y-82511104D01*
X133748432Y-82531064D01*
X133737081Y-82550003D01*
X133723927Y-82567738D01*
X133709099Y-82584099D01*
X133692738Y-82598927D01*
X133675003Y-82612081D01*
X133656064Y-82623432D01*
X133636104Y-82632873D01*
X133615314Y-82640312D01*
X133593895Y-82645677D01*
X133572054Y-82648917D01*
X133550000Y-82650000D01*
X133050000Y-82650000D01*
X133027946Y-82648917D01*
X133006105Y-82645677D01*
X132984686Y-82640312D01*
X132963896Y-82632873D01*
X132943936Y-82623432D01*
X132924997Y-82612081D01*
X132907262Y-82598927D01*
X132890901Y-82584099D01*
X132876073Y-82567738D01*
X132862919Y-82550003D01*
X132851568Y-82531064D01*
X132842127Y-82511104D01*
X132834688Y-82490314D01*
X132829323Y-82468895D01*
X132826083Y-82447054D01*
X132825000Y-82425000D01*
X132825000Y-81975000D01*
X132826083Y-81952946D01*
X132829323Y-81931105D01*
X132834688Y-81909686D01*
X132842127Y-81888896D01*
X132851568Y-81868936D01*
X132862919Y-81849997D01*
X132876073Y-81832262D01*
X132890901Y-81815901D01*
X132907262Y-81801073D01*
X132924997Y-81787919D01*
X132943936Y-81776568D01*
X132963896Y-81767127D01*
X132984686Y-81759688D01*
X133006105Y-81754323D01*
X133027946Y-81751083D01*
X133050000Y-81750000D01*
X133550000Y-81750000D01*
X133572054Y-81751083D01*
G37*
G04 #@! TD.AperFunction*
D10*
X164000000Y-110240000D03*
X136060000Y-95000000D03*
X161460000Y-110240000D03*
X138600000Y-95000000D03*
X158920000Y-110240000D03*
X141140000Y-95000000D03*
X156380000Y-110240000D03*
X143680000Y-95000000D03*
X153840000Y-110240000D03*
X146220000Y-95000000D03*
X151300000Y-110240000D03*
X148760000Y-95000000D03*
X148760000Y-110240000D03*
X151300000Y-95000000D03*
X146220000Y-110240000D03*
X153840000Y-95000000D03*
X143680000Y-110240000D03*
X156380000Y-95000000D03*
X141140000Y-110240000D03*
X158920000Y-95000000D03*
X138600000Y-110240000D03*
X161460000Y-95000000D03*
X136060000Y-110240000D03*
D11*
X164000000Y-95000000D03*
G04 #@! TA.AperFunction,SMDPad,CuDef*
D12*
G36*
X140397054Y-79026083D02*
G01*
X140418895Y-79029323D01*
X140440314Y-79034688D01*
X140461104Y-79042127D01*
X140481064Y-79051568D01*
X140500003Y-79062919D01*
X140517738Y-79076073D01*
X140534099Y-79090901D01*
X140548927Y-79107262D01*
X140562081Y-79124997D01*
X140573432Y-79143936D01*
X140582873Y-79163896D01*
X140590312Y-79184686D01*
X140595677Y-79206105D01*
X140598917Y-79227946D01*
X140600000Y-79250000D01*
X140600000Y-79750000D01*
X140598917Y-79772054D01*
X140595677Y-79793895D01*
X140590312Y-79815314D01*
X140582873Y-79836104D01*
X140573432Y-79856064D01*
X140562081Y-79875003D01*
X140548927Y-79892738D01*
X140534099Y-79909099D01*
X140517738Y-79923927D01*
X140500003Y-79937081D01*
X140481064Y-79948432D01*
X140461104Y-79957873D01*
X140440314Y-79965312D01*
X140418895Y-79970677D01*
X140397054Y-79973917D01*
X140375000Y-79975000D01*
X139925000Y-79975000D01*
X139902946Y-79973917D01*
X139881105Y-79970677D01*
X139859686Y-79965312D01*
X139838896Y-79957873D01*
X139818936Y-79948432D01*
X139799997Y-79937081D01*
X139782262Y-79923927D01*
X139765901Y-79909099D01*
X139751073Y-79892738D01*
X139737919Y-79875003D01*
X139726568Y-79856064D01*
X139717127Y-79836104D01*
X139709688Y-79815314D01*
X139704323Y-79793895D01*
X139701083Y-79772054D01*
X139700000Y-79750000D01*
X139700000Y-79250000D01*
X139701083Y-79227946D01*
X139704323Y-79206105D01*
X139709688Y-79184686D01*
X139717127Y-79163896D01*
X139726568Y-79143936D01*
X139737919Y-79124997D01*
X139751073Y-79107262D01*
X139765901Y-79090901D01*
X139782262Y-79076073D01*
X139799997Y-79062919D01*
X139818936Y-79051568D01*
X139838896Y-79042127D01*
X139859686Y-79034688D01*
X139881105Y-79029323D01*
X139902946Y-79026083D01*
X139925000Y-79025000D01*
X140375000Y-79025000D01*
X140397054Y-79026083D01*
G37*
G04 #@! TD.AperFunction*
G04 #@! TA.AperFunction,SMDPad,CuDef*
G36*
X138847054Y-79026083D02*
G01*
X138868895Y-79029323D01*
X138890314Y-79034688D01*
X138911104Y-79042127D01*
X138931064Y-79051568D01*
X138950003Y-79062919D01*
X138967738Y-79076073D01*
X138984099Y-79090901D01*
X138998927Y-79107262D01*
X139012081Y-79124997D01*
X139023432Y-79143936D01*
X139032873Y-79163896D01*
X139040312Y-79184686D01*
X139045677Y-79206105D01*
X139048917Y-79227946D01*
X139050000Y-79250000D01*
X139050000Y-79750000D01*
X139048917Y-79772054D01*
X139045677Y-79793895D01*
X139040312Y-79815314D01*
X139032873Y-79836104D01*
X139023432Y-79856064D01*
X139012081Y-79875003D01*
X138998927Y-79892738D01*
X138984099Y-79909099D01*
X138967738Y-79923927D01*
X138950003Y-79937081D01*
X138931064Y-79948432D01*
X138911104Y-79957873D01*
X138890314Y-79965312D01*
X138868895Y-79970677D01*
X138847054Y-79973917D01*
X138825000Y-79975000D01*
X138375000Y-79975000D01*
X138352946Y-79973917D01*
X138331105Y-79970677D01*
X138309686Y-79965312D01*
X138288896Y-79957873D01*
X138268936Y-79948432D01*
X138249997Y-79937081D01*
X138232262Y-79923927D01*
X138215901Y-79909099D01*
X138201073Y-79892738D01*
X138187919Y-79875003D01*
X138176568Y-79856064D01*
X138167127Y-79836104D01*
X138159688Y-79815314D01*
X138154323Y-79793895D01*
X138151083Y-79772054D01*
X138150000Y-79750000D01*
X138150000Y-79250000D01*
X138151083Y-79227946D01*
X138154323Y-79206105D01*
X138159688Y-79184686D01*
X138167127Y-79163896D01*
X138176568Y-79143936D01*
X138187919Y-79124997D01*
X138201073Y-79107262D01*
X138215901Y-79090901D01*
X138232262Y-79076073D01*
X138249997Y-79062919D01*
X138268936Y-79051568D01*
X138288896Y-79042127D01*
X138309686Y-79034688D01*
X138331105Y-79029323D01*
X138352946Y-79026083D01*
X138375000Y-79025000D01*
X138825000Y-79025000D01*
X138847054Y-79026083D01*
G37*
G04 #@! TD.AperFunction*
D10*
X115880000Y-109470000D03*
X123500000Y-94230000D03*
X115880000Y-106930000D03*
X123500000Y-96770000D03*
X115880000Y-104390000D03*
X123500000Y-99310000D03*
X115880000Y-101850000D03*
X123500000Y-101850000D03*
X115880000Y-99310000D03*
X123500000Y-104390000D03*
X115880000Y-96770000D03*
X123500000Y-106930000D03*
X115880000Y-94230000D03*
D11*
X123500000Y-109470000D03*
G04 #@! TA.AperFunction,SMDPad,CuDef*
D12*
G36*
X158182054Y-79026083D02*
G01*
X158203895Y-79029323D01*
X158225314Y-79034688D01*
X158246104Y-79042127D01*
X158266064Y-79051568D01*
X158285003Y-79062919D01*
X158302738Y-79076073D01*
X158319099Y-79090901D01*
X158333927Y-79107262D01*
X158347081Y-79124997D01*
X158358432Y-79143936D01*
X158367873Y-79163896D01*
X158375312Y-79184686D01*
X158380677Y-79206105D01*
X158383917Y-79227946D01*
X158385000Y-79250000D01*
X158385000Y-79750000D01*
X158383917Y-79772054D01*
X158380677Y-79793895D01*
X158375312Y-79815314D01*
X158367873Y-79836104D01*
X158358432Y-79856064D01*
X158347081Y-79875003D01*
X158333927Y-79892738D01*
X158319099Y-79909099D01*
X158302738Y-79923927D01*
X158285003Y-79937081D01*
X158266064Y-79948432D01*
X158246104Y-79957873D01*
X158225314Y-79965312D01*
X158203895Y-79970677D01*
X158182054Y-79973917D01*
X158160000Y-79975000D01*
X157710000Y-79975000D01*
X157687946Y-79973917D01*
X157666105Y-79970677D01*
X157644686Y-79965312D01*
X157623896Y-79957873D01*
X157603936Y-79948432D01*
X157584997Y-79937081D01*
X157567262Y-79923927D01*
X157550901Y-79909099D01*
X157536073Y-79892738D01*
X157522919Y-79875003D01*
X157511568Y-79856064D01*
X157502127Y-79836104D01*
X157494688Y-79815314D01*
X157489323Y-79793895D01*
X157486083Y-79772054D01*
X157485000Y-79750000D01*
X157485000Y-79250000D01*
X157486083Y-79227946D01*
X157489323Y-79206105D01*
X157494688Y-79184686D01*
X157502127Y-79163896D01*
X157511568Y-79143936D01*
X157522919Y-79124997D01*
X157536073Y-79107262D01*
X157550901Y-79090901D01*
X157567262Y-79076073D01*
X157584997Y-79062919D01*
X157603936Y-79051568D01*
X157623896Y-79042127D01*
X157644686Y-79034688D01*
X157666105Y-79029323D01*
X157687946Y-79026083D01*
X157710000Y-79025000D01*
X158160000Y-79025000D01*
X158182054Y-79026083D01*
G37*
G04 #@! TD.AperFunction*
G04 #@! TA.AperFunction,SMDPad,CuDef*
G36*
X156632054Y-79026083D02*
G01*
X156653895Y-79029323D01*
X156675314Y-79034688D01*
X156696104Y-79042127D01*
X156716064Y-79051568D01*
X156735003Y-79062919D01*
X156752738Y-79076073D01*
X156769099Y-79090901D01*
X156783927Y-79107262D01*
X156797081Y-79124997D01*
X156808432Y-79143936D01*
X156817873Y-79163896D01*
X156825312Y-79184686D01*
X156830677Y-79206105D01*
X156833917Y-79227946D01*
X156835000Y-79250000D01*
X156835000Y-79750000D01*
X156833917Y-79772054D01*
X156830677Y-79793895D01*
X156825312Y-79815314D01*
X156817873Y-79836104D01*
X156808432Y-79856064D01*
X156797081Y-79875003D01*
X156783927Y-79892738D01*
X156769099Y-79909099D01*
X156752738Y-79923927D01*
X156735003Y-79937081D01*
X156716064Y-79948432D01*
X156696104Y-79957873D01*
X156675314Y-79965312D01*
X156653895Y-79970677D01*
X156632054Y-79973917D01*
X156610000Y-79975000D01*
X156160000Y-79975000D01*
X156137946Y-79973917D01*
X156116105Y-79970677D01*
X156094686Y-79965312D01*
X156073896Y-79957873D01*
X156053936Y-79948432D01*
X156034997Y-79937081D01*
X156017262Y-79923927D01*
X156000901Y-79909099D01*
X155986073Y-79892738D01*
X155972919Y-79875003D01*
X155961568Y-79856064D01*
X155952127Y-79836104D01*
X155944688Y-79815314D01*
X155939323Y-79793895D01*
X155936083Y-79772054D01*
X155935000Y-79750000D01*
X155935000Y-79250000D01*
X155936083Y-79227946D01*
X155939323Y-79206105D01*
X155944688Y-79184686D01*
X155952127Y-79163896D01*
X155961568Y-79143936D01*
X155972919Y-79124997D01*
X155986073Y-79107262D01*
X156000901Y-79090901D01*
X156017262Y-79076073D01*
X156034997Y-79062919D01*
X156053936Y-79051568D01*
X156073896Y-79042127D01*
X156094686Y-79034688D01*
X156116105Y-79029323D01*
X156137946Y-79026083D01*
X156160000Y-79025000D01*
X156610000Y-79025000D01*
X156632054Y-79026083D01*
G37*
G04 #@! TD.AperFunction*
D10*
X164000000Y-89620000D03*
X148760000Y-82000000D03*
X161460000Y-89620000D03*
X151300000Y-82000000D03*
X158920000Y-89620000D03*
X153840000Y-82000000D03*
X156380000Y-89620000D03*
X156380000Y-82000000D03*
X153840000Y-89620000D03*
X158920000Y-82000000D03*
X151300000Y-89620000D03*
X161460000Y-82000000D03*
X148760000Y-89620000D03*
D11*
X164000000Y-82000000D03*
D13*
X123620000Y-89000000D03*
X123620000Y-81380000D03*
X116000000Y-81380000D03*
D11*
X116000000Y-89000000D03*
X136050000Y-89600000D03*
D10*
X143670000Y-81980000D03*
X138590000Y-89600000D03*
X141130000Y-81980000D03*
X141130000Y-89600000D03*
X138590000Y-81980000D03*
X143670000Y-89600000D03*
X136050000Y-81980000D03*
D14*
X170000000Y-93000000D03*
X175000000Y-88000000D03*
X175000000Y-98000000D03*
D15*
X170000000Y-98000000D03*
X170000000Y-88000000D03*
X175000000Y-93000000D03*
D16*
X101900000Y-120381000D03*
X104440000Y-120381000D03*
X106980000Y-120381000D03*
X109520000Y-120381000D03*
X112060000Y-120381000D03*
X114600000Y-120381000D03*
X117140000Y-120381000D03*
X119680000Y-120381000D03*
X122220000Y-120381000D03*
X124760000Y-120381000D03*
X127300000Y-120381000D03*
X129840000Y-120381000D03*
X132380000Y-120381000D03*
X134920000Y-120381000D03*
X137460000Y-120381000D03*
X140000000Y-120381000D03*
X142540000Y-120381000D03*
X145080000Y-120381000D03*
X147620000Y-120381000D03*
X150160000Y-120381000D03*
X152700000Y-120381000D03*
X155240000Y-120381000D03*
X157780000Y-120381000D03*
X160320000Y-120381000D03*
X162860000Y-120381000D03*
X165400000Y-120381000D03*
X167940000Y-120381000D03*
X170480000Y-120381000D03*
X173020000Y-120381000D03*
X175560000Y-120381000D03*
X178100000Y-120381000D03*
D17*
X177500000Y-80000000D03*
X172500000Y-80000000D03*
X167500000Y-80000000D03*
X172500000Y-85000000D03*
X177500000Y-85000000D03*
X170000000Y-82500000D03*
X175000000Y-82500000D03*
X177500000Y-90000000D03*
X177500000Y-95000000D03*
X177500000Y-100000000D03*
X172500000Y-90000000D03*
X172500000Y-95000000D03*
X172500000Y-100000000D03*
X172500000Y-105000000D03*
X177500000Y-105000000D03*
X177500000Y-110000000D03*
X172500000Y-110000000D03*
X175000000Y-107500000D03*
X175000000Y-102500000D03*
X170000000Y-102500000D03*
X170000000Y-107500000D03*
X167500000Y-105000000D03*
X167500000Y-100000000D03*
X167500000Y-110000000D03*
X127500000Y-85000000D03*
X120000000Y-92500000D03*
X120000000Y-87500000D03*
X120000000Y-82500000D03*
X120000000Y-97500000D03*
X120000000Y-102500000D03*
X120000000Y-107500000D03*
X127500000Y-95000000D03*
X125000000Y-92500000D03*
X130000000Y-97500000D03*
X127500000Y-100000000D03*
X125000000Y-112500000D03*
X127500000Y-110000000D03*
X130000000Y-112500000D03*
X127500000Y-115000000D03*
X110000000Y-82500000D03*
X107500000Y-85000000D03*
X105000000Y-87500000D03*
X102500000Y-80000000D03*
X175000000Y-112500000D03*
X127500000Y-105000000D03*
X112500000Y-85000000D03*
X122500000Y-85000000D03*
X117500000Y-85000000D03*
X167500000Y-85000000D03*
X167500000Y-90000000D03*
X167500000Y-95000000D03*
X132500000Y-100000000D03*
X130000000Y-102500000D03*
X132500000Y-95000000D03*
X130000000Y-92500000D03*
X135000000Y-92500000D03*
X132500000Y-90000000D03*
X127500000Y-90000000D03*
X132500000Y-110000000D03*
X132500000Y-115000000D03*
X132500000Y-85000000D03*
X130000000Y-87500000D03*
X127500000Y-80000000D03*
X130000000Y-82500000D03*
X137500000Y-105000000D03*
X142500000Y-105000000D03*
X142500000Y-100000000D03*
X137500000Y-100000000D03*
X140000000Y-102500000D03*
X140000000Y-97500000D03*
X140000000Y-107500000D03*
X145000000Y-97500000D03*
X142500000Y-80000000D03*
X147500000Y-80000000D03*
X150000000Y-87500000D03*
X155000000Y-87500000D03*
X165000000Y-87500000D03*
X150000000Y-102500000D03*
X150000000Y-107500000D03*
X155000000Y-102500000D03*
X155000000Y-107500000D03*
X152500000Y-105000000D03*
X160000000Y-102500000D03*
X160000000Y-107500000D03*
X165000000Y-107500000D03*
X165000000Y-92500000D03*
X107500000Y-90000000D03*
X133000000Y-105100000D03*
D18*
X131000000Y-80000000D03*
X136000000Y-80000000D03*
D17*
X162500000Y-80000000D03*
X160000000Y-80000000D03*
X162500000Y-85000000D03*
X157500000Y-85000000D03*
X107500000Y-102500000D03*
X107500000Y-107500000D03*
X173020000Y-112770000D03*
X145080000Y-106980000D03*
X147620000Y-107020000D03*
X157794999Y-108105001D03*
X160100000Y-97100000D03*
X175560000Y-114960000D03*
X133000000Y-107900000D03*
X136000000Y-107900000D03*
X136000000Y-106500000D03*
X133000000Y-106500000D03*
X143705640Y-87400000D03*
X132500000Y-99000000D03*
X136000000Y-99000000D03*
X146000000Y-99000000D03*
X153840000Y-84360000D03*
X138590000Y-85510000D03*
D19*
X109943589Y-79274999D02*
X100804989Y-88413599D01*
X100804990Y-119285990D02*
X101900000Y-120381000D01*
X127848001Y-79274999D02*
X109943589Y-79274999D01*
X134800000Y-86226998D02*
X127848001Y-79274999D01*
X134800000Y-90535002D02*
X134800000Y-86226998D01*
X147371420Y-92975010D02*
X147371389Y-92974979D01*
X100804989Y-88413599D02*
X100804990Y-119285990D01*
X147371389Y-92974979D02*
X137239977Y-92974979D01*
X154355010Y-92975010D02*
X147371420Y-92975010D01*
X137239977Y-92974979D02*
X134800000Y-90535002D01*
X156380000Y-95000000D02*
X154355010Y-92975010D01*
X106980000Y-120381000D02*
X106980000Y-115874999D01*
X103505001Y-108045001D02*
X102380000Y-106920000D01*
X103505001Y-112400000D02*
X103505001Y-108045001D01*
X106980000Y-115874999D02*
X103505001Y-112400000D01*
X103955011Y-103415011D02*
X102380000Y-101840000D01*
X103955011Y-112213600D02*
X103955011Y-103415011D01*
X109520000Y-117778589D02*
X103955011Y-112213600D01*
X109520000Y-120381000D02*
X109520000Y-117778589D01*
X108377821Y-116000000D02*
X104405021Y-112027200D01*
X104405021Y-112027200D02*
X104405021Y-98785021D01*
X111358000Y-116000000D02*
X108377821Y-116000000D01*
X112060000Y-116702000D02*
X111358000Y-116000000D01*
X104405021Y-98785021D02*
X102380000Y-96760000D01*
X112060000Y-120381000D02*
X112060000Y-116702000D01*
X104855031Y-94155031D02*
X102380000Y-91680000D01*
X104855031Y-111840800D02*
X104855031Y-94155031D01*
X108564221Y-115549990D02*
X104855031Y-111840800D01*
X113447990Y-115549990D02*
X108564221Y-115549990D01*
X114600000Y-116702000D02*
X113447990Y-115549990D01*
X114600000Y-120381000D02*
X114600000Y-116702000D01*
X105305041Y-96374959D02*
X110000000Y-91680000D01*
X105305041Y-111654400D02*
X105305041Y-96374959D01*
X108750621Y-115099980D02*
X105305041Y-111654400D01*
X115537980Y-115099980D02*
X108750621Y-115099980D01*
X117140000Y-116702000D02*
X115537980Y-115099980D01*
X117140000Y-120381000D02*
X117140000Y-116702000D01*
X105755051Y-101004949D02*
X110000000Y-96760000D01*
X108937021Y-114649970D02*
X105755051Y-111468000D01*
X117627970Y-114649970D02*
X108937021Y-114649970D01*
X105755051Y-111468000D02*
X105755051Y-101004949D01*
X119680000Y-116702000D02*
X117627970Y-114649970D01*
X119680000Y-120381000D02*
X119680000Y-116702000D01*
X157780000Y-118144998D02*
X157780000Y-120381000D01*
X157028010Y-115950010D02*
X157780000Y-116702000D01*
X134484990Y-110921400D02*
X139513600Y-115950010D01*
X157780000Y-116702000D02*
X157780000Y-120381000D01*
X137474999Y-95488591D02*
X134484989Y-98478601D01*
X134484989Y-98478601D02*
X134484990Y-110921400D01*
X137474999Y-94459999D02*
X137474999Y-95488591D01*
X138059999Y-93874999D02*
X137474999Y-94459999D01*
X140014999Y-93874999D02*
X138059999Y-93874999D01*
X139513600Y-115950010D02*
X157028010Y-115950010D01*
X141140000Y-95000000D02*
X140014999Y-93874999D01*
X160320000Y-118144998D02*
X160320000Y-120381000D01*
X160320000Y-116702000D02*
X160320000Y-120381000D01*
X159118000Y-115500000D02*
X160320000Y-116702000D01*
X139700000Y-115500000D02*
X159118000Y-115500000D01*
X134934999Y-110734999D02*
X139700000Y-115500000D01*
X134934999Y-98665001D02*
X134934999Y-110734999D01*
X138600000Y-95000000D02*
X134934999Y-98665001D01*
X162860000Y-118144998D02*
X162860000Y-120381000D01*
X162860000Y-116702000D02*
X162860000Y-120381000D01*
X139886400Y-115049990D02*
X161207990Y-115049990D01*
X161207990Y-115049990D02*
X162860000Y-116702000D01*
X136060000Y-111223590D02*
X139886400Y-115049990D01*
X136060000Y-110240000D02*
X136060000Y-111223590D01*
X165400000Y-118144998D02*
X165400000Y-120381000D01*
X165400000Y-116702000D02*
X165400000Y-120381000D01*
X163297980Y-114599980D02*
X165400000Y-116702000D01*
X140072800Y-114599980D02*
X163297980Y-114599980D01*
X138600000Y-113127180D02*
X140072800Y-114599980D01*
X138600000Y-110240000D02*
X138600000Y-113127180D01*
X167940000Y-116702000D02*
X167940000Y-120381000D01*
X141900000Y-114149970D02*
X165387970Y-114149970D01*
X141140000Y-113389970D02*
X141900000Y-114149970D01*
X165387970Y-114149970D02*
X167940000Y-116702000D01*
X141140000Y-110240000D02*
X141140000Y-113389970D01*
X167477960Y-113699960D02*
X170480000Y-116702000D01*
X170480000Y-116702000D02*
X170480000Y-120381000D01*
X143680000Y-113079960D02*
X144300000Y-113699960D01*
X144300000Y-113699960D02*
X167477960Y-113699960D01*
X143680000Y-110240000D02*
X143680000Y-113079960D01*
X173020000Y-118144998D02*
X173020000Y-120381000D01*
X168124952Y-113249950D02*
X173020000Y-118144998D01*
X146700000Y-113249950D02*
X168124952Y-113249950D01*
X146220000Y-112769950D02*
X146700000Y-113249950D01*
X146220000Y-110240000D02*
X146220000Y-112769950D01*
X175560000Y-118144998D02*
X175560000Y-120381000D01*
X170214942Y-112799940D02*
X175560000Y-118144998D01*
X149200000Y-112799940D02*
X170214942Y-112799940D01*
X148760000Y-112359940D02*
X149200000Y-112799940D01*
X148760000Y-110240000D02*
X148760000Y-112359940D01*
X110540000Y-110000000D02*
X110000000Y-109460000D01*
X110010000Y-109470000D02*
X110000000Y-109460000D01*
D20*
X164000000Y-103750000D02*
X164000000Y-95000000D01*
X173020000Y-112770000D02*
X164000000Y-103750000D01*
X139100001Y-86549999D02*
X136050000Y-89600000D01*
X144113641Y-86549999D02*
X139100001Y-86549999D01*
X144555641Y-87436815D02*
X144555641Y-86991999D01*
X144555641Y-86991999D02*
X144113641Y-86549999D01*
X148168796Y-91049970D02*
X144555641Y-87436815D01*
X160049970Y-91049970D02*
X148168796Y-91049970D01*
X164000000Y-95000000D02*
X160049970Y-91049970D01*
X136050000Y-84950000D02*
X136050000Y-89600000D01*
X133300000Y-82200000D02*
X136050000Y-84950000D01*
X111250001Y-108209999D02*
X111250001Y-105630001D01*
X111250001Y-105630001D02*
X110000000Y-104380000D01*
X110000000Y-109460000D02*
X111250001Y-108209999D01*
X111250001Y-100550001D02*
X110000000Y-99300000D01*
X111250001Y-103129999D02*
X111250001Y-100550001D01*
X110000000Y-104380000D02*
X111250001Y-103129999D01*
X111250001Y-93749999D02*
X116000000Y-89000000D01*
X111250001Y-98049999D02*
X111250001Y-93749999D01*
X110000000Y-99300000D02*
X111250001Y-98049999D01*
X116000000Y-89000000D02*
X116000000Y-81380000D01*
X115870000Y-109460000D02*
X115880000Y-109470000D01*
X110000000Y-109460000D02*
X115870000Y-109460000D01*
D19*
X145080000Y-101220000D02*
X151300000Y-95000000D01*
X145080000Y-106980000D02*
X145080000Y-101220000D01*
X147620000Y-101220000D02*
X153840000Y-95000000D01*
X147620000Y-107020000D02*
X147620000Y-101220000D01*
X106205061Y-105634939D02*
X110000000Y-101840000D01*
X106205061Y-111281600D02*
X106205061Y-105634939D01*
X109123421Y-114199960D02*
X106205061Y-111281600D01*
X119717960Y-114199960D02*
X109123421Y-114199960D01*
X122220000Y-116702000D02*
X119717960Y-114199960D01*
X122220000Y-120381000D02*
X122220000Y-116702000D01*
X124760000Y-116702000D02*
X124760000Y-120381000D01*
X121807950Y-113749950D02*
X124760000Y-116702000D01*
X109309821Y-113749950D02*
X121807950Y-113749950D01*
X108874999Y-113315128D02*
X109309821Y-113749950D01*
X108874999Y-108045001D02*
X108874999Y-113315128D01*
X110000000Y-106920000D02*
X108874999Y-108045001D01*
X101254999Y-108334999D02*
X102380000Y-109460000D01*
X101254999Y-88599999D02*
X101254999Y-108334999D01*
X110129989Y-79725009D02*
X101254999Y-88599999D01*
X126152007Y-79725009D02*
X110129989Y-79725009D01*
X134349990Y-87922992D02*
X126152007Y-79725009D01*
X134349990Y-90721402D02*
X134349990Y-87922992D01*
X137053577Y-93424989D02*
X134349990Y-90721402D01*
X147184989Y-93424989D02*
X137053577Y-93424989D01*
X148760000Y-95000000D02*
X147184989Y-93424989D01*
D21*
X156385000Y-81995000D02*
X156380000Y-82000000D01*
X156385000Y-79500000D02*
X156385000Y-81995000D01*
D19*
X157794999Y-108105001D02*
X157794999Y-99405001D01*
X157794999Y-99405001D02*
X160100000Y-97100000D01*
X160100000Y-97100000D02*
X160100000Y-97100000D01*
X164000000Y-82000000D02*
X161460000Y-82000000D01*
X159884990Y-83575010D02*
X161460000Y-82000000D01*
X137645010Y-83575010D02*
X159884990Y-83575010D01*
X136050000Y-81980000D02*
X137645010Y-83575010D01*
X120694410Y-112000000D02*
X110000000Y-112000000D01*
X152398020Y-116400020D02*
X125094430Y-116400020D01*
X152700000Y-116702000D02*
X152398020Y-116400020D01*
X125094430Y-116400020D02*
X120694410Y-112000000D01*
X152700000Y-120381000D02*
X152700000Y-116702000D01*
X125070000Y-107900000D02*
X123500000Y-109470000D01*
X133000000Y-107900000D02*
X125070000Y-107900000D01*
X136000000Y-107900000D02*
X136000000Y-107900000D01*
X136000000Y-107900000D02*
X136000000Y-107900000D01*
X137214999Y-109114999D02*
X136000000Y-107900000D01*
X149300001Y-109114999D02*
X137214999Y-109114999D01*
X149885001Y-109699999D02*
X149300001Y-109114999D01*
X149885001Y-111385001D02*
X149885001Y-109699999D01*
X150849930Y-112349930D02*
X149885001Y-111385001D01*
X170401342Y-112349930D02*
X150849930Y-112349930D01*
X173011412Y-114960000D02*
X170401342Y-112349930D01*
X175560000Y-114960000D02*
X173011412Y-114960000D01*
X138000000Y-108500000D02*
X136000000Y-106500000D01*
X138164989Y-108664989D02*
X138000000Y-108500000D01*
X152425001Y-109699999D02*
X151389991Y-108664989D01*
X151389991Y-108664989D02*
X138164989Y-108664989D01*
X152425001Y-110780001D02*
X152425001Y-109699999D01*
X153010001Y-111365001D02*
X152425001Y-110780001D01*
X162874999Y-111365001D02*
X153010001Y-111365001D01*
X164000000Y-110240000D02*
X162874999Y-111365001D01*
X136000000Y-106500000D02*
X136000000Y-106500000D01*
X123620000Y-82193002D02*
X123620000Y-81380000D01*
X133225001Y-91798003D02*
X123620000Y-82193002D01*
X133225001Y-100348001D02*
X133225001Y-91798003D01*
X131774999Y-101798003D02*
X133225001Y-100348001D01*
X131774999Y-105348001D02*
X131774999Y-101798003D01*
X132926998Y-106500000D02*
X131774999Y-105348001D01*
X133000000Y-106500000D02*
X132926998Y-106500000D01*
X162585001Y-94459999D02*
X161099981Y-92974979D01*
X162585001Y-109114999D02*
X162585001Y-94459999D01*
X161460000Y-110240000D02*
X162585001Y-109114999D01*
X161099981Y-92974979D02*
X159196391Y-92974979D01*
X159196391Y-92974979D02*
X156264209Y-92974979D01*
X156264209Y-92974979D02*
X154914210Y-91624980D01*
X154914210Y-91624980D02*
X153200000Y-91624980D01*
X147930620Y-91624980D02*
X143705640Y-87400000D01*
X153200000Y-91624980D02*
X147930620Y-91624980D01*
X143705640Y-87400000D02*
X143705640Y-87400000D01*
X147744189Y-92074959D02*
X146144959Y-92074959D01*
X147744220Y-92074990D02*
X147744189Y-92074959D01*
X146144959Y-92074959D02*
X143670000Y-89600000D01*
X154727810Y-92074990D02*
X147744220Y-92074990D01*
X156077809Y-93424989D02*
X154727810Y-92074990D01*
X159009991Y-93424989D02*
X156077809Y-93424989D01*
X160045001Y-94459999D02*
X159009991Y-93424989D01*
X160045001Y-95540001D02*
X160045001Y-94459999D01*
X156380000Y-99205002D02*
X160045001Y-95540001D01*
X156380000Y-110240000D02*
X156380000Y-99205002D01*
X144054969Y-92524969D02*
X141130000Y-89600000D01*
X147557789Y-92524969D02*
X144054969Y-92524969D01*
X147557820Y-92525000D02*
X147557789Y-92524969D01*
X154541410Y-92525000D02*
X147557820Y-92525000D01*
X156920001Y-93874999D02*
X155891409Y-93874999D01*
X157505001Y-94459999D02*
X156920001Y-93874999D01*
X157505001Y-95594999D02*
X157505001Y-94459999D01*
X153840000Y-99260000D02*
X157505001Y-95594999D01*
X155891409Y-93874999D02*
X154541410Y-92525000D01*
X153840000Y-110240000D02*
X153840000Y-99260000D01*
X131430000Y-99000000D02*
X132500000Y-99000000D01*
X123500000Y-106930000D02*
X131430000Y-99000000D01*
X136000000Y-99000000D02*
X146000000Y-99000000D01*
X146000000Y-99000000D02*
X146000000Y-99000000D01*
X138600000Y-81970000D02*
X138590000Y-81980000D01*
X138600000Y-79500000D02*
X138600000Y-81970000D01*
X157794999Y-83125001D02*
X158920000Y-82000000D01*
X139735001Y-83125001D02*
X157794999Y-83125001D01*
X138590000Y-81980000D02*
X139735001Y-83125001D01*
X139740000Y-84360000D02*
X138590000Y-85510000D01*
X153840000Y-84360000D02*
X139740000Y-84360000D01*
X168474999Y-96474999D02*
X168474999Y-89525001D01*
X168474999Y-89525001D02*
X170000000Y-88000000D01*
X170000000Y-98000000D02*
X168474999Y-96474999D01*
X148760000Y-82000000D02*
X151300000Y-82000000D01*
X170000000Y-85814998D02*
X170000000Y-88000000D01*
X162535012Y-78350010D02*
X170000000Y-85814998D01*
X154949990Y-78350010D02*
X162535012Y-78350010D01*
X151300000Y-82000000D02*
X154949990Y-78350010D01*
D22*
G36*
X179873000Y-116373000D02*
G01*
X179125828Y-116373000D01*
X179106180Y-116362498D01*
X178986482Y-116326188D01*
X178862000Y-116313928D01*
X177338000Y-116313928D01*
X177213518Y-116326188D01*
X177093820Y-116362498D01*
X177074172Y-116373000D01*
X176585828Y-116373000D01*
X176566180Y-116362498D01*
X176446482Y-116326188D01*
X176322000Y-116313928D01*
X174803732Y-116313928D01*
X174209804Y-115720000D01*
X174856289Y-115720000D01*
X174900226Y-115763937D01*
X175069744Y-115877205D01*
X175258102Y-115955226D01*
X175458061Y-115995000D01*
X175661939Y-115995000D01*
X175861898Y-115955226D01*
X176050256Y-115877205D01*
X176219774Y-115763937D01*
X176363937Y-115619774D01*
X176477205Y-115450256D01*
X176555226Y-115261898D01*
X176595000Y-115061939D01*
X176595000Y-114858061D01*
X176555226Y-114658102D01*
X176477205Y-114469744D01*
X176363937Y-114300226D01*
X176219774Y-114156063D01*
X176050256Y-114042795D01*
X175861898Y-113964774D01*
X175661939Y-113925000D01*
X175458061Y-113925000D01*
X175258102Y-113964774D01*
X175069744Y-114042795D01*
X174900226Y-114156063D01*
X174856289Y-114200000D01*
X173326215Y-114200000D01*
X172931215Y-113805000D01*
X173121939Y-113805000D01*
X173321898Y-113765226D01*
X173510256Y-113687205D01*
X173679774Y-113573937D01*
X173823937Y-113429774D01*
X173937205Y-113260256D01*
X174015226Y-113071898D01*
X174055000Y-112871939D01*
X174055000Y-112668061D01*
X174015226Y-112468102D01*
X173937205Y-112279744D01*
X173823937Y-112110226D01*
X173679774Y-111966063D01*
X173510256Y-111852795D01*
X173321898Y-111774774D01*
X173265044Y-111763465D01*
X164885000Y-103383422D01*
X164885000Y-96429701D01*
X164924482Y-96425812D01*
X165044180Y-96389502D01*
X165154494Y-96330537D01*
X165251185Y-96251185D01*
X165330537Y-96154494D01*
X165389502Y-96044180D01*
X165425812Y-95924482D01*
X165438072Y-95800000D01*
X165438072Y-94200000D01*
X165425812Y-94075518D01*
X165389502Y-93955820D01*
X165330537Y-93845506D01*
X165251185Y-93748815D01*
X165154494Y-93669463D01*
X165044180Y-93610498D01*
X164924482Y-93574188D01*
X164800000Y-93561928D01*
X163813507Y-93561928D01*
X161303577Y-91051999D01*
X161318665Y-91055000D01*
X161601335Y-91055000D01*
X161878574Y-90999853D01*
X162139727Y-90891680D01*
X162374759Y-90734637D01*
X162574637Y-90534759D01*
X162730000Y-90302241D01*
X162885363Y-90534759D01*
X163085241Y-90734637D01*
X163320273Y-90891680D01*
X163581426Y-90999853D01*
X163858665Y-91055000D01*
X164141335Y-91055000D01*
X164418574Y-90999853D01*
X164679727Y-90891680D01*
X164914759Y-90734637D01*
X165114637Y-90534759D01*
X165271680Y-90299727D01*
X165379853Y-90038574D01*
X165435000Y-89761335D01*
X165435000Y-89478665D01*
X165379853Y-89201426D01*
X165271680Y-88940273D01*
X165114637Y-88705241D01*
X164914759Y-88505363D01*
X164679727Y-88348320D01*
X164418574Y-88240147D01*
X164141335Y-88185000D01*
X163858665Y-88185000D01*
X163581426Y-88240147D01*
X163320273Y-88348320D01*
X163085241Y-88505363D01*
X162885363Y-88705241D01*
X162730000Y-88937759D01*
X162574637Y-88705241D01*
X162374759Y-88505363D01*
X162139727Y-88348320D01*
X161878574Y-88240147D01*
X161601335Y-88185000D01*
X161318665Y-88185000D01*
X161041426Y-88240147D01*
X160780273Y-88348320D01*
X160545241Y-88505363D01*
X160345363Y-88705241D01*
X160190000Y-88937759D01*
X160034637Y-88705241D01*
X159834759Y-88505363D01*
X159599727Y-88348320D01*
X159338574Y-88240147D01*
X159061335Y-88185000D01*
X158778665Y-88185000D01*
X158501426Y-88240147D01*
X158240273Y-88348320D01*
X158005241Y-88505363D01*
X157805363Y-88705241D01*
X157648320Y-88940273D01*
X157643933Y-88950865D01*
X157532385Y-88764869D01*
X157343414Y-88556481D01*
X157117420Y-88388963D01*
X156863087Y-88268754D01*
X156729039Y-88228096D01*
X156507000Y-88350085D01*
X156507000Y-89493000D01*
X156527000Y-89493000D01*
X156527000Y-89747000D01*
X156507000Y-89747000D01*
X156507000Y-89767000D01*
X156253000Y-89767000D01*
X156253000Y-89747000D01*
X156233000Y-89747000D01*
X156233000Y-89493000D01*
X156253000Y-89493000D01*
X156253000Y-88350085D01*
X156030961Y-88228096D01*
X155896913Y-88268754D01*
X155642580Y-88388963D01*
X155416586Y-88556481D01*
X155227615Y-88764869D01*
X155116067Y-88950865D01*
X155111680Y-88940273D01*
X154954637Y-88705241D01*
X154754759Y-88505363D01*
X154519727Y-88348320D01*
X154258574Y-88240147D01*
X153981335Y-88185000D01*
X153698665Y-88185000D01*
X153421426Y-88240147D01*
X153160273Y-88348320D01*
X152925241Y-88505363D01*
X152725363Y-88705241D01*
X152570000Y-88937759D01*
X152414637Y-88705241D01*
X152214759Y-88505363D01*
X151979727Y-88348320D01*
X151718574Y-88240147D01*
X151441335Y-88185000D01*
X151158665Y-88185000D01*
X150881426Y-88240147D01*
X150620273Y-88348320D01*
X150385241Y-88505363D01*
X150185363Y-88705241D01*
X150030000Y-88937759D01*
X149874637Y-88705241D01*
X149674759Y-88505363D01*
X149439727Y-88348320D01*
X149178574Y-88240147D01*
X148901335Y-88185000D01*
X148618665Y-88185000D01*
X148341426Y-88240147D01*
X148080273Y-88348320D01*
X147845241Y-88505363D01*
X147645363Y-88705241D01*
X147488320Y-88940273D01*
X147436290Y-89065885D01*
X145440641Y-87070237D01*
X145440641Y-87035464D01*
X145444922Y-86991998D01*
X145440641Y-86948532D01*
X145440641Y-86948523D01*
X145427836Y-86818509D01*
X145377230Y-86651686D01*
X145295052Y-86497940D01*
X145184458Y-86363182D01*
X145150685Y-86335465D01*
X144770175Y-85954955D01*
X144742458Y-85921182D01*
X144607700Y-85810588D01*
X144453954Y-85728410D01*
X144287131Y-85677804D01*
X144157118Y-85664999D01*
X144157110Y-85664999D01*
X144113641Y-85660718D01*
X144070172Y-85664999D01*
X139614446Y-85664999D01*
X139625000Y-85611939D01*
X139625000Y-85549801D01*
X140054802Y-85120000D01*
X153136289Y-85120000D01*
X153180226Y-85163937D01*
X153349744Y-85277205D01*
X153538102Y-85355226D01*
X153738061Y-85395000D01*
X153941939Y-85395000D01*
X154141898Y-85355226D01*
X154330256Y-85277205D01*
X154499774Y-85163937D01*
X154643937Y-85019774D01*
X154757205Y-84850256D01*
X154835226Y-84661898D01*
X154875000Y-84461939D01*
X154875000Y-84335010D01*
X159847668Y-84335010D01*
X159884990Y-84338686D01*
X159922312Y-84335010D01*
X159922323Y-84335010D01*
X160033976Y-84324013D01*
X160177237Y-84280556D01*
X160309266Y-84209984D01*
X160424991Y-84115011D01*
X160448794Y-84086007D01*
X161136114Y-83398688D01*
X161318665Y-83435000D01*
X161601335Y-83435000D01*
X161878574Y-83379853D01*
X162139727Y-83271680D01*
X162374759Y-83114637D01*
X162573357Y-82916039D01*
X162574188Y-82924482D01*
X162610498Y-83044180D01*
X162669463Y-83154494D01*
X162748815Y-83251185D01*
X162845506Y-83330537D01*
X162955820Y-83389502D01*
X163075518Y-83425812D01*
X163200000Y-83438072D01*
X164800000Y-83438072D01*
X164924482Y-83425812D01*
X165044180Y-83389502D01*
X165154494Y-83330537D01*
X165251185Y-83251185D01*
X165330537Y-83154494D01*
X165389502Y-83044180D01*
X165425812Y-82924482D01*
X165438072Y-82800000D01*
X165438072Y-82327871D01*
X169240000Y-86129800D01*
X169240000Y-86572151D01*
X169237379Y-86573237D01*
X168973685Y-86749431D01*
X168749431Y-86973685D01*
X168573237Y-87237379D01*
X168451871Y-87530380D01*
X168390000Y-87841429D01*
X168390000Y-88158571D01*
X168451871Y-88469620D01*
X168452957Y-88472242D01*
X167963997Y-88961202D01*
X167934999Y-88985000D01*
X167911201Y-89013998D01*
X167911200Y-89013999D01*
X167840025Y-89100725D01*
X167769453Y-89232755D01*
X167747373Y-89305545D01*
X167734192Y-89349001D01*
X167725997Y-89376016D01*
X167711323Y-89525001D01*
X167715000Y-89562333D01*
X167714999Y-96437676D01*
X167711323Y-96474999D01*
X167714999Y-96512321D01*
X167714999Y-96512331D01*
X167725996Y-96623984D01*
X167764049Y-96749431D01*
X167769453Y-96767245D01*
X167840025Y-96899275D01*
X167872428Y-96938758D01*
X167934998Y-97015000D01*
X167964002Y-97038803D01*
X168452957Y-97527758D01*
X168451871Y-97530380D01*
X168390000Y-97841429D01*
X168390000Y-98158571D01*
X168451871Y-98469620D01*
X168573237Y-98762621D01*
X168749431Y-99026315D01*
X168973685Y-99250569D01*
X169237379Y-99426763D01*
X169530380Y-99548129D01*
X169841429Y-99610000D01*
X170158571Y-99610000D01*
X170469620Y-99548129D01*
X170762621Y-99426763D01*
X171026315Y-99250569D01*
X171250569Y-99026315D01*
X171426763Y-98762621D01*
X171548129Y-98469620D01*
X171610000Y-98158571D01*
X171610000Y-97841429D01*
X171605592Y-97819268D01*
X173165000Y-97819268D01*
X173165000Y-98180732D01*
X173235518Y-98535250D01*
X173373844Y-98869199D01*
X173574662Y-99169744D01*
X173830256Y-99425338D01*
X174130801Y-99626156D01*
X174464750Y-99764482D01*
X174819268Y-99835000D01*
X175180732Y-99835000D01*
X175535250Y-99764482D01*
X175869199Y-99626156D01*
X176169744Y-99425338D01*
X176425338Y-99169744D01*
X176626156Y-98869199D01*
X176764482Y-98535250D01*
X176835000Y-98180732D01*
X176835000Y-97819268D01*
X176764482Y-97464750D01*
X176626156Y-97130801D01*
X176425338Y-96830256D01*
X176169744Y-96574662D01*
X175869199Y-96373844D01*
X175535250Y-96235518D01*
X175180732Y-96165000D01*
X174819268Y-96165000D01*
X174464750Y-96235518D01*
X174130801Y-96373844D01*
X173830256Y-96574662D01*
X173574662Y-96830256D01*
X173373844Y-97130801D01*
X173235518Y-97464750D01*
X173165000Y-97819268D01*
X171605592Y-97819268D01*
X171548129Y-97530380D01*
X171426763Y-97237379D01*
X171250569Y-96973685D01*
X171026315Y-96749431D01*
X170762621Y-96573237D01*
X170469620Y-96451871D01*
X170158571Y-96390000D01*
X169841429Y-96390000D01*
X169530380Y-96451871D01*
X169527758Y-96452957D01*
X169234999Y-96160198D01*
X169234999Y-94669316D01*
X169464750Y-94764482D01*
X169819268Y-94835000D01*
X170180732Y-94835000D01*
X170535250Y-94764482D01*
X170869199Y-94626156D01*
X171169744Y-94425338D01*
X171425338Y-94169744D01*
X171460190Y-94117584D01*
X174062021Y-94117584D01*
X174154766Y-94379429D01*
X174440120Y-94517820D01*
X174746990Y-94597883D01*
X175063584Y-94616540D01*
X175377733Y-94573074D01*
X175677367Y-94469156D01*
X175845234Y-94379429D01*
X175937979Y-94117584D01*
X175000000Y-93179605D01*
X174062021Y-94117584D01*
X171460190Y-94117584D01*
X171626156Y-93869199D01*
X171764482Y-93535250D01*
X171835000Y-93180732D01*
X171835000Y-93063584D01*
X173383460Y-93063584D01*
X173426926Y-93377733D01*
X173530844Y-93677367D01*
X173620571Y-93845234D01*
X173882416Y-93937979D01*
X174820395Y-93000000D01*
X175179605Y-93000000D01*
X176117584Y-93937979D01*
X176379429Y-93845234D01*
X176517820Y-93559880D01*
X176597883Y-93253010D01*
X176616540Y-92936416D01*
X176573074Y-92622267D01*
X176469156Y-92322633D01*
X176379429Y-92154766D01*
X176117584Y-92062021D01*
X175179605Y-93000000D01*
X174820395Y-93000000D01*
X173882416Y-92062021D01*
X173620571Y-92154766D01*
X173482180Y-92440120D01*
X173402117Y-92746990D01*
X173383460Y-93063584D01*
X171835000Y-93063584D01*
X171835000Y-92819268D01*
X171764482Y-92464750D01*
X171626156Y-92130801D01*
X171460191Y-91882416D01*
X174062021Y-91882416D01*
X175000000Y-92820395D01*
X175937979Y-91882416D01*
X175845234Y-91620571D01*
X175559880Y-91482180D01*
X175253010Y-91402117D01*
X174936416Y-91383460D01*
X174622267Y-91426926D01*
X174322633Y-91530844D01*
X174154766Y-91620571D01*
X174062021Y-91882416D01*
X171460191Y-91882416D01*
X171425338Y-91830256D01*
X171169744Y-91574662D01*
X170869199Y-91373844D01*
X170535250Y-91235518D01*
X170180732Y-91165000D01*
X169819268Y-91165000D01*
X169464750Y-91235518D01*
X169234999Y-91330684D01*
X169234999Y-89839802D01*
X169527758Y-89547043D01*
X169530380Y-89548129D01*
X169841429Y-89610000D01*
X170158571Y-89610000D01*
X170469620Y-89548129D01*
X170762621Y-89426763D01*
X171026315Y-89250569D01*
X171250569Y-89026315D01*
X171426763Y-88762621D01*
X171548129Y-88469620D01*
X171610000Y-88158571D01*
X171610000Y-87841429D01*
X171605592Y-87819268D01*
X173165000Y-87819268D01*
X173165000Y-88180732D01*
X173235518Y-88535250D01*
X173373844Y-88869199D01*
X173574662Y-89169744D01*
X173830256Y-89425338D01*
X174130801Y-89626156D01*
X174464750Y-89764482D01*
X174819268Y-89835000D01*
X175180732Y-89835000D01*
X175535250Y-89764482D01*
X175869199Y-89626156D01*
X176169744Y-89425338D01*
X176425338Y-89169744D01*
X176626156Y-88869199D01*
X176764482Y-88535250D01*
X176835000Y-88180732D01*
X176835000Y-87819268D01*
X176764482Y-87464750D01*
X176626156Y-87130801D01*
X176425338Y-86830256D01*
X176169744Y-86574662D01*
X175869199Y-86373844D01*
X175535250Y-86235518D01*
X175180732Y-86165000D01*
X174819268Y-86165000D01*
X174464750Y-86235518D01*
X174130801Y-86373844D01*
X173830256Y-86574662D01*
X173574662Y-86830256D01*
X173373844Y-87130801D01*
X173235518Y-87464750D01*
X173165000Y-87819268D01*
X171605592Y-87819268D01*
X171548129Y-87530380D01*
X171426763Y-87237379D01*
X171250569Y-86973685D01*
X171026315Y-86749431D01*
X170762621Y-86573237D01*
X170760000Y-86572151D01*
X170760000Y-85852320D01*
X170763676Y-85814997D01*
X170760000Y-85777674D01*
X170760000Y-85777665D01*
X170749003Y-85666012D01*
X170705546Y-85522751D01*
X170634974Y-85390722D01*
X170540001Y-85274997D01*
X170511004Y-85251200D01*
X163919803Y-78660000D01*
X179873000Y-78660000D01*
X179873000Y-116373000D01*
G37*
X179873000Y-116373000D02*
X179125828Y-116373000D01*
X179106180Y-116362498D01*
X178986482Y-116326188D01*
X178862000Y-116313928D01*
X177338000Y-116313928D01*
X177213518Y-116326188D01*
X177093820Y-116362498D01*
X177074172Y-116373000D01*
X176585828Y-116373000D01*
X176566180Y-116362498D01*
X176446482Y-116326188D01*
X176322000Y-116313928D01*
X174803732Y-116313928D01*
X174209804Y-115720000D01*
X174856289Y-115720000D01*
X174900226Y-115763937D01*
X175069744Y-115877205D01*
X175258102Y-115955226D01*
X175458061Y-115995000D01*
X175661939Y-115995000D01*
X175861898Y-115955226D01*
X176050256Y-115877205D01*
X176219774Y-115763937D01*
X176363937Y-115619774D01*
X176477205Y-115450256D01*
X176555226Y-115261898D01*
X176595000Y-115061939D01*
X176595000Y-114858061D01*
X176555226Y-114658102D01*
X176477205Y-114469744D01*
X176363937Y-114300226D01*
X176219774Y-114156063D01*
X176050256Y-114042795D01*
X175861898Y-113964774D01*
X175661939Y-113925000D01*
X175458061Y-113925000D01*
X175258102Y-113964774D01*
X175069744Y-114042795D01*
X174900226Y-114156063D01*
X174856289Y-114200000D01*
X173326215Y-114200000D01*
X172931215Y-113805000D01*
X173121939Y-113805000D01*
X173321898Y-113765226D01*
X173510256Y-113687205D01*
X173679774Y-113573937D01*
X173823937Y-113429774D01*
X173937205Y-113260256D01*
X174015226Y-113071898D01*
X174055000Y-112871939D01*
X174055000Y-112668061D01*
X174015226Y-112468102D01*
X173937205Y-112279744D01*
X173823937Y-112110226D01*
X173679774Y-111966063D01*
X173510256Y-111852795D01*
X173321898Y-111774774D01*
X173265044Y-111763465D01*
X164885000Y-103383422D01*
X164885000Y-96429701D01*
X164924482Y-96425812D01*
X165044180Y-96389502D01*
X165154494Y-96330537D01*
X165251185Y-96251185D01*
X165330537Y-96154494D01*
X165389502Y-96044180D01*
X165425812Y-95924482D01*
X165438072Y-95800000D01*
X165438072Y-94200000D01*
X165425812Y-94075518D01*
X165389502Y-93955820D01*
X165330537Y-93845506D01*
X165251185Y-93748815D01*
X165154494Y-93669463D01*
X165044180Y-93610498D01*
X164924482Y-93574188D01*
X164800000Y-93561928D01*
X163813507Y-93561928D01*
X161303577Y-91051999D01*
X161318665Y-91055000D01*
X161601335Y-91055000D01*
X161878574Y-90999853D01*
X162139727Y-90891680D01*
X162374759Y-90734637D01*
X162574637Y-90534759D01*
X162730000Y-90302241D01*
X162885363Y-90534759D01*
X163085241Y-90734637D01*
X163320273Y-90891680D01*
X163581426Y-90999853D01*
X163858665Y-91055000D01*
X164141335Y-91055000D01*
X164418574Y-90999853D01*
X164679727Y-90891680D01*
X164914759Y-90734637D01*
X165114637Y-90534759D01*
X165271680Y-90299727D01*
X165379853Y-90038574D01*
X165435000Y-89761335D01*
X165435000Y-89478665D01*
X165379853Y-89201426D01*
X165271680Y-88940273D01*
X165114637Y-88705241D01*
X164914759Y-88505363D01*
X164679727Y-88348320D01*
X164418574Y-88240147D01*
X164141335Y-88185000D01*
X163858665Y-88185000D01*
X163581426Y-88240147D01*
X163320273Y-88348320D01*
X163085241Y-88505363D01*
X162885363Y-88705241D01*
X162730000Y-88937759D01*
X162574637Y-88705241D01*
X162374759Y-88505363D01*
X162139727Y-88348320D01*
X161878574Y-88240147D01*
X161601335Y-88185000D01*
X161318665Y-88185000D01*
X161041426Y-88240147D01*
X160780273Y-88348320D01*
X160545241Y-88505363D01*
X160345363Y-88705241D01*
X160190000Y-88937759D01*
X160034637Y-88705241D01*
X159834759Y-88505363D01*
X159599727Y-88348320D01*
X159338574Y-88240147D01*
X159061335Y-88185000D01*
X158778665Y-88185000D01*
X158501426Y-88240147D01*
X158240273Y-88348320D01*
X158005241Y-88505363D01*
X157805363Y-88705241D01*
X157648320Y-88940273D01*
X157643933Y-88950865D01*
X157532385Y-88764869D01*
X157343414Y-88556481D01*
X157117420Y-88388963D01*
X156863087Y-88268754D01*
X156729039Y-88228096D01*
X156507000Y-88350085D01*
X156507000Y-89493000D01*
X156527000Y-89493000D01*
X156527000Y-89747000D01*
X156507000Y-89747000D01*
X156507000Y-89767000D01*
X156253000Y-89767000D01*
X156253000Y-89747000D01*
X156233000Y-89747000D01*
X156233000Y-89493000D01*
X156253000Y-89493000D01*
X156253000Y-88350085D01*
X156030961Y-88228096D01*
X155896913Y-88268754D01*
X155642580Y-88388963D01*
X155416586Y-88556481D01*
X155227615Y-88764869D01*
X155116067Y-88950865D01*
X155111680Y-88940273D01*
X154954637Y-88705241D01*
X154754759Y-88505363D01*
X154519727Y-88348320D01*
X154258574Y-88240147D01*
X153981335Y-88185000D01*
X153698665Y-88185000D01*
X153421426Y-88240147D01*
X153160273Y-88348320D01*
X152925241Y-88505363D01*
X152725363Y-88705241D01*
X152570000Y-88937759D01*
X152414637Y-88705241D01*
X152214759Y-88505363D01*
X151979727Y-88348320D01*
X151718574Y-88240147D01*
X151441335Y-88185000D01*
X151158665Y-88185000D01*
X150881426Y-88240147D01*
X150620273Y-88348320D01*
X150385241Y-88505363D01*
X150185363Y-88705241D01*
X150030000Y-88937759D01*
X149874637Y-88705241D01*
X149674759Y-88505363D01*
X149439727Y-88348320D01*
X149178574Y-88240147D01*
X148901335Y-88185000D01*
X148618665Y-88185000D01*
X148341426Y-88240147D01*
X148080273Y-88348320D01*
X147845241Y-88505363D01*
X147645363Y-88705241D01*
X147488320Y-88940273D01*
X147436290Y-89065885D01*
X145440641Y-87070237D01*
X145440641Y-87035464D01*
X145444922Y-86991998D01*
X145440641Y-86948532D01*
X145440641Y-86948523D01*
X145427836Y-86818509D01*
X145377230Y-86651686D01*
X145295052Y-86497940D01*
X145184458Y-86363182D01*
X145150685Y-86335465D01*
X144770175Y-85954955D01*
X144742458Y-85921182D01*
X144607700Y-85810588D01*
X144453954Y-85728410D01*
X144287131Y-85677804D01*
X144157118Y-85664999D01*
X144157110Y-85664999D01*
X144113641Y-85660718D01*
X144070172Y-85664999D01*
X139614446Y-85664999D01*
X139625000Y-85611939D01*
X139625000Y-85549801D01*
X140054802Y-85120000D01*
X153136289Y-85120000D01*
X153180226Y-85163937D01*
X153349744Y-85277205D01*
X153538102Y-85355226D01*
X153738061Y-85395000D01*
X153941939Y-85395000D01*
X154141898Y-85355226D01*
X154330256Y-85277205D01*
X154499774Y-85163937D01*
X154643937Y-85019774D01*
X154757205Y-84850256D01*
X154835226Y-84661898D01*
X154875000Y-84461939D01*
X154875000Y-84335010D01*
X159847668Y-84335010D01*
X159884990Y-84338686D01*
X159922312Y-84335010D01*
X159922323Y-84335010D01*
X160033976Y-84324013D01*
X160177237Y-84280556D01*
X160309266Y-84209984D01*
X160424991Y-84115011D01*
X160448794Y-84086007D01*
X161136114Y-83398688D01*
X161318665Y-83435000D01*
X161601335Y-83435000D01*
X161878574Y-83379853D01*
X162139727Y-83271680D01*
X162374759Y-83114637D01*
X162573357Y-82916039D01*
X162574188Y-82924482D01*
X162610498Y-83044180D01*
X162669463Y-83154494D01*
X162748815Y-83251185D01*
X162845506Y-83330537D01*
X162955820Y-83389502D01*
X163075518Y-83425812D01*
X163200000Y-83438072D01*
X164800000Y-83438072D01*
X164924482Y-83425812D01*
X165044180Y-83389502D01*
X165154494Y-83330537D01*
X165251185Y-83251185D01*
X165330537Y-83154494D01*
X165389502Y-83044180D01*
X165425812Y-82924482D01*
X165438072Y-82800000D01*
X165438072Y-82327871D01*
X169240000Y-86129800D01*
X169240000Y-86572151D01*
X169237379Y-86573237D01*
X168973685Y-86749431D01*
X168749431Y-86973685D01*
X168573237Y-87237379D01*
X168451871Y-87530380D01*
X168390000Y-87841429D01*
X168390000Y-88158571D01*
X168451871Y-88469620D01*
X168452957Y-88472242D01*
X167963997Y-88961202D01*
X167934999Y-88985000D01*
X167911201Y-89013998D01*
X167911200Y-89013999D01*
X167840025Y-89100725D01*
X167769453Y-89232755D01*
X167747373Y-89305545D01*
X167734192Y-89349001D01*
X167725997Y-89376016D01*
X167711323Y-89525001D01*
X167715000Y-89562333D01*
X167714999Y-96437676D01*
X167711323Y-96474999D01*
X167714999Y-96512321D01*
X167714999Y-96512331D01*
X167725996Y-96623984D01*
X167764049Y-96749431D01*
X167769453Y-96767245D01*
X167840025Y-96899275D01*
X167872428Y-96938758D01*
X167934998Y-97015000D01*
X167964002Y-97038803D01*
X168452957Y-97527758D01*
X168451871Y-97530380D01*
X168390000Y-97841429D01*
X168390000Y-98158571D01*
X168451871Y-98469620D01*
X168573237Y-98762621D01*
X168749431Y-99026315D01*
X168973685Y-99250569D01*
X169237379Y-99426763D01*
X169530380Y-99548129D01*
X169841429Y-99610000D01*
X170158571Y-99610000D01*
X170469620Y-99548129D01*
X170762621Y-99426763D01*
X171026315Y-99250569D01*
X171250569Y-99026315D01*
X171426763Y-98762621D01*
X171548129Y-98469620D01*
X171610000Y-98158571D01*
X171610000Y-97841429D01*
X171605592Y-97819268D01*
X173165000Y-97819268D01*
X173165000Y-98180732D01*
X173235518Y-98535250D01*
X173373844Y-98869199D01*
X173574662Y-99169744D01*
X173830256Y-99425338D01*
X174130801Y-99626156D01*
X174464750Y-99764482D01*
X174819268Y-99835000D01*
X175180732Y-99835000D01*
X175535250Y-99764482D01*
X175869199Y-99626156D01*
X176169744Y-99425338D01*
X176425338Y-99169744D01*
X176626156Y-98869199D01*
X176764482Y-98535250D01*
X176835000Y-98180732D01*
X176835000Y-97819268D01*
X176764482Y-97464750D01*
X176626156Y-97130801D01*
X176425338Y-96830256D01*
X176169744Y-96574662D01*
X175869199Y-96373844D01*
X175535250Y-96235518D01*
X175180732Y-96165000D01*
X174819268Y-96165000D01*
X174464750Y-96235518D01*
X174130801Y-96373844D01*
X173830256Y-96574662D01*
X173574662Y-96830256D01*
X173373844Y-97130801D01*
X173235518Y-97464750D01*
X173165000Y-97819268D01*
X171605592Y-97819268D01*
X171548129Y-97530380D01*
X171426763Y-97237379D01*
X171250569Y-96973685D01*
X171026315Y-96749431D01*
X170762621Y-96573237D01*
X170469620Y-96451871D01*
X170158571Y-96390000D01*
X169841429Y-96390000D01*
X169530380Y-96451871D01*
X169527758Y-96452957D01*
X169234999Y-96160198D01*
X169234999Y-94669316D01*
X169464750Y-94764482D01*
X169819268Y-94835000D01*
X170180732Y-94835000D01*
X170535250Y-94764482D01*
X170869199Y-94626156D01*
X171169744Y-94425338D01*
X171425338Y-94169744D01*
X171460190Y-94117584D01*
X174062021Y-94117584D01*
X174154766Y-94379429D01*
X174440120Y-94517820D01*
X174746990Y-94597883D01*
X175063584Y-94616540D01*
X175377733Y-94573074D01*
X175677367Y-94469156D01*
X175845234Y-94379429D01*
X175937979Y-94117584D01*
X175000000Y-93179605D01*
X174062021Y-94117584D01*
X171460190Y-94117584D01*
X171626156Y-93869199D01*
X171764482Y-93535250D01*
X171835000Y-93180732D01*
X171835000Y-93063584D01*
X173383460Y-93063584D01*
X173426926Y-93377733D01*
X173530844Y-93677367D01*
X173620571Y-93845234D01*
X173882416Y-93937979D01*
X174820395Y-93000000D01*
X175179605Y-93000000D01*
X176117584Y-93937979D01*
X176379429Y-93845234D01*
X176517820Y-93559880D01*
X176597883Y-93253010D01*
X176616540Y-92936416D01*
X176573074Y-92622267D01*
X176469156Y-92322633D01*
X176379429Y-92154766D01*
X176117584Y-92062021D01*
X175179605Y-93000000D01*
X174820395Y-93000000D01*
X173882416Y-92062021D01*
X173620571Y-92154766D01*
X173482180Y-92440120D01*
X173402117Y-92746990D01*
X173383460Y-93063584D01*
X171835000Y-93063584D01*
X171835000Y-92819268D01*
X171764482Y-92464750D01*
X171626156Y-92130801D01*
X171460191Y-91882416D01*
X174062021Y-91882416D01*
X175000000Y-92820395D01*
X175937979Y-91882416D01*
X175845234Y-91620571D01*
X175559880Y-91482180D01*
X175253010Y-91402117D01*
X174936416Y-91383460D01*
X174622267Y-91426926D01*
X174322633Y-91530844D01*
X174154766Y-91620571D01*
X174062021Y-91882416D01*
X171460191Y-91882416D01*
X171425338Y-91830256D01*
X171169744Y-91574662D01*
X170869199Y-91373844D01*
X170535250Y-91235518D01*
X170180732Y-91165000D01*
X169819268Y-91165000D01*
X169464750Y-91235518D01*
X169234999Y-91330684D01*
X169234999Y-89839802D01*
X169527758Y-89547043D01*
X169530380Y-89548129D01*
X169841429Y-89610000D01*
X170158571Y-89610000D01*
X170469620Y-89548129D01*
X170762621Y-89426763D01*
X171026315Y-89250569D01*
X171250569Y-89026315D01*
X171426763Y-88762621D01*
X171548129Y-88469620D01*
X171610000Y-88158571D01*
X171610000Y-87841429D01*
X171605592Y-87819268D01*
X173165000Y-87819268D01*
X173165000Y-88180732D01*
X173235518Y-88535250D01*
X173373844Y-88869199D01*
X173574662Y-89169744D01*
X173830256Y-89425338D01*
X174130801Y-89626156D01*
X174464750Y-89764482D01*
X174819268Y-89835000D01*
X175180732Y-89835000D01*
X175535250Y-89764482D01*
X175869199Y-89626156D01*
X176169744Y-89425338D01*
X176425338Y-89169744D01*
X176626156Y-88869199D01*
X176764482Y-88535250D01*
X176835000Y-88180732D01*
X176835000Y-87819268D01*
X176764482Y-87464750D01*
X176626156Y-87130801D01*
X176425338Y-86830256D01*
X176169744Y-86574662D01*
X175869199Y-86373844D01*
X175535250Y-86235518D01*
X175180732Y-86165000D01*
X174819268Y-86165000D01*
X174464750Y-86235518D01*
X174130801Y-86373844D01*
X173830256Y-86574662D01*
X173574662Y-86830256D01*
X173373844Y-87130801D01*
X173235518Y-87464750D01*
X173165000Y-87819268D01*
X171605592Y-87819268D01*
X171548129Y-87530380D01*
X171426763Y-87237379D01*
X171250569Y-86973685D01*
X171026315Y-86749431D01*
X170762621Y-86573237D01*
X170760000Y-86572151D01*
X170760000Y-85852320D01*
X170763676Y-85814997D01*
X170760000Y-85777674D01*
X170760000Y-85777665D01*
X170749003Y-85666012D01*
X170705546Y-85522751D01*
X170634974Y-85390722D01*
X170540001Y-85274997D01*
X170511004Y-85251200D01*
X163919803Y-78660000D01*
X179873000Y-78660000D01*
X179873000Y-116373000D01*
G36*
X122348320Y-80700273D02*
G01*
X122240147Y-80961426D01*
X122185000Y-81238665D01*
X122185000Y-81521335D01*
X122240147Y-81798574D01*
X122348320Y-82059727D01*
X122505363Y-82294759D01*
X122705241Y-82494637D01*
X122940273Y-82651680D01*
X123050847Y-82697481D01*
X123079999Y-82733003D01*
X123109003Y-82756806D01*
X132465002Y-92112806D01*
X132465001Y-97965000D01*
X132398061Y-97965000D01*
X132198102Y-98004774D01*
X132009744Y-98082795D01*
X131840226Y-98196063D01*
X131796289Y-98240000D01*
X131467333Y-98240000D01*
X131430000Y-98236323D01*
X131392667Y-98240000D01*
X131281014Y-98250997D01*
X131137753Y-98294454D01*
X131005724Y-98365026D01*
X130889999Y-98459999D01*
X130866201Y-98488997D01*
X124935000Y-104420199D01*
X124935000Y-104248665D01*
X124879853Y-103971426D01*
X124771680Y-103710273D01*
X124614637Y-103475241D01*
X124414759Y-103275363D01*
X124182241Y-103120000D01*
X124414759Y-102964637D01*
X124614637Y-102764759D01*
X124771680Y-102529727D01*
X124879853Y-102268574D01*
X124935000Y-101991335D01*
X124935000Y-101708665D01*
X124879853Y-101431426D01*
X124771680Y-101170273D01*
X124614637Y-100935241D01*
X124414759Y-100735363D01*
X124182241Y-100580000D01*
X124414759Y-100424637D01*
X124614637Y-100224759D01*
X124771680Y-99989727D01*
X124879853Y-99728574D01*
X124935000Y-99451335D01*
X124935000Y-99168665D01*
X124879853Y-98891426D01*
X124771680Y-98630273D01*
X124614637Y-98395241D01*
X124414759Y-98195363D01*
X124182241Y-98040000D01*
X124414759Y-97884637D01*
X124614637Y-97684759D01*
X124771680Y-97449727D01*
X124879853Y-97188574D01*
X124935000Y-96911335D01*
X124935000Y-96628665D01*
X124879853Y-96351426D01*
X124771680Y-96090273D01*
X124614637Y-95855241D01*
X124414759Y-95655363D01*
X124179727Y-95498320D01*
X124169135Y-95493933D01*
X124355131Y-95382385D01*
X124563519Y-95193414D01*
X124731037Y-94967420D01*
X124851246Y-94713087D01*
X124891904Y-94579039D01*
X124769915Y-94357000D01*
X123627000Y-94357000D01*
X123627000Y-94377000D01*
X123373000Y-94377000D01*
X123373000Y-94357000D01*
X122230085Y-94357000D01*
X122108096Y-94579039D01*
X122148754Y-94713087D01*
X122268963Y-94967420D01*
X122436481Y-95193414D01*
X122644869Y-95382385D01*
X122830865Y-95493933D01*
X122820273Y-95498320D01*
X122585241Y-95655363D01*
X122385363Y-95855241D01*
X122228320Y-96090273D01*
X122120147Y-96351426D01*
X122065000Y-96628665D01*
X122065000Y-96911335D01*
X122120147Y-97188574D01*
X122228320Y-97449727D01*
X122385363Y-97684759D01*
X122585241Y-97884637D01*
X122817759Y-98040000D01*
X122585241Y-98195363D01*
X122385363Y-98395241D01*
X122228320Y-98630273D01*
X122120147Y-98891426D01*
X122065000Y-99168665D01*
X122065000Y-99451335D01*
X122120147Y-99728574D01*
X122228320Y-99989727D01*
X122385363Y-100224759D01*
X122585241Y-100424637D01*
X122817759Y-100580000D01*
X122585241Y-100735363D01*
X122385363Y-100935241D01*
X122228320Y-101170273D01*
X122120147Y-101431426D01*
X122065000Y-101708665D01*
X122065000Y-101991335D01*
X122120147Y-102268574D01*
X122228320Y-102529727D01*
X122385363Y-102764759D01*
X122585241Y-102964637D01*
X122817759Y-103120000D01*
X122585241Y-103275363D01*
X122385363Y-103475241D01*
X122228320Y-103710273D01*
X122120147Y-103971426D01*
X122065000Y-104248665D01*
X122065000Y-104531335D01*
X122120147Y-104808574D01*
X122228320Y-105069727D01*
X122385363Y-105304759D01*
X122585241Y-105504637D01*
X122817759Y-105660000D01*
X122585241Y-105815363D01*
X122385363Y-106015241D01*
X122228320Y-106250273D01*
X122120147Y-106511426D01*
X122065000Y-106788665D01*
X122065000Y-107071335D01*
X122120147Y-107348574D01*
X122228320Y-107609727D01*
X122385363Y-107844759D01*
X122583961Y-108043357D01*
X122575518Y-108044188D01*
X122455820Y-108080498D01*
X122345506Y-108139463D01*
X122248815Y-108218815D01*
X122169463Y-108315506D01*
X122110498Y-108425820D01*
X122074188Y-108545518D01*
X122061928Y-108670000D01*
X122061928Y-110270000D01*
X122074188Y-110394482D01*
X122110498Y-110514180D01*
X122169463Y-110624494D01*
X122248815Y-110721185D01*
X122345506Y-110800537D01*
X122455820Y-110859502D01*
X122575518Y-110895812D01*
X122700000Y-110908072D01*
X124300000Y-110908072D01*
X124424482Y-110895812D01*
X124544180Y-110859502D01*
X124654494Y-110800537D01*
X124751185Y-110721185D01*
X124830537Y-110624494D01*
X124889502Y-110514180D01*
X124925812Y-110394482D01*
X124938072Y-110270000D01*
X124938072Y-109106730D01*
X125384802Y-108660000D01*
X132296289Y-108660000D01*
X132340226Y-108703937D01*
X132509744Y-108817205D01*
X132698102Y-108895226D01*
X132898061Y-108935000D01*
X133101939Y-108935000D01*
X133301898Y-108895226D01*
X133490256Y-108817205D01*
X133659774Y-108703937D01*
X133724991Y-108638720D01*
X133724991Y-110884068D01*
X133721314Y-110921400D01*
X133724991Y-110958732D01*
X133724991Y-110958733D01*
X133735988Y-111070386D01*
X133749170Y-111113842D01*
X133779444Y-111213646D01*
X133850016Y-111345676D01*
X133919700Y-111430585D01*
X133944990Y-111461401D01*
X133973988Y-111485199D01*
X138128807Y-115640020D01*
X125409232Y-115640020D01*
X121258214Y-111489003D01*
X121234411Y-111459999D01*
X121118686Y-111365026D01*
X120986657Y-111294454D01*
X120843396Y-111250997D01*
X120731743Y-111240000D01*
X120731732Y-111240000D01*
X120694410Y-111236324D01*
X120657088Y-111240000D01*
X111438072Y-111240000D01*
X111438072Y-111200000D01*
X111425812Y-111075518D01*
X111389502Y-110955820D01*
X111330537Y-110845506D01*
X111251185Y-110748815D01*
X111154494Y-110669463D01*
X111044180Y-110610498D01*
X111007614Y-110599406D01*
X111080000Y-110540000D01*
X111174973Y-110424275D01*
X111217347Y-110345000D01*
X114738797Y-110345000D01*
X114765363Y-110384759D01*
X114965241Y-110584637D01*
X115200273Y-110741680D01*
X115461426Y-110849853D01*
X115738665Y-110905000D01*
X116021335Y-110905000D01*
X116298574Y-110849853D01*
X116559727Y-110741680D01*
X116794759Y-110584637D01*
X116994637Y-110384759D01*
X117151680Y-110149727D01*
X117259853Y-109888574D01*
X117315000Y-109611335D01*
X117315000Y-109328665D01*
X117259853Y-109051426D01*
X117151680Y-108790273D01*
X116994637Y-108555241D01*
X116794759Y-108355363D01*
X116562241Y-108200000D01*
X116794759Y-108044637D01*
X116994637Y-107844759D01*
X117151680Y-107609727D01*
X117259853Y-107348574D01*
X117315000Y-107071335D01*
X117315000Y-106788665D01*
X117259853Y-106511426D01*
X117151680Y-106250273D01*
X116994637Y-106015241D01*
X116794759Y-105815363D01*
X116562241Y-105660000D01*
X116794759Y-105504637D01*
X116994637Y-105304759D01*
X117151680Y-105069727D01*
X117259853Y-104808574D01*
X117315000Y-104531335D01*
X117315000Y-104248665D01*
X117259853Y-103971426D01*
X117151680Y-103710273D01*
X116994637Y-103475241D01*
X116794759Y-103275363D01*
X116562241Y-103120000D01*
X116794759Y-102964637D01*
X116994637Y-102764759D01*
X117151680Y-102529727D01*
X117259853Y-102268574D01*
X117315000Y-101991335D01*
X117315000Y-101708665D01*
X117259853Y-101431426D01*
X117151680Y-101170273D01*
X116994637Y-100935241D01*
X116794759Y-100735363D01*
X116562241Y-100580000D01*
X116794759Y-100424637D01*
X116994637Y-100224759D01*
X117151680Y-99989727D01*
X117259853Y-99728574D01*
X117315000Y-99451335D01*
X117315000Y-99168665D01*
X117259853Y-98891426D01*
X117151680Y-98630273D01*
X116994637Y-98395241D01*
X116794759Y-98195363D01*
X116562241Y-98040000D01*
X116794759Y-97884637D01*
X116994637Y-97684759D01*
X117151680Y-97449727D01*
X117259853Y-97188574D01*
X117315000Y-96911335D01*
X117315000Y-96628665D01*
X117259853Y-96351426D01*
X117151680Y-96090273D01*
X116994637Y-95855241D01*
X116794759Y-95655363D01*
X116562241Y-95500000D01*
X116794759Y-95344637D01*
X116994637Y-95144759D01*
X117151680Y-94909727D01*
X117259853Y-94648574D01*
X117315000Y-94371335D01*
X117315000Y-94088665D01*
X117273685Y-93880961D01*
X122108096Y-93880961D01*
X122230085Y-94103000D01*
X123373000Y-94103000D01*
X123373000Y-92959376D01*
X123627000Y-92959376D01*
X123627000Y-94103000D01*
X124769915Y-94103000D01*
X124891904Y-93880961D01*
X124851246Y-93746913D01*
X124731037Y-93492580D01*
X124563519Y-93266586D01*
X124355131Y-93077615D01*
X124113881Y-92932930D01*
X123849040Y-92838091D01*
X123627000Y-92959376D01*
X123373000Y-92959376D01*
X123150960Y-92838091D01*
X122886119Y-92932930D01*
X122644869Y-93077615D01*
X122436481Y-93266586D01*
X122268963Y-93492580D01*
X122148754Y-93746913D01*
X122108096Y-93880961D01*
X117273685Y-93880961D01*
X117259853Y-93811426D01*
X117151680Y-93550273D01*
X116994637Y-93315241D01*
X116794759Y-93115363D01*
X116559727Y-92958320D01*
X116298574Y-92850147D01*
X116021335Y-92795000D01*
X115738665Y-92795000D01*
X115461426Y-92850147D01*
X115200273Y-92958320D01*
X114965241Y-93115363D01*
X114765363Y-93315241D01*
X114608320Y-93550273D01*
X114500147Y-93811426D01*
X114445000Y-94088665D01*
X114445000Y-94371335D01*
X114500147Y-94648574D01*
X114608320Y-94909727D01*
X114765363Y-95144759D01*
X114965241Y-95344637D01*
X115197759Y-95500000D01*
X114965241Y-95655363D01*
X114765363Y-95855241D01*
X114608320Y-96090273D01*
X114500147Y-96351426D01*
X114445000Y-96628665D01*
X114445000Y-96911335D01*
X114500147Y-97188574D01*
X114608320Y-97449727D01*
X114765363Y-97684759D01*
X114965241Y-97884637D01*
X115197759Y-98040000D01*
X114965241Y-98195363D01*
X114765363Y-98395241D01*
X114608320Y-98630273D01*
X114500147Y-98891426D01*
X114445000Y-99168665D01*
X114445000Y-99451335D01*
X114500147Y-99728574D01*
X114608320Y-99989727D01*
X114765363Y-100224759D01*
X114965241Y-100424637D01*
X115197759Y-100580000D01*
X114965241Y-100735363D01*
X114765363Y-100935241D01*
X114608320Y-101170273D01*
X114500147Y-101431426D01*
X114445000Y-101708665D01*
X114445000Y-101991335D01*
X114500147Y-102268574D01*
X114608320Y-102529727D01*
X114765363Y-102764759D01*
X114965241Y-102964637D01*
X115197759Y-103120000D01*
X114965241Y-103275363D01*
X114765363Y-103475241D01*
X114608320Y-103710273D01*
X114500147Y-103971426D01*
X114445000Y-104248665D01*
X114445000Y-104531335D01*
X114500147Y-104808574D01*
X114608320Y-105069727D01*
X114765363Y-105304759D01*
X114965241Y-105504637D01*
X115197759Y-105660000D01*
X114965241Y-105815363D01*
X114765363Y-106015241D01*
X114608320Y-106250273D01*
X114500147Y-106511426D01*
X114445000Y-106788665D01*
X114445000Y-107071335D01*
X114500147Y-107348574D01*
X114608320Y-107609727D01*
X114765363Y-107844759D01*
X114965241Y-108044637D01*
X115197759Y-108200000D01*
X114965241Y-108355363D01*
X114765363Y-108555241D01*
X114752160Y-108575000D01*
X112058394Y-108575000D01*
X112071590Y-108550312D01*
X112122196Y-108383489D01*
X112135001Y-108253476D01*
X112135001Y-108253466D01*
X112139282Y-108210000D01*
X112135001Y-108166534D01*
X112135001Y-105673466D01*
X112139282Y-105630000D01*
X112135001Y-105586534D01*
X112135001Y-105586524D01*
X112122196Y-105456511D01*
X112071590Y-105289688D01*
X111989412Y-105135942D01*
X111955761Y-105094938D01*
X111906533Y-105034954D01*
X111906531Y-105034952D01*
X111878818Y-105001184D01*
X111845050Y-104973471D01*
X111428017Y-104556439D01*
X111435000Y-104521335D01*
X111435000Y-104238665D01*
X111428017Y-104203561D01*
X111845051Y-103786528D01*
X111878818Y-103758816D01*
X111926864Y-103700273D01*
X111989411Y-103624059D01*
X111989412Y-103624058D01*
X112071590Y-103470312D01*
X112122196Y-103303489D01*
X112135001Y-103173476D01*
X112135001Y-103173466D01*
X112139282Y-103130000D01*
X112135001Y-103086534D01*
X112135001Y-100593466D01*
X112139282Y-100550000D01*
X112135001Y-100506534D01*
X112135001Y-100506524D01*
X112122196Y-100376511D01*
X112071590Y-100209688D01*
X111989412Y-100055942D01*
X111939583Y-99995226D01*
X111906533Y-99954954D01*
X111906531Y-99954952D01*
X111878818Y-99921184D01*
X111845050Y-99893471D01*
X111428017Y-99476439D01*
X111435000Y-99441335D01*
X111435000Y-99158665D01*
X111428017Y-99123561D01*
X111845051Y-98706528D01*
X111878818Y-98678816D01*
X111909588Y-98641324D01*
X111989411Y-98544059D01*
X111989412Y-98544058D01*
X112071590Y-98390312D01*
X112122196Y-98223489D01*
X112135001Y-98093476D01*
X112135001Y-98093466D01*
X112139282Y-98050000D01*
X112135001Y-98006534D01*
X112135001Y-94116577D01*
X115813507Y-90438072D01*
X116800000Y-90438072D01*
X116924482Y-90425812D01*
X117044180Y-90389502D01*
X117154494Y-90330537D01*
X117251185Y-90251185D01*
X117330537Y-90154494D01*
X117389502Y-90044180D01*
X117405117Y-89992702D01*
X122806903Y-89992702D01*
X122878486Y-90236671D01*
X123133996Y-90357571D01*
X123408184Y-90426300D01*
X123690512Y-90440217D01*
X123970130Y-90398787D01*
X124236292Y-90303603D01*
X124361514Y-90236671D01*
X124433097Y-89992702D01*
X123620000Y-89179605D01*
X122806903Y-89992702D01*
X117405117Y-89992702D01*
X117425812Y-89924482D01*
X117438072Y-89800000D01*
X117438072Y-89070512D01*
X122179783Y-89070512D01*
X122221213Y-89350130D01*
X122316397Y-89616292D01*
X122383329Y-89741514D01*
X122627298Y-89813097D01*
X123440395Y-89000000D01*
X123799605Y-89000000D01*
X124612702Y-89813097D01*
X124856671Y-89741514D01*
X124977571Y-89486004D01*
X125046300Y-89211816D01*
X125060217Y-88929488D01*
X125018787Y-88649870D01*
X124923603Y-88383708D01*
X124856671Y-88258486D01*
X124612702Y-88186903D01*
X123799605Y-89000000D01*
X123440395Y-89000000D01*
X122627298Y-88186903D01*
X122383329Y-88258486D01*
X122262429Y-88513996D01*
X122193700Y-88788184D01*
X122179783Y-89070512D01*
X117438072Y-89070512D01*
X117438072Y-88200000D01*
X117425812Y-88075518D01*
X117405118Y-88007298D01*
X122806903Y-88007298D01*
X123620000Y-88820395D01*
X124433097Y-88007298D01*
X124361514Y-87763329D01*
X124106004Y-87642429D01*
X123831816Y-87573700D01*
X123549488Y-87559783D01*
X123269870Y-87601213D01*
X123003708Y-87696397D01*
X122878486Y-87763329D01*
X122806903Y-88007298D01*
X117405118Y-88007298D01*
X117389502Y-87955820D01*
X117330537Y-87845506D01*
X117251185Y-87748815D01*
X117154494Y-87669463D01*
X117044180Y-87610498D01*
X116924482Y-87574188D01*
X116885000Y-87570299D01*
X116885000Y-82514521D01*
X116914759Y-82494637D01*
X117114637Y-82294759D01*
X117271680Y-82059727D01*
X117379853Y-81798574D01*
X117435000Y-81521335D01*
X117435000Y-81238665D01*
X117379853Y-80961426D01*
X117271680Y-80700273D01*
X117127846Y-80485009D01*
X122492154Y-80485009D01*
X122348320Y-80700273D01*
G37*
X122348320Y-80700273D02*
X122240147Y-80961426D01*
X122185000Y-81238665D01*
X122185000Y-81521335D01*
X122240147Y-81798574D01*
X122348320Y-82059727D01*
X122505363Y-82294759D01*
X122705241Y-82494637D01*
X122940273Y-82651680D01*
X123050847Y-82697481D01*
X123079999Y-82733003D01*
X123109003Y-82756806D01*
X132465002Y-92112806D01*
X132465001Y-97965000D01*
X132398061Y-97965000D01*
X132198102Y-98004774D01*
X132009744Y-98082795D01*
X131840226Y-98196063D01*
X131796289Y-98240000D01*
X131467333Y-98240000D01*
X131430000Y-98236323D01*
X131392667Y-98240000D01*
X131281014Y-98250997D01*
X131137753Y-98294454D01*
X131005724Y-98365026D01*
X130889999Y-98459999D01*
X130866201Y-98488997D01*
X124935000Y-104420199D01*
X124935000Y-104248665D01*
X124879853Y-103971426D01*
X124771680Y-103710273D01*
X124614637Y-103475241D01*
X124414759Y-103275363D01*
X124182241Y-103120000D01*
X124414759Y-102964637D01*
X124614637Y-102764759D01*
X124771680Y-102529727D01*
X124879853Y-102268574D01*
X124935000Y-101991335D01*
X124935000Y-101708665D01*
X124879853Y-101431426D01*
X124771680Y-101170273D01*
X124614637Y-100935241D01*
X124414759Y-100735363D01*
X124182241Y-100580000D01*
X124414759Y-100424637D01*
X124614637Y-100224759D01*
X124771680Y-99989727D01*
X124879853Y-99728574D01*
X124935000Y-99451335D01*
X124935000Y-99168665D01*
X124879853Y-98891426D01*
X124771680Y-98630273D01*
X124614637Y-98395241D01*
X124414759Y-98195363D01*
X124182241Y-98040000D01*
X124414759Y-97884637D01*
X124614637Y-97684759D01*
X124771680Y-97449727D01*
X124879853Y-97188574D01*
X124935000Y-96911335D01*
X124935000Y-96628665D01*
X124879853Y-96351426D01*
X124771680Y-96090273D01*
X124614637Y-95855241D01*
X124414759Y-95655363D01*
X124179727Y-95498320D01*
X124169135Y-95493933D01*
X124355131Y-95382385D01*
X124563519Y-95193414D01*
X124731037Y-94967420D01*
X124851246Y-94713087D01*
X124891904Y-94579039D01*
X124769915Y-94357000D01*
X123627000Y-94357000D01*
X123627000Y-94377000D01*
X123373000Y-94377000D01*
X123373000Y-94357000D01*
X122230085Y-94357000D01*
X122108096Y-94579039D01*
X122148754Y-94713087D01*
X122268963Y-94967420D01*
X122436481Y-95193414D01*
X122644869Y-95382385D01*
X122830865Y-95493933D01*
X122820273Y-95498320D01*
X122585241Y-95655363D01*
X122385363Y-95855241D01*
X122228320Y-96090273D01*
X122120147Y-96351426D01*
X122065000Y-96628665D01*
X122065000Y-96911335D01*
X122120147Y-97188574D01*
X122228320Y-97449727D01*
X122385363Y-97684759D01*
X122585241Y-97884637D01*
X122817759Y-98040000D01*
X122585241Y-98195363D01*
X122385363Y-98395241D01*
X122228320Y-98630273D01*
X122120147Y-98891426D01*
X122065000Y-99168665D01*
X122065000Y-99451335D01*
X122120147Y-99728574D01*
X122228320Y-99989727D01*
X122385363Y-100224759D01*
X122585241Y-100424637D01*
X122817759Y-100580000D01*
X122585241Y-100735363D01*
X122385363Y-100935241D01*
X122228320Y-101170273D01*
X122120147Y-101431426D01*
X122065000Y-101708665D01*
X122065000Y-101991335D01*
X122120147Y-102268574D01*
X122228320Y-102529727D01*
X122385363Y-102764759D01*
X122585241Y-102964637D01*
X122817759Y-103120000D01*
X122585241Y-103275363D01*
X122385363Y-103475241D01*
X122228320Y-103710273D01*
X122120147Y-103971426D01*
X122065000Y-104248665D01*
X122065000Y-104531335D01*
X122120147Y-104808574D01*
X122228320Y-105069727D01*
X122385363Y-105304759D01*
X122585241Y-105504637D01*
X122817759Y-105660000D01*
X122585241Y-105815363D01*
X122385363Y-106015241D01*
X122228320Y-106250273D01*
X122120147Y-106511426D01*
X122065000Y-106788665D01*
X122065000Y-107071335D01*
X122120147Y-107348574D01*
X122228320Y-107609727D01*
X122385363Y-107844759D01*
X122583961Y-108043357D01*
X122575518Y-108044188D01*
X122455820Y-108080498D01*
X122345506Y-108139463D01*
X122248815Y-108218815D01*
X122169463Y-108315506D01*
X122110498Y-108425820D01*
X122074188Y-108545518D01*
X122061928Y-108670000D01*
X122061928Y-110270000D01*
X122074188Y-110394482D01*
X122110498Y-110514180D01*
X122169463Y-110624494D01*
X122248815Y-110721185D01*
X122345506Y-110800537D01*
X122455820Y-110859502D01*
X122575518Y-110895812D01*
X122700000Y-110908072D01*
X124300000Y-110908072D01*
X124424482Y-110895812D01*
X124544180Y-110859502D01*
X124654494Y-110800537D01*
X124751185Y-110721185D01*
X124830537Y-110624494D01*
X124889502Y-110514180D01*
X124925812Y-110394482D01*
X124938072Y-110270000D01*
X124938072Y-109106730D01*
X125384802Y-108660000D01*
X132296289Y-108660000D01*
X132340226Y-108703937D01*
X132509744Y-108817205D01*
X132698102Y-108895226D01*
X132898061Y-108935000D01*
X133101939Y-108935000D01*
X133301898Y-108895226D01*
X133490256Y-108817205D01*
X133659774Y-108703937D01*
X133724991Y-108638720D01*
X133724991Y-110884068D01*
X133721314Y-110921400D01*
X133724991Y-110958732D01*
X133724991Y-110958733D01*
X133735988Y-111070386D01*
X133749170Y-111113842D01*
X133779444Y-111213646D01*
X133850016Y-111345676D01*
X133919700Y-111430585D01*
X133944990Y-111461401D01*
X133973988Y-111485199D01*
X138128807Y-115640020D01*
X125409232Y-115640020D01*
X121258214Y-111489003D01*
X121234411Y-111459999D01*
X121118686Y-111365026D01*
X120986657Y-111294454D01*
X120843396Y-111250997D01*
X120731743Y-111240000D01*
X120731732Y-111240000D01*
X120694410Y-111236324D01*
X120657088Y-111240000D01*
X111438072Y-111240000D01*
X111438072Y-111200000D01*
X111425812Y-111075518D01*
X111389502Y-110955820D01*
X111330537Y-110845506D01*
X111251185Y-110748815D01*
X111154494Y-110669463D01*
X111044180Y-110610498D01*
X111007614Y-110599406D01*
X111080000Y-110540000D01*
X111174973Y-110424275D01*
X111217347Y-110345000D01*
X114738797Y-110345000D01*
X114765363Y-110384759D01*
X114965241Y-110584637D01*
X115200273Y-110741680D01*
X115461426Y-110849853D01*
X115738665Y-110905000D01*
X116021335Y-110905000D01*
X116298574Y-110849853D01*
X116559727Y-110741680D01*
X116794759Y-110584637D01*
X116994637Y-110384759D01*
X117151680Y-110149727D01*
X117259853Y-109888574D01*
X117315000Y-109611335D01*
X117315000Y-109328665D01*
X117259853Y-109051426D01*
X117151680Y-108790273D01*
X116994637Y-108555241D01*
X116794759Y-108355363D01*
X116562241Y-108200000D01*
X116794759Y-108044637D01*
X116994637Y-107844759D01*
X117151680Y-107609727D01*
X117259853Y-107348574D01*
X117315000Y-107071335D01*
X117315000Y-106788665D01*
X117259853Y-106511426D01*
X117151680Y-106250273D01*
X116994637Y-106015241D01*
X116794759Y-105815363D01*
X116562241Y-105660000D01*
X116794759Y-105504637D01*
X116994637Y-105304759D01*
X117151680Y-105069727D01*
X117259853Y-104808574D01*
X117315000Y-104531335D01*
X117315000Y-104248665D01*
X117259853Y-103971426D01*
X117151680Y-103710273D01*
X116994637Y-103475241D01*
X116794759Y-103275363D01*
X116562241Y-103120000D01*
X116794759Y-102964637D01*
X116994637Y-102764759D01*
X117151680Y-102529727D01*
X117259853Y-102268574D01*
X117315000Y-101991335D01*
X117315000Y-101708665D01*
X117259853Y-101431426D01*
X117151680Y-101170273D01*
X116994637Y-100935241D01*
X116794759Y-100735363D01*
X116562241Y-100580000D01*
X116794759Y-100424637D01*
X116994637Y-100224759D01*
X117151680Y-99989727D01*
X117259853Y-99728574D01*
X117315000Y-99451335D01*
X117315000Y-99168665D01*
X117259853Y-98891426D01*
X117151680Y-98630273D01*
X116994637Y-98395241D01*
X116794759Y-98195363D01*
X116562241Y-98040000D01*
X116794759Y-97884637D01*
X116994637Y-97684759D01*
X117151680Y-97449727D01*
X117259853Y-97188574D01*
X117315000Y-96911335D01*
X117315000Y-96628665D01*
X117259853Y-96351426D01*
X117151680Y-96090273D01*
X116994637Y-95855241D01*
X116794759Y-95655363D01*
X116562241Y-95500000D01*
X116794759Y-95344637D01*
X116994637Y-95144759D01*
X117151680Y-94909727D01*
X117259853Y-94648574D01*
X117315000Y-94371335D01*
X117315000Y-94088665D01*
X117273685Y-93880961D01*
X122108096Y-93880961D01*
X122230085Y-94103000D01*
X123373000Y-94103000D01*
X123373000Y-92959376D01*
X123627000Y-92959376D01*
X123627000Y-94103000D01*
X124769915Y-94103000D01*
X124891904Y-93880961D01*
X124851246Y-93746913D01*
X124731037Y-93492580D01*
X124563519Y-93266586D01*
X124355131Y-93077615D01*
X124113881Y-92932930D01*
X123849040Y-92838091D01*
X123627000Y-92959376D01*
X123373000Y-92959376D01*
X123150960Y-92838091D01*
X122886119Y-92932930D01*
X122644869Y-93077615D01*
X122436481Y-93266586D01*
X122268963Y-93492580D01*
X122148754Y-93746913D01*
X122108096Y-93880961D01*
X117273685Y-93880961D01*
X117259853Y-93811426D01*
X117151680Y-93550273D01*
X116994637Y-93315241D01*
X116794759Y-93115363D01*
X116559727Y-92958320D01*
X116298574Y-92850147D01*
X116021335Y-92795000D01*
X115738665Y-92795000D01*
X115461426Y-92850147D01*
X115200273Y-92958320D01*
X114965241Y-93115363D01*
X114765363Y-93315241D01*
X114608320Y-93550273D01*
X114500147Y-93811426D01*
X114445000Y-94088665D01*
X114445000Y-94371335D01*
X114500147Y-94648574D01*
X114608320Y-94909727D01*
X114765363Y-95144759D01*
X114965241Y-95344637D01*
X115197759Y-95500000D01*
X114965241Y-95655363D01*
X114765363Y-95855241D01*
X114608320Y-96090273D01*
X114500147Y-96351426D01*
X114445000Y-96628665D01*
X114445000Y-96911335D01*
X114500147Y-97188574D01*
X114608320Y-97449727D01*
X114765363Y-97684759D01*
X114965241Y-97884637D01*
X115197759Y-98040000D01*
X114965241Y-98195363D01*
X114765363Y-98395241D01*
X114608320Y-98630273D01*
X114500147Y-98891426D01*
X114445000Y-99168665D01*
X114445000Y-99451335D01*
X114500147Y-99728574D01*
X114608320Y-99989727D01*
X114765363Y-100224759D01*
X114965241Y-100424637D01*
X115197759Y-100580000D01*
X114965241Y-100735363D01*
X114765363Y-100935241D01*
X114608320Y-101170273D01*
X114500147Y-101431426D01*
X114445000Y-101708665D01*
X114445000Y-101991335D01*
X114500147Y-102268574D01*
X114608320Y-102529727D01*
X114765363Y-102764759D01*
X114965241Y-102964637D01*
X115197759Y-103120000D01*
X114965241Y-103275363D01*
X114765363Y-103475241D01*
X114608320Y-103710273D01*
X114500147Y-103971426D01*
X114445000Y-104248665D01*
X114445000Y-104531335D01*
X114500147Y-104808574D01*
X114608320Y-105069727D01*
X114765363Y-105304759D01*
X114965241Y-105504637D01*
X115197759Y-105660000D01*
X114965241Y-105815363D01*
X114765363Y-106015241D01*
X114608320Y-106250273D01*
X114500147Y-106511426D01*
X114445000Y-106788665D01*
X114445000Y-107071335D01*
X114500147Y-107348574D01*
X114608320Y-107609727D01*
X114765363Y-107844759D01*
X114965241Y-108044637D01*
X115197759Y-108200000D01*
X114965241Y-108355363D01*
X114765363Y-108555241D01*
X114752160Y-108575000D01*
X112058394Y-108575000D01*
X112071590Y-108550312D01*
X112122196Y-108383489D01*
X112135001Y-108253476D01*
X112135001Y-108253466D01*
X112139282Y-108210000D01*
X112135001Y-108166534D01*
X112135001Y-105673466D01*
X112139282Y-105630000D01*
X112135001Y-105586534D01*
X112135001Y-105586524D01*
X112122196Y-105456511D01*
X112071590Y-105289688D01*
X111989412Y-105135942D01*
X111955761Y-105094938D01*
X111906533Y-105034954D01*
X111906531Y-105034952D01*
X111878818Y-105001184D01*
X111845050Y-104973471D01*
X111428017Y-104556439D01*
X111435000Y-104521335D01*
X111435000Y-104238665D01*
X111428017Y-104203561D01*
X111845051Y-103786528D01*
X111878818Y-103758816D01*
X111926864Y-103700273D01*
X111989411Y-103624059D01*
X111989412Y-103624058D01*
X112071590Y-103470312D01*
X112122196Y-103303489D01*
X112135001Y-103173476D01*
X112135001Y-103173466D01*
X112139282Y-103130000D01*
X112135001Y-103086534D01*
X112135001Y-100593466D01*
X112139282Y-100550000D01*
X112135001Y-100506534D01*
X112135001Y-100506524D01*
X112122196Y-100376511D01*
X112071590Y-100209688D01*
X111989412Y-100055942D01*
X111939583Y-99995226D01*
X111906533Y-99954954D01*
X111906531Y-99954952D01*
X111878818Y-99921184D01*
X111845050Y-99893471D01*
X111428017Y-99476439D01*
X111435000Y-99441335D01*
X111435000Y-99158665D01*
X111428017Y-99123561D01*
X111845051Y-98706528D01*
X111878818Y-98678816D01*
X111909588Y-98641324D01*
X111989411Y-98544059D01*
X111989412Y-98544058D01*
X112071590Y-98390312D01*
X112122196Y-98223489D01*
X112135001Y-98093476D01*
X112135001Y-98093466D01*
X112139282Y-98050000D01*
X112135001Y-98006534D01*
X112135001Y-94116577D01*
X115813507Y-90438072D01*
X116800000Y-90438072D01*
X116924482Y-90425812D01*
X117044180Y-90389502D01*
X117154494Y-90330537D01*
X117251185Y-90251185D01*
X117330537Y-90154494D01*
X117389502Y-90044180D01*
X117405117Y-89992702D01*
X122806903Y-89992702D01*
X122878486Y-90236671D01*
X123133996Y-90357571D01*
X123408184Y-90426300D01*
X123690512Y-90440217D01*
X123970130Y-90398787D01*
X124236292Y-90303603D01*
X124361514Y-90236671D01*
X124433097Y-89992702D01*
X123620000Y-89179605D01*
X122806903Y-89992702D01*
X117405117Y-89992702D01*
X117425812Y-89924482D01*
X117438072Y-89800000D01*
X117438072Y-89070512D01*
X122179783Y-89070512D01*
X122221213Y-89350130D01*
X122316397Y-89616292D01*
X122383329Y-89741514D01*
X122627298Y-89813097D01*
X123440395Y-89000000D01*
X123799605Y-89000000D01*
X124612702Y-89813097D01*
X124856671Y-89741514D01*
X124977571Y-89486004D01*
X125046300Y-89211816D01*
X125060217Y-88929488D01*
X125018787Y-88649870D01*
X124923603Y-88383708D01*
X124856671Y-88258486D01*
X124612702Y-88186903D01*
X123799605Y-89000000D01*
X123440395Y-89000000D01*
X122627298Y-88186903D01*
X122383329Y-88258486D01*
X122262429Y-88513996D01*
X122193700Y-88788184D01*
X122179783Y-89070512D01*
X117438072Y-89070512D01*
X117438072Y-88200000D01*
X117425812Y-88075518D01*
X117405118Y-88007298D01*
X122806903Y-88007298D01*
X123620000Y-88820395D01*
X124433097Y-88007298D01*
X124361514Y-87763329D01*
X124106004Y-87642429D01*
X123831816Y-87573700D01*
X123549488Y-87559783D01*
X123269870Y-87601213D01*
X123003708Y-87696397D01*
X122878486Y-87763329D01*
X122806903Y-88007298D01*
X117405118Y-88007298D01*
X117389502Y-87955820D01*
X117330537Y-87845506D01*
X117251185Y-87748815D01*
X117154494Y-87669463D01*
X117044180Y-87610498D01*
X116924482Y-87574188D01*
X116885000Y-87570299D01*
X116885000Y-82514521D01*
X116914759Y-82494637D01*
X117114637Y-82294759D01*
X117271680Y-82059727D01*
X117379853Y-81798574D01*
X117435000Y-81521335D01*
X117435000Y-81238665D01*
X117379853Y-80961426D01*
X117271680Y-80700273D01*
X117127846Y-80485009D01*
X122492154Y-80485009D01*
X122348320Y-80700273D01*
G36*
X108565000Y-104521335D02*
G01*
X108620147Y-104798574D01*
X108728320Y-105059727D01*
X108885363Y-105294759D01*
X109085241Y-105494637D01*
X109317759Y-105650000D01*
X109085241Y-105805363D01*
X108885363Y-106005241D01*
X108728320Y-106240273D01*
X108620147Y-106501426D01*
X108565000Y-106778665D01*
X108565000Y-107061335D01*
X108601312Y-107243887D01*
X108364001Y-107481197D01*
X108334998Y-107505000D01*
X108310378Y-107535000D01*
X108240025Y-107620725D01*
X108205377Y-107685546D01*
X108169453Y-107752755D01*
X108125996Y-107896016D01*
X108114999Y-108007669D01*
X108114999Y-108007679D01*
X108111323Y-108045001D01*
X108114999Y-108082324D01*
X108115000Y-112116737D01*
X106965061Y-110966799D01*
X106965061Y-105949740D01*
X108565000Y-104349801D01*
X108565000Y-104521335D01*
G37*
X108565000Y-104521335D02*
X108620147Y-104798574D01*
X108728320Y-105059727D01*
X108885363Y-105294759D01*
X109085241Y-105494637D01*
X109317759Y-105650000D01*
X109085241Y-105805363D01*
X108885363Y-106005241D01*
X108728320Y-106240273D01*
X108620147Y-106501426D01*
X108565000Y-106778665D01*
X108565000Y-107061335D01*
X108601312Y-107243887D01*
X108364001Y-107481197D01*
X108334998Y-107505000D01*
X108310378Y-107535000D01*
X108240025Y-107620725D01*
X108205377Y-107685546D01*
X108169453Y-107752755D01*
X108125996Y-107896016D01*
X108114999Y-108007669D01*
X108114999Y-108007679D01*
X108111323Y-108045001D01*
X108114999Y-108082324D01*
X108115000Y-112116737D01*
X106965061Y-110966799D01*
X106965061Y-105949740D01*
X108565000Y-104349801D01*
X108565000Y-104521335D01*
G36*
X163371183Y-104378817D02*
G01*
X163404956Y-104406534D01*
X170620693Y-111622272D01*
X170550328Y-111600927D01*
X170438675Y-111589930D01*
X170438664Y-111589930D01*
X170401342Y-111586254D01*
X170364020Y-111589930D01*
X164490815Y-111589930D01*
X164679727Y-111511680D01*
X164914759Y-111354637D01*
X165114637Y-111154759D01*
X165271680Y-110919727D01*
X165379853Y-110658574D01*
X165435000Y-110381335D01*
X165435000Y-110098665D01*
X165379853Y-109821426D01*
X165271680Y-109560273D01*
X165114637Y-109325241D01*
X164914759Y-109125363D01*
X164679727Y-108968320D01*
X164418574Y-108860147D01*
X164141335Y-108805000D01*
X163858665Y-108805000D01*
X163581426Y-108860147D01*
X163345001Y-108958077D01*
X163345001Y-104346914D01*
X163371183Y-104378817D01*
G37*
X163371183Y-104378817D02*
X163404956Y-104406534D01*
X170620693Y-111622272D01*
X170550328Y-111600927D01*
X170438675Y-111589930D01*
X170438664Y-111589930D01*
X170401342Y-111586254D01*
X170364020Y-111589930D01*
X164490815Y-111589930D01*
X164679727Y-111511680D01*
X164914759Y-111354637D01*
X165114637Y-111154759D01*
X165271680Y-110919727D01*
X165379853Y-110658574D01*
X165435000Y-110381335D01*
X165435000Y-110098665D01*
X165379853Y-109821426D01*
X165271680Y-109560273D01*
X165114637Y-109325241D01*
X164914759Y-109125363D01*
X164679727Y-108968320D01*
X164418574Y-108860147D01*
X164141335Y-108805000D01*
X163858665Y-108805000D01*
X163581426Y-108860147D01*
X163345001Y-108958077D01*
X163345001Y-104346914D01*
X163371183Y-104378817D01*
G36*
X158239222Y-96270978D02*
G01*
X155868998Y-98641203D01*
X155840000Y-98665001D01*
X155816202Y-98693999D01*
X155816201Y-98694000D01*
X155745026Y-98780726D01*
X155674454Y-98912756D01*
X155653837Y-98980725D01*
X155635129Y-99042400D01*
X155630998Y-99056017D01*
X155616324Y-99205002D01*
X155620001Y-99242334D01*
X155620000Y-109021957D01*
X155465241Y-109125363D01*
X155265363Y-109325241D01*
X155110000Y-109557759D01*
X154954637Y-109325241D01*
X154754759Y-109125363D01*
X154600000Y-109021957D01*
X154600000Y-99574801D01*
X158016005Y-96158797D01*
X158040835Y-96138420D01*
X158239222Y-96270978D01*
G37*
X158239222Y-96270978D02*
X155868998Y-98641203D01*
X155840000Y-98665001D01*
X155816202Y-98693999D01*
X155816201Y-98694000D01*
X155745026Y-98780726D01*
X155674454Y-98912756D01*
X155653837Y-98980725D01*
X155635129Y-99042400D01*
X155630998Y-99056017D01*
X155616324Y-99205002D01*
X155620001Y-99242334D01*
X155620000Y-109021957D01*
X155465241Y-109125363D01*
X155265363Y-109325241D01*
X155110000Y-109557759D01*
X154954637Y-109325241D01*
X154754759Y-109125363D01*
X154600000Y-109021957D01*
X154600000Y-99574801D01*
X158016005Y-96158797D01*
X158040835Y-96138420D01*
X158239222Y-96270978D01*
G36*
X160545241Y-96114637D02*
G01*
X160780273Y-96271680D01*
X161041426Y-96379853D01*
X161318665Y-96435000D01*
X161601335Y-96435000D01*
X161825002Y-96390509D01*
X161825001Y-108800197D01*
X161783886Y-108841312D01*
X161601335Y-108805000D01*
X161318665Y-108805000D01*
X161041426Y-108860147D01*
X160780273Y-108968320D01*
X160545241Y-109125363D01*
X160345363Y-109325241D01*
X160190000Y-109557759D01*
X160034637Y-109325241D01*
X159834759Y-109125363D01*
X159599727Y-108968320D01*
X159338574Y-108860147D01*
X159061335Y-108805000D01*
X158778665Y-108805000D01*
X158504095Y-108859616D01*
X158598936Y-108764775D01*
X158712204Y-108595257D01*
X158790225Y-108406899D01*
X158829999Y-108206940D01*
X158829999Y-108003062D01*
X158790225Y-107803103D01*
X158712204Y-107614745D01*
X158598936Y-107445227D01*
X158554999Y-107401290D01*
X158554999Y-99719802D01*
X160139802Y-98135000D01*
X160201939Y-98135000D01*
X160401898Y-98095226D01*
X160590256Y-98017205D01*
X160759774Y-97903937D01*
X160903937Y-97759774D01*
X161017205Y-97590256D01*
X161095226Y-97401898D01*
X161135000Y-97201939D01*
X161135000Y-96998061D01*
X161095226Y-96798102D01*
X161017205Y-96609744D01*
X160903937Y-96440226D01*
X160759774Y-96296063D01*
X160590256Y-96182795D01*
X160510178Y-96149626D01*
X160545204Y-96114600D01*
X160545241Y-96114637D01*
G37*
X160545241Y-96114637D02*
X160780273Y-96271680D01*
X161041426Y-96379853D01*
X161318665Y-96435000D01*
X161601335Y-96435000D01*
X161825002Y-96390509D01*
X161825001Y-108800197D01*
X161783886Y-108841312D01*
X161601335Y-108805000D01*
X161318665Y-108805000D01*
X161041426Y-108860147D01*
X160780273Y-108968320D01*
X160545241Y-109125363D01*
X160345363Y-109325241D01*
X160190000Y-109557759D01*
X160034637Y-109325241D01*
X159834759Y-109125363D01*
X159599727Y-108968320D01*
X159338574Y-108860147D01*
X159061335Y-108805000D01*
X158778665Y-108805000D01*
X158504095Y-108859616D01*
X158598936Y-108764775D01*
X158712204Y-108595257D01*
X158790225Y-108406899D01*
X158829999Y-108206940D01*
X158829999Y-108003062D01*
X158790225Y-107803103D01*
X158712204Y-107614745D01*
X158598936Y-107445227D01*
X158554999Y-107401290D01*
X158554999Y-99719802D01*
X160139802Y-98135000D01*
X160201939Y-98135000D01*
X160401898Y-98095226D01*
X160590256Y-98017205D01*
X160759774Y-97903937D01*
X160903937Y-97759774D01*
X161017205Y-97590256D01*
X161095226Y-97401898D01*
X161135000Y-97201939D01*
X161135000Y-96998061D01*
X161095226Y-96798102D01*
X161017205Y-96609744D01*
X160903937Y-96440226D01*
X160759774Y-96296063D01*
X160590256Y-96182795D01*
X160510178Y-96149626D01*
X160545204Y-96114600D01*
X160545241Y-96114637D01*
G36*
X155265363Y-95914759D02*
G01*
X155465241Y-96114637D01*
X155700273Y-96271680D01*
X155737923Y-96287275D01*
X153328998Y-98696201D01*
X153300000Y-98719999D01*
X153276202Y-98748997D01*
X153276201Y-98748998D01*
X153205026Y-98835724D01*
X153134454Y-98967754D01*
X153090998Y-99111015D01*
X153076324Y-99260000D01*
X153080001Y-99297332D01*
X153080000Y-109021957D01*
X152925241Y-109125363D01*
X152925204Y-109125400D01*
X151953795Y-108153991D01*
X151929992Y-108124988D01*
X151814267Y-108030015D01*
X151682238Y-107959443D01*
X151538977Y-107915986D01*
X151427324Y-107904989D01*
X151427313Y-107904989D01*
X151389991Y-107901313D01*
X151352669Y-107904989D01*
X148158471Y-107904989D01*
X148279774Y-107823937D01*
X148423937Y-107679774D01*
X148537205Y-107510256D01*
X148615226Y-107321898D01*
X148655000Y-107121939D01*
X148655000Y-106918061D01*
X148615226Y-106718102D01*
X148537205Y-106529744D01*
X148423937Y-106360226D01*
X148380000Y-106316289D01*
X148380000Y-101534801D01*
X153516114Y-96398688D01*
X153698665Y-96435000D01*
X153981335Y-96435000D01*
X154258574Y-96379853D01*
X154519727Y-96271680D01*
X154754759Y-96114637D01*
X154954637Y-95914759D01*
X155110000Y-95682241D01*
X155265363Y-95914759D01*
G37*
X155265363Y-95914759D02*
X155465241Y-96114637D01*
X155700273Y-96271680D01*
X155737923Y-96287275D01*
X153328998Y-98696201D01*
X153300000Y-98719999D01*
X153276202Y-98748997D01*
X153276201Y-98748998D01*
X153205026Y-98835724D01*
X153134454Y-98967754D01*
X153090998Y-99111015D01*
X153076324Y-99260000D01*
X153080001Y-99297332D01*
X153080000Y-109021957D01*
X152925241Y-109125363D01*
X152925204Y-109125400D01*
X151953795Y-108153991D01*
X151929992Y-108124988D01*
X151814267Y-108030015D01*
X151682238Y-107959443D01*
X151538977Y-107915986D01*
X151427324Y-107904989D01*
X151427313Y-107904989D01*
X151389991Y-107901313D01*
X151352669Y-107904989D01*
X148158471Y-107904989D01*
X148279774Y-107823937D01*
X148423937Y-107679774D01*
X148537205Y-107510256D01*
X148615226Y-107321898D01*
X148655000Y-107121939D01*
X148655000Y-106918061D01*
X148615226Y-106718102D01*
X148537205Y-106529744D01*
X148423937Y-106360226D01*
X148380000Y-106316289D01*
X148380000Y-101534801D01*
X153516114Y-96398688D01*
X153698665Y-96435000D01*
X153981335Y-96435000D01*
X154258574Y-96379853D01*
X154519727Y-96271680D01*
X154754759Y-96114637D01*
X154954637Y-95914759D01*
X155110000Y-95682241D01*
X155265363Y-95914759D01*
G36*
X145340226Y-99803937D02*
G01*
X145388804Y-99836395D01*
X144568998Y-100656201D01*
X144540000Y-100679999D01*
X144516202Y-100708997D01*
X144516201Y-100708998D01*
X144445026Y-100795724D01*
X144374454Y-100927754D01*
X144357704Y-100982975D01*
X144336297Y-101053547D01*
X144330998Y-101071015D01*
X144316324Y-101220000D01*
X144320001Y-101257332D01*
X144320000Y-106276289D01*
X144276063Y-106320226D01*
X144162795Y-106489744D01*
X144084774Y-106678102D01*
X144045000Y-106878061D01*
X144045000Y-107081939D01*
X144084774Y-107281898D01*
X144162795Y-107470256D01*
X144276063Y-107639774D01*
X144420226Y-107783937D01*
X144589744Y-107897205D01*
X144608536Y-107904989D01*
X138479791Y-107904989D01*
X137035000Y-106460199D01*
X137035000Y-106398061D01*
X136995226Y-106198102D01*
X136917205Y-106009744D01*
X136803937Y-105840226D01*
X136659774Y-105696063D01*
X136490256Y-105582795D01*
X136301898Y-105504774D01*
X136101939Y-105465000D01*
X135898061Y-105465000D01*
X135698102Y-105504774D01*
X135694999Y-105506059D01*
X135694999Y-99993941D01*
X135698102Y-99995226D01*
X135898061Y-100035000D01*
X136101939Y-100035000D01*
X136301898Y-99995226D01*
X136490256Y-99917205D01*
X136659774Y-99803937D01*
X136703711Y-99760000D01*
X145296289Y-99760000D01*
X145340226Y-99803937D01*
G37*
X145340226Y-99803937D02*
X145388804Y-99836395D01*
X144568998Y-100656201D01*
X144540000Y-100679999D01*
X144516202Y-100708997D01*
X144516201Y-100708998D01*
X144445026Y-100795724D01*
X144374454Y-100927754D01*
X144357704Y-100982975D01*
X144336297Y-101053547D01*
X144330998Y-101071015D01*
X144316324Y-101220000D01*
X144320001Y-101257332D01*
X144320000Y-106276289D01*
X144276063Y-106320226D01*
X144162795Y-106489744D01*
X144084774Y-106678102D01*
X144045000Y-106878061D01*
X144045000Y-107081939D01*
X144084774Y-107281898D01*
X144162795Y-107470256D01*
X144276063Y-107639774D01*
X144420226Y-107783937D01*
X144589744Y-107897205D01*
X144608536Y-107904989D01*
X138479791Y-107904989D01*
X137035000Y-106460199D01*
X137035000Y-106398061D01*
X136995226Y-106198102D01*
X136917205Y-106009744D01*
X136803937Y-105840226D01*
X136659774Y-105696063D01*
X136490256Y-105582795D01*
X136301898Y-105504774D01*
X136101939Y-105465000D01*
X135898061Y-105465000D01*
X135698102Y-105504774D01*
X135694999Y-105506059D01*
X135694999Y-99993941D01*
X135698102Y-99995226D01*
X135898061Y-100035000D01*
X136101939Y-100035000D01*
X136301898Y-99995226D01*
X136490256Y-99917205D01*
X136659774Y-99803937D01*
X136703711Y-99760000D01*
X145296289Y-99760000D01*
X145340226Y-99803937D01*
G36*
X131840226Y-99803937D02*
G01*
X132009744Y-99917205D01*
X132198102Y-99995226D01*
X132398061Y-100035000D01*
X132463199Y-100035000D01*
X131263997Y-101234204D01*
X131234999Y-101258002D01*
X131211201Y-101287000D01*
X131211200Y-101287001D01*
X131140025Y-101373727D01*
X131069453Y-101505757D01*
X131025997Y-101649018D01*
X131011323Y-101798003D01*
X131015000Y-101835335D01*
X131014999Y-105310678D01*
X131011323Y-105348001D01*
X131014999Y-105385323D01*
X131014999Y-105385333D01*
X131025996Y-105496986D01*
X131066345Y-105630000D01*
X131069453Y-105640247D01*
X131140025Y-105772277D01*
X131175087Y-105815000D01*
X131234998Y-105888002D01*
X131264002Y-105911805D01*
X131967698Y-106615501D01*
X132004774Y-106801898D01*
X132082795Y-106990256D01*
X132182850Y-107140000D01*
X125107322Y-107140000D01*
X125069999Y-107136324D01*
X125032676Y-107140000D01*
X125032667Y-107140000D01*
X124921014Y-107150997D01*
X124919035Y-107151597D01*
X124935000Y-107071335D01*
X124935000Y-106788665D01*
X124898688Y-106606113D01*
X131744802Y-99760000D01*
X131796289Y-99760000D01*
X131840226Y-99803937D01*
G37*
X131840226Y-99803937D02*
X132009744Y-99917205D01*
X132198102Y-99995226D01*
X132398061Y-100035000D01*
X132463199Y-100035000D01*
X131263997Y-101234204D01*
X131234999Y-101258002D01*
X131211201Y-101287000D01*
X131211200Y-101287001D01*
X131140025Y-101373727D01*
X131069453Y-101505757D01*
X131025997Y-101649018D01*
X131011323Y-101798003D01*
X131015000Y-101835335D01*
X131014999Y-105310678D01*
X131011323Y-105348001D01*
X131014999Y-105385323D01*
X131014999Y-105385333D01*
X131025996Y-105496986D01*
X131066345Y-105630000D01*
X131069453Y-105640247D01*
X131140025Y-105772277D01*
X131175087Y-105815000D01*
X131234998Y-105888002D01*
X131264002Y-105911805D01*
X131967698Y-106615501D01*
X132004774Y-106801898D01*
X132082795Y-106990256D01*
X132182850Y-107140000D01*
X125107322Y-107140000D01*
X125069999Y-107136324D01*
X125032676Y-107140000D01*
X125032667Y-107140000D01*
X124921014Y-107150997D01*
X124919035Y-107151597D01*
X124935000Y-107071335D01*
X124935000Y-106788665D01*
X124898688Y-106606113D01*
X131744802Y-99760000D01*
X131796289Y-99760000D01*
X131840226Y-99803937D01*
G36*
X133724990Y-105761279D02*
G01*
X133659774Y-105696063D01*
X133490256Y-105582795D01*
X133301898Y-105504774D01*
X133101939Y-105465000D01*
X132966800Y-105465000D01*
X132534999Y-105033200D01*
X132534999Y-102112804D01*
X133724989Y-100922816D01*
X133724990Y-105761279D01*
G37*
X133724990Y-105761279D02*
X133659774Y-105696063D01*
X133490256Y-105582795D01*
X133301898Y-105504774D01*
X133101939Y-105465000D01*
X132966800Y-105465000D01*
X132534999Y-105033200D01*
X132534999Y-102112804D01*
X133724989Y-100922816D01*
X133724990Y-105761279D01*
G36*
X102507000Y-104253000D02*
G01*
X102527000Y-104253000D01*
X102527000Y-104507000D01*
X102507000Y-104507000D01*
X102507000Y-104527000D01*
X102253000Y-104527000D01*
X102253000Y-104507000D01*
X102233000Y-104507000D01*
X102233000Y-104253000D01*
X102253000Y-104253000D01*
X102253000Y-104233000D01*
X102507000Y-104233000D01*
X102507000Y-104253000D01*
G37*
X102507000Y-104253000D02*
X102527000Y-104253000D01*
X102527000Y-104507000D01*
X102507000Y-104507000D01*
X102507000Y-104527000D01*
X102253000Y-104527000D01*
X102253000Y-104507000D01*
X102233000Y-104507000D01*
X102233000Y-104253000D01*
X102253000Y-104253000D01*
X102253000Y-104233000D01*
X102507000Y-104233000D01*
X102507000Y-104253000D01*
G36*
X108565000Y-99441335D02*
G01*
X108620147Y-99718574D01*
X108728320Y-99979727D01*
X108885363Y-100214759D01*
X109085241Y-100414637D01*
X109317759Y-100570000D01*
X109085241Y-100725363D01*
X108885363Y-100925241D01*
X108728320Y-101160273D01*
X108620147Y-101421426D01*
X108565000Y-101698665D01*
X108565000Y-101981335D01*
X108601312Y-102163886D01*
X106515051Y-104250148D01*
X106515051Y-101319750D01*
X108565000Y-99269802D01*
X108565000Y-99441335D01*
G37*
X108565000Y-99441335D02*
X108620147Y-99718574D01*
X108728320Y-99979727D01*
X108885363Y-100214759D01*
X109085241Y-100414637D01*
X109317759Y-100570000D01*
X109085241Y-100725363D01*
X108885363Y-100925241D01*
X108728320Y-101160273D01*
X108620147Y-101421426D01*
X108565000Y-101698665D01*
X108565000Y-101981335D01*
X108601312Y-102163886D01*
X106515051Y-104250148D01*
X106515051Y-101319750D01*
X108565000Y-99269802D01*
X108565000Y-99441335D01*
G36*
X108730085Y-94093000D02*
G01*
X109873000Y-94093000D01*
X109873000Y-94073000D01*
X110127000Y-94073000D01*
X110127000Y-94093000D01*
X110147000Y-94093000D01*
X110147000Y-94347000D01*
X110127000Y-94347000D01*
X110127000Y-94367000D01*
X109873000Y-94367000D01*
X109873000Y-94347000D01*
X108730085Y-94347000D01*
X108608096Y-94569039D01*
X108648754Y-94703087D01*
X108768963Y-94957420D01*
X108936481Y-95183414D01*
X109144869Y-95372385D01*
X109330865Y-95483933D01*
X109320273Y-95488320D01*
X109085241Y-95645363D01*
X108885363Y-95845241D01*
X108728320Y-96080273D01*
X108620147Y-96341426D01*
X108565000Y-96618665D01*
X108565000Y-96901335D01*
X108601312Y-97083885D01*
X106065041Y-99620158D01*
X106065041Y-96689760D01*
X108705872Y-94048929D01*
X108730085Y-94093000D01*
G37*
X108730085Y-94093000D02*
X109873000Y-94093000D01*
X109873000Y-94073000D01*
X110127000Y-94073000D01*
X110127000Y-94093000D01*
X110147000Y-94093000D01*
X110147000Y-94347000D01*
X110127000Y-94347000D01*
X110127000Y-94367000D01*
X109873000Y-94367000D01*
X109873000Y-94347000D01*
X108730085Y-94347000D01*
X108608096Y-94569039D01*
X108648754Y-94703087D01*
X108768963Y-94957420D01*
X108936481Y-95183414D01*
X109144869Y-95372385D01*
X109330865Y-95483933D01*
X109320273Y-95488320D01*
X109085241Y-95645363D01*
X108885363Y-95845241D01*
X108728320Y-96080273D01*
X108620147Y-96341426D01*
X108565000Y-96618665D01*
X108565000Y-96901335D01*
X108601312Y-97083885D01*
X106065041Y-99620158D01*
X106065041Y-96689760D01*
X108705872Y-94048929D01*
X108730085Y-94093000D01*
G36*
X147645363Y-95914759D02*
G01*
X147845241Y-96114637D01*
X148080273Y-96271680D01*
X148341426Y-96379853D01*
X148618665Y-96435000D01*
X148790198Y-96435000D01*
X146836395Y-98388803D01*
X146803937Y-98340226D01*
X146659774Y-98196063D01*
X146490256Y-98082795D01*
X146301898Y-98004774D01*
X146101939Y-97965000D01*
X145898061Y-97965000D01*
X145698102Y-98004774D01*
X145509744Y-98082795D01*
X145340226Y-98196063D01*
X145296289Y-98240000D01*
X136703711Y-98240000D01*
X136659774Y-98196063D01*
X136551251Y-98123550D01*
X138276114Y-96398688D01*
X138458665Y-96435000D01*
X138741335Y-96435000D01*
X139018574Y-96379853D01*
X139279727Y-96271680D01*
X139514759Y-96114637D01*
X139714637Y-95914759D01*
X139870000Y-95682241D01*
X140025363Y-95914759D01*
X140225241Y-96114637D01*
X140460273Y-96271680D01*
X140721426Y-96379853D01*
X140998665Y-96435000D01*
X141281335Y-96435000D01*
X141558574Y-96379853D01*
X141819727Y-96271680D01*
X142054759Y-96114637D01*
X142254637Y-95914759D01*
X142410000Y-95682241D01*
X142565363Y-95914759D01*
X142765241Y-96114637D01*
X143000273Y-96271680D01*
X143261426Y-96379853D01*
X143538665Y-96435000D01*
X143821335Y-96435000D01*
X144098574Y-96379853D01*
X144359727Y-96271680D01*
X144594759Y-96114637D01*
X144794637Y-95914759D01*
X144950000Y-95682241D01*
X145105363Y-95914759D01*
X145305241Y-96114637D01*
X145540273Y-96271680D01*
X145801426Y-96379853D01*
X146078665Y-96435000D01*
X146361335Y-96435000D01*
X146638574Y-96379853D01*
X146899727Y-96271680D01*
X147134759Y-96114637D01*
X147334637Y-95914759D01*
X147490000Y-95682241D01*
X147645363Y-95914759D01*
G37*
X147645363Y-95914759D02*
X147845241Y-96114637D01*
X148080273Y-96271680D01*
X148341426Y-96379853D01*
X148618665Y-96435000D01*
X148790198Y-96435000D01*
X146836395Y-98388803D01*
X146803937Y-98340226D01*
X146659774Y-98196063D01*
X146490256Y-98082795D01*
X146301898Y-98004774D01*
X146101939Y-97965000D01*
X145898061Y-97965000D01*
X145698102Y-98004774D01*
X145509744Y-98082795D01*
X145340226Y-98196063D01*
X145296289Y-98240000D01*
X136703711Y-98240000D01*
X136659774Y-98196063D01*
X136551251Y-98123550D01*
X138276114Y-96398688D01*
X138458665Y-96435000D01*
X138741335Y-96435000D01*
X139018574Y-96379853D01*
X139279727Y-96271680D01*
X139514759Y-96114637D01*
X139714637Y-95914759D01*
X139870000Y-95682241D01*
X140025363Y-95914759D01*
X140225241Y-96114637D01*
X140460273Y-96271680D01*
X140721426Y-96379853D01*
X140998665Y-96435000D01*
X141281335Y-96435000D01*
X141558574Y-96379853D01*
X141819727Y-96271680D01*
X142054759Y-96114637D01*
X142254637Y-95914759D01*
X142410000Y-95682241D01*
X142565363Y-95914759D01*
X142765241Y-96114637D01*
X143000273Y-96271680D01*
X143261426Y-96379853D01*
X143538665Y-96435000D01*
X143821335Y-96435000D01*
X144098574Y-96379853D01*
X144359727Y-96271680D01*
X144594759Y-96114637D01*
X144794637Y-95914759D01*
X144950000Y-95682241D01*
X145105363Y-95914759D01*
X145305241Y-96114637D01*
X145540273Y-96271680D01*
X145801426Y-96379853D01*
X146078665Y-96435000D01*
X146361335Y-96435000D01*
X146638574Y-96379853D01*
X146899727Y-96271680D01*
X147134759Y-96114637D01*
X147334637Y-95914759D01*
X147490000Y-95682241D01*
X147645363Y-95914759D01*
G36*
X133589991Y-88237795D02*
G01*
X133589990Y-90684079D01*
X133586314Y-90721402D01*
X133589990Y-90758724D01*
X133589990Y-90758734D01*
X133600987Y-90870387D01*
X133640387Y-91000273D01*
X133644444Y-91013648D01*
X133715016Y-91145678D01*
X133734957Y-91169976D01*
X133809989Y-91261403D01*
X133838993Y-91285206D01*
X136249521Y-93695736D01*
X136187000Y-93730085D01*
X136187000Y-94873000D01*
X136207000Y-94873000D01*
X136207000Y-95127000D01*
X136187000Y-95127000D01*
X136187000Y-95147000D01*
X135933000Y-95147000D01*
X135933000Y-95127000D01*
X134789376Y-95127000D01*
X134668091Y-95349040D01*
X134762930Y-95613881D01*
X134907615Y-95855131D01*
X135096586Y-96063519D01*
X135322580Y-96231037D01*
X135550178Y-96338610D01*
X133985001Y-97903788D01*
X133985001Y-94650960D01*
X134668091Y-94650960D01*
X134789376Y-94873000D01*
X135933000Y-94873000D01*
X135933000Y-93730085D01*
X135710961Y-93608096D01*
X135576913Y-93648754D01*
X135322580Y-93768963D01*
X135096586Y-93936481D01*
X134907615Y-94144869D01*
X134762930Y-94386119D01*
X134668091Y-94650960D01*
X133985001Y-94650960D01*
X133985001Y-91835328D01*
X133988677Y-91798003D01*
X133985001Y-91760678D01*
X133985001Y-91760670D01*
X133974004Y-91649017D01*
X133930547Y-91505756D01*
X133859975Y-91373727D01*
X133765002Y-91258002D01*
X133736004Y-91234204D01*
X124759439Y-82257640D01*
X124891680Y-82059727D01*
X124999853Y-81798574D01*
X125055000Y-81521335D01*
X125055000Y-81238665D01*
X124999853Y-80961426D01*
X124891680Y-80700273D01*
X124747846Y-80485009D01*
X125837206Y-80485009D01*
X133589991Y-88237795D01*
G37*
X133589991Y-88237795D02*
X133589990Y-90684079D01*
X133586314Y-90721402D01*
X133589990Y-90758724D01*
X133589990Y-90758734D01*
X133600987Y-90870387D01*
X133640387Y-91000273D01*
X133644444Y-91013648D01*
X133715016Y-91145678D01*
X133734957Y-91169976D01*
X133809989Y-91261403D01*
X133838993Y-91285206D01*
X136249521Y-93695736D01*
X136187000Y-93730085D01*
X136187000Y-94873000D01*
X136207000Y-94873000D01*
X136207000Y-95127000D01*
X136187000Y-95127000D01*
X136187000Y-95147000D01*
X135933000Y-95147000D01*
X135933000Y-95127000D01*
X134789376Y-95127000D01*
X134668091Y-95349040D01*
X134762930Y-95613881D01*
X134907615Y-95855131D01*
X135096586Y-96063519D01*
X135322580Y-96231037D01*
X135550178Y-96338610D01*
X133985001Y-97903788D01*
X133985001Y-94650960D01*
X134668091Y-94650960D01*
X134789376Y-94873000D01*
X135933000Y-94873000D01*
X135933000Y-93730085D01*
X135710961Y-93608096D01*
X135576913Y-93648754D01*
X135322580Y-93768963D01*
X135096586Y-93936481D01*
X134907615Y-94144869D01*
X134762930Y-94386119D01*
X134668091Y-94650960D01*
X133985001Y-94650960D01*
X133985001Y-91835328D01*
X133988677Y-91798003D01*
X133985001Y-91760678D01*
X133985001Y-91760670D01*
X133974004Y-91649017D01*
X133930547Y-91505756D01*
X133859975Y-91373727D01*
X133765002Y-91258002D01*
X133736004Y-91234204D01*
X124759439Y-82257640D01*
X124891680Y-82059727D01*
X124999853Y-81798574D01*
X125055000Y-81521335D01*
X125055000Y-81238665D01*
X124999853Y-80961426D01*
X124891680Y-80700273D01*
X124747846Y-80485009D01*
X125837206Y-80485009D01*
X133589991Y-88237795D01*
G36*
X104095032Y-94469835D02*
G01*
X104095032Y-97400230D01*
X103778688Y-97083886D01*
X103815000Y-96901335D01*
X103815000Y-96618665D01*
X103759853Y-96341426D01*
X103651680Y-96080273D01*
X103494637Y-95845241D01*
X103294759Y-95645363D01*
X103059727Y-95488320D01*
X103049135Y-95483933D01*
X103235131Y-95372385D01*
X103443519Y-95183414D01*
X103611037Y-94957420D01*
X103731246Y-94703087D01*
X103771904Y-94569039D01*
X103649915Y-94347000D01*
X102507000Y-94347000D01*
X102507000Y-94367000D01*
X102253000Y-94367000D01*
X102253000Y-94347000D01*
X102233000Y-94347000D01*
X102233000Y-94093000D01*
X102253000Y-94093000D01*
X102253000Y-94073000D01*
X102507000Y-94073000D01*
X102507000Y-94093000D01*
X103649915Y-94093000D01*
X103674127Y-94048930D01*
X104095032Y-94469835D01*
G37*
X104095032Y-94469835D02*
X104095032Y-97400230D01*
X103778688Y-97083886D01*
X103815000Y-96901335D01*
X103815000Y-96618665D01*
X103759853Y-96341426D01*
X103651680Y-96080273D01*
X103494637Y-95845241D01*
X103294759Y-95645363D01*
X103059727Y-95488320D01*
X103049135Y-95483933D01*
X103235131Y-95372385D01*
X103443519Y-95183414D01*
X103611037Y-94957420D01*
X103731246Y-94703087D01*
X103771904Y-94569039D01*
X103649915Y-94347000D01*
X102507000Y-94347000D01*
X102507000Y-94367000D01*
X102253000Y-94367000D01*
X102253000Y-94347000D01*
X102233000Y-94347000D01*
X102233000Y-94093000D01*
X102253000Y-94093000D01*
X102253000Y-94073000D01*
X102507000Y-94073000D01*
X102507000Y-94093000D01*
X103649915Y-94093000D01*
X103674127Y-94048930D01*
X104095032Y-94469835D01*
G36*
X114728320Y-80700273D02*
G01*
X114620147Y-80961426D01*
X114565000Y-81238665D01*
X114565000Y-81521335D01*
X114620147Y-81798574D01*
X114728320Y-82059727D01*
X114885363Y-82294759D01*
X115085241Y-82494637D01*
X115115001Y-82514522D01*
X115115000Y-87570299D01*
X115075518Y-87574188D01*
X114955820Y-87610498D01*
X114845506Y-87669463D01*
X114748815Y-87748815D01*
X114669463Y-87845506D01*
X114610498Y-87955820D01*
X114574188Y-88075518D01*
X114561928Y-88200000D01*
X114561928Y-89186493D01*
X110746160Y-93002262D01*
X110669135Y-92956067D01*
X110679727Y-92951680D01*
X110914759Y-92794637D01*
X111114637Y-92594759D01*
X111271680Y-92359727D01*
X111379853Y-92098574D01*
X111435000Y-91821335D01*
X111435000Y-91538665D01*
X111379853Y-91261426D01*
X111271680Y-91000273D01*
X111114637Y-90765241D01*
X110914759Y-90565363D01*
X110679727Y-90408320D01*
X110669135Y-90403933D01*
X110855131Y-90292385D01*
X111063519Y-90103414D01*
X111231037Y-89877420D01*
X111351246Y-89623087D01*
X111391904Y-89489039D01*
X111269915Y-89267000D01*
X110127000Y-89267000D01*
X110127000Y-89287000D01*
X109873000Y-89287000D01*
X109873000Y-89267000D01*
X108730085Y-89267000D01*
X108608096Y-89489039D01*
X108648754Y-89623087D01*
X108768963Y-89877420D01*
X108936481Y-90103414D01*
X109144869Y-90292385D01*
X109330865Y-90403933D01*
X109320273Y-90408320D01*
X109085241Y-90565363D01*
X108885363Y-90765241D01*
X108728320Y-91000273D01*
X108620147Y-91261426D01*
X108565000Y-91538665D01*
X108565000Y-91821335D01*
X108601312Y-92003886D01*
X105615031Y-94990168D01*
X105615031Y-94192353D01*
X105618707Y-94155030D01*
X105615031Y-94117707D01*
X105615031Y-94117698D01*
X105604034Y-94006045D01*
X105560577Y-93862784D01*
X105490005Y-93730755D01*
X105448808Y-93680556D01*
X105418830Y-93644027D01*
X105418826Y-93644023D01*
X105395032Y-93615030D01*
X105366039Y-93591236D01*
X103778688Y-92003886D01*
X103815000Y-91821335D01*
X103815000Y-91538665D01*
X103759853Y-91261426D01*
X103651680Y-91000273D01*
X103494637Y-90765241D01*
X103294759Y-90565363D01*
X103059727Y-90408320D01*
X103049135Y-90403933D01*
X103235131Y-90292385D01*
X103443519Y-90103414D01*
X103611037Y-89877420D01*
X103731246Y-89623087D01*
X103771904Y-89489039D01*
X103649915Y-89267000D01*
X102507000Y-89267000D01*
X102507000Y-89287000D01*
X102253000Y-89287000D01*
X102253000Y-89267000D01*
X102233000Y-89267000D01*
X102233000Y-89013000D01*
X102253000Y-89013000D01*
X102253000Y-88993000D01*
X102507000Y-88993000D01*
X102507000Y-89013000D01*
X103649915Y-89013000D01*
X103771904Y-88790961D01*
X108608096Y-88790961D01*
X108730085Y-89013000D01*
X109873000Y-89013000D01*
X109873000Y-87869376D01*
X110127000Y-87869376D01*
X110127000Y-89013000D01*
X111269915Y-89013000D01*
X111391904Y-88790961D01*
X111351246Y-88656913D01*
X111231037Y-88402580D01*
X111063519Y-88176586D01*
X110855131Y-87987615D01*
X110613881Y-87842930D01*
X110349040Y-87748091D01*
X110127000Y-87869376D01*
X109873000Y-87869376D01*
X109650960Y-87748091D01*
X109386119Y-87842930D01*
X109144869Y-87987615D01*
X108936481Y-88176586D01*
X108768963Y-88402580D01*
X108648754Y-88656913D01*
X108608096Y-88790961D01*
X103771904Y-88790961D01*
X103731246Y-88656913D01*
X103611037Y-88402580D01*
X103443519Y-88176586D01*
X103235131Y-87987615D01*
X103052008Y-87877791D01*
X110444791Y-80485009D01*
X114872154Y-80485009D01*
X114728320Y-80700273D01*
G37*
X114728320Y-80700273D02*
X114620147Y-80961426D01*
X114565000Y-81238665D01*
X114565000Y-81521335D01*
X114620147Y-81798574D01*
X114728320Y-82059727D01*
X114885363Y-82294759D01*
X115085241Y-82494637D01*
X115115001Y-82514522D01*
X115115000Y-87570299D01*
X115075518Y-87574188D01*
X114955820Y-87610498D01*
X114845506Y-87669463D01*
X114748815Y-87748815D01*
X114669463Y-87845506D01*
X114610498Y-87955820D01*
X114574188Y-88075518D01*
X114561928Y-88200000D01*
X114561928Y-89186493D01*
X110746160Y-93002262D01*
X110669135Y-92956067D01*
X110679727Y-92951680D01*
X110914759Y-92794637D01*
X111114637Y-92594759D01*
X111271680Y-92359727D01*
X111379853Y-92098574D01*
X111435000Y-91821335D01*
X111435000Y-91538665D01*
X111379853Y-91261426D01*
X111271680Y-91000273D01*
X111114637Y-90765241D01*
X110914759Y-90565363D01*
X110679727Y-90408320D01*
X110669135Y-90403933D01*
X110855131Y-90292385D01*
X111063519Y-90103414D01*
X111231037Y-89877420D01*
X111351246Y-89623087D01*
X111391904Y-89489039D01*
X111269915Y-89267000D01*
X110127000Y-89267000D01*
X110127000Y-89287000D01*
X109873000Y-89287000D01*
X109873000Y-89267000D01*
X108730085Y-89267000D01*
X108608096Y-89489039D01*
X108648754Y-89623087D01*
X108768963Y-89877420D01*
X108936481Y-90103414D01*
X109144869Y-90292385D01*
X109330865Y-90403933D01*
X109320273Y-90408320D01*
X109085241Y-90565363D01*
X108885363Y-90765241D01*
X108728320Y-91000273D01*
X108620147Y-91261426D01*
X108565000Y-91538665D01*
X108565000Y-91821335D01*
X108601312Y-92003886D01*
X105615031Y-94990168D01*
X105615031Y-94192353D01*
X105618707Y-94155030D01*
X105615031Y-94117707D01*
X105615031Y-94117698D01*
X105604034Y-94006045D01*
X105560577Y-93862784D01*
X105490005Y-93730755D01*
X105448808Y-93680556D01*
X105418830Y-93644027D01*
X105418826Y-93644023D01*
X105395032Y-93615030D01*
X105366039Y-93591236D01*
X103778688Y-92003886D01*
X103815000Y-91821335D01*
X103815000Y-91538665D01*
X103759853Y-91261426D01*
X103651680Y-91000273D01*
X103494637Y-90765241D01*
X103294759Y-90565363D01*
X103059727Y-90408320D01*
X103049135Y-90403933D01*
X103235131Y-90292385D01*
X103443519Y-90103414D01*
X103611037Y-89877420D01*
X103731246Y-89623087D01*
X103771904Y-89489039D01*
X103649915Y-89267000D01*
X102507000Y-89267000D01*
X102507000Y-89287000D01*
X102253000Y-89287000D01*
X102253000Y-89267000D01*
X102233000Y-89267000D01*
X102233000Y-89013000D01*
X102253000Y-89013000D01*
X102253000Y-88993000D01*
X102507000Y-88993000D01*
X102507000Y-89013000D01*
X103649915Y-89013000D01*
X103771904Y-88790961D01*
X108608096Y-88790961D01*
X108730085Y-89013000D01*
X109873000Y-89013000D01*
X109873000Y-87869376D01*
X110127000Y-87869376D01*
X110127000Y-89013000D01*
X111269915Y-89013000D01*
X111391904Y-88790961D01*
X111351246Y-88656913D01*
X111231037Y-88402580D01*
X111063519Y-88176586D01*
X110855131Y-87987615D01*
X110613881Y-87842930D01*
X110349040Y-87748091D01*
X110127000Y-87869376D01*
X109873000Y-87869376D01*
X109650960Y-87748091D01*
X109386119Y-87842930D01*
X109144869Y-87987615D01*
X108936481Y-88176586D01*
X108768963Y-88402580D01*
X108648754Y-88656913D01*
X108608096Y-88790961D01*
X103771904Y-88790961D01*
X103731246Y-88656913D01*
X103611037Y-88402580D01*
X103443519Y-88176586D01*
X103235131Y-87987615D01*
X103052008Y-87877791D01*
X110444791Y-80485009D01*
X114872154Y-80485009D01*
X114728320Y-80700273D01*
G36*
X109454091Y-78693551D02*
G01*
X109403588Y-78734998D01*
X109379790Y-78763996D01*
X100293986Y-87849801D01*
X100264988Y-87873599D01*
X100241190Y-87902597D01*
X100170015Y-87989323D01*
X100127000Y-88069798D01*
X100127000Y-78660000D01*
X109494973Y-78660000D01*
X109454091Y-78693551D01*
G37*
X109454091Y-78693551D02*
X109403588Y-78734998D01*
X109379790Y-78763996D01*
X100293986Y-87849801D01*
X100264988Y-87873599D01*
X100241190Y-87902597D01*
X100170015Y-87989323D01*
X100127000Y-88069798D01*
X100127000Y-78660000D01*
X109494973Y-78660000D01*
X109454091Y-78693551D01*
G36*
X137657382Y-78770503D02*
G01*
X137577625Y-78919717D01*
X137528512Y-79081623D01*
X137511928Y-79250000D01*
X137511928Y-79750000D01*
X137528512Y-79918377D01*
X137577625Y-80080283D01*
X137657382Y-80229497D01*
X137764716Y-80360284D01*
X137840000Y-80422068D01*
X137840001Y-80755274D01*
X137675241Y-80865363D01*
X137475363Y-81065241D01*
X137320000Y-81297759D01*
X137164637Y-81065241D01*
X136964759Y-80865363D01*
X136729727Y-80708320D01*
X136468574Y-80600147D01*
X136191335Y-80545000D01*
X135908665Y-80545000D01*
X135631426Y-80600147D01*
X135370273Y-80708320D01*
X135135241Y-80865363D01*
X134935363Y-81065241D01*
X134778320Y-81300273D01*
X134670147Y-81561426D01*
X134615000Y-81838665D01*
X134615000Y-82121335D01*
X134650281Y-82298703D01*
X134413072Y-82061494D01*
X134413072Y-81975000D01*
X134396488Y-81806623D01*
X134347375Y-81644717D01*
X134269300Y-81498649D01*
X134305537Y-81454494D01*
X134364502Y-81344180D01*
X134400812Y-81224482D01*
X134413072Y-81100000D01*
X134410000Y-80935750D01*
X134251250Y-80777000D01*
X133427000Y-80777000D01*
X133427000Y-80797000D01*
X133173000Y-80797000D01*
X133173000Y-80777000D01*
X132348750Y-80777000D01*
X132190000Y-80935750D01*
X132186928Y-81100000D01*
X132199188Y-81224482D01*
X132235498Y-81344180D01*
X132294463Y-81454494D01*
X132330700Y-81498649D01*
X132252625Y-81644717D01*
X132203512Y-81806623D01*
X132186928Y-81975000D01*
X132186928Y-82425000D01*
X132199397Y-82551593D01*
X129847804Y-80200000D01*
X132186928Y-80200000D01*
X132190000Y-80364250D01*
X132348750Y-80523000D01*
X133173000Y-80523000D01*
X133173000Y-79723750D01*
X133427000Y-79723750D01*
X133427000Y-80523000D01*
X134251250Y-80523000D01*
X134410000Y-80364250D01*
X134413072Y-80200000D01*
X134400812Y-80075518D01*
X134364502Y-79955820D01*
X134305537Y-79845506D01*
X134226185Y-79748815D01*
X134129494Y-79669463D01*
X134019180Y-79610498D01*
X133899482Y-79574188D01*
X133775000Y-79561928D01*
X133585750Y-79565000D01*
X133427000Y-79723750D01*
X133173000Y-79723750D01*
X133014250Y-79565000D01*
X132825000Y-79561928D01*
X132700518Y-79574188D01*
X132580820Y-79610498D01*
X132470506Y-79669463D01*
X132373815Y-79748815D01*
X132294463Y-79845506D01*
X132235498Y-79955820D01*
X132199188Y-80075518D01*
X132186928Y-80200000D01*
X129847804Y-80200000D01*
X128411805Y-78764002D01*
X128388002Y-78734998D01*
X128296617Y-78660000D01*
X137748069Y-78660000D01*
X137657382Y-78770503D01*
G37*
X137657382Y-78770503D02*
X137577625Y-78919717D01*
X137528512Y-79081623D01*
X137511928Y-79250000D01*
X137511928Y-79750000D01*
X137528512Y-79918377D01*
X137577625Y-80080283D01*
X137657382Y-80229497D01*
X137764716Y-80360284D01*
X137840000Y-80422068D01*
X137840001Y-80755274D01*
X137675241Y-80865363D01*
X137475363Y-81065241D01*
X137320000Y-81297759D01*
X137164637Y-81065241D01*
X136964759Y-80865363D01*
X136729727Y-80708320D01*
X136468574Y-80600147D01*
X136191335Y-80545000D01*
X135908665Y-80545000D01*
X135631426Y-80600147D01*
X135370273Y-80708320D01*
X135135241Y-80865363D01*
X134935363Y-81065241D01*
X134778320Y-81300273D01*
X134670147Y-81561426D01*
X134615000Y-81838665D01*
X134615000Y-82121335D01*
X134650281Y-82298703D01*
X134413072Y-82061494D01*
X134413072Y-81975000D01*
X134396488Y-81806623D01*
X134347375Y-81644717D01*
X134269300Y-81498649D01*
X134305537Y-81454494D01*
X134364502Y-81344180D01*
X134400812Y-81224482D01*
X134413072Y-81100000D01*
X134410000Y-80935750D01*
X134251250Y-80777000D01*
X133427000Y-80777000D01*
X133427000Y-80797000D01*
X133173000Y-80797000D01*
X133173000Y-80777000D01*
X132348750Y-80777000D01*
X132190000Y-80935750D01*
X132186928Y-81100000D01*
X132199188Y-81224482D01*
X132235498Y-81344180D01*
X132294463Y-81454494D01*
X132330700Y-81498649D01*
X132252625Y-81644717D01*
X132203512Y-81806623D01*
X132186928Y-81975000D01*
X132186928Y-82425000D01*
X132199397Y-82551593D01*
X129847804Y-80200000D01*
X132186928Y-80200000D01*
X132190000Y-80364250D01*
X132348750Y-80523000D01*
X133173000Y-80523000D01*
X133173000Y-79723750D01*
X133427000Y-79723750D01*
X133427000Y-80523000D01*
X134251250Y-80523000D01*
X134410000Y-80364250D01*
X134413072Y-80200000D01*
X134400812Y-80075518D01*
X134364502Y-79955820D01*
X134305537Y-79845506D01*
X134226185Y-79748815D01*
X134129494Y-79669463D01*
X134019180Y-79610498D01*
X133899482Y-79574188D01*
X133775000Y-79561928D01*
X133585750Y-79565000D01*
X133427000Y-79723750D01*
X133173000Y-79723750D01*
X133014250Y-79565000D01*
X132825000Y-79561928D01*
X132700518Y-79574188D01*
X132580820Y-79610498D01*
X132470506Y-79669463D01*
X132373815Y-79748815D01*
X132294463Y-79845506D01*
X132235498Y-79955820D01*
X132199188Y-80075518D01*
X132186928Y-80200000D01*
X129847804Y-80200000D01*
X128411805Y-78764002D01*
X128388002Y-78734998D01*
X128296617Y-78660000D01*
X137748069Y-78660000D01*
X137657382Y-78770503D01*
G36*
X151623887Y-80601312D02*
G01*
X151441335Y-80565000D01*
X151158665Y-80565000D01*
X150881426Y-80620147D01*
X150620273Y-80728320D01*
X150385241Y-80885363D01*
X150185363Y-81085241D01*
X150081957Y-81240000D01*
X149978043Y-81240000D01*
X149874637Y-81085241D01*
X149674759Y-80885363D01*
X149439727Y-80728320D01*
X149178574Y-80620147D01*
X148901335Y-80565000D01*
X148618665Y-80565000D01*
X148341426Y-80620147D01*
X148080273Y-80728320D01*
X147845241Y-80885363D01*
X147645363Y-81085241D01*
X147488320Y-81320273D01*
X147380147Y-81581426D01*
X147325000Y-81858665D01*
X147325000Y-82141335D01*
X147369491Y-82365001D01*
X145056531Y-82365001D01*
X145105000Y-82121335D01*
X145105000Y-81838665D01*
X145049853Y-81561426D01*
X144941680Y-81300273D01*
X144784637Y-81065241D01*
X144584759Y-80865363D01*
X144349727Y-80708320D01*
X144088574Y-80600147D01*
X143811335Y-80545000D01*
X143528665Y-80545000D01*
X143251426Y-80600147D01*
X142990273Y-80708320D01*
X142755241Y-80865363D01*
X142555363Y-81065241D01*
X142398320Y-81300273D01*
X142393933Y-81310865D01*
X142282385Y-81124869D01*
X142093414Y-80916481D01*
X141867420Y-80748963D01*
X141613087Y-80628754D01*
X141479039Y-80588096D01*
X141257000Y-80710085D01*
X141257000Y-81853000D01*
X141277000Y-81853000D01*
X141277000Y-82107000D01*
X141257000Y-82107000D01*
X141257000Y-82127000D01*
X141003000Y-82127000D01*
X141003000Y-82107000D01*
X140983000Y-82107000D01*
X140983000Y-81853000D01*
X141003000Y-81853000D01*
X141003000Y-80710085D01*
X140780961Y-80588096D01*
X140646913Y-80628754D01*
X140392580Y-80748963D01*
X140166586Y-80916481D01*
X139977615Y-81124869D01*
X139866067Y-81310865D01*
X139861680Y-81300273D01*
X139704637Y-81065241D01*
X139504759Y-80865363D01*
X139360000Y-80768638D01*
X139360000Y-80513284D01*
X139455820Y-80564502D01*
X139575518Y-80600812D01*
X139700000Y-80613072D01*
X139864250Y-80610000D01*
X140023000Y-80451250D01*
X140023000Y-79627000D01*
X140277000Y-79627000D01*
X140277000Y-80451250D01*
X140435750Y-80610000D01*
X140600000Y-80613072D01*
X140724482Y-80600812D01*
X140844180Y-80564502D01*
X140954494Y-80505537D01*
X141051185Y-80426185D01*
X141130537Y-80329494D01*
X141189502Y-80219180D01*
X141225812Y-80099482D01*
X141238072Y-79975000D01*
X141235000Y-79785750D01*
X141076250Y-79627000D01*
X140277000Y-79627000D01*
X140023000Y-79627000D01*
X140003000Y-79627000D01*
X140003000Y-79373000D01*
X140023000Y-79373000D01*
X140023000Y-79353000D01*
X140277000Y-79353000D01*
X140277000Y-79373000D01*
X141076250Y-79373000D01*
X141235000Y-79214250D01*
X141238072Y-79025000D01*
X141225812Y-78900518D01*
X141189502Y-78780820D01*
X141130537Y-78670506D01*
X141121915Y-78660000D01*
X153565198Y-78660000D01*
X151623887Y-80601312D01*
G37*
X151623887Y-80601312D02*
X151441335Y-80565000D01*
X151158665Y-80565000D01*
X150881426Y-80620147D01*
X150620273Y-80728320D01*
X150385241Y-80885363D01*
X150185363Y-81085241D01*
X150081957Y-81240000D01*
X149978043Y-81240000D01*
X149874637Y-81085241D01*
X149674759Y-80885363D01*
X149439727Y-80728320D01*
X149178574Y-80620147D01*
X148901335Y-80565000D01*
X148618665Y-80565000D01*
X148341426Y-80620147D01*
X148080273Y-80728320D01*
X147845241Y-80885363D01*
X147645363Y-81085241D01*
X147488320Y-81320273D01*
X147380147Y-81581426D01*
X147325000Y-81858665D01*
X147325000Y-82141335D01*
X147369491Y-82365001D01*
X145056531Y-82365001D01*
X145105000Y-82121335D01*
X145105000Y-81838665D01*
X145049853Y-81561426D01*
X144941680Y-81300273D01*
X144784637Y-81065241D01*
X144584759Y-80865363D01*
X144349727Y-80708320D01*
X144088574Y-80600147D01*
X143811335Y-80545000D01*
X143528665Y-80545000D01*
X143251426Y-80600147D01*
X142990273Y-80708320D01*
X142755241Y-80865363D01*
X142555363Y-81065241D01*
X142398320Y-81300273D01*
X142393933Y-81310865D01*
X142282385Y-81124869D01*
X142093414Y-80916481D01*
X141867420Y-80748963D01*
X141613087Y-80628754D01*
X141479039Y-80588096D01*
X141257000Y-80710085D01*
X141257000Y-81853000D01*
X141277000Y-81853000D01*
X141277000Y-82107000D01*
X141257000Y-82107000D01*
X141257000Y-82127000D01*
X141003000Y-82127000D01*
X141003000Y-82107000D01*
X140983000Y-82107000D01*
X140983000Y-81853000D01*
X141003000Y-81853000D01*
X141003000Y-80710085D01*
X140780961Y-80588096D01*
X140646913Y-80628754D01*
X140392580Y-80748963D01*
X140166586Y-80916481D01*
X139977615Y-81124869D01*
X139866067Y-81310865D01*
X139861680Y-81300273D01*
X139704637Y-81065241D01*
X139504759Y-80865363D01*
X139360000Y-80768638D01*
X139360000Y-80513284D01*
X139455820Y-80564502D01*
X139575518Y-80600812D01*
X139700000Y-80613072D01*
X139864250Y-80610000D01*
X140023000Y-80451250D01*
X140023000Y-79627000D01*
X140277000Y-79627000D01*
X140277000Y-80451250D01*
X140435750Y-80610000D01*
X140600000Y-80613072D01*
X140724482Y-80600812D01*
X140844180Y-80564502D01*
X140954494Y-80505537D01*
X141051185Y-80426185D01*
X141130537Y-80329494D01*
X141189502Y-80219180D01*
X141225812Y-80099482D01*
X141238072Y-79975000D01*
X141235000Y-79785750D01*
X141076250Y-79627000D01*
X140277000Y-79627000D01*
X140023000Y-79627000D01*
X140003000Y-79627000D01*
X140003000Y-79373000D01*
X140023000Y-79373000D01*
X140023000Y-79353000D01*
X140277000Y-79353000D01*
X140277000Y-79373000D01*
X141076250Y-79373000D01*
X141235000Y-79214250D01*
X141238072Y-79025000D01*
X141225812Y-78900518D01*
X141189502Y-78780820D01*
X141130537Y-78670506D01*
X141121915Y-78660000D01*
X153565198Y-78660000D01*
X151623887Y-80601312D01*
G36*
X163672129Y-80561928D02*
G01*
X163200000Y-80561928D01*
X163075518Y-80574188D01*
X162955820Y-80610498D01*
X162845506Y-80669463D01*
X162748815Y-80748815D01*
X162669463Y-80845506D01*
X162610498Y-80955820D01*
X162574188Y-81075518D01*
X162573357Y-81083961D01*
X162374759Y-80885363D01*
X162139727Y-80728320D01*
X161878574Y-80620147D01*
X161601335Y-80565000D01*
X161318665Y-80565000D01*
X161041426Y-80620147D01*
X160780273Y-80728320D01*
X160545241Y-80885363D01*
X160345363Y-81085241D01*
X160190000Y-81317759D01*
X160034637Y-81085241D01*
X159834759Y-80885363D01*
X159599727Y-80728320D01*
X159338574Y-80620147D01*
X159061335Y-80565000D01*
X158778665Y-80565000D01*
X158501426Y-80620147D01*
X158240273Y-80728320D01*
X158005241Y-80885363D01*
X157805363Y-81085241D01*
X157650000Y-81317759D01*
X157520000Y-81123199D01*
X157520000Y-80612417D01*
X157649250Y-80610000D01*
X157808000Y-80451250D01*
X157808000Y-79627000D01*
X158062000Y-79627000D01*
X158062000Y-80451250D01*
X158220750Y-80610000D01*
X158385000Y-80613072D01*
X158509482Y-80600812D01*
X158629180Y-80564502D01*
X158739494Y-80505537D01*
X158836185Y-80426185D01*
X158915537Y-80329494D01*
X158974502Y-80219180D01*
X159010812Y-80099482D01*
X159023072Y-79975000D01*
X159020000Y-79785750D01*
X158861250Y-79627000D01*
X158062000Y-79627000D01*
X157808000Y-79627000D01*
X157788000Y-79627000D01*
X157788000Y-79373000D01*
X157808000Y-79373000D01*
X157808000Y-79353000D01*
X158062000Y-79353000D01*
X158062000Y-79373000D01*
X158861250Y-79373000D01*
X159020000Y-79214250D01*
X159021692Y-79110010D01*
X162220211Y-79110010D01*
X163672129Y-80561928D01*
G37*
X163672129Y-80561928D02*
X163200000Y-80561928D01*
X163075518Y-80574188D01*
X162955820Y-80610498D01*
X162845506Y-80669463D01*
X162748815Y-80748815D01*
X162669463Y-80845506D01*
X162610498Y-80955820D01*
X162574188Y-81075518D01*
X162573357Y-81083961D01*
X162374759Y-80885363D01*
X162139727Y-80728320D01*
X161878574Y-80620147D01*
X161601335Y-80565000D01*
X161318665Y-80565000D01*
X161041426Y-80620147D01*
X160780273Y-80728320D01*
X160545241Y-80885363D01*
X160345363Y-81085241D01*
X160190000Y-81317759D01*
X160034637Y-81085241D01*
X159834759Y-80885363D01*
X159599727Y-80728320D01*
X159338574Y-80620147D01*
X159061335Y-80565000D01*
X158778665Y-80565000D01*
X158501426Y-80620147D01*
X158240273Y-80728320D01*
X158005241Y-80885363D01*
X157805363Y-81085241D01*
X157650000Y-81317759D01*
X157520000Y-81123199D01*
X157520000Y-80612417D01*
X157649250Y-80610000D01*
X157808000Y-80451250D01*
X157808000Y-79627000D01*
X158062000Y-79627000D01*
X158062000Y-80451250D01*
X158220750Y-80610000D01*
X158385000Y-80613072D01*
X158509482Y-80600812D01*
X158629180Y-80564502D01*
X158739494Y-80505537D01*
X158836185Y-80426185D01*
X158915537Y-80329494D01*
X158974502Y-80219180D01*
X159010812Y-80099482D01*
X159023072Y-79975000D01*
X159020000Y-79785750D01*
X158861250Y-79627000D01*
X158062000Y-79627000D01*
X157808000Y-79627000D01*
X157788000Y-79627000D01*
X157788000Y-79373000D01*
X157808000Y-79373000D01*
X157808000Y-79353000D01*
X158062000Y-79353000D01*
X158062000Y-79373000D01*
X158861250Y-79373000D01*
X159020000Y-79214250D01*
X159021692Y-79110010D01*
X162220211Y-79110010D01*
X163672129Y-80561928D01*
M02*
