G04 #@! TF.GenerationSoftware,KiCad,Pcbnew,(5.1.5)-3*
G04 #@! TF.CreationDate,2021-10-09T13:10:46+03:00*
G04 #@! TF.ProjectId,OPL2,4f504c32-2e6b-4696-9361-645f70636258,rev?*
G04 #@! TF.SameCoordinates,Original*
G04 #@! TF.FileFunction,Legend,Top*
G04 #@! TF.FilePolarity,Positive*
%FSLAX46Y46*%
G04 Gerber Fmt 4.6, Leading zero omitted, Abs format (unit mm)*
G04 Created by KiCad (PCBNEW (5.1.5)-3) date 2021-10-09 13:10:46*
%MOMM*%
%LPD*%
G04 APERTURE LIST*
%ADD10C,0.120000*%
%ADD11C,0.100000*%
%ADD12C,0.200000*%
%ADD13C,0.150000*%
G04 APERTURE END LIST*
D10*
X101050000Y-113390000D02*
X111330000Y-113390000D01*
X101050000Y-87750000D02*
X101050000Y-113390000D01*
X111330000Y-87750000D02*
X101050000Y-87750000D01*
X111330000Y-113390000D02*
X111330000Y-87750000D01*
X103540000Y-113330000D02*
X105190000Y-113330000D01*
X103540000Y-87810000D02*
X103540000Y-113330000D01*
X108840000Y-87810000D02*
X103540000Y-87810000D01*
X108840000Y-113330000D02*
X108840000Y-87810000D01*
X107190000Y-113330000D02*
X108840000Y-113330000D01*
X105190000Y-113330000D02*
G75*
G02X107190000Y-113330000I1000000J0D01*
G01*
X132790000Y-81565580D02*
X132790000Y-81284420D01*
X133810000Y-81565580D02*
X133810000Y-81284420D01*
X165390000Y-111570000D02*
X165390000Y-93670000D01*
X134670000Y-111570000D02*
X165390000Y-111570000D01*
X134670000Y-93670000D02*
X134670000Y-111570000D01*
X165390000Y-93670000D02*
X134670000Y-93670000D01*
X165330000Y-109080000D02*
X165330000Y-103620000D01*
X134730000Y-109080000D02*
X165330000Y-109080000D01*
X134730000Y-96160000D02*
X134730000Y-109080000D01*
X165330000Y-96160000D02*
X134730000Y-96160000D01*
X165330000Y-101620000D02*
X165330000Y-96160000D01*
X165330000Y-103620000D02*
G75*
G02X165330000Y-101620000I0J1000000D01*
G01*
X139234420Y-80010000D02*
X139515580Y-80010000D01*
X139234420Y-78990000D02*
X139515580Y-78990000D01*
X120690000Y-110800000D02*
X122340000Y-110800000D01*
X122340000Y-110800000D02*
X122340000Y-92900000D01*
X122340000Y-92900000D02*
X117040000Y-92900000D01*
X117040000Y-92900000D02*
X117040000Y-110800000D01*
X117040000Y-110800000D02*
X118690000Y-110800000D01*
X124830000Y-110860000D02*
X124830000Y-92840000D01*
X124830000Y-92840000D02*
X114550000Y-92840000D01*
X114550000Y-92840000D02*
X114550000Y-110860000D01*
X114550000Y-110860000D02*
X124830000Y-110860000D01*
X118690000Y-110800000D02*
G75*
G02X120690000Y-110800000I1000000J0D01*
G01*
X157019420Y-80010000D02*
X157300580Y-80010000D01*
X157019420Y-78990000D02*
X157300580Y-78990000D01*
X165330000Y-84810000D02*
X165330000Y-83160000D01*
X165330000Y-83160000D02*
X147430000Y-83160000D01*
X147430000Y-83160000D02*
X147430000Y-88460000D01*
X147430000Y-88460000D02*
X165330000Y-88460000D01*
X165330000Y-88460000D02*
X165330000Y-86810000D01*
X165390000Y-80670000D02*
X147370000Y-80670000D01*
X147370000Y-80670000D02*
X147370000Y-90950000D01*
X147370000Y-90950000D02*
X165390000Y-90950000D01*
X165390000Y-90950000D02*
X165390000Y-80670000D01*
X165330000Y-86810000D02*
G75*
G02X165330000Y-84810000I0J1000000D01*
G01*
X113360000Y-91640000D02*
X125510000Y-91640000D01*
X126260000Y-90890000D02*
X126260000Y-79490000D01*
X125510000Y-78740000D02*
X114110000Y-78740000D01*
X113360000Y-79490000D02*
X113360000Y-91640000D01*
X114110000Y-78740000D02*
G75*
G03X113360000Y-79490000I0J-750000D01*
G01*
X126260000Y-79490000D02*
G75*
G03X125510000Y-78740000I-750000J0D01*
G01*
X125510000Y-91640000D02*
G75*
G03X126260000Y-90890000I0J750000D01*
G01*
X134720000Y-86790000D02*
X134720000Y-88440000D01*
X134720000Y-88440000D02*
X145000000Y-88440000D01*
X145000000Y-88440000D02*
X145000000Y-83140000D01*
X145000000Y-83140000D02*
X134720000Y-83140000D01*
X134720000Y-83140000D02*
X134720000Y-84790000D01*
X134660000Y-90930000D02*
X145060000Y-90930000D01*
X145060000Y-90930000D02*
X145060000Y-80650000D01*
X145060000Y-80650000D02*
X134660000Y-80650000D01*
X134660000Y-80650000D02*
X134660000Y-90930000D01*
X134720000Y-84790000D02*
G75*
G02X134720000Y-86790000I0J-1000000D01*
G01*
D11*
X182000000Y-93100000D02*
X182000000Y-93100000D01*
X182000000Y-93000000D02*
X182000000Y-93000000D01*
D12*
X167700000Y-87000000D02*
X168500000Y-87000000D01*
X167700000Y-99000000D02*
X167700000Y-87000000D01*
X168500000Y-99000000D02*
X167700000Y-99000000D01*
X173500000Y-87000000D02*
X171500000Y-87000000D01*
X173500000Y-99000000D02*
X171500000Y-99000000D01*
X178000000Y-87000000D02*
X176500000Y-87000000D01*
X178000000Y-99000000D02*
X178000000Y-87000000D01*
X176500000Y-99000000D02*
X178000000Y-99000000D01*
X176500000Y-99000000D02*
X176500000Y-99000000D01*
X181500000Y-96000000D02*
X178000000Y-96000000D01*
X181500000Y-90000000D02*
X181500000Y-96000000D01*
X178000000Y-90000000D02*
X181500000Y-90000000D01*
D11*
X182000000Y-93000000D02*
G75*
G02X182000000Y-93100000I0J-50000D01*
G01*
X182000000Y-93100000D02*
G75*
G02X182000000Y-93000000I0J50000D01*
G01*
D13*
X102680952Y-114052380D02*
X103347619Y-114052380D01*
X102919047Y-115052380D01*
X104157142Y-114385714D02*
X104157142Y-115052380D01*
X103919047Y-114004761D02*
X103680952Y-114719047D01*
X104300000Y-114719047D01*
X105157142Y-115052380D02*
X104680952Y-115052380D01*
X104680952Y-114052380D01*
X105442857Y-115004761D02*
X105585714Y-115052380D01*
X105823809Y-115052380D01*
X105919047Y-115004761D01*
X105966666Y-114957142D01*
X106014285Y-114861904D01*
X106014285Y-114766666D01*
X105966666Y-114671428D01*
X105919047Y-114623809D01*
X105823809Y-114576190D01*
X105633333Y-114528571D01*
X105538095Y-114480952D01*
X105490476Y-114433333D01*
X105442857Y-114338095D01*
X105442857Y-114242857D01*
X105490476Y-114147619D01*
X105538095Y-114100000D01*
X105633333Y-114052380D01*
X105871428Y-114052380D01*
X106014285Y-114100000D01*
X106871428Y-114052380D02*
X106680952Y-114052380D01*
X106585714Y-114100000D01*
X106538095Y-114147619D01*
X106442857Y-114290476D01*
X106395238Y-114480952D01*
X106395238Y-114861904D01*
X106442857Y-114957142D01*
X106490476Y-115004761D01*
X106585714Y-115052380D01*
X106776190Y-115052380D01*
X106871428Y-115004761D01*
X106919047Y-114957142D01*
X106966666Y-114861904D01*
X106966666Y-114623809D01*
X106919047Y-114528571D01*
X106871428Y-114480952D01*
X106776190Y-114433333D01*
X106585714Y-114433333D01*
X106490476Y-114480952D01*
X106442857Y-114528571D01*
X106395238Y-114623809D01*
X107538095Y-114480952D02*
X107442857Y-114433333D01*
X107395238Y-114385714D01*
X107347619Y-114290476D01*
X107347619Y-114242857D01*
X107395238Y-114147619D01*
X107442857Y-114100000D01*
X107538095Y-114052380D01*
X107728571Y-114052380D01*
X107823809Y-114100000D01*
X107871428Y-114147619D01*
X107919047Y-114242857D01*
X107919047Y-114290476D01*
X107871428Y-114385714D01*
X107823809Y-114433333D01*
X107728571Y-114480952D01*
X107538095Y-114480952D01*
X107442857Y-114528571D01*
X107395238Y-114576190D01*
X107347619Y-114671428D01*
X107347619Y-114861904D01*
X107395238Y-114957142D01*
X107442857Y-115004761D01*
X107538095Y-115052380D01*
X107728571Y-115052380D01*
X107823809Y-115004761D01*
X107871428Y-114957142D01*
X107919047Y-114861904D01*
X107919047Y-114671428D01*
X107871428Y-114576190D01*
X107823809Y-114528571D01*
X107728571Y-114480952D01*
X108490476Y-114480952D02*
X108395238Y-114433333D01*
X108347619Y-114385714D01*
X108300000Y-114290476D01*
X108300000Y-114242857D01*
X108347619Y-114147619D01*
X108395238Y-114100000D01*
X108490476Y-114052380D01*
X108680952Y-114052380D01*
X108776190Y-114100000D01*
X108823809Y-114147619D01*
X108871428Y-114242857D01*
X108871428Y-114290476D01*
X108823809Y-114385714D01*
X108776190Y-114433333D01*
X108680952Y-114480952D01*
X108490476Y-114480952D01*
X108395238Y-114528571D01*
X108347619Y-114576190D01*
X108300000Y-114671428D01*
X108300000Y-114861904D01*
X108347619Y-114957142D01*
X108395238Y-115004761D01*
X108490476Y-115052380D01*
X108680952Y-115052380D01*
X108776190Y-115004761D01*
X108823809Y-114957142D01*
X108871428Y-114861904D01*
X108871428Y-114671428D01*
X108823809Y-114576190D01*
X108776190Y-114528571D01*
X108680952Y-114480952D01*
X132227142Y-81591666D02*
X132274761Y-81639285D01*
X132322380Y-81782142D01*
X132322380Y-81877380D01*
X132274761Y-82020238D01*
X132179523Y-82115476D01*
X132084285Y-82163095D01*
X131893809Y-82210714D01*
X131750952Y-82210714D01*
X131560476Y-82163095D01*
X131465238Y-82115476D01*
X131370000Y-82020238D01*
X131322380Y-81877380D01*
X131322380Y-81782142D01*
X131370000Y-81639285D01*
X131417619Y-81591666D01*
X132322380Y-80639285D02*
X132322380Y-81210714D01*
X132322380Y-80925000D02*
X131322380Y-80925000D01*
X131465238Y-81020238D01*
X131560476Y-81115476D01*
X131608095Y-81210714D01*
X166306190Y-105096190D02*
X166782380Y-105096190D01*
X165782380Y-105429523D02*
X166306190Y-105096190D01*
X165782380Y-104762857D01*
X166782380Y-104429523D02*
X165782380Y-104429523D01*
X166496666Y-104096190D01*
X165782380Y-103762857D01*
X166782380Y-103762857D01*
X165782380Y-103381904D02*
X165782380Y-102762857D01*
X166163333Y-103096190D01*
X166163333Y-102953333D01*
X166210952Y-102858095D01*
X166258571Y-102810476D01*
X166353809Y-102762857D01*
X166591904Y-102762857D01*
X166687142Y-102810476D01*
X166734761Y-102858095D01*
X166782380Y-102953333D01*
X166782380Y-103239047D01*
X166734761Y-103334285D01*
X166687142Y-103381904D01*
X166210952Y-102191428D02*
X166163333Y-102286666D01*
X166115714Y-102334285D01*
X166020476Y-102381904D01*
X165972857Y-102381904D01*
X165877619Y-102334285D01*
X165830000Y-102286666D01*
X165782380Y-102191428D01*
X165782380Y-102000952D01*
X165830000Y-101905714D01*
X165877619Y-101858095D01*
X165972857Y-101810476D01*
X166020476Y-101810476D01*
X166115714Y-101858095D01*
X166163333Y-101905714D01*
X166210952Y-102000952D01*
X166210952Y-102191428D01*
X166258571Y-102286666D01*
X166306190Y-102334285D01*
X166401428Y-102381904D01*
X166591904Y-102381904D01*
X166687142Y-102334285D01*
X166734761Y-102286666D01*
X166782380Y-102191428D01*
X166782380Y-102000952D01*
X166734761Y-101905714D01*
X166687142Y-101858095D01*
X166591904Y-101810476D01*
X166401428Y-101810476D01*
X166306190Y-101858095D01*
X166258571Y-101905714D01*
X166210952Y-102000952D01*
X166782380Y-100858095D02*
X166782380Y-101429523D01*
X166782380Y-101143809D02*
X165782380Y-101143809D01*
X165925238Y-101239047D01*
X166020476Y-101334285D01*
X166068095Y-101429523D01*
X165877619Y-100477142D02*
X165830000Y-100429523D01*
X165782380Y-100334285D01*
X165782380Y-100096190D01*
X165830000Y-100000952D01*
X165877619Y-99953333D01*
X165972857Y-99905714D01*
X166068095Y-99905714D01*
X166210952Y-99953333D01*
X166782380Y-100524761D01*
X166782380Y-99905714D01*
X136733333Y-79857142D02*
X136685714Y-79904761D01*
X136542857Y-79952380D01*
X136447619Y-79952380D01*
X136304761Y-79904761D01*
X136209523Y-79809523D01*
X136161904Y-79714285D01*
X136114285Y-79523809D01*
X136114285Y-79380952D01*
X136161904Y-79190476D01*
X136209523Y-79095238D01*
X136304761Y-79000000D01*
X136447619Y-78952380D01*
X136542857Y-78952380D01*
X136685714Y-79000000D01*
X136733333Y-79047619D01*
X137114285Y-79047619D02*
X137161904Y-79000000D01*
X137257142Y-78952380D01*
X137495238Y-78952380D01*
X137590476Y-79000000D01*
X137638095Y-79047619D01*
X137685714Y-79142857D01*
X137685714Y-79238095D01*
X137638095Y-79380952D01*
X137066666Y-79952380D01*
X137685714Y-79952380D01*
X117047142Y-111252380D02*
X117713809Y-111252380D01*
X117285238Y-112252380D01*
X118523333Y-111585714D02*
X118523333Y-112252380D01*
X118285238Y-111204761D02*
X118047142Y-111919047D01*
X118666190Y-111919047D01*
X119523333Y-112252380D02*
X119047142Y-112252380D01*
X119047142Y-111252380D01*
X119809047Y-112204761D02*
X119951904Y-112252380D01*
X120190000Y-112252380D01*
X120285238Y-112204761D01*
X120332857Y-112157142D01*
X120380476Y-112061904D01*
X120380476Y-111966666D01*
X120332857Y-111871428D01*
X120285238Y-111823809D01*
X120190000Y-111776190D01*
X119999523Y-111728571D01*
X119904285Y-111680952D01*
X119856666Y-111633333D01*
X119809047Y-111538095D01*
X119809047Y-111442857D01*
X119856666Y-111347619D01*
X119904285Y-111300000D01*
X119999523Y-111252380D01*
X120237619Y-111252380D01*
X120380476Y-111300000D01*
X120999523Y-111252380D02*
X121094761Y-111252380D01*
X121190000Y-111300000D01*
X121237619Y-111347619D01*
X121285238Y-111442857D01*
X121332857Y-111633333D01*
X121332857Y-111871428D01*
X121285238Y-112061904D01*
X121237619Y-112157142D01*
X121190000Y-112204761D01*
X121094761Y-112252380D01*
X120999523Y-112252380D01*
X120904285Y-112204761D01*
X120856666Y-112157142D01*
X120809047Y-112061904D01*
X120761428Y-111871428D01*
X120761428Y-111633333D01*
X120809047Y-111442857D01*
X120856666Y-111347619D01*
X120904285Y-111300000D01*
X120999523Y-111252380D01*
X122190000Y-111585714D02*
X122190000Y-112252380D01*
X121951904Y-111204761D02*
X121713809Y-111919047D01*
X122332857Y-111919047D01*
X154533333Y-79857142D02*
X154485714Y-79904761D01*
X154342857Y-79952380D01*
X154247619Y-79952380D01*
X154104761Y-79904761D01*
X154009523Y-79809523D01*
X153961904Y-79714285D01*
X153914285Y-79523809D01*
X153914285Y-79380952D01*
X153961904Y-79190476D01*
X154009523Y-79095238D01*
X154104761Y-79000000D01*
X154247619Y-78952380D01*
X154342857Y-78952380D01*
X154485714Y-79000000D01*
X154533333Y-79047619D01*
X154866666Y-78952380D02*
X155485714Y-78952380D01*
X155152380Y-79333333D01*
X155295238Y-79333333D01*
X155390476Y-79380952D01*
X155438095Y-79428571D01*
X155485714Y-79523809D01*
X155485714Y-79761904D01*
X155438095Y-79857142D01*
X155390476Y-79904761D01*
X155295238Y-79952380D01*
X155009523Y-79952380D01*
X154914285Y-79904761D01*
X154866666Y-79857142D01*
X165782380Y-87929047D02*
X165782380Y-87357619D01*
X166782380Y-87643333D02*
X165782380Y-87643333D01*
X166782380Y-86548095D02*
X166782380Y-87024285D01*
X165782380Y-87024285D01*
X165782380Y-86024285D02*
X165782380Y-85929047D01*
X165830000Y-85833809D01*
X165877619Y-85786190D01*
X165972857Y-85738571D01*
X166163333Y-85690952D01*
X166401428Y-85690952D01*
X166591904Y-85738571D01*
X166687142Y-85786190D01*
X166734761Y-85833809D01*
X166782380Y-85929047D01*
X166782380Y-86024285D01*
X166734761Y-86119523D01*
X166687142Y-86167142D01*
X166591904Y-86214761D01*
X166401428Y-86262380D01*
X166163333Y-86262380D01*
X165972857Y-86214761D01*
X165877619Y-86167142D01*
X165830000Y-86119523D01*
X165782380Y-86024285D01*
X165782380Y-85357619D02*
X165782380Y-84690952D01*
X166782380Y-85119523D01*
X166115714Y-83881428D02*
X166782380Y-83881428D01*
X165734761Y-84119523D02*
X166449047Y-84357619D01*
X166449047Y-83738571D01*
X119000476Y-84652380D02*
X119667142Y-85652380D01*
X119667142Y-84652380D02*
X119000476Y-85652380D01*
X120571904Y-85652380D02*
X120000476Y-85652380D01*
X120286190Y-85652380D02*
X120286190Y-84652380D01*
X120190952Y-84795238D01*
X120095714Y-84890476D01*
X120000476Y-84938095D01*
X146126190Y-89052380D02*
X146602380Y-89052380D01*
X145602380Y-89385714D02*
X146126190Y-89052380D01*
X145602380Y-88719047D01*
X146602380Y-88385714D02*
X145602380Y-88385714D01*
X146316666Y-88052380D01*
X145602380Y-87719047D01*
X146602380Y-87719047D01*
X145602380Y-87338095D02*
X145602380Y-86719047D01*
X145983333Y-87052380D01*
X145983333Y-86909523D01*
X146030952Y-86814285D01*
X146078571Y-86766666D01*
X146173809Y-86719047D01*
X146411904Y-86719047D01*
X146507142Y-86766666D01*
X146554761Y-86814285D01*
X146602380Y-86909523D01*
X146602380Y-87195238D01*
X146554761Y-87290476D01*
X146507142Y-87338095D01*
X145602380Y-86100000D02*
X145602380Y-86004761D01*
X145650000Y-85909523D01*
X145697619Y-85861904D01*
X145792857Y-85814285D01*
X145983333Y-85766666D01*
X146221428Y-85766666D01*
X146411904Y-85814285D01*
X146507142Y-85861904D01*
X146554761Y-85909523D01*
X146602380Y-86004761D01*
X146602380Y-86100000D01*
X146554761Y-86195238D01*
X146507142Y-86242857D01*
X146411904Y-86290476D01*
X146221428Y-86338095D01*
X145983333Y-86338095D01*
X145792857Y-86290476D01*
X145697619Y-86242857D01*
X145650000Y-86195238D01*
X145602380Y-86100000D01*
X146602380Y-84814285D02*
X146602380Y-85385714D01*
X146602380Y-85100000D02*
X145602380Y-85100000D01*
X145745238Y-85195238D01*
X145840476Y-85290476D01*
X145888095Y-85385714D01*
X145935714Y-83957142D02*
X146602380Y-83957142D01*
X145554761Y-84195238D02*
X146269047Y-84433333D01*
X146269047Y-83814285D01*
X146078571Y-83100000D02*
X146126190Y-82957142D01*
X146173809Y-82909523D01*
X146269047Y-82861904D01*
X146411904Y-82861904D01*
X146507142Y-82909523D01*
X146554761Y-82957142D01*
X146602380Y-83052380D01*
X146602380Y-83433333D01*
X145602380Y-83433333D01*
X145602380Y-83100000D01*
X145650000Y-83004761D01*
X145697619Y-82957142D01*
X145792857Y-82909523D01*
X145888095Y-82909523D01*
X145983333Y-82957142D01*
X146030952Y-83004761D01*
X146078571Y-83100000D01*
X146078571Y-83433333D01*
X146602380Y-81909523D02*
X146602380Y-82480952D01*
X146602380Y-82195238D02*
X145602380Y-82195238D01*
X145745238Y-82290476D01*
X145840476Y-82385714D01*
X145888095Y-82480952D01*
M02*
