M48
; DRILL file {KiCad (5.1.5)-3} date 23.12.2021 14.00.05
; FORMAT={-:-/ absolute / inch / decimal}
; #@! TF.CreationDate,2021-12-23T14:00:05+02:00
; #@! TF.GenerationSoftware,Kicad,Pcbnew,(5.1.5)-3
; #@! TF.FileFunction,Plated,1,2,PTH
FMAT,2
INCH
T1C0.0157
T2C0.0197
T3C0.0260
T4C0.0315
T5C0.0394
%
G90
G05
T1
X4.1417Y-4.4094
X4.224Y-4.2307
X4.2362Y-4.4252
X4.2835Y-4.2598
X4.3307Y-3.0799
X4.3307Y-3.1799
X4.3346Y-4.3268
X4.4409Y-3.0197
X4.5276Y-2.8831
X4.5276Y-2.9831
X4.585Y-2.7307
X4.8425Y-4.2947
X4.9016Y-3.1693
X5.0Y-2.6378
X5.0118Y-3.1102
X5.1181Y-3.3465
X5.1299Y-3.2283
X5.1772Y-3.3819
X5.1929Y-4.4252
X5.2441Y-4.4764
X5.2949Y-2.4413
X5.3268Y-3.3071
X5.4331Y-3.3504
X5.4637Y-3.2618
X5.4724Y-4.4685
X5.4843Y-4.378
X5.5276Y-4.378
X5.5591Y-2.7559
X5.5748Y-4.378
X5.622Y-4.378
X5.6811Y-3.3386
X5.8543Y-4.3307
X5.9449Y-3.2874
X5.9449Y-3.3386
X6.0236Y-4.2126
X6.063Y-4.5434
X6.3976Y-4.2756
X6.6142Y-3.3819
X6.8118Y-4.4535
X6.8307Y-3.6417
X6.8307Y-3.7047
X6.8307Y-4.0
X6.8307Y-4.1142
X6.8701Y-3.2283
X6.9118Y-4.5276
T2
X4.0157Y-4.4488
X6.9606Y-4.0591
X7.0236Y-4.1811
T3
X5.1606Y-2.5472
X5.1606Y-2.8472
X5.4606Y-2.5472
X5.4606Y-2.8472
T4
X6.4173Y-3.4311
X6.4173Y-3.5311
X6.4173Y-3.6311
X6.4173Y-3.7311
X6.4173Y-3.8311
X6.4173Y-3.9311
X6.4173Y-4.0311
X6.4173Y-4.1311
X6.7173Y-3.4311
X6.7173Y-3.5311
X6.7173Y-3.6311
X6.7173Y-3.7311
X6.7173Y-3.8311
X6.7173Y-3.9311
X6.7173Y-4.0311
X6.7173Y-4.1311
X4.9441Y-3.4307
X4.9441Y-3.5307
X4.9441Y-3.6307
X4.9441Y-3.7307
X4.9441Y-3.8307
X4.9441Y-3.9307
X4.9441Y-4.0307
X4.9441Y-4.1307
X4.9441Y-4.2307
X4.9441Y-4.3307
X5.2441Y-3.4307
X5.2441Y-3.5307
X5.2441Y-3.6307
X5.2441Y-3.7307
X5.2441Y-3.8307
X5.2441Y-3.9307
X5.2441Y-4.0307
X5.2441Y-4.1307
X5.2441Y-4.2307
X5.2441Y-4.3307
X4.1244Y-2.4307
X4.1244Y-2.5307
X4.1244Y-2.6307
X4.1244Y-2.7307
X4.1244Y-2.8307
X4.1244Y-2.9307
X4.1244Y-3.0307
X4.1244Y-3.1307
X4.1244Y-3.2307
X4.1244Y-3.3307
X4.1244Y-3.4307
X4.1244Y-3.5307
X4.1244Y-3.6307
X4.1244Y-3.7307
X4.1244Y-3.8307
X4.1244Y-3.9307
X4.1244Y-4.0307
X4.1244Y-4.1307
X4.1244Y-4.2307
X4.1244Y-4.3307
X4.7244Y-2.4307
X4.7244Y-2.5307
X4.7244Y-2.6307
X4.7244Y-2.7307
X4.7244Y-2.8307
X4.7244Y-2.9307
X4.7244Y-3.0307
X4.7244Y-3.1307
X4.7244Y-3.2307
X4.7244Y-3.3307
X4.7244Y-3.4307
X4.7244Y-3.5307
X4.7244Y-3.6307
X4.7244Y-3.7307
X4.7244Y-3.8307
X4.7244Y-3.9307
X4.7244Y-4.0307
X4.7244Y-4.1307
X4.7244Y-4.2307
X4.7244Y-4.3307
X5.9252Y-3.4311
X5.9252Y-3.5311
X5.9252Y-3.6311
X5.9252Y-3.7311
X5.9252Y-3.8311
X5.9252Y-3.9311
X5.9252Y-4.0311
X5.9252Y-4.1311
X5.9252Y-4.2311
X5.9252Y-4.3311
X6.2252Y-3.4311
X6.2252Y-3.5311
X6.2252Y-3.6311
X6.2252Y-3.7311
X6.2252Y-3.8311
X6.2252Y-3.9311
X6.2252Y-4.0311
X6.2252Y-4.1311
X6.2252Y-4.2311
X6.2252Y-4.3311
X5.4331Y-3.4311
X5.4331Y-3.5311
X5.4331Y-3.6311
X5.4331Y-3.7311
X5.4331Y-3.8311
X5.4331Y-3.9311
X5.4331Y-4.0311
X5.4331Y-4.1311
X5.4331Y-4.2311
X5.4331Y-4.3311
X5.7331Y-3.4311
X5.7331Y-3.5311
X5.7331Y-3.6311
X5.7331Y-3.7311
X5.7331Y-3.8311
X5.7331Y-3.9311
X5.7331Y-4.0311
X5.7331Y-4.1311
X5.7331Y-4.2311
X5.7331Y-4.3311
T5
X6.9079Y-3.6035
X6.9079Y-3.7035
X6.9079Y-3.8035
X6.9079Y-3.9035
X7.0079Y-3.6035
X7.0079Y-3.7035
X7.0079Y-3.8035
X7.0079Y-3.9035
T0
M30
