G04 #@! TF.GenerationSoftware,KiCad,Pcbnew,(5.1.5)-3*
G04 #@! TF.CreationDate,2021-12-23T14:00:04+02:00*
G04 #@! TF.ProjectId,CPU,4350552e-6b69-4636-9164-5f7063625858,rev?*
G04 #@! TF.SameCoordinates,Original*
G04 #@! TF.FileFunction,Copper,L2,Bot*
G04 #@! TF.FilePolarity,Positive*
%FSLAX46Y46*%
G04 Gerber Fmt 4.6, Leading zero omitted, Abs format (unit mm)*
G04 Created by KiCad (PCBNEW (5.1.5)-3) date 2021-12-23 14:00:04*
%MOMM*%
%LPD*%
G04 APERTURE LIST*
%ADD10C,1.210000*%
%ADD11O,2.400000X1.600000*%
%ADD12R,2.400000X1.600000*%
%ADD13O,1.700000X1.700000*%
%ADD14R,1.700000X1.700000*%
%ADD15O,1.600000X1.600000*%
%ADD16R,1.600000X1.600000*%
%ADD17R,1.524000X6.858000*%
%ADD18C,0.800000*%
%ADD19C,1.000000*%
%ADD20C,0.500000*%
%ADD21C,1.000000*%
%ADD22C,0.250000*%
%ADD23C,0.254000*%
G04 APERTURE END LIST*
D10*
X138700000Y-72320000D03*
X131080000Y-72320000D03*
X131080000Y-64700000D03*
X138700000Y-64700000D03*
D11*
X104760000Y-110000000D03*
X120000000Y-61740000D03*
X104760000Y-107460000D03*
X120000000Y-64280000D03*
X104760000Y-104920000D03*
X120000000Y-66820000D03*
X104760000Y-102380000D03*
X120000000Y-69360000D03*
X104760000Y-99840000D03*
X120000000Y-71900000D03*
X104760000Y-97300000D03*
X120000000Y-74440000D03*
X104760000Y-94760000D03*
X120000000Y-76980000D03*
X104760000Y-92220000D03*
X120000000Y-79520000D03*
X104760000Y-89680000D03*
X120000000Y-82060000D03*
X104760000Y-87140000D03*
X120000000Y-84600000D03*
X104760000Y-84600000D03*
X120000000Y-87140000D03*
X104760000Y-82060000D03*
X120000000Y-89680000D03*
X104760000Y-79520000D03*
X120000000Y-92220000D03*
X104760000Y-76980000D03*
X120000000Y-94760000D03*
X104760000Y-74440000D03*
X120000000Y-97300000D03*
X104760000Y-71900000D03*
X120000000Y-99840000D03*
X104760000Y-69360000D03*
X120000000Y-102380000D03*
X104760000Y-66820000D03*
X120000000Y-104920000D03*
X104760000Y-64280000D03*
X120000000Y-107460000D03*
X104760000Y-61740000D03*
D12*
X120000000Y-110000000D03*
D13*
X175460000Y-91530000D03*
X178000000Y-91530000D03*
X175460000Y-94070000D03*
X178000000Y-94070000D03*
X175460000Y-96610000D03*
X178000000Y-96610000D03*
X175460000Y-99150000D03*
D14*
X178000000Y-99150000D03*
D15*
X158120000Y-87150000D03*
X150500000Y-110010000D03*
X158120000Y-89690000D03*
X150500000Y-107470000D03*
X158120000Y-92230000D03*
X150500000Y-104930000D03*
X158120000Y-94770000D03*
X150500000Y-102390000D03*
X158120000Y-97310000D03*
X150500000Y-99850000D03*
X158120000Y-99850000D03*
X150500000Y-97310000D03*
X158120000Y-102390000D03*
X150500000Y-94770000D03*
X158120000Y-104930000D03*
X150500000Y-92230000D03*
X158120000Y-107470000D03*
X150500000Y-89690000D03*
X158120000Y-110010000D03*
D16*
X150500000Y-87150000D03*
D15*
X125580000Y-110000000D03*
X133200000Y-87140000D03*
X125580000Y-107460000D03*
X133200000Y-89680000D03*
X125580000Y-104920000D03*
X133200000Y-92220000D03*
X125580000Y-102380000D03*
X133200000Y-94760000D03*
X125580000Y-99840000D03*
X133200000Y-97300000D03*
X125580000Y-97300000D03*
X133200000Y-99840000D03*
X125580000Y-94760000D03*
X133200000Y-102380000D03*
X125580000Y-92220000D03*
X133200000Y-104920000D03*
X125580000Y-89680000D03*
X133200000Y-107460000D03*
X125580000Y-87140000D03*
D16*
X133200000Y-110000000D03*
D15*
X145620000Y-87150000D03*
X138000000Y-110010000D03*
X145620000Y-89690000D03*
X138000000Y-107470000D03*
X145620000Y-92230000D03*
X138000000Y-104930000D03*
X145620000Y-94770000D03*
X138000000Y-102390000D03*
X145620000Y-97310000D03*
X138000000Y-99850000D03*
X145620000Y-99850000D03*
X138000000Y-97310000D03*
X145620000Y-102390000D03*
X138000000Y-94770000D03*
X145620000Y-104930000D03*
X138000000Y-92230000D03*
X145620000Y-107470000D03*
X138000000Y-89690000D03*
X145620000Y-110010000D03*
D16*
X138000000Y-87150000D03*
D15*
X170620000Y-87150000D03*
X163000000Y-104930000D03*
X170620000Y-89690000D03*
X163000000Y-102390000D03*
X170620000Y-92230000D03*
X163000000Y-99850000D03*
X170620000Y-94770000D03*
X163000000Y-97310000D03*
X170620000Y-97310000D03*
X163000000Y-94770000D03*
X170620000Y-99850000D03*
X163000000Y-92230000D03*
X170620000Y-102390000D03*
X163000000Y-89690000D03*
X170620000Y-104930000D03*
D16*
X163000000Y-87150000D03*
D17*
X101900000Y-120381000D03*
X104440000Y-120381000D03*
X106980000Y-120381000D03*
X109520000Y-120381000D03*
X112060000Y-120381000D03*
X114600000Y-120381000D03*
X117140000Y-120381000D03*
X119680000Y-120381000D03*
X122220000Y-120381000D03*
X124760000Y-120381000D03*
X127300000Y-120381000D03*
X129840000Y-120381000D03*
X132380000Y-120381000D03*
X134920000Y-120381000D03*
X137460000Y-120381000D03*
X140000000Y-120381000D03*
X142540000Y-120381000D03*
X145080000Y-120381000D03*
X147620000Y-120381000D03*
X150160000Y-120381000D03*
X152700000Y-120381000D03*
X155240000Y-120381000D03*
X157780000Y-120381000D03*
X160320000Y-120381000D03*
X162860000Y-120381000D03*
X165400000Y-120381000D03*
X167940000Y-120381000D03*
X170480000Y-120381000D03*
X173020000Y-120381000D03*
X175560000Y-120381000D03*
X178100000Y-120381000D03*
D18*
X127300000Y-79000000D03*
X153000000Y-107000000D03*
X116460000Y-69360000D03*
X112800000Y-76700000D03*
X108800000Y-108200000D03*
D19*
X176800000Y-103100000D03*
X178400000Y-106200000D03*
D18*
X130300000Y-82000000D03*
X135300000Y-84000000D03*
X174500000Y-82000000D03*
D19*
X102000000Y-113000000D03*
D18*
X110100000Y-109900000D03*
X107600000Y-112400000D03*
X141200000Y-70000000D03*
X151000000Y-84800000D03*
X144300000Y-84800000D03*
X167999999Y-85899999D03*
X173020000Y-113120000D03*
X173500000Y-104500000D03*
X173500000Y-101600000D03*
X173500000Y-94100000D03*
X173500000Y-92500000D03*
X105200000Y-112000000D03*
X134489990Y-62010010D03*
X175560000Y-115000000D03*
X123000000Y-109085002D03*
X107289994Y-107460000D03*
X139300000Y-111200000D03*
X140400000Y-111200000D03*
X141600000Y-111200000D03*
X142800000Y-111200000D03*
X138778996Y-82848996D03*
X110000000Y-78230000D03*
X115000000Y-73230000D03*
X110000000Y-80770000D03*
X115000000Y-75770000D03*
X124500000Y-80500000D03*
X131500000Y-85900000D03*
X139000000Y-113500000D03*
X151000000Y-83500000D03*
X138000000Y-85100000D03*
X130000000Y-85000000D03*
X127000000Y-67000000D03*
X133200000Y-113700000D03*
X131900000Y-112400000D03*
X148700000Y-110000000D03*
X154000000Y-115402000D03*
X162500000Y-108600000D03*
D20*
X118210010Y-73189990D02*
X121489990Y-73189990D01*
X121489990Y-73189990D02*
X127300000Y-79000000D01*
X127300000Y-79000000D02*
X127300000Y-79000000D01*
X118210010Y-73189990D02*
X116600000Y-74800000D01*
D21*
X178100000Y-120381000D02*
X178100000Y-115952000D01*
X101900000Y-120381000D02*
X101900000Y-115952000D01*
X175460000Y-92732081D02*
X175460000Y-94070000D01*
X175460000Y-91530000D02*
X175460000Y-92732081D01*
D22*
X158660001Y-98724999D02*
X157579999Y-98724999D01*
X157579999Y-98724999D02*
X153000000Y-103304998D01*
X163000000Y-97310000D02*
X160075000Y-97310000D01*
X160075000Y-97310000D02*
X158660001Y-98724999D01*
X153000000Y-103304998D02*
X153000000Y-107000000D01*
X153000000Y-107000000D02*
X153000000Y-107000000D01*
D21*
X155240000Y-115952000D02*
X156192000Y-115000000D01*
X155240000Y-120381000D02*
X155240000Y-115952000D01*
X156192000Y-115000000D02*
X161700000Y-115000000D01*
D20*
X116460000Y-65652219D02*
X116460000Y-68794315D01*
X116460000Y-68794315D02*
X116460000Y-69360000D01*
X120000000Y-62112219D02*
X116460000Y-65652219D01*
X120000000Y-61740000D02*
X120000000Y-62112219D01*
X120000000Y-110000000D02*
X112200000Y-110000000D01*
X112200000Y-110000000D02*
X112200000Y-110000000D01*
X175460000Y-90327919D02*
X175460000Y-91530000D01*
X175460000Y-89511812D02*
X175460000Y-90327919D01*
X171398177Y-85449989D02*
X175460000Y-89511812D01*
X169841823Y-85449989D02*
X171398177Y-85449989D01*
X164774960Y-90516852D02*
X169841823Y-85449989D01*
X164774960Y-92995040D02*
X164774960Y-90516852D01*
X163000000Y-94770000D02*
X164774960Y-92995040D01*
X112200000Y-110000000D02*
X110400000Y-108200000D01*
X110400000Y-108200000D02*
X108800000Y-108200000D01*
X108800000Y-108200000D02*
X108800000Y-108200000D01*
X130300000Y-82000000D02*
X133300000Y-82000000D01*
X133300000Y-82000000D02*
X135300000Y-84000000D01*
X135300000Y-84000000D02*
X135300000Y-84000000D01*
D21*
X106980000Y-120381000D02*
X106980000Y-116080000D01*
X106980000Y-116080000D02*
X103900000Y-113000000D01*
X103900000Y-113000000D02*
X102000000Y-113000000D01*
X102000000Y-113000000D02*
X102000000Y-113000000D01*
D20*
X124329999Y-111250001D02*
X111450001Y-111250001D01*
X125580000Y-110000000D02*
X124329999Y-111250001D01*
X111450001Y-111250001D02*
X110100000Y-109900000D01*
X110100000Y-109900000D02*
X110100000Y-109900000D01*
X107600000Y-112400000D02*
X105900000Y-112400000D01*
X141200000Y-70000000D02*
X141200000Y-70000000D01*
X138700000Y-73175599D02*
X150324401Y-84800000D01*
X138700000Y-72320000D02*
X138700000Y-73175599D01*
X150324401Y-84800000D02*
X151000000Y-84800000D01*
X151000000Y-84800000D02*
X151000000Y-84800000D01*
X145620000Y-86120000D02*
X145620000Y-87150000D01*
X144300000Y-84800000D02*
X145620000Y-86120000D01*
X159370001Y-85899999D02*
X167999999Y-85899999D01*
X158120000Y-87150000D02*
X159370001Y-85899999D01*
X167999999Y-85899999D02*
X167999999Y-85899999D01*
X173020000Y-120381000D02*
X173020000Y-113120000D01*
X173020000Y-113120000D02*
X173020000Y-113120000D01*
X173500000Y-104500000D02*
X173500000Y-101600000D01*
X173500000Y-101600000D02*
X173500000Y-101600000D01*
X173500000Y-94100000D02*
X173500000Y-92500000D01*
X173500000Y-92500000D02*
X173500000Y-92500000D01*
X105900000Y-112400000D02*
X105600000Y-112400000D01*
X105600000Y-112400000D02*
X105200000Y-112000000D01*
X105200000Y-112000000D02*
X105200000Y-112000000D01*
X141200000Y-70000000D02*
X140300000Y-70000000D01*
X140300000Y-70000000D02*
X134489990Y-64189990D01*
X134489990Y-64189990D02*
X134489990Y-62010010D01*
X134489990Y-62010010D02*
X134489990Y-62010010D01*
D22*
X171899998Y-82000000D02*
X167999999Y-85899999D01*
X174500000Y-82000000D02*
X171899998Y-82000000D01*
X150750003Y-108884999D02*
X148410003Y-108884999D01*
X151625001Y-108010001D02*
X150750003Y-108884999D01*
X148410003Y-108884999D02*
X145295002Y-112000000D01*
X137020000Y-72320000D02*
X150724999Y-86024999D01*
X131080000Y-72320000D02*
X137020000Y-72320000D01*
X150724999Y-86024999D02*
X151560001Y-86024999D01*
X151560001Y-86024999D02*
X151625001Y-86089999D01*
X151625001Y-86089999D02*
X151625001Y-108010001D01*
X145295002Y-112000000D02*
X133500000Y-112000000D01*
X129840000Y-115660000D02*
X129840000Y-120381000D01*
X133500000Y-112000000D02*
X129840000Y-115660000D01*
X175560000Y-120381000D02*
X175560000Y-115000000D01*
X175560000Y-115000000D02*
X175560000Y-115000000D01*
X108074995Y-106674999D02*
X107289994Y-107460000D01*
X117223995Y-106674999D02*
X108074995Y-106674999D01*
X119233999Y-108685003D02*
X117223995Y-106674999D01*
X123000000Y-109085002D02*
X122600001Y-108685003D01*
X122600001Y-108685003D02*
X119233999Y-108685003D01*
X126379999Y-108259999D02*
X125580000Y-107460000D01*
X126715001Y-108595001D02*
X126379999Y-108259999D01*
X138250003Y-108595001D02*
X126715001Y-108595001D01*
X139300000Y-109644998D02*
X138250003Y-108595001D01*
X139300000Y-111200000D02*
X139300000Y-109644998D01*
X138250003Y-106055001D02*
X126715001Y-106055001D01*
X126379999Y-105719999D02*
X125580000Y-104920000D01*
X126715001Y-106055001D02*
X126379999Y-105719999D01*
X140400000Y-108204998D02*
X138250003Y-106055001D01*
X140400000Y-111200000D02*
X140400000Y-108204998D01*
X126379999Y-103179999D02*
X125580000Y-102380000D01*
X126715001Y-103515001D02*
X126379999Y-103179999D01*
X138250003Y-103515001D02*
X126715001Y-103515001D01*
X141600000Y-106864998D02*
X138250003Y-103515001D01*
X141600000Y-111200000D02*
X141600000Y-106864998D01*
X126379999Y-100639999D02*
X125580000Y-99840000D01*
X126715001Y-100975001D02*
X126379999Y-100639999D01*
X138250003Y-100975001D02*
X126715001Y-100975001D01*
X142800000Y-105524998D02*
X138250003Y-100975001D01*
X142800000Y-111200000D02*
X142800000Y-105524998D01*
X145369997Y-103804999D02*
X146834999Y-103804999D01*
X140289997Y-98724999D02*
X145369997Y-103804999D01*
X136224999Y-98724999D02*
X140289997Y-98724999D01*
X149700001Y-106670001D02*
X150500000Y-107470000D01*
X133674999Y-96174999D02*
X136224999Y-98724999D01*
X125329997Y-96174999D02*
X133674999Y-96174999D01*
X124454999Y-95300001D02*
X125329997Y-96174999D01*
X124454999Y-94683995D02*
X124454999Y-95300001D01*
X146834999Y-103804999D02*
X149700001Y-106670001D01*
X120000000Y-90228996D02*
X124454999Y-94683995D01*
X120000000Y-89680000D02*
X120000000Y-90228996D01*
X146834999Y-101264999D02*
X149700001Y-104130001D01*
X145364999Y-101264999D02*
X146834999Y-101264999D01*
X137484999Y-96184999D02*
X140284999Y-96184999D01*
X125039999Y-93634999D02*
X134934999Y-93634999D01*
X124454999Y-93049999D02*
X125039999Y-93634999D01*
X140284999Y-96184999D02*
X145364999Y-101264999D01*
X124454999Y-91194999D02*
X124454999Y-93049999D01*
X134934999Y-93634999D02*
X137484999Y-96184999D01*
X120400000Y-87140000D02*
X124454999Y-91194999D01*
X149700001Y-104130001D02*
X150500000Y-104930000D01*
X120000000Y-87140000D02*
X120400000Y-87140000D01*
X120400000Y-84600000D02*
X123400000Y-87600000D01*
X120000000Y-84600000D02*
X120400000Y-84600000D01*
X146834999Y-98724999D02*
X149700001Y-101590001D01*
X134994999Y-91094999D02*
X137544999Y-93644999D01*
X149700001Y-101590001D02*
X150500000Y-102390000D01*
X140044999Y-93644999D02*
X145124999Y-98724999D01*
X125329997Y-91094999D02*
X134994999Y-91094999D01*
X123400000Y-89165002D02*
X125329997Y-91094999D01*
X145124999Y-98724999D02*
X146834999Y-98724999D01*
X137544999Y-93644999D02*
X140044999Y-93644999D01*
X123400000Y-87600000D02*
X123400000Y-89165002D01*
X149700001Y-99050001D02*
X150500000Y-99850000D01*
X146834999Y-96184999D02*
X149700001Y-99050001D01*
X145369997Y-96184999D02*
X146834999Y-96184999D01*
X140289997Y-91104999D02*
X145369997Y-96184999D01*
X137749997Y-91104999D02*
X140289997Y-91104999D01*
X135199997Y-88554999D02*
X137749997Y-91104999D01*
X125329997Y-88554999D02*
X135199997Y-88554999D01*
X124454999Y-87680001D02*
X125329997Y-88554999D01*
X124454999Y-86114999D02*
X124454999Y-87680001D01*
X120400000Y-82060000D02*
X124454999Y-86114999D01*
X120000000Y-82060000D02*
X120400000Y-82060000D01*
X120000000Y-79520000D02*
X120400000Y-79520000D01*
X121450000Y-79520000D02*
X120000000Y-79520000D01*
X132864998Y-84200000D02*
X126130000Y-84200000D01*
X126130000Y-84200000D02*
X121450000Y-79520000D01*
X150500000Y-97310000D02*
X146834999Y-93644999D01*
X146834999Y-93644999D02*
X145344999Y-93644999D01*
X145344999Y-93644999D02*
X140264999Y-88564999D01*
X140264999Y-88564999D02*
X137229997Y-88564999D01*
X137229997Y-88564999D02*
X132864998Y-84200000D01*
X128325001Y-82725001D02*
X122580000Y-76980000D01*
X134026409Y-84725001D02*
X132026409Y-82725001D01*
X135648001Y-84725001D02*
X134026409Y-84725001D01*
X122580000Y-76980000D02*
X120000000Y-76980000D01*
X135998003Y-84374999D02*
X135648001Y-84725001D01*
X132026409Y-82725001D02*
X128325001Y-82725001D01*
X138639997Y-84374999D02*
X135998003Y-84374999D01*
X146834999Y-91104999D02*
X145369997Y-91104999D01*
X145369997Y-91104999D02*
X138639997Y-84374999D01*
X150500000Y-94770000D02*
X146834999Y-91104999D01*
X121450000Y-74440000D02*
X128210000Y-81200000D01*
X120000000Y-74440000D02*
X121450000Y-74440000D01*
X149700001Y-91430001D02*
X150500000Y-92230000D01*
X146834999Y-88564999D02*
X149700001Y-91430001D01*
X145369997Y-88564999D02*
X146834999Y-88564999D01*
X144494999Y-87690001D02*
X145369997Y-88564999D01*
X144494999Y-86609999D02*
X144494999Y-87690001D01*
X139085000Y-81200000D02*
X144494999Y-86609999D01*
X128210000Y-81200000D02*
X139085000Y-81200000D01*
X149700001Y-88890001D02*
X150500000Y-89690000D01*
X130299990Y-80749990D02*
X141559990Y-80749990D01*
X121450000Y-71900000D02*
X130299990Y-80749990D01*
X141559990Y-80749990D02*
X149700001Y-88890001D01*
X120000000Y-71900000D02*
X121450000Y-71900000D01*
X145620000Y-89690000D02*
X141800000Y-85870000D01*
X141800000Y-85870000D02*
X141800000Y-85870000D01*
X141800000Y-85870000D02*
X138778996Y-82848996D01*
X166700000Y-96150000D02*
X170620000Y-92230000D01*
X152700000Y-113764998D02*
X157579999Y-108884999D01*
X157579999Y-108884999D02*
X160710003Y-108884999D01*
X166700000Y-102895002D02*
X166700000Y-96150000D01*
X152700000Y-120381000D02*
X152700000Y-113764998D01*
X160710003Y-108884999D02*
X166700000Y-102895002D01*
X150160000Y-120381000D02*
X150160000Y-115668588D01*
X171419999Y-93970001D02*
X170620000Y-94770000D01*
X150160000Y-115668588D02*
X156614294Y-109214294D01*
X156614294Y-109214294D02*
X156614294Y-107310704D01*
X156614294Y-107310704D02*
X157869997Y-106055001D01*
X171745001Y-93644999D02*
X171419999Y-93970001D01*
X164084999Y-103515001D02*
X166249990Y-101350010D01*
X171160001Y-91104999D02*
X171745001Y-91689999D01*
X157869997Y-106055001D02*
X160209997Y-106055001D01*
X171745001Y-91689999D02*
X171745001Y-93644999D01*
X160209997Y-106055001D02*
X162749997Y-103515001D01*
X162749997Y-103515001D02*
X164084999Y-103515001D01*
X170079999Y-91104999D02*
X171160001Y-91104999D01*
X166249990Y-101350010D02*
X166249990Y-94935008D01*
X166249990Y-94935008D02*
X170079999Y-91104999D01*
X172195011Y-100814989D02*
X171419999Y-101590001D01*
X172195011Y-89600009D02*
X172195011Y-100814989D01*
X171419999Y-101590001D02*
X170620000Y-102390000D01*
X171160001Y-88564999D02*
X172195011Y-89600009D01*
X165799980Y-92845018D02*
X170079999Y-88564999D01*
X147620000Y-120381000D02*
X147620000Y-116702000D01*
X148922000Y-115400000D02*
X149792178Y-115400000D01*
X147620000Y-116702000D02*
X148922000Y-115400000D01*
X149792178Y-115400000D02*
X156164284Y-109027894D01*
X170079999Y-88564999D02*
X171160001Y-88564999D01*
X156164284Y-109027894D02*
X156164284Y-105220714D01*
X156164284Y-105220714D02*
X157579999Y-103804999D01*
X163250003Y-101264999D02*
X165799980Y-98715022D01*
X157579999Y-103804999D02*
X158660001Y-103804999D01*
X158660001Y-103804999D02*
X161200001Y-101264999D01*
X165799980Y-98715022D02*
X165799980Y-92845018D01*
X161200001Y-101264999D02*
X163250003Y-101264999D01*
X171419999Y-104130001D02*
X170620000Y-104930000D01*
X172645020Y-102904980D02*
X171419999Y-104130001D01*
X172645020Y-87510018D02*
X172645020Y-102904980D01*
X171160001Y-86024999D02*
X172645020Y-87510018D01*
X170079999Y-86024999D02*
X171160001Y-86024999D01*
X145080000Y-120381000D02*
X145080000Y-116702000D01*
X145080000Y-116702000D02*
X146832010Y-114949990D01*
X161200001Y-98435001D02*
X164364999Y-98435001D01*
X149605778Y-114949990D02*
X155714274Y-108841494D01*
X165349970Y-90755028D02*
X170079999Y-86024999D01*
X155714274Y-108841494D02*
X155714274Y-103130724D01*
X155714274Y-103130724D02*
X157579999Y-101264999D01*
X165349970Y-97450030D02*
X165349970Y-90755028D01*
X157579999Y-101264999D02*
X158370003Y-101264999D01*
X158370003Y-101264999D02*
X161200001Y-98435001D01*
X146832010Y-114949990D02*
X149605778Y-114949990D01*
X164364999Y-98435001D02*
X165349970Y-97450030D01*
X106210000Y-74440000D02*
X110000000Y-78230000D01*
X104760000Y-74440000D02*
X106210000Y-74440000D01*
X110000000Y-78230000D02*
X110000000Y-78230000D01*
X119134006Y-68234990D02*
X136834990Y-68234990D01*
X115399999Y-72830001D02*
X115399999Y-71968997D01*
X115399999Y-71968997D02*
X119134006Y-68234990D01*
X158120000Y-89520000D02*
X158120000Y-89690000D01*
X115000000Y-73230000D02*
X115399999Y-72830001D01*
X136834990Y-68234990D02*
X158120000Y-89520000D01*
X106210000Y-76980000D02*
X110000000Y-80770000D01*
X104760000Y-76980000D02*
X106210000Y-76980000D01*
X110000000Y-80770000D02*
X110000000Y-80770000D01*
X149450000Y-87150000D02*
X150500000Y-87150000D01*
X142599980Y-80299980D02*
X149450000Y-87150000D01*
X115000000Y-74908996D02*
X119134006Y-70774990D01*
X119134006Y-70774990D02*
X123474990Y-70774990D01*
X115000000Y-75770000D02*
X115000000Y-74908996D01*
X123474990Y-70774990D02*
X132999980Y-80299980D01*
X132999980Y-80299980D02*
X142599980Y-80299980D01*
X112415010Y-78105010D02*
X106210000Y-71900000D01*
X121539325Y-78105010D02*
X112415010Y-78105010D01*
X123934315Y-80500000D02*
X121539325Y-78105010D01*
X124500000Y-80500000D02*
X123934315Y-80500000D01*
X105625994Y-68234990D02*
X106285010Y-68894006D01*
X106285010Y-68894006D02*
X106285010Y-71824990D01*
X103798600Y-68234990D02*
X105625994Y-68234990D01*
X102334970Y-110202384D02*
X102334971Y-69698619D01*
X106210000Y-71900000D02*
X104760000Y-71900000D01*
X106285010Y-71824990D02*
X106210000Y-71900000D01*
X109520000Y-117387414D02*
X102334970Y-110202384D01*
X102334971Y-69698619D02*
X103798600Y-68234990D01*
X109520000Y-120381000D02*
X109520000Y-117387414D01*
X126711370Y-87140000D02*
X127951370Y-85900000D01*
X125580000Y-87140000D02*
X126711370Y-87140000D01*
X127951370Y-85900000D02*
X131500000Y-85900000D01*
X131500000Y-85900000D02*
X131500000Y-85900000D01*
X152075011Y-110099991D02*
X152075011Y-84575011D01*
X151040001Y-111135001D02*
X152075011Y-110099991D01*
X142540000Y-116702000D02*
X148106999Y-111135001D01*
X148106999Y-111135001D02*
X151040001Y-111135001D01*
X152075011Y-84575011D02*
X151000000Y-83500000D01*
X151000000Y-83500000D02*
X151000000Y-83500000D01*
X138000000Y-85100000D02*
X138000000Y-87150000D01*
X139338000Y-113500000D02*
X139000000Y-113500000D01*
X142540000Y-116702000D02*
X139338000Y-113500000D01*
X142540000Y-120381000D02*
X142540000Y-116702000D01*
X119134006Y-80934990D02*
X122228580Y-80934990D01*
X122228580Y-80934990D02*
X125943600Y-84650010D01*
X104760000Y-84600000D02*
X115468996Y-84600000D01*
X115468996Y-84600000D02*
X119134006Y-80934990D01*
X125943600Y-84650010D02*
X129650010Y-84650010D01*
X129650010Y-84650010D02*
X130000000Y-85000000D01*
X130000000Y-85000000D02*
X130000000Y-85000000D01*
X125830012Y-98425010D02*
X104835010Y-98425010D01*
X104760000Y-98350000D02*
X104760000Y-97300000D01*
X104835010Y-98425010D02*
X104760000Y-98350000D01*
X127245002Y-99840000D02*
X125830012Y-98425010D01*
X133200000Y-99840000D02*
X127245002Y-99840000D01*
X104760000Y-100890000D02*
X104760000Y-99840000D01*
X126068591Y-100965001D02*
X104835001Y-100965001D01*
X104835001Y-100965001D02*
X104760000Y-100890000D01*
X127483590Y-102380000D02*
X126068591Y-100965001D01*
X133200000Y-102380000D02*
X127483590Y-102380000D01*
X104835010Y-103505010D02*
X104760000Y-103430000D01*
X125830012Y-103505010D02*
X104835010Y-103505010D01*
X104760000Y-103430000D02*
X104760000Y-102380000D01*
X127245002Y-104920000D02*
X125830012Y-103505010D01*
X133200000Y-104920000D02*
X127245002Y-104920000D01*
X104835010Y-106045010D02*
X104760000Y-105970000D01*
X104760000Y-105970000D02*
X104760000Y-104920000D01*
X127245002Y-107460000D02*
X125830012Y-106045010D01*
X125830012Y-106045010D02*
X104835010Y-106045010D01*
X133200000Y-107460000D02*
X127245002Y-107460000D01*
X120180000Y-67000000D02*
X120000000Y-66820000D01*
X127000000Y-67000000D02*
X120180000Y-67000000D01*
X179175001Y-95245001D02*
X179175001Y-102926999D01*
X165400000Y-116702000D02*
X165400000Y-120381000D01*
X179175001Y-102926999D02*
X165400000Y-116702000D01*
X178000000Y-94070000D02*
X179175001Y-95245001D01*
X140000000Y-116702000D02*
X136998000Y-113700000D01*
X140000000Y-120381000D02*
X140000000Y-116702000D01*
X136998000Y-113700000D02*
X133200000Y-113700000D01*
X133200000Y-113700000D02*
X133200000Y-113700000D01*
X103310000Y-87140000D02*
X104760000Y-87140000D01*
X103234990Y-107925994D02*
X103234990Y-87215010D01*
X103894006Y-108585010D02*
X103234990Y-107925994D01*
X107342002Y-108585010D02*
X103894006Y-108585010D01*
X103234990Y-87215010D02*
X103310000Y-87140000D01*
X111156992Y-112400000D02*
X107342002Y-108585010D01*
X131900000Y-112400000D02*
X111156992Y-112400000D01*
X138274999Y-113151999D02*
X138976988Y-112450010D01*
X138274999Y-113848001D02*
X138274999Y-113151999D01*
X140000000Y-120381000D02*
X140000000Y-115573002D01*
X138976988Y-112450010D02*
X145949990Y-112450010D01*
X140000000Y-115573002D02*
X138274999Y-113848001D01*
X145949990Y-112450010D02*
X148400000Y-110000000D01*
X148400000Y-110000000D02*
X148700000Y-110000000D01*
X148700000Y-110000000D02*
X148700000Y-110000000D01*
X103310000Y-69360000D02*
X104760000Y-69360000D01*
X102784980Y-69885020D02*
X103310000Y-69360000D01*
X102784980Y-110015984D02*
X102784980Y-69885020D01*
X103894006Y-111125010D02*
X102784980Y-110015984D01*
X109023010Y-111125010D02*
X103894006Y-111125010D01*
X114600000Y-116702000D02*
X109023010Y-111125010D01*
X114600000Y-120381000D02*
X114600000Y-116702000D01*
X155227010Y-114174990D02*
X156925010Y-114174990D01*
X154000000Y-115402000D02*
X155227010Y-114174990D01*
X156925010Y-114174990D02*
X162500000Y-108600000D01*
X162500000Y-108600000D02*
X162500000Y-108600000D01*
D23*
G36*
X179940000Y-114932418D02*
G01*
X179940001Y-114932428D01*
X179940001Y-116873000D01*
X179492291Y-116873000D01*
X179487812Y-116827518D01*
X179451502Y-116707820D01*
X179392537Y-116597506D01*
X179313185Y-116500815D01*
X179216494Y-116421463D01*
X179106180Y-116362498D01*
X178986482Y-116326188D01*
X178862000Y-116313928D01*
X178385750Y-116317000D01*
X178227000Y-116475750D01*
X178227000Y-116873000D01*
X177973000Y-116873000D01*
X177973000Y-116475750D01*
X177814250Y-116317000D01*
X177338000Y-116313928D01*
X177213518Y-116326188D01*
X177093820Y-116362498D01*
X176983506Y-116421463D01*
X176886815Y-116500815D01*
X176830000Y-116570044D01*
X176773185Y-116500815D01*
X176676494Y-116421463D01*
X176566180Y-116362498D01*
X176446482Y-116326188D01*
X176322000Y-116313928D01*
X176320000Y-116313928D01*
X176320000Y-115703711D01*
X176363937Y-115659774D01*
X176477205Y-115490256D01*
X176555226Y-115301898D01*
X176595000Y-115101939D01*
X176595000Y-114898061D01*
X176555226Y-114698102D01*
X176477205Y-114509744D01*
X176363937Y-114340226D01*
X176219774Y-114196063D01*
X176050256Y-114082795D01*
X175861898Y-114004774D01*
X175661939Y-113965000D01*
X175458061Y-113965000D01*
X175258102Y-114004774D01*
X175069744Y-114082795D01*
X174900226Y-114196063D01*
X174756063Y-114340226D01*
X174642795Y-114509744D01*
X174564774Y-114698102D01*
X174525000Y-114898061D01*
X174525000Y-115101939D01*
X174564774Y-115301898D01*
X174642795Y-115490256D01*
X174756063Y-115659774D01*
X174800001Y-115703712D01*
X174800001Y-116313928D01*
X174798000Y-116313928D01*
X174673518Y-116326188D01*
X174553820Y-116362498D01*
X174443506Y-116421463D01*
X174346815Y-116500815D01*
X174290000Y-116570044D01*
X174233185Y-116500815D01*
X174136494Y-116421463D01*
X174026180Y-116362498D01*
X173906482Y-116326188D01*
X173905000Y-116326042D01*
X173905000Y-113658454D01*
X173937205Y-113610256D01*
X174015226Y-113421898D01*
X174055000Y-113221939D01*
X174055000Y-113018061D01*
X174015226Y-112818102D01*
X173937205Y-112629744D01*
X173823937Y-112460226D01*
X173679774Y-112316063D01*
X173510256Y-112202795D01*
X173321898Y-112124774D01*
X173121939Y-112085000D01*
X172918061Y-112085000D01*
X172718102Y-112124774D01*
X172529744Y-112202795D01*
X172360226Y-112316063D01*
X172216063Y-112460226D01*
X172102795Y-112629744D01*
X172024774Y-112818102D01*
X171985000Y-113018061D01*
X171985000Y-113221939D01*
X172024774Y-113421898D01*
X172102795Y-113610256D01*
X172135001Y-113658456D01*
X172135001Y-116326042D01*
X172133518Y-116326188D01*
X172013820Y-116362498D01*
X171903506Y-116421463D01*
X171806815Y-116500815D01*
X171750000Y-116570044D01*
X171693185Y-116500815D01*
X171596494Y-116421463D01*
X171486180Y-116362498D01*
X171366482Y-116326188D01*
X171242000Y-116313928D01*
X169718000Y-116313928D01*
X169593518Y-116326188D01*
X169473820Y-116362498D01*
X169363506Y-116421463D01*
X169266815Y-116500815D01*
X169210000Y-116570044D01*
X169153185Y-116500815D01*
X169056494Y-116421463D01*
X168946180Y-116362498D01*
X168826482Y-116326188D01*
X168702000Y-116313928D01*
X167178000Y-116313928D01*
X167053518Y-116326188D01*
X166933820Y-116362498D01*
X166823506Y-116421463D01*
X166726815Y-116500815D01*
X166670000Y-116570044D01*
X166641493Y-116535308D01*
X179686004Y-103490798D01*
X179715002Y-103467000D01*
X179809975Y-103351275D01*
X179880547Y-103219246D01*
X179924004Y-103075985D01*
X179935001Y-102964332D01*
X179935001Y-102964323D01*
X179938677Y-102927000D01*
X179935001Y-102889677D01*
X179935001Y-95282323D01*
X179938677Y-95245000D01*
X179935001Y-95207677D01*
X179935001Y-95207668D01*
X179924004Y-95096015D01*
X179880547Y-94952754D01*
X179809975Y-94820725D01*
X179715002Y-94705000D01*
X179686005Y-94681203D01*
X179441210Y-94436408D01*
X179485000Y-94216260D01*
X179485000Y-93923740D01*
X179427932Y-93636842D01*
X179315990Y-93366589D01*
X179153475Y-93123368D01*
X178946632Y-92916525D01*
X178772240Y-92800000D01*
X178946632Y-92683475D01*
X179153475Y-92476632D01*
X179315990Y-92233411D01*
X179427932Y-91963158D01*
X179485000Y-91676260D01*
X179485000Y-91383740D01*
X179427932Y-91096842D01*
X179315990Y-90826589D01*
X179153475Y-90583368D01*
X178946632Y-90376525D01*
X178703411Y-90214010D01*
X178433158Y-90102068D01*
X178146260Y-90045000D01*
X177853740Y-90045000D01*
X177566842Y-90102068D01*
X177296589Y-90214010D01*
X177053368Y-90376525D01*
X176846525Y-90583368D01*
X176728900Y-90759406D01*
X176557588Y-90529731D01*
X176341355Y-90334822D01*
X176091252Y-90185843D01*
X175816891Y-90088519D01*
X175587000Y-90209186D01*
X175587000Y-91403000D01*
X175607000Y-91403000D01*
X175607000Y-91657000D01*
X175587000Y-91657000D01*
X175587000Y-93943000D01*
X175607000Y-93943000D01*
X175607000Y-94197000D01*
X175587000Y-94197000D01*
X175587000Y-96483000D01*
X175607000Y-96483000D01*
X175607000Y-96737000D01*
X175587000Y-96737000D01*
X175587000Y-99023000D01*
X175607000Y-99023000D01*
X175607000Y-99277000D01*
X175587000Y-99277000D01*
X175587000Y-100470814D01*
X175816891Y-100591481D01*
X176091252Y-100494157D01*
X176341355Y-100345178D01*
X176537502Y-100168374D01*
X176560498Y-100244180D01*
X176619463Y-100354494D01*
X176698815Y-100451185D01*
X176795506Y-100530537D01*
X176905820Y-100589502D01*
X177025518Y-100625812D01*
X177150000Y-100638072D01*
X178415002Y-100638072D01*
X178415002Y-102612196D01*
X164889003Y-116138196D01*
X164859999Y-116161999D01*
X164822267Y-116207976D01*
X164765026Y-116277724D01*
X164745674Y-116313928D01*
X164638000Y-116313928D01*
X164513518Y-116326188D01*
X164393820Y-116362498D01*
X164283506Y-116421463D01*
X164186815Y-116500815D01*
X164130000Y-116570044D01*
X164073185Y-116500815D01*
X163976494Y-116421463D01*
X163866180Y-116362498D01*
X163746482Y-116326188D01*
X163622000Y-116313928D01*
X162098000Y-116313928D01*
X161973518Y-116326188D01*
X161853820Y-116362498D01*
X161743506Y-116421463D01*
X161646815Y-116500815D01*
X161590000Y-116570044D01*
X161533185Y-116500815D01*
X161436494Y-116421463D01*
X161326180Y-116362498D01*
X161206482Y-116326188D01*
X161082000Y-116313928D01*
X159558000Y-116313928D01*
X159433518Y-116326188D01*
X159313820Y-116362498D01*
X159203506Y-116421463D01*
X159106815Y-116500815D01*
X159050000Y-116570044D01*
X158993185Y-116500815D01*
X158896494Y-116421463D01*
X158786180Y-116362498D01*
X158666482Y-116326188D01*
X158542000Y-116313928D01*
X157018000Y-116313928D01*
X156893518Y-116326188D01*
X156773820Y-116362498D01*
X156663506Y-116421463D01*
X156566815Y-116500815D01*
X156510000Y-116570044D01*
X156453185Y-116500815D01*
X156356494Y-116421463D01*
X156246180Y-116362498D01*
X156126482Y-116326188D01*
X156002000Y-116313928D01*
X155525750Y-116317000D01*
X155367000Y-116475750D01*
X155367000Y-116873000D01*
X155113000Y-116873000D01*
X155113000Y-116475750D01*
X154954250Y-116317000D01*
X154497961Y-116314057D01*
X154659774Y-116205937D01*
X154803937Y-116061774D01*
X154917205Y-115892256D01*
X154995226Y-115703898D01*
X155035000Y-115503939D01*
X155035000Y-115441801D01*
X155541812Y-114934990D01*
X156887688Y-114934990D01*
X156925010Y-114938666D01*
X156962332Y-114934990D01*
X156962343Y-114934990D01*
X157073996Y-114923993D01*
X157217257Y-114880536D01*
X157349286Y-114809964D01*
X157465011Y-114714991D01*
X157488814Y-114685987D01*
X162539803Y-109635000D01*
X162601939Y-109635000D01*
X162801898Y-109595226D01*
X162990256Y-109517205D01*
X163159774Y-109403937D01*
X163303937Y-109259774D01*
X163417205Y-109090256D01*
X163495226Y-108901898D01*
X163535000Y-108701939D01*
X163535000Y-108498061D01*
X163495226Y-108298102D01*
X163417205Y-108109744D01*
X163303937Y-107940226D01*
X163159774Y-107796063D01*
X162990256Y-107682795D01*
X162987960Y-107681844D01*
X167211004Y-103458800D01*
X167240001Y-103435003D01*
X167284547Y-103380724D01*
X167334974Y-103319279D01*
X167405546Y-103187249D01*
X167407745Y-103179999D01*
X167449003Y-103043988D01*
X167460000Y-102932335D01*
X167460000Y-102932325D01*
X167463676Y-102895002D01*
X167460000Y-102857680D01*
X167460000Y-96464801D01*
X169185000Y-94739801D01*
X169185000Y-94911335D01*
X169240147Y-95188574D01*
X169348320Y-95449727D01*
X169505363Y-95684759D01*
X169705241Y-95884637D01*
X169937759Y-96040000D01*
X169705241Y-96195363D01*
X169505363Y-96395241D01*
X169348320Y-96630273D01*
X169240147Y-96891426D01*
X169185000Y-97168665D01*
X169185000Y-97451335D01*
X169240147Y-97728574D01*
X169348320Y-97989727D01*
X169505363Y-98224759D01*
X169705241Y-98424637D01*
X169937759Y-98580000D01*
X169705241Y-98735363D01*
X169505363Y-98935241D01*
X169348320Y-99170273D01*
X169240147Y-99431426D01*
X169185000Y-99708665D01*
X169185000Y-99991335D01*
X169240147Y-100268574D01*
X169348320Y-100529727D01*
X169505363Y-100764759D01*
X169705241Y-100964637D01*
X169937759Y-101120000D01*
X169705241Y-101275363D01*
X169505363Y-101475241D01*
X169348320Y-101710273D01*
X169240147Y-101971426D01*
X169185000Y-102248665D01*
X169185000Y-102531335D01*
X169240147Y-102808574D01*
X169348320Y-103069727D01*
X169505363Y-103304759D01*
X169705241Y-103504637D01*
X169937759Y-103660000D01*
X169705241Y-103815363D01*
X169505363Y-104015241D01*
X169348320Y-104250273D01*
X169240147Y-104511426D01*
X169185000Y-104788665D01*
X169185000Y-105071335D01*
X169240147Y-105348574D01*
X169348320Y-105609727D01*
X169505363Y-105844759D01*
X169705241Y-106044637D01*
X169940273Y-106201680D01*
X170201426Y-106309853D01*
X170478665Y-106365000D01*
X170761335Y-106365000D01*
X171038574Y-106309853D01*
X171299727Y-106201680D01*
X171534759Y-106044637D01*
X171734637Y-105844759D01*
X171891680Y-105609727D01*
X171999853Y-105348574D01*
X172055000Y-105071335D01*
X172055000Y-104788665D01*
X172018688Y-104606113D01*
X172559982Y-104064820D01*
X172504774Y-104198102D01*
X172465000Y-104398061D01*
X172465000Y-104601939D01*
X172504774Y-104801898D01*
X172582795Y-104990256D01*
X172696063Y-105159774D01*
X172840226Y-105303937D01*
X173009744Y-105417205D01*
X173198102Y-105495226D01*
X173398061Y-105535000D01*
X173601939Y-105535000D01*
X173801898Y-105495226D01*
X173990256Y-105417205D01*
X174159774Y-105303937D01*
X174303937Y-105159774D01*
X174417205Y-104990256D01*
X174495226Y-104801898D01*
X174535000Y-104601939D01*
X174535000Y-104398061D01*
X174495226Y-104198102D01*
X174417205Y-104009744D01*
X174385000Y-103961546D01*
X174385000Y-102138454D01*
X174417205Y-102090256D01*
X174495226Y-101901898D01*
X174535000Y-101701939D01*
X174535000Y-101498061D01*
X174495226Y-101298102D01*
X174417205Y-101109744D01*
X174303937Y-100940226D01*
X174159774Y-100796063D01*
X173990256Y-100682795D01*
X173801898Y-100604774D01*
X173601939Y-100565000D01*
X173405020Y-100565000D01*
X173405020Y-99506890D01*
X174018524Y-99506890D01*
X174063175Y-99654099D01*
X174188359Y-99916920D01*
X174362412Y-100150269D01*
X174578645Y-100345178D01*
X174828748Y-100494157D01*
X175103109Y-100591481D01*
X175333000Y-100470814D01*
X175333000Y-99277000D01*
X174139845Y-99277000D01*
X174018524Y-99506890D01*
X173405020Y-99506890D01*
X173405020Y-96966890D01*
X174018524Y-96966890D01*
X174063175Y-97114099D01*
X174188359Y-97376920D01*
X174362412Y-97610269D01*
X174578645Y-97805178D01*
X174704255Y-97880000D01*
X174578645Y-97954822D01*
X174362412Y-98149731D01*
X174188359Y-98383080D01*
X174063175Y-98645901D01*
X174018524Y-98793110D01*
X174139845Y-99023000D01*
X175333000Y-99023000D01*
X175333000Y-96737000D01*
X174139845Y-96737000D01*
X174018524Y-96966890D01*
X173405020Y-96966890D01*
X173405020Y-95135000D01*
X173601939Y-95135000D01*
X173801898Y-95095226D01*
X173990256Y-95017205D01*
X174159774Y-94903937D01*
X174204778Y-94858933D01*
X174362412Y-95070269D01*
X174578645Y-95265178D01*
X174704255Y-95340000D01*
X174578645Y-95414822D01*
X174362412Y-95609731D01*
X174188359Y-95843080D01*
X174063175Y-96105901D01*
X174018524Y-96253110D01*
X174139845Y-96483000D01*
X175333000Y-96483000D01*
X175333000Y-94197000D01*
X175313000Y-94197000D01*
X175313000Y-93943000D01*
X175333000Y-93943000D01*
X175333000Y-91657000D01*
X174139845Y-91657000D01*
X174129800Y-91676035D01*
X173990256Y-91582795D01*
X173801898Y-91504774D01*
X173601939Y-91465000D01*
X173405020Y-91465000D01*
X173405020Y-91173110D01*
X174018524Y-91173110D01*
X174139845Y-91403000D01*
X175333000Y-91403000D01*
X175333000Y-90209186D01*
X175103109Y-90088519D01*
X174828748Y-90185843D01*
X174578645Y-90334822D01*
X174362412Y-90529731D01*
X174188359Y-90763080D01*
X174063175Y-91025901D01*
X174018524Y-91173110D01*
X173405020Y-91173110D01*
X173405020Y-87547340D01*
X173408696Y-87510017D01*
X173405020Y-87472695D01*
X173405020Y-87472685D01*
X173394023Y-87361032D01*
X173350566Y-87217771D01*
X173314341Y-87149999D01*
X173279994Y-87085741D01*
X173208819Y-86999015D01*
X173185021Y-86970017D01*
X173156024Y-86946220D01*
X171723805Y-85514002D01*
X171700002Y-85484998D01*
X171584277Y-85390025D01*
X171452248Y-85319453D01*
X171308987Y-85275996D01*
X171197334Y-85264999D01*
X171197323Y-85264999D01*
X171160001Y-85261323D01*
X171122679Y-85264999D01*
X170117321Y-85264999D01*
X170079998Y-85261323D01*
X170042675Y-85264999D01*
X170042666Y-85264999D01*
X169931013Y-85275996D01*
X169787752Y-85319453D01*
X169655723Y-85390025D01*
X169539998Y-85484998D01*
X169516201Y-85513995D01*
X169034999Y-85995197D01*
X169034999Y-85939800D01*
X172214801Y-82760000D01*
X173796289Y-82760000D01*
X173840226Y-82803937D01*
X174009744Y-82917205D01*
X174198102Y-82995226D01*
X174398061Y-83035000D01*
X174601939Y-83035000D01*
X174801898Y-82995226D01*
X174990256Y-82917205D01*
X175159774Y-82803937D01*
X175303937Y-82659774D01*
X175417205Y-82490256D01*
X175495226Y-82301898D01*
X175535000Y-82101939D01*
X175535000Y-81898061D01*
X175495226Y-81698102D01*
X175417205Y-81509744D01*
X175303937Y-81340226D01*
X175159774Y-81196063D01*
X174990256Y-81082795D01*
X174801898Y-81004774D01*
X174601939Y-80965000D01*
X174398061Y-80965000D01*
X174198102Y-81004774D01*
X174009744Y-81082795D01*
X173840226Y-81196063D01*
X173796289Y-81240000D01*
X171937320Y-81240000D01*
X171899997Y-81236324D01*
X171862674Y-81240000D01*
X171862665Y-81240000D01*
X171751012Y-81250997D01*
X171607751Y-81294454D01*
X171475722Y-81365026D01*
X171475720Y-81365027D01*
X171475721Y-81365027D01*
X171388994Y-81436201D01*
X171388990Y-81436205D01*
X171359997Y-81459999D01*
X171336203Y-81488992D01*
X167960198Y-84864999D01*
X167898060Y-84864999D01*
X167698101Y-84904773D01*
X167509743Y-84982794D01*
X167461545Y-85014999D01*
X159413466Y-85014999D01*
X159370000Y-85010718D01*
X159326534Y-85014999D01*
X159326524Y-85014999D01*
X159196511Y-85027804D01*
X159029688Y-85078410D01*
X158875942Y-85160588D01*
X158871231Y-85164454D01*
X158774954Y-85243467D01*
X158774952Y-85243469D01*
X158741184Y-85271182D01*
X158713471Y-85304950D01*
X158296439Y-85721983D01*
X158261335Y-85715000D01*
X157978665Y-85715000D01*
X157701426Y-85770147D01*
X157440273Y-85878320D01*
X157205241Y-86035363D01*
X157005363Y-86235241D01*
X156848320Y-86470273D01*
X156740147Y-86731426D01*
X156685000Y-87008665D01*
X156685000Y-87010198D01*
X140559801Y-70885000D01*
X140661546Y-70885000D01*
X140709744Y-70917205D01*
X140898102Y-70995226D01*
X141098061Y-71035000D01*
X141301939Y-71035000D01*
X141501898Y-70995226D01*
X141690256Y-70917205D01*
X141859774Y-70803937D01*
X142003937Y-70659774D01*
X142117205Y-70490256D01*
X142195226Y-70301898D01*
X142235000Y-70101939D01*
X142235000Y-69898061D01*
X142195226Y-69698102D01*
X142117205Y-69509744D01*
X142003937Y-69340226D01*
X141859774Y-69196063D01*
X141690256Y-69082795D01*
X141501898Y-69004774D01*
X141301939Y-68965000D01*
X141098061Y-68965000D01*
X140898102Y-69004774D01*
X140709744Y-69082795D01*
X140664563Y-69112984D01*
X136129450Y-64577871D01*
X137460000Y-64577871D01*
X137460000Y-64822129D01*
X137507652Y-65061695D01*
X137601126Y-65287360D01*
X137736829Y-65490454D01*
X137909546Y-65663171D01*
X138112640Y-65798874D01*
X138338305Y-65892348D01*
X138577871Y-65940000D01*
X138822129Y-65940000D01*
X139061695Y-65892348D01*
X139287360Y-65798874D01*
X139490454Y-65663171D01*
X139663171Y-65490454D01*
X139798874Y-65287360D01*
X139892348Y-65061695D01*
X139940000Y-64822129D01*
X139940000Y-64577871D01*
X139892348Y-64338305D01*
X139798874Y-64112640D01*
X139663171Y-63909546D01*
X139490454Y-63736829D01*
X139287360Y-63601126D01*
X139061695Y-63507652D01*
X138822129Y-63460000D01*
X138577871Y-63460000D01*
X138338305Y-63507652D01*
X138112640Y-63601126D01*
X137909546Y-63736829D01*
X137736829Y-63909546D01*
X137601126Y-64112640D01*
X137507652Y-64338305D01*
X137460000Y-64577871D01*
X136129450Y-64577871D01*
X135374990Y-63823412D01*
X135374990Y-62548464D01*
X135407195Y-62500266D01*
X135485216Y-62311908D01*
X135524990Y-62111949D01*
X135524990Y-61908071D01*
X135485216Y-61708112D01*
X135407195Y-61519754D01*
X135293927Y-61350236D01*
X135149764Y-61206073D01*
X134980246Y-61092805D01*
X134791888Y-61014784D01*
X134591929Y-60975010D01*
X134388051Y-60975010D01*
X134188092Y-61014784D01*
X133999734Y-61092805D01*
X133830216Y-61206073D01*
X133686053Y-61350236D01*
X133572785Y-61519754D01*
X133494764Y-61708112D01*
X133454990Y-61908071D01*
X133454990Y-62111949D01*
X133494764Y-62311908D01*
X133572785Y-62500266D01*
X133604991Y-62548465D01*
X133604990Y-64146521D01*
X133600709Y-64189990D01*
X133604990Y-64233459D01*
X133604990Y-64233466D01*
X133617795Y-64363479D01*
X133668401Y-64530302D01*
X133750579Y-64684048D01*
X133861173Y-64818807D01*
X133894946Y-64846524D01*
X136523412Y-67474990D01*
X127923528Y-67474990D01*
X127995226Y-67301898D01*
X128035000Y-67101939D01*
X128035000Y-66898061D01*
X127995226Y-66698102D01*
X127917205Y-66509744D01*
X127803937Y-66340226D01*
X127659774Y-66196063D01*
X127490256Y-66082795D01*
X127301898Y-66004774D01*
X127101939Y-65965000D01*
X126898061Y-65965000D01*
X126698102Y-66004774D01*
X126509744Y-66082795D01*
X126340226Y-66196063D01*
X126296289Y-66240000D01*
X121717113Y-66240000D01*
X121598932Y-66018899D01*
X121419608Y-65800392D01*
X121201101Y-65621068D01*
X121074393Y-65553341D01*
X130406264Y-65553341D01*
X130454179Y-65777434D01*
X130676401Y-65878823D01*
X130914133Y-65934910D01*
X131158239Y-65943541D01*
X131399339Y-65904383D01*
X131628166Y-65818941D01*
X131705821Y-65777434D01*
X131753736Y-65553341D01*
X131080000Y-64879605D01*
X130406264Y-65553341D01*
X121074393Y-65553341D01*
X121068142Y-65550000D01*
X121201101Y-65478932D01*
X121419608Y-65299608D01*
X121598932Y-65081101D01*
X121732182Y-64831808D01*
X121748431Y-64778239D01*
X129836459Y-64778239D01*
X129875617Y-65019339D01*
X129961059Y-65248166D01*
X130002566Y-65325821D01*
X130226659Y-65373736D01*
X130900395Y-64700000D01*
X131259605Y-64700000D01*
X131933341Y-65373736D01*
X132157434Y-65325821D01*
X132258823Y-65103599D01*
X132314910Y-64865867D01*
X132323541Y-64621761D01*
X132284383Y-64380661D01*
X132198941Y-64151834D01*
X132157434Y-64074179D01*
X131933341Y-64026264D01*
X131259605Y-64700000D01*
X130900395Y-64700000D01*
X130226659Y-64026264D01*
X130002566Y-64074179D01*
X129901177Y-64296401D01*
X129845090Y-64534133D01*
X129836459Y-64778239D01*
X121748431Y-64778239D01*
X121814236Y-64561309D01*
X121841943Y-64280000D01*
X121814236Y-63998691D01*
X121768119Y-63846659D01*
X130406264Y-63846659D01*
X131080000Y-64520395D01*
X131753736Y-63846659D01*
X131705821Y-63622566D01*
X131483599Y-63521177D01*
X131245867Y-63465090D01*
X131001761Y-63456459D01*
X130760661Y-63495617D01*
X130531834Y-63581059D01*
X130454179Y-63622566D01*
X130406264Y-63846659D01*
X121768119Y-63846659D01*
X121732182Y-63728192D01*
X121598932Y-63478899D01*
X121419608Y-63260392D01*
X121201101Y-63081068D01*
X121073259Y-63012735D01*
X121302839Y-62862601D01*
X121504500Y-62664895D01*
X121663715Y-62431646D01*
X121774367Y-62171818D01*
X121791904Y-62089039D01*
X121669915Y-61867000D01*
X120127000Y-61867000D01*
X120127000Y-61887000D01*
X119873000Y-61887000D01*
X119873000Y-61867000D01*
X118330085Y-61867000D01*
X118208096Y-62089039D01*
X118225633Y-62171818D01*
X118336285Y-62431646D01*
X118495500Y-62664895D01*
X118697161Y-62862601D01*
X118926741Y-63012735D01*
X118798899Y-63081068D01*
X118580392Y-63260392D01*
X118401068Y-63478899D01*
X118267818Y-63728192D01*
X118185764Y-63998691D01*
X118158057Y-64280000D01*
X118185764Y-64561309D01*
X118267818Y-64831808D01*
X118401068Y-65081101D01*
X118580392Y-65299608D01*
X118798899Y-65478932D01*
X118931858Y-65550000D01*
X118798899Y-65621068D01*
X118580392Y-65800392D01*
X118401068Y-66018899D01*
X118267818Y-66268192D01*
X118185764Y-66538691D01*
X118158057Y-66820000D01*
X118185764Y-67101309D01*
X118267818Y-67371808D01*
X118401068Y-67621101D01*
X118523684Y-67770510D01*
X114888997Y-71405198D01*
X114859999Y-71428996D01*
X114836201Y-71457994D01*
X114836200Y-71457995D01*
X114765025Y-71544721D01*
X114694453Y-71676751D01*
X114671926Y-71751015D01*
X114650997Y-71820011D01*
X114639999Y-71931664D01*
X114639999Y-71931675D01*
X114636323Y-71968997D01*
X114639999Y-72006319D01*
X114639999Y-72258841D01*
X114509744Y-72312795D01*
X114340226Y-72426063D01*
X114196063Y-72570226D01*
X114082795Y-72739744D01*
X114004774Y-72928102D01*
X113965000Y-73128061D01*
X113965000Y-73331939D01*
X114004774Y-73531898D01*
X114082795Y-73720256D01*
X114196063Y-73889774D01*
X114340226Y-74033937D01*
X114509744Y-74147205D01*
X114635076Y-74199119D01*
X114488998Y-74345197D01*
X114460000Y-74368995D01*
X114436202Y-74397993D01*
X114436201Y-74397994D01*
X114365026Y-74484720D01*
X114294454Y-74616750D01*
X114264180Y-74716554D01*
X114250998Y-74760010D01*
X114240000Y-74871663D01*
X114240000Y-74871674D01*
X114236324Y-74908996D01*
X114240000Y-74946318D01*
X114240000Y-75066289D01*
X114196063Y-75110226D01*
X114082795Y-75279744D01*
X114004774Y-75468102D01*
X113965000Y-75668061D01*
X113965000Y-75871939D01*
X114004774Y-76071898D01*
X114082795Y-76260256D01*
X114196063Y-76429774D01*
X114340226Y-76573937D01*
X114509744Y-76687205D01*
X114698102Y-76765226D01*
X114898061Y-76805000D01*
X115101939Y-76805000D01*
X115301898Y-76765226D01*
X115490256Y-76687205D01*
X115659774Y-76573937D01*
X115803937Y-76429774D01*
X115917205Y-76260256D01*
X115995226Y-76071898D01*
X116035000Y-75871939D01*
X116035000Y-75668061D01*
X115995226Y-75468102D01*
X115917205Y-75279744D01*
X115831828Y-75151969D01*
X118359836Y-72623962D01*
X118401068Y-72701101D01*
X118580392Y-72919608D01*
X118798899Y-73098932D01*
X118931858Y-73170000D01*
X118798899Y-73241068D01*
X118580392Y-73420392D01*
X118401068Y-73638899D01*
X118267818Y-73888192D01*
X118185764Y-74158691D01*
X118158057Y-74440000D01*
X118185764Y-74721309D01*
X118267818Y-74991808D01*
X118401068Y-75241101D01*
X118580392Y-75459608D01*
X118798899Y-75638932D01*
X118931858Y-75710000D01*
X118798899Y-75781068D01*
X118580392Y-75960392D01*
X118401068Y-76178899D01*
X118267818Y-76428192D01*
X118185764Y-76698691D01*
X118158057Y-76980000D01*
X118185764Y-77261309D01*
X118211154Y-77345010D01*
X112729812Y-77345010D01*
X107045010Y-71660209D01*
X107045010Y-68931328D01*
X107048686Y-68894005D01*
X107045010Y-68856682D01*
X107045010Y-68856673D01*
X107034013Y-68745020D01*
X106990556Y-68601759D01*
X106919984Y-68469730D01*
X106825011Y-68354005D01*
X106796014Y-68330208D01*
X106237334Y-67771529D01*
X106264500Y-67744895D01*
X106423715Y-67511646D01*
X106534367Y-67251818D01*
X106551904Y-67169039D01*
X106429915Y-66947000D01*
X104887000Y-66947000D01*
X104887000Y-66967000D01*
X104633000Y-66967000D01*
X104633000Y-66947000D01*
X103090085Y-66947000D01*
X102968096Y-67169039D01*
X102985633Y-67251818D01*
X103096285Y-67511646D01*
X103238310Y-67719711D01*
X103234801Y-67723987D01*
X101823969Y-69134820D01*
X101794971Y-69158618D01*
X101771173Y-69187616D01*
X101771172Y-69187617D01*
X101699997Y-69274343D01*
X101629425Y-69406373D01*
X101604968Y-69487000D01*
X101585969Y-69549633D01*
X101574972Y-69661286D01*
X101571295Y-69698619D01*
X101574972Y-69735952D01*
X101574970Y-110165062D01*
X101571294Y-110202384D01*
X101574970Y-110239706D01*
X101574970Y-110239716D01*
X101585967Y-110351369D01*
X101628030Y-110490036D01*
X101629424Y-110494630D01*
X101699996Y-110626660D01*
X101760788Y-110700734D01*
X101794969Y-110742384D01*
X101823967Y-110766182D01*
X102922785Y-111865000D01*
X101888212Y-111865000D01*
X101833253Y-111875932D01*
X101777501Y-111881423D01*
X101723894Y-111897685D01*
X101668933Y-111908617D01*
X101617158Y-111930063D01*
X101563553Y-111946324D01*
X101514149Y-111972731D01*
X101462376Y-111994176D01*
X101415786Y-112025307D01*
X101366377Y-112051716D01*
X101323068Y-112087259D01*
X101276480Y-112118388D01*
X101236859Y-112158009D01*
X101193551Y-112193551D01*
X101158009Y-112236859D01*
X101118388Y-112276480D01*
X101087259Y-112323068D01*
X101051716Y-112366377D01*
X101025307Y-112415786D01*
X100994176Y-112462376D01*
X100972731Y-112514149D01*
X100946324Y-112563553D01*
X100930063Y-112617158D01*
X100908617Y-112668933D01*
X100897685Y-112723894D01*
X100881423Y-112777501D01*
X100875932Y-112833253D01*
X100865000Y-112888212D01*
X100865000Y-112944248D01*
X100859509Y-113000000D01*
X100865000Y-113055752D01*
X100865000Y-113111788D01*
X100875932Y-113166747D01*
X100881423Y-113222499D01*
X100897685Y-113276106D01*
X100908617Y-113331067D01*
X100930063Y-113382842D01*
X100946324Y-113436447D01*
X100972731Y-113485851D01*
X100994176Y-113537624D01*
X101025307Y-113584214D01*
X101051716Y-113633623D01*
X101087259Y-113676932D01*
X101118388Y-113723520D01*
X101158009Y-113763141D01*
X101193551Y-113806449D01*
X101236859Y-113841991D01*
X101276480Y-113881612D01*
X101323068Y-113912741D01*
X101366377Y-113948284D01*
X101415786Y-113974693D01*
X101462376Y-114005824D01*
X101514149Y-114027269D01*
X101563553Y-114053676D01*
X101617158Y-114069937D01*
X101668933Y-114091383D01*
X101723894Y-114102315D01*
X101777501Y-114118577D01*
X101833253Y-114124068D01*
X101888212Y-114135000D01*
X103429869Y-114135000D01*
X105782671Y-116487803D01*
X105766815Y-116500815D01*
X105710000Y-116570044D01*
X105653185Y-116500815D01*
X105556494Y-116421463D01*
X105446180Y-116362498D01*
X105326482Y-116326188D01*
X105202000Y-116313928D01*
X103678000Y-116313928D01*
X103553518Y-116326188D01*
X103433820Y-116362498D01*
X103323506Y-116421463D01*
X103226815Y-116500815D01*
X103170000Y-116570044D01*
X103113185Y-116500815D01*
X103016494Y-116421463D01*
X102906180Y-116362498D01*
X102786482Y-116326188D01*
X102662000Y-116313928D01*
X102185750Y-116317000D01*
X102027000Y-116475750D01*
X102027000Y-116873000D01*
X101773000Y-116873000D01*
X101773000Y-116475750D01*
X101614250Y-116317000D01*
X101138000Y-116313928D01*
X101013518Y-116326188D01*
X100893820Y-116362498D01*
X100783506Y-116421463D01*
X100686815Y-116500815D01*
X100607463Y-116597506D01*
X100548498Y-116707820D01*
X100512188Y-116827518D01*
X100507709Y-116873000D01*
X100060000Y-116873000D01*
X100060000Y-61740000D01*
X102918057Y-61740000D01*
X102945764Y-62021309D01*
X103027818Y-62291808D01*
X103161068Y-62541101D01*
X103340392Y-62759608D01*
X103558899Y-62938932D01*
X103691858Y-63010000D01*
X103558899Y-63081068D01*
X103340392Y-63260392D01*
X103161068Y-63478899D01*
X103027818Y-63728192D01*
X102945764Y-63998691D01*
X102918057Y-64280000D01*
X102945764Y-64561309D01*
X103027818Y-64831808D01*
X103161068Y-65081101D01*
X103340392Y-65299608D01*
X103558899Y-65478932D01*
X103686741Y-65547265D01*
X103457161Y-65697399D01*
X103255500Y-65895105D01*
X103096285Y-66128354D01*
X102985633Y-66388182D01*
X102968096Y-66470961D01*
X103090085Y-66693000D01*
X104633000Y-66693000D01*
X104633000Y-66673000D01*
X104887000Y-66673000D01*
X104887000Y-66693000D01*
X106429915Y-66693000D01*
X106551904Y-66470961D01*
X106534367Y-66388182D01*
X106423715Y-66128354D01*
X106264500Y-65895105D01*
X106062839Y-65697399D01*
X105833259Y-65547265D01*
X105961101Y-65478932D01*
X106179608Y-65299608D01*
X106358932Y-65081101D01*
X106492182Y-64831808D01*
X106574236Y-64561309D01*
X106601943Y-64280000D01*
X106574236Y-63998691D01*
X106492182Y-63728192D01*
X106358932Y-63478899D01*
X106179608Y-63260392D01*
X105961101Y-63081068D01*
X105828142Y-63010000D01*
X105961101Y-62938932D01*
X106179608Y-62759608D01*
X106358932Y-62541101D01*
X106492182Y-62291808D01*
X106574236Y-62021309D01*
X106601943Y-61740000D01*
X106574236Y-61458691D01*
X106553691Y-61390961D01*
X118208096Y-61390961D01*
X118330085Y-61613000D01*
X119873000Y-61613000D01*
X119873000Y-60305000D01*
X120127000Y-60305000D01*
X120127000Y-61613000D01*
X121669915Y-61613000D01*
X121791904Y-61390961D01*
X121774367Y-61308182D01*
X121663715Y-61048354D01*
X121504500Y-60815105D01*
X121302839Y-60617399D01*
X121066483Y-60462834D01*
X120804514Y-60357350D01*
X120527000Y-60305000D01*
X120127000Y-60305000D01*
X119873000Y-60305000D01*
X119473000Y-60305000D01*
X119195486Y-60357350D01*
X118933517Y-60462834D01*
X118697161Y-60617399D01*
X118495500Y-60815105D01*
X118336285Y-61048354D01*
X118225633Y-61308182D01*
X118208096Y-61390961D01*
X106553691Y-61390961D01*
X106492182Y-61188192D01*
X106358932Y-60938899D01*
X106179608Y-60720392D01*
X105961101Y-60541068D01*
X105711808Y-60407818D01*
X105441309Y-60325764D01*
X105230492Y-60305000D01*
X104289508Y-60305000D01*
X104078691Y-60325764D01*
X103808192Y-60407818D01*
X103558899Y-60541068D01*
X103340392Y-60720392D01*
X103161068Y-60938899D01*
X103027818Y-61188192D01*
X102945764Y-61458691D01*
X102918057Y-61740000D01*
X100060000Y-61740000D01*
X100060000Y-59660000D01*
X179940001Y-59660000D01*
X179940000Y-114932418D01*
G37*
X179940000Y-114932418D02*
X179940001Y-114932428D01*
X179940001Y-116873000D01*
X179492291Y-116873000D01*
X179487812Y-116827518D01*
X179451502Y-116707820D01*
X179392537Y-116597506D01*
X179313185Y-116500815D01*
X179216494Y-116421463D01*
X179106180Y-116362498D01*
X178986482Y-116326188D01*
X178862000Y-116313928D01*
X178385750Y-116317000D01*
X178227000Y-116475750D01*
X178227000Y-116873000D01*
X177973000Y-116873000D01*
X177973000Y-116475750D01*
X177814250Y-116317000D01*
X177338000Y-116313928D01*
X177213518Y-116326188D01*
X177093820Y-116362498D01*
X176983506Y-116421463D01*
X176886815Y-116500815D01*
X176830000Y-116570044D01*
X176773185Y-116500815D01*
X176676494Y-116421463D01*
X176566180Y-116362498D01*
X176446482Y-116326188D01*
X176322000Y-116313928D01*
X176320000Y-116313928D01*
X176320000Y-115703711D01*
X176363937Y-115659774D01*
X176477205Y-115490256D01*
X176555226Y-115301898D01*
X176595000Y-115101939D01*
X176595000Y-114898061D01*
X176555226Y-114698102D01*
X176477205Y-114509744D01*
X176363937Y-114340226D01*
X176219774Y-114196063D01*
X176050256Y-114082795D01*
X175861898Y-114004774D01*
X175661939Y-113965000D01*
X175458061Y-113965000D01*
X175258102Y-114004774D01*
X175069744Y-114082795D01*
X174900226Y-114196063D01*
X174756063Y-114340226D01*
X174642795Y-114509744D01*
X174564774Y-114698102D01*
X174525000Y-114898061D01*
X174525000Y-115101939D01*
X174564774Y-115301898D01*
X174642795Y-115490256D01*
X174756063Y-115659774D01*
X174800001Y-115703712D01*
X174800001Y-116313928D01*
X174798000Y-116313928D01*
X174673518Y-116326188D01*
X174553820Y-116362498D01*
X174443506Y-116421463D01*
X174346815Y-116500815D01*
X174290000Y-116570044D01*
X174233185Y-116500815D01*
X174136494Y-116421463D01*
X174026180Y-116362498D01*
X173906482Y-116326188D01*
X173905000Y-116326042D01*
X173905000Y-113658454D01*
X173937205Y-113610256D01*
X174015226Y-113421898D01*
X174055000Y-113221939D01*
X174055000Y-113018061D01*
X174015226Y-112818102D01*
X173937205Y-112629744D01*
X173823937Y-112460226D01*
X173679774Y-112316063D01*
X173510256Y-112202795D01*
X173321898Y-112124774D01*
X173121939Y-112085000D01*
X172918061Y-112085000D01*
X172718102Y-112124774D01*
X172529744Y-112202795D01*
X172360226Y-112316063D01*
X172216063Y-112460226D01*
X172102795Y-112629744D01*
X172024774Y-112818102D01*
X171985000Y-113018061D01*
X171985000Y-113221939D01*
X172024774Y-113421898D01*
X172102795Y-113610256D01*
X172135001Y-113658456D01*
X172135001Y-116326042D01*
X172133518Y-116326188D01*
X172013820Y-116362498D01*
X171903506Y-116421463D01*
X171806815Y-116500815D01*
X171750000Y-116570044D01*
X171693185Y-116500815D01*
X171596494Y-116421463D01*
X171486180Y-116362498D01*
X171366482Y-116326188D01*
X171242000Y-116313928D01*
X169718000Y-116313928D01*
X169593518Y-116326188D01*
X169473820Y-116362498D01*
X169363506Y-116421463D01*
X169266815Y-116500815D01*
X169210000Y-116570044D01*
X169153185Y-116500815D01*
X169056494Y-116421463D01*
X168946180Y-116362498D01*
X168826482Y-116326188D01*
X168702000Y-116313928D01*
X167178000Y-116313928D01*
X167053518Y-116326188D01*
X166933820Y-116362498D01*
X166823506Y-116421463D01*
X166726815Y-116500815D01*
X166670000Y-116570044D01*
X166641493Y-116535308D01*
X179686004Y-103490798D01*
X179715002Y-103467000D01*
X179809975Y-103351275D01*
X179880547Y-103219246D01*
X179924004Y-103075985D01*
X179935001Y-102964332D01*
X179935001Y-102964323D01*
X179938677Y-102927000D01*
X179935001Y-102889677D01*
X179935001Y-95282323D01*
X179938677Y-95245000D01*
X179935001Y-95207677D01*
X179935001Y-95207668D01*
X179924004Y-95096015D01*
X179880547Y-94952754D01*
X179809975Y-94820725D01*
X179715002Y-94705000D01*
X179686005Y-94681203D01*
X179441210Y-94436408D01*
X179485000Y-94216260D01*
X179485000Y-93923740D01*
X179427932Y-93636842D01*
X179315990Y-93366589D01*
X179153475Y-93123368D01*
X178946632Y-92916525D01*
X178772240Y-92800000D01*
X178946632Y-92683475D01*
X179153475Y-92476632D01*
X179315990Y-92233411D01*
X179427932Y-91963158D01*
X179485000Y-91676260D01*
X179485000Y-91383740D01*
X179427932Y-91096842D01*
X179315990Y-90826589D01*
X179153475Y-90583368D01*
X178946632Y-90376525D01*
X178703411Y-90214010D01*
X178433158Y-90102068D01*
X178146260Y-90045000D01*
X177853740Y-90045000D01*
X177566842Y-90102068D01*
X177296589Y-90214010D01*
X177053368Y-90376525D01*
X176846525Y-90583368D01*
X176728900Y-90759406D01*
X176557588Y-90529731D01*
X176341355Y-90334822D01*
X176091252Y-90185843D01*
X175816891Y-90088519D01*
X175587000Y-90209186D01*
X175587000Y-91403000D01*
X175607000Y-91403000D01*
X175607000Y-91657000D01*
X175587000Y-91657000D01*
X175587000Y-93943000D01*
X175607000Y-93943000D01*
X175607000Y-94197000D01*
X175587000Y-94197000D01*
X175587000Y-96483000D01*
X175607000Y-96483000D01*
X175607000Y-96737000D01*
X175587000Y-96737000D01*
X175587000Y-99023000D01*
X175607000Y-99023000D01*
X175607000Y-99277000D01*
X175587000Y-99277000D01*
X175587000Y-100470814D01*
X175816891Y-100591481D01*
X176091252Y-100494157D01*
X176341355Y-100345178D01*
X176537502Y-100168374D01*
X176560498Y-100244180D01*
X176619463Y-100354494D01*
X176698815Y-100451185D01*
X176795506Y-100530537D01*
X176905820Y-100589502D01*
X177025518Y-100625812D01*
X177150000Y-100638072D01*
X178415002Y-100638072D01*
X178415002Y-102612196D01*
X164889003Y-116138196D01*
X164859999Y-116161999D01*
X164822267Y-116207976D01*
X164765026Y-116277724D01*
X164745674Y-116313928D01*
X164638000Y-116313928D01*
X164513518Y-116326188D01*
X164393820Y-116362498D01*
X164283506Y-116421463D01*
X164186815Y-116500815D01*
X164130000Y-116570044D01*
X164073185Y-116500815D01*
X163976494Y-116421463D01*
X163866180Y-116362498D01*
X163746482Y-116326188D01*
X163622000Y-116313928D01*
X162098000Y-116313928D01*
X161973518Y-116326188D01*
X161853820Y-116362498D01*
X161743506Y-116421463D01*
X161646815Y-116500815D01*
X161590000Y-116570044D01*
X161533185Y-116500815D01*
X161436494Y-116421463D01*
X161326180Y-116362498D01*
X161206482Y-116326188D01*
X161082000Y-116313928D01*
X159558000Y-116313928D01*
X159433518Y-116326188D01*
X159313820Y-116362498D01*
X159203506Y-116421463D01*
X159106815Y-116500815D01*
X159050000Y-116570044D01*
X158993185Y-116500815D01*
X158896494Y-116421463D01*
X158786180Y-116362498D01*
X158666482Y-116326188D01*
X158542000Y-116313928D01*
X157018000Y-116313928D01*
X156893518Y-116326188D01*
X156773820Y-116362498D01*
X156663506Y-116421463D01*
X156566815Y-116500815D01*
X156510000Y-116570044D01*
X156453185Y-116500815D01*
X156356494Y-116421463D01*
X156246180Y-116362498D01*
X156126482Y-116326188D01*
X156002000Y-116313928D01*
X155525750Y-116317000D01*
X155367000Y-116475750D01*
X155367000Y-116873000D01*
X155113000Y-116873000D01*
X155113000Y-116475750D01*
X154954250Y-116317000D01*
X154497961Y-116314057D01*
X154659774Y-116205937D01*
X154803937Y-116061774D01*
X154917205Y-115892256D01*
X154995226Y-115703898D01*
X155035000Y-115503939D01*
X155035000Y-115441801D01*
X155541812Y-114934990D01*
X156887688Y-114934990D01*
X156925010Y-114938666D01*
X156962332Y-114934990D01*
X156962343Y-114934990D01*
X157073996Y-114923993D01*
X157217257Y-114880536D01*
X157349286Y-114809964D01*
X157465011Y-114714991D01*
X157488814Y-114685987D01*
X162539803Y-109635000D01*
X162601939Y-109635000D01*
X162801898Y-109595226D01*
X162990256Y-109517205D01*
X163159774Y-109403937D01*
X163303937Y-109259774D01*
X163417205Y-109090256D01*
X163495226Y-108901898D01*
X163535000Y-108701939D01*
X163535000Y-108498061D01*
X163495226Y-108298102D01*
X163417205Y-108109744D01*
X163303937Y-107940226D01*
X163159774Y-107796063D01*
X162990256Y-107682795D01*
X162987960Y-107681844D01*
X167211004Y-103458800D01*
X167240001Y-103435003D01*
X167284547Y-103380724D01*
X167334974Y-103319279D01*
X167405546Y-103187249D01*
X167407745Y-103179999D01*
X167449003Y-103043988D01*
X167460000Y-102932335D01*
X167460000Y-102932325D01*
X167463676Y-102895002D01*
X167460000Y-102857680D01*
X167460000Y-96464801D01*
X169185000Y-94739801D01*
X169185000Y-94911335D01*
X169240147Y-95188574D01*
X169348320Y-95449727D01*
X169505363Y-95684759D01*
X169705241Y-95884637D01*
X169937759Y-96040000D01*
X169705241Y-96195363D01*
X169505363Y-96395241D01*
X169348320Y-96630273D01*
X169240147Y-96891426D01*
X169185000Y-97168665D01*
X169185000Y-97451335D01*
X169240147Y-97728574D01*
X169348320Y-97989727D01*
X169505363Y-98224759D01*
X169705241Y-98424637D01*
X169937759Y-98580000D01*
X169705241Y-98735363D01*
X169505363Y-98935241D01*
X169348320Y-99170273D01*
X169240147Y-99431426D01*
X169185000Y-99708665D01*
X169185000Y-99991335D01*
X169240147Y-100268574D01*
X169348320Y-100529727D01*
X169505363Y-100764759D01*
X169705241Y-100964637D01*
X169937759Y-101120000D01*
X169705241Y-101275363D01*
X169505363Y-101475241D01*
X169348320Y-101710273D01*
X169240147Y-101971426D01*
X169185000Y-102248665D01*
X169185000Y-102531335D01*
X169240147Y-102808574D01*
X169348320Y-103069727D01*
X169505363Y-103304759D01*
X169705241Y-103504637D01*
X169937759Y-103660000D01*
X169705241Y-103815363D01*
X169505363Y-104015241D01*
X169348320Y-104250273D01*
X169240147Y-104511426D01*
X169185000Y-104788665D01*
X169185000Y-105071335D01*
X169240147Y-105348574D01*
X169348320Y-105609727D01*
X169505363Y-105844759D01*
X169705241Y-106044637D01*
X169940273Y-106201680D01*
X170201426Y-106309853D01*
X170478665Y-106365000D01*
X170761335Y-106365000D01*
X171038574Y-106309853D01*
X171299727Y-106201680D01*
X171534759Y-106044637D01*
X171734637Y-105844759D01*
X171891680Y-105609727D01*
X171999853Y-105348574D01*
X172055000Y-105071335D01*
X172055000Y-104788665D01*
X172018688Y-104606113D01*
X172559982Y-104064820D01*
X172504774Y-104198102D01*
X172465000Y-104398061D01*
X172465000Y-104601939D01*
X172504774Y-104801898D01*
X172582795Y-104990256D01*
X172696063Y-105159774D01*
X172840226Y-105303937D01*
X173009744Y-105417205D01*
X173198102Y-105495226D01*
X173398061Y-105535000D01*
X173601939Y-105535000D01*
X173801898Y-105495226D01*
X173990256Y-105417205D01*
X174159774Y-105303937D01*
X174303937Y-105159774D01*
X174417205Y-104990256D01*
X174495226Y-104801898D01*
X174535000Y-104601939D01*
X174535000Y-104398061D01*
X174495226Y-104198102D01*
X174417205Y-104009744D01*
X174385000Y-103961546D01*
X174385000Y-102138454D01*
X174417205Y-102090256D01*
X174495226Y-101901898D01*
X174535000Y-101701939D01*
X174535000Y-101498061D01*
X174495226Y-101298102D01*
X174417205Y-101109744D01*
X174303937Y-100940226D01*
X174159774Y-100796063D01*
X173990256Y-100682795D01*
X173801898Y-100604774D01*
X173601939Y-100565000D01*
X173405020Y-100565000D01*
X173405020Y-99506890D01*
X174018524Y-99506890D01*
X174063175Y-99654099D01*
X174188359Y-99916920D01*
X174362412Y-100150269D01*
X174578645Y-100345178D01*
X174828748Y-100494157D01*
X175103109Y-100591481D01*
X175333000Y-100470814D01*
X175333000Y-99277000D01*
X174139845Y-99277000D01*
X174018524Y-99506890D01*
X173405020Y-99506890D01*
X173405020Y-96966890D01*
X174018524Y-96966890D01*
X174063175Y-97114099D01*
X174188359Y-97376920D01*
X174362412Y-97610269D01*
X174578645Y-97805178D01*
X174704255Y-97880000D01*
X174578645Y-97954822D01*
X174362412Y-98149731D01*
X174188359Y-98383080D01*
X174063175Y-98645901D01*
X174018524Y-98793110D01*
X174139845Y-99023000D01*
X175333000Y-99023000D01*
X175333000Y-96737000D01*
X174139845Y-96737000D01*
X174018524Y-96966890D01*
X173405020Y-96966890D01*
X173405020Y-95135000D01*
X173601939Y-95135000D01*
X173801898Y-95095226D01*
X173990256Y-95017205D01*
X174159774Y-94903937D01*
X174204778Y-94858933D01*
X174362412Y-95070269D01*
X174578645Y-95265178D01*
X174704255Y-95340000D01*
X174578645Y-95414822D01*
X174362412Y-95609731D01*
X174188359Y-95843080D01*
X174063175Y-96105901D01*
X174018524Y-96253110D01*
X174139845Y-96483000D01*
X175333000Y-96483000D01*
X175333000Y-94197000D01*
X175313000Y-94197000D01*
X175313000Y-93943000D01*
X175333000Y-93943000D01*
X175333000Y-91657000D01*
X174139845Y-91657000D01*
X174129800Y-91676035D01*
X173990256Y-91582795D01*
X173801898Y-91504774D01*
X173601939Y-91465000D01*
X173405020Y-91465000D01*
X173405020Y-91173110D01*
X174018524Y-91173110D01*
X174139845Y-91403000D01*
X175333000Y-91403000D01*
X175333000Y-90209186D01*
X175103109Y-90088519D01*
X174828748Y-90185843D01*
X174578645Y-90334822D01*
X174362412Y-90529731D01*
X174188359Y-90763080D01*
X174063175Y-91025901D01*
X174018524Y-91173110D01*
X173405020Y-91173110D01*
X173405020Y-87547340D01*
X173408696Y-87510017D01*
X173405020Y-87472695D01*
X173405020Y-87472685D01*
X173394023Y-87361032D01*
X173350566Y-87217771D01*
X173314341Y-87149999D01*
X173279994Y-87085741D01*
X173208819Y-86999015D01*
X173185021Y-86970017D01*
X173156024Y-86946220D01*
X171723805Y-85514002D01*
X171700002Y-85484998D01*
X171584277Y-85390025D01*
X171452248Y-85319453D01*
X171308987Y-85275996D01*
X171197334Y-85264999D01*
X171197323Y-85264999D01*
X171160001Y-85261323D01*
X171122679Y-85264999D01*
X170117321Y-85264999D01*
X170079998Y-85261323D01*
X170042675Y-85264999D01*
X170042666Y-85264999D01*
X169931013Y-85275996D01*
X169787752Y-85319453D01*
X169655723Y-85390025D01*
X169539998Y-85484998D01*
X169516201Y-85513995D01*
X169034999Y-85995197D01*
X169034999Y-85939800D01*
X172214801Y-82760000D01*
X173796289Y-82760000D01*
X173840226Y-82803937D01*
X174009744Y-82917205D01*
X174198102Y-82995226D01*
X174398061Y-83035000D01*
X174601939Y-83035000D01*
X174801898Y-82995226D01*
X174990256Y-82917205D01*
X175159774Y-82803937D01*
X175303937Y-82659774D01*
X175417205Y-82490256D01*
X175495226Y-82301898D01*
X175535000Y-82101939D01*
X175535000Y-81898061D01*
X175495226Y-81698102D01*
X175417205Y-81509744D01*
X175303937Y-81340226D01*
X175159774Y-81196063D01*
X174990256Y-81082795D01*
X174801898Y-81004774D01*
X174601939Y-80965000D01*
X174398061Y-80965000D01*
X174198102Y-81004774D01*
X174009744Y-81082795D01*
X173840226Y-81196063D01*
X173796289Y-81240000D01*
X171937320Y-81240000D01*
X171899997Y-81236324D01*
X171862674Y-81240000D01*
X171862665Y-81240000D01*
X171751012Y-81250997D01*
X171607751Y-81294454D01*
X171475722Y-81365026D01*
X171475720Y-81365027D01*
X171475721Y-81365027D01*
X171388994Y-81436201D01*
X171388990Y-81436205D01*
X171359997Y-81459999D01*
X171336203Y-81488992D01*
X167960198Y-84864999D01*
X167898060Y-84864999D01*
X167698101Y-84904773D01*
X167509743Y-84982794D01*
X167461545Y-85014999D01*
X159413466Y-85014999D01*
X159370000Y-85010718D01*
X159326534Y-85014999D01*
X159326524Y-85014999D01*
X159196511Y-85027804D01*
X159029688Y-85078410D01*
X158875942Y-85160588D01*
X158871231Y-85164454D01*
X158774954Y-85243467D01*
X158774952Y-85243469D01*
X158741184Y-85271182D01*
X158713471Y-85304950D01*
X158296439Y-85721983D01*
X158261335Y-85715000D01*
X157978665Y-85715000D01*
X157701426Y-85770147D01*
X157440273Y-85878320D01*
X157205241Y-86035363D01*
X157005363Y-86235241D01*
X156848320Y-86470273D01*
X156740147Y-86731426D01*
X156685000Y-87008665D01*
X156685000Y-87010198D01*
X140559801Y-70885000D01*
X140661546Y-70885000D01*
X140709744Y-70917205D01*
X140898102Y-70995226D01*
X141098061Y-71035000D01*
X141301939Y-71035000D01*
X141501898Y-70995226D01*
X141690256Y-70917205D01*
X141859774Y-70803937D01*
X142003937Y-70659774D01*
X142117205Y-70490256D01*
X142195226Y-70301898D01*
X142235000Y-70101939D01*
X142235000Y-69898061D01*
X142195226Y-69698102D01*
X142117205Y-69509744D01*
X142003937Y-69340226D01*
X141859774Y-69196063D01*
X141690256Y-69082795D01*
X141501898Y-69004774D01*
X141301939Y-68965000D01*
X141098061Y-68965000D01*
X140898102Y-69004774D01*
X140709744Y-69082795D01*
X140664563Y-69112984D01*
X136129450Y-64577871D01*
X137460000Y-64577871D01*
X137460000Y-64822129D01*
X137507652Y-65061695D01*
X137601126Y-65287360D01*
X137736829Y-65490454D01*
X137909546Y-65663171D01*
X138112640Y-65798874D01*
X138338305Y-65892348D01*
X138577871Y-65940000D01*
X138822129Y-65940000D01*
X139061695Y-65892348D01*
X139287360Y-65798874D01*
X139490454Y-65663171D01*
X139663171Y-65490454D01*
X139798874Y-65287360D01*
X139892348Y-65061695D01*
X139940000Y-64822129D01*
X139940000Y-64577871D01*
X139892348Y-64338305D01*
X139798874Y-64112640D01*
X139663171Y-63909546D01*
X139490454Y-63736829D01*
X139287360Y-63601126D01*
X139061695Y-63507652D01*
X138822129Y-63460000D01*
X138577871Y-63460000D01*
X138338305Y-63507652D01*
X138112640Y-63601126D01*
X137909546Y-63736829D01*
X137736829Y-63909546D01*
X137601126Y-64112640D01*
X137507652Y-64338305D01*
X137460000Y-64577871D01*
X136129450Y-64577871D01*
X135374990Y-63823412D01*
X135374990Y-62548464D01*
X135407195Y-62500266D01*
X135485216Y-62311908D01*
X135524990Y-62111949D01*
X135524990Y-61908071D01*
X135485216Y-61708112D01*
X135407195Y-61519754D01*
X135293927Y-61350236D01*
X135149764Y-61206073D01*
X134980246Y-61092805D01*
X134791888Y-61014784D01*
X134591929Y-60975010D01*
X134388051Y-60975010D01*
X134188092Y-61014784D01*
X133999734Y-61092805D01*
X133830216Y-61206073D01*
X133686053Y-61350236D01*
X133572785Y-61519754D01*
X133494764Y-61708112D01*
X133454990Y-61908071D01*
X133454990Y-62111949D01*
X133494764Y-62311908D01*
X133572785Y-62500266D01*
X133604991Y-62548465D01*
X133604990Y-64146521D01*
X133600709Y-64189990D01*
X133604990Y-64233459D01*
X133604990Y-64233466D01*
X133617795Y-64363479D01*
X133668401Y-64530302D01*
X133750579Y-64684048D01*
X133861173Y-64818807D01*
X133894946Y-64846524D01*
X136523412Y-67474990D01*
X127923528Y-67474990D01*
X127995226Y-67301898D01*
X128035000Y-67101939D01*
X128035000Y-66898061D01*
X127995226Y-66698102D01*
X127917205Y-66509744D01*
X127803937Y-66340226D01*
X127659774Y-66196063D01*
X127490256Y-66082795D01*
X127301898Y-66004774D01*
X127101939Y-65965000D01*
X126898061Y-65965000D01*
X126698102Y-66004774D01*
X126509744Y-66082795D01*
X126340226Y-66196063D01*
X126296289Y-66240000D01*
X121717113Y-66240000D01*
X121598932Y-66018899D01*
X121419608Y-65800392D01*
X121201101Y-65621068D01*
X121074393Y-65553341D01*
X130406264Y-65553341D01*
X130454179Y-65777434D01*
X130676401Y-65878823D01*
X130914133Y-65934910D01*
X131158239Y-65943541D01*
X131399339Y-65904383D01*
X131628166Y-65818941D01*
X131705821Y-65777434D01*
X131753736Y-65553341D01*
X131080000Y-64879605D01*
X130406264Y-65553341D01*
X121074393Y-65553341D01*
X121068142Y-65550000D01*
X121201101Y-65478932D01*
X121419608Y-65299608D01*
X121598932Y-65081101D01*
X121732182Y-64831808D01*
X121748431Y-64778239D01*
X129836459Y-64778239D01*
X129875617Y-65019339D01*
X129961059Y-65248166D01*
X130002566Y-65325821D01*
X130226659Y-65373736D01*
X130900395Y-64700000D01*
X131259605Y-64700000D01*
X131933341Y-65373736D01*
X132157434Y-65325821D01*
X132258823Y-65103599D01*
X132314910Y-64865867D01*
X132323541Y-64621761D01*
X132284383Y-64380661D01*
X132198941Y-64151834D01*
X132157434Y-64074179D01*
X131933341Y-64026264D01*
X131259605Y-64700000D01*
X130900395Y-64700000D01*
X130226659Y-64026264D01*
X130002566Y-64074179D01*
X129901177Y-64296401D01*
X129845090Y-64534133D01*
X129836459Y-64778239D01*
X121748431Y-64778239D01*
X121814236Y-64561309D01*
X121841943Y-64280000D01*
X121814236Y-63998691D01*
X121768119Y-63846659D01*
X130406264Y-63846659D01*
X131080000Y-64520395D01*
X131753736Y-63846659D01*
X131705821Y-63622566D01*
X131483599Y-63521177D01*
X131245867Y-63465090D01*
X131001761Y-63456459D01*
X130760661Y-63495617D01*
X130531834Y-63581059D01*
X130454179Y-63622566D01*
X130406264Y-63846659D01*
X121768119Y-63846659D01*
X121732182Y-63728192D01*
X121598932Y-63478899D01*
X121419608Y-63260392D01*
X121201101Y-63081068D01*
X121073259Y-63012735D01*
X121302839Y-62862601D01*
X121504500Y-62664895D01*
X121663715Y-62431646D01*
X121774367Y-62171818D01*
X121791904Y-62089039D01*
X121669915Y-61867000D01*
X120127000Y-61867000D01*
X120127000Y-61887000D01*
X119873000Y-61887000D01*
X119873000Y-61867000D01*
X118330085Y-61867000D01*
X118208096Y-62089039D01*
X118225633Y-62171818D01*
X118336285Y-62431646D01*
X118495500Y-62664895D01*
X118697161Y-62862601D01*
X118926741Y-63012735D01*
X118798899Y-63081068D01*
X118580392Y-63260392D01*
X118401068Y-63478899D01*
X118267818Y-63728192D01*
X118185764Y-63998691D01*
X118158057Y-64280000D01*
X118185764Y-64561309D01*
X118267818Y-64831808D01*
X118401068Y-65081101D01*
X118580392Y-65299608D01*
X118798899Y-65478932D01*
X118931858Y-65550000D01*
X118798899Y-65621068D01*
X118580392Y-65800392D01*
X118401068Y-66018899D01*
X118267818Y-66268192D01*
X118185764Y-66538691D01*
X118158057Y-66820000D01*
X118185764Y-67101309D01*
X118267818Y-67371808D01*
X118401068Y-67621101D01*
X118523684Y-67770510D01*
X114888997Y-71405198D01*
X114859999Y-71428996D01*
X114836201Y-71457994D01*
X114836200Y-71457995D01*
X114765025Y-71544721D01*
X114694453Y-71676751D01*
X114671926Y-71751015D01*
X114650997Y-71820011D01*
X114639999Y-71931664D01*
X114639999Y-71931675D01*
X114636323Y-71968997D01*
X114639999Y-72006319D01*
X114639999Y-72258841D01*
X114509744Y-72312795D01*
X114340226Y-72426063D01*
X114196063Y-72570226D01*
X114082795Y-72739744D01*
X114004774Y-72928102D01*
X113965000Y-73128061D01*
X113965000Y-73331939D01*
X114004774Y-73531898D01*
X114082795Y-73720256D01*
X114196063Y-73889774D01*
X114340226Y-74033937D01*
X114509744Y-74147205D01*
X114635076Y-74199119D01*
X114488998Y-74345197D01*
X114460000Y-74368995D01*
X114436202Y-74397993D01*
X114436201Y-74397994D01*
X114365026Y-74484720D01*
X114294454Y-74616750D01*
X114264180Y-74716554D01*
X114250998Y-74760010D01*
X114240000Y-74871663D01*
X114240000Y-74871674D01*
X114236324Y-74908996D01*
X114240000Y-74946318D01*
X114240000Y-75066289D01*
X114196063Y-75110226D01*
X114082795Y-75279744D01*
X114004774Y-75468102D01*
X113965000Y-75668061D01*
X113965000Y-75871939D01*
X114004774Y-76071898D01*
X114082795Y-76260256D01*
X114196063Y-76429774D01*
X114340226Y-76573937D01*
X114509744Y-76687205D01*
X114698102Y-76765226D01*
X114898061Y-76805000D01*
X115101939Y-76805000D01*
X115301898Y-76765226D01*
X115490256Y-76687205D01*
X115659774Y-76573937D01*
X115803937Y-76429774D01*
X115917205Y-76260256D01*
X115995226Y-76071898D01*
X116035000Y-75871939D01*
X116035000Y-75668061D01*
X115995226Y-75468102D01*
X115917205Y-75279744D01*
X115831828Y-75151969D01*
X118359836Y-72623962D01*
X118401068Y-72701101D01*
X118580392Y-72919608D01*
X118798899Y-73098932D01*
X118931858Y-73170000D01*
X118798899Y-73241068D01*
X118580392Y-73420392D01*
X118401068Y-73638899D01*
X118267818Y-73888192D01*
X118185764Y-74158691D01*
X118158057Y-74440000D01*
X118185764Y-74721309D01*
X118267818Y-74991808D01*
X118401068Y-75241101D01*
X118580392Y-75459608D01*
X118798899Y-75638932D01*
X118931858Y-75710000D01*
X118798899Y-75781068D01*
X118580392Y-75960392D01*
X118401068Y-76178899D01*
X118267818Y-76428192D01*
X118185764Y-76698691D01*
X118158057Y-76980000D01*
X118185764Y-77261309D01*
X118211154Y-77345010D01*
X112729812Y-77345010D01*
X107045010Y-71660209D01*
X107045010Y-68931328D01*
X107048686Y-68894005D01*
X107045010Y-68856682D01*
X107045010Y-68856673D01*
X107034013Y-68745020D01*
X106990556Y-68601759D01*
X106919984Y-68469730D01*
X106825011Y-68354005D01*
X106796014Y-68330208D01*
X106237334Y-67771529D01*
X106264500Y-67744895D01*
X106423715Y-67511646D01*
X106534367Y-67251818D01*
X106551904Y-67169039D01*
X106429915Y-66947000D01*
X104887000Y-66947000D01*
X104887000Y-66967000D01*
X104633000Y-66967000D01*
X104633000Y-66947000D01*
X103090085Y-66947000D01*
X102968096Y-67169039D01*
X102985633Y-67251818D01*
X103096285Y-67511646D01*
X103238310Y-67719711D01*
X103234801Y-67723987D01*
X101823969Y-69134820D01*
X101794971Y-69158618D01*
X101771173Y-69187616D01*
X101771172Y-69187617D01*
X101699997Y-69274343D01*
X101629425Y-69406373D01*
X101604968Y-69487000D01*
X101585969Y-69549633D01*
X101574972Y-69661286D01*
X101571295Y-69698619D01*
X101574972Y-69735952D01*
X101574970Y-110165062D01*
X101571294Y-110202384D01*
X101574970Y-110239706D01*
X101574970Y-110239716D01*
X101585967Y-110351369D01*
X101628030Y-110490036D01*
X101629424Y-110494630D01*
X101699996Y-110626660D01*
X101760788Y-110700734D01*
X101794969Y-110742384D01*
X101823967Y-110766182D01*
X102922785Y-111865000D01*
X101888212Y-111865000D01*
X101833253Y-111875932D01*
X101777501Y-111881423D01*
X101723894Y-111897685D01*
X101668933Y-111908617D01*
X101617158Y-111930063D01*
X101563553Y-111946324D01*
X101514149Y-111972731D01*
X101462376Y-111994176D01*
X101415786Y-112025307D01*
X101366377Y-112051716D01*
X101323068Y-112087259D01*
X101276480Y-112118388D01*
X101236859Y-112158009D01*
X101193551Y-112193551D01*
X101158009Y-112236859D01*
X101118388Y-112276480D01*
X101087259Y-112323068D01*
X101051716Y-112366377D01*
X101025307Y-112415786D01*
X100994176Y-112462376D01*
X100972731Y-112514149D01*
X100946324Y-112563553D01*
X100930063Y-112617158D01*
X100908617Y-112668933D01*
X100897685Y-112723894D01*
X100881423Y-112777501D01*
X100875932Y-112833253D01*
X100865000Y-112888212D01*
X100865000Y-112944248D01*
X100859509Y-113000000D01*
X100865000Y-113055752D01*
X100865000Y-113111788D01*
X100875932Y-113166747D01*
X100881423Y-113222499D01*
X100897685Y-113276106D01*
X100908617Y-113331067D01*
X100930063Y-113382842D01*
X100946324Y-113436447D01*
X100972731Y-113485851D01*
X100994176Y-113537624D01*
X101025307Y-113584214D01*
X101051716Y-113633623D01*
X101087259Y-113676932D01*
X101118388Y-113723520D01*
X101158009Y-113763141D01*
X101193551Y-113806449D01*
X101236859Y-113841991D01*
X101276480Y-113881612D01*
X101323068Y-113912741D01*
X101366377Y-113948284D01*
X101415786Y-113974693D01*
X101462376Y-114005824D01*
X101514149Y-114027269D01*
X101563553Y-114053676D01*
X101617158Y-114069937D01*
X101668933Y-114091383D01*
X101723894Y-114102315D01*
X101777501Y-114118577D01*
X101833253Y-114124068D01*
X101888212Y-114135000D01*
X103429869Y-114135000D01*
X105782671Y-116487803D01*
X105766815Y-116500815D01*
X105710000Y-116570044D01*
X105653185Y-116500815D01*
X105556494Y-116421463D01*
X105446180Y-116362498D01*
X105326482Y-116326188D01*
X105202000Y-116313928D01*
X103678000Y-116313928D01*
X103553518Y-116326188D01*
X103433820Y-116362498D01*
X103323506Y-116421463D01*
X103226815Y-116500815D01*
X103170000Y-116570044D01*
X103113185Y-116500815D01*
X103016494Y-116421463D01*
X102906180Y-116362498D01*
X102786482Y-116326188D01*
X102662000Y-116313928D01*
X102185750Y-116317000D01*
X102027000Y-116475750D01*
X102027000Y-116873000D01*
X101773000Y-116873000D01*
X101773000Y-116475750D01*
X101614250Y-116317000D01*
X101138000Y-116313928D01*
X101013518Y-116326188D01*
X100893820Y-116362498D01*
X100783506Y-116421463D01*
X100686815Y-116500815D01*
X100607463Y-116597506D01*
X100548498Y-116707820D01*
X100512188Y-116827518D01*
X100507709Y-116873000D01*
X100060000Y-116873000D01*
X100060000Y-61740000D01*
X102918057Y-61740000D01*
X102945764Y-62021309D01*
X103027818Y-62291808D01*
X103161068Y-62541101D01*
X103340392Y-62759608D01*
X103558899Y-62938932D01*
X103691858Y-63010000D01*
X103558899Y-63081068D01*
X103340392Y-63260392D01*
X103161068Y-63478899D01*
X103027818Y-63728192D01*
X102945764Y-63998691D01*
X102918057Y-64280000D01*
X102945764Y-64561309D01*
X103027818Y-64831808D01*
X103161068Y-65081101D01*
X103340392Y-65299608D01*
X103558899Y-65478932D01*
X103686741Y-65547265D01*
X103457161Y-65697399D01*
X103255500Y-65895105D01*
X103096285Y-66128354D01*
X102985633Y-66388182D01*
X102968096Y-66470961D01*
X103090085Y-66693000D01*
X104633000Y-66693000D01*
X104633000Y-66673000D01*
X104887000Y-66673000D01*
X104887000Y-66693000D01*
X106429915Y-66693000D01*
X106551904Y-66470961D01*
X106534367Y-66388182D01*
X106423715Y-66128354D01*
X106264500Y-65895105D01*
X106062839Y-65697399D01*
X105833259Y-65547265D01*
X105961101Y-65478932D01*
X106179608Y-65299608D01*
X106358932Y-65081101D01*
X106492182Y-64831808D01*
X106574236Y-64561309D01*
X106601943Y-64280000D01*
X106574236Y-63998691D01*
X106492182Y-63728192D01*
X106358932Y-63478899D01*
X106179608Y-63260392D01*
X105961101Y-63081068D01*
X105828142Y-63010000D01*
X105961101Y-62938932D01*
X106179608Y-62759608D01*
X106358932Y-62541101D01*
X106492182Y-62291808D01*
X106574236Y-62021309D01*
X106601943Y-61740000D01*
X106574236Y-61458691D01*
X106553691Y-61390961D01*
X118208096Y-61390961D01*
X118330085Y-61613000D01*
X119873000Y-61613000D01*
X119873000Y-60305000D01*
X120127000Y-60305000D01*
X120127000Y-61613000D01*
X121669915Y-61613000D01*
X121791904Y-61390961D01*
X121774367Y-61308182D01*
X121663715Y-61048354D01*
X121504500Y-60815105D01*
X121302839Y-60617399D01*
X121066483Y-60462834D01*
X120804514Y-60357350D01*
X120527000Y-60305000D01*
X120127000Y-60305000D01*
X119873000Y-60305000D01*
X119473000Y-60305000D01*
X119195486Y-60357350D01*
X118933517Y-60462834D01*
X118697161Y-60617399D01*
X118495500Y-60815105D01*
X118336285Y-61048354D01*
X118225633Y-61308182D01*
X118208096Y-61390961D01*
X106553691Y-61390961D01*
X106492182Y-61188192D01*
X106358932Y-60938899D01*
X106179608Y-60720392D01*
X105961101Y-60541068D01*
X105711808Y-60407818D01*
X105441309Y-60325764D01*
X105230492Y-60305000D01*
X104289508Y-60305000D01*
X104078691Y-60325764D01*
X103808192Y-60407818D01*
X103558899Y-60541068D01*
X103340392Y-60720392D01*
X103161068Y-60938899D01*
X103027818Y-61188192D01*
X102945764Y-61458691D01*
X102918057Y-61740000D01*
X100060000Y-61740000D01*
X100060000Y-59660000D01*
X179940001Y-59660000D01*
X179940000Y-114932418D01*
G36*
X156756689Y-89231491D02*
G01*
X156740147Y-89271426D01*
X156685000Y-89548665D01*
X156685000Y-89831335D01*
X156740147Y-90108574D01*
X156848320Y-90369727D01*
X157005363Y-90604759D01*
X157205241Y-90804637D01*
X157437759Y-90960000D01*
X157205241Y-91115363D01*
X157005363Y-91315241D01*
X156848320Y-91550273D01*
X156740147Y-91811426D01*
X156685000Y-92088665D01*
X156685000Y-92371335D01*
X156740147Y-92648574D01*
X156848320Y-92909727D01*
X157005363Y-93144759D01*
X157205241Y-93344637D01*
X157437759Y-93500000D01*
X157205241Y-93655363D01*
X157005363Y-93855241D01*
X156848320Y-94090273D01*
X156740147Y-94351426D01*
X156685000Y-94628665D01*
X156685000Y-94911335D01*
X156740147Y-95188574D01*
X156848320Y-95449727D01*
X157005363Y-95684759D01*
X157205241Y-95884637D01*
X157437759Y-96040000D01*
X157205241Y-96195363D01*
X157005363Y-96395241D01*
X156848320Y-96630273D01*
X156740147Y-96891426D01*
X156685000Y-97168665D01*
X156685000Y-97451335D01*
X156740147Y-97728574D01*
X156848320Y-97989727D01*
X157005363Y-98224759D01*
X157205241Y-98424637D01*
X157437759Y-98580000D01*
X157205241Y-98735363D01*
X157005363Y-98935241D01*
X156848320Y-99170273D01*
X156740147Y-99431426D01*
X156685000Y-99708665D01*
X156685000Y-99991335D01*
X156740147Y-100268574D01*
X156848320Y-100529727D01*
X157005363Y-100764759D01*
X157005400Y-100764796D01*
X155203272Y-102566925D01*
X155174274Y-102590723D01*
X155150476Y-102619721D01*
X155150475Y-102619722D01*
X155079300Y-102706448D01*
X155008728Y-102838478D01*
X154983999Y-102920001D01*
X154965272Y-102981738D01*
X154954275Y-103093391D01*
X154950598Y-103130724D01*
X154954275Y-103168056D01*
X154954274Y-108526692D01*
X149290977Y-114189990D01*
X146869332Y-114189990D01*
X146832009Y-114186314D01*
X146794686Y-114189990D01*
X146794677Y-114189990D01*
X146683024Y-114200987D01*
X146539763Y-114244444D01*
X146407734Y-114315016D01*
X146292009Y-114409989D01*
X146268211Y-114438987D01*
X144568998Y-116138201D01*
X144540000Y-116161999D01*
X144516202Y-116190997D01*
X144516201Y-116190998D01*
X144445026Y-116277724D01*
X144425674Y-116313928D01*
X144318000Y-116313928D01*
X144193518Y-116326188D01*
X144073820Y-116362498D01*
X143963506Y-116421463D01*
X143866815Y-116500815D01*
X143810000Y-116570044D01*
X143781493Y-116535308D01*
X148421802Y-111895001D01*
X151002679Y-111895001D01*
X151040001Y-111898677D01*
X151077323Y-111895001D01*
X151077334Y-111895001D01*
X151188987Y-111884004D01*
X151332248Y-111840547D01*
X151464277Y-111769975D01*
X151580002Y-111675002D01*
X151603805Y-111645999D01*
X152586015Y-110663789D01*
X152615012Y-110639992D01*
X152709985Y-110524267D01*
X152780557Y-110392238D01*
X152824014Y-110248977D01*
X152835011Y-110137324D01*
X152835011Y-110137315D01*
X152838687Y-110099992D01*
X152835011Y-110062669D01*
X152835011Y-85309813D01*
X156756689Y-89231491D01*
G37*
X156756689Y-89231491D02*
X156740147Y-89271426D01*
X156685000Y-89548665D01*
X156685000Y-89831335D01*
X156740147Y-90108574D01*
X156848320Y-90369727D01*
X157005363Y-90604759D01*
X157205241Y-90804637D01*
X157437759Y-90960000D01*
X157205241Y-91115363D01*
X157005363Y-91315241D01*
X156848320Y-91550273D01*
X156740147Y-91811426D01*
X156685000Y-92088665D01*
X156685000Y-92371335D01*
X156740147Y-92648574D01*
X156848320Y-92909727D01*
X157005363Y-93144759D01*
X157205241Y-93344637D01*
X157437759Y-93500000D01*
X157205241Y-93655363D01*
X157005363Y-93855241D01*
X156848320Y-94090273D01*
X156740147Y-94351426D01*
X156685000Y-94628665D01*
X156685000Y-94911335D01*
X156740147Y-95188574D01*
X156848320Y-95449727D01*
X157005363Y-95684759D01*
X157205241Y-95884637D01*
X157437759Y-96040000D01*
X157205241Y-96195363D01*
X157005363Y-96395241D01*
X156848320Y-96630273D01*
X156740147Y-96891426D01*
X156685000Y-97168665D01*
X156685000Y-97451335D01*
X156740147Y-97728574D01*
X156848320Y-97989727D01*
X157005363Y-98224759D01*
X157205241Y-98424637D01*
X157437759Y-98580000D01*
X157205241Y-98735363D01*
X157005363Y-98935241D01*
X156848320Y-99170273D01*
X156740147Y-99431426D01*
X156685000Y-99708665D01*
X156685000Y-99991335D01*
X156740147Y-100268574D01*
X156848320Y-100529727D01*
X157005363Y-100764759D01*
X157005400Y-100764796D01*
X155203272Y-102566925D01*
X155174274Y-102590723D01*
X155150476Y-102619721D01*
X155150475Y-102619722D01*
X155079300Y-102706448D01*
X155008728Y-102838478D01*
X154983999Y-102920001D01*
X154965272Y-102981738D01*
X154954275Y-103093391D01*
X154950598Y-103130724D01*
X154954275Y-103168056D01*
X154954274Y-108526692D01*
X149290977Y-114189990D01*
X146869332Y-114189990D01*
X146832009Y-114186314D01*
X146794686Y-114189990D01*
X146794677Y-114189990D01*
X146683024Y-114200987D01*
X146539763Y-114244444D01*
X146407734Y-114315016D01*
X146292009Y-114409989D01*
X146268211Y-114438987D01*
X144568998Y-116138201D01*
X144540000Y-116161999D01*
X144516202Y-116190997D01*
X144516201Y-116190998D01*
X144445026Y-116277724D01*
X144425674Y-116313928D01*
X144318000Y-116313928D01*
X144193518Y-116326188D01*
X144073820Y-116362498D01*
X143963506Y-116421463D01*
X143866815Y-116500815D01*
X143810000Y-116570044D01*
X143781493Y-116535308D01*
X148421802Y-111895001D01*
X151002679Y-111895001D01*
X151040001Y-111898677D01*
X151077323Y-111895001D01*
X151077334Y-111895001D01*
X151188987Y-111884004D01*
X151332248Y-111840547D01*
X151464277Y-111769975D01*
X151580002Y-111675002D01*
X151603805Y-111645999D01*
X152586015Y-110663789D01*
X152615012Y-110639992D01*
X152709985Y-110524267D01*
X152780557Y-110392238D01*
X152824014Y-110248977D01*
X152835011Y-110137324D01*
X152835011Y-110137315D01*
X152838687Y-110099992D01*
X152835011Y-110062669D01*
X152835011Y-85309813D01*
X156756689Y-89231491D01*
G36*
X136648754Y-109526913D02*
G01*
X136608096Y-109660961D01*
X136730085Y-109883000D01*
X137873000Y-109883000D01*
X137873000Y-109863000D01*
X138127000Y-109863000D01*
X138127000Y-109883000D01*
X138147000Y-109883000D01*
X138147000Y-110137000D01*
X138127000Y-110137000D01*
X138127000Y-110157000D01*
X137873000Y-110157000D01*
X137873000Y-110137000D01*
X136730085Y-110137000D01*
X136608096Y-110359039D01*
X136648754Y-110493087D01*
X136768963Y-110747420D01*
X136936481Y-110973414D01*
X137144869Y-111162385D01*
X137274285Y-111240000D01*
X134460364Y-111240000D01*
X134530537Y-111154494D01*
X134589502Y-111044180D01*
X134625812Y-110924482D01*
X134638072Y-110800000D01*
X134638072Y-109355001D01*
X136730007Y-109355001D01*
X136648754Y-109526913D01*
G37*
X136648754Y-109526913D02*
X136608096Y-109660961D01*
X136730085Y-109883000D01*
X137873000Y-109883000D01*
X137873000Y-109863000D01*
X138127000Y-109863000D01*
X138127000Y-109883000D01*
X138147000Y-109883000D01*
X138147000Y-110137000D01*
X138127000Y-110137000D01*
X138127000Y-110157000D01*
X137873000Y-110157000D01*
X137873000Y-110137000D01*
X136730085Y-110137000D01*
X136608096Y-110359039D01*
X136648754Y-110493087D01*
X136768963Y-110747420D01*
X136936481Y-110973414D01*
X137144869Y-111162385D01*
X137274285Y-111240000D01*
X134460364Y-111240000D01*
X134530537Y-111154494D01*
X134589502Y-111044180D01*
X134625812Y-110924482D01*
X134638072Y-110800000D01*
X134638072Y-109355001D01*
X136730007Y-109355001D01*
X136648754Y-109526913D01*
G36*
X124200147Y-107041426D02*
G01*
X124145000Y-107318665D01*
X124145000Y-107601335D01*
X124200147Y-107878574D01*
X124308320Y-108139727D01*
X124465363Y-108374759D01*
X124665241Y-108574637D01*
X124897759Y-108730000D01*
X124665241Y-108885363D01*
X124465363Y-109085241D01*
X124308320Y-109320273D01*
X124200147Y-109581426D01*
X124145000Y-109858665D01*
X124145000Y-110141335D01*
X124151983Y-110176439D01*
X123963421Y-110365001D01*
X121835473Y-110365001D01*
X121835000Y-110285750D01*
X121676250Y-110127000D01*
X120127000Y-110127000D01*
X120127000Y-110147000D01*
X119873000Y-110147000D01*
X119873000Y-110127000D01*
X118323750Y-110127000D01*
X118165000Y-110285750D01*
X118164527Y-110365001D01*
X111816580Y-110365001D01*
X111106535Y-109654957D01*
X111095226Y-109598102D01*
X111017205Y-109409744D01*
X110903937Y-109240226D01*
X110759774Y-109096063D01*
X110590256Y-108982795D01*
X110401898Y-108904774D01*
X110201939Y-108865000D01*
X109998061Y-108865000D01*
X109798102Y-108904774D01*
X109609744Y-108982795D01*
X109440226Y-109096063D01*
X109296063Y-109240226D01*
X109206324Y-109374530D01*
X108022749Y-108190956D01*
X108093931Y-108119774D01*
X108207199Y-107950256D01*
X108285220Y-107761898D01*
X108324994Y-107561939D01*
X108324994Y-107499802D01*
X108389797Y-107434999D01*
X116909194Y-107434999D01*
X118292108Y-108817913D01*
X118269463Y-108845506D01*
X118210498Y-108955820D01*
X118174188Y-109075518D01*
X118161928Y-109200000D01*
X118165000Y-109714250D01*
X118323750Y-109873000D01*
X119873000Y-109873000D01*
X119873000Y-109853000D01*
X120127000Y-109853000D01*
X120127000Y-109873000D01*
X121676250Y-109873000D01*
X121835000Y-109714250D01*
X121836608Y-109445003D01*
X122028841Y-109445003D01*
X122082795Y-109575258D01*
X122196063Y-109744776D01*
X122340226Y-109888939D01*
X122509744Y-110002207D01*
X122698102Y-110080228D01*
X122898061Y-110120002D01*
X123101939Y-110120002D01*
X123301898Y-110080228D01*
X123490256Y-110002207D01*
X123659774Y-109888939D01*
X123803937Y-109744776D01*
X123917205Y-109575258D01*
X123995226Y-109386900D01*
X124035000Y-109186941D01*
X124035000Y-108983063D01*
X123995226Y-108783104D01*
X123917205Y-108594746D01*
X123803937Y-108425228D01*
X123659774Y-108281065D01*
X123490256Y-108167797D01*
X123301898Y-108089776D01*
X123101939Y-108050002D01*
X123024226Y-108050002D01*
X122892248Y-107979457D01*
X122748987Y-107936000D01*
X122637334Y-107925003D01*
X122637323Y-107925003D01*
X122600001Y-107921327D01*
X122562679Y-107925003D01*
X121758514Y-107925003D01*
X121814236Y-107741309D01*
X121841943Y-107460000D01*
X121814236Y-107178691D01*
X121732182Y-106908192D01*
X121677030Y-106805010D01*
X124298074Y-106805010D01*
X124200147Y-107041426D01*
G37*
X124200147Y-107041426D02*
X124145000Y-107318665D01*
X124145000Y-107601335D01*
X124200147Y-107878574D01*
X124308320Y-108139727D01*
X124465363Y-108374759D01*
X124665241Y-108574637D01*
X124897759Y-108730000D01*
X124665241Y-108885363D01*
X124465363Y-109085241D01*
X124308320Y-109320273D01*
X124200147Y-109581426D01*
X124145000Y-109858665D01*
X124145000Y-110141335D01*
X124151983Y-110176439D01*
X123963421Y-110365001D01*
X121835473Y-110365001D01*
X121835000Y-110285750D01*
X121676250Y-110127000D01*
X120127000Y-110127000D01*
X120127000Y-110147000D01*
X119873000Y-110147000D01*
X119873000Y-110127000D01*
X118323750Y-110127000D01*
X118165000Y-110285750D01*
X118164527Y-110365001D01*
X111816580Y-110365001D01*
X111106535Y-109654957D01*
X111095226Y-109598102D01*
X111017205Y-109409744D01*
X110903937Y-109240226D01*
X110759774Y-109096063D01*
X110590256Y-108982795D01*
X110401898Y-108904774D01*
X110201939Y-108865000D01*
X109998061Y-108865000D01*
X109798102Y-108904774D01*
X109609744Y-108982795D01*
X109440226Y-109096063D01*
X109296063Y-109240226D01*
X109206324Y-109374530D01*
X108022749Y-108190956D01*
X108093931Y-108119774D01*
X108207199Y-107950256D01*
X108285220Y-107761898D01*
X108324994Y-107561939D01*
X108324994Y-107499802D01*
X108389797Y-107434999D01*
X116909194Y-107434999D01*
X118292108Y-108817913D01*
X118269463Y-108845506D01*
X118210498Y-108955820D01*
X118174188Y-109075518D01*
X118161928Y-109200000D01*
X118165000Y-109714250D01*
X118323750Y-109873000D01*
X119873000Y-109873000D01*
X119873000Y-109853000D01*
X120127000Y-109853000D01*
X120127000Y-109873000D01*
X121676250Y-109873000D01*
X121835000Y-109714250D01*
X121836608Y-109445003D01*
X122028841Y-109445003D01*
X122082795Y-109575258D01*
X122196063Y-109744776D01*
X122340226Y-109888939D01*
X122509744Y-110002207D01*
X122698102Y-110080228D01*
X122898061Y-110120002D01*
X123101939Y-110120002D01*
X123301898Y-110080228D01*
X123490256Y-110002207D01*
X123659774Y-109888939D01*
X123803937Y-109744776D01*
X123917205Y-109575258D01*
X123995226Y-109386900D01*
X124035000Y-109186941D01*
X124035000Y-108983063D01*
X123995226Y-108783104D01*
X123917205Y-108594746D01*
X123803937Y-108425228D01*
X123659774Y-108281065D01*
X123490256Y-108167797D01*
X123301898Y-108089776D01*
X123101939Y-108050002D01*
X123024226Y-108050002D01*
X122892248Y-107979457D01*
X122748987Y-107936000D01*
X122637334Y-107925003D01*
X122637323Y-107925003D01*
X122600001Y-107921327D01*
X122562679Y-107925003D01*
X121758514Y-107925003D01*
X121814236Y-107741309D01*
X121841943Y-107460000D01*
X121814236Y-107178691D01*
X121732182Y-106908192D01*
X121677030Y-106805010D01*
X124298074Y-106805010D01*
X124200147Y-107041426D01*
G36*
X150627000Y-109883000D02*
G01*
X150647000Y-109883000D01*
X150647000Y-110137000D01*
X150627000Y-110137000D01*
X150627000Y-110157000D01*
X150373000Y-110157000D01*
X150373000Y-110137000D01*
X150353000Y-110137000D01*
X150353000Y-109883000D01*
X150373000Y-109883000D01*
X150373000Y-109863000D01*
X150627000Y-109863000D01*
X150627000Y-109883000D01*
G37*
X150627000Y-109883000D02*
X150647000Y-109883000D01*
X150647000Y-110137000D01*
X150627000Y-110137000D01*
X150627000Y-110157000D01*
X150373000Y-110157000D01*
X150373000Y-110137000D01*
X150353000Y-110137000D01*
X150353000Y-109883000D01*
X150373000Y-109883000D01*
X150373000Y-109863000D01*
X150627000Y-109863000D01*
X150627000Y-109883000D01*
G36*
X163127000Y-104803000D02*
G01*
X163147000Y-104803000D01*
X163147000Y-105057000D01*
X163127000Y-105057000D01*
X163127000Y-105077000D01*
X162873000Y-105077000D01*
X162873000Y-105057000D01*
X162853000Y-105057000D01*
X162853000Y-104803000D01*
X162873000Y-104803000D01*
X162873000Y-104783000D01*
X163127000Y-104783000D01*
X163127000Y-104803000D01*
G37*
X163127000Y-104803000D02*
X163147000Y-104803000D01*
X163147000Y-105057000D01*
X163127000Y-105057000D01*
X163127000Y-105077000D01*
X162873000Y-105077000D01*
X162873000Y-105057000D01*
X162853000Y-105057000D01*
X162853000Y-104803000D01*
X162873000Y-104803000D01*
X162873000Y-104783000D01*
X163127000Y-104783000D01*
X163127000Y-104803000D01*
G36*
X161561928Y-87950000D02*
G01*
X161574188Y-88074482D01*
X161610498Y-88194180D01*
X161669463Y-88304494D01*
X161748815Y-88401185D01*
X161845506Y-88480537D01*
X161955820Y-88539502D01*
X162075518Y-88575812D01*
X162083961Y-88576643D01*
X161885363Y-88775241D01*
X161728320Y-89010273D01*
X161620147Y-89271426D01*
X161565000Y-89548665D01*
X161565000Y-89831335D01*
X161620147Y-90108574D01*
X161728320Y-90369727D01*
X161885363Y-90604759D01*
X162085241Y-90804637D01*
X162317759Y-90960000D01*
X162085241Y-91115363D01*
X161885363Y-91315241D01*
X161728320Y-91550273D01*
X161620147Y-91811426D01*
X161565000Y-92088665D01*
X161565000Y-92371335D01*
X161620147Y-92648574D01*
X161728320Y-92909727D01*
X161885363Y-93144759D01*
X162085241Y-93344637D01*
X162320273Y-93501680D01*
X162330865Y-93506067D01*
X162144869Y-93617615D01*
X161936481Y-93806586D01*
X161768963Y-94032580D01*
X161648754Y-94286913D01*
X161608096Y-94420961D01*
X161730085Y-94643000D01*
X162873000Y-94643000D01*
X162873000Y-94623000D01*
X163127000Y-94623000D01*
X163127000Y-94643000D01*
X164269915Y-94643000D01*
X164391904Y-94420961D01*
X164351246Y-94286913D01*
X164231037Y-94032580D01*
X164063519Y-93806586D01*
X163855131Y-93617615D01*
X163669135Y-93506067D01*
X163679727Y-93501680D01*
X163914759Y-93344637D01*
X164114637Y-93144759D01*
X164271680Y-92909727D01*
X164379853Y-92648574D01*
X164435000Y-92371335D01*
X164435000Y-92088665D01*
X164379853Y-91811426D01*
X164271680Y-91550273D01*
X164114637Y-91315241D01*
X163914759Y-91115363D01*
X163682241Y-90960000D01*
X163914759Y-90804637D01*
X164114637Y-90604759D01*
X164271680Y-90369727D01*
X164379853Y-90108574D01*
X164435000Y-89831335D01*
X164435000Y-89548665D01*
X164379853Y-89271426D01*
X164271680Y-89010273D01*
X164114637Y-88775241D01*
X163916039Y-88576643D01*
X163924482Y-88575812D01*
X164044180Y-88539502D01*
X164154494Y-88480537D01*
X164251185Y-88401185D01*
X164330537Y-88304494D01*
X164389502Y-88194180D01*
X164425812Y-88074482D01*
X164438072Y-87950000D01*
X164438072Y-86784999D01*
X167461545Y-86784999D01*
X167509743Y-86817204D01*
X167698101Y-86895225D01*
X167898060Y-86934999D01*
X168095197Y-86934999D01*
X164838968Y-90191229D01*
X164809970Y-90215027D01*
X164786172Y-90244025D01*
X164786171Y-90244026D01*
X164714996Y-90330752D01*
X164644424Y-90462782D01*
X164620637Y-90541200D01*
X164600968Y-90606042D01*
X164593585Y-90680999D01*
X164586294Y-90755028D01*
X164589971Y-90792360D01*
X164589970Y-97135228D01*
X164435000Y-97290198D01*
X164435000Y-97182998D01*
X164269916Y-97182998D01*
X164391904Y-96960961D01*
X164351246Y-96826913D01*
X164231037Y-96572580D01*
X164063519Y-96346586D01*
X163855131Y-96157615D01*
X163659018Y-96040000D01*
X163855131Y-95922385D01*
X164063519Y-95733414D01*
X164231037Y-95507420D01*
X164351246Y-95253087D01*
X164391904Y-95119039D01*
X164269915Y-94897000D01*
X163127000Y-94897000D01*
X163127000Y-97183000D01*
X163147000Y-97183000D01*
X163147000Y-97437000D01*
X163127000Y-97437000D01*
X163127000Y-97457000D01*
X162873000Y-97457000D01*
X162873000Y-97437000D01*
X161730085Y-97437000D01*
X161608096Y-97659039D01*
X161612937Y-97675001D01*
X161237334Y-97675001D01*
X161200001Y-97671324D01*
X161162668Y-97675001D01*
X161051015Y-97685998D01*
X160907754Y-97729455D01*
X160775725Y-97800027D01*
X160660000Y-97895000D01*
X160636202Y-97923998D01*
X159390978Y-99169222D01*
X159234637Y-98935241D01*
X159034759Y-98735363D01*
X158802241Y-98580000D01*
X159034759Y-98424637D01*
X159234637Y-98224759D01*
X159391680Y-97989727D01*
X159499853Y-97728574D01*
X159555000Y-97451335D01*
X159555000Y-97168665D01*
X159499853Y-96891426D01*
X159391680Y-96630273D01*
X159234637Y-96395241D01*
X159034759Y-96195363D01*
X158802241Y-96040000D01*
X159034759Y-95884637D01*
X159234637Y-95684759D01*
X159391680Y-95449727D01*
X159499853Y-95188574D01*
X159513684Y-95119039D01*
X161608096Y-95119039D01*
X161648754Y-95253087D01*
X161768963Y-95507420D01*
X161936481Y-95733414D01*
X162144869Y-95922385D01*
X162340982Y-96040000D01*
X162144869Y-96157615D01*
X161936481Y-96346586D01*
X161768963Y-96572580D01*
X161648754Y-96826913D01*
X161608096Y-96960961D01*
X161730085Y-97183000D01*
X162873000Y-97183000D01*
X162873000Y-94897000D01*
X161730085Y-94897000D01*
X161608096Y-95119039D01*
X159513684Y-95119039D01*
X159555000Y-94911335D01*
X159555000Y-94628665D01*
X159499853Y-94351426D01*
X159391680Y-94090273D01*
X159234637Y-93855241D01*
X159034759Y-93655363D01*
X158802241Y-93500000D01*
X159034759Y-93344637D01*
X159234637Y-93144759D01*
X159391680Y-92909727D01*
X159499853Y-92648574D01*
X159555000Y-92371335D01*
X159555000Y-92088665D01*
X159499853Y-91811426D01*
X159391680Y-91550273D01*
X159234637Y-91315241D01*
X159034759Y-91115363D01*
X158802241Y-90960000D01*
X159034759Y-90804637D01*
X159234637Y-90604759D01*
X159391680Y-90369727D01*
X159499853Y-90108574D01*
X159555000Y-89831335D01*
X159555000Y-89548665D01*
X159499853Y-89271426D01*
X159391680Y-89010273D01*
X159234637Y-88775241D01*
X159034759Y-88575363D01*
X158802241Y-88420000D01*
X159034759Y-88264637D01*
X159234637Y-88064759D01*
X159391680Y-87829727D01*
X159499853Y-87568574D01*
X159555000Y-87291335D01*
X159555000Y-87008665D01*
X159548017Y-86973561D01*
X159736580Y-86784999D01*
X161561928Y-86784999D01*
X161561928Y-87950000D01*
G37*
X161561928Y-87950000D02*
X161574188Y-88074482D01*
X161610498Y-88194180D01*
X161669463Y-88304494D01*
X161748815Y-88401185D01*
X161845506Y-88480537D01*
X161955820Y-88539502D01*
X162075518Y-88575812D01*
X162083961Y-88576643D01*
X161885363Y-88775241D01*
X161728320Y-89010273D01*
X161620147Y-89271426D01*
X161565000Y-89548665D01*
X161565000Y-89831335D01*
X161620147Y-90108574D01*
X161728320Y-90369727D01*
X161885363Y-90604759D01*
X162085241Y-90804637D01*
X162317759Y-90960000D01*
X162085241Y-91115363D01*
X161885363Y-91315241D01*
X161728320Y-91550273D01*
X161620147Y-91811426D01*
X161565000Y-92088665D01*
X161565000Y-92371335D01*
X161620147Y-92648574D01*
X161728320Y-92909727D01*
X161885363Y-93144759D01*
X162085241Y-93344637D01*
X162320273Y-93501680D01*
X162330865Y-93506067D01*
X162144869Y-93617615D01*
X161936481Y-93806586D01*
X161768963Y-94032580D01*
X161648754Y-94286913D01*
X161608096Y-94420961D01*
X161730085Y-94643000D01*
X162873000Y-94643000D01*
X162873000Y-94623000D01*
X163127000Y-94623000D01*
X163127000Y-94643000D01*
X164269915Y-94643000D01*
X164391904Y-94420961D01*
X164351246Y-94286913D01*
X164231037Y-94032580D01*
X164063519Y-93806586D01*
X163855131Y-93617615D01*
X163669135Y-93506067D01*
X163679727Y-93501680D01*
X163914759Y-93344637D01*
X164114637Y-93144759D01*
X164271680Y-92909727D01*
X164379853Y-92648574D01*
X164435000Y-92371335D01*
X164435000Y-92088665D01*
X164379853Y-91811426D01*
X164271680Y-91550273D01*
X164114637Y-91315241D01*
X163914759Y-91115363D01*
X163682241Y-90960000D01*
X163914759Y-90804637D01*
X164114637Y-90604759D01*
X164271680Y-90369727D01*
X164379853Y-90108574D01*
X164435000Y-89831335D01*
X164435000Y-89548665D01*
X164379853Y-89271426D01*
X164271680Y-89010273D01*
X164114637Y-88775241D01*
X163916039Y-88576643D01*
X163924482Y-88575812D01*
X164044180Y-88539502D01*
X164154494Y-88480537D01*
X164251185Y-88401185D01*
X164330537Y-88304494D01*
X164389502Y-88194180D01*
X164425812Y-88074482D01*
X164438072Y-87950000D01*
X164438072Y-86784999D01*
X167461545Y-86784999D01*
X167509743Y-86817204D01*
X167698101Y-86895225D01*
X167898060Y-86934999D01*
X168095197Y-86934999D01*
X164838968Y-90191229D01*
X164809970Y-90215027D01*
X164786172Y-90244025D01*
X164786171Y-90244026D01*
X164714996Y-90330752D01*
X164644424Y-90462782D01*
X164620637Y-90541200D01*
X164600968Y-90606042D01*
X164593585Y-90680999D01*
X164586294Y-90755028D01*
X164589971Y-90792360D01*
X164589970Y-97135228D01*
X164435000Y-97290198D01*
X164435000Y-97182998D01*
X164269916Y-97182998D01*
X164391904Y-96960961D01*
X164351246Y-96826913D01*
X164231037Y-96572580D01*
X164063519Y-96346586D01*
X163855131Y-96157615D01*
X163659018Y-96040000D01*
X163855131Y-95922385D01*
X164063519Y-95733414D01*
X164231037Y-95507420D01*
X164351246Y-95253087D01*
X164391904Y-95119039D01*
X164269915Y-94897000D01*
X163127000Y-94897000D01*
X163127000Y-97183000D01*
X163147000Y-97183000D01*
X163147000Y-97437000D01*
X163127000Y-97437000D01*
X163127000Y-97457000D01*
X162873000Y-97457000D01*
X162873000Y-97437000D01*
X161730085Y-97437000D01*
X161608096Y-97659039D01*
X161612937Y-97675001D01*
X161237334Y-97675001D01*
X161200001Y-97671324D01*
X161162668Y-97675001D01*
X161051015Y-97685998D01*
X160907754Y-97729455D01*
X160775725Y-97800027D01*
X160660000Y-97895000D01*
X160636202Y-97923998D01*
X159390978Y-99169222D01*
X159234637Y-98935241D01*
X159034759Y-98735363D01*
X158802241Y-98580000D01*
X159034759Y-98424637D01*
X159234637Y-98224759D01*
X159391680Y-97989727D01*
X159499853Y-97728574D01*
X159555000Y-97451335D01*
X159555000Y-97168665D01*
X159499853Y-96891426D01*
X159391680Y-96630273D01*
X159234637Y-96395241D01*
X159034759Y-96195363D01*
X158802241Y-96040000D01*
X159034759Y-95884637D01*
X159234637Y-95684759D01*
X159391680Y-95449727D01*
X159499853Y-95188574D01*
X159513684Y-95119039D01*
X161608096Y-95119039D01*
X161648754Y-95253087D01*
X161768963Y-95507420D01*
X161936481Y-95733414D01*
X162144869Y-95922385D01*
X162340982Y-96040000D01*
X162144869Y-96157615D01*
X161936481Y-96346586D01*
X161768963Y-96572580D01*
X161648754Y-96826913D01*
X161608096Y-96960961D01*
X161730085Y-97183000D01*
X162873000Y-97183000D01*
X162873000Y-94897000D01*
X161730085Y-94897000D01*
X161608096Y-95119039D01*
X159513684Y-95119039D01*
X159555000Y-94911335D01*
X159555000Y-94628665D01*
X159499853Y-94351426D01*
X159391680Y-94090273D01*
X159234637Y-93855241D01*
X159034759Y-93655363D01*
X158802241Y-93500000D01*
X159034759Y-93344637D01*
X159234637Y-93144759D01*
X159391680Y-92909727D01*
X159499853Y-92648574D01*
X159555000Y-92371335D01*
X159555000Y-92088665D01*
X159499853Y-91811426D01*
X159391680Y-91550273D01*
X159234637Y-91315241D01*
X159034759Y-91115363D01*
X158802241Y-90960000D01*
X159034759Y-90804637D01*
X159234637Y-90604759D01*
X159391680Y-90369727D01*
X159499853Y-90108574D01*
X159555000Y-89831335D01*
X159555000Y-89548665D01*
X159499853Y-89271426D01*
X159391680Y-89010273D01*
X159234637Y-88775241D01*
X159034759Y-88575363D01*
X158802241Y-88420000D01*
X159034759Y-88264637D01*
X159234637Y-88064759D01*
X159391680Y-87829727D01*
X159499853Y-87568574D01*
X159555000Y-87291335D01*
X159555000Y-87008665D01*
X159548017Y-86973561D01*
X159736580Y-86784999D01*
X161561928Y-86784999D01*
X161561928Y-87950000D01*
G36*
X133412739Y-85822543D02*
G01*
X133327000Y-85869376D01*
X133327000Y-87013000D01*
X134469915Y-87013000D01*
X134517175Y-86926979D01*
X135416748Y-87826552D01*
X135348983Y-87805996D01*
X135237330Y-87794999D01*
X135237319Y-87794999D01*
X135199997Y-87791323D01*
X135162675Y-87794999D01*
X134469993Y-87794999D01*
X134551246Y-87623087D01*
X134591904Y-87489039D01*
X134469915Y-87267000D01*
X133327000Y-87267000D01*
X133327000Y-87287000D01*
X133073000Y-87287000D01*
X133073000Y-87267000D01*
X131930085Y-87267000D01*
X131808096Y-87489039D01*
X131848754Y-87623087D01*
X131930007Y-87794999D01*
X127098182Y-87794999D01*
X127135646Y-87774974D01*
X127251371Y-87680001D01*
X127275174Y-87650997D01*
X128266172Y-86660000D01*
X130796289Y-86660000D01*
X130840226Y-86703937D01*
X131009744Y-86817205D01*
X131198102Y-86895226D01*
X131398061Y-86935000D01*
X131601939Y-86935000D01*
X131801898Y-86895226D01*
X131853611Y-86873806D01*
X131930085Y-87013000D01*
X133073000Y-87013000D01*
X133073000Y-85869376D01*
X132850960Y-85748091D01*
X132586119Y-85842930D01*
X132535000Y-85873588D01*
X132535000Y-85798061D01*
X132495226Y-85598102D01*
X132417205Y-85409744D01*
X132303937Y-85240226D01*
X132159774Y-85096063D01*
X131990256Y-84982795D01*
X131935224Y-84960000D01*
X132550197Y-84960000D01*
X133412739Y-85822543D01*
G37*
X133412739Y-85822543D02*
X133327000Y-85869376D01*
X133327000Y-87013000D01*
X134469915Y-87013000D01*
X134517175Y-86926979D01*
X135416748Y-87826552D01*
X135348983Y-87805996D01*
X135237330Y-87794999D01*
X135237319Y-87794999D01*
X135199997Y-87791323D01*
X135162675Y-87794999D01*
X134469993Y-87794999D01*
X134551246Y-87623087D01*
X134591904Y-87489039D01*
X134469915Y-87267000D01*
X133327000Y-87267000D01*
X133327000Y-87287000D01*
X133073000Y-87287000D01*
X133073000Y-87267000D01*
X131930085Y-87267000D01*
X131808096Y-87489039D01*
X131848754Y-87623087D01*
X131930007Y-87794999D01*
X127098182Y-87794999D01*
X127135646Y-87774974D01*
X127251371Y-87680001D01*
X127275174Y-87650997D01*
X128266172Y-86660000D01*
X130796289Y-86660000D01*
X130840226Y-86703937D01*
X131009744Y-86817205D01*
X131198102Y-86895226D01*
X131398061Y-86935000D01*
X131601939Y-86935000D01*
X131801898Y-86895226D01*
X131853611Y-86873806D01*
X131930085Y-87013000D01*
X133073000Y-87013000D01*
X133073000Y-85869376D01*
X132850960Y-85748091D01*
X132586119Y-85842930D01*
X132535000Y-85873588D01*
X132535000Y-85798061D01*
X132495226Y-85598102D01*
X132417205Y-85409744D01*
X132303937Y-85240226D01*
X132159774Y-85096063D01*
X131990256Y-84982795D01*
X131935224Y-84960000D01*
X132550197Y-84960000D01*
X133412739Y-85822543D01*
G36*
X138605199Y-71080000D02*
G01*
X138577871Y-71080000D01*
X138338305Y-71127652D01*
X138112640Y-71221126D01*
X137909546Y-71356829D01*
X137736829Y-71529546D01*
X137601126Y-71732640D01*
X137574295Y-71797416D01*
X137560001Y-71779999D01*
X137444276Y-71685026D01*
X137312247Y-71614454D01*
X137168986Y-71570997D01*
X137057333Y-71560000D01*
X137057322Y-71560000D01*
X137020000Y-71556324D01*
X136982678Y-71560000D01*
X132063520Y-71560000D01*
X132043171Y-71529546D01*
X131870454Y-71356829D01*
X131667360Y-71221126D01*
X131441695Y-71127652D01*
X131202129Y-71080000D01*
X130957871Y-71080000D01*
X130718305Y-71127652D01*
X130492640Y-71221126D01*
X130289546Y-71356829D01*
X130116829Y-71529546D01*
X129981126Y-71732640D01*
X129887652Y-71958305D01*
X129840000Y-72197871D01*
X129840000Y-72442129D01*
X129887652Y-72681695D01*
X129981126Y-72907360D01*
X130116829Y-73110454D01*
X130289546Y-73283171D01*
X130492640Y-73418874D01*
X130718305Y-73512348D01*
X130957871Y-73560000D01*
X131202129Y-73560000D01*
X131441695Y-73512348D01*
X131667360Y-73418874D01*
X131870454Y-73283171D01*
X132043171Y-73110454D01*
X132063520Y-73080000D01*
X136705199Y-73080000D01*
X149410122Y-85784925D01*
X149345506Y-85819463D01*
X149262437Y-85887635D01*
X143163784Y-79788983D01*
X143139981Y-79759979D01*
X143024256Y-79665006D01*
X142892227Y-79594434D01*
X142748966Y-79550977D01*
X142637313Y-79539980D01*
X142637302Y-79539980D01*
X142599980Y-79536304D01*
X142562658Y-79539980D01*
X133314782Y-79539980D01*
X124038794Y-70263993D01*
X124014991Y-70234989D01*
X123899266Y-70140016D01*
X123767237Y-70069444D01*
X123623976Y-70025987D01*
X123512323Y-70014990D01*
X123512312Y-70014990D01*
X123474990Y-70011314D01*
X123437668Y-70014990D01*
X121679326Y-70014990D01*
X121774367Y-69791818D01*
X121791904Y-69709039D01*
X121669915Y-69487000D01*
X120127000Y-69487000D01*
X120127000Y-69507000D01*
X119873000Y-69507000D01*
X119873000Y-69487000D01*
X119853000Y-69487000D01*
X119853000Y-69233000D01*
X119873000Y-69233000D01*
X119873000Y-69213000D01*
X120127000Y-69213000D01*
X120127000Y-69233000D01*
X121669915Y-69233000D01*
X121791904Y-69010961D01*
X121788520Y-68994990D01*
X136520189Y-68994990D01*
X138605199Y-71080000D01*
G37*
X138605199Y-71080000D02*
X138577871Y-71080000D01*
X138338305Y-71127652D01*
X138112640Y-71221126D01*
X137909546Y-71356829D01*
X137736829Y-71529546D01*
X137601126Y-71732640D01*
X137574295Y-71797416D01*
X137560001Y-71779999D01*
X137444276Y-71685026D01*
X137312247Y-71614454D01*
X137168986Y-71570997D01*
X137057333Y-71560000D01*
X137057322Y-71560000D01*
X137020000Y-71556324D01*
X136982678Y-71560000D01*
X132063520Y-71560000D01*
X132043171Y-71529546D01*
X131870454Y-71356829D01*
X131667360Y-71221126D01*
X131441695Y-71127652D01*
X131202129Y-71080000D01*
X130957871Y-71080000D01*
X130718305Y-71127652D01*
X130492640Y-71221126D01*
X130289546Y-71356829D01*
X130116829Y-71529546D01*
X129981126Y-71732640D01*
X129887652Y-71958305D01*
X129840000Y-72197871D01*
X129840000Y-72442129D01*
X129887652Y-72681695D01*
X129981126Y-72907360D01*
X130116829Y-73110454D01*
X130289546Y-73283171D01*
X130492640Y-73418874D01*
X130718305Y-73512348D01*
X130957871Y-73560000D01*
X131202129Y-73560000D01*
X131441695Y-73512348D01*
X131667360Y-73418874D01*
X131870454Y-73283171D01*
X132043171Y-73110454D01*
X132063520Y-73080000D01*
X136705199Y-73080000D01*
X149410122Y-85784925D01*
X149345506Y-85819463D01*
X149262437Y-85887635D01*
X143163784Y-79788983D01*
X143139981Y-79759979D01*
X143024256Y-79665006D01*
X142892227Y-79594434D01*
X142748966Y-79550977D01*
X142637313Y-79539980D01*
X142637302Y-79539980D01*
X142599980Y-79536304D01*
X142562658Y-79539980D01*
X133314782Y-79539980D01*
X124038794Y-70263993D01*
X124014991Y-70234989D01*
X123899266Y-70140016D01*
X123767237Y-70069444D01*
X123623976Y-70025987D01*
X123512323Y-70014990D01*
X123512312Y-70014990D01*
X123474990Y-70011314D01*
X123437668Y-70014990D01*
X121679326Y-70014990D01*
X121774367Y-69791818D01*
X121791904Y-69709039D01*
X121669915Y-69487000D01*
X120127000Y-69487000D01*
X120127000Y-69507000D01*
X119873000Y-69507000D01*
X119873000Y-69487000D01*
X119853000Y-69487000D01*
X119853000Y-69233000D01*
X119873000Y-69233000D01*
X119873000Y-69213000D01*
X120127000Y-69213000D01*
X120127000Y-69233000D01*
X121669915Y-69233000D01*
X121791904Y-69010961D01*
X121788520Y-68994990D01*
X136520189Y-68994990D01*
X138605199Y-71080000D01*
G36*
X138119222Y-82045059D02*
G01*
X137975059Y-82189222D01*
X137861791Y-82358740D01*
X137783770Y-82547098D01*
X137743996Y-82747057D01*
X137743996Y-82950935D01*
X137783770Y-83150894D01*
X137861791Y-83339252D01*
X137975059Y-83508770D01*
X138081288Y-83614999D01*
X136035336Y-83614999D01*
X135998003Y-83611322D01*
X135960670Y-83614999D01*
X135849017Y-83625996D01*
X135705756Y-83669453D01*
X135573727Y-83740025D01*
X135458002Y-83834998D01*
X135434199Y-83864002D01*
X135333200Y-83965001D01*
X134341211Y-83965001D01*
X132590213Y-82214004D01*
X132566410Y-82185000D01*
X132450685Y-82090027D01*
X132318656Y-82019455D01*
X132175395Y-81975998D01*
X132063742Y-81965001D01*
X132063731Y-81965001D01*
X132026409Y-81961325D01*
X131989087Y-81965001D01*
X128639803Y-81965001D01*
X128634802Y-81960000D01*
X138246522Y-81960000D01*
X138119222Y-82045059D01*
G37*
X138119222Y-82045059D02*
X137975059Y-82189222D01*
X137861791Y-82358740D01*
X137783770Y-82547098D01*
X137743996Y-82747057D01*
X137743996Y-82950935D01*
X137783770Y-83150894D01*
X137861791Y-83339252D01*
X137975059Y-83508770D01*
X138081288Y-83614999D01*
X136035336Y-83614999D01*
X135998003Y-83611322D01*
X135960670Y-83614999D01*
X135849017Y-83625996D01*
X135705756Y-83669453D01*
X135573727Y-83740025D01*
X135458002Y-83834998D01*
X135434199Y-83864002D01*
X135333200Y-83965001D01*
X134341211Y-83965001D01*
X132590213Y-82214004D01*
X132566410Y-82185000D01*
X132450685Y-82090027D01*
X132318656Y-82019455D01*
X132175395Y-81975998D01*
X132063742Y-81965001D01*
X132063731Y-81965001D01*
X132026409Y-81961325D01*
X131989087Y-81965001D01*
X128639803Y-81965001D01*
X128634802Y-81960000D01*
X138246522Y-81960000D01*
X138119222Y-82045059D01*
G36*
X128915198Y-80440000D02*
G01*
X128524802Y-80440000D01*
X122013804Y-73929003D01*
X121990001Y-73899999D01*
X121874276Y-73805026D01*
X121742247Y-73734454D01*
X121632157Y-73701059D01*
X121598932Y-73638899D01*
X121419608Y-73420392D01*
X121201101Y-73241068D01*
X121068142Y-73170000D01*
X121201101Y-73098932D01*
X121405986Y-72930787D01*
X128915198Y-80440000D01*
G37*
X128915198Y-80440000D02*
X128524802Y-80440000D01*
X122013804Y-73929003D01*
X121990001Y-73899999D01*
X121874276Y-73805026D01*
X121742247Y-73734454D01*
X121632157Y-73701059D01*
X121598932Y-73638899D01*
X121419608Y-73420392D01*
X121201101Y-73241068D01*
X121068142Y-73170000D01*
X121201101Y-73098932D01*
X121405986Y-72930787D01*
X128915198Y-80440000D01*
M02*
