G04 #@! TF.GenerationSoftware,KiCad,Pcbnew,(5.1.5)-3*
G04 #@! TF.CreationDate,2021-12-23T14:00:04+02:00*
G04 #@! TF.ProjectId,CPU,4350552e-6b69-4636-9164-5f7063625858,rev?*
G04 #@! TF.SameCoordinates,Original*
G04 #@! TF.FileFunction,Copper,L1,Top*
G04 #@! TF.FilePolarity,Positive*
%FSLAX46Y46*%
G04 Gerber Fmt 4.6, Leading zero omitted, Abs format (unit mm)*
G04 Created by KiCad (PCBNEW (5.1.5)-3) date 2021-12-23 14:00:04*
%MOMM*%
%LPD*%
G04 APERTURE LIST*
%ADD10C,1.210000*%
%ADD11C,0.100000*%
%ADD12O,2.400000X1.600000*%
%ADD13R,2.400000X1.600000*%
%ADD14O,1.700000X1.700000*%
%ADD15R,1.700000X1.700000*%
%ADD16O,1.600000X1.600000*%
%ADD17R,1.600000X1.600000*%
%ADD18R,1.524000X6.858000*%
%ADD19C,0.800000*%
%ADD20C,1.000000*%
%ADD21C,0.250000*%
%ADD22C,1.000000*%
%ADD23C,0.500000*%
G04 APERTURE END LIST*
D10*
X138700000Y-72320000D03*
X131080000Y-72320000D03*
X131080000Y-64700000D03*
X138700000Y-64700000D03*
G04 #@! TA.AperFunction,SMDPad,CuDef*
D11*
G36*
X177527691Y-81526053D02*
G01*
X177548926Y-81529203D01*
X177569750Y-81534419D01*
X177589962Y-81541651D01*
X177609368Y-81550830D01*
X177627781Y-81561866D01*
X177645024Y-81574654D01*
X177660930Y-81589070D01*
X177675346Y-81604976D01*
X177688134Y-81622219D01*
X177699170Y-81640632D01*
X177708349Y-81660038D01*
X177715581Y-81680250D01*
X177720797Y-81701074D01*
X177723947Y-81722309D01*
X177725000Y-81743750D01*
X177725000Y-82256250D01*
X177723947Y-82277691D01*
X177720797Y-82298926D01*
X177715581Y-82319750D01*
X177708349Y-82339962D01*
X177699170Y-82359368D01*
X177688134Y-82377781D01*
X177675346Y-82395024D01*
X177660930Y-82410930D01*
X177645024Y-82425346D01*
X177627781Y-82438134D01*
X177609368Y-82449170D01*
X177589962Y-82458349D01*
X177569750Y-82465581D01*
X177548926Y-82470797D01*
X177527691Y-82473947D01*
X177506250Y-82475000D01*
X177068750Y-82475000D01*
X177047309Y-82473947D01*
X177026074Y-82470797D01*
X177005250Y-82465581D01*
X176985038Y-82458349D01*
X176965632Y-82449170D01*
X176947219Y-82438134D01*
X176929976Y-82425346D01*
X176914070Y-82410930D01*
X176899654Y-82395024D01*
X176886866Y-82377781D01*
X176875830Y-82359368D01*
X176866651Y-82339962D01*
X176859419Y-82319750D01*
X176854203Y-82298926D01*
X176851053Y-82277691D01*
X176850000Y-82256250D01*
X176850000Y-81743750D01*
X176851053Y-81722309D01*
X176854203Y-81701074D01*
X176859419Y-81680250D01*
X176866651Y-81660038D01*
X176875830Y-81640632D01*
X176886866Y-81622219D01*
X176899654Y-81604976D01*
X176914070Y-81589070D01*
X176929976Y-81574654D01*
X176947219Y-81561866D01*
X176965632Y-81550830D01*
X176985038Y-81541651D01*
X177005250Y-81534419D01*
X177026074Y-81529203D01*
X177047309Y-81526053D01*
X177068750Y-81525000D01*
X177506250Y-81525000D01*
X177527691Y-81526053D01*
G37*
G04 #@! TD.AperFunction*
G04 #@! TA.AperFunction,SMDPad,CuDef*
G36*
X175952691Y-81526053D02*
G01*
X175973926Y-81529203D01*
X175994750Y-81534419D01*
X176014962Y-81541651D01*
X176034368Y-81550830D01*
X176052781Y-81561866D01*
X176070024Y-81574654D01*
X176085930Y-81589070D01*
X176100346Y-81604976D01*
X176113134Y-81622219D01*
X176124170Y-81640632D01*
X176133349Y-81660038D01*
X176140581Y-81680250D01*
X176145797Y-81701074D01*
X176148947Y-81722309D01*
X176150000Y-81743750D01*
X176150000Y-82256250D01*
X176148947Y-82277691D01*
X176145797Y-82298926D01*
X176140581Y-82319750D01*
X176133349Y-82339962D01*
X176124170Y-82359368D01*
X176113134Y-82377781D01*
X176100346Y-82395024D01*
X176085930Y-82410930D01*
X176070024Y-82425346D01*
X176052781Y-82438134D01*
X176034368Y-82449170D01*
X176014962Y-82458349D01*
X175994750Y-82465581D01*
X175973926Y-82470797D01*
X175952691Y-82473947D01*
X175931250Y-82475000D01*
X175493750Y-82475000D01*
X175472309Y-82473947D01*
X175451074Y-82470797D01*
X175430250Y-82465581D01*
X175410038Y-82458349D01*
X175390632Y-82449170D01*
X175372219Y-82438134D01*
X175354976Y-82425346D01*
X175339070Y-82410930D01*
X175324654Y-82395024D01*
X175311866Y-82377781D01*
X175300830Y-82359368D01*
X175291651Y-82339962D01*
X175284419Y-82319750D01*
X175279203Y-82298926D01*
X175276053Y-82277691D01*
X175275000Y-82256250D01*
X175275000Y-81743750D01*
X175276053Y-81722309D01*
X175279203Y-81701074D01*
X175284419Y-81680250D01*
X175291651Y-81660038D01*
X175300830Y-81640632D01*
X175311866Y-81622219D01*
X175324654Y-81604976D01*
X175339070Y-81589070D01*
X175354976Y-81574654D01*
X175372219Y-81561866D01*
X175390632Y-81550830D01*
X175410038Y-81541651D01*
X175430250Y-81534419D01*
X175451074Y-81529203D01*
X175472309Y-81526053D01*
X175493750Y-81525000D01*
X175931250Y-81525000D01*
X175952691Y-81526053D01*
G37*
G04 #@! TD.AperFunction*
D12*
X104760000Y-110000000D03*
X120000000Y-61740000D03*
X104760000Y-107460000D03*
X120000000Y-64280000D03*
X104760000Y-104920000D03*
X120000000Y-66820000D03*
X104760000Y-102380000D03*
X120000000Y-69360000D03*
X104760000Y-99840000D03*
X120000000Y-71900000D03*
X104760000Y-97300000D03*
X120000000Y-74440000D03*
X104760000Y-94760000D03*
X120000000Y-76980000D03*
X104760000Y-92220000D03*
X120000000Y-79520000D03*
X104760000Y-89680000D03*
X120000000Y-82060000D03*
X104760000Y-87140000D03*
X120000000Y-84600000D03*
X104760000Y-84600000D03*
X120000000Y-87140000D03*
X104760000Y-82060000D03*
X120000000Y-89680000D03*
X104760000Y-79520000D03*
X120000000Y-92220000D03*
X104760000Y-76980000D03*
X120000000Y-94760000D03*
X104760000Y-74440000D03*
X120000000Y-97300000D03*
X104760000Y-71900000D03*
X120000000Y-99840000D03*
X104760000Y-69360000D03*
X120000000Y-102380000D03*
X104760000Y-66820000D03*
X120000000Y-104920000D03*
X104760000Y-64280000D03*
X120000000Y-107460000D03*
X104760000Y-61740000D03*
D13*
X120000000Y-110000000D03*
D14*
X175460000Y-91530000D03*
X178000000Y-91530000D03*
X175460000Y-94070000D03*
X178000000Y-94070000D03*
X175460000Y-96610000D03*
X178000000Y-96610000D03*
X175460000Y-99150000D03*
D15*
X178000000Y-99150000D03*
D16*
X158120000Y-87150000D03*
X150500000Y-110010000D03*
X158120000Y-89690000D03*
X150500000Y-107470000D03*
X158120000Y-92230000D03*
X150500000Y-104930000D03*
X158120000Y-94770000D03*
X150500000Y-102390000D03*
X158120000Y-97310000D03*
X150500000Y-99850000D03*
X158120000Y-99850000D03*
X150500000Y-97310000D03*
X158120000Y-102390000D03*
X150500000Y-94770000D03*
X158120000Y-104930000D03*
X150500000Y-92230000D03*
X158120000Y-107470000D03*
X150500000Y-89690000D03*
X158120000Y-110010000D03*
D17*
X150500000Y-87150000D03*
D16*
X125580000Y-110000000D03*
X133200000Y-87140000D03*
X125580000Y-107460000D03*
X133200000Y-89680000D03*
X125580000Y-104920000D03*
X133200000Y-92220000D03*
X125580000Y-102380000D03*
X133200000Y-94760000D03*
X125580000Y-99840000D03*
X133200000Y-97300000D03*
X125580000Y-97300000D03*
X133200000Y-99840000D03*
X125580000Y-94760000D03*
X133200000Y-102380000D03*
X125580000Y-92220000D03*
X133200000Y-104920000D03*
X125580000Y-89680000D03*
X133200000Y-107460000D03*
X125580000Y-87140000D03*
D17*
X133200000Y-110000000D03*
D16*
X145620000Y-87150000D03*
X138000000Y-110010000D03*
X145620000Y-89690000D03*
X138000000Y-107470000D03*
X145620000Y-92230000D03*
X138000000Y-104930000D03*
X145620000Y-94770000D03*
X138000000Y-102390000D03*
X145620000Y-97310000D03*
X138000000Y-99850000D03*
X145620000Y-99850000D03*
X138000000Y-97310000D03*
X145620000Y-102390000D03*
X138000000Y-94770000D03*
X145620000Y-104930000D03*
X138000000Y-92230000D03*
X145620000Y-107470000D03*
X138000000Y-89690000D03*
X145620000Y-110010000D03*
D17*
X138000000Y-87150000D03*
D16*
X170620000Y-87150000D03*
X163000000Y-104930000D03*
X170620000Y-89690000D03*
X163000000Y-102390000D03*
X170620000Y-92230000D03*
X163000000Y-99850000D03*
X170620000Y-94770000D03*
X163000000Y-97310000D03*
X170620000Y-97310000D03*
X163000000Y-94770000D03*
X170620000Y-99850000D03*
X163000000Y-92230000D03*
X170620000Y-102390000D03*
X163000000Y-89690000D03*
X170620000Y-104930000D03*
D17*
X163000000Y-87150000D03*
D18*
X101900000Y-120381000D03*
X104440000Y-120381000D03*
X106980000Y-120381000D03*
X109520000Y-120381000D03*
X112060000Y-120381000D03*
X114600000Y-120381000D03*
X117140000Y-120381000D03*
X119680000Y-120381000D03*
X122220000Y-120381000D03*
X124760000Y-120381000D03*
X127300000Y-120381000D03*
X129840000Y-120381000D03*
X132380000Y-120381000D03*
X134920000Y-120381000D03*
X137460000Y-120381000D03*
X140000000Y-120381000D03*
X142540000Y-120381000D03*
X145080000Y-120381000D03*
X147620000Y-120381000D03*
X150160000Y-120381000D03*
X152700000Y-120381000D03*
X155240000Y-120381000D03*
X157780000Y-120381000D03*
X160320000Y-120381000D03*
X162860000Y-120381000D03*
X165400000Y-120381000D03*
X167940000Y-120381000D03*
X170480000Y-120381000D03*
X173020000Y-120381000D03*
X175560000Y-120381000D03*
X178100000Y-120381000D03*
D19*
X127300000Y-79000000D03*
X153000000Y-107000000D03*
X116460000Y-69360000D03*
X112800000Y-76700000D03*
X108800000Y-108200000D03*
D20*
X176800000Y-103100000D03*
X178400000Y-106200000D03*
D19*
X130300000Y-82000000D03*
X135300000Y-84000000D03*
X174500000Y-82000000D03*
D20*
X102000000Y-113000000D03*
D19*
X110100000Y-109900000D03*
X107600000Y-112400000D03*
X141200000Y-70000000D03*
X151000000Y-84800000D03*
X144300000Y-84800000D03*
X167999999Y-85899999D03*
X173020000Y-113120000D03*
X173500000Y-104500000D03*
X173500000Y-101600000D03*
X173500000Y-94100000D03*
X173500000Y-92500000D03*
X105200000Y-112000000D03*
X134489990Y-62010010D03*
X175560000Y-115000000D03*
X123000000Y-109085002D03*
X107289994Y-107460000D03*
X139300000Y-111200000D03*
X140400000Y-111200000D03*
X141600000Y-111200000D03*
X142800000Y-111200000D03*
X138778996Y-82848996D03*
X110000000Y-78230000D03*
X115000000Y-73230000D03*
X110000000Y-80770000D03*
X115000000Y-75770000D03*
X124500000Y-80500000D03*
X131500000Y-85900000D03*
X139000000Y-113500000D03*
X151000000Y-83500000D03*
X138000000Y-85100000D03*
X130000000Y-85000000D03*
X127000000Y-67000000D03*
X133200000Y-113700000D03*
X131900000Y-112400000D03*
X148700000Y-110000000D03*
X154000000Y-115402000D03*
X162500000Y-108600000D03*
D21*
X164125001Y-103804999D02*
X163799999Y-104130001D01*
X164125001Y-98435001D02*
X164125001Y-103804999D01*
X163799999Y-104130001D02*
X163000000Y-104930000D01*
X163000000Y-97310000D02*
X164125001Y-98435001D01*
D22*
X163000000Y-96178630D02*
X163000000Y-94770000D01*
X163000000Y-97310000D02*
X163000000Y-96178630D01*
X175460000Y-97947919D02*
X175460000Y-96610000D01*
X175460000Y-99150000D02*
X175460000Y-97947919D01*
X175460000Y-95407919D02*
X175460000Y-94070000D01*
X175460000Y-96610000D02*
X175460000Y-95407919D01*
D21*
X150555685Y-110010000D02*
X150500000Y-110010000D01*
D23*
X120000000Y-69360000D02*
X116460000Y-69360000D01*
X116460000Y-69360000D02*
X116460000Y-69360000D01*
X153000000Y-107510000D02*
X150500000Y-110010000D01*
X153000000Y-107000000D02*
X153000000Y-107510000D01*
X139131370Y-110010000D02*
X138000000Y-110010000D01*
X143268002Y-110010000D02*
X139131370Y-110010000D01*
X144518003Y-111260001D02*
X143268002Y-110010000D01*
X146220001Y-111260001D02*
X144518003Y-111260001D01*
X148330003Y-109149999D02*
X146220001Y-111260001D01*
X149639999Y-109149999D02*
X148330003Y-109149999D01*
X150500000Y-110010000D02*
X149639999Y-109149999D01*
X108800000Y-80700000D02*
X108800000Y-108200000D01*
X112800000Y-76700000D02*
X108800000Y-80700000D01*
D22*
X176800000Y-104600000D02*
X178400000Y-106200000D01*
X176800000Y-103100000D02*
X176800000Y-104600000D01*
D23*
X127300000Y-79000000D02*
X130300000Y-82000000D01*
X130300000Y-82000000D02*
X130300000Y-82000000D01*
X132068630Y-87140000D02*
X133200000Y-87140000D01*
X130881998Y-87140000D02*
X132068630Y-87140000D01*
X129149999Y-85408001D02*
X130881998Y-87140000D01*
X129149999Y-84591999D02*
X129149999Y-85408001D01*
X129741998Y-84000000D02*
X129149999Y-84591999D01*
X135300000Y-84000000D02*
X129741998Y-84000000D01*
D22*
X102560000Y-94020000D02*
X104360000Y-92220000D01*
X104360000Y-92220000D02*
X104760000Y-92220000D01*
X102560000Y-108200000D02*
X102560000Y-94020000D01*
X104360000Y-110000000D02*
X102560000Y-108200000D01*
X104760000Y-110000000D02*
X104360000Y-110000000D01*
X102560000Y-64280000D02*
X104760000Y-64280000D01*
X101959970Y-64880030D02*
X102560000Y-64280000D01*
X101959970Y-91619970D02*
X101959970Y-64880030D01*
X102560000Y-92220000D02*
X101959970Y-91619970D01*
X104760000Y-92220000D02*
X102560000Y-92220000D01*
D23*
X110100000Y-109900000D02*
X107600000Y-112400000D01*
X107600000Y-112400000D02*
X107600000Y-112400000D01*
X103109990Y-61222229D02*
X103842229Y-60489990D01*
X103109990Y-62257771D02*
X103109990Y-61222229D01*
X104760000Y-64280000D02*
X105132219Y-64280000D01*
X105132219Y-64280000D02*
X103109990Y-62257771D01*
X141020000Y-70000000D02*
X138700000Y-72320000D01*
X141200000Y-70000000D02*
X141020000Y-70000000D01*
X151000000Y-84800000D02*
X144300000Y-84800000D01*
X144300000Y-84800000D02*
X144300000Y-84800000D01*
X155770000Y-84800000D02*
X158120000Y-87150000D01*
X151000000Y-84800000D02*
X155770000Y-84800000D01*
X169369999Y-85899999D02*
X170620000Y-87150000D01*
X167999999Y-85899999D02*
X169369999Y-85899999D01*
X173020000Y-113120000D02*
X173020000Y-104980000D01*
X173020000Y-104980000D02*
X173500000Y-104500000D01*
X173500000Y-104500000D02*
X173500000Y-104500000D01*
X173500000Y-101600000D02*
X173500000Y-94100000D01*
X173500000Y-94100000D02*
X173500000Y-94100000D01*
X173500000Y-90030000D02*
X170620000Y-87150000D01*
X173500000Y-92500000D02*
X173500000Y-90030000D01*
X173039999Y-101139999D02*
X173100001Y-101200001D01*
X169146815Y-101139999D02*
X173039999Y-101139999D01*
X164106813Y-106180001D02*
X169146815Y-101139999D01*
X162399999Y-106180001D02*
X164106813Y-106180001D01*
X173100001Y-101200001D02*
X173500000Y-101600000D01*
X161749999Y-105530001D02*
X162399999Y-106180001D01*
X161749999Y-101100001D02*
X161749999Y-105530001D01*
X163000000Y-99850000D02*
X161749999Y-101100001D01*
X104200000Y-113000000D02*
X105200000Y-112000000D01*
X102000000Y-113000000D02*
X104200000Y-113000000D01*
D22*
X104760000Y-110240000D02*
X102000000Y-113000000D01*
X104760000Y-110000000D02*
X104760000Y-110240000D01*
D23*
X132969970Y-60489990D02*
X103842229Y-60489990D01*
X134489990Y-62010010D02*
X132969970Y-60489990D01*
D21*
X175712500Y-82000000D02*
X174500000Y-82000000D01*
X123040000Y-64280000D02*
X131080000Y-72320000D01*
X120000000Y-64280000D02*
X123040000Y-64280000D01*
X175560000Y-101590000D02*
X178000000Y-99150000D01*
X175560000Y-115000000D02*
X175560000Y-101590000D01*
X104760000Y-62790000D02*
X104760000Y-61740000D01*
X104835010Y-62865010D02*
X104760000Y-62790000D01*
X151710422Y-62865010D02*
X104835010Y-62865010D01*
X179625010Y-98624990D02*
X179625010Y-90779598D01*
X178000000Y-99150000D02*
X179100000Y-99150000D01*
X179100000Y-99150000D02*
X179625010Y-98624990D01*
X179625010Y-90779598D02*
X151710422Y-62865010D01*
X177287500Y-88412500D02*
X177272706Y-88427294D01*
X177287500Y-82000000D02*
X177287500Y-88412500D01*
X125039999Y-111125001D02*
X123000000Y-109085002D01*
X134423001Y-111125001D02*
X125039999Y-111125001D01*
X140000000Y-120381000D02*
X140000000Y-116702000D01*
X140000000Y-116702000D02*
X134423001Y-111125001D01*
X123000000Y-109085002D02*
X123000000Y-109085002D01*
X107289994Y-107460000D02*
X107289994Y-107460000D01*
X107289994Y-107460000D02*
X104760000Y-107460000D01*
X142540000Y-120381000D02*
X142540000Y-114440000D01*
X142540000Y-114440000D02*
X139300000Y-111200000D01*
X139300000Y-111200000D02*
X139300000Y-111200000D01*
X145080000Y-120381000D02*
X145080000Y-115880000D01*
X145080000Y-115880000D02*
X140400000Y-111200000D01*
X140400000Y-111200000D02*
X140400000Y-111200000D01*
X146218000Y-115300000D02*
X145136410Y-115300000D01*
X147620000Y-120381000D02*
X147620000Y-116702000D01*
X147620000Y-116702000D02*
X146218000Y-115300000D01*
X145136410Y-115300000D02*
X141600000Y-111763590D01*
X141600000Y-111763590D02*
X141600000Y-111200000D01*
X141600000Y-111200000D02*
X141600000Y-111200000D01*
X150160000Y-116702000D02*
X148307990Y-114849990D01*
X150160000Y-120381000D02*
X150160000Y-116702000D01*
X148307990Y-114849990D02*
X145322810Y-114849990D01*
X145322810Y-114849990D02*
X142800000Y-112327180D01*
X142800000Y-112327180D02*
X142800000Y-111200000D01*
X142800000Y-111200000D02*
X142800000Y-111200000D01*
X118550000Y-92220000D02*
X120000000Y-92220000D01*
X115774939Y-94995061D02*
X118550000Y-92220000D01*
X115774939Y-112178401D02*
X115774939Y-94995061D01*
X117871603Y-114275065D02*
X115774939Y-112178401D01*
X119793066Y-114275066D02*
X117871603Y-114275065D01*
X122220000Y-116702000D02*
X119793066Y-114275066D01*
X122220000Y-120381000D02*
X122220000Y-116702000D01*
X121883057Y-113825057D02*
X118058004Y-113825056D01*
X118058004Y-113825056D02*
X116224949Y-111992001D01*
X124760000Y-116702000D02*
X121883057Y-113825057D01*
X118550000Y-94760000D02*
X120000000Y-94760000D01*
X116224949Y-97085051D02*
X118550000Y-94760000D01*
X116224949Y-111992001D02*
X116224949Y-97085051D01*
X124760000Y-120381000D02*
X124760000Y-116702000D01*
X118550000Y-97300000D02*
X120000000Y-97300000D01*
X116674959Y-99175041D02*
X118550000Y-97300000D01*
X116674959Y-111805601D02*
X116674959Y-99175041D01*
X118244405Y-113375047D02*
X116674959Y-111805601D01*
X123973048Y-113375048D02*
X118244405Y-113375047D01*
X127300000Y-116702000D02*
X123973048Y-113375048D01*
X127300000Y-120381000D02*
X127300000Y-116702000D01*
X118550000Y-99840000D02*
X120000000Y-99840000D01*
X117124969Y-101265031D02*
X118550000Y-99840000D01*
X117124969Y-111619201D02*
X117124969Y-101265031D01*
X118430806Y-112925038D02*
X117124969Y-111619201D01*
X126063039Y-112925039D02*
X118430806Y-112925038D01*
X129840000Y-116702000D02*
X126063039Y-112925039D01*
X129840000Y-120381000D02*
X129840000Y-116702000D01*
X117574979Y-111432801D02*
X117574979Y-103355021D01*
X118550000Y-102380000D02*
X120000000Y-102380000D01*
X118617207Y-112475029D02*
X117574979Y-111432801D01*
X117574979Y-103355021D02*
X118550000Y-102380000D01*
X128153030Y-112475030D02*
X118617207Y-112475029D01*
X132380000Y-116702000D02*
X128153030Y-112475030D01*
X132380000Y-120381000D02*
X132380000Y-116702000D01*
X118550000Y-104920000D02*
X120000000Y-104920000D01*
X118024989Y-111246401D02*
X118024989Y-105445011D01*
X118024989Y-105445011D02*
X118550000Y-104920000D01*
X130243021Y-112025021D02*
X118803608Y-112025020D01*
X118803608Y-112025020D02*
X118024989Y-111246401D01*
X134920000Y-116702000D02*
X130243021Y-112025021D01*
X134920000Y-120381000D02*
X134920000Y-116702000D01*
X118474999Y-107535001D02*
X118550000Y-107460000D01*
X118474999Y-111060001D02*
X118474999Y-107535001D01*
X118990009Y-111575011D02*
X118474999Y-111060001D01*
X118550000Y-107460000D02*
X120000000Y-107460000D01*
X132333011Y-111575011D02*
X118990009Y-111575011D01*
X137460000Y-116702000D02*
X132333011Y-111575011D01*
X137460000Y-120381000D02*
X137460000Y-116702000D01*
X139131370Y-107470000D02*
X138000000Y-107470000D01*
X143716410Y-107470000D02*
X139131370Y-107470000D01*
X149374999Y-106344999D02*
X144841411Y-106344999D01*
X144841411Y-106344999D02*
X143716410Y-107470000D01*
X150500000Y-107470000D02*
X149374999Y-106344999D01*
X154294941Y-96055059D02*
X157320001Y-93029999D01*
X154294941Y-113216941D02*
X154294941Y-96055059D01*
X157780000Y-116702000D02*
X154294941Y-113216941D01*
X157320001Y-93029999D02*
X158120000Y-92230000D01*
X157780000Y-120381000D02*
X157780000Y-116702000D01*
X139131370Y-104930000D02*
X138000000Y-104930000D01*
X143870000Y-104930000D02*
X139131370Y-104930000D01*
X144995001Y-103804999D02*
X143870000Y-104930000D01*
X149374999Y-103804999D02*
X144995001Y-103804999D01*
X150500000Y-104930000D02*
X149374999Y-103804999D01*
X154744950Y-98145050D02*
X157320001Y-95569999D01*
X157320001Y-95569999D02*
X158120000Y-94770000D01*
X154744950Y-112138950D02*
X154744950Y-98145050D01*
X160320000Y-117714000D02*
X154744950Y-112138950D01*
X160320000Y-120381000D02*
X160320000Y-117714000D01*
X139131370Y-102390000D02*
X138000000Y-102390000D01*
X143954998Y-102390000D02*
X139131370Y-102390000D01*
X145079999Y-101264999D02*
X143954998Y-102390000D01*
X146160001Y-101264999D02*
X145079999Y-101264999D01*
X147285002Y-102390000D02*
X146160001Y-101264999D01*
X150500000Y-102390000D02*
X147285002Y-102390000D01*
X157320001Y-98109999D02*
X158120000Y-97310000D01*
X155194959Y-100235041D02*
X157320001Y-98109999D01*
X155194959Y-111295601D02*
X155194959Y-100235041D01*
X156834395Y-112935037D02*
X155194959Y-111295601D01*
X159093038Y-112935038D02*
X156834395Y-112935037D01*
X162860000Y-116702000D02*
X159093038Y-112935038D01*
X162860000Y-120381000D02*
X162860000Y-116702000D01*
X139131370Y-99850000D02*
X138000000Y-99850000D01*
X143716410Y-99850000D02*
X139131370Y-99850000D01*
X144841411Y-98724999D02*
X143716410Y-99850000D01*
X148243629Y-98724999D02*
X144841411Y-98724999D01*
X149368630Y-99850000D02*
X148243629Y-98724999D01*
X150500000Y-99850000D02*
X149368630Y-99850000D01*
X157320001Y-100649999D02*
X158120000Y-99850000D01*
X155644969Y-102325031D02*
X157320001Y-100649999D01*
X155644969Y-111109201D02*
X155644969Y-102325031D01*
X157020796Y-112485028D02*
X155644969Y-111109201D01*
X161183029Y-112485029D02*
X157020796Y-112485028D01*
X165400000Y-116702000D02*
X161183029Y-112485029D01*
X165400000Y-120381000D02*
X165400000Y-116702000D01*
X139131370Y-97310000D02*
X138000000Y-97310000D01*
X143716410Y-97310000D02*
X139131370Y-97310000D01*
X144841411Y-96184999D02*
X143716410Y-97310000D01*
X149374999Y-96184999D02*
X144841411Y-96184999D01*
X150500000Y-97310000D02*
X149374999Y-96184999D01*
X157320001Y-103189999D02*
X158120000Y-102390000D01*
X156094979Y-104415021D02*
X157320001Y-103189999D01*
X156094979Y-110922801D02*
X156094979Y-104415021D01*
X157207197Y-112035019D02*
X156094979Y-110922801D01*
X163273020Y-112035020D02*
X157207197Y-112035019D01*
X167940000Y-116702000D02*
X163273020Y-112035020D01*
X167940000Y-120381000D02*
X167940000Y-116702000D01*
X139131370Y-94770000D02*
X138000000Y-94770000D01*
X143716410Y-94770000D02*
X139131370Y-94770000D01*
X144841411Y-93644999D02*
X143716410Y-94770000D01*
X149374999Y-93644999D02*
X144841411Y-93644999D01*
X150500000Y-94770000D02*
X149374999Y-93644999D01*
X157320001Y-105729999D02*
X158120000Y-104930000D01*
X156544989Y-106505011D02*
X157320001Y-105729999D01*
X156544989Y-110736401D02*
X156544989Y-106505011D01*
X165363011Y-111585011D02*
X157393598Y-111585010D01*
X170480000Y-116702000D02*
X165363011Y-111585011D01*
X157393598Y-111585010D02*
X156544989Y-110736401D01*
X170480000Y-120381000D02*
X170480000Y-116702000D01*
X139125001Y-91104999D02*
X138799999Y-91430001D01*
X147285002Y-92230000D02*
X146160001Y-91104999D01*
X138799999Y-91430001D02*
X138000000Y-92230000D01*
X146160001Y-91104999D02*
X139125001Y-91104999D01*
X150500000Y-92230000D02*
X147285002Y-92230000D01*
X157320001Y-108269999D02*
X158120000Y-107470000D01*
X156994999Y-108595001D02*
X157320001Y-108269999D01*
X167453001Y-111135001D02*
X157579999Y-111135001D01*
X156994999Y-110550001D02*
X156994999Y-108595001D01*
X173020000Y-116702000D02*
X167453001Y-111135001D01*
X157579999Y-111135001D02*
X156994999Y-110550001D01*
X173020000Y-120381000D02*
X173020000Y-116702000D01*
X139125001Y-88564999D02*
X138799999Y-88890001D01*
X149374999Y-88564999D02*
X139125001Y-88564999D01*
X138799999Y-88890001D02*
X138000000Y-89690000D01*
X150500000Y-89690000D02*
X149374999Y-88564999D01*
X159251370Y-110010000D02*
X158120000Y-110010000D01*
X168868000Y-110010000D02*
X159251370Y-110010000D01*
X175560000Y-116702000D02*
X168868000Y-110010000D01*
X175560000Y-120381000D02*
X175560000Y-116702000D01*
X120865994Y-91094990D02*
X121525010Y-91754006D01*
X119680000Y-117714000D02*
X115324930Y-113358930D01*
X115324930Y-94808660D02*
X119038600Y-91094990D01*
X119038600Y-91094990D02*
X120865994Y-91094990D01*
X121525010Y-91754006D02*
X121525010Y-105474990D01*
X119680000Y-120381000D02*
X119680000Y-117714000D01*
X115324930Y-113358930D02*
X115324930Y-94808660D01*
X144820001Y-108269999D02*
X145620000Y-107470000D01*
X124925019Y-108874999D02*
X144215001Y-108874999D01*
X144215001Y-108874999D02*
X144820001Y-108269999D01*
X121525010Y-105474990D02*
X124925019Y-108874999D01*
X144820001Y-98109999D02*
X145620000Y-97310000D01*
X144494999Y-98435001D02*
X144820001Y-98109999D01*
X119134006Y-80934990D02*
X120865994Y-80934990D01*
X113524890Y-112697110D02*
X113524890Y-86544106D01*
X113524890Y-86544106D02*
X119134006Y-80934990D01*
X109520000Y-116702000D02*
X113524890Y-112697110D01*
X123350030Y-96735032D02*
X125049999Y-98435001D01*
X109520000Y-120381000D02*
X109520000Y-116702000D01*
X120865994Y-80934990D02*
X122450010Y-82519006D01*
X122450010Y-82519006D02*
X122450010Y-86326186D01*
X122450010Y-86326186D02*
X123350030Y-87226206D01*
X123350030Y-87226206D02*
X123350030Y-96735032D01*
X125049999Y-98435001D02*
X144494999Y-98435001D01*
X144820001Y-105729999D02*
X145620000Y-104930000D01*
X125055001Y-106055001D02*
X144494999Y-106055001D01*
X122000000Y-103000000D02*
X125055001Y-106055001D01*
X122000000Y-89688996D02*
X122000000Y-103000000D01*
X117140000Y-120381000D02*
X117140000Y-117140000D01*
X117140000Y-117140000D02*
X114874920Y-114874920D01*
X144494999Y-106055001D02*
X144820001Y-105729999D01*
X114874920Y-114874920D02*
X114874920Y-92814076D01*
X120865994Y-88554990D02*
X122000000Y-89688996D01*
X114874920Y-92814076D02*
X119134006Y-88554990D01*
X119134006Y-88554990D02*
X120865994Y-88554990D01*
X144820001Y-95569999D02*
X145620000Y-94770000D01*
X144494999Y-95895001D02*
X144820001Y-95569999D01*
X113074880Y-84454116D02*
X119134006Y-78394990D01*
X122900020Y-80429016D02*
X122900020Y-86139786D01*
X123800040Y-87039806D02*
X123800040Y-94645042D01*
X113074880Y-110607120D02*
X113074880Y-84454116D01*
X119134006Y-78394990D02*
X120865994Y-78394990D01*
X120865994Y-78394990D02*
X122900020Y-80429016D01*
X123800040Y-94645042D02*
X125049999Y-95895001D01*
X106980000Y-116702000D02*
X113074880Y-110607120D01*
X106980000Y-120381000D02*
X106980000Y-116702000D01*
X122900020Y-86139786D02*
X123800040Y-87039806D01*
X125049999Y-95895001D02*
X144494999Y-95895001D01*
X144820001Y-103189999D02*
X145620000Y-102390000D01*
X144215001Y-103794999D02*
X144820001Y-103189999D01*
X122450010Y-100915012D02*
X125329997Y-103794999D01*
X125329997Y-103794999D02*
X144215001Y-103794999D01*
X122450010Y-87599006D02*
X122450010Y-100915012D01*
X120865994Y-86014990D02*
X122450010Y-87599006D01*
X114600000Y-120381000D02*
X114600000Y-115236410D01*
X119134006Y-86014990D02*
X120865994Y-86014990D01*
X114600000Y-115236410D02*
X114424910Y-115061320D01*
X114424910Y-90724086D02*
X119134006Y-86014990D01*
X114424910Y-115061320D02*
X114424910Y-90724086D01*
X144820001Y-93029999D02*
X145620000Y-92230000D01*
X144494999Y-93355001D02*
X144820001Y-93029999D01*
X112624870Y-82364126D02*
X119134006Y-75854990D01*
X119134006Y-75854990D02*
X120865994Y-75854990D01*
X112624870Y-108517130D02*
X112624870Y-82364126D01*
X124250050Y-86853406D02*
X124250050Y-92555052D01*
X104440000Y-116702000D02*
X112624870Y-108517130D01*
X104440000Y-120381000D02*
X104440000Y-116702000D01*
X124250050Y-92555052D02*
X125049999Y-93355001D01*
X120865994Y-75854990D02*
X123350030Y-78339026D01*
X123350030Y-78339026D02*
X123350030Y-85953386D01*
X123350030Y-85953386D02*
X124250050Y-86853406D01*
X125049999Y-93355001D02*
X144494999Y-93355001D01*
X144820001Y-100649999D02*
X145620000Y-99850000D01*
X144494999Y-100975001D02*
X144820001Y-100649999D01*
X113974900Y-88634096D02*
X119134006Y-83474990D01*
X112060000Y-120381000D02*
X112060000Y-116702000D01*
X119134006Y-83474990D02*
X120865994Y-83474990D01*
X122000000Y-86512586D02*
X122900020Y-87412606D01*
X112060000Y-116702000D02*
X113974900Y-114787100D01*
X120865994Y-83474990D02*
X122000000Y-84608996D01*
X113974900Y-114787100D02*
X113974900Y-88634096D01*
X122900020Y-87412606D02*
X122900020Y-98900020D01*
X122000000Y-84608996D02*
X122000000Y-86512586D01*
X122900020Y-98900020D02*
X124975001Y-100975001D01*
X124975001Y-100975001D02*
X144494999Y-100975001D01*
X138778996Y-82848996D02*
X138778996Y-82848996D01*
X101900000Y-116702000D02*
X101900000Y-120381000D01*
X119134006Y-73314990D02*
X112174860Y-80274136D01*
X120865994Y-73314990D02*
X119134006Y-73314990D01*
X121525010Y-73974006D02*
X120865994Y-73314990D01*
X112174860Y-106427140D02*
X101900000Y-116702000D01*
X125200000Y-78400000D02*
X121525010Y-74725010D01*
X112174860Y-80274136D02*
X112174860Y-106427140D01*
X121525010Y-74725010D02*
X121525010Y-73974006D01*
X128048996Y-82848996D02*
X125200000Y-80000000D01*
X138778996Y-82848996D02*
X128048996Y-82848996D01*
X125200000Y-80000000D02*
X125200000Y-78400000D01*
X114955010Y-70774990D02*
X106210000Y-79520000D01*
X160400000Y-89630000D02*
X160400000Y-84100000D01*
X120865994Y-70774990D02*
X114955010Y-70774990D01*
X160400000Y-84100000D02*
X156000000Y-79700000D01*
X156000000Y-79700000D02*
X129791004Y-79700000D01*
X106210000Y-79520000D02*
X104760000Y-79520000D01*
X163000000Y-92230000D02*
X160400000Y-89630000D01*
X129791004Y-79700000D02*
X120865994Y-70774990D01*
X160850009Y-83913599D02*
X156186400Y-79249990D01*
X105336014Y-78394990D02*
X103894006Y-78394990D01*
X103310000Y-82060000D02*
X104760000Y-82060000D01*
X131880994Y-79249990D02*
X120865994Y-68234990D01*
X120865994Y-68234990D02*
X115496014Y-68234990D01*
X115496014Y-68234990D02*
X105336014Y-78394990D01*
X160850010Y-87540010D02*
X160850009Y-83913599D01*
X103234990Y-81984990D02*
X103310000Y-82060000D01*
X163000000Y-89690000D02*
X160850010Y-87540010D01*
X156186400Y-79249990D02*
X131880994Y-79249990D01*
X103894006Y-78394990D02*
X103234990Y-79054006D01*
X103234990Y-79054006D02*
X103234990Y-81984990D01*
X103310000Y-89680000D02*
X104760000Y-89680000D01*
X102784980Y-89154980D02*
X103310000Y-89680000D01*
X103894006Y-75854990D02*
X102784980Y-76964016D01*
X120865994Y-65694990D02*
X115785994Y-65694990D01*
X102784980Y-76964016D02*
X102784980Y-89154980D01*
X156372800Y-78799980D02*
X133970984Y-78799980D01*
X133970984Y-78799980D02*
X120865994Y-65694990D01*
X163000000Y-85427180D02*
X156372800Y-78799980D01*
X105625994Y-75854990D02*
X103894006Y-75854990D01*
X115785994Y-65694990D02*
X105625994Y-75854990D01*
X163000000Y-87150000D02*
X163000000Y-85427180D01*
X110000000Y-78230000D02*
X115000000Y-73230000D01*
X115000000Y-73230000D02*
X115000000Y-73230000D01*
X110000000Y-80770000D02*
X115000000Y-75770000D01*
X115000000Y-75770000D02*
X115000000Y-75770000D01*
X125580000Y-86008630D02*
X124500000Y-84928630D01*
X125580000Y-87140000D02*
X125580000Y-86008630D01*
X124500000Y-84928630D02*
X124500000Y-80500000D01*
X124500000Y-80500000D02*
X124500000Y-80500000D01*
X147055011Y-108574989D02*
X145620000Y-110010000D01*
X149939987Y-108574989D02*
X147055011Y-108574989D01*
X149959999Y-108595001D02*
X149939987Y-108574989D01*
X151435002Y-85900000D02*
X151625001Y-86089999D01*
X131500000Y-85900000D02*
X151435002Y-85900000D01*
X151625001Y-86089999D02*
X151625001Y-108010001D01*
X151625001Y-108010001D02*
X151040001Y-108595001D01*
X151040001Y-108595001D02*
X149959999Y-108595001D01*
X151000000Y-83500000D02*
X139600000Y-83500000D01*
X139600000Y-83500000D02*
X138000000Y-85100000D01*
X138000000Y-85100000D02*
X138000000Y-85100000D01*
X135500000Y-110000000D02*
X139000000Y-113500000D01*
X133200000Y-110000000D02*
X135500000Y-110000000D01*
X137900000Y-85000000D02*
X138000000Y-85100000D01*
X130000000Y-85000000D02*
X137900000Y-85000000D01*
X178000000Y-94070000D02*
X179175001Y-92894999D01*
X179175001Y-90965999D02*
X155209002Y-67000000D01*
X179175001Y-92894999D02*
X179175001Y-90965999D01*
X155209002Y-67000000D02*
X127000000Y-67000000D01*
X127000000Y-67000000D02*
X127000000Y-67000000D01*
X133200000Y-113700000D02*
X131900000Y-112400000D01*
X131900000Y-112400000D02*
X131900000Y-112400000D01*
X177150001Y-92379999D02*
X178000000Y-91530000D01*
X176824999Y-92705001D02*
X177150001Y-92379999D01*
X175085997Y-92705001D02*
X176824999Y-92705001D01*
X174435997Y-93355001D02*
X175085997Y-92705001D01*
X160209997Y-91104999D02*
X162459999Y-93355001D01*
X157579999Y-91104999D02*
X160209997Y-91104999D01*
X153844931Y-94840067D02*
X157579999Y-91104999D01*
X153844931Y-108330071D02*
X153844931Y-94840067D01*
X151040001Y-111135001D02*
X153844931Y-108330071D01*
X149269316Y-111135001D02*
X151040001Y-111135001D01*
X148700000Y-110565685D02*
X149269316Y-111135001D01*
X162459999Y-93355001D02*
X174435997Y-93355001D01*
X148700000Y-110000000D02*
X148700000Y-110565685D01*
X152700000Y-116702000D02*
X154000000Y-115402000D01*
X152700000Y-120381000D02*
X152700000Y-116702000D01*
X154000000Y-115402000D02*
X154000000Y-115402000D01*
X177150001Y-97459999D02*
X178000000Y-96610000D01*
X176824999Y-97785001D02*
X177150001Y-97459999D01*
X172834001Y-103515001D02*
X176824999Y-99524003D01*
X167584999Y-103515001D02*
X172834001Y-103515001D01*
X176824999Y-99524003D02*
X176824999Y-97785001D01*
X162500000Y-108600000D02*
X167584999Y-103515001D01*
M02*
