G04 #@! TF.GenerationSoftware,KiCad,Pcbnew,(5.1.5)-3*
G04 #@! TF.CreationDate,2021-12-23T14:00:04+02:00*
G04 #@! TF.ProjectId,CPU,4350552e-6b69-4636-9164-5f7063625858,rev?*
G04 #@! TF.SameCoordinates,Original*
G04 #@! TF.FileFunction,Paste,Top*
G04 #@! TF.FilePolarity,Positive*
%FSLAX46Y46*%
G04 Gerber Fmt 4.6, Leading zero omitted, Abs format (unit mm)*
G04 Created by KiCad (PCBNEW (5.1.5)-3) date 2021-12-23 14:00:04*
%MOMM*%
%LPD*%
G04 APERTURE LIST*
%ADD10C,0.100000*%
G04 APERTURE END LIST*
D10*
G36*
X177527691Y-81526053D02*
G01*
X177548926Y-81529203D01*
X177569750Y-81534419D01*
X177589962Y-81541651D01*
X177609368Y-81550830D01*
X177627781Y-81561866D01*
X177645024Y-81574654D01*
X177660930Y-81589070D01*
X177675346Y-81604976D01*
X177688134Y-81622219D01*
X177699170Y-81640632D01*
X177708349Y-81660038D01*
X177715581Y-81680250D01*
X177720797Y-81701074D01*
X177723947Y-81722309D01*
X177725000Y-81743750D01*
X177725000Y-82256250D01*
X177723947Y-82277691D01*
X177720797Y-82298926D01*
X177715581Y-82319750D01*
X177708349Y-82339962D01*
X177699170Y-82359368D01*
X177688134Y-82377781D01*
X177675346Y-82395024D01*
X177660930Y-82410930D01*
X177645024Y-82425346D01*
X177627781Y-82438134D01*
X177609368Y-82449170D01*
X177589962Y-82458349D01*
X177569750Y-82465581D01*
X177548926Y-82470797D01*
X177527691Y-82473947D01*
X177506250Y-82475000D01*
X177068750Y-82475000D01*
X177047309Y-82473947D01*
X177026074Y-82470797D01*
X177005250Y-82465581D01*
X176985038Y-82458349D01*
X176965632Y-82449170D01*
X176947219Y-82438134D01*
X176929976Y-82425346D01*
X176914070Y-82410930D01*
X176899654Y-82395024D01*
X176886866Y-82377781D01*
X176875830Y-82359368D01*
X176866651Y-82339962D01*
X176859419Y-82319750D01*
X176854203Y-82298926D01*
X176851053Y-82277691D01*
X176850000Y-82256250D01*
X176850000Y-81743750D01*
X176851053Y-81722309D01*
X176854203Y-81701074D01*
X176859419Y-81680250D01*
X176866651Y-81660038D01*
X176875830Y-81640632D01*
X176886866Y-81622219D01*
X176899654Y-81604976D01*
X176914070Y-81589070D01*
X176929976Y-81574654D01*
X176947219Y-81561866D01*
X176965632Y-81550830D01*
X176985038Y-81541651D01*
X177005250Y-81534419D01*
X177026074Y-81529203D01*
X177047309Y-81526053D01*
X177068750Y-81525000D01*
X177506250Y-81525000D01*
X177527691Y-81526053D01*
G37*
G36*
X175952691Y-81526053D02*
G01*
X175973926Y-81529203D01*
X175994750Y-81534419D01*
X176014962Y-81541651D01*
X176034368Y-81550830D01*
X176052781Y-81561866D01*
X176070024Y-81574654D01*
X176085930Y-81589070D01*
X176100346Y-81604976D01*
X176113134Y-81622219D01*
X176124170Y-81640632D01*
X176133349Y-81660038D01*
X176140581Y-81680250D01*
X176145797Y-81701074D01*
X176148947Y-81722309D01*
X176150000Y-81743750D01*
X176150000Y-82256250D01*
X176148947Y-82277691D01*
X176145797Y-82298926D01*
X176140581Y-82319750D01*
X176133349Y-82339962D01*
X176124170Y-82359368D01*
X176113134Y-82377781D01*
X176100346Y-82395024D01*
X176085930Y-82410930D01*
X176070024Y-82425346D01*
X176052781Y-82438134D01*
X176034368Y-82449170D01*
X176014962Y-82458349D01*
X175994750Y-82465581D01*
X175973926Y-82470797D01*
X175952691Y-82473947D01*
X175931250Y-82475000D01*
X175493750Y-82475000D01*
X175472309Y-82473947D01*
X175451074Y-82470797D01*
X175430250Y-82465581D01*
X175410038Y-82458349D01*
X175390632Y-82449170D01*
X175372219Y-82438134D01*
X175354976Y-82425346D01*
X175339070Y-82410930D01*
X175324654Y-82395024D01*
X175311866Y-82377781D01*
X175300830Y-82359368D01*
X175291651Y-82339962D01*
X175284419Y-82319750D01*
X175279203Y-82298926D01*
X175276053Y-82277691D01*
X175275000Y-82256250D01*
X175275000Y-81743750D01*
X175276053Y-81722309D01*
X175279203Y-81701074D01*
X175284419Y-81680250D01*
X175291651Y-81660038D01*
X175300830Y-81640632D01*
X175311866Y-81622219D01*
X175324654Y-81604976D01*
X175339070Y-81589070D01*
X175354976Y-81574654D01*
X175372219Y-81561866D01*
X175390632Y-81550830D01*
X175410038Y-81541651D01*
X175430250Y-81534419D01*
X175451074Y-81529203D01*
X175472309Y-81526053D01*
X175493750Y-81525000D01*
X175931250Y-81525000D01*
X175952691Y-81526053D01*
G37*
M02*
