G04 #@! TF.GenerationSoftware,KiCad,Pcbnew,(5.1.5)-3*
G04 #@! TF.CreationDate,2021-12-23T14:00:04+02:00*
G04 #@! TF.ProjectId,CPU,4350552e-6b69-4636-9164-5f7063625858,rev?*
G04 #@! TF.SameCoordinates,Original*
G04 #@! TF.FileFunction,Legend,Top*
G04 #@! TF.FilePolarity,Positive*
%FSLAX46Y46*%
G04 Gerber Fmt 4.6, Leading zero omitted, Abs format (unit mm)*
G04 Created by KiCad (PCBNEW (5.1.5)-3) date 2021-12-23 14:00:04*
%MOMM*%
%LPD*%
G04 APERTURE LIST*
%ADD10C,0.200000*%
%ADD11C,0.100000*%
%ADD12C,0.120000*%
%ADD13C,0.254000*%
%ADD14C,0.150000*%
G04 APERTURE END LIST*
D10*
X138700000Y-61700000D02*
G75*
G02X138900000Y-61700000I100000J0D01*
G01*
X138900000Y-61700000D02*
G75*
G02X138700000Y-61700000I-100000J0D01*
G01*
X138900000Y-61700000D02*
X138900000Y-61700000D01*
X138700000Y-61700000D02*
X138700000Y-61700000D01*
D11*
X141240000Y-62160000D02*
X141240000Y-74860000D01*
X128540000Y-62160000D02*
X141240000Y-62160000D01*
X128540000Y-74860000D02*
X128540000Y-62160000D01*
X141240000Y-74860000D02*
X128540000Y-74860000D01*
D12*
X176337221Y-82510000D02*
X176662779Y-82510000D01*
X176337221Y-81490000D02*
X176662779Y-81490000D01*
X103320000Y-111390000D02*
X121440000Y-111390000D01*
X103320000Y-60350000D02*
X103320000Y-111390000D01*
X121440000Y-60350000D02*
X103320000Y-60350000D01*
X121440000Y-111390000D02*
X121440000Y-60350000D01*
X106320000Y-111330000D02*
X111380000Y-111330000D01*
X106320000Y-60410000D02*
X106320000Y-111330000D01*
X118440000Y-60410000D02*
X106320000Y-60410000D01*
X118440000Y-111330000D02*
X118440000Y-60410000D01*
X113380000Y-111330000D02*
X118440000Y-111330000D01*
X111380000Y-111330000D02*
G75*
G02X113380000Y-111330000I1000000J0D01*
G01*
X179330000Y-100480000D02*
X178000000Y-100480000D01*
X179330000Y-99150000D02*
X179330000Y-100480000D01*
X176730000Y-100480000D02*
X174130000Y-100480000D01*
X176730000Y-97880000D02*
X176730000Y-100480000D01*
X179330000Y-97880000D02*
X176730000Y-97880000D01*
X174130000Y-100480000D02*
X174130000Y-90200000D01*
X179330000Y-97880000D02*
X179330000Y-90200000D01*
X179330000Y-90200000D02*
X174130000Y-90200000D01*
X159450000Y-85760000D02*
X149170000Y-85760000D01*
X159450000Y-111400000D02*
X159450000Y-85760000D01*
X149170000Y-111400000D02*
X159450000Y-111400000D01*
X149170000Y-85760000D02*
X149170000Y-111400000D01*
X156960000Y-85820000D02*
X155310000Y-85820000D01*
X156960000Y-111340000D02*
X156960000Y-85820000D01*
X151660000Y-111340000D02*
X156960000Y-111340000D01*
X151660000Y-85820000D02*
X151660000Y-111340000D01*
X153310000Y-85820000D02*
X151660000Y-85820000D01*
X155310000Y-85820000D02*
G75*
G02X153310000Y-85820000I-1000000J0D01*
G01*
X124250000Y-111390000D02*
X134530000Y-111390000D01*
X124250000Y-85750000D02*
X124250000Y-111390000D01*
X134530000Y-85750000D02*
X124250000Y-85750000D01*
X134530000Y-111390000D02*
X134530000Y-85750000D01*
X126740000Y-111330000D02*
X128390000Y-111330000D01*
X126740000Y-85810000D02*
X126740000Y-111330000D01*
X132040000Y-85810000D02*
X126740000Y-85810000D01*
X132040000Y-111330000D02*
X132040000Y-85810000D01*
X130390000Y-111330000D02*
X132040000Y-111330000D01*
X128390000Y-111330000D02*
G75*
G02X130390000Y-111330000I1000000J0D01*
G01*
X146950000Y-85760000D02*
X136670000Y-85760000D01*
X146950000Y-111400000D02*
X146950000Y-85760000D01*
X136670000Y-111400000D02*
X146950000Y-111400000D01*
X136670000Y-85760000D02*
X136670000Y-111400000D01*
X144460000Y-85820000D02*
X142810000Y-85820000D01*
X144460000Y-111340000D02*
X144460000Y-85820000D01*
X139160000Y-111340000D02*
X144460000Y-111340000D01*
X139160000Y-85820000D02*
X139160000Y-111340000D01*
X140810000Y-85820000D02*
X139160000Y-85820000D01*
X142810000Y-85820000D02*
G75*
G02X140810000Y-85820000I-1000000J0D01*
G01*
X171950000Y-85760000D02*
X161670000Y-85760000D01*
X171950000Y-106320000D02*
X171950000Y-85760000D01*
X161670000Y-106320000D02*
X171950000Y-106320000D01*
X161670000Y-85760000D02*
X161670000Y-106320000D01*
X169460000Y-85820000D02*
X167810000Y-85820000D01*
X169460000Y-106260000D02*
X169460000Y-85820000D01*
X164160000Y-106260000D02*
X169460000Y-106260000D01*
X164160000Y-85820000D02*
X164160000Y-106260000D01*
X165810000Y-85820000D02*
X164160000Y-85820000D01*
X167810000Y-85820000D02*
G75*
G02X165810000Y-85820000I-1000000J0D01*
G01*
D13*
X133529285Y-68683571D02*
X133468809Y-68744047D01*
X133287380Y-68804523D01*
X133166428Y-68804523D01*
X132985000Y-68744047D01*
X132864047Y-68623095D01*
X132803571Y-68502142D01*
X132743095Y-68260238D01*
X132743095Y-68078809D01*
X132803571Y-67836904D01*
X132864047Y-67715952D01*
X132985000Y-67595000D01*
X133166428Y-67534523D01*
X133287380Y-67534523D01*
X133468809Y-67595000D01*
X133529285Y-67655476D01*
X134678333Y-68804523D02*
X134073571Y-68804523D01*
X134073571Y-67534523D01*
X135101666Y-68804523D02*
X135101666Y-67534523D01*
X135827380Y-68804523D02*
X135283095Y-68078809D01*
X135827380Y-67534523D02*
X135101666Y-68260238D01*
X136553095Y-68078809D02*
X136432142Y-68018333D01*
X136371666Y-67957857D01*
X136311190Y-67836904D01*
X136311190Y-67776428D01*
X136371666Y-67655476D01*
X136432142Y-67595000D01*
X136553095Y-67534523D01*
X136795000Y-67534523D01*
X136915952Y-67595000D01*
X136976428Y-67655476D01*
X137036904Y-67776428D01*
X137036904Y-67836904D01*
X136976428Y-67957857D01*
X136915952Y-68018333D01*
X136795000Y-68078809D01*
X136553095Y-68078809D01*
X136432142Y-68139285D01*
X136371666Y-68199761D01*
X136311190Y-68320714D01*
X136311190Y-68562619D01*
X136371666Y-68683571D01*
X136432142Y-68744047D01*
X136553095Y-68804523D01*
X136795000Y-68804523D01*
X136915952Y-68744047D01*
X136976428Y-68683571D01*
X137036904Y-68562619D01*
X137036904Y-68320714D01*
X136976428Y-68199761D01*
X136915952Y-68139285D01*
X136795000Y-68078809D01*
D14*
X176333333Y-81022380D02*
X176000000Y-80546190D01*
X175761904Y-81022380D02*
X175761904Y-80022380D01*
X176142857Y-80022380D01*
X176238095Y-80070000D01*
X176285714Y-80117619D01*
X176333333Y-80212857D01*
X176333333Y-80355714D01*
X176285714Y-80450952D01*
X176238095Y-80498571D01*
X176142857Y-80546190D01*
X175761904Y-80546190D01*
X177285714Y-81022380D02*
X176714285Y-81022380D01*
X177000000Y-81022380D02*
X177000000Y-80022380D01*
X176904761Y-80165238D01*
X176809523Y-80260476D01*
X176714285Y-80308095D01*
X109380000Y-112687142D02*
X109332380Y-112734761D01*
X109189523Y-112782380D01*
X109094285Y-112782380D01*
X108951428Y-112734761D01*
X108856190Y-112639523D01*
X108808571Y-112544285D01*
X108760952Y-112353809D01*
X108760952Y-112210952D01*
X108808571Y-112020476D01*
X108856190Y-111925238D01*
X108951428Y-111830000D01*
X109094285Y-111782380D01*
X109189523Y-111782380D01*
X109332380Y-111830000D01*
X109380000Y-111877619D01*
X109808571Y-112782380D02*
X109808571Y-111782380D01*
X110189523Y-111782380D01*
X110284761Y-111830000D01*
X110332380Y-111877619D01*
X110380000Y-111972857D01*
X110380000Y-112115714D01*
X110332380Y-112210952D01*
X110284761Y-112258571D01*
X110189523Y-112306190D01*
X109808571Y-112306190D01*
X110808571Y-111782380D02*
X110808571Y-112591904D01*
X110856190Y-112687142D01*
X110903809Y-112734761D01*
X110999047Y-112782380D01*
X111189523Y-112782380D01*
X111284761Y-112734761D01*
X111332380Y-112687142D01*
X111380000Y-112591904D01*
X111380000Y-111782380D01*
X111618095Y-112877619D02*
X112380000Y-112877619D01*
X112760952Y-112210952D02*
X112665714Y-112163333D01*
X112618095Y-112115714D01*
X112570476Y-112020476D01*
X112570476Y-111972857D01*
X112618095Y-111877619D01*
X112665714Y-111830000D01*
X112760952Y-111782380D01*
X112951428Y-111782380D01*
X113046666Y-111830000D01*
X113094285Y-111877619D01*
X113141904Y-111972857D01*
X113141904Y-112020476D01*
X113094285Y-112115714D01*
X113046666Y-112163333D01*
X112951428Y-112210952D01*
X112760952Y-112210952D01*
X112665714Y-112258571D01*
X112618095Y-112306190D01*
X112570476Y-112401428D01*
X112570476Y-112591904D01*
X112618095Y-112687142D01*
X112665714Y-112734761D01*
X112760952Y-112782380D01*
X112951428Y-112782380D01*
X113046666Y-112734761D01*
X113094285Y-112687142D01*
X113141904Y-112591904D01*
X113141904Y-112401428D01*
X113094285Y-112306190D01*
X113046666Y-112258571D01*
X112951428Y-112210952D01*
X113760952Y-111782380D02*
X113856190Y-111782380D01*
X113951428Y-111830000D01*
X113999047Y-111877619D01*
X114046666Y-111972857D01*
X114094285Y-112163333D01*
X114094285Y-112401428D01*
X114046666Y-112591904D01*
X113999047Y-112687142D01*
X113951428Y-112734761D01*
X113856190Y-112782380D01*
X113760952Y-112782380D01*
X113665714Y-112734761D01*
X113618095Y-112687142D01*
X113570476Y-112591904D01*
X113522857Y-112401428D01*
X113522857Y-112163333D01*
X113570476Y-111972857D01*
X113618095Y-111877619D01*
X113665714Y-111830000D01*
X113760952Y-111782380D01*
X114665714Y-112210952D02*
X114570476Y-112163333D01*
X114522857Y-112115714D01*
X114475238Y-112020476D01*
X114475238Y-111972857D01*
X114522857Y-111877619D01*
X114570476Y-111830000D01*
X114665714Y-111782380D01*
X114856190Y-111782380D01*
X114951428Y-111830000D01*
X114999047Y-111877619D01*
X115046666Y-111972857D01*
X115046666Y-112020476D01*
X114999047Y-112115714D01*
X114951428Y-112163333D01*
X114856190Y-112210952D01*
X114665714Y-112210952D01*
X114570476Y-112258571D01*
X114522857Y-112306190D01*
X114475238Y-112401428D01*
X114475238Y-112591904D01*
X114522857Y-112687142D01*
X114570476Y-112734761D01*
X114665714Y-112782380D01*
X114856190Y-112782380D01*
X114951428Y-112734761D01*
X114999047Y-112687142D01*
X115046666Y-112591904D01*
X115046666Y-112401428D01*
X114999047Y-112306190D01*
X114951428Y-112258571D01*
X114856190Y-112210952D01*
X115618095Y-112210952D02*
X115522857Y-112163333D01*
X115475238Y-112115714D01*
X115427619Y-112020476D01*
X115427619Y-111972857D01*
X115475238Y-111877619D01*
X115522857Y-111830000D01*
X115618095Y-111782380D01*
X115808571Y-111782380D01*
X115903809Y-111830000D01*
X115951428Y-111877619D01*
X115999047Y-111972857D01*
X115999047Y-112020476D01*
X115951428Y-112115714D01*
X115903809Y-112163333D01*
X115808571Y-112210952D01*
X115618095Y-112210952D01*
X115522857Y-112258571D01*
X115475238Y-112306190D01*
X115427619Y-112401428D01*
X115427619Y-112591904D01*
X115475238Y-112687142D01*
X115522857Y-112734761D01*
X115618095Y-112782380D01*
X115808571Y-112782380D01*
X115903809Y-112734761D01*
X115951428Y-112687142D01*
X115999047Y-112591904D01*
X115999047Y-112401428D01*
X115951428Y-112306190D01*
X115903809Y-112258571D01*
X115808571Y-112210952D01*
X176396666Y-100932380D02*
X176396666Y-101646666D01*
X176349047Y-101789523D01*
X176253809Y-101884761D01*
X176110952Y-101932380D01*
X176015714Y-101932380D01*
X177349047Y-100932380D02*
X176872857Y-100932380D01*
X176825238Y-101408571D01*
X176872857Y-101360952D01*
X176968095Y-101313333D01*
X177206190Y-101313333D01*
X177301428Y-101360952D01*
X177349047Y-101408571D01*
X177396666Y-101503809D01*
X177396666Y-101741904D01*
X177349047Y-101837142D01*
X177301428Y-101884761D01*
X177206190Y-101932380D01*
X176968095Y-101932380D01*
X176872857Y-101884761D01*
X176825238Y-101837142D01*
X151190952Y-84272380D02*
X151857619Y-84272380D01*
X151429047Y-85272380D01*
X152667142Y-84605714D02*
X152667142Y-85272380D01*
X152429047Y-84224761D02*
X152190952Y-84939047D01*
X152810000Y-84939047D01*
X153667142Y-85272380D02*
X153190952Y-85272380D01*
X153190952Y-84272380D01*
X153952857Y-85224761D02*
X154095714Y-85272380D01*
X154333809Y-85272380D01*
X154429047Y-85224761D01*
X154476666Y-85177142D01*
X154524285Y-85081904D01*
X154524285Y-84986666D01*
X154476666Y-84891428D01*
X154429047Y-84843809D01*
X154333809Y-84796190D01*
X154143333Y-84748571D01*
X154048095Y-84700952D01*
X154000476Y-84653333D01*
X153952857Y-84558095D01*
X153952857Y-84462857D01*
X154000476Y-84367619D01*
X154048095Y-84320000D01*
X154143333Y-84272380D01*
X154381428Y-84272380D01*
X154524285Y-84320000D01*
X154905238Y-84367619D02*
X154952857Y-84320000D01*
X155048095Y-84272380D01*
X155286190Y-84272380D01*
X155381428Y-84320000D01*
X155429047Y-84367619D01*
X155476666Y-84462857D01*
X155476666Y-84558095D01*
X155429047Y-84700952D01*
X154857619Y-85272380D01*
X155476666Y-85272380D01*
X156333809Y-84605714D02*
X156333809Y-85272380D01*
X156095714Y-84224761D02*
X155857619Y-84939047D01*
X156476666Y-84939047D01*
X157333809Y-84272380D02*
X156857619Y-84272380D01*
X156810000Y-84748571D01*
X156857619Y-84700952D01*
X156952857Y-84653333D01*
X157190952Y-84653333D01*
X157286190Y-84700952D01*
X157333809Y-84748571D01*
X157381428Y-84843809D01*
X157381428Y-85081904D01*
X157333809Y-85177142D01*
X157286190Y-85224761D01*
X157190952Y-85272380D01*
X156952857Y-85272380D01*
X156857619Y-85224761D01*
X156810000Y-85177142D01*
X125413809Y-111782380D02*
X126080476Y-111782380D01*
X125651904Y-112782380D01*
X126890000Y-112115714D02*
X126890000Y-112782380D01*
X126651904Y-111734761D02*
X126413809Y-112449047D01*
X127032857Y-112449047D01*
X127890000Y-112782380D02*
X127413809Y-112782380D01*
X127413809Y-111782380D01*
X128175714Y-112734761D02*
X128318571Y-112782380D01*
X128556666Y-112782380D01*
X128651904Y-112734761D01*
X128699523Y-112687142D01*
X128747142Y-112591904D01*
X128747142Y-112496666D01*
X128699523Y-112401428D01*
X128651904Y-112353809D01*
X128556666Y-112306190D01*
X128366190Y-112258571D01*
X128270952Y-112210952D01*
X128223333Y-112163333D01*
X128175714Y-112068095D01*
X128175714Y-111972857D01*
X128223333Y-111877619D01*
X128270952Y-111830000D01*
X128366190Y-111782380D01*
X128604285Y-111782380D01*
X128747142Y-111830000D01*
X129651904Y-111782380D02*
X129175714Y-111782380D01*
X129128095Y-112258571D01*
X129175714Y-112210952D01*
X129270952Y-112163333D01*
X129509047Y-112163333D01*
X129604285Y-112210952D01*
X129651904Y-112258571D01*
X129699523Y-112353809D01*
X129699523Y-112591904D01*
X129651904Y-112687142D01*
X129604285Y-112734761D01*
X129509047Y-112782380D01*
X129270952Y-112782380D01*
X129175714Y-112734761D01*
X129128095Y-112687142D01*
X130032857Y-111782380D02*
X130699523Y-111782380D01*
X130270952Y-112782380D01*
X130985238Y-111782380D02*
X131604285Y-111782380D01*
X131270952Y-112163333D01*
X131413809Y-112163333D01*
X131509047Y-112210952D01*
X131556666Y-112258571D01*
X131604285Y-112353809D01*
X131604285Y-112591904D01*
X131556666Y-112687142D01*
X131509047Y-112734761D01*
X131413809Y-112782380D01*
X131128095Y-112782380D01*
X131032857Y-112734761D01*
X130985238Y-112687142D01*
X131794761Y-112877619D02*
X132556666Y-112877619D01*
X132747142Y-111877619D02*
X132794761Y-111830000D01*
X132890000Y-111782380D01*
X133128095Y-111782380D01*
X133223333Y-111830000D01*
X133270952Y-111877619D01*
X133318571Y-111972857D01*
X133318571Y-112068095D01*
X133270952Y-112210952D01*
X132699523Y-112782380D01*
X133318571Y-112782380D01*
X138023809Y-84202380D02*
X138690476Y-84202380D01*
X138261904Y-85202380D01*
X139500000Y-84535714D02*
X139500000Y-85202380D01*
X139261904Y-84154761D02*
X139023809Y-84869047D01*
X139642857Y-84869047D01*
X140500000Y-85202380D02*
X140023809Y-85202380D01*
X140023809Y-84202380D01*
X140785714Y-85154761D02*
X140928571Y-85202380D01*
X141166666Y-85202380D01*
X141261904Y-85154761D01*
X141309523Y-85107142D01*
X141357142Y-85011904D01*
X141357142Y-84916666D01*
X141309523Y-84821428D01*
X141261904Y-84773809D01*
X141166666Y-84726190D01*
X140976190Y-84678571D01*
X140880952Y-84630952D01*
X140833333Y-84583333D01*
X140785714Y-84488095D01*
X140785714Y-84392857D01*
X140833333Y-84297619D01*
X140880952Y-84250000D01*
X140976190Y-84202380D01*
X141214285Y-84202380D01*
X141357142Y-84250000D01*
X142261904Y-84202380D02*
X141785714Y-84202380D01*
X141738095Y-84678571D01*
X141785714Y-84630952D01*
X141880952Y-84583333D01*
X142119047Y-84583333D01*
X142214285Y-84630952D01*
X142261904Y-84678571D01*
X142309523Y-84773809D01*
X142309523Y-85011904D01*
X142261904Y-85107142D01*
X142214285Y-85154761D01*
X142119047Y-85202380D01*
X141880952Y-85202380D01*
X141785714Y-85154761D01*
X141738095Y-85107142D01*
X142642857Y-84202380D02*
X143309523Y-84202380D01*
X142880952Y-85202380D01*
X143595238Y-84202380D02*
X144214285Y-84202380D01*
X143880952Y-84583333D01*
X144023809Y-84583333D01*
X144119047Y-84630952D01*
X144166666Y-84678571D01*
X144214285Y-84773809D01*
X144214285Y-85011904D01*
X144166666Y-85107142D01*
X144119047Y-85154761D01*
X144023809Y-85202380D01*
X143738095Y-85202380D01*
X143642857Y-85154761D01*
X143595238Y-85107142D01*
X144404761Y-85297619D02*
X145166666Y-85297619D01*
X145928571Y-85202380D02*
X145357142Y-85202380D01*
X145642857Y-85202380D02*
X145642857Y-84202380D01*
X145547619Y-84345238D01*
X145452380Y-84440476D01*
X145357142Y-84488095D01*
X173647619Y-92830952D02*
X173647619Y-93497619D01*
X172647619Y-93069047D01*
X173314285Y-94307142D02*
X172647619Y-94307142D01*
X173695238Y-94069047D02*
X172980952Y-93830952D01*
X172980952Y-94450000D01*
X172647619Y-95307142D02*
X172647619Y-94830952D01*
X173647619Y-94830952D01*
X172695238Y-95592857D02*
X172647619Y-95735714D01*
X172647619Y-95973809D01*
X172695238Y-96069047D01*
X172742857Y-96116666D01*
X172838095Y-96164285D01*
X172933333Y-96164285D01*
X173028571Y-96116666D01*
X173076190Y-96069047D01*
X173123809Y-95973809D01*
X173171428Y-95783333D01*
X173219047Y-95688095D01*
X173266666Y-95640476D01*
X173361904Y-95592857D01*
X173457142Y-95592857D01*
X173552380Y-95640476D01*
X173600000Y-95688095D01*
X173647619Y-95783333D01*
X173647619Y-96021428D01*
X173600000Y-96164285D01*
X172647619Y-97116666D02*
X172647619Y-96545238D01*
X172647619Y-96830952D02*
X173647619Y-96830952D01*
X173504761Y-96735714D01*
X173409523Y-96640476D01*
X173361904Y-96545238D01*
X173647619Y-97450000D02*
X173647619Y-98069047D01*
X173266666Y-97735714D01*
X173266666Y-97878571D01*
X173219047Y-97973809D01*
X173171428Y-98021428D01*
X173076190Y-98069047D01*
X172838095Y-98069047D01*
X172742857Y-98021428D01*
X172695238Y-97973809D01*
X172647619Y-97878571D01*
X172647619Y-97592857D01*
X172695238Y-97497619D01*
X172742857Y-97450000D01*
X173219047Y-98640476D02*
X173266666Y-98545238D01*
X173314285Y-98497619D01*
X173409523Y-98450000D01*
X173457142Y-98450000D01*
X173552380Y-98497619D01*
X173600000Y-98545238D01*
X173647619Y-98640476D01*
X173647619Y-98830952D01*
X173600000Y-98926190D01*
X173552380Y-98973809D01*
X173457142Y-99021428D01*
X173409523Y-99021428D01*
X173314285Y-98973809D01*
X173266666Y-98926190D01*
X173219047Y-98830952D01*
X173219047Y-98640476D01*
X173171428Y-98545238D01*
X173123809Y-98497619D01*
X173028571Y-98450000D01*
X172838095Y-98450000D01*
X172742857Y-98497619D01*
X172695238Y-98545238D01*
X172647619Y-98640476D01*
X172647619Y-98830952D01*
X172695238Y-98926190D01*
X172742857Y-98973809D01*
X172838095Y-99021428D01*
X173028571Y-99021428D01*
X173123809Y-98973809D01*
X173171428Y-98926190D01*
X173219047Y-98830952D01*
M02*
