G04 #@! TF.GenerationSoftware,KiCad,Pcbnew,(5.1.5)-3*
G04 #@! TF.CreationDate,2021-12-23T14:00:04+02:00*
G04 #@! TF.ProjectId,CPU,4350552e-6b69-4636-9164-5f7063625858,rev?*
G04 #@! TF.SameCoordinates,Original*
G04 #@! TF.FileFunction,Soldermask,Top*
G04 #@! TF.FilePolarity,Negative*
%FSLAX46Y46*%
G04 Gerber Fmt 4.6, Leading zero omitted, Abs format (unit mm)*
G04 Created by KiCad (PCBNEW (5.1.5)-3) date 2021-12-23 14:00:04*
%MOMM*%
%LPD*%
G04 APERTURE LIST*
%ADD10C,0.100000*%
G04 APERTURE END LIST*
D10*
G36*
X102713000Y-123861000D02*
G01*
X101087000Y-123861000D01*
X101087000Y-116901000D01*
X102713000Y-116901000D01*
X102713000Y-123861000D01*
G37*
G36*
X140813000Y-123861000D02*
G01*
X139187000Y-123861000D01*
X139187000Y-116901000D01*
X140813000Y-116901000D01*
X140813000Y-123861000D01*
G37*
G36*
X178913000Y-123861000D02*
G01*
X177287000Y-123861000D01*
X177287000Y-116901000D01*
X178913000Y-116901000D01*
X178913000Y-123861000D01*
G37*
G36*
X173833000Y-123861000D02*
G01*
X172207000Y-123861000D01*
X172207000Y-116901000D01*
X173833000Y-116901000D01*
X173833000Y-123861000D01*
G37*
G36*
X171293000Y-123861000D02*
G01*
X169667000Y-123861000D01*
X169667000Y-116901000D01*
X171293000Y-116901000D01*
X171293000Y-123861000D01*
G37*
G36*
X168753000Y-123861000D02*
G01*
X167127000Y-123861000D01*
X167127000Y-116901000D01*
X168753000Y-116901000D01*
X168753000Y-123861000D01*
G37*
G36*
X166213000Y-123861000D02*
G01*
X164587000Y-123861000D01*
X164587000Y-116901000D01*
X166213000Y-116901000D01*
X166213000Y-123861000D01*
G37*
G36*
X163673000Y-123861000D02*
G01*
X162047000Y-123861000D01*
X162047000Y-116901000D01*
X163673000Y-116901000D01*
X163673000Y-123861000D01*
G37*
G36*
X161133000Y-123861000D02*
G01*
X159507000Y-123861000D01*
X159507000Y-116901000D01*
X161133000Y-116901000D01*
X161133000Y-123861000D01*
G37*
G36*
X158593000Y-123861000D02*
G01*
X156967000Y-123861000D01*
X156967000Y-116901000D01*
X158593000Y-116901000D01*
X158593000Y-123861000D01*
G37*
G36*
X156053000Y-123861000D02*
G01*
X154427000Y-123861000D01*
X154427000Y-116901000D01*
X156053000Y-116901000D01*
X156053000Y-123861000D01*
G37*
G36*
X153513000Y-123861000D02*
G01*
X151887000Y-123861000D01*
X151887000Y-116901000D01*
X153513000Y-116901000D01*
X153513000Y-123861000D01*
G37*
G36*
X150973000Y-123861000D02*
G01*
X149347000Y-123861000D01*
X149347000Y-116901000D01*
X150973000Y-116901000D01*
X150973000Y-123861000D01*
G37*
G36*
X148433000Y-123861000D02*
G01*
X146807000Y-123861000D01*
X146807000Y-116901000D01*
X148433000Y-116901000D01*
X148433000Y-123861000D01*
G37*
G36*
X145893000Y-123861000D02*
G01*
X144267000Y-123861000D01*
X144267000Y-116901000D01*
X145893000Y-116901000D01*
X145893000Y-123861000D01*
G37*
G36*
X143353000Y-123861000D02*
G01*
X141727000Y-123861000D01*
X141727000Y-116901000D01*
X143353000Y-116901000D01*
X143353000Y-123861000D01*
G37*
G36*
X138273000Y-123861000D02*
G01*
X136647000Y-123861000D01*
X136647000Y-116901000D01*
X138273000Y-116901000D01*
X138273000Y-123861000D01*
G37*
G36*
X105253000Y-123861000D02*
G01*
X103627000Y-123861000D01*
X103627000Y-116901000D01*
X105253000Y-116901000D01*
X105253000Y-123861000D01*
G37*
G36*
X107793000Y-123861000D02*
G01*
X106167000Y-123861000D01*
X106167000Y-116901000D01*
X107793000Y-116901000D01*
X107793000Y-123861000D01*
G37*
G36*
X110333000Y-123861000D02*
G01*
X108707000Y-123861000D01*
X108707000Y-116901000D01*
X110333000Y-116901000D01*
X110333000Y-123861000D01*
G37*
G36*
X112873000Y-123861000D02*
G01*
X111247000Y-123861000D01*
X111247000Y-116901000D01*
X112873000Y-116901000D01*
X112873000Y-123861000D01*
G37*
G36*
X115413000Y-123861000D02*
G01*
X113787000Y-123861000D01*
X113787000Y-116901000D01*
X115413000Y-116901000D01*
X115413000Y-123861000D01*
G37*
G36*
X117953000Y-123861000D02*
G01*
X116327000Y-123861000D01*
X116327000Y-116901000D01*
X117953000Y-116901000D01*
X117953000Y-123861000D01*
G37*
G36*
X120493000Y-123861000D02*
G01*
X118867000Y-123861000D01*
X118867000Y-116901000D01*
X120493000Y-116901000D01*
X120493000Y-123861000D01*
G37*
G36*
X125573000Y-123861000D02*
G01*
X123947000Y-123861000D01*
X123947000Y-116901000D01*
X125573000Y-116901000D01*
X125573000Y-123861000D01*
G37*
G36*
X128113000Y-123861000D02*
G01*
X126487000Y-123861000D01*
X126487000Y-116901000D01*
X128113000Y-116901000D01*
X128113000Y-123861000D01*
G37*
G36*
X130653000Y-123861000D02*
G01*
X129027000Y-123861000D01*
X129027000Y-116901000D01*
X130653000Y-116901000D01*
X130653000Y-123861000D01*
G37*
G36*
X133193000Y-123861000D02*
G01*
X131567000Y-123861000D01*
X131567000Y-116901000D01*
X133193000Y-116901000D01*
X133193000Y-123861000D01*
G37*
G36*
X135733000Y-123861000D02*
G01*
X134107000Y-123861000D01*
X134107000Y-116901000D01*
X135733000Y-116901000D01*
X135733000Y-123861000D01*
G37*
G36*
X176373000Y-123861000D02*
G01*
X174747000Y-123861000D01*
X174747000Y-116901000D01*
X176373000Y-116901000D01*
X176373000Y-123861000D01*
G37*
G36*
X123033000Y-123861000D02*
G01*
X121407000Y-123861000D01*
X121407000Y-116901000D01*
X123033000Y-116901000D01*
X123033000Y-123861000D01*
G37*
G36*
X158368228Y-109191703D02*
G01*
X158523100Y-109255853D01*
X158662481Y-109348985D01*
X158781015Y-109467519D01*
X158874147Y-109606900D01*
X158938297Y-109761772D01*
X158971000Y-109926184D01*
X158971000Y-110093816D01*
X158938297Y-110258228D01*
X158874147Y-110413100D01*
X158781015Y-110552481D01*
X158662481Y-110671015D01*
X158523100Y-110764147D01*
X158368228Y-110828297D01*
X158203816Y-110861000D01*
X158036184Y-110861000D01*
X157871772Y-110828297D01*
X157716900Y-110764147D01*
X157577519Y-110671015D01*
X157458985Y-110552481D01*
X157365853Y-110413100D01*
X157301703Y-110258228D01*
X157269000Y-110093816D01*
X157269000Y-109926184D01*
X157301703Y-109761772D01*
X157365853Y-109606900D01*
X157458985Y-109467519D01*
X157577519Y-109348985D01*
X157716900Y-109255853D01*
X157871772Y-109191703D01*
X158036184Y-109159000D01*
X158203816Y-109159000D01*
X158368228Y-109191703D01*
G37*
G36*
X150748228Y-109191703D02*
G01*
X150903100Y-109255853D01*
X151042481Y-109348985D01*
X151161015Y-109467519D01*
X151254147Y-109606900D01*
X151318297Y-109761772D01*
X151351000Y-109926184D01*
X151351000Y-110093816D01*
X151318297Y-110258228D01*
X151254147Y-110413100D01*
X151161015Y-110552481D01*
X151042481Y-110671015D01*
X150903100Y-110764147D01*
X150748228Y-110828297D01*
X150583816Y-110861000D01*
X150416184Y-110861000D01*
X150251772Y-110828297D01*
X150096900Y-110764147D01*
X149957519Y-110671015D01*
X149838985Y-110552481D01*
X149745853Y-110413100D01*
X149681703Y-110258228D01*
X149649000Y-110093816D01*
X149649000Y-109926184D01*
X149681703Y-109761772D01*
X149745853Y-109606900D01*
X149838985Y-109467519D01*
X149957519Y-109348985D01*
X150096900Y-109255853D01*
X150251772Y-109191703D01*
X150416184Y-109159000D01*
X150583816Y-109159000D01*
X150748228Y-109191703D01*
G37*
G36*
X138248228Y-109191703D02*
G01*
X138403100Y-109255853D01*
X138542481Y-109348985D01*
X138661015Y-109467519D01*
X138754147Y-109606900D01*
X138818297Y-109761772D01*
X138851000Y-109926184D01*
X138851000Y-110093816D01*
X138818297Y-110258228D01*
X138754147Y-110413100D01*
X138661015Y-110552481D01*
X138542481Y-110671015D01*
X138403100Y-110764147D01*
X138248228Y-110828297D01*
X138083816Y-110861000D01*
X137916184Y-110861000D01*
X137751772Y-110828297D01*
X137596900Y-110764147D01*
X137457519Y-110671015D01*
X137338985Y-110552481D01*
X137245853Y-110413100D01*
X137181703Y-110258228D01*
X137149000Y-110093816D01*
X137149000Y-109926184D01*
X137181703Y-109761772D01*
X137245853Y-109606900D01*
X137338985Y-109467519D01*
X137457519Y-109348985D01*
X137596900Y-109255853D01*
X137751772Y-109191703D01*
X137916184Y-109159000D01*
X138083816Y-109159000D01*
X138248228Y-109191703D01*
G37*
G36*
X145868228Y-109191703D02*
G01*
X146023100Y-109255853D01*
X146162481Y-109348985D01*
X146281015Y-109467519D01*
X146374147Y-109606900D01*
X146438297Y-109761772D01*
X146471000Y-109926184D01*
X146471000Y-110093816D01*
X146438297Y-110258228D01*
X146374147Y-110413100D01*
X146281015Y-110552481D01*
X146162481Y-110671015D01*
X146023100Y-110764147D01*
X145868228Y-110828297D01*
X145703816Y-110861000D01*
X145536184Y-110861000D01*
X145371772Y-110828297D01*
X145216900Y-110764147D01*
X145077519Y-110671015D01*
X144958985Y-110552481D01*
X144865853Y-110413100D01*
X144801703Y-110258228D01*
X144769000Y-110093816D01*
X144769000Y-109926184D01*
X144801703Y-109761772D01*
X144865853Y-109606900D01*
X144958985Y-109467519D01*
X145077519Y-109348985D01*
X145216900Y-109255853D01*
X145371772Y-109191703D01*
X145536184Y-109159000D01*
X145703816Y-109159000D01*
X145868228Y-109191703D01*
G37*
G36*
X105326823Y-109161313D02*
G01*
X105487242Y-109209976D01*
X105619906Y-109280886D01*
X105635078Y-109288996D01*
X105764659Y-109395341D01*
X105871004Y-109524922D01*
X105871005Y-109524924D01*
X105950024Y-109672758D01*
X105998687Y-109833177D01*
X106015117Y-110000000D01*
X105998687Y-110166823D01*
X105950024Y-110327242D01*
X105909477Y-110403100D01*
X105871004Y-110475078D01*
X105764659Y-110604659D01*
X105635078Y-110711004D01*
X105635076Y-110711005D01*
X105487242Y-110790024D01*
X105326823Y-110838687D01*
X105201804Y-110851000D01*
X104318196Y-110851000D01*
X104193177Y-110838687D01*
X104032758Y-110790024D01*
X103884924Y-110711005D01*
X103884922Y-110711004D01*
X103755341Y-110604659D01*
X103648996Y-110475078D01*
X103610523Y-110403100D01*
X103569976Y-110327242D01*
X103521313Y-110166823D01*
X103504883Y-110000000D01*
X103521313Y-109833177D01*
X103569976Y-109672758D01*
X103648995Y-109524924D01*
X103648996Y-109524922D01*
X103755341Y-109395341D01*
X103884922Y-109288996D01*
X103900094Y-109280886D01*
X104032758Y-109209976D01*
X104193177Y-109161313D01*
X104318196Y-109149000D01*
X105201804Y-109149000D01*
X105326823Y-109161313D01*
G37*
G36*
X121251000Y-110851000D02*
G01*
X118749000Y-110851000D01*
X118749000Y-109149000D01*
X121251000Y-109149000D01*
X121251000Y-110851000D01*
G37*
G36*
X125828228Y-109181703D02*
G01*
X125983100Y-109245853D01*
X126122481Y-109338985D01*
X126241015Y-109457519D01*
X126334147Y-109596900D01*
X126398297Y-109751772D01*
X126431000Y-109916184D01*
X126431000Y-110083816D01*
X126398297Y-110248228D01*
X126334147Y-110403100D01*
X126241015Y-110542481D01*
X126122481Y-110661015D01*
X125983100Y-110754147D01*
X125828228Y-110818297D01*
X125663816Y-110851000D01*
X125496184Y-110851000D01*
X125331772Y-110818297D01*
X125176900Y-110754147D01*
X125037519Y-110661015D01*
X124918985Y-110542481D01*
X124825853Y-110403100D01*
X124761703Y-110248228D01*
X124729000Y-110083816D01*
X124729000Y-109916184D01*
X124761703Y-109751772D01*
X124825853Y-109596900D01*
X124918985Y-109457519D01*
X125037519Y-109338985D01*
X125176900Y-109245853D01*
X125331772Y-109181703D01*
X125496184Y-109149000D01*
X125663816Y-109149000D01*
X125828228Y-109181703D01*
G37*
G36*
X134051000Y-110851000D02*
G01*
X132349000Y-110851000D01*
X132349000Y-109149000D01*
X134051000Y-109149000D01*
X134051000Y-110851000D01*
G37*
G36*
X145868228Y-106651703D02*
G01*
X146023100Y-106715853D01*
X146162481Y-106808985D01*
X146281015Y-106927519D01*
X146374147Y-107066900D01*
X146438297Y-107221772D01*
X146471000Y-107386184D01*
X146471000Y-107553816D01*
X146438297Y-107718228D01*
X146374147Y-107873100D01*
X146281015Y-108012481D01*
X146162481Y-108131015D01*
X146023100Y-108224147D01*
X145868228Y-108288297D01*
X145703816Y-108321000D01*
X145536184Y-108321000D01*
X145371772Y-108288297D01*
X145216900Y-108224147D01*
X145077519Y-108131015D01*
X144958985Y-108012481D01*
X144865853Y-107873100D01*
X144801703Y-107718228D01*
X144769000Y-107553816D01*
X144769000Y-107386184D01*
X144801703Y-107221772D01*
X144865853Y-107066900D01*
X144958985Y-106927519D01*
X145077519Y-106808985D01*
X145216900Y-106715853D01*
X145371772Y-106651703D01*
X145536184Y-106619000D01*
X145703816Y-106619000D01*
X145868228Y-106651703D01*
G37*
G36*
X150748228Y-106651703D02*
G01*
X150903100Y-106715853D01*
X151042481Y-106808985D01*
X151161015Y-106927519D01*
X151254147Y-107066900D01*
X151318297Y-107221772D01*
X151351000Y-107386184D01*
X151351000Y-107553816D01*
X151318297Y-107718228D01*
X151254147Y-107873100D01*
X151161015Y-108012481D01*
X151042481Y-108131015D01*
X150903100Y-108224147D01*
X150748228Y-108288297D01*
X150583816Y-108321000D01*
X150416184Y-108321000D01*
X150251772Y-108288297D01*
X150096900Y-108224147D01*
X149957519Y-108131015D01*
X149838985Y-108012481D01*
X149745853Y-107873100D01*
X149681703Y-107718228D01*
X149649000Y-107553816D01*
X149649000Y-107386184D01*
X149681703Y-107221772D01*
X149745853Y-107066900D01*
X149838985Y-106927519D01*
X149957519Y-106808985D01*
X150096900Y-106715853D01*
X150251772Y-106651703D01*
X150416184Y-106619000D01*
X150583816Y-106619000D01*
X150748228Y-106651703D01*
G37*
G36*
X158368228Y-106651703D02*
G01*
X158523100Y-106715853D01*
X158662481Y-106808985D01*
X158781015Y-106927519D01*
X158874147Y-107066900D01*
X158938297Y-107221772D01*
X158971000Y-107386184D01*
X158971000Y-107553816D01*
X158938297Y-107718228D01*
X158874147Y-107873100D01*
X158781015Y-108012481D01*
X158662481Y-108131015D01*
X158523100Y-108224147D01*
X158368228Y-108288297D01*
X158203816Y-108321000D01*
X158036184Y-108321000D01*
X157871772Y-108288297D01*
X157716900Y-108224147D01*
X157577519Y-108131015D01*
X157458985Y-108012481D01*
X157365853Y-107873100D01*
X157301703Y-107718228D01*
X157269000Y-107553816D01*
X157269000Y-107386184D01*
X157301703Y-107221772D01*
X157365853Y-107066900D01*
X157458985Y-106927519D01*
X157577519Y-106808985D01*
X157716900Y-106715853D01*
X157871772Y-106651703D01*
X158036184Y-106619000D01*
X158203816Y-106619000D01*
X158368228Y-106651703D01*
G37*
G36*
X138248228Y-106651703D02*
G01*
X138403100Y-106715853D01*
X138542481Y-106808985D01*
X138661015Y-106927519D01*
X138754147Y-107066900D01*
X138818297Y-107221772D01*
X138851000Y-107386184D01*
X138851000Y-107553816D01*
X138818297Y-107718228D01*
X138754147Y-107873100D01*
X138661015Y-108012481D01*
X138542481Y-108131015D01*
X138403100Y-108224147D01*
X138248228Y-108288297D01*
X138083816Y-108321000D01*
X137916184Y-108321000D01*
X137751772Y-108288297D01*
X137596900Y-108224147D01*
X137457519Y-108131015D01*
X137338985Y-108012481D01*
X137245853Y-107873100D01*
X137181703Y-107718228D01*
X137149000Y-107553816D01*
X137149000Y-107386184D01*
X137181703Y-107221772D01*
X137245853Y-107066900D01*
X137338985Y-106927519D01*
X137457519Y-106808985D01*
X137596900Y-106715853D01*
X137751772Y-106651703D01*
X137916184Y-106619000D01*
X138083816Y-106619000D01*
X138248228Y-106651703D01*
G37*
G36*
X133448228Y-106641703D02*
G01*
X133603100Y-106705853D01*
X133742481Y-106798985D01*
X133861015Y-106917519D01*
X133954147Y-107056900D01*
X134018297Y-107211772D01*
X134051000Y-107376184D01*
X134051000Y-107543816D01*
X134018297Y-107708228D01*
X133954147Y-107863100D01*
X133861015Y-108002481D01*
X133742481Y-108121015D01*
X133603100Y-108214147D01*
X133448228Y-108278297D01*
X133283816Y-108311000D01*
X133116184Y-108311000D01*
X132951772Y-108278297D01*
X132796900Y-108214147D01*
X132657519Y-108121015D01*
X132538985Y-108002481D01*
X132445853Y-107863100D01*
X132381703Y-107708228D01*
X132349000Y-107543816D01*
X132349000Y-107376184D01*
X132381703Y-107211772D01*
X132445853Y-107056900D01*
X132538985Y-106917519D01*
X132657519Y-106798985D01*
X132796900Y-106705853D01*
X132951772Y-106641703D01*
X133116184Y-106609000D01*
X133283816Y-106609000D01*
X133448228Y-106641703D01*
G37*
G36*
X125828228Y-106641703D02*
G01*
X125983100Y-106705853D01*
X126122481Y-106798985D01*
X126241015Y-106917519D01*
X126334147Y-107056900D01*
X126398297Y-107211772D01*
X126431000Y-107376184D01*
X126431000Y-107543816D01*
X126398297Y-107708228D01*
X126334147Y-107863100D01*
X126241015Y-108002481D01*
X126122481Y-108121015D01*
X125983100Y-108214147D01*
X125828228Y-108278297D01*
X125663816Y-108311000D01*
X125496184Y-108311000D01*
X125331772Y-108278297D01*
X125176900Y-108214147D01*
X125037519Y-108121015D01*
X124918985Y-108002481D01*
X124825853Y-107863100D01*
X124761703Y-107708228D01*
X124729000Y-107543816D01*
X124729000Y-107376184D01*
X124761703Y-107211772D01*
X124825853Y-107056900D01*
X124918985Y-106917519D01*
X125037519Y-106798985D01*
X125176900Y-106705853D01*
X125331772Y-106641703D01*
X125496184Y-106609000D01*
X125663816Y-106609000D01*
X125828228Y-106641703D01*
G37*
G36*
X120566823Y-106621313D02*
G01*
X120727242Y-106669976D01*
X120859906Y-106740886D01*
X120875078Y-106748996D01*
X121004659Y-106855341D01*
X121111004Y-106984922D01*
X121111005Y-106984924D01*
X121190024Y-107132758D01*
X121238687Y-107293177D01*
X121255117Y-107460000D01*
X121238687Y-107626823D01*
X121190024Y-107787242D01*
X121149477Y-107863100D01*
X121111004Y-107935078D01*
X121004659Y-108064659D01*
X120875078Y-108171004D01*
X120875076Y-108171005D01*
X120727242Y-108250024D01*
X120566823Y-108298687D01*
X120441804Y-108311000D01*
X119558196Y-108311000D01*
X119433177Y-108298687D01*
X119272758Y-108250024D01*
X119124924Y-108171005D01*
X119124922Y-108171004D01*
X118995341Y-108064659D01*
X118888996Y-107935078D01*
X118850523Y-107863100D01*
X118809976Y-107787242D01*
X118761313Y-107626823D01*
X118744883Y-107460000D01*
X118761313Y-107293177D01*
X118809976Y-107132758D01*
X118888995Y-106984924D01*
X118888996Y-106984922D01*
X118995341Y-106855341D01*
X119124922Y-106748996D01*
X119140094Y-106740886D01*
X119272758Y-106669976D01*
X119433177Y-106621313D01*
X119558196Y-106609000D01*
X120441804Y-106609000D01*
X120566823Y-106621313D01*
G37*
G36*
X105326823Y-106621313D02*
G01*
X105487242Y-106669976D01*
X105619906Y-106740886D01*
X105635078Y-106748996D01*
X105764659Y-106855341D01*
X105871004Y-106984922D01*
X105871005Y-106984924D01*
X105950024Y-107132758D01*
X105998687Y-107293177D01*
X106015117Y-107460000D01*
X105998687Y-107626823D01*
X105950024Y-107787242D01*
X105909477Y-107863100D01*
X105871004Y-107935078D01*
X105764659Y-108064659D01*
X105635078Y-108171004D01*
X105635076Y-108171005D01*
X105487242Y-108250024D01*
X105326823Y-108298687D01*
X105201804Y-108311000D01*
X104318196Y-108311000D01*
X104193177Y-108298687D01*
X104032758Y-108250024D01*
X103884924Y-108171005D01*
X103884922Y-108171004D01*
X103755341Y-108064659D01*
X103648996Y-107935078D01*
X103610523Y-107863100D01*
X103569976Y-107787242D01*
X103521313Y-107626823D01*
X103504883Y-107460000D01*
X103521313Y-107293177D01*
X103569976Y-107132758D01*
X103648995Y-106984924D01*
X103648996Y-106984922D01*
X103755341Y-106855341D01*
X103884922Y-106748996D01*
X103900094Y-106740886D01*
X104032758Y-106669976D01*
X104193177Y-106621313D01*
X104318196Y-106609000D01*
X105201804Y-106609000D01*
X105326823Y-106621313D01*
G37*
G36*
X138248228Y-104111703D02*
G01*
X138403100Y-104175853D01*
X138542481Y-104268985D01*
X138661015Y-104387519D01*
X138754147Y-104526900D01*
X138818297Y-104681772D01*
X138851000Y-104846184D01*
X138851000Y-105013816D01*
X138818297Y-105178228D01*
X138754147Y-105333100D01*
X138661015Y-105472481D01*
X138542481Y-105591015D01*
X138403100Y-105684147D01*
X138248228Y-105748297D01*
X138083816Y-105781000D01*
X137916184Y-105781000D01*
X137751772Y-105748297D01*
X137596900Y-105684147D01*
X137457519Y-105591015D01*
X137338985Y-105472481D01*
X137245853Y-105333100D01*
X137181703Y-105178228D01*
X137149000Y-105013816D01*
X137149000Y-104846184D01*
X137181703Y-104681772D01*
X137245853Y-104526900D01*
X137338985Y-104387519D01*
X137457519Y-104268985D01*
X137596900Y-104175853D01*
X137751772Y-104111703D01*
X137916184Y-104079000D01*
X138083816Y-104079000D01*
X138248228Y-104111703D01*
G37*
G36*
X150748228Y-104111703D02*
G01*
X150903100Y-104175853D01*
X151042481Y-104268985D01*
X151161015Y-104387519D01*
X151254147Y-104526900D01*
X151318297Y-104681772D01*
X151351000Y-104846184D01*
X151351000Y-105013816D01*
X151318297Y-105178228D01*
X151254147Y-105333100D01*
X151161015Y-105472481D01*
X151042481Y-105591015D01*
X150903100Y-105684147D01*
X150748228Y-105748297D01*
X150583816Y-105781000D01*
X150416184Y-105781000D01*
X150251772Y-105748297D01*
X150096900Y-105684147D01*
X149957519Y-105591015D01*
X149838985Y-105472481D01*
X149745853Y-105333100D01*
X149681703Y-105178228D01*
X149649000Y-105013816D01*
X149649000Y-104846184D01*
X149681703Y-104681772D01*
X149745853Y-104526900D01*
X149838985Y-104387519D01*
X149957519Y-104268985D01*
X150096900Y-104175853D01*
X150251772Y-104111703D01*
X150416184Y-104079000D01*
X150583816Y-104079000D01*
X150748228Y-104111703D01*
G37*
G36*
X158368228Y-104111703D02*
G01*
X158523100Y-104175853D01*
X158662481Y-104268985D01*
X158781015Y-104387519D01*
X158874147Y-104526900D01*
X158938297Y-104681772D01*
X158971000Y-104846184D01*
X158971000Y-105013816D01*
X158938297Y-105178228D01*
X158874147Y-105333100D01*
X158781015Y-105472481D01*
X158662481Y-105591015D01*
X158523100Y-105684147D01*
X158368228Y-105748297D01*
X158203816Y-105781000D01*
X158036184Y-105781000D01*
X157871772Y-105748297D01*
X157716900Y-105684147D01*
X157577519Y-105591015D01*
X157458985Y-105472481D01*
X157365853Y-105333100D01*
X157301703Y-105178228D01*
X157269000Y-105013816D01*
X157269000Y-104846184D01*
X157301703Y-104681772D01*
X157365853Y-104526900D01*
X157458985Y-104387519D01*
X157577519Y-104268985D01*
X157716900Y-104175853D01*
X157871772Y-104111703D01*
X158036184Y-104079000D01*
X158203816Y-104079000D01*
X158368228Y-104111703D01*
G37*
G36*
X170868228Y-104111703D02*
G01*
X171023100Y-104175853D01*
X171162481Y-104268985D01*
X171281015Y-104387519D01*
X171374147Y-104526900D01*
X171438297Y-104681772D01*
X171471000Y-104846184D01*
X171471000Y-105013816D01*
X171438297Y-105178228D01*
X171374147Y-105333100D01*
X171281015Y-105472481D01*
X171162481Y-105591015D01*
X171023100Y-105684147D01*
X170868228Y-105748297D01*
X170703816Y-105781000D01*
X170536184Y-105781000D01*
X170371772Y-105748297D01*
X170216900Y-105684147D01*
X170077519Y-105591015D01*
X169958985Y-105472481D01*
X169865853Y-105333100D01*
X169801703Y-105178228D01*
X169769000Y-105013816D01*
X169769000Y-104846184D01*
X169801703Y-104681772D01*
X169865853Y-104526900D01*
X169958985Y-104387519D01*
X170077519Y-104268985D01*
X170216900Y-104175853D01*
X170371772Y-104111703D01*
X170536184Y-104079000D01*
X170703816Y-104079000D01*
X170868228Y-104111703D01*
G37*
G36*
X145868228Y-104111703D02*
G01*
X146023100Y-104175853D01*
X146162481Y-104268985D01*
X146281015Y-104387519D01*
X146374147Y-104526900D01*
X146438297Y-104681772D01*
X146471000Y-104846184D01*
X146471000Y-105013816D01*
X146438297Y-105178228D01*
X146374147Y-105333100D01*
X146281015Y-105472481D01*
X146162481Y-105591015D01*
X146023100Y-105684147D01*
X145868228Y-105748297D01*
X145703816Y-105781000D01*
X145536184Y-105781000D01*
X145371772Y-105748297D01*
X145216900Y-105684147D01*
X145077519Y-105591015D01*
X144958985Y-105472481D01*
X144865853Y-105333100D01*
X144801703Y-105178228D01*
X144769000Y-105013816D01*
X144769000Y-104846184D01*
X144801703Y-104681772D01*
X144865853Y-104526900D01*
X144958985Y-104387519D01*
X145077519Y-104268985D01*
X145216900Y-104175853D01*
X145371772Y-104111703D01*
X145536184Y-104079000D01*
X145703816Y-104079000D01*
X145868228Y-104111703D01*
G37*
G36*
X163248228Y-104111703D02*
G01*
X163403100Y-104175853D01*
X163542481Y-104268985D01*
X163661015Y-104387519D01*
X163754147Y-104526900D01*
X163818297Y-104681772D01*
X163851000Y-104846184D01*
X163851000Y-105013816D01*
X163818297Y-105178228D01*
X163754147Y-105333100D01*
X163661015Y-105472481D01*
X163542481Y-105591015D01*
X163403100Y-105684147D01*
X163248228Y-105748297D01*
X163083816Y-105781000D01*
X162916184Y-105781000D01*
X162751772Y-105748297D01*
X162596900Y-105684147D01*
X162457519Y-105591015D01*
X162338985Y-105472481D01*
X162245853Y-105333100D01*
X162181703Y-105178228D01*
X162149000Y-105013816D01*
X162149000Y-104846184D01*
X162181703Y-104681772D01*
X162245853Y-104526900D01*
X162338985Y-104387519D01*
X162457519Y-104268985D01*
X162596900Y-104175853D01*
X162751772Y-104111703D01*
X162916184Y-104079000D01*
X163083816Y-104079000D01*
X163248228Y-104111703D01*
G37*
G36*
X105326823Y-104081313D02*
G01*
X105487242Y-104129976D01*
X105619906Y-104200886D01*
X105635078Y-104208996D01*
X105764659Y-104315341D01*
X105871004Y-104444922D01*
X105871005Y-104444924D01*
X105950024Y-104592758D01*
X105998687Y-104753177D01*
X106015117Y-104920000D01*
X105998687Y-105086823D01*
X105950024Y-105247242D01*
X105909477Y-105323100D01*
X105871004Y-105395078D01*
X105764659Y-105524659D01*
X105635078Y-105631004D01*
X105635076Y-105631005D01*
X105487242Y-105710024D01*
X105326823Y-105758687D01*
X105201804Y-105771000D01*
X104318196Y-105771000D01*
X104193177Y-105758687D01*
X104032758Y-105710024D01*
X103884924Y-105631005D01*
X103884922Y-105631004D01*
X103755341Y-105524659D01*
X103648996Y-105395078D01*
X103610523Y-105323100D01*
X103569976Y-105247242D01*
X103521313Y-105086823D01*
X103504883Y-104920000D01*
X103521313Y-104753177D01*
X103569976Y-104592758D01*
X103648995Y-104444924D01*
X103648996Y-104444922D01*
X103755341Y-104315341D01*
X103884922Y-104208996D01*
X103900094Y-104200886D01*
X104032758Y-104129976D01*
X104193177Y-104081313D01*
X104318196Y-104069000D01*
X105201804Y-104069000D01*
X105326823Y-104081313D01*
G37*
G36*
X133448228Y-104101703D02*
G01*
X133603100Y-104165853D01*
X133742481Y-104258985D01*
X133861015Y-104377519D01*
X133954147Y-104516900D01*
X134018297Y-104671772D01*
X134051000Y-104836184D01*
X134051000Y-105003816D01*
X134018297Y-105168228D01*
X133954147Y-105323100D01*
X133861015Y-105462481D01*
X133742481Y-105581015D01*
X133603100Y-105674147D01*
X133448228Y-105738297D01*
X133283816Y-105771000D01*
X133116184Y-105771000D01*
X132951772Y-105738297D01*
X132796900Y-105674147D01*
X132657519Y-105581015D01*
X132538985Y-105462481D01*
X132445853Y-105323100D01*
X132381703Y-105168228D01*
X132349000Y-105003816D01*
X132349000Y-104836184D01*
X132381703Y-104671772D01*
X132445853Y-104516900D01*
X132538985Y-104377519D01*
X132657519Y-104258985D01*
X132796900Y-104165853D01*
X132951772Y-104101703D01*
X133116184Y-104069000D01*
X133283816Y-104069000D01*
X133448228Y-104101703D01*
G37*
G36*
X125828228Y-104101703D02*
G01*
X125983100Y-104165853D01*
X126122481Y-104258985D01*
X126241015Y-104377519D01*
X126334147Y-104516900D01*
X126398297Y-104671772D01*
X126431000Y-104836184D01*
X126431000Y-105003816D01*
X126398297Y-105168228D01*
X126334147Y-105323100D01*
X126241015Y-105462481D01*
X126122481Y-105581015D01*
X125983100Y-105674147D01*
X125828228Y-105738297D01*
X125663816Y-105771000D01*
X125496184Y-105771000D01*
X125331772Y-105738297D01*
X125176900Y-105674147D01*
X125037519Y-105581015D01*
X124918985Y-105462481D01*
X124825853Y-105323100D01*
X124761703Y-105168228D01*
X124729000Y-105003816D01*
X124729000Y-104836184D01*
X124761703Y-104671772D01*
X124825853Y-104516900D01*
X124918985Y-104377519D01*
X125037519Y-104258985D01*
X125176900Y-104165853D01*
X125331772Y-104101703D01*
X125496184Y-104069000D01*
X125663816Y-104069000D01*
X125828228Y-104101703D01*
G37*
G36*
X120566823Y-104081313D02*
G01*
X120727242Y-104129976D01*
X120859906Y-104200886D01*
X120875078Y-104208996D01*
X121004659Y-104315341D01*
X121111004Y-104444922D01*
X121111005Y-104444924D01*
X121190024Y-104592758D01*
X121238687Y-104753177D01*
X121255117Y-104920000D01*
X121238687Y-105086823D01*
X121190024Y-105247242D01*
X121149477Y-105323100D01*
X121111004Y-105395078D01*
X121004659Y-105524659D01*
X120875078Y-105631004D01*
X120875076Y-105631005D01*
X120727242Y-105710024D01*
X120566823Y-105758687D01*
X120441804Y-105771000D01*
X119558196Y-105771000D01*
X119433177Y-105758687D01*
X119272758Y-105710024D01*
X119124924Y-105631005D01*
X119124922Y-105631004D01*
X118995341Y-105524659D01*
X118888996Y-105395078D01*
X118850523Y-105323100D01*
X118809976Y-105247242D01*
X118761313Y-105086823D01*
X118744883Y-104920000D01*
X118761313Y-104753177D01*
X118809976Y-104592758D01*
X118888995Y-104444924D01*
X118888996Y-104444922D01*
X118995341Y-104315341D01*
X119124922Y-104208996D01*
X119140094Y-104200886D01*
X119272758Y-104129976D01*
X119433177Y-104081313D01*
X119558196Y-104069000D01*
X120441804Y-104069000D01*
X120566823Y-104081313D01*
G37*
G36*
X138248228Y-101571703D02*
G01*
X138403100Y-101635853D01*
X138542481Y-101728985D01*
X138661015Y-101847519D01*
X138754147Y-101986900D01*
X138818297Y-102141772D01*
X138851000Y-102306184D01*
X138851000Y-102473816D01*
X138818297Y-102638228D01*
X138754147Y-102793100D01*
X138661015Y-102932481D01*
X138542481Y-103051015D01*
X138403100Y-103144147D01*
X138248228Y-103208297D01*
X138083816Y-103241000D01*
X137916184Y-103241000D01*
X137751772Y-103208297D01*
X137596900Y-103144147D01*
X137457519Y-103051015D01*
X137338985Y-102932481D01*
X137245853Y-102793100D01*
X137181703Y-102638228D01*
X137149000Y-102473816D01*
X137149000Y-102306184D01*
X137181703Y-102141772D01*
X137245853Y-101986900D01*
X137338985Y-101847519D01*
X137457519Y-101728985D01*
X137596900Y-101635853D01*
X137751772Y-101571703D01*
X137916184Y-101539000D01*
X138083816Y-101539000D01*
X138248228Y-101571703D01*
G37*
G36*
X145868228Y-101571703D02*
G01*
X146023100Y-101635853D01*
X146162481Y-101728985D01*
X146281015Y-101847519D01*
X146374147Y-101986900D01*
X146438297Y-102141772D01*
X146471000Y-102306184D01*
X146471000Y-102473816D01*
X146438297Y-102638228D01*
X146374147Y-102793100D01*
X146281015Y-102932481D01*
X146162481Y-103051015D01*
X146023100Y-103144147D01*
X145868228Y-103208297D01*
X145703816Y-103241000D01*
X145536184Y-103241000D01*
X145371772Y-103208297D01*
X145216900Y-103144147D01*
X145077519Y-103051015D01*
X144958985Y-102932481D01*
X144865853Y-102793100D01*
X144801703Y-102638228D01*
X144769000Y-102473816D01*
X144769000Y-102306184D01*
X144801703Y-102141772D01*
X144865853Y-101986900D01*
X144958985Y-101847519D01*
X145077519Y-101728985D01*
X145216900Y-101635853D01*
X145371772Y-101571703D01*
X145536184Y-101539000D01*
X145703816Y-101539000D01*
X145868228Y-101571703D01*
G37*
G36*
X163248228Y-101571703D02*
G01*
X163403100Y-101635853D01*
X163542481Y-101728985D01*
X163661015Y-101847519D01*
X163754147Y-101986900D01*
X163818297Y-102141772D01*
X163851000Y-102306184D01*
X163851000Y-102473816D01*
X163818297Y-102638228D01*
X163754147Y-102793100D01*
X163661015Y-102932481D01*
X163542481Y-103051015D01*
X163403100Y-103144147D01*
X163248228Y-103208297D01*
X163083816Y-103241000D01*
X162916184Y-103241000D01*
X162751772Y-103208297D01*
X162596900Y-103144147D01*
X162457519Y-103051015D01*
X162338985Y-102932481D01*
X162245853Y-102793100D01*
X162181703Y-102638228D01*
X162149000Y-102473816D01*
X162149000Y-102306184D01*
X162181703Y-102141772D01*
X162245853Y-101986900D01*
X162338985Y-101847519D01*
X162457519Y-101728985D01*
X162596900Y-101635853D01*
X162751772Y-101571703D01*
X162916184Y-101539000D01*
X163083816Y-101539000D01*
X163248228Y-101571703D01*
G37*
G36*
X170868228Y-101571703D02*
G01*
X171023100Y-101635853D01*
X171162481Y-101728985D01*
X171281015Y-101847519D01*
X171374147Y-101986900D01*
X171438297Y-102141772D01*
X171471000Y-102306184D01*
X171471000Y-102473816D01*
X171438297Y-102638228D01*
X171374147Y-102793100D01*
X171281015Y-102932481D01*
X171162481Y-103051015D01*
X171023100Y-103144147D01*
X170868228Y-103208297D01*
X170703816Y-103241000D01*
X170536184Y-103241000D01*
X170371772Y-103208297D01*
X170216900Y-103144147D01*
X170077519Y-103051015D01*
X169958985Y-102932481D01*
X169865853Y-102793100D01*
X169801703Y-102638228D01*
X169769000Y-102473816D01*
X169769000Y-102306184D01*
X169801703Y-102141772D01*
X169865853Y-101986900D01*
X169958985Y-101847519D01*
X170077519Y-101728985D01*
X170216900Y-101635853D01*
X170371772Y-101571703D01*
X170536184Y-101539000D01*
X170703816Y-101539000D01*
X170868228Y-101571703D01*
G37*
G36*
X158368228Y-101571703D02*
G01*
X158523100Y-101635853D01*
X158662481Y-101728985D01*
X158781015Y-101847519D01*
X158874147Y-101986900D01*
X158938297Y-102141772D01*
X158971000Y-102306184D01*
X158971000Y-102473816D01*
X158938297Y-102638228D01*
X158874147Y-102793100D01*
X158781015Y-102932481D01*
X158662481Y-103051015D01*
X158523100Y-103144147D01*
X158368228Y-103208297D01*
X158203816Y-103241000D01*
X158036184Y-103241000D01*
X157871772Y-103208297D01*
X157716900Y-103144147D01*
X157577519Y-103051015D01*
X157458985Y-102932481D01*
X157365853Y-102793100D01*
X157301703Y-102638228D01*
X157269000Y-102473816D01*
X157269000Y-102306184D01*
X157301703Y-102141772D01*
X157365853Y-101986900D01*
X157458985Y-101847519D01*
X157577519Y-101728985D01*
X157716900Y-101635853D01*
X157871772Y-101571703D01*
X158036184Y-101539000D01*
X158203816Y-101539000D01*
X158368228Y-101571703D01*
G37*
G36*
X150748228Y-101571703D02*
G01*
X150903100Y-101635853D01*
X151042481Y-101728985D01*
X151161015Y-101847519D01*
X151254147Y-101986900D01*
X151318297Y-102141772D01*
X151351000Y-102306184D01*
X151351000Y-102473816D01*
X151318297Y-102638228D01*
X151254147Y-102793100D01*
X151161015Y-102932481D01*
X151042481Y-103051015D01*
X150903100Y-103144147D01*
X150748228Y-103208297D01*
X150583816Y-103241000D01*
X150416184Y-103241000D01*
X150251772Y-103208297D01*
X150096900Y-103144147D01*
X149957519Y-103051015D01*
X149838985Y-102932481D01*
X149745853Y-102793100D01*
X149681703Y-102638228D01*
X149649000Y-102473816D01*
X149649000Y-102306184D01*
X149681703Y-102141772D01*
X149745853Y-101986900D01*
X149838985Y-101847519D01*
X149957519Y-101728985D01*
X150096900Y-101635853D01*
X150251772Y-101571703D01*
X150416184Y-101539000D01*
X150583816Y-101539000D01*
X150748228Y-101571703D01*
G37*
G36*
X133448228Y-101561703D02*
G01*
X133603100Y-101625853D01*
X133742481Y-101718985D01*
X133861015Y-101837519D01*
X133954147Y-101976900D01*
X134018297Y-102131772D01*
X134051000Y-102296184D01*
X134051000Y-102463816D01*
X134018297Y-102628228D01*
X133954147Y-102783100D01*
X133861015Y-102922481D01*
X133742481Y-103041015D01*
X133603100Y-103134147D01*
X133448228Y-103198297D01*
X133283816Y-103231000D01*
X133116184Y-103231000D01*
X132951772Y-103198297D01*
X132796900Y-103134147D01*
X132657519Y-103041015D01*
X132538985Y-102922481D01*
X132445853Y-102783100D01*
X132381703Y-102628228D01*
X132349000Y-102463816D01*
X132349000Y-102296184D01*
X132381703Y-102131772D01*
X132445853Y-101976900D01*
X132538985Y-101837519D01*
X132657519Y-101718985D01*
X132796900Y-101625853D01*
X132951772Y-101561703D01*
X133116184Y-101529000D01*
X133283816Y-101529000D01*
X133448228Y-101561703D01*
G37*
G36*
X120566823Y-101541313D02*
G01*
X120727242Y-101589976D01*
X120859906Y-101660886D01*
X120875078Y-101668996D01*
X121004659Y-101775341D01*
X121111004Y-101904922D01*
X121111005Y-101904924D01*
X121190024Y-102052758D01*
X121238687Y-102213177D01*
X121255117Y-102380000D01*
X121238687Y-102546823D01*
X121190024Y-102707242D01*
X121149477Y-102783100D01*
X121111004Y-102855078D01*
X121004659Y-102984659D01*
X120875078Y-103091004D01*
X120875076Y-103091005D01*
X120727242Y-103170024D01*
X120566823Y-103218687D01*
X120441804Y-103231000D01*
X119558196Y-103231000D01*
X119433177Y-103218687D01*
X119272758Y-103170024D01*
X119124924Y-103091005D01*
X119124922Y-103091004D01*
X118995341Y-102984659D01*
X118888996Y-102855078D01*
X118850523Y-102783100D01*
X118809976Y-102707242D01*
X118761313Y-102546823D01*
X118744883Y-102380000D01*
X118761313Y-102213177D01*
X118809976Y-102052758D01*
X118888995Y-101904924D01*
X118888996Y-101904922D01*
X118995341Y-101775341D01*
X119124922Y-101668996D01*
X119140094Y-101660886D01*
X119272758Y-101589976D01*
X119433177Y-101541313D01*
X119558196Y-101529000D01*
X120441804Y-101529000D01*
X120566823Y-101541313D01*
G37*
G36*
X125828228Y-101561703D02*
G01*
X125983100Y-101625853D01*
X126122481Y-101718985D01*
X126241015Y-101837519D01*
X126334147Y-101976900D01*
X126398297Y-102131772D01*
X126431000Y-102296184D01*
X126431000Y-102463816D01*
X126398297Y-102628228D01*
X126334147Y-102783100D01*
X126241015Y-102922481D01*
X126122481Y-103041015D01*
X125983100Y-103134147D01*
X125828228Y-103198297D01*
X125663816Y-103231000D01*
X125496184Y-103231000D01*
X125331772Y-103198297D01*
X125176900Y-103134147D01*
X125037519Y-103041015D01*
X124918985Y-102922481D01*
X124825853Y-102783100D01*
X124761703Y-102628228D01*
X124729000Y-102463816D01*
X124729000Y-102296184D01*
X124761703Y-102131772D01*
X124825853Y-101976900D01*
X124918985Y-101837519D01*
X125037519Y-101718985D01*
X125176900Y-101625853D01*
X125331772Y-101561703D01*
X125496184Y-101529000D01*
X125663816Y-101529000D01*
X125828228Y-101561703D01*
G37*
G36*
X105326823Y-101541313D02*
G01*
X105487242Y-101589976D01*
X105619906Y-101660886D01*
X105635078Y-101668996D01*
X105764659Y-101775341D01*
X105871004Y-101904922D01*
X105871005Y-101904924D01*
X105950024Y-102052758D01*
X105998687Y-102213177D01*
X106015117Y-102380000D01*
X105998687Y-102546823D01*
X105950024Y-102707242D01*
X105909477Y-102783100D01*
X105871004Y-102855078D01*
X105764659Y-102984659D01*
X105635078Y-103091004D01*
X105635076Y-103091005D01*
X105487242Y-103170024D01*
X105326823Y-103218687D01*
X105201804Y-103231000D01*
X104318196Y-103231000D01*
X104193177Y-103218687D01*
X104032758Y-103170024D01*
X103884924Y-103091005D01*
X103884922Y-103091004D01*
X103755341Y-102984659D01*
X103648996Y-102855078D01*
X103610523Y-102783100D01*
X103569976Y-102707242D01*
X103521313Y-102546823D01*
X103504883Y-102380000D01*
X103521313Y-102213177D01*
X103569976Y-102052758D01*
X103648995Y-101904924D01*
X103648996Y-101904922D01*
X103755341Y-101775341D01*
X103884922Y-101668996D01*
X103900094Y-101660886D01*
X104032758Y-101589976D01*
X104193177Y-101541313D01*
X104318196Y-101529000D01*
X105201804Y-101529000D01*
X105326823Y-101541313D01*
G37*
G36*
X145868228Y-99031703D02*
G01*
X146023100Y-99095853D01*
X146162481Y-99188985D01*
X146281015Y-99307519D01*
X146374147Y-99446900D01*
X146438297Y-99601772D01*
X146471000Y-99766184D01*
X146471000Y-99933816D01*
X146438297Y-100098228D01*
X146374147Y-100253100D01*
X146281015Y-100392481D01*
X146162481Y-100511015D01*
X146023100Y-100604147D01*
X145868228Y-100668297D01*
X145703816Y-100701000D01*
X145536184Y-100701000D01*
X145371772Y-100668297D01*
X145216900Y-100604147D01*
X145077519Y-100511015D01*
X144958985Y-100392481D01*
X144865853Y-100253100D01*
X144801703Y-100098228D01*
X144769000Y-99933816D01*
X144769000Y-99766184D01*
X144801703Y-99601772D01*
X144865853Y-99446900D01*
X144958985Y-99307519D01*
X145077519Y-99188985D01*
X145216900Y-99095853D01*
X145371772Y-99031703D01*
X145536184Y-98999000D01*
X145703816Y-98999000D01*
X145868228Y-99031703D01*
G37*
G36*
X138248228Y-99031703D02*
G01*
X138403100Y-99095853D01*
X138542481Y-99188985D01*
X138661015Y-99307519D01*
X138754147Y-99446900D01*
X138818297Y-99601772D01*
X138851000Y-99766184D01*
X138851000Y-99933816D01*
X138818297Y-100098228D01*
X138754147Y-100253100D01*
X138661015Y-100392481D01*
X138542481Y-100511015D01*
X138403100Y-100604147D01*
X138248228Y-100668297D01*
X138083816Y-100701000D01*
X137916184Y-100701000D01*
X137751772Y-100668297D01*
X137596900Y-100604147D01*
X137457519Y-100511015D01*
X137338985Y-100392481D01*
X137245853Y-100253100D01*
X137181703Y-100098228D01*
X137149000Y-99933816D01*
X137149000Y-99766184D01*
X137181703Y-99601772D01*
X137245853Y-99446900D01*
X137338985Y-99307519D01*
X137457519Y-99188985D01*
X137596900Y-99095853D01*
X137751772Y-99031703D01*
X137916184Y-98999000D01*
X138083816Y-98999000D01*
X138248228Y-99031703D01*
G37*
G36*
X150748228Y-99031703D02*
G01*
X150903100Y-99095853D01*
X151042481Y-99188985D01*
X151161015Y-99307519D01*
X151254147Y-99446900D01*
X151318297Y-99601772D01*
X151351000Y-99766184D01*
X151351000Y-99933816D01*
X151318297Y-100098228D01*
X151254147Y-100253100D01*
X151161015Y-100392481D01*
X151042481Y-100511015D01*
X150903100Y-100604147D01*
X150748228Y-100668297D01*
X150583816Y-100701000D01*
X150416184Y-100701000D01*
X150251772Y-100668297D01*
X150096900Y-100604147D01*
X149957519Y-100511015D01*
X149838985Y-100392481D01*
X149745853Y-100253100D01*
X149681703Y-100098228D01*
X149649000Y-99933816D01*
X149649000Y-99766184D01*
X149681703Y-99601772D01*
X149745853Y-99446900D01*
X149838985Y-99307519D01*
X149957519Y-99188985D01*
X150096900Y-99095853D01*
X150251772Y-99031703D01*
X150416184Y-98999000D01*
X150583816Y-98999000D01*
X150748228Y-99031703D01*
G37*
G36*
X163248228Y-99031703D02*
G01*
X163403100Y-99095853D01*
X163542481Y-99188985D01*
X163661015Y-99307519D01*
X163754147Y-99446900D01*
X163818297Y-99601772D01*
X163851000Y-99766184D01*
X163851000Y-99933816D01*
X163818297Y-100098228D01*
X163754147Y-100253100D01*
X163661015Y-100392481D01*
X163542481Y-100511015D01*
X163403100Y-100604147D01*
X163248228Y-100668297D01*
X163083816Y-100701000D01*
X162916184Y-100701000D01*
X162751772Y-100668297D01*
X162596900Y-100604147D01*
X162457519Y-100511015D01*
X162338985Y-100392481D01*
X162245853Y-100253100D01*
X162181703Y-100098228D01*
X162149000Y-99933816D01*
X162149000Y-99766184D01*
X162181703Y-99601772D01*
X162245853Y-99446900D01*
X162338985Y-99307519D01*
X162457519Y-99188985D01*
X162596900Y-99095853D01*
X162751772Y-99031703D01*
X162916184Y-98999000D01*
X163083816Y-98999000D01*
X163248228Y-99031703D01*
G37*
G36*
X158368228Y-99031703D02*
G01*
X158523100Y-99095853D01*
X158662481Y-99188985D01*
X158781015Y-99307519D01*
X158874147Y-99446900D01*
X158938297Y-99601772D01*
X158971000Y-99766184D01*
X158971000Y-99933816D01*
X158938297Y-100098228D01*
X158874147Y-100253100D01*
X158781015Y-100392481D01*
X158662481Y-100511015D01*
X158523100Y-100604147D01*
X158368228Y-100668297D01*
X158203816Y-100701000D01*
X158036184Y-100701000D01*
X157871772Y-100668297D01*
X157716900Y-100604147D01*
X157577519Y-100511015D01*
X157458985Y-100392481D01*
X157365853Y-100253100D01*
X157301703Y-100098228D01*
X157269000Y-99933816D01*
X157269000Y-99766184D01*
X157301703Y-99601772D01*
X157365853Y-99446900D01*
X157458985Y-99307519D01*
X157577519Y-99188985D01*
X157716900Y-99095853D01*
X157871772Y-99031703D01*
X158036184Y-98999000D01*
X158203816Y-98999000D01*
X158368228Y-99031703D01*
G37*
G36*
X170868228Y-99031703D02*
G01*
X171023100Y-99095853D01*
X171162481Y-99188985D01*
X171281015Y-99307519D01*
X171374147Y-99446900D01*
X171438297Y-99601772D01*
X171471000Y-99766184D01*
X171471000Y-99933816D01*
X171438297Y-100098228D01*
X171374147Y-100253100D01*
X171281015Y-100392481D01*
X171162481Y-100511015D01*
X171023100Y-100604147D01*
X170868228Y-100668297D01*
X170703816Y-100701000D01*
X170536184Y-100701000D01*
X170371772Y-100668297D01*
X170216900Y-100604147D01*
X170077519Y-100511015D01*
X169958985Y-100392481D01*
X169865853Y-100253100D01*
X169801703Y-100098228D01*
X169769000Y-99933816D01*
X169769000Y-99766184D01*
X169801703Y-99601772D01*
X169865853Y-99446900D01*
X169958985Y-99307519D01*
X170077519Y-99188985D01*
X170216900Y-99095853D01*
X170371772Y-99031703D01*
X170536184Y-98999000D01*
X170703816Y-98999000D01*
X170868228Y-99031703D01*
G37*
G36*
X133448228Y-99021703D02*
G01*
X133603100Y-99085853D01*
X133742481Y-99178985D01*
X133861015Y-99297519D01*
X133954147Y-99436900D01*
X134018297Y-99591772D01*
X134051000Y-99756184D01*
X134051000Y-99923816D01*
X134018297Y-100088228D01*
X133954147Y-100243100D01*
X133861015Y-100382481D01*
X133742481Y-100501015D01*
X133603100Y-100594147D01*
X133448228Y-100658297D01*
X133283816Y-100691000D01*
X133116184Y-100691000D01*
X132951772Y-100658297D01*
X132796900Y-100594147D01*
X132657519Y-100501015D01*
X132538985Y-100382481D01*
X132445853Y-100243100D01*
X132381703Y-100088228D01*
X132349000Y-99923816D01*
X132349000Y-99756184D01*
X132381703Y-99591772D01*
X132445853Y-99436900D01*
X132538985Y-99297519D01*
X132657519Y-99178985D01*
X132796900Y-99085853D01*
X132951772Y-99021703D01*
X133116184Y-98989000D01*
X133283816Y-98989000D01*
X133448228Y-99021703D01*
G37*
G36*
X120566823Y-99001313D02*
G01*
X120727242Y-99049976D01*
X120859906Y-99120886D01*
X120875078Y-99128996D01*
X121004659Y-99235341D01*
X121111004Y-99364922D01*
X121111005Y-99364924D01*
X121190024Y-99512758D01*
X121238687Y-99673177D01*
X121255117Y-99840000D01*
X121238687Y-100006823D01*
X121190024Y-100167242D01*
X121149477Y-100243100D01*
X121111004Y-100315078D01*
X121004659Y-100444659D01*
X120875078Y-100551004D01*
X120875076Y-100551005D01*
X120727242Y-100630024D01*
X120566823Y-100678687D01*
X120441804Y-100691000D01*
X119558196Y-100691000D01*
X119433177Y-100678687D01*
X119272758Y-100630024D01*
X119124924Y-100551005D01*
X119124922Y-100551004D01*
X118995341Y-100444659D01*
X118888996Y-100315078D01*
X118850523Y-100243100D01*
X118809976Y-100167242D01*
X118761313Y-100006823D01*
X118744883Y-99840000D01*
X118761313Y-99673177D01*
X118809976Y-99512758D01*
X118888995Y-99364924D01*
X118888996Y-99364922D01*
X118995341Y-99235341D01*
X119124922Y-99128996D01*
X119140094Y-99120886D01*
X119272758Y-99049976D01*
X119433177Y-99001313D01*
X119558196Y-98989000D01*
X120441804Y-98989000D01*
X120566823Y-99001313D01*
G37*
G36*
X105326823Y-99001313D02*
G01*
X105487242Y-99049976D01*
X105619906Y-99120886D01*
X105635078Y-99128996D01*
X105764659Y-99235341D01*
X105871004Y-99364922D01*
X105871005Y-99364924D01*
X105950024Y-99512758D01*
X105998687Y-99673177D01*
X106015117Y-99840000D01*
X105998687Y-100006823D01*
X105950024Y-100167242D01*
X105909477Y-100243100D01*
X105871004Y-100315078D01*
X105764659Y-100444659D01*
X105635078Y-100551004D01*
X105635076Y-100551005D01*
X105487242Y-100630024D01*
X105326823Y-100678687D01*
X105201804Y-100691000D01*
X104318196Y-100691000D01*
X104193177Y-100678687D01*
X104032758Y-100630024D01*
X103884924Y-100551005D01*
X103884922Y-100551004D01*
X103755341Y-100444659D01*
X103648996Y-100315078D01*
X103610523Y-100243100D01*
X103569976Y-100167242D01*
X103521313Y-100006823D01*
X103504883Y-99840000D01*
X103521313Y-99673177D01*
X103569976Y-99512758D01*
X103648995Y-99364924D01*
X103648996Y-99364922D01*
X103755341Y-99235341D01*
X103884922Y-99128996D01*
X103900094Y-99120886D01*
X104032758Y-99049976D01*
X104193177Y-99001313D01*
X104318196Y-98989000D01*
X105201804Y-98989000D01*
X105326823Y-99001313D01*
G37*
G36*
X125828228Y-99021703D02*
G01*
X125983100Y-99085853D01*
X126122481Y-99178985D01*
X126241015Y-99297519D01*
X126334147Y-99436900D01*
X126398297Y-99591772D01*
X126431000Y-99756184D01*
X126431000Y-99923816D01*
X126398297Y-100088228D01*
X126334147Y-100243100D01*
X126241015Y-100382481D01*
X126122481Y-100501015D01*
X125983100Y-100594147D01*
X125828228Y-100658297D01*
X125663816Y-100691000D01*
X125496184Y-100691000D01*
X125331772Y-100658297D01*
X125176900Y-100594147D01*
X125037519Y-100501015D01*
X124918985Y-100382481D01*
X124825853Y-100243100D01*
X124761703Y-100088228D01*
X124729000Y-99923816D01*
X124729000Y-99756184D01*
X124761703Y-99591772D01*
X124825853Y-99436900D01*
X124918985Y-99297519D01*
X125037519Y-99178985D01*
X125176900Y-99085853D01*
X125331772Y-99021703D01*
X125496184Y-98989000D01*
X125663816Y-98989000D01*
X125828228Y-99021703D01*
G37*
G36*
X178901000Y-100051000D02*
G01*
X177099000Y-100051000D01*
X177099000Y-98249000D01*
X178901000Y-98249000D01*
X178901000Y-100051000D01*
G37*
G36*
X175573512Y-98253927D02*
G01*
X175722812Y-98283624D01*
X175886784Y-98351544D01*
X176034354Y-98450147D01*
X176159853Y-98575646D01*
X176258456Y-98723216D01*
X176326376Y-98887188D01*
X176361000Y-99061259D01*
X176361000Y-99238741D01*
X176326376Y-99412812D01*
X176258456Y-99576784D01*
X176159853Y-99724354D01*
X176034354Y-99849853D01*
X175886784Y-99948456D01*
X175722812Y-100016376D01*
X175573512Y-100046073D01*
X175548742Y-100051000D01*
X175371258Y-100051000D01*
X175346488Y-100046073D01*
X175197188Y-100016376D01*
X175033216Y-99948456D01*
X174885646Y-99849853D01*
X174760147Y-99724354D01*
X174661544Y-99576784D01*
X174593624Y-99412812D01*
X174559000Y-99238741D01*
X174559000Y-99061259D01*
X174593624Y-98887188D01*
X174661544Y-98723216D01*
X174760147Y-98575646D01*
X174885646Y-98450147D01*
X175033216Y-98351544D01*
X175197188Y-98283624D01*
X175346488Y-98253927D01*
X175371258Y-98249000D01*
X175548742Y-98249000D01*
X175573512Y-98253927D01*
G37*
G36*
X138248228Y-96491703D02*
G01*
X138403100Y-96555853D01*
X138542481Y-96648985D01*
X138661015Y-96767519D01*
X138754147Y-96906900D01*
X138818297Y-97061772D01*
X138851000Y-97226184D01*
X138851000Y-97393816D01*
X138818297Y-97558228D01*
X138754147Y-97713100D01*
X138661015Y-97852481D01*
X138542481Y-97971015D01*
X138403100Y-98064147D01*
X138248228Y-98128297D01*
X138083816Y-98161000D01*
X137916184Y-98161000D01*
X137751772Y-98128297D01*
X137596900Y-98064147D01*
X137457519Y-97971015D01*
X137338985Y-97852481D01*
X137245853Y-97713100D01*
X137181703Y-97558228D01*
X137149000Y-97393816D01*
X137149000Y-97226184D01*
X137181703Y-97061772D01*
X137245853Y-96906900D01*
X137338985Y-96767519D01*
X137457519Y-96648985D01*
X137596900Y-96555853D01*
X137751772Y-96491703D01*
X137916184Y-96459000D01*
X138083816Y-96459000D01*
X138248228Y-96491703D01*
G37*
G36*
X163248228Y-96491703D02*
G01*
X163403100Y-96555853D01*
X163542481Y-96648985D01*
X163661015Y-96767519D01*
X163754147Y-96906900D01*
X163818297Y-97061772D01*
X163851000Y-97226184D01*
X163851000Y-97393816D01*
X163818297Y-97558228D01*
X163754147Y-97713100D01*
X163661015Y-97852481D01*
X163542481Y-97971015D01*
X163403100Y-98064147D01*
X163248228Y-98128297D01*
X163083816Y-98161000D01*
X162916184Y-98161000D01*
X162751772Y-98128297D01*
X162596900Y-98064147D01*
X162457519Y-97971015D01*
X162338985Y-97852481D01*
X162245853Y-97713100D01*
X162181703Y-97558228D01*
X162149000Y-97393816D01*
X162149000Y-97226184D01*
X162181703Y-97061772D01*
X162245853Y-96906900D01*
X162338985Y-96767519D01*
X162457519Y-96648985D01*
X162596900Y-96555853D01*
X162751772Y-96491703D01*
X162916184Y-96459000D01*
X163083816Y-96459000D01*
X163248228Y-96491703D01*
G37*
G36*
X150748228Y-96491703D02*
G01*
X150903100Y-96555853D01*
X151042481Y-96648985D01*
X151161015Y-96767519D01*
X151254147Y-96906900D01*
X151318297Y-97061772D01*
X151351000Y-97226184D01*
X151351000Y-97393816D01*
X151318297Y-97558228D01*
X151254147Y-97713100D01*
X151161015Y-97852481D01*
X151042481Y-97971015D01*
X150903100Y-98064147D01*
X150748228Y-98128297D01*
X150583816Y-98161000D01*
X150416184Y-98161000D01*
X150251772Y-98128297D01*
X150096900Y-98064147D01*
X149957519Y-97971015D01*
X149838985Y-97852481D01*
X149745853Y-97713100D01*
X149681703Y-97558228D01*
X149649000Y-97393816D01*
X149649000Y-97226184D01*
X149681703Y-97061772D01*
X149745853Y-96906900D01*
X149838985Y-96767519D01*
X149957519Y-96648985D01*
X150096900Y-96555853D01*
X150251772Y-96491703D01*
X150416184Y-96459000D01*
X150583816Y-96459000D01*
X150748228Y-96491703D01*
G37*
G36*
X158368228Y-96491703D02*
G01*
X158523100Y-96555853D01*
X158662481Y-96648985D01*
X158781015Y-96767519D01*
X158874147Y-96906900D01*
X158938297Y-97061772D01*
X158971000Y-97226184D01*
X158971000Y-97393816D01*
X158938297Y-97558228D01*
X158874147Y-97713100D01*
X158781015Y-97852481D01*
X158662481Y-97971015D01*
X158523100Y-98064147D01*
X158368228Y-98128297D01*
X158203816Y-98161000D01*
X158036184Y-98161000D01*
X157871772Y-98128297D01*
X157716900Y-98064147D01*
X157577519Y-97971015D01*
X157458985Y-97852481D01*
X157365853Y-97713100D01*
X157301703Y-97558228D01*
X157269000Y-97393816D01*
X157269000Y-97226184D01*
X157301703Y-97061772D01*
X157365853Y-96906900D01*
X157458985Y-96767519D01*
X157577519Y-96648985D01*
X157716900Y-96555853D01*
X157871772Y-96491703D01*
X158036184Y-96459000D01*
X158203816Y-96459000D01*
X158368228Y-96491703D01*
G37*
G36*
X145868228Y-96491703D02*
G01*
X146023100Y-96555853D01*
X146162481Y-96648985D01*
X146281015Y-96767519D01*
X146374147Y-96906900D01*
X146438297Y-97061772D01*
X146471000Y-97226184D01*
X146471000Y-97393816D01*
X146438297Y-97558228D01*
X146374147Y-97713100D01*
X146281015Y-97852481D01*
X146162481Y-97971015D01*
X146023100Y-98064147D01*
X145868228Y-98128297D01*
X145703816Y-98161000D01*
X145536184Y-98161000D01*
X145371772Y-98128297D01*
X145216900Y-98064147D01*
X145077519Y-97971015D01*
X144958985Y-97852481D01*
X144865853Y-97713100D01*
X144801703Y-97558228D01*
X144769000Y-97393816D01*
X144769000Y-97226184D01*
X144801703Y-97061772D01*
X144865853Y-96906900D01*
X144958985Y-96767519D01*
X145077519Y-96648985D01*
X145216900Y-96555853D01*
X145371772Y-96491703D01*
X145536184Y-96459000D01*
X145703816Y-96459000D01*
X145868228Y-96491703D01*
G37*
G36*
X170868228Y-96491703D02*
G01*
X171023100Y-96555853D01*
X171162481Y-96648985D01*
X171281015Y-96767519D01*
X171374147Y-96906900D01*
X171438297Y-97061772D01*
X171471000Y-97226184D01*
X171471000Y-97393816D01*
X171438297Y-97558228D01*
X171374147Y-97713100D01*
X171281015Y-97852481D01*
X171162481Y-97971015D01*
X171023100Y-98064147D01*
X170868228Y-98128297D01*
X170703816Y-98161000D01*
X170536184Y-98161000D01*
X170371772Y-98128297D01*
X170216900Y-98064147D01*
X170077519Y-97971015D01*
X169958985Y-97852481D01*
X169865853Y-97713100D01*
X169801703Y-97558228D01*
X169769000Y-97393816D01*
X169769000Y-97226184D01*
X169801703Y-97061772D01*
X169865853Y-96906900D01*
X169958985Y-96767519D01*
X170077519Y-96648985D01*
X170216900Y-96555853D01*
X170371772Y-96491703D01*
X170536184Y-96459000D01*
X170703816Y-96459000D01*
X170868228Y-96491703D01*
G37*
G36*
X105326823Y-96461313D02*
G01*
X105487242Y-96509976D01*
X105619906Y-96580886D01*
X105635078Y-96588996D01*
X105764659Y-96695341D01*
X105871004Y-96824922D01*
X105871005Y-96824924D01*
X105950024Y-96972758D01*
X105998687Y-97133177D01*
X106015117Y-97300000D01*
X105998687Y-97466823D01*
X105950024Y-97627242D01*
X105909477Y-97703100D01*
X105871004Y-97775078D01*
X105764659Y-97904659D01*
X105635078Y-98011004D01*
X105635076Y-98011005D01*
X105487242Y-98090024D01*
X105326823Y-98138687D01*
X105201804Y-98151000D01*
X104318196Y-98151000D01*
X104193177Y-98138687D01*
X104032758Y-98090024D01*
X103884924Y-98011005D01*
X103884922Y-98011004D01*
X103755341Y-97904659D01*
X103648996Y-97775078D01*
X103610523Y-97703100D01*
X103569976Y-97627242D01*
X103521313Y-97466823D01*
X103504883Y-97300000D01*
X103521313Y-97133177D01*
X103569976Y-96972758D01*
X103648995Y-96824924D01*
X103648996Y-96824922D01*
X103755341Y-96695341D01*
X103884922Y-96588996D01*
X103900094Y-96580886D01*
X104032758Y-96509976D01*
X104193177Y-96461313D01*
X104318196Y-96449000D01*
X105201804Y-96449000D01*
X105326823Y-96461313D01*
G37*
G36*
X133448228Y-96481703D02*
G01*
X133603100Y-96545853D01*
X133742481Y-96638985D01*
X133861015Y-96757519D01*
X133954147Y-96896900D01*
X134018297Y-97051772D01*
X134051000Y-97216184D01*
X134051000Y-97383816D01*
X134018297Y-97548228D01*
X133954147Y-97703100D01*
X133861015Y-97842481D01*
X133742481Y-97961015D01*
X133603100Y-98054147D01*
X133448228Y-98118297D01*
X133283816Y-98151000D01*
X133116184Y-98151000D01*
X132951772Y-98118297D01*
X132796900Y-98054147D01*
X132657519Y-97961015D01*
X132538985Y-97842481D01*
X132445853Y-97703100D01*
X132381703Y-97548228D01*
X132349000Y-97383816D01*
X132349000Y-97216184D01*
X132381703Y-97051772D01*
X132445853Y-96896900D01*
X132538985Y-96757519D01*
X132657519Y-96638985D01*
X132796900Y-96545853D01*
X132951772Y-96481703D01*
X133116184Y-96449000D01*
X133283816Y-96449000D01*
X133448228Y-96481703D01*
G37*
G36*
X120566823Y-96461313D02*
G01*
X120727242Y-96509976D01*
X120859906Y-96580886D01*
X120875078Y-96588996D01*
X121004659Y-96695341D01*
X121111004Y-96824922D01*
X121111005Y-96824924D01*
X121190024Y-96972758D01*
X121238687Y-97133177D01*
X121255117Y-97300000D01*
X121238687Y-97466823D01*
X121190024Y-97627242D01*
X121149477Y-97703100D01*
X121111004Y-97775078D01*
X121004659Y-97904659D01*
X120875078Y-98011004D01*
X120875076Y-98011005D01*
X120727242Y-98090024D01*
X120566823Y-98138687D01*
X120441804Y-98151000D01*
X119558196Y-98151000D01*
X119433177Y-98138687D01*
X119272758Y-98090024D01*
X119124924Y-98011005D01*
X119124922Y-98011004D01*
X118995341Y-97904659D01*
X118888996Y-97775078D01*
X118850523Y-97703100D01*
X118809976Y-97627242D01*
X118761313Y-97466823D01*
X118744883Y-97300000D01*
X118761313Y-97133177D01*
X118809976Y-96972758D01*
X118888995Y-96824924D01*
X118888996Y-96824922D01*
X118995341Y-96695341D01*
X119124922Y-96588996D01*
X119140094Y-96580886D01*
X119272758Y-96509976D01*
X119433177Y-96461313D01*
X119558196Y-96449000D01*
X120441804Y-96449000D01*
X120566823Y-96461313D01*
G37*
G36*
X125828228Y-96481703D02*
G01*
X125983100Y-96545853D01*
X126122481Y-96638985D01*
X126241015Y-96757519D01*
X126334147Y-96896900D01*
X126398297Y-97051772D01*
X126431000Y-97216184D01*
X126431000Y-97383816D01*
X126398297Y-97548228D01*
X126334147Y-97703100D01*
X126241015Y-97842481D01*
X126122481Y-97961015D01*
X125983100Y-98054147D01*
X125828228Y-98118297D01*
X125663816Y-98151000D01*
X125496184Y-98151000D01*
X125331772Y-98118297D01*
X125176900Y-98054147D01*
X125037519Y-97961015D01*
X124918985Y-97842481D01*
X124825853Y-97703100D01*
X124761703Y-97548228D01*
X124729000Y-97383816D01*
X124729000Y-97216184D01*
X124761703Y-97051772D01*
X124825853Y-96896900D01*
X124918985Y-96757519D01*
X125037519Y-96638985D01*
X125176900Y-96545853D01*
X125331772Y-96481703D01*
X125496184Y-96449000D01*
X125663816Y-96449000D01*
X125828228Y-96481703D01*
G37*
G36*
X178113512Y-95713927D02*
G01*
X178262812Y-95743624D01*
X178426784Y-95811544D01*
X178574354Y-95910147D01*
X178699853Y-96035646D01*
X178798456Y-96183216D01*
X178866376Y-96347188D01*
X178901000Y-96521259D01*
X178901000Y-96698741D01*
X178866376Y-96872812D01*
X178798456Y-97036784D01*
X178699853Y-97184354D01*
X178574354Y-97309853D01*
X178426784Y-97408456D01*
X178262812Y-97476376D01*
X178113512Y-97506073D01*
X178088742Y-97511000D01*
X177911258Y-97511000D01*
X177886488Y-97506073D01*
X177737188Y-97476376D01*
X177573216Y-97408456D01*
X177425646Y-97309853D01*
X177300147Y-97184354D01*
X177201544Y-97036784D01*
X177133624Y-96872812D01*
X177099000Y-96698741D01*
X177099000Y-96521259D01*
X177133624Y-96347188D01*
X177201544Y-96183216D01*
X177300147Y-96035646D01*
X177425646Y-95910147D01*
X177573216Y-95811544D01*
X177737188Y-95743624D01*
X177886488Y-95713927D01*
X177911258Y-95709000D01*
X178088742Y-95709000D01*
X178113512Y-95713927D01*
G37*
G36*
X175573512Y-95713927D02*
G01*
X175722812Y-95743624D01*
X175886784Y-95811544D01*
X176034354Y-95910147D01*
X176159853Y-96035646D01*
X176258456Y-96183216D01*
X176326376Y-96347188D01*
X176361000Y-96521259D01*
X176361000Y-96698741D01*
X176326376Y-96872812D01*
X176258456Y-97036784D01*
X176159853Y-97184354D01*
X176034354Y-97309853D01*
X175886784Y-97408456D01*
X175722812Y-97476376D01*
X175573512Y-97506073D01*
X175548742Y-97511000D01*
X175371258Y-97511000D01*
X175346488Y-97506073D01*
X175197188Y-97476376D01*
X175033216Y-97408456D01*
X174885646Y-97309853D01*
X174760147Y-97184354D01*
X174661544Y-97036784D01*
X174593624Y-96872812D01*
X174559000Y-96698741D01*
X174559000Y-96521259D01*
X174593624Y-96347188D01*
X174661544Y-96183216D01*
X174760147Y-96035646D01*
X174885646Y-95910147D01*
X175033216Y-95811544D01*
X175197188Y-95743624D01*
X175346488Y-95713927D01*
X175371258Y-95709000D01*
X175548742Y-95709000D01*
X175573512Y-95713927D01*
G37*
G36*
X158368228Y-93951703D02*
G01*
X158523100Y-94015853D01*
X158662481Y-94108985D01*
X158781015Y-94227519D01*
X158874147Y-94366900D01*
X158938297Y-94521772D01*
X158971000Y-94686184D01*
X158971000Y-94853816D01*
X158938297Y-95018228D01*
X158874147Y-95173100D01*
X158781015Y-95312481D01*
X158662481Y-95431015D01*
X158523100Y-95524147D01*
X158368228Y-95588297D01*
X158203816Y-95621000D01*
X158036184Y-95621000D01*
X157871772Y-95588297D01*
X157716900Y-95524147D01*
X157577519Y-95431015D01*
X157458985Y-95312481D01*
X157365853Y-95173100D01*
X157301703Y-95018228D01*
X157269000Y-94853816D01*
X157269000Y-94686184D01*
X157301703Y-94521772D01*
X157365853Y-94366900D01*
X157458985Y-94227519D01*
X157577519Y-94108985D01*
X157716900Y-94015853D01*
X157871772Y-93951703D01*
X158036184Y-93919000D01*
X158203816Y-93919000D01*
X158368228Y-93951703D01*
G37*
G36*
X138248228Y-93951703D02*
G01*
X138403100Y-94015853D01*
X138542481Y-94108985D01*
X138661015Y-94227519D01*
X138754147Y-94366900D01*
X138818297Y-94521772D01*
X138851000Y-94686184D01*
X138851000Y-94853816D01*
X138818297Y-95018228D01*
X138754147Y-95173100D01*
X138661015Y-95312481D01*
X138542481Y-95431015D01*
X138403100Y-95524147D01*
X138248228Y-95588297D01*
X138083816Y-95621000D01*
X137916184Y-95621000D01*
X137751772Y-95588297D01*
X137596900Y-95524147D01*
X137457519Y-95431015D01*
X137338985Y-95312481D01*
X137245853Y-95173100D01*
X137181703Y-95018228D01*
X137149000Y-94853816D01*
X137149000Y-94686184D01*
X137181703Y-94521772D01*
X137245853Y-94366900D01*
X137338985Y-94227519D01*
X137457519Y-94108985D01*
X137596900Y-94015853D01*
X137751772Y-93951703D01*
X137916184Y-93919000D01*
X138083816Y-93919000D01*
X138248228Y-93951703D01*
G37*
G36*
X145868228Y-93951703D02*
G01*
X146023100Y-94015853D01*
X146162481Y-94108985D01*
X146281015Y-94227519D01*
X146374147Y-94366900D01*
X146438297Y-94521772D01*
X146471000Y-94686184D01*
X146471000Y-94853816D01*
X146438297Y-95018228D01*
X146374147Y-95173100D01*
X146281015Y-95312481D01*
X146162481Y-95431015D01*
X146023100Y-95524147D01*
X145868228Y-95588297D01*
X145703816Y-95621000D01*
X145536184Y-95621000D01*
X145371772Y-95588297D01*
X145216900Y-95524147D01*
X145077519Y-95431015D01*
X144958985Y-95312481D01*
X144865853Y-95173100D01*
X144801703Y-95018228D01*
X144769000Y-94853816D01*
X144769000Y-94686184D01*
X144801703Y-94521772D01*
X144865853Y-94366900D01*
X144958985Y-94227519D01*
X145077519Y-94108985D01*
X145216900Y-94015853D01*
X145371772Y-93951703D01*
X145536184Y-93919000D01*
X145703816Y-93919000D01*
X145868228Y-93951703D01*
G37*
G36*
X163248228Y-93951703D02*
G01*
X163403100Y-94015853D01*
X163542481Y-94108985D01*
X163661015Y-94227519D01*
X163754147Y-94366900D01*
X163818297Y-94521772D01*
X163851000Y-94686184D01*
X163851000Y-94853816D01*
X163818297Y-95018228D01*
X163754147Y-95173100D01*
X163661015Y-95312481D01*
X163542481Y-95431015D01*
X163403100Y-95524147D01*
X163248228Y-95588297D01*
X163083816Y-95621000D01*
X162916184Y-95621000D01*
X162751772Y-95588297D01*
X162596900Y-95524147D01*
X162457519Y-95431015D01*
X162338985Y-95312481D01*
X162245853Y-95173100D01*
X162181703Y-95018228D01*
X162149000Y-94853816D01*
X162149000Y-94686184D01*
X162181703Y-94521772D01*
X162245853Y-94366900D01*
X162338985Y-94227519D01*
X162457519Y-94108985D01*
X162596900Y-94015853D01*
X162751772Y-93951703D01*
X162916184Y-93919000D01*
X163083816Y-93919000D01*
X163248228Y-93951703D01*
G37*
G36*
X170868228Y-93951703D02*
G01*
X171023100Y-94015853D01*
X171162481Y-94108985D01*
X171281015Y-94227519D01*
X171374147Y-94366900D01*
X171438297Y-94521772D01*
X171471000Y-94686184D01*
X171471000Y-94853816D01*
X171438297Y-95018228D01*
X171374147Y-95173100D01*
X171281015Y-95312481D01*
X171162481Y-95431015D01*
X171023100Y-95524147D01*
X170868228Y-95588297D01*
X170703816Y-95621000D01*
X170536184Y-95621000D01*
X170371772Y-95588297D01*
X170216900Y-95524147D01*
X170077519Y-95431015D01*
X169958985Y-95312481D01*
X169865853Y-95173100D01*
X169801703Y-95018228D01*
X169769000Y-94853816D01*
X169769000Y-94686184D01*
X169801703Y-94521772D01*
X169865853Y-94366900D01*
X169958985Y-94227519D01*
X170077519Y-94108985D01*
X170216900Y-94015853D01*
X170371772Y-93951703D01*
X170536184Y-93919000D01*
X170703816Y-93919000D01*
X170868228Y-93951703D01*
G37*
G36*
X150748228Y-93951703D02*
G01*
X150903100Y-94015853D01*
X151042481Y-94108985D01*
X151161015Y-94227519D01*
X151254147Y-94366900D01*
X151318297Y-94521772D01*
X151351000Y-94686184D01*
X151351000Y-94853816D01*
X151318297Y-95018228D01*
X151254147Y-95173100D01*
X151161015Y-95312481D01*
X151042481Y-95431015D01*
X150903100Y-95524147D01*
X150748228Y-95588297D01*
X150583816Y-95621000D01*
X150416184Y-95621000D01*
X150251772Y-95588297D01*
X150096900Y-95524147D01*
X149957519Y-95431015D01*
X149838985Y-95312481D01*
X149745853Y-95173100D01*
X149681703Y-95018228D01*
X149649000Y-94853816D01*
X149649000Y-94686184D01*
X149681703Y-94521772D01*
X149745853Y-94366900D01*
X149838985Y-94227519D01*
X149957519Y-94108985D01*
X150096900Y-94015853D01*
X150251772Y-93951703D01*
X150416184Y-93919000D01*
X150583816Y-93919000D01*
X150748228Y-93951703D01*
G37*
G36*
X133448228Y-93941703D02*
G01*
X133603100Y-94005853D01*
X133742481Y-94098985D01*
X133861015Y-94217519D01*
X133954147Y-94356900D01*
X134018297Y-94511772D01*
X134051000Y-94676184D01*
X134051000Y-94843816D01*
X134018297Y-95008228D01*
X133954147Y-95163100D01*
X133861015Y-95302481D01*
X133742481Y-95421015D01*
X133603100Y-95514147D01*
X133448228Y-95578297D01*
X133283816Y-95611000D01*
X133116184Y-95611000D01*
X132951772Y-95578297D01*
X132796900Y-95514147D01*
X132657519Y-95421015D01*
X132538985Y-95302481D01*
X132445853Y-95163100D01*
X132381703Y-95008228D01*
X132349000Y-94843816D01*
X132349000Y-94676184D01*
X132381703Y-94511772D01*
X132445853Y-94356900D01*
X132538985Y-94217519D01*
X132657519Y-94098985D01*
X132796900Y-94005853D01*
X132951772Y-93941703D01*
X133116184Y-93909000D01*
X133283816Y-93909000D01*
X133448228Y-93941703D01*
G37*
G36*
X120566823Y-93921313D02*
G01*
X120727242Y-93969976D01*
X120859906Y-94040886D01*
X120875078Y-94048996D01*
X121004659Y-94155341D01*
X121111004Y-94284922D01*
X121111005Y-94284924D01*
X121190024Y-94432758D01*
X121238687Y-94593177D01*
X121255117Y-94760000D01*
X121238687Y-94926823D01*
X121190024Y-95087242D01*
X121149477Y-95163100D01*
X121111004Y-95235078D01*
X121004659Y-95364659D01*
X120875078Y-95471004D01*
X120875076Y-95471005D01*
X120727242Y-95550024D01*
X120566823Y-95598687D01*
X120441804Y-95611000D01*
X119558196Y-95611000D01*
X119433177Y-95598687D01*
X119272758Y-95550024D01*
X119124924Y-95471005D01*
X119124922Y-95471004D01*
X118995341Y-95364659D01*
X118888996Y-95235078D01*
X118850523Y-95163100D01*
X118809976Y-95087242D01*
X118761313Y-94926823D01*
X118744883Y-94760000D01*
X118761313Y-94593177D01*
X118809976Y-94432758D01*
X118888995Y-94284924D01*
X118888996Y-94284922D01*
X118995341Y-94155341D01*
X119124922Y-94048996D01*
X119140094Y-94040886D01*
X119272758Y-93969976D01*
X119433177Y-93921313D01*
X119558196Y-93909000D01*
X120441804Y-93909000D01*
X120566823Y-93921313D01*
G37*
G36*
X125828228Y-93941703D02*
G01*
X125983100Y-94005853D01*
X126122481Y-94098985D01*
X126241015Y-94217519D01*
X126334147Y-94356900D01*
X126398297Y-94511772D01*
X126431000Y-94676184D01*
X126431000Y-94843816D01*
X126398297Y-95008228D01*
X126334147Y-95163100D01*
X126241015Y-95302481D01*
X126122481Y-95421015D01*
X125983100Y-95514147D01*
X125828228Y-95578297D01*
X125663816Y-95611000D01*
X125496184Y-95611000D01*
X125331772Y-95578297D01*
X125176900Y-95514147D01*
X125037519Y-95421015D01*
X124918985Y-95302481D01*
X124825853Y-95163100D01*
X124761703Y-95008228D01*
X124729000Y-94843816D01*
X124729000Y-94676184D01*
X124761703Y-94511772D01*
X124825853Y-94356900D01*
X124918985Y-94217519D01*
X125037519Y-94098985D01*
X125176900Y-94005853D01*
X125331772Y-93941703D01*
X125496184Y-93909000D01*
X125663816Y-93909000D01*
X125828228Y-93941703D01*
G37*
G36*
X105326823Y-93921313D02*
G01*
X105487242Y-93969976D01*
X105619906Y-94040886D01*
X105635078Y-94048996D01*
X105764659Y-94155341D01*
X105871004Y-94284922D01*
X105871005Y-94284924D01*
X105950024Y-94432758D01*
X105998687Y-94593177D01*
X106015117Y-94760000D01*
X105998687Y-94926823D01*
X105950024Y-95087242D01*
X105909477Y-95163100D01*
X105871004Y-95235078D01*
X105764659Y-95364659D01*
X105635078Y-95471004D01*
X105635076Y-95471005D01*
X105487242Y-95550024D01*
X105326823Y-95598687D01*
X105201804Y-95611000D01*
X104318196Y-95611000D01*
X104193177Y-95598687D01*
X104032758Y-95550024D01*
X103884924Y-95471005D01*
X103884922Y-95471004D01*
X103755341Y-95364659D01*
X103648996Y-95235078D01*
X103610523Y-95163100D01*
X103569976Y-95087242D01*
X103521313Y-94926823D01*
X103504883Y-94760000D01*
X103521313Y-94593177D01*
X103569976Y-94432758D01*
X103648995Y-94284924D01*
X103648996Y-94284922D01*
X103755341Y-94155341D01*
X103884922Y-94048996D01*
X103900094Y-94040886D01*
X104032758Y-93969976D01*
X104193177Y-93921313D01*
X104318196Y-93909000D01*
X105201804Y-93909000D01*
X105326823Y-93921313D01*
G37*
G36*
X178113512Y-93173927D02*
G01*
X178262812Y-93203624D01*
X178426784Y-93271544D01*
X178574354Y-93370147D01*
X178699853Y-93495646D01*
X178798456Y-93643216D01*
X178866376Y-93807188D01*
X178901000Y-93981259D01*
X178901000Y-94158741D01*
X178866376Y-94332812D01*
X178798456Y-94496784D01*
X178699853Y-94644354D01*
X178574354Y-94769853D01*
X178426784Y-94868456D01*
X178262812Y-94936376D01*
X178113512Y-94966073D01*
X178088742Y-94971000D01*
X177911258Y-94971000D01*
X177886488Y-94966073D01*
X177737188Y-94936376D01*
X177573216Y-94868456D01*
X177425646Y-94769853D01*
X177300147Y-94644354D01*
X177201544Y-94496784D01*
X177133624Y-94332812D01*
X177099000Y-94158741D01*
X177099000Y-93981259D01*
X177133624Y-93807188D01*
X177201544Y-93643216D01*
X177300147Y-93495646D01*
X177425646Y-93370147D01*
X177573216Y-93271544D01*
X177737188Y-93203624D01*
X177886488Y-93173927D01*
X177911258Y-93169000D01*
X178088742Y-93169000D01*
X178113512Y-93173927D01*
G37*
G36*
X175573512Y-93173927D02*
G01*
X175722812Y-93203624D01*
X175886784Y-93271544D01*
X176034354Y-93370147D01*
X176159853Y-93495646D01*
X176258456Y-93643216D01*
X176326376Y-93807188D01*
X176361000Y-93981259D01*
X176361000Y-94158741D01*
X176326376Y-94332812D01*
X176258456Y-94496784D01*
X176159853Y-94644354D01*
X176034354Y-94769853D01*
X175886784Y-94868456D01*
X175722812Y-94936376D01*
X175573512Y-94966073D01*
X175548742Y-94971000D01*
X175371258Y-94971000D01*
X175346488Y-94966073D01*
X175197188Y-94936376D01*
X175033216Y-94868456D01*
X174885646Y-94769853D01*
X174760147Y-94644354D01*
X174661544Y-94496784D01*
X174593624Y-94332812D01*
X174559000Y-94158741D01*
X174559000Y-93981259D01*
X174593624Y-93807188D01*
X174661544Y-93643216D01*
X174760147Y-93495646D01*
X174885646Y-93370147D01*
X175033216Y-93271544D01*
X175197188Y-93203624D01*
X175346488Y-93173927D01*
X175371258Y-93169000D01*
X175548742Y-93169000D01*
X175573512Y-93173927D01*
G37*
G36*
X150748228Y-91411703D02*
G01*
X150903100Y-91475853D01*
X151042481Y-91568985D01*
X151161015Y-91687519D01*
X151254147Y-91826900D01*
X151318297Y-91981772D01*
X151351000Y-92146184D01*
X151351000Y-92313816D01*
X151318297Y-92478228D01*
X151254147Y-92633100D01*
X151161015Y-92772481D01*
X151042481Y-92891015D01*
X150903100Y-92984147D01*
X150748228Y-93048297D01*
X150583816Y-93081000D01*
X150416184Y-93081000D01*
X150251772Y-93048297D01*
X150096900Y-92984147D01*
X149957519Y-92891015D01*
X149838985Y-92772481D01*
X149745853Y-92633100D01*
X149681703Y-92478228D01*
X149649000Y-92313816D01*
X149649000Y-92146184D01*
X149681703Y-91981772D01*
X149745853Y-91826900D01*
X149838985Y-91687519D01*
X149957519Y-91568985D01*
X150096900Y-91475853D01*
X150251772Y-91411703D01*
X150416184Y-91379000D01*
X150583816Y-91379000D01*
X150748228Y-91411703D01*
G37*
G36*
X158368228Y-91411703D02*
G01*
X158523100Y-91475853D01*
X158662481Y-91568985D01*
X158781015Y-91687519D01*
X158874147Y-91826900D01*
X158938297Y-91981772D01*
X158971000Y-92146184D01*
X158971000Y-92313816D01*
X158938297Y-92478228D01*
X158874147Y-92633100D01*
X158781015Y-92772481D01*
X158662481Y-92891015D01*
X158523100Y-92984147D01*
X158368228Y-93048297D01*
X158203816Y-93081000D01*
X158036184Y-93081000D01*
X157871772Y-93048297D01*
X157716900Y-92984147D01*
X157577519Y-92891015D01*
X157458985Y-92772481D01*
X157365853Y-92633100D01*
X157301703Y-92478228D01*
X157269000Y-92313816D01*
X157269000Y-92146184D01*
X157301703Y-91981772D01*
X157365853Y-91826900D01*
X157458985Y-91687519D01*
X157577519Y-91568985D01*
X157716900Y-91475853D01*
X157871772Y-91411703D01*
X158036184Y-91379000D01*
X158203816Y-91379000D01*
X158368228Y-91411703D01*
G37*
G36*
X145868228Y-91411703D02*
G01*
X146023100Y-91475853D01*
X146162481Y-91568985D01*
X146281015Y-91687519D01*
X146374147Y-91826900D01*
X146438297Y-91981772D01*
X146471000Y-92146184D01*
X146471000Y-92313816D01*
X146438297Y-92478228D01*
X146374147Y-92633100D01*
X146281015Y-92772481D01*
X146162481Y-92891015D01*
X146023100Y-92984147D01*
X145868228Y-93048297D01*
X145703816Y-93081000D01*
X145536184Y-93081000D01*
X145371772Y-93048297D01*
X145216900Y-92984147D01*
X145077519Y-92891015D01*
X144958985Y-92772481D01*
X144865853Y-92633100D01*
X144801703Y-92478228D01*
X144769000Y-92313816D01*
X144769000Y-92146184D01*
X144801703Y-91981772D01*
X144865853Y-91826900D01*
X144958985Y-91687519D01*
X145077519Y-91568985D01*
X145216900Y-91475853D01*
X145371772Y-91411703D01*
X145536184Y-91379000D01*
X145703816Y-91379000D01*
X145868228Y-91411703D01*
G37*
G36*
X163248228Y-91411703D02*
G01*
X163403100Y-91475853D01*
X163542481Y-91568985D01*
X163661015Y-91687519D01*
X163754147Y-91826900D01*
X163818297Y-91981772D01*
X163851000Y-92146184D01*
X163851000Y-92313816D01*
X163818297Y-92478228D01*
X163754147Y-92633100D01*
X163661015Y-92772481D01*
X163542481Y-92891015D01*
X163403100Y-92984147D01*
X163248228Y-93048297D01*
X163083816Y-93081000D01*
X162916184Y-93081000D01*
X162751772Y-93048297D01*
X162596900Y-92984147D01*
X162457519Y-92891015D01*
X162338985Y-92772481D01*
X162245853Y-92633100D01*
X162181703Y-92478228D01*
X162149000Y-92313816D01*
X162149000Y-92146184D01*
X162181703Y-91981772D01*
X162245853Y-91826900D01*
X162338985Y-91687519D01*
X162457519Y-91568985D01*
X162596900Y-91475853D01*
X162751772Y-91411703D01*
X162916184Y-91379000D01*
X163083816Y-91379000D01*
X163248228Y-91411703D01*
G37*
G36*
X170868228Y-91411703D02*
G01*
X171023100Y-91475853D01*
X171162481Y-91568985D01*
X171281015Y-91687519D01*
X171374147Y-91826900D01*
X171438297Y-91981772D01*
X171471000Y-92146184D01*
X171471000Y-92313816D01*
X171438297Y-92478228D01*
X171374147Y-92633100D01*
X171281015Y-92772481D01*
X171162481Y-92891015D01*
X171023100Y-92984147D01*
X170868228Y-93048297D01*
X170703816Y-93081000D01*
X170536184Y-93081000D01*
X170371772Y-93048297D01*
X170216900Y-92984147D01*
X170077519Y-92891015D01*
X169958985Y-92772481D01*
X169865853Y-92633100D01*
X169801703Y-92478228D01*
X169769000Y-92313816D01*
X169769000Y-92146184D01*
X169801703Y-91981772D01*
X169865853Y-91826900D01*
X169958985Y-91687519D01*
X170077519Y-91568985D01*
X170216900Y-91475853D01*
X170371772Y-91411703D01*
X170536184Y-91379000D01*
X170703816Y-91379000D01*
X170868228Y-91411703D01*
G37*
G36*
X138248228Y-91411703D02*
G01*
X138403100Y-91475853D01*
X138542481Y-91568985D01*
X138661015Y-91687519D01*
X138754147Y-91826900D01*
X138818297Y-91981772D01*
X138851000Y-92146184D01*
X138851000Y-92313816D01*
X138818297Y-92478228D01*
X138754147Y-92633100D01*
X138661015Y-92772481D01*
X138542481Y-92891015D01*
X138403100Y-92984147D01*
X138248228Y-93048297D01*
X138083816Y-93081000D01*
X137916184Y-93081000D01*
X137751772Y-93048297D01*
X137596900Y-92984147D01*
X137457519Y-92891015D01*
X137338985Y-92772481D01*
X137245853Y-92633100D01*
X137181703Y-92478228D01*
X137149000Y-92313816D01*
X137149000Y-92146184D01*
X137181703Y-91981772D01*
X137245853Y-91826900D01*
X137338985Y-91687519D01*
X137457519Y-91568985D01*
X137596900Y-91475853D01*
X137751772Y-91411703D01*
X137916184Y-91379000D01*
X138083816Y-91379000D01*
X138248228Y-91411703D01*
G37*
G36*
X133448228Y-91401703D02*
G01*
X133603100Y-91465853D01*
X133742481Y-91558985D01*
X133861015Y-91677519D01*
X133954147Y-91816900D01*
X134018297Y-91971772D01*
X134051000Y-92136184D01*
X134051000Y-92303816D01*
X134018297Y-92468228D01*
X133954147Y-92623100D01*
X133861015Y-92762481D01*
X133742481Y-92881015D01*
X133603100Y-92974147D01*
X133448228Y-93038297D01*
X133283816Y-93071000D01*
X133116184Y-93071000D01*
X132951772Y-93038297D01*
X132796900Y-92974147D01*
X132657519Y-92881015D01*
X132538985Y-92762481D01*
X132445853Y-92623100D01*
X132381703Y-92468228D01*
X132349000Y-92303816D01*
X132349000Y-92136184D01*
X132381703Y-91971772D01*
X132445853Y-91816900D01*
X132538985Y-91677519D01*
X132657519Y-91558985D01*
X132796900Y-91465853D01*
X132951772Y-91401703D01*
X133116184Y-91369000D01*
X133283816Y-91369000D01*
X133448228Y-91401703D01*
G37*
G36*
X105326823Y-91381313D02*
G01*
X105487242Y-91429976D01*
X105619906Y-91500886D01*
X105635078Y-91508996D01*
X105764659Y-91615341D01*
X105871004Y-91744922D01*
X105871005Y-91744924D01*
X105950024Y-91892758D01*
X105998687Y-92053177D01*
X106015117Y-92220000D01*
X105998687Y-92386823D01*
X105950024Y-92547242D01*
X105909477Y-92623100D01*
X105871004Y-92695078D01*
X105764659Y-92824659D01*
X105635078Y-92931004D01*
X105635076Y-92931005D01*
X105487242Y-93010024D01*
X105326823Y-93058687D01*
X105201804Y-93071000D01*
X104318196Y-93071000D01*
X104193177Y-93058687D01*
X104032758Y-93010024D01*
X103884924Y-92931005D01*
X103884922Y-92931004D01*
X103755341Y-92824659D01*
X103648996Y-92695078D01*
X103610523Y-92623100D01*
X103569976Y-92547242D01*
X103521313Y-92386823D01*
X103504883Y-92220000D01*
X103521313Y-92053177D01*
X103569976Y-91892758D01*
X103648995Y-91744924D01*
X103648996Y-91744922D01*
X103755341Y-91615341D01*
X103884922Y-91508996D01*
X103900094Y-91500886D01*
X104032758Y-91429976D01*
X104193177Y-91381313D01*
X104318196Y-91369000D01*
X105201804Y-91369000D01*
X105326823Y-91381313D01*
G37*
G36*
X125828228Y-91401703D02*
G01*
X125983100Y-91465853D01*
X126122481Y-91558985D01*
X126241015Y-91677519D01*
X126334147Y-91816900D01*
X126398297Y-91971772D01*
X126431000Y-92136184D01*
X126431000Y-92303816D01*
X126398297Y-92468228D01*
X126334147Y-92623100D01*
X126241015Y-92762481D01*
X126122481Y-92881015D01*
X125983100Y-92974147D01*
X125828228Y-93038297D01*
X125663816Y-93071000D01*
X125496184Y-93071000D01*
X125331772Y-93038297D01*
X125176900Y-92974147D01*
X125037519Y-92881015D01*
X124918985Y-92762481D01*
X124825853Y-92623100D01*
X124761703Y-92468228D01*
X124729000Y-92303816D01*
X124729000Y-92136184D01*
X124761703Y-91971772D01*
X124825853Y-91816900D01*
X124918985Y-91677519D01*
X125037519Y-91558985D01*
X125176900Y-91465853D01*
X125331772Y-91401703D01*
X125496184Y-91369000D01*
X125663816Y-91369000D01*
X125828228Y-91401703D01*
G37*
G36*
X120566823Y-91381313D02*
G01*
X120727242Y-91429976D01*
X120859906Y-91500886D01*
X120875078Y-91508996D01*
X121004659Y-91615341D01*
X121111004Y-91744922D01*
X121111005Y-91744924D01*
X121190024Y-91892758D01*
X121238687Y-92053177D01*
X121255117Y-92220000D01*
X121238687Y-92386823D01*
X121190024Y-92547242D01*
X121149477Y-92623100D01*
X121111004Y-92695078D01*
X121004659Y-92824659D01*
X120875078Y-92931004D01*
X120875076Y-92931005D01*
X120727242Y-93010024D01*
X120566823Y-93058687D01*
X120441804Y-93071000D01*
X119558196Y-93071000D01*
X119433177Y-93058687D01*
X119272758Y-93010024D01*
X119124924Y-92931005D01*
X119124922Y-92931004D01*
X118995341Y-92824659D01*
X118888996Y-92695078D01*
X118850523Y-92623100D01*
X118809976Y-92547242D01*
X118761313Y-92386823D01*
X118744883Y-92220000D01*
X118761313Y-92053177D01*
X118809976Y-91892758D01*
X118888995Y-91744924D01*
X118888996Y-91744922D01*
X118995341Y-91615341D01*
X119124922Y-91508996D01*
X119140094Y-91500886D01*
X119272758Y-91429976D01*
X119433177Y-91381313D01*
X119558196Y-91369000D01*
X120441804Y-91369000D01*
X120566823Y-91381313D01*
G37*
G36*
X175573512Y-90633927D02*
G01*
X175722812Y-90663624D01*
X175886784Y-90731544D01*
X176034354Y-90830147D01*
X176159853Y-90955646D01*
X176258456Y-91103216D01*
X176326376Y-91267188D01*
X176361000Y-91441259D01*
X176361000Y-91618741D01*
X176326376Y-91792812D01*
X176258456Y-91956784D01*
X176159853Y-92104354D01*
X176034354Y-92229853D01*
X175886784Y-92328456D01*
X175722812Y-92396376D01*
X175573512Y-92426073D01*
X175548742Y-92431000D01*
X175371258Y-92431000D01*
X175346488Y-92426073D01*
X175197188Y-92396376D01*
X175033216Y-92328456D01*
X174885646Y-92229853D01*
X174760147Y-92104354D01*
X174661544Y-91956784D01*
X174593624Y-91792812D01*
X174559000Y-91618741D01*
X174559000Y-91441259D01*
X174593624Y-91267188D01*
X174661544Y-91103216D01*
X174760147Y-90955646D01*
X174885646Y-90830147D01*
X175033216Y-90731544D01*
X175197188Y-90663624D01*
X175346488Y-90633927D01*
X175371258Y-90629000D01*
X175548742Y-90629000D01*
X175573512Y-90633927D01*
G37*
G36*
X178113512Y-90633927D02*
G01*
X178262812Y-90663624D01*
X178426784Y-90731544D01*
X178574354Y-90830147D01*
X178699853Y-90955646D01*
X178798456Y-91103216D01*
X178866376Y-91267188D01*
X178901000Y-91441259D01*
X178901000Y-91618741D01*
X178866376Y-91792812D01*
X178798456Y-91956784D01*
X178699853Y-92104354D01*
X178574354Y-92229853D01*
X178426784Y-92328456D01*
X178262812Y-92396376D01*
X178113512Y-92426073D01*
X178088742Y-92431000D01*
X177911258Y-92431000D01*
X177886488Y-92426073D01*
X177737188Y-92396376D01*
X177573216Y-92328456D01*
X177425646Y-92229853D01*
X177300147Y-92104354D01*
X177201544Y-91956784D01*
X177133624Y-91792812D01*
X177099000Y-91618741D01*
X177099000Y-91441259D01*
X177133624Y-91267188D01*
X177201544Y-91103216D01*
X177300147Y-90955646D01*
X177425646Y-90830147D01*
X177573216Y-90731544D01*
X177737188Y-90663624D01*
X177886488Y-90633927D01*
X177911258Y-90629000D01*
X178088742Y-90629000D01*
X178113512Y-90633927D01*
G37*
G36*
X158368228Y-88871703D02*
G01*
X158523100Y-88935853D01*
X158662481Y-89028985D01*
X158781015Y-89147519D01*
X158874147Y-89286900D01*
X158938297Y-89441772D01*
X158971000Y-89606184D01*
X158971000Y-89773816D01*
X158938297Y-89938228D01*
X158874147Y-90093100D01*
X158781015Y-90232481D01*
X158662481Y-90351015D01*
X158523100Y-90444147D01*
X158368228Y-90508297D01*
X158203816Y-90541000D01*
X158036184Y-90541000D01*
X157871772Y-90508297D01*
X157716900Y-90444147D01*
X157577519Y-90351015D01*
X157458985Y-90232481D01*
X157365853Y-90093100D01*
X157301703Y-89938228D01*
X157269000Y-89773816D01*
X157269000Y-89606184D01*
X157301703Y-89441772D01*
X157365853Y-89286900D01*
X157458985Y-89147519D01*
X157577519Y-89028985D01*
X157716900Y-88935853D01*
X157871772Y-88871703D01*
X158036184Y-88839000D01*
X158203816Y-88839000D01*
X158368228Y-88871703D01*
G37*
G36*
X150748228Y-88871703D02*
G01*
X150903100Y-88935853D01*
X151042481Y-89028985D01*
X151161015Y-89147519D01*
X151254147Y-89286900D01*
X151318297Y-89441772D01*
X151351000Y-89606184D01*
X151351000Y-89773816D01*
X151318297Y-89938228D01*
X151254147Y-90093100D01*
X151161015Y-90232481D01*
X151042481Y-90351015D01*
X150903100Y-90444147D01*
X150748228Y-90508297D01*
X150583816Y-90541000D01*
X150416184Y-90541000D01*
X150251772Y-90508297D01*
X150096900Y-90444147D01*
X149957519Y-90351015D01*
X149838985Y-90232481D01*
X149745853Y-90093100D01*
X149681703Y-89938228D01*
X149649000Y-89773816D01*
X149649000Y-89606184D01*
X149681703Y-89441772D01*
X149745853Y-89286900D01*
X149838985Y-89147519D01*
X149957519Y-89028985D01*
X150096900Y-88935853D01*
X150251772Y-88871703D01*
X150416184Y-88839000D01*
X150583816Y-88839000D01*
X150748228Y-88871703D01*
G37*
G36*
X170868228Y-88871703D02*
G01*
X171023100Y-88935853D01*
X171162481Y-89028985D01*
X171281015Y-89147519D01*
X171374147Y-89286900D01*
X171438297Y-89441772D01*
X171471000Y-89606184D01*
X171471000Y-89773816D01*
X171438297Y-89938228D01*
X171374147Y-90093100D01*
X171281015Y-90232481D01*
X171162481Y-90351015D01*
X171023100Y-90444147D01*
X170868228Y-90508297D01*
X170703816Y-90541000D01*
X170536184Y-90541000D01*
X170371772Y-90508297D01*
X170216900Y-90444147D01*
X170077519Y-90351015D01*
X169958985Y-90232481D01*
X169865853Y-90093100D01*
X169801703Y-89938228D01*
X169769000Y-89773816D01*
X169769000Y-89606184D01*
X169801703Y-89441772D01*
X169865853Y-89286900D01*
X169958985Y-89147519D01*
X170077519Y-89028985D01*
X170216900Y-88935853D01*
X170371772Y-88871703D01*
X170536184Y-88839000D01*
X170703816Y-88839000D01*
X170868228Y-88871703D01*
G37*
G36*
X163248228Y-88871703D02*
G01*
X163403100Y-88935853D01*
X163542481Y-89028985D01*
X163661015Y-89147519D01*
X163754147Y-89286900D01*
X163818297Y-89441772D01*
X163851000Y-89606184D01*
X163851000Y-89773816D01*
X163818297Y-89938228D01*
X163754147Y-90093100D01*
X163661015Y-90232481D01*
X163542481Y-90351015D01*
X163403100Y-90444147D01*
X163248228Y-90508297D01*
X163083816Y-90541000D01*
X162916184Y-90541000D01*
X162751772Y-90508297D01*
X162596900Y-90444147D01*
X162457519Y-90351015D01*
X162338985Y-90232481D01*
X162245853Y-90093100D01*
X162181703Y-89938228D01*
X162149000Y-89773816D01*
X162149000Y-89606184D01*
X162181703Y-89441772D01*
X162245853Y-89286900D01*
X162338985Y-89147519D01*
X162457519Y-89028985D01*
X162596900Y-88935853D01*
X162751772Y-88871703D01*
X162916184Y-88839000D01*
X163083816Y-88839000D01*
X163248228Y-88871703D01*
G37*
G36*
X145868228Y-88871703D02*
G01*
X146023100Y-88935853D01*
X146162481Y-89028985D01*
X146281015Y-89147519D01*
X146374147Y-89286900D01*
X146438297Y-89441772D01*
X146471000Y-89606184D01*
X146471000Y-89773816D01*
X146438297Y-89938228D01*
X146374147Y-90093100D01*
X146281015Y-90232481D01*
X146162481Y-90351015D01*
X146023100Y-90444147D01*
X145868228Y-90508297D01*
X145703816Y-90541000D01*
X145536184Y-90541000D01*
X145371772Y-90508297D01*
X145216900Y-90444147D01*
X145077519Y-90351015D01*
X144958985Y-90232481D01*
X144865853Y-90093100D01*
X144801703Y-89938228D01*
X144769000Y-89773816D01*
X144769000Y-89606184D01*
X144801703Y-89441772D01*
X144865853Y-89286900D01*
X144958985Y-89147519D01*
X145077519Y-89028985D01*
X145216900Y-88935853D01*
X145371772Y-88871703D01*
X145536184Y-88839000D01*
X145703816Y-88839000D01*
X145868228Y-88871703D01*
G37*
G36*
X138248228Y-88871703D02*
G01*
X138403100Y-88935853D01*
X138542481Y-89028985D01*
X138661015Y-89147519D01*
X138754147Y-89286900D01*
X138818297Y-89441772D01*
X138851000Y-89606184D01*
X138851000Y-89773816D01*
X138818297Y-89938228D01*
X138754147Y-90093100D01*
X138661015Y-90232481D01*
X138542481Y-90351015D01*
X138403100Y-90444147D01*
X138248228Y-90508297D01*
X138083816Y-90541000D01*
X137916184Y-90541000D01*
X137751772Y-90508297D01*
X137596900Y-90444147D01*
X137457519Y-90351015D01*
X137338985Y-90232481D01*
X137245853Y-90093100D01*
X137181703Y-89938228D01*
X137149000Y-89773816D01*
X137149000Y-89606184D01*
X137181703Y-89441772D01*
X137245853Y-89286900D01*
X137338985Y-89147519D01*
X137457519Y-89028985D01*
X137596900Y-88935853D01*
X137751772Y-88871703D01*
X137916184Y-88839000D01*
X138083816Y-88839000D01*
X138248228Y-88871703D01*
G37*
G36*
X133448228Y-88861703D02*
G01*
X133603100Y-88925853D01*
X133742481Y-89018985D01*
X133861015Y-89137519D01*
X133954147Y-89276900D01*
X134018297Y-89431772D01*
X134051000Y-89596184D01*
X134051000Y-89763816D01*
X134018297Y-89928228D01*
X133954147Y-90083100D01*
X133861015Y-90222481D01*
X133742481Y-90341015D01*
X133603100Y-90434147D01*
X133448228Y-90498297D01*
X133283816Y-90531000D01*
X133116184Y-90531000D01*
X132951772Y-90498297D01*
X132796900Y-90434147D01*
X132657519Y-90341015D01*
X132538985Y-90222481D01*
X132445853Y-90083100D01*
X132381703Y-89928228D01*
X132349000Y-89763816D01*
X132349000Y-89596184D01*
X132381703Y-89431772D01*
X132445853Y-89276900D01*
X132538985Y-89137519D01*
X132657519Y-89018985D01*
X132796900Y-88925853D01*
X132951772Y-88861703D01*
X133116184Y-88829000D01*
X133283816Y-88829000D01*
X133448228Y-88861703D01*
G37*
G36*
X105326823Y-88841313D02*
G01*
X105487242Y-88889976D01*
X105619906Y-88960886D01*
X105635078Y-88968996D01*
X105764659Y-89075341D01*
X105871004Y-89204922D01*
X105871005Y-89204924D01*
X105950024Y-89352758D01*
X105998687Y-89513177D01*
X106015117Y-89680000D01*
X105998687Y-89846823D01*
X105950024Y-90007242D01*
X105909477Y-90083100D01*
X105871004Y-90155078D01*
X105764659Y-90284659D01*
X105635078Y-90391004D01*
X105635076Y-90391005D01*
X105487242Y-90470024D01*
X105326823Y-90518687D01*
X105201804Y-90531000D01*
X104318196Y-90531000D01*
X104193177Y-90518687D01*
X104032758Y-90470024D01*
X103884924Y-90391005D01*
X103884922Y-90391004D01*
X103755341Y-90284659D01*
X103648996Y-90155078D01*
X103610523Y-90083100D01*
X103569976Y-90007242D01*
X103521313Y-89846823D01*
X103504883Y-89680000D01*
X103521313Y-89513177D01*
X103569976Y-89352758D01*
X103648995Y-89204924D01*
X103648996Y-89204922D01*
X103755341Y-89075341D01*
X103884922Y-88968996D01*
X103900094Y-88960886D01*
X104032758Y-88889976D01*
X104193177Y-88841313D01*
X104318196Y-88829000D01*
X105201804Y-88829000D01*
X105326823Y-88841313D01*
G37*
G36*
X125828228Y-88861703D02*
G01*
X125983100Y-88925853D01*
X126122481Y-89018985D01*
X126241015Y-89137519D01*
X126334147Y-89276900D01*
X126398297Y-89431772D01*
X126431000Y-89596184D01*
X126431000Y-89763816D01*
X126398297Y-89928228D01*
X126334147Y-90083100D01*
X126241015Y-90222481D01*
X126122481Y-90341015D01*
X125983100Y-90434147D01*
X125828228Y-90498297D01*
X125663816Y-90531000D01*
X125496184Y-90531000D01*
X125331772Y-90498297D01*
X125176900Y-90434147D01*
X125037519Y-90341015D01*
X124918985Y-90222481D01*
X124825853Y-90083100D01*
X124761703Y-89928228D01*
X124729000Y-89763816D01*
X124729000Y-89596184D01*
X124761703Y-89431772D01*
X124825853Y-89276900D01*
X124918985Y-89137519D01*
X125037519Y-89018985D01*
X125176900Y-88925853D01*
X125331772Y-88861703D01*
X125496184Y-88829000D01*
X125663816Y-88829000D01*
X125828228Y-88861703D01*
G37*
G36*
X120566823Y-88841313D02*
G01*
X120727242Y-88889976D01*
X120859906Y-88960886D01*
X120875078Y-88968996D01*
X121004659Y-89075341D01*
X121111004Y-89204922D01*
X121111005Y-89204924D01*
X121190024Y-89352758D01*
X121238687Y-89513177D01*
X121255117Y-89680000D01*
X121238687Y-89846823D01*
X121190024Y-90007242D01*
X121149477Y-90083100D01*
X121111004Y-90155078D01*
X121004659Y-90284659D01*
X120875078Y-90391004D01*
X120875076Y-90391005D01*
X120727242Y-90470024D01*
X120566823Y-90518687D01*
X120441804Y-90531000D01*
X119558196Y-90531000D01*
X119433177Y-90518687D01*
X119272758Y-90470024D01*
X119124924Y-90391005D01*
X119124922Y-90391004D01*
X118995341Y-90284659D01*
X118888996Y-90155078D01*
X118850523Y-90083100D01*
X118809976Y-90007242D01*
X118761313Y-89846823D01*
X118744883Y-89680000D01*
X118761313Y-89513177D01*
X118809976Y-89352758D01*
X118888995Y-89204924D01*
X118888996Y-89204922D01*
X118995341Y-89075341D01*
X119124922Y-88968996D01*
X119140094Y-88960886D01*
X119272758Y-88889976D01*
X119433177Y-88841313D01*
X119558196Y-88829000D01*
X120441804Y-88829000D01*
X120566823Y-88841313D01*
G37*
G36*
X170868228Y-86331703D02*
G01*
X171023100Y-86395853D01*
X171162481Y-86488985D01*
X171281015Y-86607519D01*
X171374147Y-86746900D01*
X171438297Y-86901772D01*
X171471000Y-87066184D01*
X171471000Y-87233816D01*
X171438297Y-87398228D01*
X171374147Y-87553100D01*
X171281015Y-87692481D01*
X171162481Y-87811015D01*
X171023100Y-87904147D01*
X170868228Y-87968297D01*
X170703816Y-88001000D01*
X170536184Y-88001000D01*
X170371772Y-87968297D01*
X170216900Y-87904147D01*
X170077519Y-87811015D01*
X169958985Y-87692481D01*
X169865853Y-87553100D01*
X169801703Y-87398228D01*
X169769000Y-87233816D01*
X169769000Y-87066184D01*
X169801703Y-86901772D01*
X169865853Y-86746900D01*
X169958985Y-86607519D01*
X170077519Y-86488985D01*
X170216900Y-86395853D01*
X170371772Y-86331703D01*
X170536184Y-86299000D01*
X170703816Y-86299000D01*
X170868228Y-86331703D01*
G37*
G36*
X158368228Y-86331703D02*
G01*
X158523100Y-86395853D01*
X158662481Y-86488985D01*
X158781015Y-86607519D01*
X158874147Y-86746900D01*
X158938297Y-86901772D01*
X158971000Y-87066184D01*
X158971000Y-87233816D01*
X158938297Y-87398228D01*
X158874147Y-87553100D01*
X158781015Y-87692481D01*
X158662481Y-87811015D01*
X158523100Y-87904147D01*
X158368228Y-87968297D01*
X158203816Y-88001000D01*
X158036184Y-88001000D01*
X157871772Y-87968297D01*
X157716900Y-87904147D01*
X157577519Y-87811015D01*
X157458985Y-87692481D01*
X157365853Y-87553100D01*
X157301703Y-87398228D01*
X157269000Y-87233816D01*
X157269000Y-87066184D01*
X157301703Y-86901772D01*
X157365853Y-86746900D01*
X157458985Y-86607519D01*
X157577519Y-86488985D01*
X157716900Y-86395853D01*
X157871772Y-86331703D01*
X158036184Y-86299000D01*
X158203816Y-86299000D01*
X158368228Y-86331703D01*
G37*
G36*
X145868228Y-86331703D02*
G01*
X146023100Y-86395853D01*
X146162481Y-86488985D01*
X146281015Y-86607519D01*
X146374147Y-86746900D01*
X146438297Y-86901772D01*
X146471000Y-87066184D01*
X146471000Y-87233816D01*
X146438297Y-87398228D01*
X146374147Y-87553100D01*
X146281015Y-87692481D01*
X146162481Y-87811015D01*
X146023100Y-87904147D01*
X145868228Y-87968297D01*
X145703816Y-88001000D01*
X145536184Y-88001000D01*
X145371772Y-87968297D01*
X145216900Y-87904147D01*
X145077519Y-87811015D01*
X144958985Y-87692481D01*
X144865853Y-87553100D01*
X144801703Y-87398228D01*
X144769000Y-87233816D01*
X144769000Y-87066184D01*
X144801703Y-86901772D01*
X144865853Y-86746900D01*
X144958985Y-86607519D01*
X145077519Y-86488985D01*
X145216900Y-86395853D01*
X145371772Y-86331703D01*
X145536184Y-86299000D01*
X145703816Y-86299000D01*
X145868228Y-86331703D01*
G37*
G36*
X151351000Y-88001000D02*
G01*
X149649000Y-88001000D01*
X149649000Y-86299000D01*
X151351000Y-86299000D01*
X151351000Y-88001000D01*
G37*
G36*
X163851000Y-88001000D02*
G01*
X162149000Y-88001000D01*
X162149000Y-86299000D01*
X163851000Y-86299000D01*
X163851000Y-88001000D01*
G37*
G36*
X138851000Y-88001000D02*
G01*
X137149000Y-88001000D01*
X137149000Y-86299000D01*
X138851000Y-86299000D01*
X138851000Y-88001000D01*
G37*
G36*
X120566823Y-86301313D02*
G01*
X120727242Y-86349976D01*
X120859906Y-86420886D01*
X120875078Y-86428996D01*
X121004659Y-86535341D01*
X121111004Y-86664922D01*
X121111005Y-86664924D01*
X121190024Y-86812758D01*
X121238687Y-86973177D01*
X121255117Y-87140000D01*
X121238687Y-87306823D01*
X121190024Y-87467242D01*
X121149477Y-87543100D01*
X121111004Y-87615078D01*
X121004659Y-87744659D01*
X120875078Y-87851004D01*
X120875076Y-87851005D01*
X120727242Y-87930024D01*
X120566823Y-87978687D01*
X120441804Y-87991000D01*
X119558196Y-87991000D01*
X119433177Y-87978687D01*
X119272758Y-87930024D01*
X119124924Y-87851005D01*
X119124922Y-87851004D01*
X118995341Y-87744659D01*
X118888996Y-87615078D01*
X118850523Y-87543100D01*
X118809976Y-87467242D01*
X118761313Y-87306823D01*
X118744883Y-87140000D01*
X118761313Y-86973177D01*
X118809976Y-86812758D01*
X118888995Y-86664924D01*
X118888996Y-86664922D01*
X118995341Y-86535341D01*
X119124922Y-86428996D01*
X119140094Y-86420886D01*
X119272758Y-86349976D01*
X119433177Y-86301313D01*
X119558196Y-86289000D01*
X120441804Y-86289000D01*
X120566823Y-86301313D01*
G37*
G36*
X125828228Y-86321703D02*
G01*
X125983100Y-86385853D01*
X126122481Y-86478985D01*
X126241015Y-86597519D01*
X126334147Y-86736900D01*
X126398297Y-86891772D01*
X126431000Y-87056184D01*
X126431000Y-87223816D01*
X126398297Y-87388228D01*
X126334147Y-87543100D01*
X126241015Y-87682481D01*
X126122481Y-87801015D01*
X125983100Y-87894147D01*
X125828228Y-87958297D01*
X125663816Y-87991000D01*
X125496184Y-87991000D01*
X125331772Y-87958297D01*
X125176900Y-87894147D01*
X125037519Y-87801015D01*
X124918985Y-87682481D01*
X124825853Y-87543100D01*
X124761703Y-87388228D01*
X124729000Y-87223816D01*
X124729000Y-87056184D01*
X124761703Y-86891772D01*
X124825853Y-86736900D01*
X124918985Y-86597519D01*
X125037519Y-86478985D01*
X125176900Y-86385853D01*
X125331772Y-86321703D01*
X125496184Y-86289000D01*
X125663816Y-86289000D01*
X125828228Y-86321703D01*
G37*
G36*
X133448228Y-86321703D02*
G01*
X133603100Y-86385853D01*
X133742481Y-86478985D01*
X133861015Y-86597519D01*
X133954147Y-86736900D01*
X134018297Y-86891772D01*
X134051000Y-87056184D01*
X134051000Y-87223816D01*
X134018297Y-87388228D01*
X133954147Y-87543100D01*
X133861015Y-87682481D01*
X133742481Y-87801015D01*
X133603100Y-87894147D01*
X133448228Y-87958297D01*
X133283816Y-87991000D01*
X133116184Y-87991000D01*
X132951772Y-87958297D01*
X132796900Y-87894147D01*
X132657519Y-87801015D01*
X132538985Y-87682481D01*
X132445853Y-87543100D01*
X132381703Y-87388228D01*
X132349000Y-87223816D01*
X132349000Y-87056184D01*
X132381703Y-86891772D01*
X132445853Y-86736900D01*
X132538985Y-86597519D01*
X132657519Y-86478985D01*
X132796900Y-86385853D01*
X132951772Y-86321703D01*
X133116184Y-86289000D01*
X133283816Y-86289000D01*
X133448228Y-86321703D01*
G37*
G36*
X105326823Y-86301313D02*
G01*
X105487242Y-86349976D01*
X105619906Y-86420886D01*
X105635078Y-86428996D01*
X105764659Y-86535341D01*
X105871004Y-86664922D01*
X105871005Y-86664924D01*
X105950024Y-86812758D01*
X105998687Y-86973177D01*
X106015117Y-87140000D01*
X105998687Y-87306823D01*
X105950024Y-87467242D01*
X105909477Y-87543100D01*
X105871004Y-87615078D01*
X105764659Y-87744659D01*
X105635078Y-87851004D01*
X105635076Y-87851005D01*
X105487242Y-87930024D01*
X105326823Y-87978687D01*
X105201804Y-87991000D01*
X104318196Y-87991000D01*
X104193177Y-87978687D01*
X104032758Y-87930024D01*
X103884924Y-87851005D01*
X103884922Y-87851004D01*
X103755341Y-87744659D01*
X103648996Y-87615078D01*
X103610523Y-87543100D01*
X103569976Y-87467242D01*
X103521313Y-87306823D01*
X103504883Y-87140000D01*
X103521313Y-86973177D01*
X103569976Y-86812758D01*
X103648995Y-86664924D01*
X103648996Y-86664922D01*
X103755341Y-86535341D01*
X103884922Y-86428996D01*
X103900094Y-86420886D01*
X104032758Y-86349976D01*
X104193177Y-86301313D01*
X104318196Y-86289000D01*
X105201804Y-86289000D01*
X105326823Y-86301313D01*
G37*
G36*
X105326823Y-83761313D02*
G01*
X105487242Y-83809976D01*
X105619906Y-83880886D01*
X105635078Y-83888996D01*
X105764659Y-83995341D01*
X105871004Y-84124922D01*
X105871005Y-84124924D01*
X105950024Y-84272758D01*
X105998687Y-84433177D01*
X106015117Y-84600000D01*
X105998687Y-84766823D01*
X105950024Y-84927242D01*
X105879114Y-85059906D01*
X105871004Y-85075078D01*
X105764659Y-85204659D01*
X105635078Y-85311004D01*
X105635076Y-85311005D01*
X105487242Y-85390024D01*
X105326823Y-85438687D01*
X105201804Y-85451000D01*
X104318196Y-85451000D01*
X104193177Y-85438687D01*
X104032758Y-85390024D01*
X103884924Y-85311005D01*
X103884922Y-85311004D01*
X103755341Y-85204659D01*
X103648996Y-85075078D01*
X103640886Y-85059906D01*
X103569976Y-84927242D01*
X103521313Y-84766823D01*
X103504883Y-84600000D01*
X103521313Y-84433177D01*
X103569976Y-84272758D01*
X103648995Y-84124924D01*
X103648996Y-84124922D01*
X103755341Y-83995341D01*
X103884922Y-83888996D01*
X103900094Y-83880886D01*
X104032758Y-83809976D01*
X104193177Y-83761313D01*
X104318196Y-83749000D01*
X105201804Y-83749000D01*
X105326823Y-83761313D01*
G37*
G36*
X120566823Y-83761313D02*
G01*
X120727242Y-83809976D01*
X120859906Y-83880886D01*
X120875078Y-83888996D01*
X121004659Y-83995341D01*
X121111004Y-84124922D01*
X121111005Y-84124924D01*
X121190024Y-84272758D01*
X121238687Y-84433177D01*
X121255117Y-84600000D01*
X121238687Y-84766823D01*
X121190024Y-84927242D01*
X121119114Y-85059906D01*
X121111004Y-85075078D01*
X121004659Y-85204659D01*
X120875078Y-85311004D01*
X120875076Y-85311005D01*
X120727242Y-85390024D01*
X120566823Y-85438687D01*
X120441804Y-85451000D01*
X119558196Y-85451000D01*
X119433177Y-85438687D01*
X119272758Y-85390024D01*
X119124924Y-85311005D01*
X119124922Y-85311004D01*
X118995341Y-85204659D01*
X118888996Y-85075078D01*
X118880886Y-85059906D01*
X118809976Y-84927242D01*
X118761313Y-84766823D01*
X118744883Y-84600000D01*
X118761313Y-84433177D01*
X118809976Y-84272758D01*
X118888995Y-84124924D01*
X118888996Y-84124922D01*
X118995341Y-83995341D01*
X119124922Y-83888996D01*
X119140094Y-83880886D01*
X119272758Y-83809976D01*
X119433177Y-83761313D01*
X119558196Y-83749000D01*
X120441804Y-83749000D01*
X120566823Y-83761313D01*
G37*
G36*
X120566823Y-81221313D02*
G01*
X120727242Y-81269976D01*
X120859906Y-81340886D01*
X120875078Y-81348996D01*
X121004659Y-81455341D01*
X121111004Y-81584922D01*
X121111005Y-81584924D01*
X121190024Y-81732758D01*
X121238687Y-81893177D01*
X121255117Y-82060000D01*
X121238687Y-82226823D01*
X121190024Y-82387242D01*
X121137859Y-82484836D01*
X121111004Y-82535078D01*
X121004659Y-82664659D01*
X120875078Y-82771004D01*
X120875076Y-82771005D01*
X120727242Y-82850024D01*
X120566823Y-82898687D01*
X120441804Y-82911000D01*
X119558196Y-82911000D01*
X119433177Y-82898687D01*
X119272758Y-82850024D01*
X119124924Y-82771005D01*
X119124922Y-82771004D01*
X118995341Y-82664659D01*
X118888996Y-82535078D01*
X118862141Y-82484836D01*
X118809976Y-82387242D01*
X118761313Y-82226823D01*
X118744883Y-82060000D01*
X118761313Y-81893177D01*
X118809976Y-81732758D01*
X118888995Y-81584924D01*
X118888996Y-81584922D01*
X118995341Y-81455341D01*
X119124922Y-81348996D01*
X119140094Y-81340886D01*
X119272758Y-81269976D01*
X119433177Y-81221313D01*
X119558196Y-81209000D01*
X120441804Y-81209000D01*
X120566823Y-81221313D01*
G37*
G36*
X105326823Y-81221313D02*
G01*
X105487242Y-81269976D01*
X105619906Y-81340886D01*
X105635078Y-81348996D01*
X105764659Y-81455341D01*
X105871004Y-81584922D01*
X105871005Y-81584924D01*
X105950024Y-81732758D01*
X105998687Y-81893177D01*
X106015117Y-82060000D01*
X105998687Y-82226823D01*
X105950024Y-82387242D01*
X105897859Y-82484836D01*
X105871004Y-82535078D01*
X105764659Y-82664659D01*
X105635078Y-82771004D01*
X105635076Y-82771005D01*
X105487242Y-82850024D01*
X105326823Y-82898687D01*
X105201804Y-82911000D01*
X104318196Y-82911000D01*
X104193177Y-82898687D01*
X104032758Y-82850024D01*
X103884924Y-82771005D01*
X103884922Y-82771004D01*
X103755341Y-82664659D01*
X103648996Y-82535078D01*
X103622141Y-82484836D01*
X103569976Y-82387242D01*
X103521313Y-82226823D01*
X103504883Y-82060000D01*
X103521313Y-81893177D01*
X103569976Y-81732758D01*
X103648995Y-81584924D01*
X103648996Y-81584922D01*
X103755341Y-81455341D01*
X103884922Y-81348996D01*
X103900094Y-81340886D01*
X104032758Y-81269976D01*
X104193177Y-81221313D01*
X104318196Y-81209000D01*
X105201804Y-81209000D01*
X105326823Y-81221313D01*
G37*
G36*
X177629591Y-81478085D02*
G01*
X177663569Y-81488393D01*
X177694890Y-81505134D01*
X177722339Y-81527661D01*
X177744866Y-81555110D01*
X177761607Y-81586431D01*
X177771915Y-81620409D01*
X177776000Y-81661890D01*
X177776000Y-82338110D01*
X177771915Y-82379591D01*
X177761607Y-82413569D01*
X177744866Y-82444890D01*
X177722339Y-82472339D01*
X177694890Y-82494866D01*
X177663569Y-82511607D01*
X177629591Y-82521915D01*
X177588110Y-82526000D01*
X176986890Y-82526000D01*
X176945409Y-82521915D01*
X176911431Y-82511607D01*
X176880110Y-82494866D01*
X176852661Y-82472339D01*
X176830134Y-82444890D01*
X176813393Y-82413569D01*
X176803085Y-82379591D01*
X176799000Y-82338110D01*
X176799000Y-81661890D01*
X176803085Y-81620409D01*
X176813393Y-81586431D01*
X176830134Y-81555110D01*
X176852661Y-81527661D01*
X176880110Y-81505134D01*
X176911431Y-81488393D01*
X176945409Y-81478085D01*
X176986890Y-81474000D01*
X177588110Y-81474000D01*
X177629591Y-81478085D01*
G37*
G36*
X176054591Y-81478085D02*
G01*
X176088569Y-81488393D01*
X176119890Y-81505134D01*
X176147339Y-81527661D01*
X176169866Y-81555110D01*
X176186607Y-81586431D01*
X176196915Y-81620409D01*
X176201000Y-81661890D01*
X176201000Y-82338110D01*
X176196915Y-82379591D01*
X176186607Y-82413569D01*
X176169866Y-82444890D01*
X176147339Y-82472339D01*
X176119890Y-82494866D01*
X176088569Y-82511607D01*
X176054591Y-82521915D01*
X176013110Y-82526000D01*
X175411890Y-82526000D01*
X175370409Y-82521915D01*
X175336431Y-82511607D01*
X175305110Y-82494866D01*
X175277661Y-82472339D01*
X175255134Y-82444890D01*
X175238393Y-82413569D01*
X175228085Y-82379591D01*
X175224000Y-82338110D01*
X175224000Y-81661890D01*
X175228085Y-81620409D01*
X175238393Y-81586431D01*
X175255134Y-81555110D01*
X175277661Y-81527661D01*
X175305110Y-81505134D01*
X175336431Y-81488393D01*
X175370409Y-81478085D01*
X175411890Y-81474000D01*
X176013110Y-81474000D01*
X176054591Y-81478085D01*
G37*
G36*
X120566823Y-78681313D02*
G01*
X120727242Y-78729976D01*
X120859906Y-78800886D01*
X120875078Y-78808996D01*
X121004659Y-78915341D01*
X121111004Y-79044922D01*
X121111005Y-79044924D01*
X121190024Y-79192758D01*
X121238687Y-79353177D01*
X121255117Y-79520000D01*
X121238687Y-79686823D01*
X121190024Y-79847242D01*
X121119114Y-79979906D01*
X121111004Y-79995078D01*
X121004659Y-80124659D01*
X120875078Y-80231004D01*
X120875076Y-80231005D01*
X120727242Y-80310024D01*
X120566823Y-80358687D01*
X120441804Y-80371000D01*
X119558196Y-80371000D01*
X119433177Y-80358687D01*
X119272758Y-80310024D01*
X119124924Y-80231005D01*
X119124922Y-80231004D01*
X118995341Y-80124659D01*
X118888996Y-79995078D01*
X118880886Y-79979906D01*
X118809976Y-79847242D01*
X118761313Y-79686823D01*
X118744883Y-79520000D01*
X118761313Y-79353177D01*
X118809976Y-79192758D01*
X118888995Y-79044924D01*
X118888996Y-79044922D01*
X118995341Y-78915341D01*
X119124922Y-78808996D01*
X119140094Y-78800886D01*
X119272758Y-78729976D01*
X119433177Y-78681313D01*
X119558196Y-78669000D01*
X120441804Y-78669000D01*
X120566823Y-78681313D01*
G37*
G36*
X105326823Y-78681313D02*
G01*
X105487242Y-78729976D01*
X105619906Y-78800886D01*
X105635078Y-78808996D01*
X105764659Y-78915341D01*
X105871004Y-79044922D01*
X105871005Y-79044924D01*
X105950024Y-79192758D01*
X105998687Y-79353177D01*
X106015117Y-79520000D01*
X105998687Y-79686823D01*
X105950024Y-79847242D01*
X105879114Y-79979906D01*
X105871004Y-79995078D01*
X105764659Y-80124659D01*
X105635078Y-80231004D01*
X105635076Y-80231005D01*
X105487242Y-80310024D01*
X105326823Y-80358687D01*
X105201804Y-80371000D01*
X104318196Y-80371000D01*
X104193177Y-80358687D01*
X104032758Y-80310024D01*
X103884924Y-80231005D01*
X103884922Y-80231004D01*
X103755341Y-80124659D01*
X103648996Y-79995078D01*
X103640886Y-79979906D01*
X103569976Y-79847242D01*
X103521313Y-79686823D01*
X103504883Y-79520000D01*
X103521313Y-79353177D01*
X103569976Y-79192758D01*
X103648995Y-79044924D01*
X103648996Y-79044922D01*
X103755341Y-78915341D01*
X103884922Y-78808996D01*
X103900094Y-78800886D01*
X104032758Y-78729976D01*
X104193177Y-78681313D01*
X104318196Y-78669000D01*
X105201804Y-78669000D01*
X105326823Y-78681313D01*
G37*
G36*
X120566823Y-76141313D02*
G01*
X120727242Y-76189976D01*
X120859906Y-76260886D01*
X120875078Y-76268996D01*
X121004659Y-76375341D01*
X121111004Y-76504922D01*
X121111005Y-76504924D01*
X121190024Y-76652758D01*
X121238687Y-76813177D01*
X121255117Y-76980000D01*
X121238687Y-77146823D01*
X121190024Y-77307242D01*
X121119114Y-77439906D01*
X121111004Y-77455078D01*
X121004659Y-77584659D01*
X120875078Y-77691004D01*
X120875076Y-77691005D01*
X120727242Y-77770024D01*
X120566823Y-77818687D01*
X120441804Y-77831000D01*
X119558196Y-77831000D01*
X119433177Y-77818687D01*
X119272758Y-77770024D01*
X119124924Y-77691005D01*
X119124922Y-77691004D01*
X118995341Y-77584659D01*
X118888996Y-77455078D01*
X118880886Y-77439906D01*
X118809976Y-77307242D01*
X118761313Y-77146823D01*
X118744883Y-76980000D01*
X118761313Y-76813177D01*
X118809976Y-76652758D01*
X118888995Y-76504924D01*
X118888996Y-76504922D01*
X118995341Y-76375341D01*
X119124922Y-76268996D01*
X119140094Y-76260886D01*
X119272758Y-76189976D01*
X119433177Y-76141313D01*
X119558196Y-76129000D01*
X120441804Y-76129000D01*
X120566823Y-76141313D01*
G37*
G36*
X105326823Y-76141313D02*
G01*
X105487242Y-76189976D01*
X105619906Y-76260886D01*
X105635078Y-76268996D01*
X105764659Y-76375341D01*
X105871004Y-76504922D01*
X105871005Y-76504924D01*
X105950024Y-76652758D01*
X105998687Y-76813177D01*
X106015117Y-76980000D01*
X105998687Y-77146823D01*
X105950024Y-77307242D01*
X105879114Y-77439906D01*
X105871004Y-77455078D01*
X105764659Y-77584659D01*
X105635078Y-77691004D01*
X105635076Y-77691005D01*
X105487242Y-77770024D01*
X105326823Y-77818687D01*
X105201804Y-77831000D01*
X104318196Y-77831000D01*
X104193177Y-77818687D01*
X104032758Y-77770024D01*
X103884924Y-77691005D01*
X103884922Y-77691004D01*
X103755341Y-77584659D01*
X103648996Y-77455078D01*
X103640886Y-77439906D01*
X103569976Y-77307242D01*
X103521313Y-77146823D01*
X103504883Y-76980000D01*
X103521313Y-76813177D01*
X103569976Y-76652758D01*
X103648995Y-76504924D01*
X103648996Y-76504922D01*
X103755341Y-76375341D01*
X103884922Y-76268996D01*
X103900094Y-76260886D01*
X104032758Y-76189976D01*
X104193177Y-76141313D01*
X104318196Y-76129000D01*
X105201804Y-76129000D01*
X105326823Y-76141313D01*
G37*
G36*
X120566823Y-73601313D02*
G01*
X120727242Y-73649976D01*
X120859906Y-73720886D01*
X120875078Y-73728996D01*
X121004659Y-73835341D01*
X121111004Y-73964922D01*
X121111005Y-73964924D01*
X121190024Y-74112758D01*
X121238687Y-74273177D01*
X121255117Y-74440000D01*
X121238687Y-74606823D01*
X121190024Y-74767242D01*
X121119114Y-74899906D01*
X121111004Y-74915078D01*
X121004659Y-75044659D01*
X120875078Y-75151004D01*
X120875076Y-75151005D01*
X120727242Y-75230024D01*
X120566823Y-75278687D01*
X120441804Y-75291000D01*
X119558196Y-75291000D01*
X119433177Y-75278687D01*
X119272758Y-75230024D01*
X119124924Y-75151005D01*
X119124922Y-75151004D01*
X118995341Y-75044659D01*
X118888996Y-74915078D01*
X118880886Y-74899906D01*
X118809976Y-74767242D01*
X118761313Y-74606823D01*
X118744883Y-74440000D01*
X118761313Y-74273177D01*
X118809976Y-74112758D01*
X118888995Y-73964924D01*
X118888996Y-73964922D01*
X118995341Y-73835341D01*
X119124922Y-73728996D01*
X119140094Y-73720886D01*
X119272758Y-73649976D01*
X119433177Y-73601313D01*
X119558196Y-73589000D01*
X120441804Y-73589000D01*
X120566823Y-73601313D01*
G37*
G36*
X105326823Y-73601313D02*
G01*
X105487242Y-73649976D01*
X105619906Y-73720886D01*
X105635078Y-73728996D01*
X105764659Y-73835341D01*
X105871004Y-73964922D01*
X105871005Y-73964924D01*
X105950024Y-74112758D01*
X105998687Y-74273177D01*
X106015117Y-74440000D01*
X105998687Y-74606823D01*
X105950024Y-74767242D01*
X105879114Y-74899906D01*
X105871004Y-74915078D01*
X105764659Y-75044659D01*
X105635078Y-75151004D01*
X105635076Y-75151005D01*
X105487242Y-75230024D01*
X105326823Y-75278687D01*
X105201804Y-75291000D01*
X104318196Y-75291000D01*
X104193177Y-75278687D01*
X104032758Y-75230024D01*
X103884924Y-75151005D01*
X103884922Y-75151004D01*
X103755341Y-75044659D01*
X103648996Y-74915078D01*
X103640886Y-74899906D01*
X103569976Y-74767242D01*
X103521313Y-74606823D01*
X103504883Y-74440000D01*
X103521313Y-74273177D01*
X103569976Y-74112758D01*
X103648995Y-73964924D01*
X103648996Y-73964922D01*
X103755341Y-73835341D01*
X103884922Y-73728996D01*
X103900094Y-73720886D01*
X104032758Y-73649976D01*
X104193177Y-73601313D01*
X104318196Y-73589000D01*
X105201804Y-73589000D01*
X105326823Y-73601313D01*
G37*
G36*
X138891347Y-71689209D02*
G01*
X139010734Y-71738661D01*
X139118173Y-71810449D01*
X139209551Y-71901827D01*
X139281339Y-72009266D01*
X139330791Y-72128653D01*
X139356000Y-72255388D01*
X139356000Y-72384612D01*
X139330791Y-72511347D01*
X139292542Y-72603687D01*
X139289512Y-72611004D01*
X139281339Y-72630734D01*
X139209551Y-72738173D01*
X139118173Y-72829551D01*
X139010734Y-72901339D01*
X138891347Y-72950791D01*
X138764612Y-72976000D01*
X138635388Y-72976000D01*
X138508653Y-72950791D01*
X138389266Y-72901339D01*
X138281827Y-72829551D01*
X138190449Y-72738173D01*
X138118661Y-72630734D01*
X138110489Y-72611004D01*
X138107458Y-72603687D01*
X138069209Y-72511347D01*
X138044000Y-72384612D01*
X138044000Y-72255388D01*
X138069209Y-72128653D01*
X138118661Y-72009266D01*
X138190449Y-71901827D01*
X138281827Y-71810449D01*
X138389266Y-71738661D01*
X138508653Y-71689209D01*
X138635388Y-71664000D01*
X138764612Y-71664000D01*
X138891347Y-71689209D01*
G37*
G36*
X131271347Y-71689209D02*
G01*
X131390734Y-71738661D01*
X131498173Y-71810449D01*
X131589551Y-71901827D01*
X131661339Y-72009266D01*
X131710791Y-72128653D01*
X131736000Y-72255388D01*
X131736000Y-72384612D01*
X131710791Y-72511347D01*
X131672542Y-72603687D01*
X131669512Y-72611004D01*
X131661339Y-72630734D01*
X131589551Y-72738173D01*
X131498173Y-72829551D01*
X131390734Y-72901339D01*
X131271347Y-72950791D01*
X131144612Y-72976000D01*
X131015388Y-72976000D01*
X130888653Y-72950791D01*
X130769266Y-72901339D01*
X130661827Y-72829551D01*
X130570449Y-72738173D01*
X130498661Y-72630734D01*
X130490489Y-72611004D01*
X130487458Y-72603687D01*
X130449209Y-72511347D01*
X130424000Y-72384612D01*
X130424000Y-72255388D01*
X130449209Y-72128653D01*
X130498661Y-72009266D01*
X130570449Y-71901827D01*
X130661827Y-71810449D01*
X130769266Y-71738661D01*
X130888653Y-71689209D01*
X131015388Y-71664000D01*
X131144612Y-71664000D01*
X131271347Y-71689209D01*
G37*
G36*
X120566823Y-71061313D02*
G01*
X120727242Y-71109976D01*
X120859906Y-71180886D01*
X120875078Y-71188996D01*
X121004659Y-71295341D01*
X121111004Y-71424922D01*
X121111005Y-71424924D01*
X121190024Y-71572758D01*
X121238687Y-71733177D01*
X121255117Y-71900000D01*
X121238687Y-72066823D01*
X121190024Y-72227242D01*
X121119114Y-72359906D01*
X121111004Y-72375078D01*
X121004659Y-72504659D01*
X120875078Y-72611004D01*
X120875076Y-72611005D01*
X120727242Y-72690024D01*
X120566823Y-72738687D01*
X120441804Y-72751000D01*
X119558196Y-72751000D01*
X119433177Y-72738687D01*
X119272758Y-72690024D01*
X119124924Y-72611005D01*
X119124922Y-72611004D01*
X118995341Y-72504659D01*
X118888996Y-72375078D01*
X118880886Y-72359906D01*
X118809976Y-72227242D01*
X118761313Y-72066823D01*
X118744883Y-71900000D01*
X118761313Y-71733177D01*
X118809976Y-71572758D01*
X118888995Y-71424924D01*
X118888996Y-71424922D01*
X118995341Y-71295341D01*
X119124922Y-71188996D01*
X119140094Y-71180886D01*
X119272758Y-71109976D01*
X119433177Y-71061313D01*
X119558196Y-71049000D01*
X120441804Y-71049000D01*
X120566823Y-71061313D01*
G37*
G36*
X105326823Y-71061313D02*
G01*
X105487242Y-71109976D01*
X105619906Y-71180886D01*
X105635078Y-71188996D01*
X105764659Y-71295341D01*
X105871004Y-71424922D01*
X105871005Y-71424924D01*
X105950024Y-71572758D01*
X105998687Y-71733177D01*
X106015117Y-71900000D01*
X105998687Y-72066823D01*
X105950024Y-72227242D01*
X105879114Y-72359906D01*
X105871004Y-72375078D01*
X105764659Y-72504659D01*
X105635078Y-72611004D01*
X105635076Y-72611005D01*
X105487242Y-72690024D01*
X105326823Y-72738687D01*
X105201804Y-72751000D01*
X104318196Y-72751000D01*
X104193177Y-72738687D01*
X104032758Y-72690024D01*
X103884924Y-72611005D01*
X103884922Y-72611004D01*
X103755341Y-72504659D01*
X103648996Y-72375078D01*
X103640886Y-72359906D01*
X103569976Y-72227242D01*
X103521313Y-72066823D01*
X103504883Y-71900000D01*
X103521313Y-71733177D01*
X103569976Y-71572758D01*
X103648995Y-71424924D01*
X103648996Y-71424922D01*
X103755341Y-71295341D01*
X103884922Y-71188996D01*
X103900094Y-71180886D01*
X104032758Y-71109976D01*
X104193177Y-71061313D01*
X104318196Y-71049000D01*
X105201804Y-71049000D01*
X105326823Y-71061313D01*
G37*
G36*
X120566823Y-68521313D02*
G01*
X120727242Y-68569976D01*
X120859906Y-68640886D01*
X120875078Y-68648996D01*
X121004659Y-68755341D01*
X121111004Y-68884922D01*
X121111005Y-68884924D01*
X121190024Y-69032758D01*
X121238687Y-69193177D01*
X121255117Y-69360000D01*
X121238687Y-69526823D01*
X121190024Y-69687242D01*
X121119114Y-69819906D01*
X121111004Y-69835078D01*
X121004659Y-69964659D01*
X120875078Y-70071004D01*
X120875076Y-70071005D01*
X120727242Y-70150024D01*
X120566823Y-70198687D01*
X120441804Y-70211000D01*
X119558196Y-70211000D01*
X119433177Y-70198687D01*
X119272758Y-70150024D01*
X119124924Y-70071005D01*
X119124922Y-70071004D01*
X118995341Y-69964659D01*
X118888996Y-69835078D01*
X118880886Y-69819906D01*
X118809976Y-69687242D01*
X118761313Y-69526823D01*
X118744883Y-69360000D01*
X118761313Y-69193177D01*
X118809976Y-69032758D01*
X118888995Y-68884924D01*
X118888996Y-68884922D01*
X118995341Y-68755341D01*
X119124922Y-68648996D01*
X119140094Y-68640886D01*
X119272758Y-68569976D01*
X119433177Y-68521313D01*
X119558196Y-68509000D01*
X120441804Y-68509000D01*
X120566823Y-68521313D01*
G37*
G36*
X105326823Y-68521313D02*
G01*
X105487242Y-68569976D01*
X105619906Y-68640886D01*
X105635078Y-68648996D01*
X105764659Y-68755341D01*
X105871004Y-68884922D01*
X105871005Y-68884924D01*
X105950024Y-69032758D01*
X105998687Y-69193177D01*
X106015117Y-69360000D01*
X105998687Y-69526823D01*
X105950024Y-69687242D01*
X105879114Y-69819906D01*
X105871004Y-69835078D01*
X105764659Y-69964659D01*
X105635078Y-70071004D01*
X105635076Y-70071005D01*
X105487242Y-70150024D01*
X105326823Y-70198687D01*
X105201804Y-70211000D01*
X104318196Y-70211000D01*
X104193177Y-70198687D01*
X104032758Y-70150024D01*
X103884924Y-70071005D01*
X103884922Y-70071004D01*
X103755341Y-69964659D01*
X103648996Y-69835078D01*
X103640886Y-69819906D01*
X103569976Y-69687242D01*
X103521313Y-69526823D01*
X103504883Y-69360000D01*
X103521313Y-69193177D01*
X103569976Y-69032758D01*
X103648995Y-68884924D01*
X103648996Y-68884922D01*
X103755341Y-68755341D01*
X103884922Y-68648996D01*
X103900094Y-68640886D01*
X104032758Y-68569976D01*
X104193177Y-68521313D01*
X104318196Y-68509000D01*
X105201804Y-68509000D01*
X105326823Y-68521313D01*
G37*
G36*
X120566823Y-65981313D02*
G01*
X120727242Y-66029976D01*
X120859906Y-66100886D01*
X120875078Y-66108996D01*
X121004659Y-66215341D01*
X121111004Y-66344922D01*
X121111005Y-66344924D01*
X121190024Y-66492758D01*
X121238687Y-66653177D01*
X121255117Y-66820000D01*
X121238687Y-66986823D01*
X121190024Y-67147242D01*
X121119114Y-67279906D01*
X121111004Y-67295078D01*
X121004659Y-67424659D01*
X120875078Y-67531004D01*
X120875076Y-67531005D01*
X120727242Y-67610024D01*
X120566823Y-67658687D01*
X120441804Y-67671000D01*
X119558196Y-67671000D01*
X119433177Y-67658687D01*
X119272758Y-67610024D01*
X119124924Y-67531005D01*
X119124922Y-67531004D01*
X118995341Y-67424659D01*
X118888996Y-67295078D01*
X118880886Y-67279906D01*
X118809976Y-67147242D01*
X118761313Y-66986823D01*
X118744883Y-66820000D01*
X118761313Y-66653177D01*
X118809976Y-66492758D01*
X118888995Y-66344924D01*
X118888996Y-66344922D01*
X118995341Y-66215341D01*
X119124922Y-66108996D01*
X119140094Y-66100886D01*
X119272758Y-66029976D01*
X119433177Y-65981313D01*
X119558196Y-65969000D01*
X120441804Y-65969000D01*
X120566823Y-65981313D01*
G37*
G36*
X105326823Y-65981313D02*
G01*
X105487242Y-66029976D01*
X105619906Y-66100886D01*
X105635078Y-66108996D01*
X105764659Y-66215341D01*
X105871004Y-66344922D01*
X105871005Y-66344924D01*
X105950024Y-66492758D01*
X105998687Y-66653177D01*
X106015117Y-66820000D01*
X105998687Y-66986823D01*
X105950024Y-67147242D01*
X105879114Y-67279906D01*
X105871004Y-67295078D01*
X105764659Y-67424659D01*
X105635078Y-67531004D01*
X105635076Y-67531005D01*
X105487242Y-67610024D01*
X105326823Y-67658687D01*
X105201804Y-67671000D01*
X104318196Y-67671000D01*
X104193177Y-67658687D01*
X104032758Y-67610024D01*
X103884924Y-67531005D01*
X103884922Y-67531004D01*
X103755341Y-67424659D01*
X103648996Y-67295078D01*
X103640886Y-67279906D01*
X103569976Y-67147242D01*
X103521313Y-66986823D01*
X103504883Y-66820000D01*
X103521313Y-66653177D01*
X103569976Y-66492758D01*
X103648995Y-66344924D01*
X103648996Y-66344922D01*
X103755341Y-66215341D01*
X103884922Y-66108996D01*
X103900094Y-66100886D01*
X104032758Y-66029976D01*
X104193177Y-65981313D01*
X104318196Y-65969000D01*
X105201804Y-65969000D01*
X105326823Y-65981313D01*
G37*
G36*
X131271347Y-64069209D02*
G01*
X131390734Y-64118661D01*
X131498173Y-64190449D01*
X131589551Y-64281827D01*
X131661339Y-64389266D01*
X131710791Y-64508653D01*
X131736000Y-64635388D01*
X131736000Y-64764612D01*
X131710791Y-64891347D01*
X131672542Y-64983687D01*
X131669512Y-64991004D01*
X131661339Y-65010734D01*
X131589551Y-65118173D01*
X131498173Y-65209551D01*
X131390734Y-65281339D01*
X131271347Y-65330791D01*
X131144612Y-65356000D01*
X131015388Y-65356000D01*
X130888653Y-65330791D01*
X130769266Y-65281339D01*
X130661827Y-65209551D01*
X130570449Y-65118173D01*
X130498661Y-65010734D01*
X130490489Y-64991004D01*
X130487458Y-64983687D01*
X130449209Y-64891347D01*
X130424000Y-64764612D01*
X130424000Y-64635388D01*
X130449209Y-64508653D01*
X130498661Y-64389266D01*
X130570449Y-64281827D01*
X130661827Y-64190449D01*
X130769266Y-64118661D01*
X130888653Y-64069209D01*
X131015388Y-64044000D01*
X131144612Y-64044000D01*
X131271347Y-64069209D01*
G37*
G36*
X138891347Y-64069209D02*
G01*
X139010734Y-64118661D01*
X139118173Y-64190449D01*
X139209551Y-64281827D01*
X139281339Y-64389266D01*
X139330791Y-64508653D01*
X139356000Y-64635388D01*
X139356000Y-64764612D01*
X139330791Y-64891347D01*
X139292542Y-64983687D01*
X139289512Y-64991004D01*
X139281339Y-65010734D01*
X139209551Y-65118173D01*
X139118173Y-65209551D01*
X139010734Y-65281339D01*
X138891347Y-65330791D01*
X138764612Y-65356000D01*
X138635388Y-65356000D01*
X138508653Y-65330791D01*
X138389266Y-65281339D01*
X138281827Y-65209551D01*
X138190449Y-65118173D01*
X138118661Y-65010734D01*
X138110489Y-64991004D01*
X138107458Y-64983687D01*
X138069209Y-64891347D01*
X138044000Y-64764612D01*
X138044000Y-64635388D01*
X138069209Y-64508653D01*
X138118661Y-64389266D01*
X138190449Y-64281827D01*
X138281827Y-64190449D01*
X138389266Y-64118661D01*
X138508653Y-64069209D01*
X138635388Y-64044000D01*
X138764612Y-64044000D01*
X138891347Y-64069209D01*
G37*
G36*
X120566823Y-63441313D02*
G01*
X120727242Y-63489976D01*
X120859906Y-63560886D01*
X120875078Y-63568996D01*
X121004659Y-63675341D01*
X121111004Y-63804922D01*
X121111005Y-63804924D01*
X121190024Y-63952758D01*
X121238687Y-64113177D01*
X121255117Y-64280000D01*
X121238687Y-64446823D01*
X121190024Y-64607242D01*
X121119114Y-64739906D01*
X121111004Y-64755078D01*
X121004659Y-64884659D01*
X120875078Y-64991004D01*
X120875076Y-64991005D01*
X120727242Y-65070024D01*
X120566823Y-65118687D01*
X120441804Y-65131000D01*
X119558196Y-65131000D01*
X119433177Y-65118687D01*
X119272758Y-65070024D01*
X119124924Y-64991005D01*
X119124922Y-64991004D01*
X118995341Y-64884659D01*
X118888996Y-64755078D01*
X118880886Y-64739906D01*
X118809976Y-64607242D01*
X118761313Y-64446823D01*
X118744883Y-64280000D01*
X118761313Y-64113177D01*
X118809976Y-63952758D01*
X118888995Y-63804924D01*
X118888996Y-63804922D01*
X118995341Y-63675341D01*
X119124922Y-63568996D01*
X119140094Y-63560886D01*
X119272758Y-63489976D01*
X119433177Y-63441313D01*
X119558196Y-63429000D01*
X120441804Y-63429000D01*
X120566823Y-63441313D01*
G37*
G36*
X105326823Y-63441313D02*
G01*
X105487242Y-63489976D01*
X105619906Y-63560886D01*
X105635078Y-63568996D01*
X105764659Y-63675341D01*
X105871004Y-63804922D01*
X105871005Y-63804924D01*
X105950024Y-63952758D01*
X105998687Y-64113177D01*
X106015117Y-64280000D01*
X105998687Y-64446823D01*
X105950024Y-64607242D01*
X105879114Y-64739906D01*
X105871004Y-64755078D01*
X105764659Y-64884659D01*
X105635078Y-64991004D01*
X105635076Y-64991005D01*
X105487242Y-65070024D01*
X105326823Y-65118687D01*
X105201804Y-65131000D01*
X104318196Y-65131000D01*
X104193177Y-65118687D01*
X104032758Y-65070024D01*
X103884924Y-64991005D01*
X103884922Y-64991004D01*
X103755341Y-64884659D01*
X103648996Y-64755078D01*
X103640886Y-64739906D01*
X103569976Y-64607242D01*
X103521313Y-64446823D01*
X103504883Y-64280000D01*
X103521313Y-64113177D01*
X103569976Y-63952758D01*
X103648995Y-63804924D01*
X103648996Y-63804922D01*
X103755341Y-63675341D01*
X103884922Y-63568996D01*
X103900094Y-63560886D01*
X104032758Y-63489976D01*
X104193177Y-63441313D01*
X104318196Y-63429000D01*
X105201804Y-63429000D01*
X105326823Y-63441313D01*
G37*
G36*
X105326823Y-60901313D02*
G01*
X105487242Y-60949976D01*
X105619906Y-61020886D01*
X105635078Y-61028996D01*
X105764659Y-61135341D01*
X105871004Y-61264922D01*
X105871005Y-61264924D01*
X105950024Y-61412758D01*
X105998687Y-61573177D01*
X106015117Y-61740000D01*
X105998687Y-61906823D01*
X105950024Y-62067242D01*
X105879114Y-62199906D01*
X105871004Y-62215078D01*
X105764659Y-62344659D01*
X105635078Y-62451004D01*
X105635076Y-62451005D01*
X105487242Y-62530024D01*
X105326823Y-62578687D01*
X105201804Y-62591000D01*
X104318196Y-62591000D01*
X104193177Y-62578687D01*
X104032758Y-62530024D01*
X103884924Y-62451005D01*
X103884922Y-62451004D01*
X103755341Y-62344659D01*
X103648996Y-62215078D01*
X103640886Y-62199906D01*
X103569976Y-62067242D01*
X103521313Y-61906823D01*
X103504883Y-61740000D01*
X103521313Y-61573177D01*
X103569976Y-61412758D01*
X103648995Y-61264924D01*
X103648996Y-61264922D01*
X103755341Y-61135341D01*
X103884922Y-61028996D01*
X103900094Y-61020886D01*
X104032758Y-60949976D01*
X104193177Y-60901313D01*
X104318196Y-60889000D01*
X105201804Y-60889000D01*
X105326823Y-60901313D01*
G37*
G36*
X120566823Y-60901313D02*
G01*
X120727242Y-60949976D01*
X120859906Y-61020886D01*
X120875078Y-61028996D01*
X121004659Y-61135341D01*
X121111004Y-61264922D01*
X121111005Y-61264924D01*
X121190024Y-61412758D01*
X121238687Y-61573177D01*
X121255117Y-61740000D01*
X121238687Y-61906823D01*
X121190024Y-62067242D01*
X121119114Y-62199906D01*
X121111004Y-62215078D01*
X121004659Y-62344659D01*
X120875078Y-62451004D01*
X120875076Y-62451005D01*
X120727242Y-62530024D01*
X120566823Y-62578687D01*
X120441804Y-62591000D01*
X119558196Y-62591000D01*
X119433177Y-62578687D01*
X119272758Y-62530024D01*
X119124924Y-62451005D01*
X119124922Y-62451004D01*
X118995341Y-62344659D01*
X118888996Y-62215078D01*
X118880886Y-62199906D01*
X118809976Y-62067242D01*
X118761313Y-61906823D01*
X118744883Y-61740000D01*
X118761313Y-61573177D01*
X118809976Y-61412758D01*
X118888995Y-61264924D01*
X118888996Y-61264922D01*
X118995341Y-61135341D01*
X119124922Y-61028996D01*
X119140094Y-61020886D01*
X119272758Y-60949976D01*
X119433177Y-60901313D01*
X119558196Y-60889000D01*
X120441804Y-60889000D01*
X120566823Y-60901313D01*
G37*
M02*
