G04 #@! TF.GenerationSoftware,KiCad,Pcbnew,(5.1.5)-3*
G04 #@! TF.CreationDate,2021-09-16T15:53:37+03:00*
G04 #@! TF.ProjectId,ISARPiv2,49534152-5069-4763-922e-6b696361645f,rev?*
G04 #@! TF.SameCoordinates,Original*
G04 #@! TF.FileFunction,Copper,L2,Bot*
G04 #@! TF.FilePolarity,Positive*
%FSLAX46Y46*%
G04 Gerber Fmt 4.6, Leading zero omitted, Abs format (unit mm)*
G04 Created by KiCad (PCBNEW (5.1.5)-3) date 2021-09-16 15:53:37*
%MOMM*%
%LPD*%
G04 APERTURE LIST*
%ADD10C,1.210000*%
%ADD11O,1.600000X1.600000*%
%ADD12R,1.600000X1.600000*%
%ADD13O,1.700000X1.700000*%
%ADD14R,1.700000X1.700000*%
%ADD15R,1.524000X6.858000*%
%ADD16C,0.800000*%
%ADD17C,0.250000*%
%ADD18C,1.000000*%
%ADD19C,0.400000*%
%ADD20C,0.500000*%
G04 APERTURE END LIST*
D10*
X102000000Y-81620000D03*
X94380000Y-81620000D03*
X94380000Y-74000000D03*
X102000000Y-74000000D03*
D11*
X110000000Y-72380000D03*
X132860000Y-80000000D03*
X112540000Y-72380000D03*
X130320000Y-80000000D03*
X115080000Y-72380000D03*
X127780000Y-80000000D03*
X117620000Y-72380000D03*
X125240000Y-80000000D03*
X120160000Y-72380000D03*
X122700000Y-80000000D03*
X122700000Y-72380000D03*
X120160000Y-80000000D03*
X125240000Y-72380000D03*
X117620000Y-80000000D03*
X127780000Y-72380000D03*
X115080000Y-80000000D03*
X130320000Y-72380000D03*
X112540000Y-80000000D03*
X132860000Y-72380000D03*
D12*
X110000000Y-80000000D03*
D13*
X91740000Y-66540000D03*
X91740000Y-64000000D03*
X94280000Y-66540000D03*
X94280000Y-64000000D03*
X96820000Y-66540000D03*
X96820000Y-64000000D03*
X99360000Y-66540000D03*
X99360000Y-64000000D03*
X101900000Y-66540000D03*
X101900000Y-64000000D03*
X104440000Y-66540000D03*
X104440000Y-64000000D03*
X106980000Y-66540000D03*
X106980000Y-64000000D03*
X109520000Y-66540000D03*
X109520000Y-64000000D03*
X112060000Y-66540000D03*
X112060000Y-64000000D03*
X114600000Y-66540000D03*
X114600000Y-64000000D03*
X117140000Y-66540000D03*
X117140000Y-64000000D03*
X119680000Y-66540000D03*
X119680000Y-64000000D03*
X122220000Y-66540000D03*
X122220000Y-64000000D03*
X124760000Y-66540000D03*
X124760000Y-64000000D03*
X127300000Y-66540000D03*
X127300000Y-64000000D03*
X129840000Y-66540000D03*
X129840000Y-64000000D03*
X132380000Y-66540000D03*
X132380000Y-64000000D03*
X134920000Y-66540000D03*
X134920000Y-64000000D03*
X137460000Y-66540000D03*
X137460000Y-64000000D03*
X140000000Y-66540000D03*
D14*
X140000000Y-64000000D03*
D15*
X91900000Y-90381000D03*
X94440000Y-90381000D03*
X96980000Y-90381000D03*
X99520000Y-90381000D03*
X102060000Y-90381000D03*
X104600000Y-90381000D03*
X107140000Y-90381000D03*
X109680000Y-90381000D03*
X112220000Y-90381000D03*
X114760000Y-90381000D03*
X117300000Y-90381000D03*
X119840000Y-90381000D03*
X122380000Y-90381000D03*
X124920000Y-90381000D03*
X127460000Y-90381000D03*
X130000000Y-90381000D03*
X132540000Y-90381000D03*
X135080000Y-90381000D03*
X137620000Y-90381000D03*
X140160000Y-90381000D03*
X142700000Y-90381000D03*
X145240000Y-90381000D03*
X147780000Y-90381000D03*
X150320000Y-90381000D03*
X152860000Y-90381000D03*
X155400000Y-90381000D03*
X157940000Y-90381000D03*
X160480000Y-90381000D03*
X163020000Y-90381000D03*
X165560000Y-90381000D03*
X168100000Y-90381000D03*
D16*
X91900000Y-85000000D03*
X95500000Y-83000000D03*
X96980000Y-85000000D03*
X99520000Y-85000000D03*
X102060000Y-85000000D03*
X104600000Y-85000000D03*
X106100000Y-85000000D03*
X107300000Y-85000000D03*
X107500000Y-69600000D03*
X136300000Y-73300000D03*
X100100000Y-78800000D03*
X93600000Y-78800000D03*
X92700000Y-74100000D03*
X146740000Y-66540000D03*
X143500000Y-63300000D03*
X90400000Y-71800000D03*
D17*
X91900000Y-82723598D02*
X91900000Y-84434315D01*
X103380011Y-81843601D02*
X103380011Y-80980011D01*
X103561360Y-82024950D02*
X103380011Y-81843601D01*
X112540000Y-80000000D02*
X112540000Y-81131370D01*
X91900000Y-84434315D02*
X91900000Y-85000000D01*
X103200000Y-80800000D02*
X103192812Y-80800000D01*
X111646420Y-82024950D02*
X103561360Y-82024950D01*
X112540000Y-81131370D02*
X111646420Y-82024950D01*
X103380011Y-80980011D02*
X103200000Y-80800000D01*
X103192812Y-80800000D02*
X102632801Y-80239989D01*
X102632801Y-80239989D02*
X101367198Y-80239990D01*
X94383608Y-80239990D02*
X91900000Y-82723598D01*
X101367198Y-80239990D02*
X94383608Y-80239990D01*
X97800000Y-80700000D02*
X95500000Y-83000000D01*
X99710001Y-80689999D02*
X99700000Y-80700000D01*
X99700000Y-80700000D02*
X97800000Y-80700000D01*
X102446401Y-80689999D02*
X99710001Y-80689999D01*
X112605040Y-82474960D02*
X103374960Y-82474960D01*
X103374960Y-82474960D02*
X102930001Y-82030001D01*
X102930001Y-82030001D02*
X102930001Y-81173599D01*
X115080000Y-80000000D02*
X112605040Y-82474960D01*
X102930001Y-81173599D02*
X102446401Y-80689999D01*
X97379999Y-84600001D02*
X96980000Y-85000000D01*
X99055030Y-82924970D02*
X97379999Y-84600001D01*
X114695030Y-82924970D02*
X99055030Y-82924970D01*
X117620000Y-80000000D02*
X114695030Y-82924970D01*
X99919999Y-84600001D02*
X99520000Y-85000000D01*
X101145021Y-83374979D02*
X99919999Y-84600001D01*
X116785021Y-83374979D02*
X101145021Y-83374979D01*
X120160000Y-80000000D02*
X116785021Y-83374979D01*
X102459999Y-84600001D02*
X102060000Y-85000000D01*
X103235011Y-83824989D02*
X102459999Y-84600001D01*
X118875011Y-83824989D02*
X103235011Y-83824989D01*
X122700000Y-80000000D02*
X118875011Y-83824989D01*
X104999999Y-84600001D02*
X104600000Y-85000000D01*
X105325001Y-84274999D02*
X104999999Y-84600001D01*
X120965001Y-84274999D02*
X105325001Y-84274999D01*
X125240000Y-80000000D02*
X120965001Y-84274999D01*
X106499999Y-85399999D02*
X106100000Y-85000000D01*
X106825001Y-85725001D02*
X106499999Y-85399999D01*
X122054999Y-85725001D02*
X106825001Y-85725001D01*
X127780000Y-80000000D02*
X122054999Y-85725001D01*
X121905002Y-85000000D02*
X107865685Y-85000000D01*
X126365001Y-80540001D02*
X121905002Y-85000000D01*
X126365001Y-79749997D02*
X126365001Y-80540001D01*
X107865685Y-85000000D02*
X107300000Y-85000000D01*
X127239999Y-78874999D02*
X126365001Y-79749997D01*
X129194999Y-78874999D02*
X127239999Y-78874999D01*
X130320000Y-80000000D02*
X129194999Y-78874999D01*
D18*
X93775001Y-74604999D02*
X94380000Y-74000000D01*
X90799999Y-77580001D02*
X93775001Y-74604999D01*
X90799999Y-86613999D02*
X90799999Y-77580001D01*
X91900000Y-87714000D02*
X90799999Y-86613999D01*
X91900000Y-90381000D02*
X91900000Y-87714000D01*
X94380000Y-71520000D02*
X99360000Y-66540000D01*
X94380000Y-74000000D02*
X94380000Y-71520000D01*
X104440000Y-66540000D02*
X105289999Y-67389999D01*
X105289999Y-67389999D02*
X107500000Y-69600000D01*
X107500000Y-69600000D02*
X107500000Y-69600000D01*
X110369999Y-63150001D02*
X109520000Y-64000000D01*
X111520011Y-61999989D02*
X110369999Y-63150001D01*
X144147989Y-61999989D02*
X111520011Y-61999989D01*
X168100000Y-85952000D02*
X144147989Y-61999989D01*
X168100000Y-90381000D02*
X168100000Y-85952000D01*
D19*
X134070001Y-65690001D02*
X134920000Y-66540000D01*
X133630001Y-65250001D02*
X134070001Y-65690001D01*
X131090001Y-65250001D02*
X133630001Y-65250001D01*
X129840000Y-64000000D02*
X131090001Y-65250001D01*
X125609999Y-65690001D02*
X124760000Y-66540000D01*
X126010001Y-65289999D02*
X125609999Y-65690001D01*
X128550001Y-65289999D02*
X126010001Y-65289999D01*
X129840000Y-64000000D02*
X128550001Y-65289999D01*
X105289999Y-65690001D02*
X104440000Y-66540000D01*
X105729999Y-65250001D02*
X105289999Y-65690001D01*
X108269999Y-65250001D02*
X105729999Y-65250001D01*
X109520000Y-64000000D02*
X108269999Y-65250001D01*
X103590001Y-65690001D02*
X104440000Y-66540000D01*
X103189999Y-65289999D02*
X103590001Y-65690001D01*
X100610001Y-65289999D02*
X103189999Y-65289999D01*
X99360000Y-66540000D02*
X100610001Y-65289999D01*
X145240000Y-76860000D02*
X134920000Y-66540000D01*
X145240000Y-90381000D02*
X145240000Y-76860000D01*
D18*
X132860000Y-76740000D02*
X136300000Y-73300000D01*
X132860000Y-80000000D02*
X132860000Y-76740000D01*
D19*
X92589999Y-64849999D02*
X91740000Y-64000000D01*
X92990001Y-65250001D02*
X92589999Y-64849999D01*
X92990001Y-72610001D02*
X92990001Y-65250001D01*
X94380000Y-74000000D02*
X92990001Y-72610001D01*
D18*
X101144401Y-81620000D02*
X102000000Y-81620000D01*
X95879999Y-84471999D02*
X98731998Y-81620000D01*
X98731998Y-81620000D02*
X101144401Y-81620000D01*
X95879999Y-85528001D02*
X95879999Y-84471999D01*
X96980000Y-86628002D02*
X95879999Y-85528001D01*
X96980000Y-90381000D02*
X96980000Y-86628002D01*
X108868630Y-72380000D02*
X110000000Y-72380000D01*
X100100000Y-73968598D02*
X101688598Y-72380000D01*
X101688598Y-72380000D02*
X108868630Y-72380000D01*
X100100000Y-78800000D02*
X100100000Y-73968598D01*
X163020000Y-85952000D02*
X163020000Y-90381000D01*
X143608000Y-66540000D02*
X163020000Y-85952000D01*
X140000000Y-66540000D02*
X143608000Y-66540000D01*
X137460000Y-66540000D02*
X140000000Y-66540000D01*
D20*
X100100000Y-78800000D02*
X93600000Y-78800000D01*
X93600000Y-78800000D02*
X93600000Y-78800000D01*
X146740000Y-66540000D02*
X143500000Y-63300000D01*
X143500000Y-63300000D02*
X143500000Y-63300000D01*
X90400000Y-71800000D02*
X92700000Y-74100000D01*
D17*
X123069999Y-63150001D02*
X122220000Y-64000000D01*
X123395001Y-62824999D02*
X123069999Y-63150001D01*
X141682999Y-62824999D02*
X123395001Y-62824999D01*
X165560000Y-86702000D02*
X141682999Y-62824999D01*
X165560000Y-90381000D02*
X165560000Y-86702000D01*
X94380000Y-90321000D02*
X94440000Y-90381000D01*
X94380000Y-81620000D02*
X94380000Y-90321000D01*
X112909999Y-64849999D02*
X112060000Y-64000000D01*
X113235001Y-67104001D02*
X113235001Y-65175001D01*
X115196029Y-69065029D02*
X113235001Y-67104001D01*
X137169990Y-84400000D02*
X137169990Y-72779220D01*
X135080000Y-86489990D02*
X137169990Y-84400000D01*
X137169990Y-72779220D02*
X133455801Y-69065031D01*
X113235001Y-65175001D02*
X112909999Y-64849999D01*
X127600000Y-69065031D02*
X115196029Y-69065029D01*
X135080000Y-90381000D02*
X135080000Y-86489990D01*
X133455801Y-69065031D02*
X127600000Y-69065031D01*
X115449999Y-67389999D02*
X114600000Y-66540000D01*
X116675021Y-68615021D02*
X115449999Y-67389999D01*
X133642201Y-68615021D02*
X116675021Y-68615021D01*
X137620000Y-72592820D02*
X133642201Y-68615021D01*
X137620000Y-90381000D02*
X137620000Y-72592820D01*
X115449999Y-64849999D02*
X114600000Y-64000000D01*
X115775001Y-65175001D02*
X115449999Y-64849999D01*
X115775001Y-66914003D02*
X115775001Y-65175001D01*
X117026009Y-68165011D02*
X115775001Y-66914003D01*
X133828601Y-68165011D02*
X117026009Y-68165011D01*
X140160000Y-74496410D02*
X133828601Y-68165011D01*
X140160000Y-90381000D02*
X140160000Y-74496410D01*
X142700000Y-90381000D02*
X142700000Y-76400000D01*
X117989999Y-64849999D02*
X117140000Y-64000000D01*
X118315001Y-65175001D02*
X117989999Y-64849999D01*
X118315001Y-66914003D02*
X118315001Y-65175001D01*
X119115999Y-67715001D02*
X118315001Y-66914003D01*
X134015001Y-67715001D02*
X119115999Y-67715001D01*
X142700000Y-76400000D02*
X134015001Y-67715001D01*
M02*
