M48
; DRILL file {KiCad (5.1.5)-3} date 16.9.2021 15.53.38
; FORMAT={-:-/ absolute / inch / decimal}
; #@! TF.CreationDate,2021-09-16T15:53:38+03:00
; #@! TF.GenerationSoftware,Kicad,Pcbnew,(5.1.5)-3
; #@! TF.FileFunction,Plated,1,2,PTH
FMAT,2
INCH
T1C0.0157
T2C0.0260
T3C0.0315
T4C0.0394
%
G90
G05
T1
X3.5591Y-2.8268
X3.6181Y-3.3465
X3.6496Y-2.9173
X3.685Y-3.1024
X3.7598Y-3.2677
X3.8181Y-3.3465
X3.9181Y-3.3465
X3.9409Y-3.1024
X4.0181Y-3.3465
X4.1181Y-3.3465
X4.1772Y-3.3465
X4.2244Y-3.3465
X4.2323Y-2.7402
X5.3661Y-2.8858
X5.6496Y-2.4921
X5.7772Y-2.6197
T2
X3.7157Y-2.9134
X3.7157Y-3.2134
X4.0157Y-2.9134
X4.0157Y-3.2134
T3
X4.3307Y-2.8496
X4.3307Y-3.1496
X4.4307Y-2.8496
X4.4307Y-3.1496
X4.5307Y-2.8496
X4.5307Y-3.1496
X4.6307Y-2.8496
X4.6307Y-3.1496
X4.7307Y-2.8496
X4.7307Y-3.1496
X4.8307Y-2.8496
X4.8307Y-3.1496
X4.9307Y-2.8496
X4.9307Y-3.1496
X5.0307Y-2.8496
X5.0307Y-3.1496
X5.1307Y-2.8496
X5.1307Y-3.1496
X5.2307Y-2.8496
X5.2307Y-3.1496
T4
X3.6118Y-2.5197
X3.6118Y-2.6197
X3.7118Y-2.5197
X3.7118Y-2.6197
X3.8118Y-2.5197
X3.8118Y-2.6197
X3.9118Y-2.5197
X3.9118Y-2.6197
X4.0118Y-2.5197
X4.0118Y-2.6197
X4.1118Y-2.5197
X4.1118Y-2.6197
X4.2118Y-2.5197
X4.2118Y-2.6197
X4.3118Y-2.5197
X4.3118Y-2.6197
X4.4118Y-2.5197
X4.4118Y-2.6197
X4.5118Y-2.5197
X4.5118Y-2.6197
X4.6118Y-2.5197
X4.6118Y-2.6197
X4.7118Y-2.5197
X4.7118Y-2.6197
X4.8118Y-2.5197
X4.8118Y-2.6197
X4.9118Y-2.5197
X4.9118Y-2.6197
X5.0118Y-2.5197
X5.0118Y-2.6197
X5.1118Y-2.5197
X5.1118Y-2.6197
X5.2118Y-2.5197
X5.2118Y-2.6197
X5.3118Y-2.5197
X5.3118Y-2.6197
X5.4118Y-2.5197
X5.4118Y-2.6197
X5.5118Y-2.5197
X5.5118Y-2.6197
T0
M30
