G04 #@! TF.GenerationSoftware,KiCad,Pcbnew,(5.1.5)-3*
G04 #@! TF.CreationDate,2021-09-16T15:53:37+03:00*
G04 #@! TF.ProjectId,ISARPiv2,49534152-5069-4763-922e-6b696361645f,rev?*
G04 #@! TF.SameCoordinates,Original*
G04 #@! TF.FileFunction,Soldermask,Bot*
G04 #@! TF.FilePolarity,Negative*
%FSLAX46Y46*%
G04 Gerber Fmt 4.6, Leading zero omitted, Abs format (unit mm)*
G04 Created by KiCad (PCBNEW (5.1.5)-3) date 2021-09-16 15:53:37*
%MOMM*%
%LPD*%
G04 APERTURE LIST*
%ADD10C,0.100000*%
G04 APERTURE END LIST*
D10*
G36*
X92713000Y-93861000D02*
G01*
X91087000Y-93861000D01*
X91087000Y-86901000D01*
X92713000Y-86901000D01*
X92713000Y-93861000D01*
G37*
G36*
X130813000Y-93861000D02*
G01*
X129187000Y-93861000D01*
X129187000Y-86901000D01*
X130813000Y-86901000D01*
X130813000Y-93861000D01*
G37*
G36*
X168913000Y-93861000D02*
G01*
X167287000Y-93861000D01*
X167287000Y-86901000D01*
X168913000Y-86901000D01*
X168913000Y-93861000D01*
G37*
G36*
X163833000Y-93861000D02*
G01*
X162207000Y-93861000D01*
X162207000Y-86901000D01*
X163833000Y-86901000D01*
X163833000Y-93861000D01*
G37*
G36*
X161293000Y-93861000D02*
G01*
X159667000Y-93861000D01*
X159667000Y-86901000D01*
X161293000Y-86901000D01*
X161293000Y-93861000D01*
G37*
G36*
X158753000Y-93861000D02*
G01*
X157127000Y-93861000D01*
X157127000Y-86901000D01*
X158753000Y-86901000D01*
X158753000Y-93861000D01*
G37*
G36*
X156213000Y-93861000D02*
G01*
X154587000Y-93861000D01*
X154587000Y-86901000D01*
X156213000Y-86901000D01*
X156213000Y-93861000D01*
G37*
G36*
X153673000Y-93861000D02*
G01*
X152047000Y-93861000D01*
X152047000Y-86901000D01*
X153673000Y-86901000D01*
X153673000Y-93861000D01*
G37*
G36*
X151133000Y-93861000D02*
G01*
X149507000Y-93861000D01*
X149507000Y-86901000D01*
X151133000Y-86901000D01*
X151133000Y-93861000D01*
G37*
G36*
X148593000Y-93861000D02*
G01*
X146967000Y-93861000D01*
X146967000Y-86901000D01*
X148593000Y-86901000D01*
X148593000Y-93861000D01*
G37*
G36*
X146053000Y-93861000D02*
G01*
X144427000Y-93861000D01*
X144427000Y-86901000D01*
X146053000Y-86901000D01*
X146053000Y-93861000D01*
G37*
G36*
X143513000Y-93861000D02*
G01*
X141887000Y-93861000D01*
X141887000Y-86901000D01*
X143513000Y-86901000D01*
X143513000Y-93861000D01*
G37*
G36*
X140973000Y-93861000D02*
G01*
X139347000Y-93861000D01*
X139347000Y-86901000D01*
X140973000Y-86901000D01*
X140973000Y-93861000D01*
G37*
G36*
X138433000Y-93861000D02*
G01*
X136807000Y-93861000D01*
X136807000Y-86901000D01*
X138433000Y-86901000D01*
X138433000Y-93861000D01*
G37*
G36*
X135893000Y-93861000D02*
G01*
X134267000Y-93861000D01*
X134267000Y-86901000D01*
X135893000Y-86901000D01*
X135893000Y-93861000D01*
G37*
G36*
X133353000Y-93861000D02*
G01*
X131727000Y-93861000D01*
X131727000Y-86901000D01*
X133353000Y-86901000D01*
X133353000Y-93861000D01*
G37*
G36*
X128273000Y-93861000D02*
G01*
X126647000Y-93861000D01*
X126647000Y-86901000D01*
X128273000Y-86901000D01*
X128273000Y-93861000D01*
G37*
G36*
X166373000Y-93861000D02*
G01*
X164747000Y-93861000D01*
X164747000Y-86901000D01*
X166373000Y-86901000D01*
X166373000Y-93861000D01*
G37*
G36*
X95253000Y-93861000D02*
G01*
X93627000Y-93861000D01*
X93627000Y-86901000D01*
X95253000Y-86901000D01*
X95253000Y-93861000D01*
G37*
G36*
X97793000Y-93861000D02*
G01*
X96167000Y-93861000D01*
X96167000Y-86901000D01*
X97793000Y-86901000D01*
X97793000Y-93861000D01*
G37*
G36*
X100333000Y-93861000D02*
G01*
X98707000Y-93861000D01*
X98707000Y-86901000D01*
X100333000Y-86901000D01*
X100333000Y-93861000D01*
G37*
G36*
X102873000Y-93861000D02*
G01*
X101247000Y-93861000D01*
X101247000Y-86901000D01*
X102873000Y-86901000D01*
X102873000Y-93861000D01*
G37*
G36*
X105413000Y-93861000D02*
G01*
X103787000Y-93861000D01*
X103787000Y-86901000D01*
X105413000Y-86901000D01*
X105413000Y-93861000D01*
G37*
G36*
X107953000Y-93861000D02*
G01*
X106327000Y-93861000D01*
X106327000Y-86901000D01*
X107953000Y-86901000D01*
X107953000Y-93861000D01*
G37*
G36*
X110493000Y-93861000D02*
G01*
X108867000Y-93861000D01*
X108867000Y-86901000D01*
X110493000Y-86901000D01*
X110493000Y-93861000D01*
G37*
G36*
X113033000Y-93861000D02*
G01*
X111407000Y-93861000D01*
X111407000Y-86901000D01*
X113033000Y-86901000D01*
X113033000Y-93861000D01*
G37*
G36*
X115573000Y-93861000D02*
G01*
X113947000Y-93861000D01*
X113947000Y-86901000D01*
X115573000Y-86901000D01*
X115573000Y-93861000D01*
G37*
G36*
X118113000Y-93861000D02*
G01*
X116487000Y-93861000D01*
X116487000Y-86901000D01*
X118113000Y-86901000D01*
X118113000Y-93861000D01*
G37*
G36*
X120653000Y-93861000D02*
G01*
X119027000Y-93861000D01*
X119027000Y-86901000D01*
X120653000Y-86901000D01*
X120653000Y-93861000D01*
G37*
G36*
X123193000Y-93861000D02*
G01*
X121567000Y-93861000D01*
X121567000Y-86901000D01*
X123193000Y-86901000D01*
X123193000Y-93861000D01*
G37*
G36*
X125733000Y-93861000D02*
G01*
X124107000Y-93861000D01*
X124107000Y-86901000D01*
X125733000Y-86901000D01*
X125733000Y-93861000D01*
G37*
G36*
X102191347Y-80989209D02*
G01*
X102310734Y-81038661D01*
X102418173Y-81110449D01*
X102509551Y-81201827D01*
X102581339Y-81309266D01*
X102630791Y-81428653D01*
X102656000Y-81555388D01*
X102656000Y-81684612D01*
X102630791Y-81811347D01*
X102581339Y-81930734D01*
X102509551Y-82038173D01*
X102418173Y-82129551D01*
X102310734Y-82201339D01*
X102191347Y-82250791D01*
X102064612Y-82276000D01*
X101935388Y-82276000D01*
X101808653Y-82250791D01*
X101689266Y-82201339D01*
X101581827Y-82129551D01*
X101490449Y-82038173D01*
X101418661Y-81930734D01*
X101369209Y-81811347D01*
X101344000Y-81684612D01*
X101344000Y-81555388D01*
X101369209Y-81428653D01*
X101418661Y-81309266D01*
X101490449Y-81201827D01*
X101581827Y-81110449D01*
X101689266Y-81038661D01*
X101808653Y-80989209D01*
X101935388Y-80964000D01*
X102064612Y-80964000D01*
X102191347Y-80989209D01*
G37*
G36*
X94571347Y-80989209D02*
G01*
X94690734Y-81038661D01*
X94798173Y-81110449D01*
X94889551Y-81201827D01*
X94961339Y-81309266D01*
X95010791Y-81428653D01*
X95036000Y-81555388D01*
X95036000Y-81684612D01*
X95010791Y-81811347D01*
X94961339Y-81930734D01*
X94889551Y-82038173D01*
X94798173Y-82129551D01*
X94690734Y-82201339D01*
X94571347Y-82250791D01*
X94444612Y-82276000D01*
X94315388Y-82276000D01*
X94188653Y-82250791D01*
X94069266Y-82201339D01*
X93961827Y-82129551D01*
X93870449Y-82038173D01*
X93798661Y-81930734D01*
X93749209Y-81811347D01*
X93724000Y-81684612D01*
X93724000Y-81555388D01*
X93749209Y-81428653D01*
X93798661Y-81309266D01*
X93870449Y-81201827D01*
X93961827Y-81110449D01*
X94069266Y-81038661D01*
X94188653Y-80989209D01*
X94315388Y-80964000D01*
X94444612Y-80964000D01*
X94571347Y-80989209D01*
G37*
G36*
X110851000Y-80851000D02*
G01*
X109149000Y-80851000D01*
X109149000Y-79149000D01*
X110851000Y-79149000D01*
X110851000Y-80851000D01*
G37*
G36*
X133108228Y-79181703D02*
G01*
X133263100Y-79245853D01*
X133402481Y-79338985D01*
X133521015Y-79457519D01*
X133614147Y-79596900D01*
X133678297Y-79751772D01*
X133711000Y-79916184D01*
X133711000Y-80083816D01*
X133678297Y-80248228D01*
X133614147Y-80403100D01*
X133521015Y-80542481D01*
X133402481Y-80661015D01*
X133263100Y-80754147D01*
X133108228Y-80818297D01*
X132943816Y-80851000D01*
X132776184Y-80851000D01*
X132611772Y-80818297D01*
X132456900Y-80754147D01*
X132317519Y-80661015D01*
X132198985Y-80542481D01*
X132105853Y-80403100D01*
X132041703Y-80248228D01*
X132009000Y-80083816D01*
X132009000Y-79916184D01*
X132041703Y-79751772D01*
X132105853Y-79596900D01*
X132198985Y-79457519D01*
X132317519Y-79338985D01*
X132456900Y-79245853D01*
X132611772Y-79181703D01*
X132776184Y-79149000D01*
X132943816Y-79149000D01*
X133108228Y-79181703D01*
G37*
G36*
X130568228Y-79181703D02*
G01*
X130723100Y-79245853D01*
X130862481Y-79338985D01*
X130981015Y-79457519D01*
X131074147Y-79596900D01*
X131138297Y-79751772D01*
X131171000Y-79916184D01*
X131171000Y-80083816D01*
X131138297Y-80248228D01*
X131074147Y-80403100D01*
X130981015Y-80542481D01*
X130862481Y-80661015D01*
X130723100Y-80754147D01*
X130568228Y-80818297D01*
X130403816Y-80851000D01*
X130236184Y-80851000D01*
X130071772Y-80818297D01*
X129916900Y-80754147D01*
X129777519Y-80661015D01*
X129658985Y-80542481D01*
X129565853Y-80403100D01*
X129501703Y-80248228D01*
X129469000Y-80083816D01*
X129469000Y-79916184D01*
X129501703Y-79751772D01*
X129565853Y-79596900D01*
X129658985Y-79457519D01*
X129777519Y-79338985D01*
X129916900Y-79245853D01*
X130071772Y-79181703D01*
X130236184Y-79149000D01*
X130403816Y-79149000D01*
X130568228Y-79181703D01*
G37*
G36*
X128028228Y-79181703D02*
G01*
X128183100Y-79245853D01*
X128322481Y-79338985D01*
X128441015Y-79457519D01*
X128534147Y-79596900D01*
X128598297Y-79751772D01*
X128631000Y-79916184D01*
X128631000Y-80083816D01*
X128598297Y-80248228D01*
X128534147Y-80403100D01*
X128441015Y-80542481D01*
X128322481Y-80661015D01*
X128183100Y-80754147D01*
X128028228Y-80818297D01*
X127863816Y-80851000D01*
X127696184Y-80851000D01*
X127531772Y-80818297D01*
X127376900Y-80754147D01*
X127237519Y-80661015D01*
X127118985Y-80542481D01*
X127025853Y-80403100D01*
X126961703Y-80248228D01*
X126929000Y-80083816D01*
X126929000Y-79916184D01*
X126961703Y-79751772D01*
X127025853Y-79596900D01*
X127118985Y-79457519D01*
X127237519Y-79338985D01*
X127376900Y-79245853D01*
X127531772Y-79181703D01*
X127696184Y-79149000D01*
X127863816Y-79149000D01*
X128028228Y-79181703D01*
G37*
G36*
X125488228Y-79181703D02*
G01*
X125643100Y-79245853D01*
X125782481Y-79338985D01*
X125901015Y-79457519D01*
X125994147Y-79596900D01*
X126058297Y-79751772D01*
X126091000Y-79916184D01*
X126091000Y-80083816D01*
X126058297Y-80248228D01*
X125994147Y-80403100D01*
X125901015Y-80542481D01*
X125782481Y-80661015D01*
X125643100Y-80754147D01*
X125488228Y-80818297D01*
X125323816Y-80851000D01*
X125156184Y-80851000D01*
X124991772Y-80818297D01*
X124836900Y-80754147D01*
X124697519Y-80661015D01*
X124578985Y-80542481D01*
X124485853Y-80403100D01*
X124421703Y-80248228D01*
X124389000Y-80083816D01*
X124389000Y-79916184D01*
X124421703Y-79751772D01*
X124485853Y-79596900D01*
X124578985Y-79457519D01*
X124697519Y-79338985D01*
X124836900Y-79245853D01*
X124991772Y-79181703D01*
X125156184Y-79149000D01*
X125323816Y-79149000D01*
X125488228Y-79181703D01*
G37*
G36*
X122948228Y-79181703D02*
G01*
X123103100Y-79245853D01*
X123242481Y-79338985D01*
X123361015Y-79457519D01*
X123454147Y-79596900D01*
X123518297Y-79751772D01*
X123551000Y-79916184D01*
X123551000Y-80083816D01*
X123518297Y-80248228D01*
X123454147Y-80403100D01*
X123361015Y-80542481D01*
X123242481Y-80661015D01*
X123103100Y-80754147D01*
X122948228Y-80818297D01*
X122783816Y-80851000D01*
X122616184Y-80851000D01*
X122451772Y-80818297D01*
X122296900Y-80754147D01*
X122157519Y-80661015D01*
X122038985Y-80542481D01*
X121945853Y-80403100D01*
X121881703Y-80248228D01*
X121849000Y-80083816D01*
X121849000Y-79916184D01*
X121881703Y-79751772D01*
X121945853Y-79596900D01*
X122038985Y-79457519D01*
X122157519Y-79338985D01*
X122296900Y-79245853D01*
X122451772Y-79181703D01*
X122616184Y-79149000D01*
X122783816Y-79149000D01*
X122948228Y-79181703D01*
G37*
G36*
X120408228Y-79181703D02*
G01*
X120563100Y-79245853D01*
X120702481Y-79338985D01*
X120821015Y-79457519D01*
X120914147Y-79596900D01*
X120978297Y-79751772D01*
X121011000Y-79916184D01*
X121011000Y-80083816D01*
X120978297Y-80248228D01*
X120914147Y-80403100D01*
X120821015Y-80542481D01*
X120702481Y-80661015D01*
X120563100Y-80754147D01*
X120408228Y-80818297D01*
X120243816Y-80851000D01*
X120076184Y-80851000D01*
X119911772Y-80818297D01*
X119756900Y-80754147D01*
X119617519Y-80661015D01*
X119498985Y-80542481D01*
X119405853Y-80403100D01*
X119341703Y-80248228D01*
X119309000Y-80083816D01*
X119309000Y-79916184D01*
X119341703Y-79751772D01*
X119405853Y-79596900D01*
X119498985Y-79457519D01*
X119617519Y-79338985D01*
X119756900Y-79245853D01*
X119911772Y-79181703D01*
X120076184Y-79149000D01*
X120243816Y-79149000D01*
X120408228Y-79181703D01*
G37*
G36*
X117868228Y-79181703D02*
G01*
X118023100Y-79245853D01*
X118162481Y-79338985D01*
X118281015Y-79457519D01*
X118374147Y-79596900D01*
X118438297Y-79751772D01*
X118471000Y-79916184D01*
X118471000Y-80083816D01*
X118438297Y-80248228D01*
X118374147Y-80403100D01*
X118281015Y-80542481D01*
X118162481Y-80661015D01*
X118023100Y-80754147D01*
X117868228Y-80818297D01*
X117703816Y-80851000D01*
X117536184Y-80851000D01*
X117371772Y-80818297D01*
X117216900Y-80754147D01*
X117077519Y-80661015D01*
X116958985Y-80542481D01*
X116865853Y-80403100D01*
X116801703Y-80248228D01*
X116769000Y-80083816D01*
X116769000Y-79916184D01*
X116801703Y-79751772D01*
X116865853Y-79596900D01*
X116958985Y-79457519D01*
X117077519Y-79338985D01*
X117216900Y-79245853D01*
X117371772Y-79181703D01*
X117536184Y-79149000D01*
X117703816Y-79149000D01*
X117868228Y-79181703D01*
G37*
G36*
X115328228Y-79181703D02*
G01*
X115483100Y-79245853D01*
X115622481Y-79338985D01*
X115741015Y-79457519D01*
X115834147Y-79596900D01*
X115898297Y-79751772D01*
X115931000Y-79916184D01*
X115931000Y-80083816D01*
X115898297Y-80248228D01*
X115834147Y-80403100D01*
X115741015Y-80542481D01*
X115622481Y-80661015D01*
X115483100Y-80754147D01*
X115328228Y-80818297D01*
X115163816Y-80851000D01*
X114996184Y-80851000D01*
X114831772Y-80818297D01*
X114676900Y-80754147D01*
X114537519Y-80661015D01*
X114418985Y-80542481D01*
X114325853Y-80403100D01*
X114261703Y-80248228D01*
X114229000Y-80083816D01*
X114229000Y-79916184D01*
X114261703Y-79751772D01*
X114325853Y-79596900D01*
X114418985Y-79457519D01*
X114537519Y-79338985D01*
X114676900Y-79245853D01*
X114831772Y-79181703D01*
X114996184Y-79149000D01*
X115163816Y-79149000D01*
X115328228Y-79181703D01*
G37*
G36*
X112788228Y-79181703D02*
G01*
X112943100Y-79245853D01*
X113082481Y-79338985D01*
X113201015Y-79457519D01*
X113294147Y-79596900D01*
X113358297Y-79751772D01*
X113391000Y-79916184D01*
X113391000Y-80083816D01*
X113358297Y-80248228D01*
X113294147Y-80403100D01*
X113201015Y-80542481D01*
X113082481Y-80661015D01*
X112943100Y-80754147D01*
X112788228Y-80818297D01*
X112623816Y-80851000D01*
X112456184Y-80851000D01*
X112291772Y-80818297D01*
X112136900Y-80754147D01*
X111997519Y-80661015D01*
X111878985Y-80542481D01*
X111785853Y-80403100D01*
X111721703Y-80248228D01*
X111689000Y-80083816D01*
X111689000Y-79916184D01*
X111721703Y-79751772D01*
X111785853Y-79596900D01*
X111878985Y-79457519D01*
X111997519Y-79338985D01*
X112136900Y-79245853D01*
X112291772Y-79181703D01*
X112456184Y-79149000D01*
X112623816Y-79149000D01*
X112788228Y-79181703D01*
G37*
G36*
X94571347Y-73369209D02*
G01*
X94690734Y-73418661D01*
X94798173Y-73490449D01*
X94889551Y-73581827D01*
X94961339Y-73689266D01*
X95010791Y-73808653D01*
X95036000Y-73935388D01*
X95036000Y-74064612D01*
X95010791Y-74191347D01*
X94961339Y-74310734D01*
X94889551Y-74418173D01*
X94798173Y-74509551D01*
X94690734Y-74581339D01*
X94571347Y-74630791D01*
X94444612Y-74656000D01*
X94315388Y-74656000D01*
X94188653Y-74630791D01*
X94069266Y-74581339D01*
X93961827Y-74509551D01*
X93870449Y-74418173D01*
X93798661Y-74310734D01*
X93749209Y-74191347D01*
X93724000Y-74064612D01*
X93724000Y-73935388D01*
X93749209Y-73808653D01*
X93798661Y-73689266D01*
X93870449Y-73581827D01*
X93961827Y-73490449D01*
X94069266Y-73418661D01*
X94188653Y-73369209D01*
X94315388Y-73344000D01*
X94444612Y-73344000D01*
X94571347Y-73369209D01*
G37*
G36*
X102191347Y-73369209D02*
G01*
X102310734Y-73418661D01*
X102418173Y-73490449D01*
X102509551Y-73581827D01*
X102581339Y-73689266D01*
X102630791Y-73808653D01*
X102656000Y-73935388D01*
X102656000Y-74064612D01*
X102630791Y-74191347D01*
X102581339Y-74310734D01*
X102509551Y-74418173D01*
X102418173Y-74509551D01*
X102310734Y-74581339D01*
X102191347Y-74630791D01*
X102064612Y-74656000D01*
X101935388Y-74656000D01*
X101808653Y-74630791D01*
X101689266Y-74581339D01*
X101581827Y-74509551D01*
X101490449Y-74418173D01*
X101418661Y-74310734D01*
X101369209Y-74191347D01*
X101344000Y-74064612D01*
X101344000Y-73935388D01*
X101369209Y-73808653D01*
X101418661Y-73689266D01*
X101490449Y-73581827D01*
X101581827Y-73490449D01*
X101689266Y-73418661D01*
X101808653Y-73369209D01*
X101935388Y-73344000D01*
X102064612Y-73344000D01*
X102191347Y-73369209D01*
G37*
G36*
X112788228Y-71561703D02*
G01*
X112943100Y-71625853D01*
X113082481Y-71718985D01*
X113201015Y-71837519D01*
X113294147Y-71976900D01*
X113358297Y-72131772D01*
X113391000Y-72296184D01*
X113391000Y-72463816D01*
X113358297Y-72628228D01*
X113294147Y-72783100D01*
X113201015Y-72922481D01*
X113082481Y-73041015D01*
X112943100Y-73134147D01*
X112788228Y-73198297D01*
X112623816Y-73231000D01*
X112456184Y-73231000D01*
X112291772Y-73198297D01*
X112136900Y-73134147D01*
X111997519Y-73041015D01*
X111878985Y-72922481D01*
X111785853Y-72783100D01*
X111721703Y-72628228D01*
X111689000Y-72463816D01*
X111689000Y-72296184D01*
X111721703Y-72131772D01*
X111785853Y-71976900D01*
X111878985Y-71837519D01*
X111997519Y-71718985D01*
X112136900Y-71625853D01*
X112291772Y-71561703D01*
X112456184Y-71529000D01*
X112623816Y-71529000D01*
X112788228Y-71561703D01*
G37*
G36*
X117868228Y-71561703D02*
G01*
X118023100Y-71625853D01*
X118162481Y-71718985D01*
X118281015Y-71837519D01*
X118374147Y-71976900D01*
X118438297Y-72131772D01*
X118471000Y-72296184D01*
X118471000Y-72463816D01*
X118438297Y-72628228D01*
X118374147Y-72783100D01*
X118281015Y-72922481D01*
X118162481Y-73041015D01*
X118023100Y-73134147D01*
X117868228Y-73198297D01*
X117703816Y-73231000D01*
X117536184Y-73231000D01*
X117371772Y-73198297D01*
X117216900Y-73134147D01*
X117077519Y-73041015D01*
X116958985Y-72922481D01*
X116865853Y-72783100D01*
X116801703Y-72628228D01*
X116769000Y-72463816D01*
X116769000Y-72296184D01*
X116801703Y-72131772D01*
X116865853Y-71976900D01*
X116958985Y-71837519D01*
X117077519Y-71718985D01*
X117216900Y-71625853D01*
X117371772Y-71561703D01*
X117536184Y-71529000D01*
X117703816Y-71529000D01*
X117868228Y-71561703D01*
G37*
G36*
X128028228Y-71561703D02*
G01*
X128183100Y-71625853D01*
X128322481Y-71718985D01*
X128441015Y-71837519D01*
X128534147Y-71976900D01*
X128598297Y-72131772D01*
X128631000Y-72296184D01*
X128631000Y-72463816D01*
X128598297Y-72628228D01*
X128534147Y-72783100D01*
X128441015Y-72922481D01*
X128322481Y-73041015D01*
X128183100Y-73134147D01*
X128028228Y-73198297D01*
X127863816Y-73231000D01*
X127696184Y-73231000D01*
X127531772Y-73198297D01*
X127376900Y-73134147D01*
X127237519Y-73041015D01*
X127118985Y-72922481D01*
X127025853Y-72783100D01*
X126961703Y-72628228D01*
X126929000Y-72463816D01*
X126929000Y-72296184D01*
X126961703Y-72131772D01*
X127025853Y-71976900D01*
X127118985Y-71837519D01*
X127237519Y-71718985D01*
X127376900Y-71625853D01*
X127531772Y-71561703D01*
X127696184Y-71529000D01*
X127863816Y-71529000D01*
X128028228Y-71561703D01*
G37*
G36*
X110248228Y-71561703D02*
G01*
X110403100Y-71625853D01*
X110542481Y-71718985D01*
X110661015Y-71837519D01*
X110754147Y-71976900D01*
X110818297Y-72131772D01*
X110851000Y-72296184D01*
X110851000Y-72463816D01*
X110818297Y-72628228D01*
X110754147Y-72783100D01*
X110661015Y-72922481D01*
X110542481Y-73041015D01*
X110403100Y-73134147D01*
X110248228Y-73198297D01*
X110083816Y-73231000D01*
X109916184Y-73231000D01*
X109751772Y-73198297D01*
X109596900Y-73134147D01*
X109457519Y-73041015D01*
X109338985Y-72922481D01*
X109245853Y-72783100D01*
X109181703Y-72628228D01*
X109149000Y-72463816D01*
X109149000Y-72296184D01*
X109181703Y-72131772D01*
X109245853Y-71976900D01*
X109338985Y-71837519D01*
X109457519Y-71718985D01*
X109596900Y-71625853D01*
X109751772Y-71561703D01*
X109916184Y-71529000D01*
X110083816Y-71529000D01*
X110248228Y-71561703D01*
G37*
G36*
X115328228Y-71561703D02*
G01*
X115483100Y-71625853D01*
X115622481Y-71718985D01*
X115741015Y-71837519D01*
X115834147Y-71976900D01*
X115898297Y-72131772D01*
X115931000Y-72296184D01*
X115931000Y-72463816D01*
X115898297Y-72628228D01*
X115834147Y-72783100D01*
X115741015Y-72922481D01*
X115622481Y-73041015D01*
X115483100Y-73134147D01*
X115328228Y-73198297D01*
X115163816Y-73231000D01*
X114996184Y-73231000D01*
X114831772Y-73198297D01*
X114676900Y-73134147D01*
X114537519Y-73041015D01*
X114418985Y-72922481D01*
X114325853Y-72783100D01*
X114261703Y-72628228D01*
X114229000Y-72463816D01*
X114229000Y-72296184D01*
X114261703Y-72131772D01*
X114325853Y-71976900D01*
X114418985Y-71837519D01*
X114537519Y-71718985D01*
X114676900Y-71625853D01*
X114831772Y-71561703D01*
X114996184Y-71529000D01*
X115163816Y-71529000D01*
X115328228Y-71561703D01*
G37*
G36*
X122948228Y-71561703D02*
G01*
X123103100Y-71625853D01*
X123242481Y-71718985D01*
X123361015Y-71837519D01*
X123454147Y-71976900D01*
X123518297Y-72131772D01*
X123551000Y-72296184D01*
X123551000Y-72463816D01*
X123518297Y-72628228D01*
X123454147Y-72783100D01*
X123361015Y-72922481D01*
X123242481Y-73041015D01*
X123103100Y-73134147D01*
X122948228Y-73198297D01*
X122783816Y-73231000D01*
X122616184Y-73231000D01*
X122451772Y-73198297D01*
X122296900Y-73134147D01*
X122157519Y-73041015D01*
X122038985Y-72922481D01*
X121945853Y-72783100D01*
X121881703Y-72628228D01*
X121849000Y-72463816D01*
X121849000Y-72296184D01*
X121881703Y-72131772D01*
X121945853Y-71976900D01*
X122038985Y-71837519D01*
X122157519Y-71718985D01*
X122296900Y-71625853D01*
X122451772Y-71561703D01*
X122616184Y-71529000D01*
X122783816Y-71529000D01*
X122948228Y-71561703D01*
G37*
G36*
X125488228Y-71561703D02*
G01*
X125643100Y-71625853D01*
X125782481Y-71718985D01*
X125901015Y-71837519D01*
X125994147Y-71976900D01*
X126058297Y-72131772D01*
X126091000Y-72296184D01*
X126091000Y-72463816D01*
X126058297Y-72628228D01*
X125994147Y-72783100D01*
X125901015Y-72922481D01*
X125782481Y-73041015D01*
X125643100Y-73134147D01*
X125488228Y-73198297D01*
X125323816Y-73231000D01*
X125156184Y-73231000D01*
X124991772Y-73198297D01*
X124836900Y-73134147D01*
X124697519Y-73041015D01*
X124578985Y-72922481D01*
X124485853Y-72783100D01*
X124421703Y-72628228D01*
X124389000Y-72463816D01*
X124389000Y-72296184D01*
X124421703Y-72131772D01*
X124485853Y-71976900D01*
X124578985Y-71837519D01*
X124697519Y-71718985D01*
X124836900Y-71625853D01*
X124991772Y-71561703D01*
X125156184Y-71529000D01*
X125323816Y-71529000D01*
X125488228Y-71561703D01*
G37*
G36*
X130568228Y-71561703D02*
G01*
X130723100Y-71625853D01*
X130862481Y-71718985D01*
X130981015Y-71837519D01*
X131074147Y-71976900D01*
X131138297Y-72131772D01*
X131171000Y-72296184D01*
X131171000Y-72463816D01*
X131138297Y-72628228D01*
X131074147Y-72783100D01*
X130981015Y-72922481D01*
X130862481Y-73041015D01*
X130723100Y-73134147D01*
X130568228Y-73198297D01*
X130403816Y-73231000D01*
X130236184Y-73231000D01*
X130071772Y-73198297D01*
X129916900Y-73134147D01*
X129777519Y-73041015D01*
X129658985Y-72922481D01*
X129565853Y-72783100D01*
X129501703Y-72628228D01*
X129469000Y-72463816D01*
X129469000Y-72296184D01*
X129501703Y-72131772D01*
X129565853Y-71976900D01*
X129658985Y-71837519D01*
X129777519Y-71718985D01*
X129916900Y-71625853D01*
X130071772Y-71561703D01*
X130236184Y-71529000D01*
X130403816Y-71529000D01*
X130568228Y-71561703D01*
G37*
G36*
X133108228Y-71561703D02*
G01*
X133263100Y-71625853D01*
X133402481Y-71718985D01*
X133521015Y-71837519D01*
X133614147Y-71976900D01*
X133678297Y-72131772D01*
X133711000Y-72296184D01*
X133711000Y-72463816D01*
X133678297Y-72628228D01*
X133614147Y-72783100D01*
X133521015Y-72922481D01*
X133402481Y-73041015D01*
X133263100Y-73134147D01*
X133108228Y-73198297D01*
X132943816Y-73231000D01*
X132776184Y-73231000D01*
X132611772Y-73198297D01*
X132456900Y-73134147D01*
X132317519Y-73041015D01*
X132198985Y-72922481D01*
X132105853Y-72783100D01*
X132041703Y-72628228D01*
X132009000Y-72463816D01*
X132009000Y-72296184D01*
X132041703Y-72131772D01*
X132105853Y-71976900D01*
X132198985Y-71837519D01*
X132317519Y-71718985D01*
X132456900Y-71625853D01*
X132611772Y-71561703D01*
X132776184Y-71529000D01*
X132943816Y-71529000D01*
X133108228Y-71561703D01*
G37*
G36*
X120408228Y-71561703D02*
G01*
X120563100Y-71625853D01*
X120702481Y-71718985D01*
X120821015Y-71837519D01*
X120914147Y-71976900D01*
X120978297Y-72131772D01*
X121011000Y-72296184D01*
X121011000Y-72463816D01*
X120978297Y-72628228D01*
X120914147Y-72783100D01*
X120821015Y-72922481D01*
X120702481Y-73041015D01*
X120563100Y-73134147D01*
X120408228Y-73198297D01*
X120243816Y-73231000D01*
X120076184Y-73231000D01*
X119911772Y-73198297D01*
X119756900Y-73134147D01*
X119617519Y-73041015D01*
X119498985Y-72922481D01*
X119405853Y-72783100D01*
X119341703Y-72628228D01*
X119309000Y-72463816D01*
X119309000Y-72296184D01*
X119341703Y-72131772D01*
X119405853Y-71976900D01*
X119498985Y-71837519D01*
X119617519Y-71718985D01*
X119756900Y-71625853D01*
X119911772Y-71561703D01*
X120076184Y-71529000D01*
X120243816Y-71529000D01*
X120408228Y-71561703D01*
G37*
G36*
X102013512Y-65643927D02*
G01*
X102162812Y-65673624D01*
X102326784Y-65741544D01*
X102474354Y-65840147D01*
X102599853Y-65965646D01*
X102698456Y-66113216D01*
X102766376Y-66277188D01*
X102801000Y-66451259D01*
X102801000Y-66628741D01*
X102766376Y-66802812D01*
X102698456Y-66966784D01*
X102599853Y-67114354D01*
X102474354Y-67239853D01*
X102326784Y-67338456D01*
X102162812Y-67406376D01*
X102013512Y-67436073D01*
X101988742Y-67441000D01*
X101811258Y-67441000D01*
X101786488Y-67436073D01*
X101637188Y-67406376D01*
X101473216Y-67338456D01*
X101325646Y-67239853D01*
X101200147Y-67114354D01*
X101101544Y-66966784D01*
X101033624Y-66802812D01*
X100999000Y-66628741D01*
X100999000Y-66451259D01*
X101033624Y-66277188D01*
X101101544Y-66113216D01*
X101200147Y-65965646D01*
X101325646Y-65840147D01*
X101473216Y-65741544D01*
X101637188Y-65673624D01*
X101786488Y-65643927D01*
X101811258Y-65639000D01*
X101988742Y-65639000D01*
X102013512Y-65643927D01*
G37*
G36*
X107093512Y-65643927D02*
G01*
X107242812Y-65673624D01*
X107406784Y-65741544D01*
X107554354Y-65840147D01*
X107679853Y-65965646D01*
X107778456Y-66113216D01*
X107846376Y-66277188D01*
X107881000Y-66451259D01*
X107881000Y-66628741D01*
X107846376Y-66802812D01*
X107778456Y-66966784D01*
X107679853Y-67114354D01*
X107554354Y-67239853D01*
X107406784Y-67338456D01*
X107242812Y-67406376D01*
X107093512Y-67436073D01*
X107068742Y-67441000D01*
X106891258Y-67441000D01*
X106866488Y-67436073D01*
X106717188Y-67406376D01*
X106553216Y-67338456D01*
X106405646Y-67239853D01*
X106280147Y-67114354D01*
X106181544Y-66966784D01*
X106113624Y-66802812D01*
X106079000Y-66628741D01*
X106079000Y-66451259D01*
X106113624Y-66277188D01*
X106181544Y-66113216D01*
X106280147Y-65965646D01*
X106405646Y-65840147D01*
X106553216Y-65741544D01*
X106717188Y-65673624D01*
X106866488Y-65643927D01*
X106891258Y-65639000D01*
X107068742Y-65639000D01*
X107093512Y-65643927D01*
G37*
G36*
X104553512Y-65643927D02*
G01*
X104702812Y-65673624D01*
X104866784Y-65741544D01*
X105014354Y-65840147D01*
X105139853Y-65965646D01*
X105238456Y-66113216D01*
X105306376Y-66277188D01*
X105341000Y-66451259D01*
X105341000Y-66628741D01*
X105306376Y-66802812D01*
X105238456Y-66966784D01*
X105139853Y-67114354D01*
X105014354Y-67239853D01*
X104866784Y-67338456D01*
X104702812Y-67406376D01*
X104553512Y-67436073D01*
X104528742Y-67441000D01*
X104351258Y-67441000D01*
X104326488Y-67436073D01*
X104177188Y-67406376D01*
X104013216Y-67338456D01*
X103865646Y-67239853D01*
X103740147Y-67114354D01*
X103641544Y-66966784D01*
X103573624Y-66802812D01*
X103539000Y-66628741D01*
X103539000Y-66451259D01*
X103573624Y-66277188D01*
X103641544Y-66113216D01*
X103740147Y-65965646D01*
X103865646Y-65840147D01*
X104013216Y-65741544D01*
X104177188Y-65673624D01*
X104326488Y-65643927D01*
X104351258Y-65639000D01*
X104528742Y-65639000D01*
X104553512Y-65643927D01*
G37*
G36*
X91853512Y-65643927D02*
G01*
X92002812Y-65673624D01*
X92166784Y-65741544D01*
X92314354Y-65840147D01*
X92439853Y-65965646D01*
X92538456Y-66113216D01*
X92606376Y-66277188D01*
X92641000Y-66451259D01*
X92641000Y-66628741D01*
X92606376Y-66802812D01*
X92538456Y-66966784D01*
X92439853Y-67114354D01*
X92314354Y-67239853D01*
X92166784Y-67338456D01*
X92002812Y-67406376D01*
X91853512Y-67436073D01*
X91828742Y-67441000D01*
X91651258Y-67441000D01*
X91626488Y-67436073D01*
X91477188Y-67406376D01*
X91313216Y-67338456D01*
X91165646Y-67239853D01*
X91040147Y-67114354D01*
X90941544Y-66966784D01*
X90873624Y-66802812D01*
X90839000Y-66628741D01*
X90839000Y-66451259D01*
X90873624Y-66277188D01*
X90941544Y-66113216D01*
X91040147Y-65965646D01*
X91165646Y-65840147D01*
X91313216Y-65741544D01*
X91477188Y-65673624D01*
X91626488Y-65643927D01*
X91651258Y-65639000D01*
X91828742Y-65639000D01*
X91853512Y-65643927D01*
G37*
G36*
X99473512Y-65643927D02*
G01*
X99622812Y-65673624D01*
X99786784Y-65741544D01*
X99934354Y-65840147D01*
X100059853Y-65965646D01*
X100158456Y-66113216D01*
X100226376Y-66277188D01*
X100261000Y-66451259D01*
X100261000Y-66628741D01*
X100226376Y-66802812D01*
X100158456Y-66966784D01*
X100059853Y-67114354D01*
X99934354Y-67239853D01*
X99786784Y-67338456D01*
X99622812Y-67406376D01*
X99473512Y-67436073D01*
X99448742Y-67441000D01*
X99271258Y-67441000D01*
X99246488Y-67436073D01*
X99097188Y-67406376D01*
X98933216Y-67338456D01*
X98785646Y-67239853D01*
X98660147Y-67114354D01*
X98561544Y-66966784D01*
X98493624Y-66802812D01*
X98459000Y-66628741D01*
X98459000Y-66451259D01*
X98493624Y-66277188D01*
X98561544Y-66113216D01*
X98660147Y-65965646D01*
X98785646Y-65840147D01*
X98933216Y-65741544D01*
X99097188Y-65673624D01*
X99246488Y-65643927D01*
X99271258Y-65639000D01*
X99448742Y-65639000D01*
X99473512Y-65643927D01*
G37*
G36*
X94393512Y-65643927D02*
G01*
X94542812Y-65673624D01*
X94706784Y-65741544D01*
X94854354Y-65840147D01*
X94979853Y-65965646D01*
X95078456Y-66113216D01*
X95146376Y-66277188D01*
X95181000Y-66451259D01*
X95181000Y-66628741D01*
X95146376Y-66802812D01*
X95078456Y-66966784D01*
X94979853Y-67114354D01*
X94854354Y-67239853D01*
X94706784Y-67338456D01*
X94542812Y-67406376D01*
X94393512Y-67436073D01*
X94368742Y-67441000D01*
X94191258Y-67441000D01*
X94166488Y-67436073D01*
X94017188Y-67406376D01*
X93853216Y-67338456D01*
X93705646Y-67239853D01*
X93580147Y-67114354D01*
X93481544Y-66966784D01*
X93413624Y-66802812D01*
X93379000Y-66628741D01*
X93379000Y-66451259D01*
X93413624Y-66277188D01*
X93481544Y-66113216D01*
X93580147Y-65965646D01*
X93705646Y-65840147D01*
X93853216Y-65741544D01*
X94017188Y-65673624D01*
X94166488Y-65643927D01*
X94191258Y-65639000D01*
X94368742Y-65639000D01*
X94393512Y-65643927D01*
G37*
G36*
X96933512Y-65643927D02*
G01*
X97082812Y-65673624D01*
X97246784Y-65741544D01*
X97394354Y-65840147D01*
X97519853Y-65965646D01*
X97618456Y-66113216D01*
X97686376Y-66277188D01*
X97721000Y-66451259D01*
X97721000Y-66628741D01*
X97686376Y-66802812D01*
X97618456Y-66966784D01*
X97519853Y-67114354D01*
X97394354Y-67239853D01*
X97246784Y-67338456D01*
X97082812Y-67406376D01*
X96933512Y-67436073D01*
X96908742Y-67441000D01*
X96731258Y-67441000D01*
X96706488Y-67436073D01*
X96557188Y-67406376D01*
X96393216Y-67338456D01*
X96245646Y-67239853D01*
X96120147Y-67114354D01*
X96021544Y-66966784D01*
X95953624Y-66802812D01*
X95919000Y-66628741D01*
X95919000Y-66451259D01*
X95953624Y-66277188D01*
X96021544Y-66113216D01*
X96120147Y-65965646D01*
X96245646Y-65840147D01*
X96393216Y-65741544D01*
X96557188Y-65673624D01*
X96706488Y-65643927D01*
X96731258Y-65639000D01*
X96908742Y-65639000D01*
X96933512Y-65643927D01*
G37*
G36*
X109633512Y-65643927D02*
G01*
X109782812Y-65673624D01*
X109946784Y-65741544D01*
X110094354Y-65840147D01*
X110219853Y-65965646D01*
X110318456Y-66113216D01*
X110386376Y-66277188D01*
X110421000Y-66451259D01*
X110421000Y-66628741D01*
X110386376Y-66802812D01*
X110318456Y-66966784D01*
X110219853Y-67114354D01*
X110094354Y-67239853D01*
X109946784Y-67338456D01*
X109782812Y-67406376D01*
X109633512Y-67436073D01*
X109608742Y-67441000D01*
X109431258Y-67441000D01*
X109406488Y-67436073D01*
X109257188Y-67406376D01*
X109093216Y-67338456D01*
X108945646Y-67239853D01*
X108820147Y-67114354D01*
X108721544Y-66966784D01*
X108653624Y-66802812D01*
X108619000Y-66628741D01*
X108619000Y-66451259D01*
X108653624Y-66277188D01*
X108721544Y-66113216D01*
X108820147Y-65965646D01*
X108945646Y-65840147D01*
X109093216Y-65741544D01*
X109257188Y-65673624D01*
X109406488Y-65643927D01*
X109431258Y-65639000D01*
X109608742Y-65639000D01*
X109633512Y-65643927D01*
G37*
G36*
X140113512Y-65643927D02*
G01*
X140262812Y-65673624D01*
X140426784Y-65741544D01*
X140574354Y-65840147D01*
X140699853Y-65965646D01*
X140798456Y-66113216D01*
X140866376Y-66277188D01*
X140901000Y-66451259D01*
X140901000Y-66628741D01*
X140866376Y-66802812D01*
X140798456Y-66966784D01*
X140699853Y-67114354D01*
X140574354Y-67239853D01*
X140426784Y-67338456D01*
X140262812Y-67406376D01*
X140113512Y-67436073D01*
X140088742Y-67441000D01*
X139911258Y-67441000D01*
X139886488Y-67436073D01*
X139737188Y-67406376D01*
X139573216Y-67338456D01*
X139425646Y-67239853D01*
X139300147Y-67114354D01*
X139201544Y-66966784D01*
X139133624Y-66802812D01*
X139099000Y-66628741D01*
X139099000Y-66451259D01*
X139133624Y-66277188D01*
X139201544Y-66113216D01*
X139300147Y-65965646D01*
X139425646Y-65840147D01*
X139573216Y-65741544D01*
X139737188Y-65673624D01*
X139886488Y-65643927D01*
X139911258Y-65639000D01*
X140088742Y-65639000D01*
X140113512Y-65643927D01*
G37*
G36*
X114713512Y-65643927D02*
G01*
X114862812Y-65673624D01*
X115026784Y-65741544D01*
X115174354Y-65840147D01*
X115299853Y-65965646D01*
X115398456Y-66113216D01*
X115466376Y-66277188D01*
X115501000Y-66451259D01*
X115501000Y-66628741D01*
X115466376Y-66802812D01*
X115398456Y-66966784D01*
X115299853Y-67114354D01*
X115174354Y-67239853D01*
X115026784Y-67338456D01*
X114862812Y-67406376D01*
X114713512Y-67436073D01*
X114688742Y-67441000D01*
X114511258Y-67441000D01*
X114486488Y-67436073D01*
X114337188Y-67406376D01*
X114173216Y-67338456D01*
X114025646Y-67239853D01*
X113900147Y-67114354D01*
X113801544Y-66966784D01*
X113733624Y-66802812D01*
X113699000Y-66628741D01*
X113699000Y-66451259D01*
X113733624Y-66277188D01*
X113801544Y-66113216D01*
X113900147Y-65965646D01*
X114025646Y-65840147D01*
X114173216Y-65741544D01*
X114337188Y-65673624D01*
X114486488Y-65643927D01*
X114511258Y-65639000D01*
X114688742Y-65639000D01*
X114713512Y-65643927D01*
G37*
G36*
X119793512Y-65643927D02*
G01*
X119942812Y-65673624D01*
X120106784Y-65741544D01*
X120254354Y-65840147D01*
X120379853Y-65965646D01*
X120478456Y-66113216D01*
X120546376Y-66277188D01*
X120581000Y-66451259D01*
X120581000Y-66628741D01*
X120546376Y-66802812D01*
X120478456Y-66966784D01*
X120379853Y-67114354D01*
X120254354Y-67239853D01*
X120106784Y-67338456D01*
X119942812Y-67406376D01*
X119793512Y-67436073D01*
X119768742Y-67441000D01*
X119591258Y-67441000D01*
X119566488Y-67436073D01*
X119417188Y-67406376D01*
X119253216Y-67338456D01*
X119105646Y-67239853D01*
X118980147Y-67114354D01*
X118881544Y-66966784D01*
X118813624Y-66802812D01*
X118779000Y-66628741D01*
X118779000Y-66451259D01*
X118813624Y-66277188D01*
X118881544Y-66113216D01*
X118980147Y-65965646D01*
X119105646Y-65840147D01*
X119253216Y-65741544D01*
X119417188Y-65673624D01*
X119566488Y-65643927D01*
X119591258Y-65639000D01*
X119768742Y-65639000D01*
X119793512Y-65643927D01*
G37*
G36*
X117253512Y-65643927D02*
G01*
X117402812Y-65673624D01*
X117566784Y-65741544D01*
X117714354Y-65840147D01*
X117839853Y-65965646D01*
X117938456Y-66113216D01*
X118006376Y-66277188D01*
X118041000Y-66451259D01*
X118041000Y-66628741D01*
X118006376Y-66802812D01*
X117938456Y-66966784D01*
X117839853Y-67114354D01*
X117714354Y-67239853D01*
X117566784Y-67338456D01*
X117402812Y-67406376D01*
X117253512Y-67436073D01*
X117228742Y-67441000D01*
X117051258Y-67441000D01*
X117026488Y-67436073D01*
X116877188Y-67406376D01*
X116713216Y-67338456D01*
X116565646Y-67239853D01*
X116440147Y-67114354D01*
X116341544Y-66966784D01*
X116273624Y-66802812D01*
X116239000Y-66628741D01*
X116239000Y-66451259D01*
X116273624Y-66277188D01*
X116341544Y-66113216D01*
X116440147Y-65965646D01*
X116565646Y-65840147D01*
X116713216Y-65741544D01*
X116877188Y-65673624D01*
X117026488Y-65643927D01*
X117051258Y-65639000D01*
X117228742Y-65639000D01*
X117253512Y-65643927D01*
G37*
G36*
X137573512Y-65643927D02*
G01*
X137722812Y-65673624D01*
X137886784Y-65741544D01*
X138034354Y-65840147D01*
X138159853Y-65965646D01*
X138258456Y-66113216D01*
X138326376Y-66277188D01*
X138361000Y-66451259D01*
X138361000Y-66628741D01*
X138326376Y-66802812D01*
X138258456Y-66966784D01*
X138159853Y-67114354D01*
X138034354Y-67239853D01*
X137886784Y-67338456D01*
X137722812Y-67406376D01*
X137573512Y-67436073D01*
X137548742Y-67441000D01*
X137371258Y-67441000D01*
X137346488Y-67436073D01*
X137197188Y-67406376D01*
X137033216Y-67338456D01*
X136885646Y-67239853D01*
X136760147Y-67114354D01*
X136661544Y-66966784D01*
X136593624Y-66802812D01*
X136559000Y-66628741D01*
X136559000Y-66451259D01*
X136593624Y-66277188D01*
X136661544Y-66113216D01*
X136760147Y-65965646D01*
X136885646Y-65840147D01*
X137033216Y-65741544D01*
X137197188Y-65673624D01*
X137346488Y-65643927D01*
X137371258Y-65639000D01*
X137548742Y-65639000D01*
X137573512Y-65643927D01*
G37*
G36*
X112173512Y-65643927D02*
G01*
X112322812Y-65673624D01*
X112486784Y-65741544D01*
X112634354Y-65840147D01*
X112759853Y-65965646D01*
X112858456Y-66113216D01*
X112926376Y-66277188D01*
X112961000Y-66451259D01*
X112961000Y-66628741D01*
X112926376Y-66802812D01*
X112858456Y-66966784D01*
X112759853Y-67114354D01*
X112634354Y-67239853D01*
X112486784Y-67338456D01*
X112322812Y-67406376D01*
X112173512Y-67436073D01*
X112148742Y-67441000D01*
X111971258Y-67441000D01*
X111946488Y-67436073D01*
X111797188Y-67406376D01*
X111633216Y-67338456D01*
X111485646Y-67239853D01*
X111360147Y-67114354D01*
X111261544Y-66966784D01*
X111193624Y-66802812D01*
X111159000Y-66628741D01*
X111159000Y-66451259D01*
X111193624Y-66277188D01*
X111261544Y-66113216D01*
X111360147Y-65965646D01*
X111485646Y-65840147D01*
X111633216Y-65741544D01*
X111797188Y-65673624D01*
X111946488Y-65643927D01*
X111971258Y-65639000D01*
X112148742Y-65639000D01*
X112173512Y-65643927D01*
G37*
G36*
X135033512Y-65643927D02*
G01*
X135182812Y-65673624D01*
X135346784Y-65741544D01*
X135494354Y-65840147D01*
X135619853Y-65965646D01*
X135718456Y-66113216D01*
X135786376Y-66277188D01*
X135821000Y-66451259D01*
X135821000Y-66628741D01*
X135786376Y-66802812D01*
X135718456Y-66966784D01*
X135619853Y-67114354D01*
X135494354Y-67239853D01*
X135346784Y-67338456D01*
X135182812Y-67406376D01*
X135033512Y-67436073D01*
X135008742Y-67441000D01*
X134831258Y-67441000D01*
X134806488Y-67436073D01*
X134657188Y-67406376D01*
X134493216Y-67338456D01*
X134345646Y-67239853D01*
X134220147Y-67114354D01*
X134121544Y-66966784D01*
X134053624Y-66802812D01*
X134019000Y-66628741D01*
X134019000Y-66451259D01*
X134053624Y-66277188D01*
X134121544Y-66113216D01*
X134220147Y-65965646D01*
X134345646Y-65840147D01*
X134493216Y-65741544D01*
X134657188Y-65673624D01*
X134806488Y-65643927D01*
X134831258Y-65639000D01*
X135008742Y-65639000D01*
X135033512Y-65643927D01*
G37*
G36*
X132493512Y-65643927D02*
G01*
X132642812Y-65673624D01*
X132806784Y-65741544D01*
X132954354Y-65840147D01*
X133079853Y-65965646D01*
X133178456Y-66113216D01*
X133246376Y-66277188D01*
X133281000Y-66451259D01*
X133281000Y-66628741D01*
X133246376Y-66802812D01*
X133178456Y-66966784D01*
X133079853Y-67114354D01*
X132954354Y-67239853D01*
X132806784Y-67338456D01*
X132642812Y-67406376D01*
X132493512Y-67436073D01*
X132468742Y-67441000D01*
X132291258Y-67441000D01*
X132266488Y-67436073D01*
X132117188Y-67406376D01*
X131953216Y-67338456D01*
X131805646Y-67239853D01*
X131680147Y-67114354D01*
X131581544Y-66966784D01*
X131513624Y-66802812D01*
X131479000Y-66628741D01*
X131479000Y-66451259D01*
X131513624Y-66277188D01*
X131581544Y-66113216D01*
X131680147Y-65965646D01*
X131805646Y-65840147D01*
X131953216Y-65741544D01*
X132117188Y-65673624D01*
X132266488Y-65643927D01*
X132291258Y-65639000D01*
X132468742Y-65639000D01*
X132493512Y-65643927D01*
G37*
G36*
X129953512Y-65643927D02*
G01*
X130102812Y-65673624D01*
X130266784Y-65741544D01*
X130414354Y-65840147D01*
X130539853Y-65965646D01*
X130638456Y-66113216D01*
X130706376Y-66277188D01*
X130741000Y-66451259D01*
X130741000Y-66628741D01*
X130706376Y-66802812D01*
X130638456Y-66966784D01*
X130539853Y-67114354D01*
X130414354Y-67239853D01*
X130266784Y-67338456D01*
X130102812Y-67406376D01*
X129953512Y-67436073D01*
X129928742Y-67441000D01*
X129751258Y-67441000D01*
X129726488Y-67436073D01*
X129577188Y-67406376D01*
X129413216Y-67338456D01*
X129265646Y-67239853D01*
X129140147Y-67114354D01*
X129041544Y-66966784D01*
X128973624Y-66802812D01*
X128939000Y-66628741D01*
X128939000Y-66451259D01*
X128973624Y-66277188D01*
X129041544Y-66113216D01*
X129140147Y-65965646D01*
X129265646Y-65840147D01*
X129413216Y-65741544D01*
X129577188Y-65673624D01*
X129726488Y-65643927D01*
X129751258Y-65639000D01*
X129928742Y-65639000D01*
X129953512Y-65643927D01*
G37*
G36*
X127413512Y-65643927D02*
G01*
X127562812Y-65673624D01*
X127726784Y-65741544D01*
X127874354Y-65840147D01*
X127999853Y-65965646D01*
X128098456Y-66113216D01*
X128166376Y-66277188D01*
X128201000Y-66451259D01*
X128201000Y-66628741D01*
X128166376Y-66802812D01*
X128098456Y-66966784D01*
X127999853Y-67114354D01*
X127874354Y-67239853D01*
X127726784Y-67338456D01*
X127562812Y-67406376D01*
X127413512Y-67436073D01*
X127388742Y-67441000D01*
X127211258Y-67441000D01*
X127186488Y-67436073D01*
X127037188Y-67406376D01*
X126873216Y-67338456D01*
X126725646Y-67239853D01*
X126600147Y-67114354D01*
X126501544Y-66966784D01*
X126433624Y-66802812D01*
X126399000Y-66628741D01*
X126399000Y-66451259D01*
X126433624Y-66277188D01*
X126501544Y-66113216D01*
X126600147Y-65965646D01*
X126725646Y-65840147D01*
X126873216Y-65741544D01*
X127037188Y-65673624D01*
X127186488Y-65643927D01*
X127211258Y-65639000D01*
X127388742Y-65639000D01*
X127413512Y-65643927D01*
G37*
G36*
X124873512Y-65643927D02*
G01*
X125022812Y-65673624D01*
X125186784Y-65741544D01*
X125334354Y-65840147D01*
X125459853Y-65965646D01*
X125558456Y-66113216D01*
X125626376Y-66277188D01*
X125661000Y-66451259D01*
X125661000Y-66628741D01*
X125626376Y-66802812D01*
X125558456Y-66966784D01*
X125459853Y-67114354D01*
X125334354Y-67239853D01*
X125186784Y-67338456D01*
X125022812Y-67406376D01*
X124873512Y-67436073D01*
X124848742Y-67441000D01*
X124671258Y-67441000D01*
X124646488Y-67436073D01*
X124497188Y-67406376D01*
X124333216Y-67338456D01*
X124185646Y-67239853D01*
X124060147Y-67114354D01*
X123961544Y-66966784D01*
X123893624Y-66802812D01*
X123859000Y-66628741D01*
X123859000Y-66451259D01*
X123893624Y-66277188D01*
X123961544Y-66113216D01*
X124060147Y-65965646D01*
X124185646Y-65840147D01*
X124333216Y-65741544D01*
X124497188Y-65673624D01*
X124646488Y-65643927D01*
X124671258Y-65639000D01*
X124848742Y-65639000D01*
X124873512Y-65643927D01*
G37*
G36*
X122333512Y-65643927D02*
G01*
X122482812Y-65673624D01*
X122646784Y-65741544D01*
X122794354Y-65840147D01*
X122919853Y-65965646D01*
X123018456Y-66113216D01*
X123086376Y-66277188D01*
X123121000Y-66451259D01*
X123121000Y-66628741D01*
X123086376Y-66802812D01*
X123018456Y-66966784D01*
X122919853Y-67114354D01*
X122794354Y-67239853D01*
X122646784Y-67338456D01*
X122482812Y-67406376D01*
X122333512Y-67436073D01*
X122308742Y-67441000D01*
X122131258Y-67441000D01*
X122106488Y-67436073D01*
X121957188Y-67406376D01*
X121793216Y-67338456D01*
X121645646Y-67239853D01*
X121520147Y-67114354D01*
X121421544Y-66966784D01*
X121353624Y-66802812D01*
X121319000Y-66628741D01*
X121319000Y-66451259D01*
X121353624Y-66277188D01*
X121421544Y-66113216D01*
X121520147Y-65965646D01*
X121645646Y-65840147D01*
X121793216Y-65741544D01*
X121957188Y-65673624D01*
X122106488Y-65643927D01*
X122131258Y-65639000D01*
X122308742Y-65639000D01*
X122333512Y-65643927D01*
G37*
G36*
X135033512Y-63103927D02*
G01*
X135182812Y-63133624D01*
X135346784Y-63201544D01*
X135494354Y-63300147D01*
X135619853Y-63425646D01*
X135718456Y-63573216D01*
X135786376Y-63737188D01*
X135821000Y-63911259D01*
X135821000Y-64088741D01*
X135786376Y-64262812D01*
X135718456Y-64426784D01*
X135619853Y-64574354D01*
X135494354Y-64699853D01*
X135346784Y-64798456D01*
X135182812Y-64866376D01*
X135033512Y-64896073D01*
X135008742Y-64901000D01*
X134831258Y-64901000D01*
X134806488Y-64896073D01*
X134657188Y-64866376D01*
X134493216Y-64798456D01*
X134345646Y-64699853D01*
X134220147Y-64574354D01*
X134121544Y-64426784D01*
X134053624Y-64262812D01*
X134019000Y-64088741D01*
X134019000Y-63911259D01*
X134053624Y-63737188D01*
X134121544Y-63573216D01*
X134220147Y-63425646D01*
X134345646Y-63300147D01*
X134493216Y-63201544D01*
X134657188Y-63133624D01*
X134806488Y-63103927D01*
X134831258Y-63099000D01*
X135008742Y-63099000D01*
X135033512Y-63103927D01*
G37*
G36*
X129953512Y-63103927D02*
G01*
X130102812Y-63133624D01*
X130266784Y-63201544D01*
X130414354Y-63300147D01*
X130539853Y-63425646D01*
X130638456Y-63573216D01*
X130706376Y-63737188D01*
X130741000Y-63911259D01*
X130741000Y-64088741D01*
X130706376Y-64262812D01*
X130638456Y-64426784D01*
X130539853Y-64574354D01*
X130414354Y-64699853D01*
X130266784Y-64798456D01*
X130102812Y-64866376D01*
X129953512Y-64896073D01*
X129928742Y-64901000D01*
X129751258Y-64901000D01*
X129726488Y-64896073D01*
X129577188Y-64866376D01*
X129413216Y-64798456D01*
X129265646Y-64699853D01*
X129140147Y-64574354D01*
X129041544Y-64426784D01*
X128973624Y-64262812D01*
X128939000Y-64088741D01*
X128939000Y-63911259D01*
X128973624Y-63737188D01*
X129041544Y-63573216D01*
X129140147Y-63425646D01*
X129265646Y-63300147D01*
X129413216Y-63201544D01*
X129577188Y-63133624D01*
X129726488Y-63103927D01*
X129751258Y-63099000D01*
X129928742Y-63099000D01*
X129953512Y-63103927D01*
G37*
G36*
X127413512Y-63103927D02*
G01*
X127562812Y-63133624D01*
X127726784Y-63201544D01*
X127874354Y-63300147D01*
X127999853Y-63425646D01*
X128098456Y-63573216D01*
X128166376Y-63737188D01*
X128201000Y-63911259D01*
X128201000Y-64088741D01*
X128166376Y-64262812D01*
X128098456Y-64426784D01*
X127999853Y-64574354D01*
X127874354Y-64699853D01*
X127726784Y-64798456D01*
X127562812Y-64866376D01*
X127413512Y-64896073D01*
X127388742Y-64901000D01*
X127211258Y-64901000D01*
X127186488Y-64896073D01*
X127037188Y-64866376D01*
X126873216Y-64798456D01*
X126725646Y-64699853D01*
X126600147Y-64574354D01*
X126501544Y-64426784D01*
X126433624Y-64262812D01*
X126399000Y-64088741D01*
X126399000Y-63911259D01*
X126433624Y-63737188D01*
X126501544Y-63573216D01*
X126600147Y-63425646D01*
X126725646Y-63300147D01*
X126873216Y-63201544D01*
X127037188Y-63133624D01*
X127186488Y-63103927D01*
X127211258Y-63099000D01*
X127388742Y-63099000D01*
X127413512Y-63103927D01*
G37*
G36*
X124873512Y-63103927D02*
G01*
X125022812Y-63133624D01*
X125186784Y-63201544D01*
X125334354Y-63300147D01*
X125459853Y-63425646D01*
X125558456Y-63573216D01*
X125626376Y-63737188D01*
X125661000Y-63911259D01*
X125661000Y-64088741D01*
X125626376Y-64262812D01*
X125558456Y-64426784D01*
X125459853Y-64574354D01*
X125334354Y-64699853D01*
X125186784Y-64798456D01*
X125022812Y-64866376D01*
X124873512Y-64896073D01*
X124848742Y-64901000D01*
X124671258Y-64901000D01*
X124646488Y-64896073D01*
X124497188Y-64866376D01*
X124333216Y-64798456D01*
X124185646Y-64699853D01*
X124060147Y-64574354D01*
X123961544Y-64426784D01*
X123893624Y-64262812D01*
X123859000Y-64088741D01*
X123859000Y-63911259D01*
X123893624Y-63737188D01*
X123961544Y-63573216D01*
X124060147Y-63425646D01*
X124185646Y-63300147D01*
X124333216Y-63201544D01*
X124497188Y-63133624D01*
X124646488Y-63103927D01*
X124671258Y-63099000D01*
X124848742Y-63099000D01*
X124873512Y-63103927D01*
G37*
G36*
X122333512Y-63103927D02*
G01*
X122482812Y-63133624D01*
X122646784Y-63201544D01*
X122794354Y-63300147D01*
X122919853Y-63425646D01*
X123018456Y-63573216D01*
X123086376Y-63737188D01*
X123121000Y-63911259D01*
X123121000Y-64088741D01*
X123086376Y-64262812D01*
X123018456Y-64426784D01*
X122919853Y-64574354D01*
X122794354Y-64699853D01*
X122646784Y-64798456D01*
X122482812Y-64866376D01*
X122333512Y-64896073D01*
X122308742Y-64901000D01*
X122131258Y-64901000D01*
X122106488Y-64896073D01*
X121957188Y-64866376D01*
X121793216Y-64798456D01*
X121645646Y-64699853D01*
X121520147Y-64574354D01*
X121421544Y-64426784D01*
X121353624Y-64262812D01*
X121319000Y-64088741D01*
X121319000Y-63911259D01*
X121353624Y-63737188D01*
X121421544Y-63573216D01*
X121520147Y-63425646D01*
X121645646Y-63300147D01*
X121793216Y-63201544D01*
X121957188Y-63133624D01*
X122106488Y-63103927D01*
X122131258Y-63099000D01*
X122308742Y-63099000D01*
X122333512Y-63103927D01*
G37*
G36*
X119793512Y-63103927D02*
G01*
X119942812Y-63133624D01*
X120106784Y-63201544D01*
X120254354Y-63300147D01*
X120379853Y-63425646D01*
X120478456Y-63573216D01*
X120546376Y-63737188D01*
X120581000Y-63911259D01*
X120581000Y-64088741D01*
X120546376Y-64262812D01*
X120478456Y-64426784D01*
X120379853Y-64574354D01*
X120254354Y-64699853D01*
X120106784Y-64798456D01*
X119942812Y-64866376D01*
X119793512Y-64896073D01*
X119768742Y-64901000D01*
X119591258Y-64901000D01*
X119566488Y-64896073D01*
X119417188Y-64866376D01*
X119253216Y-64798456D01*
X119105646Y-64699853D01*
X118980147Y-64574354D01*
X118881544Y-64426784D01*
X118813624Y-64262812D01*
X118779000Y-64088741D01*
X118779000Y-63911259D01*
X118813624Y-63737188D01*
X118881544Y-63573216D01*
X118980147Y-63425646D01*
X119105646Y-63300147D01*
X119253216Y-63201544D01*
X119417188Y-63133624D01*
X119566488Y-63103927D01*
X119591258Y-63099000D01*
X119768742Y-63099000D01*
X119793512Y-63103927D01*
G37*
G36*
X117253512Y-63103927D02*
G01*
X117402812Y-63133624D01*
X117566784Y-63201544D01*
X117714354Y-63300147D01*
X117839853Y-63425646D01*
X117938456Y-63573216D01*
X118006376Y-63737188D01*
X118041000Y-63911259D01*
X118041000Y-64088741D01*
X118006376Y-64262812D01*
X117938456Y-64426784D01*
X117839853Y-64574354D01*
X117714354Y-64699853D01*
X117566784Y-64798456D01*
X117402812Y-64866376D01*
X117253512Y-64896073D01*
X117228742Y-64901000D01*
X117051258Y-64901000D01*
X117026488Y-64896073D01*
X116877188Y-64866376D01*
X116713216Y-64798456D01*
X116565646Y-64699853D01*
X116440147Y-64574354D01*
X116341544Y-64426784D01*
X116273624Y-64262812D01*
X116239000Y-64088741D01*
X116239000Y-63911259D01*
X116273624Y-63737188D01*
X116341544Y-63573216D01*
X116440147Y-63425646D01*
X116565646Y-63300147D01*
X116713216Y-63201544D01*
X116877188Y-63133624D01*
X117026488Y-63103927D01*
X117051258Y-63099000D01*
X117228742Y-63099000D01*
X117253512Y-63103927D01*
G37*
G36*
X114713512Y-63103927D02*
G01*
X114862812Y-63133624D01*
X115026784Y-63201544D01*
X115174354Y-63300147D01*
X115299853Y-63425646D01*
X115398456Y-63573216D01*
X115466376Y-63737188D01*
X115501000Y-63911259D01*
X115501000Y-64088741D01*
X115466376Y-64262812D01*
X115398456Y-64426784D01*
X115299853Y-64574354D01*
X115174354Y-64699853D01*
X115026784Y-64798456D01*
X114862812Y-64866376D01*
X114713512Y-64896073D01*
X114688742Y-64901000D01*
X114511258Y-64901000D01*
X114486488Y-64896073D01*
X114337188Y-64866376D01*
X114173216Y-64798456D01*
X114025646Y-64699853D01*
X113900147Y-64574354D01*
X113801544Y-64426784D01*
X113733624Y-64262812D01*
X113699000Y-64088741D01*
X113699000Y-63911259D01*
X113733624Y-63737188D01*
X113801544Y-63573216D01*
X113900147Y-63425646D01*
X114025646Y-63300147D01*
X114173216Y-63201544D01*
X114337188Y-63133624D01*
X114486488Y-63103927D01*
X114511258Y-63099000D01*
X114688742Y-63099000D01*
X114713512Y-63103927D01*
G37*
G36*
X112173512Y-63103927D02*
G01*
X112322812Y-63133624D01*
X112486784Y-63201544D01*
X112634354Y-63300147D01*
X112759853Y-63425646D01*
X112858456Y-63573216D01*
X112926376Y-63737188D01*
X112961000Y-63911259D01*
X112961000Y-64088741D01*
X112926376Y-64262812D01*
X112858456Y-64426784D01*
X112759853Y-64574354D01*
X112634354Y-64699853D01*
X112486784Y-64798456D01*
X112322812Y-64866376D01*
X112173512Y-64896073D01*
X112148742Y-64901000D01*
X111971258Y-64901000D01*
X111946488Y-64896073D01*
X111797188Y-64866376D01*
X111633216Y-64798456D01*
X111485646Y-64699853D01*
X111360147Y-64574354D01*
X111261544Y-64426784D01*
X111193624Y-64262812D01*
X111159000Y-64088741D01*
X111159000Y-63911259D01*
X111193624Y-63737188D01*
X111261544Y-63573216D01*
X111360147Y-63425646D01*
X111485646Y-63300147D01*
X111633216Y-63201544D01*
X111797188Y-63133624D01*
X111946488Y-63103927D01*
X111971258Y-63099000D01*
X112148742Y-63099000D01*
X112173512Y-63103927D01*
G37*
G36*
X109633512Y-63103927D02*
G01*
X109782812Y-63133624D01*
X109946784Y-63201544D01*
X110094354Y-63300147D01*
X110219853Y-63425646D01*
X110318456Y-63573216D01*
X110386376Y-63737188D01*
X110421000Y-63911259D01*
X110421000Y-64088741D01*
X110386376Y-64262812D01*
X110318456Y-64426784D01*
X110219853Y-64574354D01*
X110094354Y-64699853D01*
X109946784Y-64798456D01*
X109782812Y-64866376D01*
X109633512Y-64896073D01*
X109608742Y-64901000D01*
X109431258Y-64901000D01*
X109406488Y-64896073D01*
X109257188Y-64866376D01*
X109093216Y-64798456D01*
X108945646Y-64699853D01*
X108820147Y-64574354D01*
X108721544Y-64426784D01*
X108653624Y-64262812D01*
X108619000Y-64088741D01*
X108619000Y-63911259D01*
X108653624Y-63737188D01*
X108721544Y-63573216D01*
X108820147Y-63425646D01*
X108945646Y-63300147D01*
X109093216Y-63201544D01*
X109257188Y-63133624D01*
X109406488Y-63103927D01*
X109431258Y-63099000D01*
X109608742Y-63099000D01*
X109633512Y-63103927D01*
G37*
G36*
X107093512Y-63103927D02*
G01*
X107242812Y-63133624D01*
X107406784Y-63201544D01*
X107554354Y-63300147D01*
X107679853Y-63425646D01*
X107778456Y-63573216D01*
X107846376Y-63737188D01*
X107881000Y-63911259D01*
X107881000Y-64088741D01*
X107846376Y-64262812D01*
X107778456Y-64426784D01*
X107679853Y-64574354D01*
X107554354Y-64699853D01*
X107406784Y-64798456D01*
X107242812Y-64866376D01*
X107093512Y-64896073D01*
X107068742Y-64901000D01*
X106891258Y-64901000D01*
X106866488Y-64896073D01*
X106717188Y-64866376D01*
X106553216Y-64798456D01*
X106405646Y-64699853D01*
X106280147Y-64574354D01*
X106181544Y-64426784D01*
X106113624Y-64262812D01*
X106079000Y-64088741D01*
X106079000Y-63911259D01*
X106113624Y-63737188D01*
X106181544Y-63573216D01*
X106280147Y-63425646D01*
X106405646Y-63300147D01*
X106553216Y-63201544D01*
X106717188Y-63133624D01*
X106866488Y-63103927D01*
X106891258Y-63099000D01*
X107068742Y-63099000D01*
X107093512Y-63103927D01*
G37*
G36*
X104553512Y-63103927D02*
G01*
X104702812Y-63133624D01*
X104866784Y-63201544D01*
X105014354Y-63300147D01*
X105139853Y-63425646D01*
X105238456Y-63573216D01*
X105306376Y-63737188D01*
X105341000Y-63911259D01*
X105341000Y-64088741D01*
X105306376Y-64262812D01*
X105238456Y-64426784D01*
X105139853Y-64574354D01*
X105014354Y-64699853D01*
X104866784Y-64798456D01*
X104702812Y-64866376D01*
X104553512Y-64896073D01*
X104528742Y-64901000D01*
X104351258Y-64901000D01*
X104326488Y-64896073D01*
X104177188Y-64866376D01*
X104013216Y-64798456D01*
X103865646Y-64699853D01*
X103740147Y-64574354D01*
X103641544Y-64426784D01*
X103573624Y-64262812D01*
X103539000Y-64088741D01*
X103539000Y-63911259D01*
X103573624Y-63737188D01*
X103641544Y-63573216D01*
X103740147Y-63425646D01*
X103865646Y-63300147D01*
X104013216Y-63201544D01*
X104177188Y-63133624D01*
X104326488Y-63103927D01*
X104351258Y-63099000D01*
X104528742Y-63099000D01*
X104553512Y-63103927D01*
G37*
G36*
X102013512Y-63103927D02*
G01*
X102162812Y-63133624D01*
X102326784Y-63201544D01*
X102474354Y-63300147D01*
X102599853Y-63425646D01*
X102698456Y-63573216D01*
X102766376Y-63737188D01*
X102801000Y-63911259D01*
X102801000Y-64088741D01*
X102766376Y-64262812D01*
X102698456Y-64426784D01*
X102599853Y-64574354D01*
X102474354Y-64699853D01*
X102326784Y-64798456D01*
X102162812Y-64866376D01*
X102013512Y-64896073D01*
X101988742Y-64901000D01*
X101811258Y-64901000D01*
X101786488Y-64896073D01*
X101637188Y-64866376D01*
X101473216Y-64798456D01*
X101325646Y-64699853D01*
X101200147Y-64574354D01*
X101101544Y-64426784D01*
X101033624Y-64262812D01*
X100999000Y-64088741D01*
X100999000Y-63911259D01*
X101033624Y-63737188D01*
X101101544Y-63573216D01*
X101200147Y-63425646D01*
X101325646Y-63300147D01*
X101473216Y-63201544D01*
X101637188Y-63133624D01*
X101786488Y-63103927D01*
X101811258Y-63099000D01*
X101988742Y-63099000D01*
X102013512Y-63103927D01*
G37*
G36*
X132493512Y-63103927D02*
G01*
X132642812Y-63133624D01*
X132806784Y-63201544D01*
X132954354Y-63300147D01*
X133079853Y-63425646D01*
X133178456Y-63573216D01*
X133246376Y-63737188D01*
X133281000Y-63911259D01*
X133281000Y-64088741D01*
X133246376Y-64262812D01*
X133178456Y-64426784D01*
X133079853Y-64574354D01*
X132954354Y-64699853D01*
X132806784Y-64798456D01*
X132642812Y-64866376D01*
X132493512Y-64896073D01*
X132468742Y-64901000D01*
X132291258Y-64901000D01*
X132266488Y-64896073D01*
X132117188Y-64866376D01*
X131953216Y-64798456D01*
X131805646Y-64699853D01*
X131680147Y-64574354D01*
X131581544Y-64426784D01*
X131513624Y-64262812D01*
X131479000Y-64088741D01*
X131479000Y-63911259D01*
X131513624Y-63737188D01*
X131581544Y-63573216D01*
X131680147Y-63425646D01*
X131805646Y-63300147D01*
X131953216Y-63201544D01*
X132117188Y-63133624D01*
X132266488Y-63103927D01*
X132291258Y-63099000D01*
X132468742Y-63099000D01*
X132493512Y-63103927D01*
G37*
G36*
X96933512Y-63103927D02*
G01*
X97082812Y-63133624D01*
X97246784Y-63201544D01*
X97394354Y-63300147D01*
X97519853Y-63425646D01*
X97618456Y-63573216D01*
X97686376Y-63737188D01*
X97721000Y-63911259D01*
X97721000Y-64088741D01*
X97686376Y-64262812D01*
X97618456Y-64426784D01*
X97519853Y-64574354D01*
X97394354Y-64699853D01*
X97246784Y-64798456D01*
X97082812Y-64866376D01*
X96933512Y-64896073D01*
X96908742Y-64901000D01*
X96731258Y-64901000D01*
X96706488Y-64896073D01*
X96557188Y-64866376D01*
X96393216Y-64798456D01*
X96245646Y-64699853D01*
X96120147Y-64574354D01*
X96021544Y-64426784D01*
X95953624Y-64262812D01*
X95919000Y-64088741D01*
X95919000Y-63911259D01*
X95953624Y-63737188D01*
X96021544Y-63573216D01*
X96120147Y-63425646D01*
X96245646Y-63300147D01*
X96393216Y-63201544D01*
X96557188Y-63133624D01*
X96706488Y-63103927D01*
X96731258Y-63099000D01*
X96908742Y-63099000D01*
X96933512Y-63103927D01*
G37*
G36*
X94393512Y-63103927D02*
G01*
X94542812Y-63133624D01*
X94706784Y-63201544D01*
X94854354Y-63300147D01*
X94979853Y-63425646D01*
X95078456Y-63573216D01*
X95146376Y-63737188D01*
X95181000Y-63911259D01*
X95181000Y-64088741D01*
X95146376Y-64262812D01*
X95078456Y-64426784D01*
X94979853Y-64574354D01*
X94854354Y-64699853D01*
X94706784Y-64798456D01*
X94542812Y-64866376D01*
X94393512Y-64896073D01*
X94368742Y-64901000D01*
X94191258Y-64901000D01*
X94166488Y-64896073D01*
X94017188Y-64866376D01*
X93853216Y-64798456D01*
X93705646Y-64699853D01*
X93580147Y-64574354D01*
X93481544Y-64426784D01*
X93413624Y-64262812D01*
X93379000Y-64088741D01*
X93379000Y-63911259D01*
X93413624Y-63737188D01*
X93481544Y-63573216D01*
X93580147Y-63425646D01*
X93705646Y-63300147D01*
X93853216Y-63201544D01*
X94017188Y-63133624D01*
X94166488Y-63103927D01*
X94191258Y-63099000D01*
X94368742Y-63099000D01*
X94393512Y-63103927D01*
G37*
G36*
X91853512Y-63103927D02*
G01*
X92002812Y-63133624D01*
X92166784Y-63201544D01*
X92314354Y-63300147D01*
X92439853Y-63425646D01*
X92538456Y-63573216D01*
X92606376Y-63737188D01*
X92641000Y-63911259D01*
X92641000Y-64088741D01*
X92606376Y-64262812D01*
X92538456Y-64426784D01*
X92439853Y-64574354D01*
X92314354Y-64699853D01*
X92166784Y-64798456D01*
X92002812Y-64866376D01*
X91853512Y-64896073D01*
X91828742Y-64901000D01*
X91651258Y-64901000D01*
X91626488Y-64896073D01*
X91477188Y-64866376D01*
X91313216Y-64798456D01*
X91165646Y-64699853D01*
X91040147Y-64574354D01*
X90941544Y-64426784D01*
X90873624Y-64262812D01*
X90839000Y-64088741D01*
X90839000Y-63911259D01*
X90873624Y-63737188D01*
X90941544Y-63573216D01*
X91040147Y-63425646D01*
X91165646Y-63300147D01*
X91313216Y-63201544D01*
X91477188Y-63133624D01*
X91626488Y-63103927D01*
X91651258Y-63099000D01*
X91828742Y-63099000D01*
X91853512Y-63103927D01*
G37*
G36*
X137573512Y-63103927D02*
G01*
X137722812Y-63133624D01*
X137886784Y-63201544D01*
X138034354Y-63300147D01*
X138159853Y-63425646D01*
X138258456Y-63573216D01*
X138326376Y-63737188D01*
X138361000Y-63911259D01*
X138361000Y-64088741D01*
X138326376Y-64262812D01*
X138258456Y-64426784D01*
X138159853Y-64574354D01*
X138034354Y-64699853D01*
X137886784Y-64798456D01*
X137722812Y-64866376D01*
X137573512Y-64896073D01*
X137548742Y-64901000D01*
X137371258Y-64901000D01*
X137346488Y-64896073D01*
X137197188Y-64866376D01*
X137033216Y-64798456D01*
X136885646Y-64699853D01*
X136760147Y-64574354D01*
X136661544Y-64426784D01*
X136593624Y-64262812D01*
X136559000Y-64088741D01*
X136559000Y-63911259D01*
X136593624Y-63737188D01*
X136661544Y-63573216D01*
X136760147Y-63425646D01*
X136885646Y-63300147D01*
X137033216Y-63201544D01*
X137197188Y-63133624D01*
X137346488Y-63103927D01*
X137371258Y-63099000D01*
X137548742Y-63099000D01*
X137573512Y-63103927D01*
G37*
G36*
X140901000Y-64901000D02*
G01*
X139099000Y-64901000D01*
X139099000Y-63099000D01*
X140901000Y-63099000D01*
X140901000Y-64901000D01*
G37*
G36*
X99473512Y-63103927D02*
G01*
X99622812Y-63133624D01*
X99786784Y-63201544D01*
X99934354Y-63300147D01*
X100059853Y-63425646D01*
X100158456Y-63573216D01*
X100226376Y-63737188D01*
X100261000Y-63911259D01*
X100261000Y-64088741D01*
X100226376Y-64262812D01*
X100158456Y-64426784D01*
X100059853Y-64574354D01*
X99934354Y-64699853D01*
X99786784Y-64798456D01*
X99622812Y-64866376D01*
X99473512Y-64896073D01*
X99448742Y-64901000D01*
X99271258Y-64901000D01*
X99246488Y-64896073D01*
X99097188Y-64866376D01*
X98933216Y-64798456D01*
X98785646Y-64699853D01*
X98660147Y-64574354D01*
X98561544Y-64426784D01*
X98493624Y-64262812D01*
X98459000Y-64088741D01*
X98459000Y-63911259D01*
X98493624Y-63737188D01*
X98561544Y-63573216D01*
X98660147Y-63425646D01*
X98785646Y-63300147D01*
X98933216Y-63201544D01*
X99097188Y-63133624D01*
X99246488Y-63103927D01*
X99271258Y-63099000D01*
X99448742Y-63099000D01*
X99473512Y-63103927D01*
G37*
M02*
