G04 #@! TF.GenerationSoftware,KiCad,Pcbnew,(5.1.5)-3*
G04 #@! TF.CreationDate,2021-09-16T15:53:37+03:00*
G04 #@! TF.ProjectId,ISARPiv2,49534152-5069-4763-922e-6b696361645f,rev?*
G04 #@! TF.SameCoordinates,Original*
G04 #@! TF.FileFunction,Legend,Top*
G04 #@! TF.FilePolarity,Positive*
%FSLAX46Y46*%
G04 Gerber Fmt 4.6, Leading zero omitted, Abs format (unit mm)*
G04 Created by KiCad (PCBNEW (5.1.5)-3) date 2021-09-16 15:53:37*
%MOMM*%
%LPD*%
G04 APERTURE LIST*
%ADD10C,0.200000*%
%ADD11C,0.100000*%
%ADD12C,0.120000*%
%ADD13C,0.254000*%
%ADD14C,0.150000*%
G04 APERTURE END LIST*
D10*
X102000000Y-71000000D02*
G75*
G02X102200000Y-71000000I100000J0D01*
G01*
X102200000Y-71000000D02*
G75*
G02X102000000Y-71000000I-100000J0D01*
G01*
X102200000Y-71000000D02*
X102200000Y-71000000D01*
X102000000Y-71000000D02*
X102000000Y-71000000D01*
D11*
X104540000Y-71460000D02*
X104540000Y-84160000D01*
X91840000Y-71460000D02*
X104540000Y-71460000D01*
X91840000Y-84160000D02*
X91840000Y-71460000D01*
X104540000Y-84160000D02*
X91840000Y-84160000D01*
D12*
X108610000Y-71050000D02*
X108610000Y-81330000D01*
X134250000Y-71050000D02*
X108610000Y-71050000D01*
X134250000Y-81330000D02*
X134250000Y-71050000D01*
X108610000Y-81330000D02*
X134250000Y-81330000D01*
X108670000Y-73540000D02*
X108670000Y-75190000D01*
X134190000Y-73540000D02*
X108670000Y-73540000D01*
X134190000Y-78840000D02*
X134190000Y-73540000D01*
X108670000Y-78840000D02*
X134190000Y-78840000D01*
X108670000Y-77190000D02*
X108670000Y-78840000D01*
X108670000Y-75190000D02*
G75*
G02X108670000Y-77190000I0J-1000000D01*
G01*
X165090000Y-83337221D02*
X165090000Y-83662779D01*
X166110000Y-83337221D02*
X166110000Y-83662779D01*
X162490000Y-83337221D02*
X162490000Y-83662779D01*
X163510000Y-83337221D02*
X163510000Y-83662779D01*
X159990000Y-83337221D02*
X159990000Y-83662779D01*
X161010000Y-83337221D02*
X161010000Y-83662779D01*
X157390000Y-83324721D02*
X157390000Y-83650279D01*
X158410000Y-83324721D02*
X158410000Y-83650279D01*
X154890000Y-83337221D02*
X154890000Y-83662779D01*
X155910000Y-83337221D02*
X155910000Y-83662779D01*
X152390000Y-83337221D02*
X152390000Y-83662779D01*
X153410000Y-83337221D02*
X153410000Y-83662779D01*
X149890000Y-83337221D02*
X149890000Y-83662779D01*
X150910000Y-83337221D02*
X150910000Y-83662779D01*
X147290000Y-83337221D02*
X147290000Y-83662779D01*
X148310000Y-83337221D02*
X148310000Y-83662779D01*
X141330000Y-62670000D02*
X141330000Y-64000000D01*
X140000000Y-62670000D02*
X141330000Y-62670000D01*
X141330000Y-65270000D02*
X141330000Y-67870000D01*
X138730000Y-65270000D02*
X141330000Y-65270000D01*
X138730000Y-62670000D02*
X138730000Y-65270000D01*
X141330000Y-67870000D02*
X90410000Y-67870000D01*
X138730000Y-62670000D02*
X90410000Y-62670000D01*
X90410000Y-62670000D02*
X90410000Y-67870000D01*
D13*
X97585238Y-77499761D02*
X97585238Y-78104523D01*
X97161904Y-76834523D02*
X97585238Y-77499761D01*
X98008571Y-76834523D01*
X99097142Y-78104523D02*
X98371428Y-78104523D01*
X98734285Y-78104523D02*
X98734285Y-76834523D01*
X98613333Y-77015952D01*
X98492380Y-77136904D01*
X98371428Y-77197380D01*
D14*
X107122380Y-76523333D02*
X107836666Y-76523333D01*
X107979523Y-76570952D01*
X108074761Y-76666190D01*
X108122380Y-76809047D01*
X108122380Y-76904285D01*
X107122380Y-76142380D02*
X107122380Y-75523333D01*
X107503333Y-75856666D01*
X107503333Y-75713809D01*
X107550952Y-75618571D01*
X107598571Y-75570952D01*
X107693809Y-75523333D01*
X107931904Y-75523333D01*
X108027142Y-75570952D01*
X108074761Y-75618571D01*
X108122380Y-75713809D01*
X108122380Y-75999523D01*
X108074761Y-76094761D01*
X108027142Y-76142380D01*
X167482380Y-84142857D02*
X167006190Y-84476190D01*
X167482380Y-84714285D02*
X166482380Y-84714285D01*
X166482380Y-84333333D01*
X166530000Y-84238095D01*
X166577619Y-84190476D01*
X166672857Y-84142857D01*
X166815714Y-84142857D01*
X166910952Y-84190476D01*
X166958571Y-84238095D01*
X167006190Y-84333333D01*
X167006190Y-84714285D01*
X167482380Y-83190476D02*
X167482380Y-83761904D01*
X167482380Y-83476190D02*
X166482380Y-83476190D01*
X166625238Y-83571428D01*
X166720476Y-83666666D01*
X166768095Y-83761904D01*
X166482380Y-82857142D02*
X166482380Y-82190476D01*
X167482380Y-82619047D01*
X164882380Y-84142857D02*
X164406190Y-84476190D01*
X164882380Y-84714285D02*
X163882380Y-84714285D01*
X163882380Y-84333333D01*
X163930000Y-84238095D01*
X163977619Y-84190476D01*
X164072857Y-84142857D01*
X164215714Y-84142857D01*
X164310952Y-84190476D01*
X164358571Y-84238095D01*
X164406190Y-84333333D01*
X164406190Y-84714285D01*
X164882380Y-83190476D02*
X164882380Y-83761904D01*
X164882380Y-83476190D02*
X163882380Y-83476190D01*
X164025238Y-83571428D01*
X164120476Y-83666666D01*
X164168095Y-83761904D01*
X163882380Y-82333333D02*
X163882380Y-82523809D01*
X163930000Y-82619047D01*
X163977619Y-82666666D01*
X164120476Y-82761904D01*
X164310952Y-82809523D01*
X164691904Y-82809523D01*
X164787142Y-82761904D01*
X164834761Y-82714285D01*
X164882380Y-82619047D01*
X164882380Y-82428571D01*
X164834761Y-82333333D01*
X164787142Y-82285714D01*
X164691904Y-82238095D01*
X164453809Y-82238095D01*
X164358571Y-82285714D01*
X164310952Y-82333333D01*
X164263333Y-82428571D01*
X164263333Y-82619047D01*
X164310952Y-82714285D01*
X164358571Y-82761904D01*
X164453809Y-82809523D01*
X162382380Y-84142857D02*
X161906190Y-84476190D01*
X162382380Y-84714285D02*
X161382380Y-84714285D01*
X161382380Y-84333333D01*
X161430000Y-84238095D01*
X161477619Y-84190476D01*
X161572857Y-84142857D01*
X161715714Y-84142857D01*
X161810952Y-84190476D01*
X161858571Y-84238095D01*
X161906190Y-84333333D01*
X161906190Y-84714285D01*
X162382380Y-83190476D02*
X162382380Y-83761904D01*
X162382380Y-83476190D02*
X161382380Y-83476190D01*
X161525238Y-83571428D01*
X161620476Y-83666666D01*
X161668095Y-83761904D01*
X161382380Y-82285714D02*
X161382380Y-82761904D01*
X161858571Y-82809523D01*
X161810952Y-82761904D01*
X161763333Y-82666666D01*
X161763333Y-82428571D01*
X161810952Y-82333333D01*
X161858571Y-82285714D01*
X161953809Y-82238095D01*
X162191904Y-82238095D01*
X162287142Y-82285714D01*
X162334761Y-82333333D01*
X162382380Y-82428571D01*
X162382380Y-82666666D01*
X162334761Y-82761904D01*
X162287142Y-82809523D01*
X159782380Y-84130357D02*
X159306190Y-84463690D01*
X159782380Y-84701785D02*
X158782380Y-84701785D01*
X158782380Y-84320833D01*
X158830000Y-84225595D01*
X158877619Y-84177976D01*
X158972857Y-84130357D01*
X159115714Y-84130357D01*
X159210952Y-84177976D01*
X159258571Y-84225595D01*
X159306190Y-84320833D01*
X159306190Y-84701785D01*
X159782380Y-83177976D02*
X159782380Y-83749404D01*
X159782380Y-83463690D02*
X158782380Y-83463690D01*
X158925238Y-83558928D01*
X159020476Y-83654166D01*
X159068095Y-83749404D01*
X159115714Y-82320833D02*
X159782380Y-82320833D01*
X158734761Y-82558928D02*
X159449047Y-82797023D01*
X159449047Y-82177976D01*
X157282380Y-84142857D02*
X156806190Y-84476190D01*
X157282380Y-84714285D02*
X156282380Y-84714285D01*
X156282380Y-84333333D01*
X156330000Y-84238095D01*
X156377619Y-84190476D01*
X156472857Y-84142857D01*
X156615714Y-84142857D01*
X156710952Y-84190476D01*
X156758571Y-84238095D01*
X156806190Y-84333333D01*
X156806190Y-84714285D01*
X157282380Y-83190476D02*
X157282380Y-83761904D01*
X157282380Y-83476190D02*
X156282380Y-83476190D01*
X156425238Y-83571428D01*
X156520476Y-83666666D01*
X156568095Y-83761904D01*
X156282380Y-82857142D02*
X156282380Y-82238095D01*
X156663333Y-82571428D01*
X156663333Y-82428571D01*
X156710952Y-82333333D01*
X156758571Y-82285714D01*
X156853809Y-82238095D01*
X157091904Y-82238095D01*
X157187142Y-82285714D01*
X157234761Y-82333333D01*
X157282380Y-82428571D01*
X157282380Y-82714285D01*
X157234761Y-82809523D01*
X157187142Y-82857142D01*
X154782380Y-84142857D02*
X154306190Y-84476190D01*
X154782380Y-84714285D02*
X153782380Y-84714285D01*
X153782380Y-84333333D01*
X153830000Y-84238095D01*
X153877619Y-84190476D01*
X153972857Y-84142857D01*
X154115714Y-84142857D01*
X154210952Y-84190476D01*
X154258571Y-84238095D01*
X154306190Y-84333333D01*
X154306190Y-84714285D01*
X154782380Y-83190476D02*
X154782380Y-83761904D01*
X154782380Y-83476190D02*
X153782380Y-83476190D01*
X153925238Y-83571428D01*
X154020476Y-83666666D01*
X154068095Y-83761904D01*
X153877619Y-82809523D02*
X153830000Y-82761904D01*
X153782380Y-82666666D01*
X153782380Y-82428571D01*
X153830000Y-82333333D01*
X153877619Y-82285714D01*
X153972857Y-82238095D01*
X154068095Y-82238095D01*
X154210952Y-82285714D01*
X154782380Y-82857142D01*
X154782380Y-82238095D01*
X152282380Y-84142857D02*
X151806190Y-84476190D01*
X152282380Y-84714285D02*
X151282380Y-84714285D01*
X151282380Y-84333333D01*
X151330000Y-84238095D01*
X151377619Y-84190476D01*
X151472857Y-84142857D01*
X151615714Y-84142857D01*
X151710952Y-84190476D01*
X151758571Y-84238095D01*
X151806190Y-84333333D01*
X151806190Y-84714285D01*
X152282380Y-83190476D02*
X152282380Y-83761904D01*
X152282380Y-83476190D02*
X151282380Y-83476190D01*
X151425238Y-83571428D01*
X151520476Y-83666666D01*
X151568095Y-83761904D01*
X152282380Y-82238095D02*
X152282380Y-82809523D01*
X152282380Y-82523809D02*
X151282380Y-82523809D01*
X151425238Y-82619047D01*
X151520476Y-82714285D01*
X151568095Y-82809523D01*
X149682380Y-84142857D02*
X149206190Y-84476190D01*
X149682380Y-84714285D02*
X148682380Y-84714285D01*
X148682380Y-84333333D01*
X148730000Y-84238095D01*
X148777619Y-84190476D01*
X148872857Y-84142857D01*
X149015714Y-84142857D01*
X149110952Y-84190476D01*
X149158571Y-84238095D01*
X149206190Y-84333333D01*
X149206190Y-84714285D01*
X149682380Y-83190476D02*
X149682380Y-83761904D01*
X149682380Y-83476190D02*
X148682380Y-83476190D01*
X148825238Y-83571428D01*
X148920476Y-83666666D01*
X148968095Y-83761904D01*
X148682380Y-82571428D02*
X148682380Y-82476190D01*
X148730000Y-82380952D01*
X148777619Y-82333333D01*
X148872857Y-82285714D01*
X149063333Y-82238095D01*
X149301428Y-82238095D01*
X149491904Y-82285714D01*
X149587142Y-82333333D01*
X149634761Y-82380952D01*
X149682380Y-82476190D01*
X149682380Y-82571428D01*
X149634761Y-82666666D01*
X149587142Y-82714285D01*
X149491904Y-82761904D01*
X149301428Y-82809523D01*
X149063333Y-82809523D01*
X148872857Y-82761904D01*
X148777619Y-82714285D01*
X148730000Y-82666666D01*
X148682380Y-82571428D01*
X141782380Y-65603333D02*
X142496666Y-65603333D01*
X142639523Y-65650952D01*
X142734761Y-65746190D01*
X142782380Y-65889047D01*
X142782380Y-65984285D01*
X141877619Y-65174761D02*
X141830000Y-65127142D01*
X141782380Y-65031904D01*
X141782380Y-64793809D01*
X141830000Y-64698571D01*
X141877619Y-64650952D01*
X141972857Y-64603333D01*
X142068095Y-64603333D01*
X142210952Y-64650952D01*
X142782380Y-65222380D01*
X142782380Y-64603333D01*
X106806666Y-82467380D02*
X106806666Y-83181666D01*
X106759047Y-83324523D01*
X106663809Y-83419761D01*
X106520952Y-83467380D01*
X106425714Y-83467380D01*
X107806666Y-83467380D02*
X107235238Y-83467380D01*
X107520952Y-83467380D02*
X107520952Y-82467380D01*
X107425714Y-82610238D01*
X107330476Y-82705476D01*
X107235238Y-82753095D01*
M02*
