G04 #@! TF.GenerationSoftware,KiCad,Pcbnew,(5.1.5)-3*
G04 #@! TF.CreationDate,2021-09-16T15:53:37+03:00*
G04 #@! TF.ProjectId,ISARPiv2,49534152-5069-4763-922e-6b696361645f,rev?*
G04 #@! TF.SameCoordinates,Original*
G04 #@! TF.FileFunction,Copper,L1,Top*
G04 #@! TF.FilePolarity,Positive*
%FSLAX46Y46*%
G04 Gerber Fmt 4.6, Leading zero omitted, Abs format (unit mm)*
G04 Created by KiCad (PCBNEW (5.1.5)-3) date 2021-09-16 15:53:37*
%MOMM*%
%LPD*%
G04 APERTURE LIST*
%ADD10C,1.210000*%
%ADD11O,1.600000X1.600000*%
%ADD12R,1.600000X1.600000*%
%ADD13C,0.100000*%
%ADD14O,1.700000X1.700000*%
%ADD15R,1.700000X1.700000*%
%ADD16R,1.524000X6.858000*%
%ADD17C,0.800000*%
%ADD18C,0.250000*%
%ADD19C,1.000000*%
%ADD20C,0.400000*%
%ADD21C,0.500000*%
G04 APERTURE END LIST*
D10*
X102000000Y-81620000D03*
X94380000Y-81620000D03*
X94380000Y-74000000D03*
X102000000Y-74000000D03*
D11*
X110000000Y-72380000D03*
X132860000Y-80000000D03*
X112540000Y-72380000D03*
X130320000Y-80000000D03*
X115080000Y-72380000D03*
X127780000Y-80000000D03*
X117620000Y-72380000D03*
X125240000Y-80000000D03*
X120160000Y-72380000D03*
X122700000Y-80000000D03*
X122700000Y-72380000D03*
X120160000Y-80000000D03*
X125240000Y-72380000D03*
X117620000Y-80000000D03*
X127780000Y-72380000D03*
X115080000Y-80000000D03*
X130320000Y-72380000D03*
X112540000Y-80000000D03*
X132860000Y-72380000D03*
D12*
X110000000Y-80000000D03*
G04 #@! TA.AperFunction,SMDPad,CuDef*
D13*
G36*
X165877691Y-83851053D02*
G01*
X165898926Y-83854203D01*
X165919750Y-83859419D01*
X165939962Y-83866651D01*
X165959368Y-83875830D01*
X165977781Y-83886866D01*
X165995024Y-83899654D01*
X166010930Y-83914070D01*
X166025346Y-83929976D01*
X166038134Y-83947219D01*
X166049170Y-83965632D01*
X166058349Y-83985038D01*
X166065581Y-84005250D01*
X166070797Y-84026074D01*
X166073947Y-84047309D01*
X166075000Y-84068750D01*
X166075000Y-84506250D01*
X166073947Y-84527691D01*
X166070797Y-84548926D01*
X166065581Y-84569750D01*
X166058349Y-84589962D01*
X166049170Y-84609368D01*
X166038134Y-84627781D01*
X166025346Y-84645024D01*
X166010930Y-84660930D01*
X165995024Y-84675346D01*
X165977781Y-84688134D01*
X165959368Y-84699170D01*
X165939962Y-84708349D01*
X165919750Y-84715581D01*
X165898926Y-84720797D01*
X165877691Y-84723947D01*
X165856250Y-84725000D01*
X165343750Y-84725000D01*
X165322309Y-84723947D01*
X165301074Y-84720797D01*
X165280250Y-84715581D01*
X165260038Y-84708349D01*
X165240632Y-84699170D01*
X165222219Y-84688134D01*
X165204976Y-84675346D01*
X165189070Y-84660930D01*
X165174654Y-84645024D01*
X165161866Y-84627781D01*
X165150830Y-84609368D01*
X165141651Y-84589962D01*
X165134419Y-84569750D01*
X165129203Y-84548926D01*
X165126053Y-84527691D01*
X165125000Y-84506250D01*
X165125000Y-84068750D01*
X165126053Y-84047309D01*
X165129203Y-84026074D01*
X165134419Y-84005250D01*
X165141651Y-83985038D01*
X165150830Y-83965632D01*
X165161866Y-83947219D01*
X165174654Y-83929976D01*
X165189070Y-83914070D01*
X165204976Y-83899654D01*
X165222219Y-83886866D01*
X165240632Y-83875830D01*
X165260038Y-83866651D01*
X165280250Y-83859419D01*
X165301074Y-83854203D01*
X165322309Y-83851053D01*
X165343750Y-83850000D01*
X165856250Y-83850000D01*
X165877691Y-83851053D01*
G37*
G04 #@! TD.AperFunction*
G04 #@! TA.AperFunction,SMDPad,CuDef*
G36*
X165877691Y-82276053D02*
G01*
X165898926Y-82279203D01*
X165919750Y-82284419D01*
X165939962Y-82291651D01*
X165959368Y-82300830D01*
X165977781Y-82311866D01*
X165995024Y-82324654D01*
X166010930Y-82339070D01*
X166025346Y-82354976D01*
X166038134Y-82372219D01*
X166049170Y-82390632D01*
X166058349Y-82410038D01*
X166065581Y-82430250D01*
X166070797Y-82451074D01*
X166073947Y-82472309D01*
X166075000Y-82493750D01*
X166075000Y-82931250D01*
X166073947Y-82952691D01*
X166070797Y-82973926D01*
X166065581Y-82994750D01*
X166058349Y-83014962D01*
X166049170Y-83034368D01*
X166038134Y-83052781D01*
X166025346Y-83070024D01*
X166010930Y-83085930D01*
X165995024Y-83100346D01*
X165977781Y-83113134D01*
X165959368Y-83124170D01*
X165939962Y-83133349D01*
X165919750Y-83140581D01*
X165898926Y-83145797D01*
X165877691Y-83148947D01*
X165856250Y-83150000D01*
X165343750Y-83150000D01*
X165322309Y-83148947D01*
X165301074Y-83145797D01*
X165280250Y-83140581D01*
X165260038Y-83133349D01*
X165240632Y-83124170D01*
X165222219Y-83113134D01*
X165204976Y-83100346D01*
X165189070Y-83085930D01*
X165174654Y-83070024D01*
X165161866Y-83052781D01*
X165150830Y-83034368D01*
X165141651Y-83014962D01*
X165134419Y-82994750D01*
X165129203Y-82973926D01*
X165126053Y-82952691D01*
X165125000Y-82931250D01*
X165125000Y-82493750D01*
X165126053Y-82472309D01*
X165129203Y-82451074D01*
X165134419Y-82430250D01*
X165141651Y-82410038D01*
X165150830Y-82390632D01*
X165161866Y-82372219D01*
X165174654Y-82354976D01*
X165189070Y-82339070D01*
X165204976Y-82324654D01*
X165222219Y-82311866D01*
X165240632Y-82300830D01*
X165260038Y-82291651D01*
X165280250Y-82284419D01*
X165301074Y-82279203D01*
X165322309Y-82276053D01*
X165343750Y-82275000D01*
X165856250Y-82275000D01*
X165877691Y-82276053D01*
G37*
G04 #@! TD.AperFunction*
G04 #@! TA.AperFunction,SMDPad,CuDef*
G36*
X163277691Y-83851053D02*
G01*
X163298926Y-83854203D01*
X163319750Y-83859419D01*
X163339962Y-83866651D01*
X163359368Y-83875830D01*
X163377781Y-83886866D01*
X163395024Y-83899654D01*
X163410930Y-83914070D01*
X163425346Y-83929976D01*
X163438134Y-83947219D01*
X163449170Y-83965632D01*
X163458349Y-83985038D01*
X163465581Y-84005250D01*
X163470797Y-84026074D01*
X163473947Y-84047309D01*
X163475000Y-84068750D01*
X163475000Y-84506250D01*
X163473947Y-84527691D01*
X163470797Y-84548926D01*
X163465581Y-84569750D01*
X163458349Y-84589962D01*
X163449170Y-84609368D01*
X163438134Y-84627781D01*
X163425346Y-84645024D01*
X163410930Y-84660930D01*
X163395024Y-84675346D01*
X163377781Y-84688134D01*
X163359368Y-84699170D01*
X163339962Y-84708349D01*
X163319750Y-84715581D01*
X163298926Y-84720797D01*
X163277691Y-84723947D01*
X163256250Y-84725000D01*
X162743750Y-84725000D01*
X162722309Y-84723947D01*
X162701074Y-84720797D01*
X162680250Y-84715581D01*
X162660038Y-84708349D01*
X162640632Y-84699170D01*
X162622219Y-84688134D01*
X162604976Y-84675346D01*
X162589070Y-84660930D01*
X162574654Y-84645024D01*
X162561866Y-84627781D01*
X162550830Y-84609368D01*
X162541651Y-84589962D01*
X162534419Y-84569750D01*
X162529203Y-84548926D01*
X162526053Y-84527691D01*
X162525000Y-84506250D01*
X162525000Y-84068750D01*
X162526053Y-84047309D01*
X162529203Y-84026074D01*
X162534419Y-84005250D01*
X162541651Y-83985038D01*
X162550830Y-83965632D01*
X162561866Y-83947219D01*
X162574654Y-83929976D01*
X162589070Y-83914070D01*
X162604976Y-83899654D01*
X162622219Y-83886866D01*
X162640632Y-83875830D01*
X162660038Y-83866651D01*
X162680250Y-83859419D01*
X162701074Y-83854203D01*
X162722309Y-83851053D01*
X162743750Y-83850000D01*
X163256250Y-83850000D01*
X163277691Y-83851053D01*
G37*
G04 #@! TD.AperFunction*
G04 #@! TA.AperFunction,SMDPad,CuDef*
G36*
X163277691Y-82276053D02*
G01*
X163298926Y-82279203D01*
X163319750Y-82284419D01*
X163339962Y-82291651D01*
X163359368Y-82300830D01*
X163377781Y-82311866D01*
X163395024Y-82324654D01*
X163410930Y-82339070D01*
X163425346Y-82354976D01*
X163438134Y-82372219D01*
X163449170Y-82390632D01*
X163458349Y-82410038D01*
X163465581Y-82430250D01*
X163470797Y-82451074D01*
X163473947Y-82472309D01*
X163475000Y-82493750D01*
X163475000Y-82931250D01*
X163473947Y-82952691D01*
X163470797Y-82973926D01*
X163465581Y-82994750D01*
X163458349Y-83014962D01*
X163449170Y-83034368D01*
X163438134Y-83052781D01*
X163425346Y-83070024D01*
X163410930Y-83085930D01*
X163395024Y-83100346D01*
X163377781Y-83113134D01*
X163359368Y-83124170D01*
X163339962Y-83133349D01*
X163319750Y-83140581D01*
X163298926Y-83145797D01*
X163277691Y-83148947D01*
X163256250Y-83150000D01*
X162743750Y-83150000D01*
X162722309Y-83148947D01*
X162701074Y-83145797D01*
X162680250Y-83140581D01*
X162660038Y-83133349D01*
X162640632Y-83124170D01*
X162622219Y-83113134D01*
X162604976Y-83100346D01*
X162589070Y-83085930D01*
X162574654Y-83070024D01*
X162561866Y-83052781D01*
X162550830Y-83034368D01*
X162541651Y-83014962D01*
X162534419Y-82994750D01*
X162529203Y-82973926D01*
X162526053Y-82952691D01*
X162525000Y-82931250D01*
X162525000Y-82493750D01*
X162526053Y-82472309D01*
X162529203Y-82451074D01*
X162534419Y-82430250D01*
X162541651Y-82410038D01*
X162550830Y-82390632D01*
X162561866Y-82372219D01*
X162574654Y-82354976D01*
X162589070Y-82339070D01*
X162604976Y-82324654D01*
X162622219Y-82311866D01*
X162640632Y-82300830D01*
X162660038Y-82291651D01*
X162680250Y-82284419D01*
X162701074Y-82279203D01*
X162722309Y-82276053D01*
X162743750Y-82275000D01*
X163256250Y-82275000D01*
X163277691Y-82276053D01*
G37*
G04 #@! TD.AperFunction*
G04 #@! TA.AperFunction,SMDPad,CuDef*
G36*
X160777691Y-83851053D02*
G01*
X160798926Y-83854203D01*
X160819750Y-83859419D01*
X160839962Y-83866651D01*
X160859368Y-83875830D01*
X160877781Y-83886866D01*
X160895024Y-83899654D01*
X160910930Y-83914070D01*
X160925346Y-83929976D01*
X160938134Y-83947219D01*
X160949170Y-83965632D01*
X160958349Y-83985038D01*
X160965581Y-84005250D01*
X160970797Y-84026074D01*
X160973947Y-84047309D01*
X160975000Y-84068750D01*
X160975000Y-84506250D01*
X160973947Y-84527691D01*
X160970797Y-84548926D01*
X160965581Y-84569750D01*
X160958349Y-84589962D01*
X160949170Y-84609368D01*
X160938134Y-84627781D01*
X160925346Y-84645024D01*
X160910930Y-84660930D01*
X160895024Y-84675346D01*
X160877781Y-84688134D01*
X160859368Y-84699170D01*
X160839962Y-84708349D01*
X160819750Y-84715581D01*
X160798926Y-84720797D01*
X160777691Y-84723947D01*
X160756250Y-84725000D01*
X160243750Y-84725000D01*
X160222309Y-84723947D01*
X160201074Y-84720797D01*
X160180250Y-84715581D01*
X160160038Y-84708349D01*
X160140632Y-84699170D01*
X160122219Y-84688134D01*
X160104976Y-84675346D01*
X160089070Y-84660930D01*
X160074654Y-84645024D01*
X160061866Y-84627781D01*
X160050830Y-84609368D01*
X160041651Y-84589962D01*
X160034419Y-84569750D01*
X160029203Y-84548926D01*
X160026053Y-84527691D01*
X160025000Y-84506250D01*
X160025000Y-84068750D01*
X160026053Y-84047309D01*
X160029203Y-84026074D01*
X160034419Y-84005250D01*
X160041651Y-83985038D01*
X160050830Y-83965632D01*
X160061866Y-83947219D01*
X160074654Y-83929976D01*
X160089070Y-83914070D01*
X160104976Y-83899654D01*
X160122219Y-83886866D01*
X160140632Y-83875830D01*
X160160038Y-83866651D01*
X160180250Y-83859419D01*
X160201074Y-83854203D01*
X160222309Y-83851053D01*
X160243750Y-83850000D01*
X160756250Y-83850000D01*
X160777691Y-83851053D01*
G37*
G04 #@! TD.AperFunction*
G04 #@! TA.AperFunction,SMDPad,CuDef*
G36*
X160777691Y-82276053D02*
G01*
X160798926Y-82279203D01*
X160819750Y-82284419D01*
X160839962Y-82291651D01*
X160859368Y-82300830D01*
X160877781Y-82311866D01*
X160895024Y-82324654D01*
X160910930Y-82339070D01*
X160925346Y-82354976D01*
X160938134Y-82372219D01*
X160949170Y-82390632D01*
X160958349Y-82410038D01*
X160965581Y-82430250D01*
X160970797Y-82451074D01*
X160973947Y-82472309D01*
X160975000Y-82493750D01*
X160975000Y-82931250D01*
X160973947Y-82952691D01*
X160970797Y-82973926D01*
X160965581Y-82994750D01*
X160958349Y-83014962D01*
X160949170Y-83034368D01*
X160938134Y-83052781D01*
X160925346Y-83070024D01*
X160910930Y-83085930D01*
X160895024Y-83100346D01*
X160877781Y-83113134D01*
X160859368Y-83124170D01*
X160839962Y-83133349D01*
X160819750Y-83140581D01*
X160798926Y-83145797D01*
X160777691Y-83148947D01*
X160756250Y-83150000D01*
X160243750Y-83150000D01*
X160222309Y-83148947D01*
X160201074Y-83145797D01*
X160180250Y-83140581D01*
X160160038Y-83133349D01*
X160140632Y-83124170D01*
X160122219Y-83113134D01*
X160104976Y-83100346D01*
X160089070Y-83085930D01*
X160074654Y-83070024D01*
X160061866Y-83052781D01*
X160050830Y-83034368D01*
X160041651Y-83014962D01*
X160034419Y-82994750D01*
X160029203Y-82973926D01*
X160026053Y-82952691D01*
X160025000Y-82931250D01*
X160025000Y-82493750D01*
X160026053Y-82472309D01*
X160029203Y-82451074D01*
X160034419Y-82430250D01*
X160041651Y-82410038D01*
X160050830Y-82390632D01*
X160061866Y-82372219D01*
X160074654Y-82354976D01*
X160089070Y-82339070D01*
X160104976Y-82324654D01*
X160122219Y-82311866D01*
X160140632Y-82300830D01*
X160160038Y-82291651D01*
X160180250Y-82284419D01*
X160201074Y-82279203D01*
X160222309Y-82276053D01*
X160243750Y-82275000D01*
X160756250Y-82275000D01*
X160777691Y-82276053D01*
G37*
G04 #@! TD.AperFunction*
G04 #@! TA.AperFunction,SMDPad,CuDef*
G36*
X158177691Y-83838553D02*
G01*
X158198926Y-83841703D01*
X158219750Y-83846919D01*
X158239962Y-83854151D01*
X158259368Y-83863330D01*
X158277781Y-83874366D01*
X158295024Y-83887154D01*
X158310930Y-83901570D01*
X158325346Y-83917476D01*
X158338134Y-83934719D01*
X158349170Y-83953132D01*
X158358349Y-83972538D01*
X158365581Y-83992750D01*
X158370797Y-84013574D01*
X158373947Y-84034809D01*
X158375000Y-84056250D01*
X158375000Y-84493750D01*
X158373947Y-84515191D01*
X158370797Y-84536426D01*
X158365581Y-84557250D01*
X158358349Y-84577462D01*
X158349170Y-84596868D01*
X158338134Y-84615281D01*
X158325346Y-84632524D01*
X158310930Y-84648430D01*
X158295024Y-84662846D01*
X158277781Y-84675634D01*
X158259368Y-84686670D01*
X158239962Y-84695849D01*
X158219750Y-84703081D01*
X158198926Y-84708297D01*
X158177691Y-84711447D01*
X158156250Y-84712500D01*
X157643750Y-84712500D01*
X157622309Y-84711447D01*
X157601074Y-84708297D01*
X157580250Y-84703081D01*
X157560038Y-84695849D01*
X157540632Y-84686670D01*
X157522219Y-84675634D01*
X157504976Y-84662846D01*
X157489070Y-84648430D01*
X157474654Y-84632524D01*
X157461866Y-84615281D01*
X157450830Y-84596868D01*
X157441651Y-84577462D01*
X157434419Y-84557250D01*
X157429203Y-84536426D01*
X157426053Y-84515191D01*
X157425000Y-84493750D01*
X157425000Y-84056250D01*
X157426053Y-84034809D01*
X157429203Y-84013574D01*
X157434419Y-83992750D01*
X157441651Y-83972538D01*
X157450830Y-83953132D01*
X157461866Y-83934719D01*
X157474654Y-83917476D01*
X157489070Y-83901570D01*
X157504976Y-83887154D01*
X157522219Y-83874366D01*
X157540632Y-83863330D01*
X157560038Y-83854151D01*
X157580250Y-83846919D01*
X157601074Y-83841703D01*
X157622309Y-83838553D01*
X157643750Y-83837500D01*
X158156250Y-83837500D01*
X158177691Y-83838553D01*
G37*
G04 #@! TD.AperFunction*
G04 #@! TA.AperFunction,SMDPad,CuDef*
G36*
X158177691Y-82263553D02*
G01*
X158198926Y-82266703D01*
X158219750Y-82271919D01*
X158239962Y-82279151D01*
X158259368Y-82288330D01*
X158277781Y-82299366D01*
X158295024Y-82312154D01*
X158310930Y-82326570D01*
X158325346Y-82342476D01*
X158338134Y-82359719D01*
X158349170Y-82378132D01*
X158358349Y-82397538D01*
X158365581Y-82417750D01*
X158370797Y-82438574D01*
X158373947Y-82459809D01*
X158375000Y-82481250D01*
X158375000Y-82918750D01*
X158373947Y-82940191D01*
X158370797Y-82961426D01*
X158365581Y-82982250D01*
X158358349Y-83002462D01*
X158349170Y-83021868D01*
X158338134Y-83040281D01*
X158325346Y-83057524D01*
X158310930Y-83073430D01*
X158295024Y-83087846D01*
X158277781Y-83100634D01*
X158259368Y-83111670D01*
X158239962Y-83120849D01*
X158219750Y-83128081D01*
X158198926Y-83133297D01*
X158177691Y-83136447D01*
X158156250Y-83137500D01*
X157643750Y-83137500D01*
X157622309Y-83136447D01*
X157601074Y-83133297D01*
X157580250Y-83128081D01*
X157560038Y-83120849D01*
X157540632Y-83111670D01*
X157522219Y-83100634D01*
X157504976Y-83087846D01*
X157489070Y-83073430D01*
X157474654Y-83057524D01*
X157461866Y-83040281D01*
X157450830Y-83021868D01*
X157441651Y-83002462D01*
X157434419Y-82982250D01*
X157429203Y-82961426D01*
X157426053Y-82940191D01*
X157425000Y-82918750D01*
X157425000Y-82481250D01*
X157426053Y-82459809D01*
X157429203Y-82438574D01*
X157434419Y-82417750D01*
X157441651Y-82397538D01*
X157450830Y-82378132D01*
X157461866Y-82359719D01*
X157474654Y-82342476D01*
X157489070Y-82326570D01*
X157504976Y-82312154D01*
X157522219Y-82299366D01*
X157540632Y-82288330D01*
X157560038Y-82279151D01*
X157580250Y-82271919D01*
X157601074Y-82266703D01*
X157622309Y-82263553D01*
X157643750Y-82262500D01*
X158156250Y-82262500D01*
X158177691Y-82263553D01*
G37*
G04 #@! TD.AperFunction*
G04 #@! TA.AperFunction,SMDPad,CuDef*
G36*
X155677691Y-83851053D02*
G01*
X155698926Y-83854203D01*
X155719750Y-83859419D01*
X155739962Y-83866651D01*
X155759368Y-83875830D01*
X155777781Y-83886866D01*
X155795024Y-83899654D01*
X155810930Y-83914070D01*
X155825346Y-83929976D01*
X155838134Y-83947219D01*
X155849170Y-83965632D01*
X155858349Y-83985038D01*
X155865581Y-84005250D01*
X155870797Y-84026074D01*
X155873947Y-84047309D01*
X155875000Y-84068750D01*
X155875000Y-84506250D01*
X155873947Y-84527691D01*
X155870797Y-84548926D01*
X155865581Y-84569750D01*
X155858349Y-84589962D01*
X155849170Y-84609368D01*
X155838134Y-84627781D01*
X155825346Y-84645024D01*
X155810930Y-84660930D01*
X155795024Y-84675346D01*
X155777781Y-84688134D01*
X155759368Y-84699170D01*
X155739962Y-84708349D01*
X155719750Y-84715581D01*
X155698926Y-84720797D01*
X155677691Y-84723947D01*
X155656250Y-84725000D01*
X155143750Y-84725000D01*
X155122309Y-84723947D01*
X155101074Y-84720797D01*
X155080250Y-84715581D01*
X155060038Y-84708349D01*
X155040632Y-84699170D01*
X155022219Y-84688134D01*
X155004976Y-84675346D01*
X154989070Y-84660930D01*
X154974654Y-84645024D01*
X154961866Y-84627781D01*
X154950830Y-84609368D01*
X154941651Y-84589962D01*
X154934419Y-84569750D01*
X154929203Y-84548926D01*
X154926053Y-84527691D01*
X154925000Y-84506250D01*
X154925000Y-84068750D01*
X154926053Y-84047309D01*
X154929203Y-84026074D01*
X154934419Y-84005250D01*
X154941651Y-83985038D01*
X154950830Y-83965632D01*
X154961866Y-83947219D01*
X154974654Y-83929976D01*
X154989070Y-83914070D01*
X155004976Y-83899654D01*
X155022219Y-83886866D01*
X155040632Y-83875830D01*
X155060038Y-83866651D01*
X155080250Y-83859419D01*
X155101074Y-83854203D01*
X155122309Y-83851053D01*
X155143750Y-83850000D01*
X155656250Y-83850000D01*
X155677691Y-83851053D01*
G37*
G04 #@! TD.AperFunction*
G04 #@! TA.AperFunction,SMDPad,CuDef*
G36*
X155677691Y-82276053D02*
G01*
X155698926Y-82279203D01*
X155719750Y-82284419D01*
X155739962Y-82291651D01*
X155759368Y-82300830D01*
X155777781Y-82311866D01*
X155795024Y-82324654D01*
X155810930Y-82339070D01*
X155825346Y-82354976D01*
X155838134Y-82372219D01*
X155849170Y-82390632D01*
X155858349Y-82410038D01*
X155865581Y-82430250D01*
X155870797Y-82451074D01*
X155873947Y-82472309D01*
X155875000Y-82493750D01*
X155875000Y-82931250D01*
X155873947Y-82952691D01*
X155870797Y-82973926D01*
X155865581Y-82994750D01*
X155858349Y-83014962D01*
X155849170Y-83034368D01*
X155838134Y-83052781D01*
X155825346Y-83070024D01*
X155810930Y-83085930D01*
X155795024Y-83100346D01*
X155777781Y-83113134D01*
X155759368Y-83124170D01*
X155739962Y-83133349D01*
X155719750Y-83140581D01*
X155698926Y-83145797D01*
X155677691Y-83148947D01*
X155656250Y-83150000D01*
X155143750Y-83150000D01*
X155122309Y-83148947D01*
X155101074Y-83145797D01*
X155080250Y-83140581D01*
X155060038Y-83133349D01*
X155040632Y-83124170D01*
X155022219Y-83113134D01*
X155004976Y-83100346D01*
X154989070Y-83085930D01*
X154974654Y-83070024D01*
X154961866Y-83052781D01*
X154950830Y-83034368D01*
X154941651Y-83014962D01*
X154934419Y-82994750D01*
X154929203Y-82973926D01*
X154926053Y-82952691D01*
X154925000Y-82931250D01*
X154925000Y-82493750D01*
X154926053Y-82472309D01*
X154929203Y-82451074D01*
X154934419Y-82430250D01*
X154941651Y-82410038D01*
X154950830Y-82390632D01*
X154961866Y-82372219D01*
X154974654Y-82354976D01*
X154989070Y-82339070D01*
X155004976Y-82324654D01*
X155022219Y-82311866D01*
X155040632Y-82300830D01*
X155060038Y-82291651D01*
X155080250Y-82284419D01*
X155101074Y-82279203D01*
X155122309Y-82276053D01*
X155143750Y-82275000D01*
X155656250Y-82275000D01*
X155677691Y-82276053D01*
G37*
G04 #@! TD.AperFunction*
G04 #@! TA.AperFunction,SMDPad,CuDef*
G36*
X153177691Y-83851053D02*
G01*
X153198926Y-83854203D01*
X153219750Y-83859419D01*
X153239962Y-83866651D01*
X153259368Y-83875830D01*
X153277781Y-83886866D01*
X153295024Y-83899654D01*
X153310930Y-83914070D01*
X153325346Y-83929976D01*
X153338134Y-83947219D01*
X153349170Y-83965632D01*
X153358349Y-83985038D01*
X153365581Y-84005250D01*
X153370797Y-84026074D01*
X153373947Y-84047309D01*
X153375000Y-84068750D01*
X153375000Y-84506250D01*
X153373947Y-84527691D01*
X153370797Y-84548926D01*
X153365581Y-84569750D01*
X153358349Y-84589962D01*
X153349170Y-84609368D01*
X153338134Y-84627781D01*
X153325346Y-84645024D01*
X153310930Y-84660930D01*
X153295024Y-84675346D01*
X153277781Y-84688134D01*
X153259368Y-84699170D01*
X153239962Y-84708349D01*
X153219750Y-84715581D01*
X153198926Y-84720797D01*
X153177691Y-84723947D01*
X153156250Y-84725000D01*
X152643750Y-84725000D01*
X152622309Y-84723947D01*
X152601074Y-84720797D01*
X152580250Y-84715581D01*
X152560038Y-84708349D01*
X152540632Y-84699170D01*
X152522219Y-84688134D01*
X152504976Y-84675346D01*
X152489070Y-84660930D01*
X152474654Y-84645024D01*
X152461866Y-84627781D01*
X152450830Y-84609368D01*
X152441651Y-84589962D01*
X152434419Y-84569750D01*
X152429203Y-84548926D01*
X152426053Y-84527691D01*
X152425000Y-84506250D01*
X152425000Y-84068750D01*
X152426053Y-84047309D01*
X152429203Y-84026074D01*
X152434419Y-84005250D01*
X152441651Y-83985038D01*
X152450830Y-83965632D01*
X152461866Y-83947219D01*
X152474654Y-83929976D01*
X152489070Y-83914070D01*
X152504976Y-83899654D01*
X152522219Y-83886866D01*
X152540632Y-83875830D01*
X152560038Y-83866651D01*
X152580250Y-83859419D01*
X152601074Y-83854203D01*
X152622309Y-83851053D01*
X152643750Y-83850000D01*
X153156250Y-83850000D01*
X153177691Y-83851053D01*
G37*
G04 #@! TD.AperFunction*
G04 #@! TA.AperFunction,SMDPad,CuDef*
G36*
X153177691Y-82276053D02*
G01*
X153198926Y-82279203D01*
X153219750Y-82284419D01*
X153239962Y-82291651D01*
X153259368Y-82300830D01*
X153277781Y-82311866D01*
X153295024Y-82324654D01*
X153310930Y-82339070D01*
X153325346Y-82354976D01*
X153338134Y-82372219D01*
X153349170Y-82390632D01*
X153358349Y-82410038D01*
X153365581Y-82430250D01*
X153370797Y-82451074D01*
X153373947Y-82472309D01*
X153375000Y-82493750D01*
X153375000Y-82931250D01*
X153373947Y-82952691D01*
X153370797Y-82973926D01*
X153365581Y-82994750D01*
X153358349Y-83014962D01*
X153349170Y-83034368D01*
X153338134Y-83052781D01*
X153325346Y-83070024D01*
X153310930Y-83085930D01*
X153295024Y-83100346D01*
X153277781Y-83113134D01*
X153259368Y-83124170D01*
X153239962Y-83133349D01*
X153219750Y-83140581D01*
X153198926Y-83145797D01*
X153177691Y-83148947D01*
X153156250Y-83150000D01*
X152643750Y-83150000D01*
X152622309Y-83148947D01*
X152601074Y-83145797D01*
X152580250Y-83140581D01*
X152560038Y-83133349D01*
X152540632Y-83124170D01*
X152522219Y-83113134D01*
X152504976Y-83100346D01*
X152489070Y-83085930D01*
X152474654Y-83070024D01*
X152461866Y-83052781D01*
X152450830Y-83034368D01*
X152441651Y-83014962D01*
X152434419Y-82994750D01*
X152429203Y-82973926D01*
X152426053Y-82952691D01*
X152425000Y-82931250D01*
X152425000Y-82493750D01*
X152426053Y-82472309D01*
X152429203Y-82451074D01*
X152434419Y-82430250D01*
X152441651Y-82410038D01*
X152450830Y-82390632D01*
X152461866Y-82372219D01*
X152474654Y-82354976D01*
X152489070Y-82339070D01*
X152504976Y-82324654D01*
X152522219Y-82311866D01*
X152540632Y-82300830D01*
X152560038Y-82291651D01*
X152580250Y-82284419D01*
X152601074Y-82279203D01*
X152622309Y-82276053D01*
X152643750Y-82275000D01*
X153156250Y-82275000D01*
X153177691Y-82276053D01*
G37*
G04 #@! TD.AperFunction*
G04 #@! TA.AperFunction,SMDPad,CuDef*
G36*
X150677691Y-83851053D02*
G01*
X150698926Y-83854203D01*
X150719750Y-83859419D01*
X150739962Y-83866651D01*
X150759368Y-83875830D01*
X150777781Y-83886866D01*
X150795024Y-83899654D01*
X150810930Y-83914070D01*
X150825346Y-83929976D01*
X150838134Y-83947219D01*
X150849170Y-83965632D01*
X150858349Y-83985038D01*
X150865581Y-84005250D01*
X150870797Y-84026074D01*
X150873947Y-84047309D01*
X150875000Y-84068750D01*
X150875000Y-84506250D01*
X150873947Y-84527691D01*
X150870797Y-84548926D01*
X150865581Y-84569750D01*
X150858349Y-84589962D01*
X150849170Y-84609368D01*
X150838134Y-84627781D01*
X150825346Y-84645024D01*
X150810930Y-84660930D01*
X150795024Y-84675346D01*
X150777781Y-84688134D01*
X150759368Y-84699170D01*
X150739962Y-84708349D01*
X150719750Y-84715581D01*
X150698926Y-84720797D01*
X150677691Y-84723947D01*
X150656250Y-84725000D01*
X150143750Y-84725000D01*
X150122309Y-84723947D01*
X150101074Y-84720797D01*
X150080250Y-84715581D01*
X150060038Y-84708349D01*
X150040632Y-84699170D01*
X150022219Y-84688134D01*
X150004976Y-84675346D01*
X149989070Y-84660930D01*
X149974654Y-84645024D01*
X149961866Y-84627781D01*
X149950830Y-84609368D01*
X149941651Y-84589962D01*
X149934419Y-84569750D01*
X149929203Y-84548926D01*
X149926053Y-84527691D01*
X149925000Y-84506250D01*
X149925000Y-84068750D01*
X149926053Y-84047309D01*
X149929203Y-84026074D01*
X149934419Y-84005250D01*
X149941651Y-83985038D01*
X149950830Y-83965632D01*
X149961866Y-83947219D01*
X149974654Y-83929976D01*
X149989070Y-83914070D01*
X150004976Y-83899654D01*
X150022219Y-83886866D01*
X150040632Y-83875830D01*
X150060038Y-83866651D01*
X150080250Y-83859419D01*
X150101074Y-83854203D01*
X150122309Y-83851053D01*
X150143750Y-83850000D01*
X150656250Y-83850000D01*
X150677691Y-83851053D01*
G37*
G04 #@! TD.AperFunction*
G04 #@! TA.AperFunction,SMDPad,CuDef*
G36*
X150677691Y-82276053D02*
G01*
X150698926Y-82279203D01*
X150719750Y-82284419D01*
X150739962Y-82291651D01*
X150759368Y-82300830D01*
X150777781Y-82311866D01*
X150795024Y-82324654D01*
X150810930Y-82339070D01*
X150825346Y-82354976D01*
X150838134Y-82372219D01*
X150849170Y-82390632D01*
X150858349Y-82410038D01*
X150865581Y-82430250D01*
X150870797Y-82451074D01*
X150873947Y-82472309D01*
X150875000Y-82493750D01*
X150875000Y-82931250D01*
X150873947Y-82952691D01*
X150870797Y-82973926D01*
X150865581Y-82994750D01*
X150858349Y-83014962D01*
X150849170Y-83034368D01*
X150838134Y-83052781D01*
X150825346Y-83070024D01*
X150810930Y-83085930D01*
X150795024Y-83100346D01*
X150777781Y-83113134D01*
X150759368Y-83124170D01*
X150739962Y-83133349D01*
X150719750Y-83140581D01*
X150698926Y-83145797D01*
X150677691Y-83148947D01*
X150656250Y-83150000D01*
X150143750Y-83150000D01*
X150122309Y-83148947D01*
X150101074Y-83145797D01*
X150080250Y-83140581D01*
X150060038Y-83133349D01*
X150040632Y-83124170D01*
X150022219Y-83113134D01*
X150004976Y-83100346D01*
X149989070Y-83085930D01*
X149974654Y-83070024D01*
X149961866Y-83052781D01*
X149950830Y-83034368D01*
X149941651Y-83014962D01*
X149934419Y-82994750D01*
X149929203Y-82973926D01*
X149926053Y-82952691D01*
X149925000Y-82931250D01*
X149925000Y-82493750D01*
X149926053Y-82472309D01*
X149929203Y-82451074D01*
X149934419Y-82430250D01*
X149941651Y-82410038D01*
X149950830Y-82390632D01*
X149961866Y-82372219D01*
X149974654Y-82354976D01*
X149989070Y-82339070D01*
X150004976Y-82324654D01*
X150022219Y-82311866D01*
X150040632Y-82300830D01*
X150060038Y-82291651D01*
X150080250Y-82284419D01*
X150101074Y-82279203D01*
X150122309Y-82276053D01*
X150143750Y-82275000D01*
X150656250Y-82275000D01*
X150677691Y-82276053D01*
G37*
G04 #@! TD.AperFunction*
G04 #@! TA.AperFunction,SMDPad,CuDef*
G36*
X148077691Y-83851053D02*
G01*
X148098926Y-83854203D01*
X148119750Y-83859419D01*
X148139962Y-83866651D01*
X148159368Y-83875830D01*
X148177781Y-83886866D01*
X148195024Y-83899654D01*
X148210930Y-83914070D01*
X148225346Y-83929976D01*
X148238134Y-83947219D01*
X148249170Y-83965632D01*
X148258349Y-83985038D01*
X148265581Y-84005250D01*
X148270797Y-84026074D01*
X148273947Y-84047309D01*
X148275000Y-84068750D01*
X148275000Y-84506250D01*
X148273947Y-84527691D01*
X148270797Y-84548926D01*
X148265581Y-84569750D01*
X148258349Y-84589962D01*
X148249170Y-84609368D01*
X148238134Y-84627781D01*
X148225346Y-84645024D01*
X148210930Y-84660930D01*
X148195024Y-84675346D01*
X148177781Y-84688134D01*
X148159368Y-84699170D01*
X148139962Y-84708349D01*
X148119750Y-84715581D01*
X148098926Y-84720797D01*
X148077691Y-84723947D01*
X148056250Y-84725000D01*
X147543750Y-84725000D01*
X147522309Y-84723947D01*
X147501074Y-84720797D01*
X147480250Y-84715581D01*
X147460038Y-84708349D01*
X147440632Y-84699170D01*
X147422219Y-84688134D01*
X147404976Y-84675346D01*
X147389070Y-84660930D01*
X147374654Y-84645024D01*
X147361866Y-84627781D01*
X147350830Y-84609368D01*
X147341651Y-84589962D01*
X147334419Y-84569750D01*
X147329203Y-84548926D01*
X147326053Y-84527691D01*
X147325000Y-84506250D01*
X147325000Y-84068750D01*
X147326053Y-84047309D01*
X147329203Y-84026074D01*
X147334419Y-84005250D01*
X147341651Y-83985038D01*
X147350830Y-83965632D01*
X147361866Y-83947219D01*
X147374654Y-83929976D01*
X147389070Y-83914070D01*
X147404976Y-83899654D01*
X147422219Y-83886866D01*
X147440632Y-83875830D01*
X147460038Y-83866651D01*
X147480250Y-83859419D01*
X147501074Y-83854203D01*
X147522309Y-83851053D01*
X147543750Y-83850000D01*
X148056250Y-83850000D01*
X148077691Y-83851053D01*
G37*
G04 #@! TD.AperFunction*
G04 #@! TA.AperFunction,SMDPad,CuDef*
G36*
X148077691Y-82276053D02*
G01*
X148098926Y-82279203D01*
X148119750Y-82284419D01*
X148139962Y-82291651D01*
X148159368Y-82300830D01*
X148177781Y-82311866D01*
X148195024Y-82324654D01*
X148210930Y-82339070D01*
X148225346Y-82354976D01*
X148238134Y-82372219D01*
X148249170Y-82390632D01*
X148258349Y-82410038D01*
X148265581Y-82430250D01*
X148270797Y-82451074D01*
X148273947Y-82472309D01*
X148275000Y-82493750D01*
X148275000Y-82931250D01*
X148273947Y-82952691D01*
X148270797Y-82973926D01*
X148265581Y-82994750D01*
X148258349Y-83014962D01*
X148249170Y-83034368D01*
X148238134Y-83052781D01*
X148225346Y-83070024D01*
X148210930Y-83085930D01*
X148195024Y-83100346D01*
X148177781Y-83113134D01*
X148159368Y-83124170D01*
X148139962Y-83133349D01*
X148119750Y-83140581D01*
X148098926Y-83145797D01*
X148077691Y-83148947D01*
X148056250Y-83150000D01*
X147543750Y-83150000D01*
X147522309Y-83148947D01*
X147501074Y-83145797D01*
X147480250Y-83140581D01*
X147460038Y-83133349D01*
X147440632Y-83124170D01*
X147422219Y-83113134D01*
X147404976Y-83100346D01*
X147389070Y-83085930D01*
X147374654Y-83070024D01*
X147361866Y-83052781D01*
X147350830Y-83034368D01*
X147341651Y-83014962D01*
X147334419Y-82994750D01*
X147329203Y-82973926D01*
X147326053Y-82952691D01*
X147325000Y-82931250D01*
X147325000Y-82493750D01*
X147326053Y-82472309D01*
X147329203Y-82451074D01*
X147334419Y-82430250D01*
X147341651Y-82410038D01*
X147350830Y-82390632D01*
X147361866Y-82372219D01*
X147374654Y-82354976D01*
X147389070Y-82339070D01*
X147404976Y-82324654D01*
X147422219Y-82311866D01*
X147440632Y-82300830D01*
X147460038Y-82291651D01*
X147480250Y-82284419D01*
X147501074Y-82279203D01*
X147522309Y-82276053D01*
X147543750Y-82275000D01*
X148056250Y-82275000D01*
X148077691Y-82276053D01*
G37*
G04 #@! TD.AperFunction*
D14*
X91740000Y-66540000D03*
X91740000Y-64000000D03*
X94280000Y-66540000D03*
X94280000Y-64000000D03*
X96820000Y-66540000D03*
X96820000Y-64000000D03*
X99360000Y-66540000D03*
X99360000Y-64000000D03*
X101900000Y-66540000D03*
X101900000Y-64000000D03*
X104440000Y-66540000D03*
X104440000Y-64000000D03*
X106980000Y-66540000D03*
X106980000Y-64000000D03*
X109520000Y-66540000D03*
X109520000Y-64000000D03*
X112060000Y-66540000D03*
X112060000Y-64000000D03*
X114600000Y-66540000D03*
X114600000Y-64000000D03*
X117140000Y-66540000D03*
X117140000Y-64000000D03*
X119680000Y-66540000D03*
X119680000Y-64000000D03*
X122220000Y-66540000D03*
X122220000Y-64000000D03*
X124760000Y-66540000D03*
X124760000Y-64000000D03*
X127300000Y-66540000D03*
X127300000Y-64000000D03*
X129840000Y-66540000D03*
X129840000Y-64000000D03*
X132380000Y-66540000D03*
X132380000Y-64000000D03*
X134920000Y-66540000D03*
X134920000Y-64000000D03*
X137460000Y-66540000D03*
X137460000Y-64000000D03*
X140000000Y-66540000D03*
D15*
X140000000Y-64000000D03*
D16*
X91900000Y-90381000D03*
X94440000Y-90381000D03*
X96980000Y-90381000D03*
X99520000Y-90381000D03*
X102060000Y-90381000D03*
X104600000Y-90381000D03*
X107140000Y-90381000D03*
X109680000Y-90381000D03*
X112220000Y-90381000D03*
X114760000Y-90381000D03*
X117300000Y-90381000D03*
X119840000Y-90381000D03*
X122380000Y-90381000D03*
X124920000Y-90381000D03*
X127460000Y-90381000D03*
X130000000Y-90381000D03*
X132540000Y-90381000D03*
X135080000Y-90381000D03*
X137620000Y-90381000D03*
X140160000Y-90381000D03*
X142700000Y-90381000D03*
X145240000Y-90381000D03*
X147780000Y-90381000D03*
X150320000Y-90381000D03*
X152860000Y-90381000D03*
X155400000Y-90381000D03*
X157940000Y-90381000D03*
X160480000Y-90381000D03*
X163020000Y-90381000D03*
X165560000Y-90381000D03*
X168100000Y-90381000D03*
D17*
X91900000Y-85000000D03*
X95500000Y-83000000D03*
X96980000Y-85000000D03*
X99520000Y-85000000D03*
X102060000Y-85000000D03*
X104600000Y-85000000D03*
X106100000Y-85000000D03*
X107300000Y-85000000D03*
X107500000Y-69600000D03*
X136300000Y-73300000D03*
X100100000Y-78800000D03*
X93600000Y-78800000D03*
X92700000Y-74100000D03*
X146740000Y-66540000D03*
X143500000Y-63300000D03*
X90400000Y-71800000D03*
D18*
X91900000Y-90381000D02*
X91900000Y-85000000D01*
X91900000Y-85000000D02*
X91900000Y-85000000D01*
X91900000Y-66700000D02*
X91740000Y-66540000D01*
X91900000Y-85000000D02*
X91900000Y-66700000D01*
X94440000Y-90381000D02*
X94440000Y-85000000D01*
X94440000Y-85000000D02*
X94440000Y-84960000D01*
X93430001Y-74426403D02*
X93430001Y-67389999D01*
X93430001Y-67389999D02*
X94280000Y-66540000D01*
X94440000Y-85000000D02*
X94440000Y-84060000D01*
X94440000Y-84060000D02*
X95500000Y-83000000D01*
X95500000Y-83000000D02*
X95500000Y-83000000D01*
X95500000Y-76496402D02*
X93430001Y-74426403D01*
X95500000Y-83000000D02*
X95500000Y-76496402D01*
X96980000Y-90381000D02*
X96980000Y-85000000D01*
X96980000Y-85000000D02*
X96980000Y-85000000D01*
X96980000Y-85000000D02*
X97800000Y-84180000D01*
X95129999Y-64849999D02*
X94280000Y-64000000D01*
X95455001Y-65175001D02*
X95129999Y-64849999D01*
X97800000Y-69449000D02*
X95455001Y-67104001D01*
X95455001Y-67104001D02*
X95455001Y-65175001D01*
X97800000Y-84180000D02*
X97800000Y-69449000D01*
X99520000Y-90381000D02*
X99520000Y-85000000D01*
X99520000Y-85000000D02*
X99520000Y-85000000D01*
X97669999Y-67389999D02*
X96820000Y-66540000D01*
X98250010Y-67970010D02*
X97669999Y-67389999D01*
X98250010Y-83164325D02*
X98250010Y-67970010D01*
X99520000Y-84434315D02*
X98250010Y-83164325D01*
X99520000Y-85000000D02*
X99520000Y-84434315D01*
X102060000Y-90381000D02*
X102060000Y-85000000D01*
X102060000Y-85000000D02*
X102060000Y-85000000D01*
X97669999Y-64849999D02*
X96820000Y-64000000D01*
X97995001Y-66914003D02*
X97995001Y-65175001D01*
X98700020Y-67619022D02*
X97995001Y-66914003D01*
X97995001Y-65175001D02*
X97669999Y-64849999D01*
X98700020Y-81074335D02*
X98700020Y-67619022D01*
X102060000Y-84434315D02*
X98700020Y-81074335D01*
X102060000Y-85000000D02*
X102060000Y-84434315D01*
X104600000Y-90381000D02*
X104600000Y-85000000D01*
X104600000Y-85000000D02*
X104600000Y-85000000D01*
X100535001Y-65175001D02*
X100209999Y-64849999D01*
X100535001Y-67104001D02*
X100535001Y-65175001D01*
X99924001Y-67715001D02*
X100535001Y-67104001D01*
X100209999Y-64849999D02*
X99360000Y-64000000D01*
X99484999Y-67715001D02*
X99924001Y-67715001D01*
X99150030Y-68049970D02*
X99484999Y-67715001D01*
X99150030Y-80146432D02*
X99150030Y-68049970D01*
X104003598Y-85000000D02*
X99150030Y-80146432D01*
X104600000Y-85000000D02*
X104003598Y-85000000D01*
X107140000Y-90381000D02*
X107140000Y-88136402D01*
X107140000Y-86702000D02*
X106100000Y-85662000D01*
X107140000Y-90381000D02*
X107140000Y-86702000D01*
X106100000Y-85662000D02*
X106100000Y-85000000D01*
X106100000Y-85000000D02*
X106100000Y-85000000D01*
X106100000Y-85000000D02*
X106100000Y-84343598D01*
X101050001Y-67389999D02*
X101900000Y-66540000D01*
X101050001Y-79293599D02*
X101050001Y-67389999D01*
X106100000Y-84343598D02*
X101050001Y-79293599D01*
X109680000Y-86702000D02*
X107978000Y-85000000D01*
X109680000Y-90381000D02*
X109680000Y-86702000D01*
X107978000Y-85000000D02*
X107300000Y-85000000D01*
X107300000Y-85000000D02*
X107300000Y-85000000D01*
X102749999Y-64849999D02*
X101900000Y-64000000D01*
X103075001Y-80097001D02*
X103075001Y-65175001D01*
X103075001Y-65175001D02*
X102749999Y-64849999D01*
X107300000Y-84322000D02*
X103075001Y-80097001D01*
X107300000Y-85000000D02*
X107300000Y-84322000D01*
X105615001Y-65175001D02*
X105289999Y-64849999D01*
X105615001Y-67104001D02*
X105615001Y-65175001D01*
X103525011Y-69193991D02*
X105615001Y-67104001D01*
X103525011Y-79910601D02*
X103525011Y-69193991D01*
X112220000Y-86702000D02*
X111818000Y-86300000D01*
X112220000Y-90381000D02*
X112220000Y-86702000D01*
X111818000Y-86300000D02*
X109914410Y-86300000D01*
X105289999Y-64849999D02*
X104440000Y-64000000D01*
X109914410Y-86300000D02*
X103525011Y-79910601D01*
X114760000Y-86702000D02*
X114760000Y-90381000D01*
X110100810Y-85849990D02*
X113907990Y-85849990D01*
X113907990Y-85849990D02*
X114760000Y-86702000D01*
X103975021Y-69544979D02*
X103975021Y-79724201D01*
X106980000Y-66540000D02*
X103975021Y-69544979D01*
X103975021Y-79724201D02*
X110100810Y-85849990D01*
X147780000Y-84307500D02*
X147800000Y-84287500D01*
X147780000Y-90381000D02*
X147780000Y-84307500D01*
X150320000Y-84367500D02*
X150400000Y-84287500D01*
X150320000Y-90381000D02*
X150320000Y-84367500D01*
X152860000Y-84327500D02*
X152900000Y-84287500D01*
X152860000Y-90381000D02*
X152860000Y-84327500D01*
X155400000Y-90381000D02*
X155400000Y-84287500D01*
X157940000Y-84315000D02*
X157900000Y-84275000D01*
X157940000Y-90381000D02*
X157940000Y-84315000D01*
X160480000Y-84307500D02*
X160500000Y-84287500D01*
X160480000Y-90381000D02*
X160480000Y-84307500D01*
X163020000Y-84307500D02*
X163000000Y-84287500D01*
X163020000Y-90381000D02*
X163020000Y-84307500D01*
X165560000Y-84327500D02*
X165600000Y-84287500D01*
X165560000Y-90381000D02*
X165560000Y-84327500D01*
D19*
X108200000Y-80000000D02*
X110000000Y-80000000D01*
X107500000Y-79300000D02*
X108200000Y-80000000D01*
X107500000Y-69600000D02*
X107500000Y-79300000D01*
X131359999Y-78499999D02*
X132060001Y-79200001D01*
X132060001Y-79200001D02*
X132860000Y-80000000D01*
X111500001Y-78499999D02*
X131359999Y-78499999D01*
X110000000Y-80000000D02*
X111500001Y-78499999D01*
X108670001Y-63150001D02*
X109520000Y-64000000D01*
X107969999Y-62449999D02*
X108670001Y-63150001D01*
X93290001Y-62449999D02*
X107969999Y-62449999D01*
X91740000Y-64000000D02*
X93290001Y-62449999D01*
X128990001Y-63150001D02*
X129840000Y-64000000D01*
X128289999Y-62449999D02*
X128990001Y-63150001D01*
X111070001Y-62449999D02*
X128289999Y-62449999D01*
X109520000Y-64000000D02*
X111070001Y-62449999D01*
D20*
X123910001Y-65690001D02*
X124760000Y-66540000D01*
X123470001Y-65250001D02*
X123910001Y-65690001D01*
X119119997Y-65250001D02*
X123470001Y-65250001D01*
X117829998Y-66540000D02*
X119119997Y-65250001D01*
X117140000Y-66540000D02*
X117829998Y-66540000D01*
X110369999Y-64849999D02*
X109520000Y-64000000D01*
X110809999Y-65289999D02*
X110369999Y-64849999D01*
X115889999Y-65289999D02*
X110809999Y-65289999D01*
X117140000Y-66540000D02*
X115889999Y-65289999D01*
D19*
X140985010Y-84237010D02*
X140985010Y-77985010D01*
X142700000Y-90381000D02*
X142700000Y-85952000D01*
X142700000Y-85952000D02*
X140985010Y-84237010D01*
X140985010Y-77985010D02*
X136300000Y-73300000D01*
X136300000Y-73300000D02*
X136300000Y-73300000D01*
X102000000Y-81620000D02*
X100100000Y-79720000D01*
X100100000Y-79720000D02*
X100100000Y-78800000D01*
X100100000Y-78800000D02*
X100100000Y-78800000D01*
D21*
X93600000Y-78234315D02*
X92700000Y-77334315D01*
X93600000Y-78800000D02*
X93600000Y-78234315D01*
X92700000Y-77334315D02*
X92700000Y-74100000D01*
X92700000Y-74100000D02*
X92700000Y-74100000D01*
X140000000Y-66540000D02*
X146740000Y-66540000D01*
X146740000Y-66540000D02*
X146740000Y-66540000D01*
X143500000Y-63300000D02*
X141699989Y-61499989D01*
X92100011Y-61499989D02*
X90400000Y-63200000D01*
X141699989Y-61499989D02*
X92100011Y-61499989D01*
X90400000Y-63200000D02*
X90400000Y-71800000D01*
X90400000Y-71800000D02*
X90400000Y-71800000D01*
D18*
X128149999Y-64849999D02*
X127300000Y-64000000D01*
X128475001Y-65175001D02*
X128149999Y-64849999D01*
X128475001Y-66914003D02*
X128475001Y-65175001D01*
X139227541Y-69515041D02*
X131076039Y-69515041D01*
X152425000Y-82712500D02*
X139227541Y-69515041D01*
X131076039Y-69515041D02*
X128475001Y-66914003D01*
X152900000Y-82712500D02*
X152425000Y-82712500D01*
X149925000Y-82712500D02*
X137177551Y-69965051D01*
X150400000Y-82712500D02*
X149925000Y-82712500D01*
X130725051Y-69965051D02*
X127300000Y-66540000D01*
X137177551Y-69965051D02*
X130725051Y-69965051D01*
X130689999Y-67389999D02*
X129840000Y-66540000D01*
X132365031Y-69065031D02*
X130689999Y-67389999D01*
X142190031Y-69065031D02*
X132365031Y-69065031D01*
X155400000Y-82275000D02*
X142190031Y-69065031D01*
X155400000Y-82712500D02*
X155400000Y-82275000D01*
X133229999Y-67389999D02*
X132380000Y-66540000D01*
X144252521Y-68615021D02*
X134455021Y-68615021D01*
X134455021Y-68615021D02*
X133229999Y-67389999D01*
X157900000Y-82262500D02*
X144252521Y-68615021D01*
X157900000Y-82700000D02*
X157900000Y-82262500D01*
X138309999Y-64849999D02*
X137460000Y-64000000D01*
X147587501Y-65175001D02*
X138635001Y-65175001D01*
X138635001Y-65175001D02*
X138309999Y-64849999D01*
X165125000Y-82712500D02*
X147587501Y-65175001D01*
X165600000Y-82712500D02*
X165125000Y-82712500D01*
X135294003Y-65175001D02*
X133555001Y-65175001D01*
X136200000Y-66080998D02*
X135294003Y-65175001D01*
X133229999Y-64849999D02*
X132380000Y-64000000D01*
X136200000Y-67019002D02*
X136200000Y-66080998D01*
X137346009Y-68165011D02*
X136200000Y-67019002D01*
X146390011Y-68165011D02*
X137346009Y-68165011D01*
X133555001Y-65175001D02*
X133229999Y-64849999D01*
X160500000Y-82275000D02*
X146390011Y-68165011D01*
X160500000Y-82712500D02*
X160500000Y-82275000D01*
X135769999Y-64849999D02*
X134920000Y-64000000D01*
X136095001Y-65175001D02*
X135769999Y-64849999D01*
X138635001Y-65975999D02*
X137834003Y-65175001D01*
X138635001Y-66914003D02*
X138635001Y-65975999D01*
X137834003Y-65175001D02*
X136095001Y-65175001D01*
X148440001Y-67715001D02*
X139435999Y-67715001D01*
X139435999Y-67715001D02*
X138635001Y-66914003D01*
X163000000Y-82275000D02*
X148440001Y-67715001D01*
X163000000Y-82712500D02*
X163000000Y-82275000D01*
X125609999Y-64849999D02*
X124760000Y-64000000D01*
X125935001Y-66914003D02*
X125935001Y-65175001D01*
X129436059Y-70415061D02*
X125935001Y-66914003D01*
X135027561Y-70415061D02*
X129436059Y-70415061D01*
X147325000Y-82712500D02*
X135027561Y-70415061D01*
X125935001Y-65175001D02*
X125609999Y-64849999D01*
X147800000Y-82712500D02*
X147325000Y-82712500D01*
X107829999Y-64849999D02*
X106980000Y-64000000D01*
X108155001Y-67104001D02*
X108155001Y-65175001D01*
X107544001Y-67715001D02*
X108155001Y-67104001D01*
X104425031Y-69731379D02*
X106441409Y-67715001D01*
X104425031Y-79525031D02*
X104425031Y-69731379D01*
X108155001Y-65175001D02*
X107829999Y-64849999D01*
X115997980Y-85399980D02*
X110299980Y-85399980D01*
X117300000Y-86702000D02*
X115997980Y-85399980D01*
X106441409Y-67715001D02*
X107544001Y-67715001D01*
X110299980Y-85399980D02*
X104425031Y-79525031D01*
X117300000Y-90381000D02*
X117300000Y-86702000D01*
X107894989Y-68165011D02*
X108670001Y-67389999D01*
X104875041Y-69917779D02*
X106627809Y-68165011D01*
X119840000Y-90381000D02*
X119840000Y-86702000D01*
X108670001Y-67389999D02*
X109520000Y-66540000D01*
X119840000Y-86702000D02*
X118087970Y-84949970D01*
X118087970Y-84949970D02*
X110486380Y-84949970D01*
X104875041Y-79338631D02*
X104875041Y-69917779D01*
X106627809Y-68165011D02*
X107894989Y-68165011D01*
X110486380Y-84949970D02*
X104875041Y-79338631D01*
X126058470Y-83023530D02*
X122380000Y-86702000D01*
X122380000Y-86702000D02*
X122380000Y-90381000D01*
X115683701Y-76655071D02*
X133700201Y-76655071D01*
X137009930Y-83023530D02*
X126058470Y-83023530D01*
X137009930Y-79964800D02*
X137009930Y-83023530D01*
X112540000Y-73511370D02*
X115683701Y-76655071D01*
X112540000Y-72380000D02*
X112540000Y-73511370D01*
X133700201Y-76655071D02*
X137009930Y-79964800D01*
X124920000Y-86702000D02*
X124920000Y-90381000D01*
X128148460Y-83473540D02*
X124920000Y-86702000D01*
X115080000Y-72380000D02*
X118905061Y-76205061D01*
X137380820Y-83473540D02*
X128148460Y-83473540D01*
X137459940Y-83394420D02*
X137380820Y-83473540D01*
X118905061Y-76205061D02*
X133886601Y-76205061D01*
X133886601Y-76205061D02*
X137459940Y-79778400D01*
X137459940Y-79778400D02*
X137459940Y-83394420D01*
X127460000Y-86702000D02*
X127460000Y-90381000D01*
X130238450Y-83923550D02*
X127460000Y-86702000D01*
X137567220Y-83923550D02*
X130238450Y-83923550D01*
X117620000Y-72380000D02*
X120995051Y-75755051D01*
X120995051Y-75755051D02*
X134073001Y-75755051D01*
X137909950Y-79592000D02*
X137909950Y-83580820D01*
X134073001Y-75755051D02*
X137909950Y-79592000D01*
X137909950Y-83580820D02*
X137567220Y-83923550D01*
X130000000Y-86702000D02*
X130000000Y-90381000D01*
X132328440Y-84373560D02*
X130000000Y-86702000D01*
X137753620Y-84373560D02*
X132328440Y-84373560D01*
X120160000Y-72380000D02*
X123085041Y-75305041D01*
X123085041Y-75305041D02*
X134259401Y-75305041D01*
X138359960Y-83767220D02*
X137753620Y-84373560D01*
X134259401Y-75305041D02*
X138359960Y-79405600D01*
X138359960Y-79405600D02*
X138359960Y-83767220D01*
X134418430Y-84823570D02*
X132540000Y-86702000D01*
X132540000Y-86702000D02*
X132540000Y-90381000D01*
X137940020Y-84823570D02*
X134418430Y-84823570D01*
X122700000Y-72380000D02*
X125175031Y-74855031D01*
X125175031Y-74855031D02*
X134445801Y-74855031D01*
X138809970Y-83953620D02*
X137940020Y-84823570D01*
X138809970Y-79219200D02*
X138809970Y-83953620D01*
X134445801Y-74855031D02*
X138809970Y-79219200D01*
X135080000Y-86702000D02*
X135080000Y-90381000D01*
X138200000Y-85273580D02*
X136508420Y-85273580D01*
X138200000Y-85200000D02*
X138200000Y-85273580D01*
X125240000Y-72380000D02*
X127265021Y-74405021D01*
X134632201Y-74405021D02*
X139259980Y-79032800D01*
X136508420Y-85273580D02*
X135080000Y-86702000D01*
X127265021Y-74405021D02*
X134632201Y-74405021D01*
X139259980Y-84140020D02*
X138200000Y-85200000D01*
X139259980Y-79032800D02*
X139259980Y-84140020D01*
X137620000Y-86489990D02*
X137620000Y-90381000D01*
X129355011Y-73955011D02*
X134818601Y-73955011D01*
X139709990Y-84400000D02*
X137620000Y-86489990D01*
X127780000Y-72380000D02*
X129355011Y-73955011D01*
X134818601Y-73955011D02*
X139709990Y-78846400D01*
X139709990Y-78846400D02*
X139709990Y-84400000D01*
X134994999Y-73505001D02*
X135000000Y-73500000D01*
X130320000Y-72380000D02*
X131445001Y-73505001D01*
X131445001Y-73505001D02*
X134994999Y-73505001D01*
X140160000Y-78660000D02*
X140160000Y-90381000D01*
X135000000Y-73500000D02*
X140160000Y-78660000D01*
X131734999Y-71254999D02*
X132060001Y-71580001D01*
X132060001Y-71580001D02*
X132860000Y-72380000D01*
X126934999Y-71254999D02*
X131734999Y-71254999D01*
X122220000Y-66540000D02*
X126934999Y-71254999D01*
M02*
