G04 #@! TF.GenerationSoftware,KiCad,Pcbnew,(5.1.5)-3*
G04 #@! TF.CreationDate,2021-09-16T15:53:37+03:00*
G04 #@! TF.ProjectId,ISARPiv2,49534152-5069-4763-922e-6b696361645f,rev?*
G04 #@! TF.SameCoordinates,Original*
G04 #@! TF.FileFunction,Paste,Top*
G04 #@! TF.FilePolarity,Positive*
%FSLAX46Y46*%
G04 Gerber Fmt 4.6, Leading zero omitted, Abs format (unit mm)*
G04 Created by KiCad (PCBNEW (5.1.5)-3) date 2021-09-16 15:53:37*
%MOMM*%
%LPD*%
G04 APERTURE LIST*
%ADD10C,0.100000*%
G04 APERTURE END LIST*
D10*
G36*
X165877691Y-83851053D02*
G01*
X165898926Y-83854203D01*
X165919750Y-83859419D01*
X165939962Y-83866651D01*
X165959368Y-83875830D01*
X165977781Y-83886866D01*
X165995024Y-83899654D01*
X166010930Y-83914070D01*
X166025346Y-83929976D01*
X166038134Y-83947219D01*
X166049170Y-83965632D01*
X166058349Y-83985038D01*
X166065581Y-84005250D01*
X166070797Y-84026074D01*
X166073947Y-84047309D01*
X166075000Y-84068750D01*
X166075000Y-84506250D01*
X166073947Y-84527691D01*
X166070797Y-84548926D01*
X166065581Y-84569750D01*
X166058349Y-84589962D01*
X166049170Y-84609368D01*
X166038134Y-84627781D01*
X166025346Y-84645024D01*
X166010930Y-84660930D01*
X165995024Y-84675346D01*
X165977781Y-84688134D01*
X165959368Y-84699170D01*
X165939962Y-84708349D01*
X165919750Y-84715581D01*
X165898926Y-84720797D01*
X165877691Y-84723947D01*
X165856250Y-84725000D01*
X165343750Y-84725000D01*
X165322309Y-84723947D01*
X165301074Y-84720797D01*
X165280250Y-84715581D01*
X165260038Y-84708349D01*
X165240632Y-84699170D01*
X165222219Y-84688134D01*
X165204976Y-84675346D01*
X165189070Y-84660930D01*
X165174654Y-84645024D01*
X165161866Y-84627781D01*
X165150830Y-84609368D01*
X165141651Y-84589962D01*
X165134419Y-84569750D01*
X165129203Y-84548926D01*
X165126053Y-84527691D01*
X165125000Y-84506250D01*
X165125000Y-84068750D01*
X165126053Y-84047309D01*
X165129203Y-84026074D01*
X165134419Y-84005250D01*
X165141651Y-83985038D01*
X165150830Y-83965632D01*
X165161866Y-83947219D01*
X165174654Y-83929976D01*
X165189070Y-83914070D01*
X165204976Y-83899654D01*
X165222219Y-83886866D01*
X165240632Y-83875830D01*
X165260038Y-83866651D01*
X165280250Y-83859419D01*
X165301074Y-83854203D01*
X165322309Y-83851053D01*
X165343750Y-83850000D01*
X165856250Y-83850000D01*
X165877691Y-83851053D01*
G37*
G36*
X165877691Y-82276053D02*
G01*
X165898926Y-82279203D01*
X165919750Y-82284419D01*
X165939962Y-82291651D01*
X165959368Y-82300830D01*
X165977781Y-82311866D01*
X165995024Y-82324654D01*
X166010930Y-82339070D01*
X166025346Y-82354976D01*
X166038134Y-82372219D01*
X166049170Y-82390632D01*
X166058349Y-82410038D01*
X166065581Y-82430250D01*
X166070797Y-82451074D01*
X166073947Y-82472309D01*
X166075000Y-82493750D01*
X166075000Y-82931250D01*
X166073947Y-82952691D01*
X166070797Y-82973926D01*
X166065581Y-82994750D01*
X166058349Y-83014962D01*
X166049170Y-83034368D01*
X166038134Y-83052781D01*
X166025346Y-83070024D01*
X166010930Y-83085930D01*
X165995024Y-83100346D01*
X165977781Y-83113134D01*
X165959368Y-83124170D01*
X165939962Y-83133349D01*
X165919750Y-83140581D01*
X165898926Y-83145797D01*
X165877691Y-83148947D01*
X165856250Y-83150000D01*
X165343750Y-83150000D01*
X165322309Y-83148947D01*
X165301074Y-83145797D01*
X165280250Y-83140581D01*
X165260038Y-83133349D01*
X165240632Y-83124170D01*
X165222219Y-83113134D01*
X165204976Y-83100346D01*
X165189070Y-83085930D01*
X165174654Y-83070024D01*
X165161866Y-83052781D01*
X165150830Y-83034368D01*
X165141651Y-83014962D01*
X165134419Y-82994750D01*
X165129203Y-82973926D01*
X165126053Y-82952691D01*
X165125000Y-82931250D01*
X165125000Y-82493750D01*
X165126053Y-82472309D01*
X165129203Y-82451074D01*
X165134419Y-82430250D01*
X165141651Y-82410038D01*
X165150830Y-82390632D01*
X165161866Y-82372219D01*
X165174654Y-82354976D01*
X165189070Y-82339070D01*
X165204976Y-82324654D01*
X165222219Y-82311866D01*
X165240632Y-82300830D01*
X165260038Y-82291651D01*
X165280250Y-82284419D01*
X165301074Y-82279203D01*
X165322309Y-82276053D01*
X165343750Y-82275000D01*
X165856250Y-82275000D01*
X165877691Y-82276053D01*
G37*
G36*
X163277691Y-83851053D02*
G01*
X163298926Y-83854203D01*
X163319750Y-83859419D01*
X163339962Y-83866651D01*
X163359368Y-83875830D01*
X163377781Y-83886866D01*
X163395024Y-83899654D01*
X163410930Y-83914070D01*
X163425346Y-83929976D01*
X163438134Y-83947219D01*
X163449170Y-83965632D01*
X163458349Y-83985038D01*
X163465581Y-84005250D01*
X163470797Y-84026074D01*
X163473947Y-84047309D01*
X163475000Y-84068750D01*
X163475000Y-84506250D01*
X163473947Y-84527691D01*
X163470797Y-84548926D01*
X163465581Y-84569750D01*
X163458349Y-84589962D01*
X163449170Y-84609368D01*
X163438134Y-84627781D01*
X163425346Y-84645024D01*
X163410930Y-84660930D01*
X163395024Y-84675346D01*
X163377781Y-84688134D01*
X163359368Y-84699170D01*
X163339962Y-84708349D01*
X163319750Y-84715581D01*
X163298926Y-84720797D01*
X163277691Y-84723947D01*
X163256250Y-84725000D01*
X162743750Y-84725000D01*
X162722309Y-84723947D01*
X162701074Y-84720797D01*
X162680250Y-84715581D01*
X162660038Y-84708349D01*
X162640632Y-84699170D01*
X162622219Y-84688134D01*
X162604976Y-84675346D01*
X162589070Y-84660930D01*
X162574654Y-84645024D01*
X162561866Y-84627781D01*
X162550830Y-84609368D01*
X162541651Y-84589962D01*
X162534419Y-84569750D01*
X162529203Y-84548926D01*
X162526053Y-84527691D01*
X162525000Y-84506250D01*
X162525000Y-84068750D01*
X162526053Y-84047309D01*
X162529203Y-84026074D01*
X162534419Y-84005250D01*
X162541651Y-83985038D01*
X162550830Y-83965632D01*
X162561866Y-83947219D01*
X162574654Y-83929976D01*
X162589070Y-83914070D01*
X162604976Y-83899654D01*
X162622219Y-83886866D01*
X162640632Y-83875830D01*
X162660038Y-83866651D01*
X162680250Y-83859419D01*
X162701074Y-83854203D01*
X162722309Y-83851053D01*
X162743750Y-83850000D01*
X163256250Y-83850000D01*
X163277691Y-83851053D01*
G37*
G36*
X163277691Y-82276053D02*
G01*
X163298926Y-82279203D01*
X163319750Y-82284419D01*
X163339962Y-82291651D01*
X163359368Y-82300830D01*
X163377781Y-82311866D01*
X163395024Y-82324654D01*
X163410930Y-82339070D01*
X163425346Y-82354976D01*
X163438134Y-82372219D01*
X163449170Y-82390632D01*
X163458349Y-82410038D01*
X163465581Y-82430250D01*
X163470797Y-82451074D01*
X163473947Y-82472309D01*
X163475000Y-82493750D01*
X163475000Y-82931250D01*
X163473947Y-82952691D01*
X163470797Y-82973926D01*
X163465581Y-82994750D01*
X163458349Y-83014962D01*
X163449170Y-83034368D01*
X163438134Y-83052781D01*
X163425346Y-83070024D01*
X163410930Y-83085930D01*
X163395024Y-83100346D01*
X163377781Y-83113134D01*
X163359368Y-83124170D01*
X163339962Y-83133349D01*
X163319750Y-83140581D01*
X163298926Y-83145797D01*
X163277691Y-83148947D01*
X163256250Y-83150000D01*
X162743750Y-83150000D01*
X162722309Y-83148947D01*
X162701074Y-83145797D01*
X162680250Y-83140581D01*
X162660038Y-83133349D01*
X162640632Y-83124170D01*
X162622219Y-83113134D01*
X162604976Y-83100346D01*
X162589070Y-83085930D01*
X162574654Y-83070024D01*
X162561866Y-83052781D01*
X162550830Y-83034368D01*
X162541651Y-83014962D01*
X162534419Y-82994750D01*
X162529203Y-82973926D01*
X162526053Y-82952691D01*
X162525000Y-82931250D01*
X162525000Y-82493750D01*
X162526053Y-82472309D01*
X162529203Y-82451074D01*
X162534419Y-82430250D01*
X162541651Y-82410038D01*
X162550830Y-82390632D01*
X162561866Y-82372219D01*
X162574654Y-82354976D01*
X162589070Y-82339070D01*
X162604976Y-82324654D01*
X162622219Y-82311866D01*
X162640632Y-82300830D01*
X162660038Y-82291651D01*
X162680250Y-82284419D01*
X162701074Y-82279203D01*
X162722309Y-82276053D01*
X162743750Y-82275000D01*
X163256250Y-82275000D01*
X163277691Y-82276053D01*
G37*
G36*
X160777691Y-83851053D02*
G01*
X160798926Y-83854203D01*
X160819750Y-83859419D01*
X160839962Y-83866651D01*
X160859368Y-83875830D01*
X160877781Y-83886866D01*
X160895024Y-83899654D01*
X160910930Y-83914070D01*
X160925346Y-83929976D01*
X160938134Y-83947219D01*
X160949170Y-83965632D01*
X160958349Y-83985038D01*
X160965581Y-84005250D01*
X160970797Y-84026074D01*
X160973947Y-84047309D01*
X160975000Y-84068750D01*
X160975000Y-84506250D01*
X160973947Y-84527691D01*
X160970797Y-84548926D01*
X160965581Y-84569750D01*
X160958349Y-84589962D01*
X160949170Y-84609368D01*
X160938134Y-84627781D01*
X160925346Y-84645024D01*
X160910930Y-84660930D01*
X160895024Y-84675346D01*
X160877781Y-84688134D01*
X160859368Y-84699170D01*
X160839962Y-84708349D01*
X160819750Y-84715581D01*
X160798926Y-84720797D01*
X160777691Y-84723947D01*
X160756250Y-84725000D01*
X160243750Y-84725000D01*
X160222309Y-84723947D01*
X160201074Y-84720797D01*
X160180250Y-84715581D01*
X160160038Y-84708349D01*
X160140632Y-84699170D01*
X160122219Y-84688134D01*
X160104976Y-84675346D01*
X160089070Y-84660930D01*
X160074654Y-84645024D01*
X160061866Y-84627781D01*
X160050830Y-84609368D01*
X160041651Y-84589962D01*
X160034419Y-84569750D01*
X160029203Y-84548926D01*
X160026053Y-84527691D01*
X160025000Y-84506250D01*
X160025000Y-84068750D01*
X160026053Y-84047309D01*
X160029203Y-84026074D01*
X160034419Y-84005250D01*
X160041651Y-83985038D01*
X160050830Y-83965632D01*
X160061866Y-83947219D01*
X160074654Y-83929976D01*
X160089070Y-83914070D01*
X160104976Y-83899654D01*
X160122219Y-83886866D01*
X160140632Y-83875830D01*
X160160038Y-83866651D01*
X160180250Y-83859419D01*
X160201074Y-83854203D01*
X160222309Y-83851053D01*
X160243750Y-83850000D01*
X160756250Y-83850000D01*
X160777691Y-83851053D01*
G37*
G36*
X160777691Y-82276053D02*
G01*
X160798926Y-82279203D01*
X160819750Y-82284419D01*
X160839962Y-82291651D01*
X160859368Y-82300830D01*
X160877781Y-82311866D01*
X160895024Y-82324654D01*
X160910930Y-82339070D01*
X160925346Y-82354976D01*
X160938134Y-82372219D01*
X160949170Y-82390632D01*
X160958349Y-82410038D01*
X160965581Y-82430250D01*
X160970797Y-82451074D01*
X160973947Y-82472309D01*
X160975000Y-82493750D01*
X160975000Y-82931250D01*
X160973947Y-82952691D01*
X160970797Y-82973926D01*
X160965581Y-82994750D01*
X160958349Y-83014962D01*
X160949170Y-83034368D01*
X160938134Y-83052781D01*
X160925346Y-83070024D01*
X160910930Y-83085930D01*
X160895024Y-83100346D01*
X160877781Y-83113134D01*
X160859368Y-83124170D01*
X160839962Y-83133349D01*
X160819750Y-83140581D01*
X160798926Y-83145797D01*
X160777691Y-83148947D01*
X160756250Y-83150000D01*
X160243750Y-83150000D01*
X160222309Y-83148947D01*
X160201074Y-83145797D01*
X160180250Y-83140581D01*
X160160038Y-83133349D01*
X160140632Y-83124170D01*
X160122219Y-83113134D01*
X160104976Y-83100346D01*
X160089070Y-83085930D01*
X160074654Y-83070024D01*
X160061866Y-83052781D01*
X160050830Y-83034368D01*
X160041651Y-83014962D01*
X160034419Y-82994750D01*
X160029203Y-82973926D01*
X160026053Y-82952691D01*
X160025000Y-82931250D01*
X160025000Y-82493750D01*
X160026053Y-82472309D01*
X160029203Y-82451074D01*
X160034419Y-82430250D01*
X160041651Y-82410038D01*
X160050830Y-82390632D01*
X160061866Y-82372219D01*
X160074654Y-82354976D01*
X160089070Y-82339070D01*
X160104976Y-82324654D01*
X160122219Y-82311866D01*
X160140632Y-82300830D01*
X160160038Y-82291651D01*
X160180250Y-82284419D01*
X160201074Y-82279203D01*
X160222309Y-82276053D01*
X160243750Y-82275000D01*
X160756250Y-82275000D01*
X160777691Y-82276053D01*
G37*
G36*
X158177691Y-83838553D02*
G01*
X158198926Y-83841703D01*
X158219750Y-83846919D01*
X158239962Y-83854151D01*
X158259368Y-83863330D01*
X158277781Y-83874366D01*
X158295024Y-83887154D01*
X158310930Y-83901570D01*
X158325346Y-83917476D01*
X158338134Y-83934719D01*
X158349170Y-83953132D01*
X158358349Y-83972538D01*
X158365581Y-83992750D01*
X158370797Y-84013574D01*
X158373947Y-84034809D01*
X158375000Y-84056250D01*
X158375000Y-84493750D01*
X158373947Y-84515191D01*
X158370797Y-84536426D01*
X158365581Y-84557250D01*
X158358349Y-84577462D01*
X158349170Y-84596868D01*
X158338134Y-84615281D01*
X158325346Y-84632524D01*
X158310930Y-84648430D01*
X158295024Y-84662846D01*
X158277781Y-84675634D01*
X158259368Y-84686670D01*
X158239962Y-84695849D01*
X158219750Y-84703081D01*
X158198926Y-84708297D01*
X158177691Y-84711447D01*
X158156250Y-84712500D01*
X157643750Y-84712500D01*
X157622309Y-84711447D01*
X157601074Y-84708297D01*
X157580250Y-84703081D01*
X157560038Y-84695849D01*
X157540632Y-84686670D01*
X157522219Y-84675634D01*
X157504976Y-84662846D01*
X157489070Y-84648430D01*
X157474654Y-84632524D01*
X157461866Y-84615281D01*
X157450830Y-84596868D01*
X157441651Y-84577462D01*
X157434419Y-84557250D01*
X157429203Y-84536426D01*
X157426053Y-84515191D01*
X157425000Y-84493750D01*
X157425000Y-84056250D01*
X157426053Y-84034809D01*
X157429203Y-84013574D01*
X157434419Y-83992750D01*
X157441651Y-83972538D01*
X157450830Y-83953132D01*
X157461866Y-83934719D01*
X157474654Y-83917476D01*
X157489070Y-83901570D01*
X157504976Y-83887154D01*
X157522219Y-83874366D01*
X157540632Y-83863330D01*
X157560038Y-83854151D01*
X157580250Y-83846919D01*
X157601074Y-83841703D01*
X157622309Y-83838553D01*
X157643750Y-83837500D01*
X158156250Y-83837500D01*
X158177691Y-83838553D01*
G37*
G36*
X158177691Y-82263553D02*
G01*
X158198926Y-82266703D01*
X158219750Y-82271919D01*
X158239962Y-82279151D01*
X158259368Y-82288330D01*
X158277781Y-82299366D01*
X158295024Y-82312154D01*
X158310930Y-82326570D01*
X158325346Y-82342476D01*
X158338134Y-82359719D01*
X158349170Y-82378132D01*
X158358349Y-82397538D01*
X158365581Y-82417750D01*
X158370797Y-82438574D01*
X158373947Y-82459809D01*
X158375000Y-82481250D01*
X158375000Y-82918750D01*
X158373947Y-82940191D01*
X158370797Y-82961426D01*
X158365581Y-82982250D01*
X158358349Y-83002462D01*
X158349170Y-83021868D01*
X158338134Y-83040281D01*
X158325346Y-83057524D01*
X158310930Y-83073430D01*
X158295024Y-83087846D01*
X158277781Y-83100634D01*
X158259368Y-83111670D01*
X158239962Y-83120849D01*
X158219750Y-83128081D01*
X158198926Y-83133297D01*
X158177691Y-83136447D01*
X158156250Y-83137500D01*
X157643750Y-83137500D01*
X157622309Y-83136447D01*
X157601074Y-83133297D01*
X157580250Y-83128081D01*
X157560038Y-83120849D01*
X157540632Y-83111670D01*
X157522219Y-83100634D01*
X157504976Y-83087846D01*
X157489070Y-83073430D01*
X157474654Y-83057524D01*
X157461866Y-83040281D01*
X157450830Y-83021868D01*
X157441651Y-83002462D01*
X157434419Y-82982250D01*
X157429203Y-82961426D01*
X157426053Y-82940191D01*
X157425000Y-82918750D01*
X157425000Y-82481250D01*
X157426053Y-82459809D01*
X157429203Y-82438574D01*
X157434419Y-82417750D01*
X157441651Y-82397538D01*
X157450830Y-82378132D01*
X157461866Y-82359719D01*
X157474654Y-82342476D01*
X157489070Y-82326570D01*
X157504976Y-82312154D01*
X157522219Y-82299366D01*
X157540632Y-82288330D01*
X157560038Y-82279151D01*
X157580250Y-82271919D01*
X157601074Y-82266703D01*
X157622309Y-82263553D01*
X157643750Y-82262500D01*
X158156250Y-82262500D01*
X158177691Y-82263553D01*
G37*
G36*
X155677691Y-83851053D02*
G01*
X155698926Y-83854203D01*
X155719750Y-83859419D01*
X155739962Y-83866651D01*
X155759368Y-83875830D01*
X155777781Y-83886866D01*
X155795024Y-83899654D01*
X155810930Y-83914070D01*
X155825346Y-83929976D01*
X155838134Y-83947219D01*
X155849170Y-83965632D01*
X155858349Y-83985038D01*
X155865581Y-84005250D01*
X155870797Y-84026074D01*
X155873947Y-84047309D01*
X155875000Y-84068750D01*
X155875000Y-84506250D01*
X155873947Y-84527691D01*
X155870797Y-84548926D01*
X155865581Y-84569750D01*
X155858349Y-84589962D01*
X155849170Y-84609368D01*
X155838134Y-84627781D01*
X155825346Y-84645024D01*
X155810930Y-84660930D01*
X155795024Y-84675346D01*
X155777781Y-84688134D01*
X155759368Y-84699170D01*
X155739962Y-84708349D01*
X155719750Y-84715581D01*
X155698926Y-84720797D01*
X155677691Y-84723947D01*
X155656250Y-84725000D01*
X155143750Y-84725000D01*
X155122309Y-84723947D01*
X155101074Y-84720797D01*
X155080250Y-84715581D01*
X155060038Y-84708349D01*
X155040632Y-84699170D01*
X155022219Y-84688134D01*
X155004976Y-84675346D01*
X154989070Y-84660930D01*
X154974654Y-84645024D01*
X154961866Y-84627781D01*
X154950830Y-84609368D01*
X154941651Y-84589962D01*
X154934419Y-84569750D01*
X154929203Y-84548926D01*
X154926053Y-84527691D01*
X154925000Y-84506250D01*
X154925000Y-84068750D01*
X154926053Y-84047309D01*
X154929203Y-84026074D01*
X154934419Y-84005250D01*
X154941651Y-83985038D01*
X154950830Y-83965632D01*
X154961866Y-83947219D01*
X154974654Y-83929976D01*
X154989070Y-83914070D01*
X155004976Y-83899654D01*
X155022219Y-83886866D01*
X155040632Y-83875830D01*
X155060038Y-83866651D01*
X155080250Y-83859419D01*
X155101074Y-83854203D01*
X155122309Y-83851053D01*
X155143750Y-83850000D01*
X155656250Y-83850000D01*
X155677691Y-83851053D01*
G37*
G36*
X155677691Y-82276053D02*
G01*
X155698926Y-82279203D01*
X155719750Y-82284419D01*
X155739962Y-82291651D01*
X155759368Y-82300830D01*
X155777781Y-82311866D01*
X155795024Y-82324654D01*
X155810930Y-82339070D01*
X155825346Y-82354976D01*
X155838134Y-82372219D01*
X155849170Y-82390632D01*
X155858349Y-82410038D01*
X155865581Y-82430250D01*
X155870797Y-82451074D01*
X155873947Y-82472309D01*
X155875000Y-82493750D01*
X155875000Y-82931250D01*
X155873947Y-82952691D01*
X155870797Y-82973926D01*
X155865581Y-82994750D01*
X155858349Y-83014962D01*
X155849170Y-83034368D01*
X155838134Y-83052781D01*
X155825346Y-83070024D01*
X155810930Y-83085930D01*
X155795024Y-83100346D01*
X155777781Y-83113134D01*
X155759368Y-83124170D01*
X155739962Y-83133349D01*
X155719750Y-83140581D01*
X155698926Y-83145797D01*
X155677691Y-83148947D01*
X155656250Y-83150000D01*
X155143750Y-83150000D01*
X155122309Y-83148947D01*
X155101074Y-83145797D01*
X155080250Y-83140581D01*
X155060038Y-83133349D01*
X155040632Y-83124170D01*
X155022219Y-83113134D01*
X155004976Y-83100346D01*
X154989070Y-83085930D01*
X154974654Y-83070024D01*
X154961866Y-83052781D01*
X154950830Y-83034368D01*
X154941651Y-83014962D01*
X154934419Y-82994750D01*
X154929203Y-82973926D01*
X154926053Y-82952691D01*
X154925000Y-82931250D01*
X154925000Y-82493750D01*
X154926053Y-82472309D01*
X154929203Y-82451074D01*
X154934419Y-82430250D01*
X154941651Y-82410038D01*
X154950830Y-82390632D01*
X154961866Y-82372219D01*
X154974654Y-82354976D01*
X154989070Y-82339070D01*
X155004976Y-82324654D01*
X155022219Y-82311866D01*
X155040632Y-82300830D01*
X155060038Y-82291651D01*
X155080250Y-82284419D01*
X155101074Y-82279203D01*
X155122309Y-82276053D01*
X155143750Y-82275000D01*
X155656250Y-82275000D01*
X155677691Y-82276053D01*
G37*
G36*
X153177691Y-83851053D02*
G01*
X153198926Y-83854203D01*
X153219750Y-83859419D01*
X153239962Y-83866651D01*
X153259368Y-83875830D01*
X153277781Y-83886866D01*
X153295024Y-83899654D01*
X153310930Y-83914070D01*
X153325346Y-83929976D01*
X153338134Y-83947219D01*
X153349170Y-83965632D01*
X153358349Y-83985038D01*
X153365581Y-84005250D01*
X153370797Y-84026074D01*
X153373947Y-84047309D01*
X153375000Y-84068750D01*
X153375000Y-84506250D01*
X153373947Y-84527691D01*
X153370797Y-84548926D01*
X153365581Y-84569750D01*
X153358349Y-84589962D01*
X153349170Y-84609368D01*
X153338134Y-84627781D01*
X153325346Y-84645024D01*
X153310930Y-84660930D01*
X153295024Y-84675346D01*
X153277781Y-84688134D01*
X153259368Y-84699170D01*
X153239962Y-84708349D01*
X153219750Y-84715581D01*
X153198926Y-84720797D01*
X153177691Y-84723947D01*
X153156250Y-84725000D01*
X152643750Y-84725000D01*
X152622309Y-84723947D01*
X152601074Y-84720797D01*
X152580250Y-84715581D01*
X152560038Y-84708349D01*
X152540632Y-84699170D01*
X152522219Y-84688134D01*
X152504976Y-84675346D01*
X152489070Y-84660930D01*
X152474654Y-84645024D01*
X152461866Y-84627781D01*
X152450830Y-84609368D01*
X152441651Y-84589962D01*
X152434419Y-84569750D01*
X152429203Y-84548926D01*
X152426053Y-84527691D01*
X152425000Y-84506250D01*
X152425000Y-84068750D01*
X152426053Y-84047309D01*
X152429203Y-84026074D01*
X152434419Y-84005250D01*
X152441651Y-83985038D01*
X152450830Y-83965632D01*
X152461866Y-83947219D01*
X152474654Y-83929976D01*
X152489070Y-83914070D01*
X152504976Y-83899654D01*
X152522219Y-83886866D01*
X152540632Y-83875830D01*
X152560038Y-83866651D01*
X152580250Y-83859419D01*
X152601074Y-83854203D01*
X152622309Y-83851053D01*
X152643750Y-83850000D01*
X153156250Y-83850000D01*
X153177691Y-83851053D01*
G37*
G36*
X153177691Y-82276053D02*
G01*
X153198926Y-82279203D01*
X153219750Y-82284419D01*
X153239962Y-82291651D01*
X153259368Y-82300830D01*
X153277781Y-82311866D01*
X153295024Y-82324654D01*
X153310930Y-82339070D01*
X153325346Y-82354976D01*
X153338134Y-82372219D01*
X153349170Y-82390632D01*
X153358349Y-82410038D01*
X153365581Y-82430250D01*
X153370797Y-82451074D01*
X153373947Y-82472309D01*
X153375000Y-82493750D01*
X153375000Y-82931250D01*
X153373947Y-82952691D01*
X153370797Y-82973926D01*
X153365581Y-82994750D01*
X153358349Y-83014962D01*
X153349170Y-83034368D01*
X153338134Y-83052781D01*
X153325346Y-83070024D01*
X153310930Y-83085930D01*
X153295024Y-83100346D01*
X153277781Y-83113134D01*
X153259368Y-83124170D01*
X153239962Y-83133349D01*
X153219750Y-83140581D01*
X153198926Y-83145797D01*
X153177691Y-83148947D01*
X153156250Y-83150000D01*
X152643750Y-83150000D01*
X152622309Y-83148947D01*
X152601074Y-83145797D01*
X152580250Y-83140581D01*
X152560038Y-83133349D01*
X152540632Y-83124170D01*
X152522219Y-83113134D01*
X152504976Y-83100346D01*
X152489070Y-83085930D01*
X152474654Y-83070024D01*
X152461866Y-83052781D01*
X152450830Y-83034368D01*
X152441651Y-83014962D01*
X152434419Y-82994750D01*
X152429203Y-82973926D01*
X152426053Y-82952691D01*
X152425000Y-82931250D01*
X152425000Y-82493750D01*
X152426053Y-82472309D01*
X152429203Y-82451074D01*
X152434419Y-82430250D01*
X152441651Y-82410038D01*
X152450830Y-82390632D01*
X152461866Y-82372219D01*
X152474654Y-82354976D01*
X152489070Y-82339070D01*
X152504976Y-82324654D01*
X152522219Y-82311866D01*
X152540632Y-82300830D01*
X152560038Y-82291651D01*
X152580250Y-82284419D01*
X152601074Y-82279203D01*
X152622309Y-82276053D01*
X152643750Y-82275000D01*
X153156250Y-82275000D01*
X153177691Y-82276053D01*
G37*
G36*
X150677691Y-83851053D02*
G01*
X150698926Y-83854203D01*
X150719750Y-83859419D01*
X150739962Y-83866651D01*
X150759368Y-83875830D01*
X150777781Y-83886866D01*
X150795024Y-83899654D01*
X150810930Y-83914070D01*
X150825346Y-83929976D01*
X150838134Y-83947219D01*
X150849170Y-83965632D01*
X150858349Y-83985038D01*
X150865581Y-84005250D01*
X150870797Y-84026074D01*
X150873947Y-84047309D01*
X150875000Y-84068750D01*
X150875000Y-84506250D01*
X150873947Y-84527691D01*
X150870797Y-84548926D01*
X150865581Y-84569750D01*
X150858349Y-84589962D01*
X150849170Y-84609368D01*
X150838134Y-84627781D01*
X150825346Y-84645024D01*
X150810930Y-84660930D01*
X150795024Y-84675346D01*
X150777781Y-84688134D01*
X150759368Y-84699170D01*
X150739962Y-84708349D01*
X150719750Y-84715581D01*
X150698926Y-84720797D01*
X150677691Y-84723947D01*
X150656250Y-84725000D01*
X150143750Y-84725000D01*
X150122309Y-84723947D01*
X150101074Y-84720797D01*
X150080250Y-84715581D01*
X150060038Y-84708349D01*
X150040632Y-84699170D01*
X150022219Y-84688134D01*
X150004976Y-84675346D01*
X149989070Y-84660930D01*
X149974654Y-84645024D01*
X149961866Y-84627781D01*
X149950830Y-84609368D01*
X149941651Y-84589962D01*
X149934419Y-84569750D01*
X149929203Y-84548926D01*
X149926053Y-84527691D01*
X149925000Y-84506250D01*
X149925000Y-84068750D01*
X149926053Y-84047309D01*
X149929203Y-84026074D01*
X149934419Y-84005250D01*
X149941651Y-83985038D01*
X149950830Y-83965632D01*
X149961866Y-83947219D01*
X149974654Y-83929976D01*
X149989070Y-83914070D01*
X150004976Y-83899654D01*
X150022219Y-83886866D01*
X150040632Y-83875830D01*
X150060038Y-83866651D01*
X150080250Y-83859419D01*
X150101074Y-83854203D01*
X150122309Y-83851053D01*
X150143750Y-83850000D01*
X150656250Y-83850000D01*
X150677691Y-83851053D01*
G37*
G36*
X150677691Y-82276053D02*
G01*
X150698926Y-82279203D01*
X150719750Y-82284419D01*
X150739962Y-82291651D01*
X150759368Y-82300830D01*
X150777781Y-82311866D01*
X150795024Y-82324654D01*
X150810930Y-82339070D01*
X150825346Y-82354976D01*
X150838134Y-82372219D01*
X150849170Y-82390632D01*
X150858349Y-82410038D01*
X150865581Y-82430250D01*
X150870797Y-82451074D01*
X150873947Y-82472309D01*
X150875000Y-82493750D01*
X150875000Y-82931250D01*
X150873947Y-82952691D01*
X150870797Y-82973926D01*
X150865581Y-82994750D01*
X150858349Y-83014962D01*
X150849170Y-83034368D01*
X150838134Y-83052781D01*
X150825346Y-83070024D01*
X150810930Y-83085930D01*
X150795024Y-83100346D01*
X150777781Y-83113134D01*
X150759368Y-83124170D01*
X150739962Y-83133349D01*
X150719750Y-83140581D01*
X150698926Y-83145797D01*
X150677691Y-83148947D01*
X150656250Y-83150000D01*
X150143750Y-83150000D01*
X150122309Y-83148947D01*
X150101074Y-83145797D01*
X150080250Y-83140581D01*
X150060038Y-83133349D01*
X150040632Y-83124170D01*
X150022219Y-83113134D01*
X150004976Y-83100346D01*
X149989070Y-83085930D01*
X149974654Y-83070024D01*
X149961866Y-83052781D01*
X149950830Y-83034368D01*
X149941651Y-83014962D01*
X149934419Y-82994750D01*
X149929203Y-82973926D01*
X149926053Y-82952691D01*
X149925000Y-82931250D01*
X149925000Y-82493750D01*
X149926053Y-82472309D01*
X149929203Y-82451074D01*
X149934419Y-82430250D01*
X149941651Y-82410038D01*
X149950830Y-82390632D01*
X149961866Y-82372219D01*
X149974654Y-82354976D01*
X149989070Y-82339070D01*
X150004976Y-82324654D01*
X150022219Y-82311866D01*
X150040632Y-82300830D01*
X150060038Y-82291651D01*
X150080250Y-82284419D01*
X150101074Y-82279203D01*
X150122309Y-82276053D01*
X150143750Y-82275000D01*
X150656250Y-82275000D01*
X150677691Y-82276053D01*
G37*
G36*
X148077691Y-83851053D02*
G01*
X148098926Y-83854203D01*
X148119750Y-83859419D01*
X148139962Y-83866651D01*
X148159368Y-83875830D01*
X148177781Y-83886866D01*
X148195024Y-83899654D01*
X148210930Y-83914070D01*
X148225346Y-83929976D01*
X148238134Y-83947219D01*
X148249170Y-83965632D01*
X148258349Y-83985038D01*
X148265581Y-84005250D01*
X148270797Y-84026074D01*
X148273947Y-84047309D01*
X148275000Y-84068750D01*
X148275000Y-84506250D01*
X148273947Y-84527691D01*
X148270797Y-84548926D01*
X148265581Y-84569750D01*
X148258349Y-84589962D01*
X148249170Y-84609368D01*
X148238134Y-84627781D01*
X148225346Y-84645024D01*
X148210930Y-84660930D01*
X148195024Y-84675346D01*
X148177781Y-84688134D01*
X148159368Y-84699170D01*
X148139962Y-84708349D01*
X148119750Y-84715581D01*
X148098926Y-84720797D01*
X148077691Y-84723947D01*
X148056250Y-84725000D01*
X147543750Y-84725000D01*
X147522309Y-84723947D01*
X147501074Y-84720797D01*
X147480250Y-84715581D01*
X147460038Y-84708349D01*
X147440632Y-84699170D01*
X147422219Y-84688134D01*
X147404976Y-84675346D01*
X147389070Y-84660930D01*
X147374654Y-84645024D01*
X147361866Y-84627781D01*
X147350830Y-84609368D01*
X147341651Y-84589962D01*
X147334419Y-84569750D01*
X147329203Y-84548926D01*
X147326053Y-84527691D01*
X147325000Y-84506250D01*
X147325000Y-84068750D01*
X147326053Y-84047309D01*
X147329203Y-84026074D01*
X147334419Y-84005250D01*
X147341651Y-83985038D01*
X147350830Y-83965632D01*
X147361866Y-83947219D01*
X147374654Y-83929976D01*
X147389070Y-83914070D01*
X147404976Y-83899654D01*
X147422219Y-83886866D01*
X147440632Y-83875830D01*
X147460038Y-83866651D01*
X147480250Y-83859419D01*
X147501074Y-83854203D01*
X147522309Y-83851053D01*
X147543750Y-83850000D01*
X148056250Y-83850000D01*
X148077691Y-83851053D01*
G37*
G36*
X148077691Y-82276053D02*
G01*
X148098926Y-82279203D01*
X148119750Y-82284419D01*
X148139962Y-82291651D01*
X148159368Y-82300830D01*
X148177781Y-82311866D01*
X148195024Y-82324654D01*
X148210930Y-82339070D01*
X148225346Y-82354976D01*
X148238134Y-82372219D01*
X148249170Y-82390632D01*
X148258349Y-82410038D01*
X148265581Y-82430250D01*
X148270797Y-82451074D01*
X148273947Y-82472309D01*
X148275000Y-82493750D01*
X148275000Y-82931250D01*
X148273947Y-82952691D01*
X148270797Y-82973926D01*
X148265581Y-82994750D01*
X148258349Y-83014962D01*
X148249170Y-83034368D01*
X148238134Y-83052781D01*
X148225346Y-83070024D01*
X148210930Y-83085930D01*
X148195024Y-83100346D01*
X148177781Y-83113134D01*
X148159368Y-83124170D01*
X148139962Y-83133349D01*
X148119750Y-83140581D01*
X148098926Y-83145797D01*
X148077691Y-83148947D01*
X148056250Y-83150000D01*
X147543750Y-83150000D01*
X147522309Y-83148947D01*
X147501074Y-83145797D01*
X147480250Y-83140581D01*
X147460038Y-83133349D01*
X147440632Y-83124170D01*
X147422219Y-83113134D01*
X147404976Y-83100346D01*
X147389070Y-83085930D01*
X147374654Y-83070024D01*
X147361866Y-83052781D01*
X147350830Y-83034368D01*
X147341651Y-83014962D01*
X147334419Y-82994750D01*
X147329203Y-82973926D01*
X147326053Y-82952691D01*
X147325000Y-82931250D01*
X147325000Y-82493750D01*
X147326053Y-82472309D01*
X147329203Y-82451074D01*
X147334419Y-82430250D01*
X147341651Y-82410038D01*
X147350830Y-82390632D01*
X147361866Y-82372219D01*
X147374654Y-82354976D01*
X147389070Y-82339070D01*
X147404976Y-82324654D01*
X147422219Y-82311866D01*
X147440632Y-82300830D01*
X147460038Y-82291651D01*
X147480250Y-82284419D01*
X147501074Y-82279203D01*
X147522309Y-82276053D01*
X147543750Y-82275000D01*
X148056250Y-82275000D01*
X148077691Y-82276053D01*
G37*
M02*
