G04 #@! TF.GenerationSoftware,KiCad,Pcbnew,(5.1.5)-3*
G04 #@! TF.CreationDate,2021-07-01T11:46:27+03:00*
G04 #@! TF.ProjectId,ISAMEM,4953414d-454d-42e6-9b69-6361645f7063,rev?*
G04 #@! TF.SameCoordinates,Original*
G04 #@! TF.FileFunction,Legend,Top*
G04 #@! TF.FilePolarity,Positive*
%FSLAX46Y46*%
G04 Gerber Fmt 4.6, Leading zero omitted, Abs format (unit mm)*
G04 Created by KiCad (PCBNEW (5.1.5)-3) date 2021-07-01 11:46:27*
%MOMM*%
%LPD*%
G04 APERTURE LIST*
%ADD10C,0.200000*%
%ADD11C,0.120000*%
%ADD12C,0.254000*%
%ADD13C,0.150000*%
G04 APERTURE END LIST*
D10*
X232092000Y-118491000D02*
X232092000Y-104521000D01*
X190056000Y-119718000D02*
X190056000Y-104521000D01*
D11*
X226684721Y-113843907D02*
X227010279Y-113843907D01*
X226684721Y-112823907D02*
X227010279Y-112823907D01*
D12*
X211648523Y-112745761D02*
X210378523Y-112745761D01*
X211527571Y-111415285D02*
X211588047Y-111475761D01*
X211648523Y-111657190D01*
X211648523Y-111778142D01*
X211588047Y-111959571D01*
X211467095Y-112080523D01*
X211346142Y-112141000D01*
X211104238Y-112201476D01*
X210922809Y-112201476D01*
X210680904Y-112141000D01*
X210559952Y-112080523D01*
X210439000Y-111959571D01*
X210378523Y-111778142D01*
X210378523Y-111657190D01*
X210439000Y-111475761D01*
X210499476Y-111415285D01*
X210378523Y-110991952D02*
X210378523Y-110205761D01*
X210862333Y-110629095D01*
X210862333Y-110447666D01*
X210922809Y-110326714D01*
X210983285Y-110266238D01*
X211104238Y-110205761D01*
X211406619Y-110205761D01*
X211527571Y-110266238D01*
X211588047Y-110326714D01*
X211648523Y-110447666D01*
X211648523Y-110810523D01*
X211588047Y-110931476D01*
X211527571Y-110991952D01*
D13*
X226680833Y-112261049D02*
X226633214Y-112308668D01*
X226490357Y-112356287D01*
X226395119Y-112356287D01*
X226252261Y-112308668D01*
X226157023Y-112213430D01*
X226109404Y-112118192D01*
X226061785Y-111927716D01*
X226061785Y-111784859D01*
X226109404Y-111594383D01*
X226157023Y-111499145D01*
X226252261Y-111403907D01*
X226395119Y-111356287D01*
X226490357Y-111356287D01*
X226633214Y-111403907D01*
X226680833Y-111451526D01*
X227633214Y-112356287D02*
X227061785Y-112356287D01*
X227347500Y-112356287D02*
X227347500Y-111356287D01*
X227252261Y-111499145D01*
X227157023Y-111594383D01*
X227061785Y-111642002D01*
X206676666Y-106894380D02*
X206676666Y-107608666D01*
X206629047Y-107751523D01*
X206533809Y-107846761D01*
X206390952Y-107894380D01*
X206295714Y-107894380D01*
X207676666Y-107894380D02*
X207105238Y-107894380D01*
X207390952Y-107894380D02*
X207390952Y-106894380D01*
X207295714Y-107037238D01*
X207200476Y-107132476D01*
X207105238Y-107180095D01*
M02*
