G04 #@! TF.GenerationSoftware,KiCad,Pcbnew,(5.1.5)-3*
G04 #@! TF.CreationDate,2021-07-01T11:46:27+03:00*
G04 #@! TF.ProjectId,ISAMEM,4953414d-454d-42e6-9b69-6361645f7063,rev?*
G04 #@! TF.SameCoordinates,Original*
G04 #@! TF.FileFunction,Paste,Top*
G04 #@! TF.FilePolarity,Positive*
%FSLAX46Y46*%
G04 Gerber Fmt 4.6, Leading zero omitted, Abs format (unit mm)*
G04 Created by KiCad (PCBNEW (5.1.5)-3) date 2021-07-01 11:46:27*
%MOMM*%
%LPD*%
G04 APERTURE LIST*
%ADD10C,0.100000*%
G04 APERTURE END LIST*
D10*
G36*
X227875191Y-112859960D02*
G01*
X227896426Y-112863110D01*
X227917250Y-112868326D01*
X227937462Y-112875558D01*
X227956868Y-112884737D01*
X227975281Y-112895773D01*
X227992524Y-112908561D01*
X228008430Y-112922977D01*
X228022846Y-112938883D01*
X228035634Y-112956126D01*
X228046670Y-112974539D01*
X228055849Y-112993945D01*
X228063081Y-113014157D01*
X228068297Y-113034981D01*
X228071447Y-113056216D01*
X228072500Y-113077657D01*
X228072500Y-113590157D01*
X228071447Y-113611598D01*
X228068297Y-113632833D01*
X228063081Y-113653657D01*
X228055849Y-113673869D01*
X228046670Y-113693275D01*
X228035634Y-113711688D01*
X228022846Y-113728931D01*
X228008430Y-113744837D01*
X227992524Y-113759253D01*
X227975281Y-113772041D01*
X227956868Y-113783077D01*
X227937462Y-113792256D01*
X227917250Y-113799488D01*
X227896426Y-113804704D01*
X227875191Y-113807854D01*
X227853750Y-113808907D01*
X227416250Y-113808907D01*
X227394809Y-113807854D01*
X227373574Y-113804704D01*
X227352750Y-113799488D01*
X227332538Y-113792256D01*
X227313132Y-113783077D01*
X227294719Y-113772041D01*
X227277476Y-113759253D01*
X227261570Y-113744837D01*
X227247154Y-113728931D01*
X227234366Y-113711688D01*
X227223330Y-113693275D01*
X227214151Y-113673869D01*
X227206919Y-113653657D01*
X227201703Y-113632833D01*
X227198553Y-113611598D01*
X227197500Y-113590157D01*
X227197500Y-113077657D01*
X227198553Y-113056216D01*
X227201703Y-113034981D01*
X227206919Y-113014157D01*
X227214151Y-112993945D01*
X227223330Y-112974539D01*
X227234366Y-112956126D01*
X227247154Y-112938883D01*
X227261570Y-112922977D01*
X227277476Y-112908561D01*
X227294719Y-112895773D01*
X227313132Y-112884737D01*
X227332538Y-112875558D01*
X227352750Y-112868326D01*
X227373574Y-112863110D01*
X227394809Y-112859960D01*
X227416250Y-112858907D01*
X227853750Y-112858907D01*
X227875191Y-112859960D01*
G37*
G36*
X226300191Y-112859960D02*
G01*
X226321426Y-112863110D01*
X226342250Y-112868326D01*
X226362462Y-112875558D01*
X226381868Y-112884737D01*
X226400281Y-112895773D01*
X226417524Y-112908561D01*
X226433430Y-112922977D01*
X226447846Y-112938883D01*
X226460634Y-112956126D01*
X226471670Y-112974539D01*
X226480849Y-112993945D01*
X226488081Y-113014157D01*
X226493297Y-113034981D01*
X226496447Y-113056216D01*
X226497500Y-113077657D01*
X226497500Y-113590157D01*
X226496447Y-113611598D01*
X226493297Y-113632833D01*
X226488081Y-113653657D01*
X226480849Y-113673869D01*
X226471670Y-113693275D01*
X226460634Y-113711688D01*
X226447846Y-113728931D01*
X226433430Y-113744837D01*
X226417524Y-113759253D01*
X226400281Y-113772041D01*
X226381868Y-113783077D01*
X226362462Y-113792256D01*
X226342250Y-113799488D01*
X226321426Y-113804704D01*
X226300191Y-113807854D01*
X226278750Y-113808907D01*
X225841250Y-113808907D01*
X225819809Y-113807854D01*
X225798574Y-113804704D01*
X225777750Y-113799488D01*
X225757538Y-113792256D01*
X225738132Y-113783077D01*
X225719719Y-113772041D01*
X225702476Y-113759253D01*
X225686570Y-113744837D01*
X225672154Y-113728931D01*
X225659366Y-113711688D01*
X225648330Y-113693275D01*
X225639151Y-113673869D01*
X225631919Y-113653657D01*
X225626703Y-113632833D01*
X225623553Y-113611598D01*
X225622500Y-113590157D01*
X225622500Y-113077657D01*
X225623553Y-113056216D01*
X225626703Y-113034981D01*
X225631919Y-113014157D01*
X225639151Y-112993945D01*
X225648330Y-112974539D01*
X225659366Y-112956126D01*
X225672154Y-112938883D01*
X225686570Y-112922977D01*
X225702476Y-112908561D01*
X225719719Y-112895773D01*
X225738132Y-112884737D01*
X225757538Y-112875558D01*
X225777750Y-112868326D01*
X225798574Y-112863110D01*
X225819809Y-112859960D01*
X225841250Y-112858907D01*
X226278750Y-112858907D01*
X226300191Y-112859960D01*
G37*
M02*
