G04 #@! TF.GenerationSoftware,KiCad,Pcbnew,(5.1.5)-3*
G04 #@! TF.CreationDate,2021-07-01T11:46:27+03:00*
G04 #@! TF.ProjectId,ISAMEM,4953414d-454d-42e6-9b69-6361645f7063,rev?*
G04 #@! TF.SameCoordinates,Original*
G04 #@! TF.FileFunction,Soldermask,Bot*
G04 #@! TF.FilePolarity,Negative*
%FSLAX46Y46*%
G04 Gerber Fmt 4.6, Leading zero omitted, Abs format (unit mm)*
G04 Created by KiCad (PCBNEW (5.1.5)-3) date 2021-07-01 11:46:27*
%MOMM*%
%LPD*%
G04 APERTURE LIST*
%ADD10C,0.100000*%
G04 APERTURE END LIST*
D10*
G36*
X247193000Y-138481000D02*
G01*
X245567000Y-138481000D01*
X245567000Y-131521000D01*
X247193000Y-131521000D01*
X247193000Y-138481000D01*
G37*
G36*
X209093000Y-138481000D02*
G01*
X207467000Y-138481000D01*
X207467000Y-131521000D01*
X209093000Y-131521000D01*
X209093000Y-138481000D01*
G37*
G36*
X170993000Y-138481000D02*
G01*
X169367000Y-138481000D01*
X169367000Y-131521000D01*
X170993000Y-131521000D01*
X170993000Y-138481000D01*
G37*
G36*
X173533000Y-138481000D02*
G01*
X171907000Y-138481000D01*
X171907000Y-131521000D01*
X173533000Y-131521000D01*
X173533000Y-138481000D01*
G37*
G36*
X176073000Y-138481000D02*
G01*
X174447000Y-138481000D01*
X174447000Y-131521000D01*
X176073000Y-131521000D01*
X176073000Y-138481000D01*
G37*
G36*
X178613000Y-138481000D02*
G01*
X176987000Y-138481000D01*
X176987000Y-131521000D01*
X178613000Y-131521000D01*
X178613000Y-138481000D01*
G37*
G36*
X181153000Y-138481000D02*
G01*
X179527000Y-138481000D01*
X179527000Y-131521000D01*
X181153000Y-131521000D01*
X181153000Y-138481000D01*
G37*
G36*
X183693000Y-138481000D02*
G01*
X182067000Y-138481000D01*
X182067000Y-131521000D01*
X183693000Y-131521000D01*
X183693000Y-138481000D01*
G37*
G36*
X186233000Y-138481000D02*
G01*
X184607000Y-138481000D01*
X184607000Y-131521000D01*
X186233000Y-131521000D01*
X186233000Y-138481000D01*
G37*
G36*
X188773000Y-138481000D02*
G01*
X187147000Y-138481000D01*
X187147000Y-131521000D01*
X188773000Y-131521000D01*
X188773000Y-138481000D01*
G37*
G36*
X191313000Y-138481000D02*
G01*
X189687000Y-138481000D01*
X189687000Y-131521000D01*
X191313000Y-131521000D01*
X191313000Y-138481000D01*
G37*
G36*
X193853000Y-138481000D02*
G01*
X192227000Y-138481000D01*
X192227000Y-131521000D01*
X193853000Y-131521000D01*
X193853000Y-138481000D01*
G37*
G36*
X196393000Y-138481000D02*
G01*
X194767000Y-138481000D01*
X194767000Y-131521000D01*
X196393000Y-131521000D01*
X196393000Y-138481000D01*
G37*
G36*
X198933000Y-138481000D02*
G01*
X197307000Y-138481000D01*
X197307000Y-131521000D01*
X198933000Y-131521000D01*
X198933000Y-138481000D01*
G37*
G36*
X201473000Y-138481000D02*
G01*
X199847000Y-138481000D01*
X199847000Y-131521000D01*
X201473000Y-131521000D01*
X201473000Y-138481000D01*
G37*
G36*
X204013000Y-138481000D02*
G01*
X202387000Y-138481000D01*
X202387000Y-131521000D01*
X204013000Y-131521000D01*
X204013000Y-138481000D01*
G37*
G36*
X211633000Y-138481000D02*
G01*
X210007000Y-138481000D01*
X210007000Y-131521000D01*
X211633000Y-131521000D01*
X211633000Y-138481000D01*
G37*
G36*
X244653000Y-138481000D02*
G01*
X243027000Y-138481000D01*
X243027000Y-131521000D01*
X244653000Y-131521000D01*
X244653000Y-138481000D01*
G37*
G36*
X242113000Y-138481000D02*
G01*
X240487000Y-138481000D01*
X240487000Y-131521000D01*
X242113000Y-131521000D01*
X242113000Y-138481000D01*
G37*
G36*
X239573000Y-138481000D02*
G01*
X237947000Y-138481000D01*
X237947000Y-131521000D01*
X239573000Y-131521000D01*
X239573000Y-138481000D01*
G37*
G36*
X237033000Y-138481000D02*
G01*
X235407000Y-138481000D01*
X235407000Y-131521000D01*
X237033000Y-131521000D01*
X237033000Y-138481000D01*
G37*
G36*
X234493000Y-138481000D02*
G01*
X232867000Y-138481000D01*
X232867000Y-131521000D01*
X234493000Y-131521000D01*
X234493000Y-138481000D01*
G37*
G36*
X231953000Y-138481000D02*
G01*
X230327000Y-138481000D01*
X230327000Y-131521000D01*
X231953000Y-131521000D01*
X231953000Y-138481000D01*
G37*
G36*
X229413000Y-138481000D02*
G01*
X227787000Y-138481000D01*
X227787000Y-131521000D01*
X229413000Y-131521000D01*
X229413000Y-138481000D01*
G37*
G36*
X226873000Y-138481000D02*
G01*
X225247000Y-138481000D01*
X225247000Y-131521000D01*
X226873000Y-131521000D01*
X226873000Y-138481000D01*
G37*
G36*
X224333000Y-138481000D02*
G01*
X222707000Y-138481000D01*
X222707000Y-131521000D01*
X224333000Y-131521000D01*
X224333000Y-138481000D01*
G37*
G36*
X221793000Y-138481000D02*
G01*
X220167000Y-138481000D01*
X220167000Y-131521000D01*
X221793000Y-131521000D01*
X221793000Y-138481000D01*
G37*
G36*
X219253000Y-138481000D02*
G01*
X217627000Y-138481000D01*
X217627000Y-131521000D01*
X219253000Y-131521000D01*
X219253000Y-138481000D01*
G37*
G36*
X216713000Y-138481000D02*
G01*
X215087000Y-138481000D01*
X215087000Y-131521000D01*
X216713000Y-131521000D01*
X216713000Y-138481000D01*
G37*
G36*
X214173000Y-138481000D02*
G01*
X212547000Y-138481000D01*
X212547000Y-131521000D01*
X214173000Y-131521000D01*
X214173000Y-138481000D01*
G37*
G36*
X206553000Y-138481000D02*
G01*
X204927000Y-138481000D01*
X204927000Y-131521000D01*
X206553000Y-131521000D01*
X206553000Y-138481000D01*
G37*
G36*
X227709443Y-118495355D02*
G01*
X227771556Y-118507710D01*
X227820026Y-118527787D01*
X227888574Y-118556180D01*
X227993888Y-118626549D01*
X228083451Y-118716112D01*
X228153820Y-118821426D01*
X228202290Y-118938445D01*
X228227000Y-119062669D01*
X228227000Y-119189331D01*
X228202290Y-119313555D01*
X228153820Y-119430574D01*
X228083451Y-119535888D01*
X227993888Y-119625451D01*
X227888574Y-119695820D01*
X227820026Y-119724213D01*
X227771556Y-119744290D01*
X227709443Y-119756645D01*
X227647331Y-119769000D01*
X227520669Y-119769000D01*
X227458557Y-119756645D01*
X227396444Y-119744290D01*
X227347974Y-119724213D01*
X227279426Y-119695820D01*
X227174112Y-119625451D01*
X227084549Y-119535888D01*
X227014180Y-119430574D01*
X226965710Y-119313555D01*
X226941000Y-119189331D01*
X226941000Y-119062669D01*
X226965710Y-118938445D01*
X227014180Y-118821426D01*
X227084549Y-118716112D01*
X227174112Y-118626549D01*
X227279426Y-118556180D01*
X227347974Y-118527787D01*
X227396444Y-118507710D01*
X227458557Y-118495355D01*
X227520669Y-118483000D01*
X227647331Y-118483000D01*
X227709443Y-118495355D01*
G37*
G36*
X230249443Y-118495355D02*
G01*
X230311556Y-118507710D01*
X230360026Y-118527787D01*
X230428574Y-118556180D01*
X230533888Y-118626549D01*
X230623451Y-118716112D01*
X230693820Y-118821426D01*
X230742290Y-118938445D01*
X230767000Y-119062669D01*
X230767000Y-119189331D01*
X230742290Y-119313555D01*
X230693820Y-119430574D01*
X230623451Y-119535888D01*
X230533888Y-119625451D01*
X230428574Y-119695820D01*
X230360026Y-119724213D01*
X230311556Y-119744290D01*
X230249443Y-119756645D01*
X230187331Y-119769000D01*
X230060669Y-119769000D01*
X229998557Y-119756645D01*
X229936444Y-119744290D01*
X229887974Y-119724213D01*
X229819426Y-119695820D01*
X229714112Y-119625451D01*
X229624549Y-119535888D01*
X229554180Y-119430574D01*
X229505710Y-119313555D01*
X229481000Y-119189331D01*
X229481000Y-119062669D01*
X229505710Y-118938445D01*
X229554180Y-118821426D01*
X229624549Y-118716112D01*
X229714112Y-118626549D01*
X229819426Y-118556180D01*
X229887974Y-118527787D01*
X229936444Y-118507710D01*
X229998557Y-118495355D01*
X230060669Y-118483000D01*
X230187331Y-118483000D01*
X230249443Y-118495355D01*
G37*
G36*
X192667000Y-119769000D02*
G01*
X191381000Y-119769000D01*
X191381000Y-118483000D01*
X192667000Y-118483000D01*
X192667000Y-119769000D01*
G37*
G36*
X194689443Y-118495355D02*
G01*
X194751556Y-118507710D01*
X194800026Y-118527787D01*
X194868574Y-118556180D01*
X194973888Y-118626549D01*
X195063451Y-118716112D01*
X195133820Y-118821426D01*
X195182290Y-118938445D01*
X195207000Y-119062669D01*
X195207000Y-119189331D01*
X195182290Y-119313555D01*
X195133820Y-119430574D01*
X195063451Y-119535888D01*
X194973888Y-119625451D01*
X194868574Y-119695820D01*
X194800026Y-119724213D01*
X194751556Y-119744290D01*
X194689443Y-119756645D01*
X194627331Y-119769000D01*
X194500669Y-119769000D01*
X194438557Y-119756645D01*
X194376444Y-119744290D01*
X194327974Y-119724213D01*
X194259426Y-119695820D01*
X194154112Y-119625451D01*
X194064549Y-119535888D01*
X193994180Y-119430574D01*
X193945710Y-119313555D01*
X193921000Y-119189331D01*
X193921000Y-119062669D01*
X193945710Y-118938445D01*
X193994180Y-118821426D01*
X194064549Y-118716112D01*
X194154112Y-118626549D01*
X194259426Y-118556180D01*
X194327974Y-118527787D01*
X194376444Y-118507710D01*
X194438557Y-118495355D01*
X194500669Y-118483000D01*
X194627331Y-118483000D01*
X194689443Y-118495355D01*
G37*
G36*
X197229443Y-118495355D02*
G01*
X197291556Y-118507710D01*
X197340026Y-118527787D01*
X197408574Y-118556180D01*
X197513888Y-118626549D01*
X197603451Y-118716112D01*
X197673820Y-118821426D01*
X197722290Y-118938445D01*
X197747000Y-119062669D01*
X197747000Y-119189331D01*
X197722290Y-119313555D01*
X197673820Y-119430574D01*
X197603451Y-119535888D01*
X197513888Y-119625451D01*
X197408574Y-119695820D01*
X197340026Y-119724213D01*
X197291556Y-119744290D01*
X197229443Y-119756645D01*
X197167331Y-119769000D01*
X197040669Y-119769000D01*
X196978557Y-119756645D01*
X196916444Y-119744290D01*
X196867974Y-119724213D01*
X196799426Y-119695820D01*
X196694112Y-119625451D01*
X196604549Y-119535888D01*
X196534180Y-119430574D01*
X196485710Y-119313555D01*
X196461000Y-119189331D01*
X196461000Y-119062669D01*
X196485710Y-118938445D01*
X196534180Y-118821426D01*
X196604549Y-118716112D01*
X196694112Y-118626549D01*
X196799426Y-118556180D01*
X196867974Y-118527787D01*
X196916444Y-118507710D01*
X196978557Y-118495355D01*
X197040669Y-118483000D01*
X197167331Y-118483000D01*
X197229443Y-118495355D01*
G37*
G36*
X199769443Y-118495355D02*
G01*
X199831556Y-118507710D01*
X199880026Y-118527787D01*
X199948574Y-118556180D01*
X200053888Y-118626549D01*
X200143451Y-118716112D01*
X200213820Y-118821426D01*
X200262290Y-118938445D01*
X200287000Y-119062669D01*
X200287000Y-119189331D01*
X200262290Y-119313555D01*
X200213820Y-119430574D01*
X200143451Y-119535888D01*
X200053888Y-119625451D01*
X199948574Y-119695820D01*
X199880026Y-119724213D01*
X199831556Y-119744290D01*
X199769443Y-119756645D01*
X199707331Y-119769000D01*
X199580669Y-119769000D01*
X199518557Y-119756645D01*
X199456444Y-119744290D01*
X199407974Y-119724213D01*
X199339426Y-119695820D01*
X199234112Y-119625451D01*
X199144549Y-119535888D01*
X199074180Y-119430574D01*
X199025710Y-119313555D01*
X199001000Y-119189331D01*
X199001000Y-119062669D01*
X199025710Y-118938445D01*
X199074180Y-118821426D01*
X199144549Y-118716112D01*
X199234112Y-118626549D01*
X199339426Y-118556180D01*
X199407974Y-118527787D01*
X199456444Y-118507710D01*
X199518557Y-118495355D01*
X199580669Y-118483000D01*
X199707331Y-118483000D01*
X199769443Y-118495355D01*
G37*
G36*
X202309443Y-118495355D02*
G01*
X202371556Y-118507710D01*
X202420026Y-118527787D01*
X202488574Y-118556180D01*
X202593888Y-118626549D01*
X202683451Y-118716112D01*
X202753820Y-118821426D01*
X202802290Y-118938445D01*
X202827000Y-119062669D01*
X202827000Y-119189331D01*
X202802290Y-119313555D01*
X202753820Y-119430574D01*
X202683451Y-119535888D01*
X202593888Y-119625451D01*
X202488574Y-119695820D01*
X202420026Y-119724213D01*
X202371556Y-119744290D01*
X202309443Y-119756645D01*
X202247331Y-119769000D01*
X202120669Y-119769000D01*
X202058557Y-119756645D01*
X201996444Y-119744290D01*
X201947974Y-119724213D01*
X201879426Y-119695820D01*
X201774112Y-119625451D01*
X201684549Y-119535888D01*
X201614180Y-119430574D01*
X201565710Y-119313555D01*
X201541000Y-119189331D01*
X201541000Y-119062669D01*
X201565710Y-118938445D01*
X201614180Y-118821426D01*
X201684549Y-118716112D01*
X201774112Y-118626549D01*
X201879426Y-118556180D01*
X201947974Y-118527787D01*
X201996444Y-118507710D01*
X202058557Y-118495355D01*
X202120669Y-118483000D01*
X202247331Y-118483000D01*
X202309443Y-118495355D01*
G37*
G36*
X204849443Y-118495355D02*
G01*
X204911556Y-118507710D01*
X204960026Y-118527787D01*
X205028574Y-118556180D01*
X205133888Y-118626549D01*
X205223451Y-118716112D01*
X205293820Y-118821426D01*
X205342290Y-118938445D01*
X205367000Y-119062669D01*
X205367000Y-119189331D01*
X205342290Y-119313555D01*
X205293820Y-119430574D01*
X205223451Y-119535888D01*
X205133888Y-119625451D01*
X205028574Y-119695820D01*
X204960026Y-119724213D01*
X204911556Y-119744290D01*
X204849443Y-119756645D01*
X204787331Y-119769000D01*
X204660669Y-119769000D01*
X204598557Y-119756645D01*
X204536444Y-119744290D01*
X204487974Y-119724213D01*
X204419426Y-119695820D01*
X204314112Y-119625451D01*
X204224549Y-119535888D01*
X204154180Y-119430574D01*
X204105710Y-119313555D01*
X204081000Y-119189331D01*
X204081000Y-119062669D01*
X204105710Y-118938445D01*
X204154180Y-118821426D01*
X204224549Y-118716112D01*
X204314112Y-118626549D01*
X204419426Y-118556180D01*
X204487974Y-118527787D01*
X204536444Y-118507710D01*
X204598557Y-118495355D01*
X204660669Y-118483000D01*
X204787331Y-118483000D01*
X204849443Y-118495355D01*
G37*
G36*
X209929443Y-118495355D02*
G01*
X209991556Y-118507710D01*
X210040026Y-118527787D01*
X210108574Y-118556180D01*
X210213888Y-118626549D01*
X210303451Y-118716112D01*
X210373820Y-118821426D01*
X210422290Y-118938445D01*
X210447000Y-119062669D01*
X210447000Y-119189331D01*
X210422290Y-119313555D01*
X210373820Y-119430574D01*
X210303451Y-119535888D01*
X210213888Y-119625451D01*
X210108574Y-119695820D01*
X210040026Y-119724213D01*
X209991556Y-119744290D01*
X209929443Y-119756645D01*
X209867331Y-119769000D01*
X209740669Y-119769000D01*
X209678557Y-119756645D01*
X209616444Y-119744290D01*
X209567974Y-119724213D01*
X209499426Y-119695820D01*
X209394112Y-119625451D01*
X209304549Y-119535888D01*
X209234180Y-119430574D01*
X209185710Y-119313555D01*
X209161000Y-119189331D01*
X209161000Y-119062669D01*
X209185710Y-118938445D01*
X209234180Y-118821426D01*
X209304549Y-118716112D01*
X209394112Y-118626549D01*
X209499426Y-118556180D01*
X209567974Y-118527787D01*
X209616444Y-118507710D01*
X209678557Y-118495355D01*
X209740669Y-118483000D01*
X209867331Y-118483000D01*
X209929443Y-118495355D01*
G37*
G36*
X212469443Y-118495355D02*
G01*
X212531556Y-118507710D01*
X212580026Y-118527787D01*
X212648574Y-118556180D01*
X212753888Y-118626549D01*
X212843451Y-118716112D01*
X212913820Y-118821426D01*
X212962290Y-118938445D01*
X212987000Y-119062669D01*
X212987000Y-119189331D01*
X212962290Y-119313555D01*
X212913820Y-119430574D01*
X212843451Y-119535888D01*
X212753888Y-119625451D01*
X212648574Y-119695820D01*
X212580026Y-119724213D01*
X212531556Y-119744290D01*
X212469443Y-119756645D01*
X212407331Y-119769000D01*
X212280669Y-119769000D01*
X212218557Y-119756645D01*
X212156444Y-119744290D01*
X212107974Y-119724213D01*
X212039426Y-119695820D01*
X211934112Y-119625451D01*
X211844549Y-119535888D01*
X211774180Y-119430574D01*
X211725710Y-119313555D01*
X211701000Y-119189331D01*
X211701000Y-119062669D01*
X211725710Y-118938445D01*
X211774180Y-118821426D01*
X211844549Y-118716112D01*
X211934112Y-118626549D01*
X212039426Y-118556180D01*
X212107974Y-118527787D01*
X212156444Y-118507710D01*
X212218557Y-118495355D01*
X212280669Y-118483000D01*
X212407331Y-118483000D01*
X212469443Y-118495355D01*
G37*
G36*
X215009443Y-118495355D02*
G01*
X215071556Y-118507710D01*
X215120026Y-118527787D01*
X215188574Y-118556180D01*
X215293888Y-118626549D01*
X215383451Y-118716112D01*
X215453820Y-118821426D01*
X215502290Y-118938445D01*
X215527000Y-119062669D01*
X215527000Y-119189331D01*
X215502290Y-119313555D01*
X215453820Y-119430574D01*
X215383451Y-119535888D01*
X215293888Y-119625451D01*
X215188574Y-119695820D01*
X215120026Y-119724213D01*
X215071556Y-119744290D01*
X215009443Y-119756645D01*
X214947331Y-119769000D01*
X214820669Y-119769000D01*
X214758557Y-119756645D01*
X214696444Y-119744290D01*
X214647974Y-119724213D01*
X214579426Y-119695820D01*
X214474112Y-119625451D01*
X214384549Y-119535888D01*
X214314180Y-119430574D01*
X214265710Y-119313555D01*
X214241000Y-119189331D01*
X214241000Y-119062669D01*
X214265710Y-118938445D01*
X214314180Y-118821426D01*
X214384549Y-118716112D01*
X214474112Y-118626549D01*
X214579426Y-118556180D01*
X214647974Y-118527787D01*
X214696444Y-118507710D01*
X214758557Y-118495355D01*
X214820669Y-118483000D01*
X214947331Y-118483000D01*
X215009443Y-118495355D01*
G37*
G36*
X217549443Y-118495355D02*
G01*
X217611556Y-118507710D01*
X217660026Y-118527787D01*
X217728574Y-118556180D01*
X217833888Y-118626549D01*
X217923451Y-118716112D01*
X217993820Y-118821426D01*
X218042290Y-118938445D01*
X218067000Y-119062669D01*
X218067000Y-119189331D01*
X218042290Y-119313555D01*
X217993820Y-119430574D01*
X217923451Y-119535888D01*
X217833888Y-119625451D01*
X217728574Y-119695820D01*
X217660026Y-119724213D01*
X217611556Y-119744290D01*
X217549443Y-119756645D01*
X217487331Y-119769000D01*
X217360669Y-119769000D01*
X217298557Y-119756645D01*
X217236444Y-119744290D01*
X217187974Y-119724213D01*
X217119426Y-119695820D01*
X217014112Y-119625451D01*
X216924549Y-119535888D01*
X216854180Y-119430574D01*
X216805710Y-119313555D01*
X216781000Y-119189331D01*
X216781000Y-119062669D01*
X216805710Y-118938445D01*
X216854180Y-118821426D01*
X216924549Y-118716112D01*
X217014112Y-118626549D01*
X217119426Y-118556180D01*
X217187974Y-118527787D01*
X217236444Y-118507710D01*
X217298557Y-118495355D01*
X217360669Y-118483000D01*
X217487331Y-118483000D01*
X217549443Y-118495355D01*
G37*
G36*
X220089443Y-118495355D02*
G01*
X220151556Y-118507710D01*
X220200026Y-118527787D01*
X220268574Y-118556180D01*
X220373888Y-118626549D01*
X220463451Y-118716112D01*
X220533820Y-118821426D01*
X220582290Y-118938445D01*
X220607000Y-119062669D01*
X220607000Y-119189331D01*
X220582290Y-119313555D01*
X220533820Y-119430574D01*
X220463451Y-119535888D01*
X220373888Y-119625451D01*
X220268574Y-119695820D01*
X220200026Y-119724213D01*
X220151556Y-119744290D01*
X220089443Y-119756645D01*
X220027331Y-119769000D01*
X219900669Y-119769000D01*
X219838557Y-119756645D01*
X219776444Y-119744290D01*
X219727974Y-119724213D01*
X219659426Y-119695820D01*
X219554112Y-119625451D01*
X219464549Y-119535888D01*
X219394180Y-119430574D01*
X219345710Y-119313555D01*
X219321000Y-119189331D01*
X219321000Y-119062669D01*
X219345710Y-118938445D01*
X219394180Y-118821426D01*
X219464549Y-118716112D01*
X219554112Y-118626549D01*
X219659426Y-118556180D01*
X219727974Y-118527787D01*
X219776444Y-118507710D01*
X219838557Y-118495355D01*
X219900669Y-118483000D01*
X220027331Y-118483000D01*
X220089443Y-118495355D01*
G37*
G36*
X222629443Y-118495355D02*
G01*
X222691556Y-118507710D01*
X222740026Y-118527787D01*
X222808574Y-118556180D01*
X222913888Y-118626549D01*
X223003451Y-118716112D01*
X223073820Y-118821426D01*
X223122290Y-118938445D01*
X223147000Y-119062669D01*
X223147000Y-119189331D01*
X223122290Y-119313555D01*
X223073820Y-119430574D01*
X223003451Y-119535888D01*
X222913888Y-119625451D01*
X222808574Y-119695820D01*
X222740026Y-119724213D01*
X222691556Y-119744290D01*
X222629443Y-119756645D01*
X222567331Y-119769000D01*
X222440669Y-119769000D01*
X222378557Y-119756645D01*
X222316444Y-119744290D01*
X222267974Y-119724213D01*
X222199426Y-119695820D01*
X222094112Y-119625451D01*
X222004549Y-119535888D01*
X221934180Y-119430574D01*
X221885710Y-119313555D01*
X221861000Y-119189331D01*
X221861000Y-119062669D01*
X221885710Y-118938445D01*
X221934180Y-118821426D01*
X222004549Y-118716112D01*
X222094112Y-118626549D01*
X222199426Y-118556180D01*
X222267974Y-118527787D01*
X222316444Y-118507710D01*
X222378557Y-118495355D01*
X222440669Y-118483000D01*
X222567331Y-118483000D01*
X222629443Y-118495355D01*
G37*
G36*
X225169443Y-118495355D02*
G01*
X225231556Y-118507710D01*
X225280026Y-118527787D01*
X225348574Y-118556180D01*
X225453888Y-118626549D01*
X225543451Y-118716112D01*
X225613820Y-118821426D01*
X225662290Y-118938445D01*
X225687000Y-119062669D01*
X225687000Y-119189331D01*
X225662290Y-119313555D01*
X225613820Y-119430574D01*
X225543451Y-119535888D01*
X225453888Y-119625451D01*
X225348574Y-119695820D01*
X225280026Y-119724213D01*
X225231556Y-119744290D01*
X225169443Y-119756645D01*
X225107331Y-119769000D01*
X224980669Y-119769000D01*
X224918557Y-119756645D01*
X224856444Y-119744290D01*
X224807974Y-119724213D01*
X224739426Y-119695820D01*
X224634112Y-119625451D01*
X224544549Y-119535888D01*
X224474180Y-119430574D01*
X224425710Y-119313555D01*
X224401000Y-119189331D01*
X224401000Y-119062669D01*
X224425710Y-118938445D01*
X224474180Y-118821426D01*
X224544549Y-118716112D01*
X224634112Y-118626549D01*
X224739426Y-118556180D01*
X224807974Y-118527787D01*
X224856444Y-118507710D01*
X224918557Y-118495355D01*
X224980669Y-118483000D01*
X225107331Y-118483000D01*
X225169443Y-118495355D01*
G37*
G36*
X207389443Y-118495355D02*
G01*
X207451556Y-118507710D01*
X207500026Y-118527787D01*
X207568574Y-118556180D01*
X207673888Y-118626549D01*
X207763451Y-118716112D01*
X207833820Y-118821426D01*
X207882290Y-118938445D01*
X207907000Y-119062669D01*
X207907000Y-119189331D01*
X207882290Y-119313555D01*
X207833820Y-119430574D01*
X207763451Y-119535888D01*
X207673888Y-119625451D01*
X207568574Y-119695820D01*
X207500026Y-119724213D01*
X207451556Y-119744290D01*
X207389443Y-119756645D01*
X207327331Y-119769000D01*
X207200669Y-119769000D01*
X207138557Y-119756645D01*
X207076444Y-119744290D01*
X207027974Y-119724213D01*
X206959426Y-119695820D01*
X206854112Y-119625451D01*
X206764549Y-119535888D01*
X206694180Y-119430574D01*
X206645710Y-119313555D01*
X206621000Y-119189331D01*
X206621000Y-119062669D01*
X206645710Y-118938445D01*
X206694180Y-118821426D01*
X206764549Y-118716112D01*
X206854112Y-118626549D01*
X206959426Y-118556180D01*
X207027974Y-118527787D01*
X207076444Y-118507710D01*
X207138557Y-118495355D01*
X207200669Y-118483000D01*
X207327331Y-118483000D01*
X207389443Y-118495355D01*
G37*
G36*
X192149443Y-103255355D02*
G01*
X192211556Y-103267710D01*
X192260026Y-103287787D01*
X192328574Y-103316180D01*
X192433888Y-103386549D01*
X192523451Y-103476112D01*
X192593820Y-103581426D01*
X192642290Y-103698445D01*
X192667000Y-103822669D01*
X192667000Y-103949331D01*
X192642290Y-104073555D01*
X192593820Y-104190574D01*
X192523451Y-104295888D01*
X192433888Y-104385451D01*
X192328574Y-104455820D01*
X192260026Y-104484213D01*
X192211556Y-104504290D01*
X192149443Y-104516645D01*
X192087331Y-104529000D01*
X191960669Y-104529000D01*
X191898557Y-104516645D01*
X191836444Y-104504290D01*
X191787974Y-104484213D01*
X191719426Y-104455820D01*
X191614112Y-104385451D01*
X191524549Y-104295888D01*
X191454180Y-104190574D01*
X191405710Y-104073555D01*
X191381000Y-103949331D01*
X191381000Y-103822669D01*
X191405710Y-103698445D01*
X191454180Y-103581426D01*
X191524549Y-103476112D01*
X191614112Y-103386549D01*
X191719426Y-103316180D01*
X191787974Y-103287787D01*
X191836444Y-103267710D01*
X191898557Y-103255355D01*
X191960669Y-103243000D01*
X192087331Y-103243000D01*
X192149443Y-103255355D01*
G37*
G36*
X194689443Y-103255355D02*
G01*
X194751556Y-103267710D01*
X194800026Y-103287787D01*
X194868574Y-103316180D01*
X194973888Y-103386549D01*
X195063451Y-103476112D01*
X195133820Y-103581426D01*
X195182290Y-103698445D01*
X195207000Y-103822669D01*
X195207000Y-103949331D01*
X195182290Y-104073555D01*
X195133820Y-104190574D01*
X195063451Y-104295888D01*
X194973888Y-104385451D01*
X194868574Y-104455820D01*
X194800026Y-104484213D01*
X194751556Y-104504290D01*
X194689443Y-104516645D01*
X194627331Y-104529000D01*
X194500669Y-104529000D01*
X194438557Y-104516645D01*
X194376444Y-104504290D01*
X194327974Y-104484213D01*
X194259426Y-104455820D01*
X194154112Y-104385451D01*
X194064549Y-104295888D01*
X193994180Y-104190574D01*
X193945710Y-104073555D01*
X193921000Y-103949331D01*
X193921000Y-103822669D01*
X193945710Y-103698445D01*
X193994180Y-103581426D01*
X194064549Y-103476112D01*
X194154112Y-103386549D01*
X194259426Y-103316180D01*
X194327974Y-103287787D01*
X194376444Y-103267710D01*
X194438557Y-103255355D01*
X194500669Y-103243000D01*
X194627331Y-103243000D01*
X194689443Y-103255355D01*
G37*
G36*
X197229443Y-103255355D02*
G01*
X197291556Y-103267710D01*
X197340026Y-103287787D01*
X197408574Y-103316180D01*
X197513888Y-103386549D01*
X197603451Y-103476112D01*
X197673820Y-103581426D01*
X197722290Y-103698445D01*
X197747000Y-103822669D01*
X197747000Y-103949331D01*
X197722290Y-104073555D01*
X197673820Y-104190574D01*
X197603451Y-104295888D01*
X197513888Y-104385451D01*
X197408574Y-104455820D01*
X197340026Y-104484213D01*
X197291556Y-104504290D01*
X197229443Y-104516645D01*
X197167331Y-104529000D01*
X197040669Y-104529000D01*
X196978557Y-104516645D01*
X196916444Y-104504290D01*
X196867974Y-104484213D01*
X196799426Y-104455820D01*
X196694112Y-104385451D01*
X196604549Y-104295888D01*
X196534180Y-104190574D01*
X196485710Y-104073555D01*
X196461000Y-103949331D01*
X196461000Y-103822669D01*
X196485710Y-103698445D01*
X196534180Y-103581426D01*
X196604549Y-103476112D01*
X196694112Y-103386549D01*
X196799426Y-103316180D01*
X196867974Y-103287787D01*
X196916444Y-103267710D01*
X196978557Y-103255355D01*
X197040669Y-103243000D01*
X197167331Y-103243000D01*
X197229443Y-103255355D01*
G37*
G36*
X199769443Y-103255355D02*
G01*
X199831556Y-103267710D01*
X199880026Y-103287787D01*
X199948574Y-103316180D01*
X200053888Y-103386549D01*
X200143451Y-103476112D01*
X200213820Y-103581426D01*
X200262290Y-103698445D01*
X200287000Y-103822669D01*
X200287000Y-103949331D01*
X200262290Y-104073555D01*
X200213820Y-104190574D01*
X200143451Y-104295888D01*
X200053888Y-104385451D01*
X199948574Y-104455820D01*
X199880026Y-104484213D01*
X199831556Y-104504290D01*
X199769443Y-104516645D01*
X199707331Y-104529000D01*
X199580669Y-104529000D01*
X199518557Y-104516645D01*
X199456444Y-104504290D01*
X199407974Y-104484213D01*
X199339426Y-104455820D01*
X199234112Y-104385451D01*
X199144549Y-104295888D01*
X199074180Y-104190574D01*
X199025710Y-104073555D01*
X199001000Y-103949331D01*
X199001000Y-103822669D01*
X199025710Y-103698445D01*
X199074180Y-103581426D01*
X199144549Y-103476112D01*
X199234112Y-103386549D01*
X199339426Y-103316180D01*
X199407974Y-103287787D01*
X199456444Y-103267710D01*
X199518557Y-103255355D01*
X199580669Y-103243000D01*
X199707331Y-103243000D01*
X199769443Y-103255355D01*
G37*
G36*
X204849443Y-103255355D02*
G01*
X204911556Y-103267710D01*
X204960026Y-103287787D01*
X205028574Y-103316180D01*
X205133888Y-103386549D01*
X205223451Y-103476112D01*
X205293820Y-103581426D01*
X205342290Y-103698445D01*
X205367000Y-103822669D01*
X205367000Y-103949331D01*
X205342290Y-104073555D01*
X205293820Y-104190574D01*
X205223451Y-104295888D01*
X205133888Y-104385451D01*
X205028574Y-104455820D01*
X204960026Y-104484213D01*
X204911556Y-104504290D01*
X204849443Y-104516645D01*
X204787331Y-104529000D01*
X204660669Y-104529000D01*
X204598557Y-104516645D01*
X204536444Y-104504290D01*
X204487974Y-104484213D01*
X204419426Y-104455820D01*
X204314112Y-104385451D01*
X204224549Y-104295888D01*
X204154180Y-104190574D01*
X204105710Y-104073555D01*
X204081000Y-103949331D01*
X204081000Y-103822669D01*
X204105710Y-103698445D01*
X204154180Y-103581426D01*
X204224549Y-103476112D01*
X204314112Y-103386549D01*
X204419426Y-103316180D01*
X204487974Y-103287787D01*
X204536444Y-103267710D01*
X204598557Y-103255355D01*
X204660669Y-103243000D01*
X204787331Y-103243000D01*
X204849443Y-103255355D01*
G37*
G36*
X209929443Y-103255355D02*
G01*
X209991556Y-103267710D01*
X210040026Y-103287787D01*
X210108574Y-103316180D01*
X210213888Y-103386549D01*
X210303451Y-103476112D01*
X210373820Y-103581426D01*
X210422290Y-103698445D01*
X210447000Y-103822669D01*
X210447000Y-103949331D01*
X210422290Y-104073555D01*
X210373820Y-104190574D01*
X210303451Y-104295888D01*
X210213888Y-104385451D01*
X210108574Y-104455820D01*
X210040026Y-104484213D01*
X209991556Y-104504290D01*
X209929443Y-104516645D01*
X209867331Y-104529000D01*
X209740669Y-104529000D01*
X209678557Y-104516645D01*
X209616444Y-104504290D01*
X209567974Y-104484213D01*
X209499426Y-104455820D01*
X209394112Y-104385451D01*
X209304549Y-104295888D01*
X209234180Y-104190574D01*
X209185710Y-104073555D01*
X209161000Y-103949331D01*
X209161000Y-103822669D01*
X209185710Y-103698445D01*
X209234180Y-103581426D01*
X209304549Y-103476112D01*
X209394112Y-103386549D01*
X209499426Y-103316180D01*
X209567974Y-103287787D01*
X209616444Y-103267710D01*
X209678557Y-103255355D01*
X209740669Y-103243000D01*
X209867331Y-103243000D01*
X209929443Y-103255355D01*
G37*
G36*
X202309443Y-103255355D02*
G01*
X202371556Y-103267710D01*
X202420026Y-103287787D01*
X202488574Y-103316180D01*
X202593888Y-103386549D01*
X202683451Y-103476112D01*
X202753820Y-103581426D01*
X202802290Y-103698445D01*
X202827000Y-103822669D01*
X202827000Y-103949331D01*
X202802290Y-104073555D01*
X202753820Y-104190574D01*
X202683451Y-104295888D01*
X202593888Y-104385451D01*
X202488574Y-104455820D01*
X202420026Y-104484213D01*
X202371556Y-104504290D01*
X202309443Y-104516645D01*
X202247331Y-104529000D01*
X202120669Y-104529000D01*
X202058557Y-104516645D01*
X201996444Y-104504290D01*
X201947974Y-104484213D01*
X201879426Y-104455820D01*
X201774112Y-104385451D01*
X201684549Y-104295888D01*
X201614180Y-104190574D01*
X201565710Y-104073555D01*
X201541000Y-103949331D01*
X201541000Y-103822669D01*
X201565710Y-103698445D01*
X201614180Y-103581426D01*
X201684549Y-103476112D01*
X201774112Y-103386549D01*
X201879426Y-103316180D01*
X201947974Y-103287787D01*
X201996444Y-103267710D01*
X202058557Y-103255355D01*
X202120669Y-103243000D01*
X202247331Y-103243000D01*
X202309443Y-103255355D01*
G37*
G36*
X212469443Y-103255355D02*
G01*
X212531556Y-103267710D01*
X212580026Y-103287787D01*
X212648574Y-103316180D01*
X212753888Y-103386549D01*
X212843451Y-103476112D01*
X212913820Y-103581426D01*
X212962290Y-103698445D01*
X212987000Y-103822669D01*
X212987000Y-103949331D01*
X212962290Y-104073555D01*
X212913820Y-104190574D01*
X212843451Y-104295888D01*
X212753888Y-104385451D01*
X212648574Y-104455820D01*
X212580026Y-104484213D01*
X212531556Y-104504290D01*
X212469443Y-104516645D01*
X212407331Y-104529000D01*
X212280669Y-104529000D01*
X212218557Y-104516645D01*
X212156444Y-104504290D01*
X212107974Y-104484213D01*
X212039426Y-104455820D01*
X211934112Y-104385451D01*
X211844549Y-104295888D01*
X211774180Y-104190574D01*
X211725710Y-104073555D01*
X211701000Y-103949331D01*
X211701000Y-103822669D01*
X211725710Y-103698445D01*
X211774180Y-103581426D01*
X211844549Y-103476112D01*
X211934112Y-103386549D01*
X212039426Y-103316180D01*
X212107974Y-103287787D01*
X212156444Y-103267710D01*
X212218557Y-103255355D01*
X212280669Y-103243000D01*
X212407331Y-103243000D01*
X212469443Y-103255355D01*
G37*
G36*
X215009443Y-103255355D02*
G01*
X215071556Y-103267710D01*
X215120026Y-103287787D01*
X215188574Y-103316180D01*
X215293888Y-103386549D01*
X215383451Y-103476112D01*
X215453820Y-103581426D01*
X215502290Y-103698445D01*
X215527000Y-103822669D01*
X215527000Y-103949331D01*
X215502290Y-104073555D01*
X215453820Y-104190574D01*
X215383451Y-104295888D01*
X215293888Y-104385451D01*
X215188574Y-104455820D01*
X215120026Y-104484213D01*
X215071556Y-104504290D01*
X215009443Y-104516645D01*
X214947331Y-104529000D01*
X214820669Y-104529000D01*
X214758557Y-104516645D01*
X214696444Y-104504290D01*
X214647974Y-104484213D01*
X214579426Y-104455820D01*
X214474112Y-104385451D01*
X214384549Y-104295888D01*
X214314180Y-104190574D01*
X214265710Y-104073555D01*
X214241000Y-103949331D01*
X214241000Y-103822669D01*
X214265710Y-103698445D01*
X214314180Y-103581426D01*
X214384549Y-103476112D01*
X214474112Y-103386549D01*
X214579426Y-103316180D01*
X214647974Y-103287787D01*
X214696444Y-103267710D01*
X214758557Y-103255355D01*
X214820669Y-103243000D01*
X214947331Y-103243000D01*
X215009443Y-103255355D01*
G37*
G36*
X217549443Y-103255355D02*
G01*
X217611556Y-103267710D01*
X217660026Y-103287787D01*
X217728574Y-103316180D01*
X217833888Y-103386549D01*
X217923451Y-103476112D01*
X217993820Y-103581426D01*
X218042290Y-103698445D01*
X218067000Y-103822669D01*
X218067000Y-103949331D01*
X218042290Y-104073555D01*
X217993820Y-104190574D01*
X217923451Y-104295888D01*
X217833888Y-104385451D01*
X217728574Y-104455820D01*
X217660026Y-104484213D01*
X217611556Y-104504290D01*
X217549443Y-104516645D01*
X217487331Y-104529000D01*
X217360669Y-104529000D01*
X217298557Y-104516645D01*
X217236444Y-104504290D01*
X217187974Y-104484213D01*
X217119426Y-104455820D01*
X217014112Y-104385451D01*
X216924549Y-104295888D01*
X216854180Y-104190574D01*
X216805710Y-104073555D01*
X216781000Y-103949331D01*
X216781000Y-103822669D01*
X216805710Y-103698445D01*
X216854180Y-103581426D01*
X216924549Y-103476112D01*
X217014112Y-103386549D01*
X217119426Y-103316180D01*
X217187974Y-103287787D01*
X217236444Y-103267710D01*
X217298557Y-103255355D01*
X217360669Y-103243000D01*
X217487331Y-103243000D01*
X217549443Y-103255355D01*
G37*
G36*
X220089443Y-103255355D02*
G01*
X220151556Y-103267710D01*
X220200026Y-103287787D01*
X220268574Y-103316180D01*
X220373888Y-103386549D01*
X220463451Y-103476112D01*
X220533820Y-103581426D01*
X220582290Y-103698445D01*
X220607000Y-103822669D01*
X220607000Y-103949331D01*
X220582290Y-104073555D01*
X220533820Y-104190574D01*
X220463451Y-104295888D01*
X220373888Y-104385451D01*
X220268574Y-104455820D01*
X220200026Y-104484213D01*
X220151556Y-104504290D01*
X220089443Y-104516645D01*
X220027331Y-104529000D01*
X219900669Y-104529000D01*
X219838557Y-104516645D01*
X219776444Y-104504290D01*
X219727974Y-104484213D01*
X219659426Y-104455820D01*
X219554112Y-104385451D01*
X219464549Y-104295888D01*
X219394180Y-104190574D01*
X219345710Y-104073555D01*
X219321000Y-103949331D01*
X219321000Y-103822669D01*
X219345710Y-103698445D01*
X219394180Y-103581426D01*
X219464549Y-103476112D01*
X219554112Y-103386549D01*
X219659426Y-103316180D01*
X219727974Y-103287787D01*
X219776444Y-103267710D01*
X219838557Y-103255355D01*
X219900669Y-103243000D01*
X220027331Y-103243000D01*
X220089443Y-103255355D01*
G37*
G36*
X222629443Y-103255355D02*
G01*
X222691556Y-103267710D01*
X222740026Y-103287787D01*
X222808574Y-103316180D01*
X222913888Y-103386549D01*
X223003451Y-103476112D01*
X223073820Y-103581426D01*
X223122290Y-103698445D01*
X223147000Y-103822669D01*
X223147000Y-103949331D01*
X223122290Y-104073555D01*
X223073820Y-104190574D01*
X223003451Y-104295888D01*
X222913888Y-104385451D01*
X222808574Y-104455820D01*
X222740026Y-104484213D01*
X222691556Y-104504290D01*
X222629443Y-104516645D01*
X222567331Y-104529000D01*
X222440669Y-104529000D01*
X222378557Y-104516645D01*
X222316444Y-104504290D01*
X222267974Y-104484213D01*
X222199426Y-104455820D01*
X222094112Y-104385451D01*
X222004549Y-104295888D01*
X221934180Y-104190574D01*
X221885710Y-104073555D01*
X221861000Y-103949331D01*
X221861000Y-103822669D01*
X221885710Y-103698445D01*
X221934180Y-103581426D01*
X222004549Y-103476112D01*
X222094112Y-103386549D01*
X222199426Y-103316180D01*
X222267974Y-103287787D01*
X222316444Y-103267710D01*
X222378557Y-103255355D01*
X222440669Y-103243000D01*
X222567331Y-103243000D01*
X222629443Y-103255355D01*
G37*
G36*
X225169443Y-103255355D02*
G01*
X225231556Y-103267710D01*
X225280026Y-103287787D01*
X225348574Y-103316180D01*
X225453888Y-103386549D01*
X225543451Y-103476112D01*
X225613820Y-103581426D01*
X225662290Y-103698445D01*
X225687000Y-103822669D01*
X225687000Y-103949331D01*
X225662290Y-104073555D01*
X225613820Y-104190574D01*
X225543451Y-104295888D01*
X225453888Y-104385451D01*
X225348574Y-104455820D01*
X225280026Y-104484213D01*
X225231556Y-104504290D01*
X225169443Y-104516645D01*
X225107331Y-104529000D01*
X224980669Y-104529000D01*
X224918557Y-104516645D01*
X224856444Y-104504290D01*
X224807974Y-104484213D01*
X224739426Y-104455820D01*
X224634112Y-104385451D01*
X224544549Y-104295888D01*
X224474180Y-104190574D01*
X224425710Y-104073555D01*
X224401000Y-103949331D01*
X224401000Y-103822669D01*
X224425710Y-103698445D01*
X224474180Y-103581426D01*
X224544549Y-103476112D01*
X224634112Y-103386549D01*
X224739426Y-103316180D01*
X224807974Y-103287787D01*
X224856444Y-103267710D01*
X224918557Y-103255355D01*
X224980669Y-103243000D01*
X225107331Y-103243000D01*
X225169443Y-103255355D01*
G37*
G36*
X227709443Y-103255355D02*
G01*
X227771556Y-103267710D01*
X227820026Y-103287787D01*
X227888574Y-103316180D01*
X227993888Y-103386549D01*
X228083451Y-103476112D01*
X228153820Y-103581426D01*
X228202290Y-103698445D01*
X228227000Y-103822669D01*
X228227000Y-103949331D01*
X228202290Y-104073555D01*
X228153820Y-104190574D01*
X228083451Y-104295888D01*
X227993888Y-104385451D01*
X227888574Y-104455820D01*
X227820026Y-104484213D01*
X227771556Y-104504290D01*
X227709443Y-104516645D01*
X227647331Y-104529000D01*
X227520669Y-104529000D01*
X227458557Y-104516645D01*
X227396444Y-104504290D01*
X227347974Y-104484213D01*
X227279426Y-104455820D01*
X227174112Y-104385451D01*
X227084549Y-104295888D01*
X227014180Y-104190574D01*
X226965710Y-104073555D01*
X226941000Y-103949331D01*
X226941000Y-103822669D01*
X226965710Y-103698445D01*
X227014180Y-103581426D01*
X227084549Y-103476112D01*
X227174112Y-103386549D01*
X227279426Y-103316180D01*
X227347974Y-103287787D01*
X227396444Y-103267710D01*
X227458557Y-103255355D01*
X227520669Y-103243000D01*
X227647331Y-103243000D01*
X227709443Y-103255355D01*
G37*
G36*
X230249443Y-103255355D02*
G01*
X230311556Y-103267710D01*
X230360026Y-103287787D01*
X230428574Y-103316180D01*
X230533888Y-103386549D01*
X230623451Y-103476112D01*
X230693820Y-103581426D01*
X230742290Y-103698445D01*
X230767000Y-103822669D01*
X230767000Y-103949331D01*
X230742290Y-104073555D01*
X230693820Y-104190574D01*
X230623451Y-104295888D01*
X230533888Y-104385451D01*
X230428574Y-104455820D01*
X230360026Y-104484213D01*
X230311556Y-104504290D01*
X230249443Y-104516645D01*
X230187331Y-104529000D01*
X230060669Y-104529000D01*
X229998557Y-104516645D01*
X229936444Y-104504290D01*
X229887974Y-104484213D01*
X229819426Y-104455820D01*
X229714112Y-104385451D01*
X229624549Y-104295888D01*
X229554180Y-104190574D01*
X229505710Y-104073555D01*
X229481000Y-103949331D01*
X229481000Y-103822669D01*
X229505710Y-103698445D01*
X229554180Y-103581426D01*
X229624549Y-103476112D01*
X229714112Y-103386549D01*
X229819426Y-103316180D01*
X229887974Y-103287787D01*
X229936444Y-103267710D01*
X229998557Y-103255355D01*
X230060669Y-103243000D01*
X230187331Y-103243000D01*
X230249443Y-103255355D01*
G37*
G36*
X207389443Y-103255355D02*
G01*
X207451556Y-103267710D01*
X207500026Y-103287787D01*
X207568574Y-103316180D01*
X207673888Y-103386549D01*
X207763451Y-103476112D01*
X207833820Y-103581426D01*
X207882290Y-103698445D01*
X207907000Y-103822669D01*
X207907000Y-103949331D01*
X207882290Y-104073555D01*
X207833820Y-104190574D01*
X207763451Y-104295888D01*
X207673888Y-104385451D01*
X207568574Y-104455820D01*
X207500026Y-104484213D01*
X207451556Y-104504290D01*
X207389443Y-104516645D01*
X207327331Y-104529000D01*
X207200669Y-104529000D01*
X207138557Y-104516645D01*
X207076444Y-104504290D01*
X207027974Y-104484213D01*
X206959426Y-104455820D01*
X206854112Y-104385451D01*
X206764549Y-104295888D01*
X206694180Y-104190574D01*
X206645710Y-104073555D01*
X206621000Y-103949331D01*
X206621000Y-103822669D01*
X206645710Y-103698445D01*
X206694180Y-103581426D01*
X206764549Y-103476112D01*
X206854112Y-103386549D01*
X206959426Y-103316180D01*
X207027974Y-103287787D01*
X207076444Y-103267710D01*
X207138557Y-103255355D01*
X207200669Y-103243000D01*
X207327331Y-103243000D01*
X207389443Y-103255355D01*
G37*
M02*
