M48
; DRILL file {KiCad (5.1.5)-3} date 1.7.2021 11.46.30
; FORMAT={-:-/ absolute / inch / decimal}
; #@! TF.CreationDate,2021-07-01T11:46:30+03:00
; #@! TF.GenerationSoftware,Kicad,Pcbnew,(5.1.5)-3
; #@! TF.FileFunction,Plated,1,2,PTH
FMAT,2
INCH
T1C0.0157
T2C0.0309
%
G90
G05
T1
X7.5Y-5.1
X7.6Y-5.1
X7.7Y-5.1
X7.8Y-5.1
X8.0Y-5.1
X8.1Y-4.3
X8.2Y-5.1
X8.2961Y-4.3461
X8.4Y-4.38
X8.4Y-5.1
X8.5Y-4.38
X8.5Y-5.1
X8.65Y-4.3
X8.65Y-4.56
X9.45Y-4.81
X9.45Y-5.02
T2
X7.56Y-4.09
X7.56Y-4.69
X7.66Y-4.09
X7.66Y-4.69
X7.76Y-4.09
X7.76Y-4.69
X7.86Y-4.09
X7.86Y-4.69
X7.96Y-4.09
X7.96Y-4.69
X8.06Y-4.09
X8.06Y-4.69
X8.16Y-4.09
X8.16Y-4.69
X8.26Y-4.09
X8.26Y-4.69
X8.36Y-4.09
X8.36Y-4.69
X8.46Y-4.09
X8.46Y-4.69
X8.56Y-4.09
X8.56Y-4.69
X8.66Y-4.09
X8.66Y-4.69
X8.76Y-4.09
X8.76Y-4.69
X8.86Y-4.09
X8.86Y-4.69
X8.96Y-4.09
X8.96Y-4.69
X9.06Y-4.09
X9.06Y-4.69
T0
M30
