G04 #@! TF.GenerationSoftware,KiCad,Pcbnew,(5.1.5)-3*
G04 #@! TF.CreationDate,2021-07-01T11:46:27+03:00*
G04 #@! TF.ProjectId,ISAMEM,4953414d-454d-42e6-9b69-6361645f7063,rev?*
G04 #@! TF.SameCoordinates,Original*
G04 #@! TF.FileFunction,Copper,L1,Top*
G04 #@! TF.FilePolarity,Positive*
%FSLAX46Y46*%
G04 Gerber Fmt 4.6, Leading zero omitted, Abs format (unit mm)*
G04 Created by KiCad (PCBNEW (5.1.5)-3) date 2021-07-01 11:46:27*
%MOMM*%
%LPD*%
G04 APERTURE LIST*
%ADD10C,1.184000*%
%ADD11R,1.184000X1.184000*%
%ADD12C,0.100000*%
%ADD13R,1.524000X6.858000*%
%ADD14C,0.800000*%
%ADD15C,0.250000*%
%ADD16C,1.000000*%
G04 APERTURE END LIST*
D10*
X192024000Y-103886000D03*
X194564000Y-103886000D03*
X197104000Y-103886000D03*
X199644000Y-103886000D03*
X202184000Y-103886000D03*
X204724000Y-103886000D03*
X207264000Y-103886000D03*
X209804000Y-103886000D03*
X212344000Y-103886000D03*
X214884000Y-103886000D03*
X217424000Y-103886000D03*
X219964000Y-103886000D03*
X222504000Y-103886000D03*
X225044000Y-103886000D03*
X227584000Y-103886000D03*
X230124000Y-103886000D03*
X230124000Y-119126000D03*
X227584000Y-119126000D03*
X225044000Y-119126000D03*
X222504000Y-119126000D03*
X219964000Y-119126000D03*
X217424000Y-119126000D03*
X214884000Y-119126000D03*
X212344000Y-119126000D03*
X209804000Y-119126000D03*
X207264000Y-119126000D03*
X204724000Y-119126000D03*
X202184000Y-119126000D03*
X199644000Y-119126000D03*
X197104000Y-119126000D03*
X194564000Y-119126000D03*
D11*
X192024000Y-119126000D03*
G04 #@! TA.AperFunction,SMDPad,CuDef*
D12*
G36*
X227875191Y-112859960D02*
G01*
X227896426Y-112863110D01*
X227917250Y-112868326D01*
X227937462Y-112875558D01*
X227956868Y-112884737D01*
X227975281Y-112895773D01*
X227992524Y-112908561D01*
X228008430Y-112922977D01*
X228022846Y-112938883D01*
X228035634Y-112956126D01*
X228046670Y-112974539D01*
X228055849Y-112993945D01*
X228063081Y-113014157D01*
X228068297Y-113034981D01*
X228071447Y-113056216D01*
X228072500Y-113077657D01*
X228072500Y-113590157D01*
X228071447Y-113611598D01*
X228068297Y-113632833D01*
X228063081Y-113653657D01*
X228055849Y-113673869D01*
X228046670Y-113693275D01*
X228035634Y-113711688D01*
X228022846Y-113728931D01*
X228008430Y-113744837D01*
X227992524Y-113759253D01*
X227975281Y-113772041D01*
X227956868Y-113783077D01*
X227937462Y-113792256D01*
X227917250Y-113799488D01*
X227896426Y-113804704D01*
X227875191Y-113807854D01*
X227853750Y-113808907D01*
X227416250Y-113808907D01*
X227394809Y-113807854D01*
X227373574Y-113804704D01*
X227352750Y-113799488D01*
X227332538Y-113792256D01*
X227313132Y-113783077D01*
X227294719Y-113772041D01*
X227277476Y-113759253D01*
X227261570Y-113744837D01*
X227247154Y-113728931D01*
X227234366Y-113711688D01*
X227223330Y-113693275D01*
X227214151Y-113673869D01*
X227206919Y-113653657D01*
X227201703Y-113632833D01*
X227198553Y-113611598D01*
X227197500Y-113590157D01*
X227197500Y-113077657D01*
X227198553Y-113056216D01*
X227201703Y-113034981D01*
X227206919Y-113014157D01*
X227214151Y-112993945D01*
X227223330Y-112974539D01*
X227234366Y-112956126D01*
X227247154Y-112938883D01*
X227261570Y-112922977D01*
X227277476Y-112908561D01*
X227294719Y-112895773D01*
X227313132Y-112884737D01*
X227332538Y-112875558D01*
X227352750Y-112868326D01*
X227373574Y-112863110D01*
X227394809Y-112859960D01*
X227416250Y-112858907D01*
X227853750Y-112858907D01*
X227875191Y-112859960D01*
G37*
G04 #@! TD.AperFunction*
G04 #@! TA.AperFunction,SMDPad,CuDef*
G36*
X226300191Y-112859960D02*
G01*
X226321426Y-112863110D01*
X226342250Y-112868326D01*
X226362462Y-112875558D01*
X226381868Y-112884737D01*
X226400281Y-112895773D01*
X226417524Y-112908561D01*
X226433430Y-112922977D01*
X226447846Y-112938883D01*
X226460634Y-112956126D01*
X226471670Y-112974539D01*
X226480849Y-112993945D01*
X226488081Y-113014157D01*
X226493297Y-113034981D01*
X226496447Y-113056216D01*
X226497500Y-113077657D01*
X226497500Y-113590157D01*
X226496447Y-113611598D01*
X226493297Y-113632833D01*
X226488081Y-113653657D01*
X226480849Y-113673869D01*
X226471670Y-113693275D01*
X226460634Y-113711688D01*
X226447846Y-113728931D01*
X226433430Y-113744837D01*
X226417524Y-113759253D01*
X226400281Y-113772041D01*
X226381868Y-113783077D01*
X226362462Y-113792256D01*
X226342250Y-113799488D01*
X226321426Y-113804704D01*
X226300191Y-113807854D01*
X226278750Y-113808907D01*
X225841250Y-113808907D01*
X225819809Y-113807854D01*
X225798574Y-113804704D01*
X225777750Y-113799488D01*
X225757538Y-113792256D01*
X225738132Y-113783077D01*
X225719719Y-113772041D01*
X225702476Y-113759253D01*
X225686570Y-113744837D01*
X225672154Y-113728931D01*
X225659366Y-113711688D01*
X225648330Y-113693275D01*
X225639151Y-113673869D01*
X225631919Y-113653657D01*
X225626703Y-113632833D01*
X225623553Y-113611598D01*
X225622500Y-113590157D01*
X225622500Y-113077657D01*
X225623553Y-113056216D01*
X225626703Y-113034981D01*
X225631919Y-113014157D01*
X225639151Y-112993945D01*
X225648330Y-112974539D01*
X225659366Y-112956126D01*
X225672154Y-112938883D01*
X225686570Y-112922977D01*
X225702476Y-112908561D01*
X225719719Y-112895773D01*
X225738132Y-112884737D01*
X225757538Y-112875558D01*
X225777750Y-112868326D01*
X225798574Y-112863110D01*
X225819809Y-112859960D01*
X225841250Y-112858907D01*
X226278750Y-112858907D01*
X226300191Y-112859960D01*
G37*
G04 #@! TD.AperFunction*
D13*
X246380000Y-135001000D03*
X243840000Y-135001000D03*
X241300000Y-135001000D03*
X238760000Y-135001000D03*
X236220000Y-135001000D03*
X233680000Y-135001000D03*
X231140000Y-135001000D03*
X228600000Y-135001000D03*
X226060000Y-135001000D03*
X223520000Y-135001000D03*
X220980000Y-135001000D03*
X218440000Y-135001000D03*
X215900000Y-135001000D03*
X213360000Y-135001000D03*
X210820000Y-135001000D03*
X208280000Y-135001000D03*
X205740000Y-135001000D03*
X203200000Y-135001000D03*
X200660000Y-135001000D03*
X198120000Y-135001000D03*
X195580000Y-135001000D03*
X193040000Y-135001000D03*
X190500000Y-135001000D03*
X187960000Y-135001000D03*
X185420000Y-135001000D03*
X182880000Y-135001000D03*
X180340000Y-135001000D03*
X177800000Y-135001000D03*
X175260000Y-135001000D03*
X172720000Y-135001000D03*
X170180000Y-135001000D03*
D14*
X219710000Y-109220000D03*
X240030000Y-122174000D03*
X240030000Y-127508000D03*
X213360000Y-129540000D03*
X215900000Y-111252000D03*
X215900000Y-129540000D03*
X219710000Y-115824000D03*
X203200000Y-129540000D03*
X210721001Y-110391001D03*
X190500000Y-129540000D03*
X193040000Y-129540000D03*
X198120000Y-129540000D03*
X195580000Y-129540000D03*
X205740000Y-109220000D03*
X208280000Y-129540000D03*
X213360000Y-111252000D03*
D15*
X240030000Y-127508000D02*
X240030000Y-122174000D01*
D16*
X201471907Y-113333907D02*
X192024000Y-103886000D01*
X222967093Y-113333907D02*
X201471907Y-113333907D01*
X222967093Y-113333907D02*
X226060000Y-113333907D01*
X230124000Y-119126000D02*
X230124000Y-115227000D01*
X228230907Y-113333907D02*
X227635000Y-113333907D01*
X230124000Y-115227000D02*
X228230907Y-113333907D01*
D15*
X210820000Y-129119162D02*
X210820000Y-135001000D01*
X194564000Y-119126000D02*
X195931011Y-117758989D01*
X200270562Y-117758990D02*
X201266999Y-118755427D01*
X201266999Y-118755427D02*
X201266999Y-119566161D01*
X195931011Y-117758989D02*
X200270562Y-117758990D01*
X201266999Y-119566161D02*
X210820000Y-129119162D01*
X213360000Y-135001000D02*
X213360000Y-129540000D01*
X213360000Y-129540000D02*
X213360000Y-129540000D01*
X197695999Y-104477999D02*
X197104000Y-103886000D01*
X204334002Y-111116002D02*
X197695999Y-104477999D01*
X211069002Y-111116002D02*
X204334002Y-111116002D01*
X211658005Y-110526999D02*
X211069002Y-111116002D01*
X215174999Y-110526999D02*
X211658005Y-110526999D01*
X215900000Y-111252000D02*
X215174999Y-110526999D01*
X215900000Y-135001000D02*
X215900000Y-129540000D01*
X215900000Y-129540000D02*
X215900000Y-129540000D01*
X218440000Y-122007162D02*
X220881001Y-119566161D01*
X218440000Y-135001000D02*
X218440000Y-122007162D01*
X220881001Y-119566161D02*
X220881001Y-118265001D01*
X220881001Y-118265001D02*
X219710000Y-117094000D01*
X219710000Y-117094000D02*
X219710000Y-115824000D01*
X219710000Y-115824000D02*
X219710000Y-115824000D01*
X217424000Y-106934000D02*
X219710000Y-109220000D01*
X217424000Y-103886000D02*
X217424000Y-106934000D01*
X198021001Y-118208999D02*
X197104000Y-119126000D01*
X205740000Y-135001000D02*
X205740000Y-127000000D01*
X200561001Y-121821001D02*
X200561001Y-118685839D01*
X200561001Y-118685839D02*
X200084161Y-118208999D01*
X205740000Y-127000000D02*
X200561001Y-121821001D01*
X200084161Y-118208999D02*
X198021001Y-118208999D01*
X203200000Y-135001000D02*
X203200000Y-131322000D01*
X203200000Y-131322000D02*
X203200000Y-129540000D01*
X203200000Y-129540000D02*
X203200000Y-129540000D01*
X202184000Y-104723214D02*
X202184000Y-103886000D01*
X202184000Y-106737002D02*
X202184000Y-104723214D01*
X205837999Y-110391001D02*
X202184000Y-106737002D01*
X210721001Y-110391001D02*
X205837999Y-110391001D01*
X190500000Y-135001000D02*
X190500000Y-131322000D01*
X190500000Y-131322000D02*
X190500000Y-129540000D01*
X190500000Y-129540000D02*
X190500000Y-129540000D01*
X193040000Y-135001000D02*
X193040000Y-129540000D01*
X193040000Y-129540000D02*
X193040000Y-129540000D01*
X198120000Y-135001000D02*
X198120000Y-129540000D01*
X198120000Y-129540000D02*
X198120000Y-129540000D01*
X195580000Y-135001000D02*
X195580000Y-131322000D01*
X195580000Y-131322000D02*
X195580000Y-129540000D01*
X195580000Y-129540000D02*
X195580000Y-129540000D01*
X209550000Y-109220000D02*
X205740000Y-109220000D01*
X214884000Y-103886000D02*
X209550000Y-109220000D01*
X243840000Y-114335608D02*
X243840000Y-131322000D01*
X231123364Y-101618972D02*
X243840000Y-114335608D01*
X222231028Y-101618972D02*
X231123364Y-101618972D01*
X243840000Y-131322000D02*
X243840000Y-135001000D01*
X219964000Y-103886000D02*
X222231028Y-101618972D01*
X241300000Y-131322000D02*
X241300000Y-135001000D01*
X241300000Y-112432018D02*
X241300000Y-131322000D01*
X230936963Y-102068981D02*
X241300000Y-112432018D01*
X224321019Y-102068981D02*
X230936963Y-102068981D01*
X222504000Y-103886000D02*
X224321019Y-102068981D01*
X238760000Y-131322000D02*
X238760000Y-135001000D01*
X238760000Y-110528428D02*
X238760000Y-131322000D01*
X230750562Y-102518990D02*
X238760000Y-110528428D01*
X226411010Y-102518990D02*
X230750562Y-102518990D01*
X225044000Y-103886000D02*
X226411010Y-102518990D01*
X236220000Y-108624838D02*
X236220000Y-131322000D01*
X230564161Y-102968999D02*
X236220000Y-108624838D01*
X228501001Y-102968999D02*
X230564161Y-102968999D01*
X236220000Y-131322000D02*
X236220000Y-135001000D01*
X227584000Y-103886000D02*
X228501001Y-102968999D01*
X233680000Y-107442000D02*
X233680000Y-135001000D01*
X230124000Y-103886000D02*
X233680000Y-107442000D01*
X231140000Y-123519214D02*
X231140000Y-131322000D01*
X227584000Y-119963214D02*
X231140000Y-123519214D01*
X231140000Y-131322000D02*
X231140000Y-135001000D01*
X227584000Y-119126000D02*
X227584000Y-119963214D01*
X228600000Y-122682000D02*
X228600000Y-135001000D01*
X225044000Y-119126000D02*
X228600000Y-122682000D01*
X226060000Y-122682000D02*
X226060000Y-135001000D01*
X222504000Y-119126000D02*
X226060000Y-122682000D01*
X187343083Y-114158917D02*
X170180000Y-131322000D01*
X214159703Y-114158917D02*
X187343083Y-114158917D01*
X219126786Y-119126000D02*
X214159703Y-114158917D01*
X170180000Y-131322000D02*
X170180000Y-135001000D01*
X219964000Y-119126000D02*
X219126786Y-119126000D01*
X189433073Y-114608927D02*
X172720000Y-131322000D01*
X207263999Y-114608927D02*
X189433073Y-114608927D01*
X172720000Y-131322000D02*
X172720000Y-135001000D01*
X212906925Y-114608927D02*
X207263999Y-114608927D01*
X217424000Y-119126000D02*
X212906925Y-114608927D01*
X214884000Y-119126000D02*
X210816936Y-115058936D01*
X210816936Y-115058936D02*
X208913343Y-115058935D01*
X208913343Y-115058935D02*
X205739999Y-115058936D01*
X175260000Y-131322000D02*
X175260000Y-135001000D01*
X191140012Y-115058936D02*
X175260000Y-130938948D01*
X175260000Y-130938948D02*
X175260000Y-131322000D01*
X205739999Y-115058936D02*
X191140012Y-115058936D01*
X177800000Y-131322000D02*
X177800000Y-135001000D01*
X177800000Y-129035358D02*
X177800000Y-131322000D01*
X208726944Y-115508944D02*
X191326413Y-115508945D01*
X191326413Y-115508945D02*
X177800000Y-129035358D01*
X212344000Y-119126000D02*
X208726944Y-115508944D01*
X180340000Y-131322000D02*
X180340000Y-135001000D01*
X209804000Y-119126000D02*
X206636954Y-115958954D01*
X206636954Y-115958954D02*
X199389999Y-115958954D01*
X191512814Y-115958954D02*
X180340000Y-127131768D01*
X199389999Y-115958954D02*
X191512814Y-115958954D01*
X180340000Y-127131768D02*
X180340000Y-131322000D01*
X182880000Y-131322000D02*
X182880000Y-135001000D01*
X182880000Y-125228178D02*
X182880000Y-131322000D01*
X207264000Y-119126000D02*
X206426786Y-119126000D01*
X206426786Y-119126000D02*
X203709747Y-116408963D01*
X203709747Y-116408963D02*
X202643370Y-116408962D01*
X202643370Y-116408962D02*
X191699215Y-116408963D01*
X191699215Y-116408963D02*
X182880000Y-125228178D01*
X185420000Y-131322000D02*
X185420000Y-135001000D01*
X185420000Y-123324588D02*
X185420000Y-131322000D01*
X191885616Y-116858972D02*
X185420000Y-123324588D01*
X202456971Y-116858971D02*
X191885616Y-116858972D01*
X204724000Y-119126000D02*
X202456971Y-116858971D01*
X187960000Y-131322000D02*
X187960000Y-135001000D01*
X192072017Y-117308981D02*
X187960000Y-121420998D01*
X200456961Y-117308981D02*
X192072017Y-117308981D01*
X201717008Y-118569026D02*
X200456961Y-117308981D01*
X187960000Y-121420998D02*
X187960000Y-131322000D01*
X201930000Y-119126000D02*
X201717009Y-118913009D01*
X201717009Y-118913009D02*
X201717008Y-118569026D01*
X202184000Y-119126000D02*
X201930000Y-119126000D01*
X199644000Y-119126000D02*
X199644000Y-126492000D01*
X200660000Y-127508000D02*
X200660000Y-135001000D01*
X199644000Y-126492000D02*
X200660000Y-127508000D01*
X208280000Y-135001000D02*
X208280000Y-131322000D01*
X208280000Y-131322000D02*
X208280000Y-129540000D01*
X208280000Y-129540000D02*
X208280000Y-129540000D01*
X213360000Y-111252000D02*
X212103103Y-112508897D01*
X203186897Y-112508897D02*
X194564000Y-103886000D01*
X212103103Y-112508897D02*
X203186897Y-112508897D01*
M02*
